<?xml version="1.0" encoding="utf-8"?>
<svg xmlns="http://www.w3.org/2000/svg" xmlns:xlink="http://www.w3.org/1999/xlink" width="600" height="400" viewBox="0 0 2400 1600">
<defs>
  <clipPath id="clip220">
    <rect x="0" y="0" width="2400" height="1600"/>
  </clipPath>
</defs>
<path clip-path="url(#clip220)" d="
M0 1600 L2400 1600 L2400 0 L0 0  Z
  " fill="#ffffff" fill-rule="evenodd" fill-opacity="1"/>
<defs>
  <clipPath id="clip221">
    <rect x="480" y="0" width="1681" height="1600"/>
  </clipPath>
</defs>
<path clip-path="url(#clip220)" d="
M262.551 1410.9 L2352.76 1410.9 L2352.76 123.472 L262.551 123.472  Z
  " fill="#ffffff" fill-rule="evenodd" fill-opacity="1"/>
<defs>
  <clipPath id="clip222">
    <rect x="262" y="123" width="2091" height="1288"/>
  </clipPath>
</defs>
<polyline clip-path="url(#clip222)" style="stroke:#000000; stroke-linecap:butt; stroke-linejoin:round; stroke-width:2; stroke-opacity:0.1; fill:none" points="
  321.708,1410.9 321.708,123.472 
  "/>
<polyline clip-path="url(#clip222)" style="stroke:#000000; stroke-linecap:butt; stroke-linejoin:round; stroke-width:2; stroke-opacity:0.1; fill:none" points="
  619.457,1410.9 619.457,123.472 
  "/>
<polyline clip-path="url(#clip222)" style="stroke:#000000; stroke-linecap:butt; stroke-linejoin:round; stroke-width:2; stroke-opacity:0.1; fill:none" points="
  917.206,1410.9 917.206,123.472 
  "/>
<polyline clip-path="url(#clip222)" style="stroke:#000000; stroke-linecap:butt; stroke-linejoin:round; stroke-width:2; stroke-opacity:0.1; fill:none" points="
  1214.96,1410.9 1214.96,123.472 
  "/>
<polyline clip-path="url(#clip222)" style="stroke:#000000; stroke-linecap:butt; stroke-linejoin:round; stroke-width:2; stroke-opacity:0.1; fill:none" points="
  1512.7,1410.9 1512.7,123.472 
  "/>
<polyline clip-path="url(#clip222)" style="stroke:#000000; stroke-linecap:butt; stroke-linejoin:round; stroke-width:2; stroke-opacity:0.1; fill:none" points="
  1810.45,1410.9 1810.45,123.472 
  "/>
<polyline clip-path="url(#clip222)" style="stroke:#000000; stroke-linecap:butt; stroke-linejoin:round; stroke-width:2; stroke-opacity:0.1; fill:none" points="
  2108.2,1410.9 2108.2,123.472 
  "/>
<polyline clip-path="url(#clip220)" style="stroke:#000000; stroke-linecap:butt; stroke-linejoin:round; stroke-width:4; stroke-opacity:1; fill:none" points="
  262.551,1410.9 2352.76,1410.9 
  "/>
<polyline clip-path="url(#clip220)" style="stroke:#000000; stroke-linecap:butt; stroke-linejoin:round; stroke-width:4; stroke-opacity:1; fill:none" points="
  321.708,1410.9 321.708,1392 
  "/>
<polyline clip-path="url(#clip220)" style="stroke:#000000; stroke-linecap:butt; stroke-linejoin:round; stroke-width:4; stroke-opacity:1; fill:none" points="
  619.457,1410.9 619.457,1392 
  "/>
<polyline clip-path="url(#clip220)" style="stroke:#000000; stroke-linecap:butt; stroke-linejoin:round; stroke-width:4; stroke-opacity:1; fill:none" points="
  917.206,1410.9 917.206,1392 
  "/>
<polyline clip-path="url(#clip220)" style="stroke:#000000; stroke-linecap:butt; stroke-linejoin:round; stroke-width:4; stroke-opacity:1; fill:none" points="
  1214.96,1410.9 1214.96,1392 
  "/>
<polyline clip-path="url(#clip220)" style="stroke:#000000; stroke-linecap:butt; stroke-linejoin:round; stroke-width:4; stroke-opacity:1; fill:none" points="
  1512.7,1410.9 1512.7,1392 
  "/>
<polyline clip-path="url(#clip220)" style="stroke:#000000; stroke-linecap:butt; stroke-linejoin:round; stroke-width:4; stroke-opacity:1; fill:none" points="
  1810.45,1410.9 1810.45,1392 
  "/>
<polyline clip-path="url(#clip220)" style="stroke:#000000; stroke-linecap:butt; stroke-linejoin:round; stroke-width:4; stroke-opacity:1; fill:none" points="
  2108.2,1410.9 2108.2,1392 
  "/>
<path clip-path="url(#clip220)" d="M286.691 1485.02 L294.33 1485.02 L294.33 1458.66 L286.019 1460.32 L286.019 1456.06 L294.283 1454.4 L298.959 1454.4 L298.959 1485.02 L306.598 1485.02 L306.598 1488.96 L286.691 1488.96 L286.691 1485.02 Z" fill="#000000" fill-rule="evenodd" fill-opacity="1" /><path clip-path="url(#clip220)" d="M326.042 1457.48 Q322.431 1457.48 320.603 1461.04 Q318.797 1464.58 318.797 1471.71 Q318.797 1478.82 320.603 1482.38 Q322.431 1485.92 326.042 1485.92 Q329.677 1485.92 331.482 1482.38 Q333.311 1478.82 333.311 1471.71 Q333.311 1464.58 331.482 1461.04 Q329.677 1457.48 326.042 1457.48 M326.042 1453.77 Q331.853 1453.77 334.908 1458.38 Q337.987 1462.96 337.987 1471.71 Q337.987 1480.44 334.908 1485.04 Q331.853 1489.63 326.042 1489.63 Q320.232 1489.63 317.154 1485.04 Q314.098 1480.44 314.098 1471.71 Q314.098 1462.96 317.154 1458.38 Q320.232 1453.77 326.042 1453.77 Z" fill="#000000" fill-rule="evenodd" fill-opacity="1" /><path clip-path="url(#clip220)" d="M347.692 1435.97 Q344.758 1435.97 343.272 1438.86 Q341.805 1441.74 341.805 1447.53 Q341.805 1453.31 343.272 1456.2 Q344.758 1459.08 347.692 1459.08 Q350.644 1459.08 352.111 1456.2 Q353.597 1453.31 353.597 1447.53 Q353.597 1441.74 352.111 1438.86 Q350.644 1435.97 347.692 1435.97 M347.692 1432.96 Q352.412 1432.96 354.895 1436.7 Q357.396 1440.43 357.396 1447.53 Q357.396 1454.62 354.895 1458.37 Q352.412 1462.09 347.692 1462.09 Q342.971 1462.09 340.469 1458.37 Q337.987 1454.62 337.987 1447.53 Q337.987 1440.43 340.469 1436.7 Q342.971 1432.96 347.692 1432.96 Z" fill="#000000" fill-rule="evenodd" fill-opacity="1" /><path clip-path="url(#clip220)" d="M585.785 1485.02 L593.424 1485.02 L593.424 1458.66 L585.113 1460.32 L585.113 1456.06 L593.377 1454.4 L598.053 1454.4 L598.053 1485.02 L605.692 1485.02 L605.692 1488.96 L585.785 1488.96 L585.785 1485.02 Z" fill="#000000" fill-rule="evenodd" fill-opacity="1" /><path clip-path="url(#clip220)" d="M625.136 1457.48 Q621.525 1457.48 619.697 1461.04 Q617.891 1464.58 617.891 1471.71 Q617.891 1478.82 619.697 1482.38 Q621.525 1485.92 625.136 1485.92 Q628.771 1485.92 630.576 1482.38 Q632.405 1478.82 632.405 1471.71 Q632.405 1464.58 630.576 1461.04 Q628.771 1457.48 625.136 1457.48 M625.136 1453.77 Q630.946 1453.77 634.002 1458.38 Q637.081 1462.96 637.081 1471.71 Q637.081 1480.44 634.002 1485.04 Q630.946 1489.63 625.136 1489.63 Q619.326 1489.63 616.247 1485.04 Q613.192 1480.44 613.192 1471.71 Q613.192 1462.96 616.247 1458.38 Q619.326 1453.77 625.136 1453.77 Z" fill="#000000" fill-rule="evenodd" fill-opacity="1" /><path clip-path="url(#clip220)" d="M637.626 1458.35 L643.833 1458.35 L643.833 1436.93 L637.081 1438.28 L637.081 1434.82 L643.795 1433.47 L647.594 1433.47 L647.594 1458.35 L653.801 1458.35 L653.801 1461.55 L637.626 1461.55 L637.626 1458.35 Z" fill="#000000" fill-rule="evenodd" fill-opacity="1" /><path clip-path="url(#clip220)" d="M882.979 1485.02 L890.618 1485.02 L890.618 1458.66 L882.308 1460.32 L882.308 1456.06 L890.572 1454.4 L895.247 1454.4 L895.247 1485.02 L902.886 1485.02 L902.886 1488.96 L882.979 1488.96 L882.979 1485.02 Z" fill="#000000" fill-rule="evenodd" fill-opacity="1" /><path clip-path="url(#clip220)" d="M922.331 1457.48 Q918.72 1457.48 916.891 1461.04 Q915.085 1464.58 915.085 1471.71 Q915.085 1478.82 916.891 1482.38 Q918.72 1485.92 922.331 1485.92 Q925.965 1485.92 927.77 1482.38 Q929.599 1478.82 929.599 1471.71 Q929.599 1464.58 927.77 1461.04 Q925.965 1457.48 922.331 1457.48 M922.331 1453.77 Q928.141 1453.77 931.196 1458.38 Q934.275 1462.96 934.275 1471.71 Q934.275 1480.44 931.196 1485.04 Q928.141 1489.63 922.331 1489.63 Q916.52 1489.63 913.442 1485.04 Q910.386 1480.44 910.386 1471.71 Q910.386 1462.96 913.442 1458.38 Q916.52 1453.77 922.331 1453.77 Z" fill="#000000" fill-rule="evenodd" fill-opacity="1" /><path clip-path="url(#clip220)" d="M938.845 1458.35 L952.105 1458.35 L952.105 1461.55 L934.275 1461.55 L934.275 1458.35 Q936.438 1456.11 940.162 1452.35 Q943.905 1448.57 944.864 1447.48 Q946.688 1445.43 947.403 1444.02 Q948.136 1442.59 948.136 1441.22 Q948.136 1438.98 946.556 1437.57 Q944.995 1436.16 942.475 1436.16 Q940.688 1436.16 938.695 1436.78 Q936.72 1437.4 934.463 1438.66 L934.463 1434.82 Q936.758 1433.9 938.751 1433.43 Q940.745 1432.96 942.4 1432.96 Q946.763 1432.96 949.359 1435.14 Q951.954 1437.32 951.954 1440.97 Q951.954 1442.7 951.296 1444.26 Q950.657 1445.8 948.945 1447.91 Q948.475 1448.46 945.955 1451.07 Q943.434 1453.67 938.845 1458.35 Z" fill="#000000" fill-rule="evenodd" fill-opacity="1" /><path clip-path="url(#clip220)" d="M1180.4 1485.02 L1188.04 1485.02 L1188.04 1458.66 L1179.73 1460.32 L1179.73 1456.06 L1187.99 1454.4 L1192.67 1454.4 L1192.67 1485.02 L1200.31 1485.02 L1200.31 1488.96 L1180.4 1488.96 L1180.4 1485.02 Z" fill="#000000" fill-rule="evenodd" fill-opacity="1" /><path clip-path="url(#clip220)" d="M1219.75 1457.48 Q1216.14 1457.48 1214.31 1461.04 Q1212.51 1464.58 1212.51 1471.71 Q1212.51 1478.82 1214.31 1482.38 Q1216.14 1485.92 1219.75 1485.92 Q1223.38 1485.92 1225.19 1482.38 Q1227.02 1478.82 1227.02 1471.71 Q1227.02 1464.58 1225.19 1461.04 Q1223.38 1457.48 1219.75 1457.48 M1219.75 1453.77 Q1225.56 1453.77 1228.62 1458.38 Q1231.69 1462.96 1231.69 1471.71 Q1231.69 1480.44 1228.62 1485.04 Q1225.56 1489.63 1219.75 1489.63 Q1213.94 1489.63 1210.86 1485.04 Q1207.81 1480.44 1207.81 1471.71 Q1207.81 1462.96 1210.86 1458.38 Q1213.94 1453.77 1219.75 1453.77 Z" fill="#000000" fill-rule="evenodd" fill-opacity="1" /><path clip-path="url(#clip220)" d="M1244.39 1446.41 Q1247.12 1446.99 1248.64 1448.83 Q1250.18 1450.68 1250.18 1453.38 Q1250.18 1457.54 1247.32 1459.82 Q1244.47 1462.09 1239.2 1462.09 Q1237.43 1462.09 1235.55 1461.73 Q1233.69 1461.4 1231.69 1460.7 L1231.69 1457.03 Q1233.27 1457.95 1235.16 1458.42 Q1237.04 1458.89 1239.09 1458.89 Q1242.66 1458.89 1244.52 1457.48 Q1246.4 1456.07 1246.4 1453.38 Q1246.4 1450.9 1244.65 1449.51 Q1242.92 1448.1 1239.82 1448.1 L1236.55 1448.1 L1236.55 1444.98 L1239.97 1444.98 Q1242.77 1444.98 1244.26 1443.87 Q1245.74 1442.74 1245.74 1440.63 Q1245.74 1438.47 1244.2 1437.32 Q1242.68 1436.16 1239.82 1436.16 Q1238.26 1436.16 1236.47 1436.49 Q1234.69 1436.83 1232.54 1437.55 L1232.54 1434.16 Q1234.7 1433.56 1236.59 1433.26 Q1238.48 1432.96 1240.16 1432.96 Q1244.48 1432.96 1247 1434.93 Q1249.52 1436.89 1249.52 1440.24 Q1249.52 1442.57 1248.19 1444.19 Q1246.85 1445.79 1244.39 1446.41 Z" fill="#000000" fill-rule="evenodd" fill-opacity="1" /><path clip-path="url(#clip220)" d="M1477.16 1485.02 L1484.8 1485.02 L1484.8 1458.66 L1476.49 1460.32 L1476.49 1456.06 L1484.75 1454.4 L1489.43 1454.4 L1489.43 1485.02 L1497.07 1485.02 L1497.07 1488.96 L1477.16 1488.96 L1477.16 1485.02 Z" fill="#000000" fill-rule="evenodd" fill-opacity="1" /><path clip-path="url(#clip220)" d="M1516.51 1457.48 Q1512.9 1457.48 1511.07 1461.04 Q1509.27 1464.58 1509.27 1471.71 Q1509.27 1478.82 1511.07 1482.38 Q1512.9 1485.92 1516.51 1485.92 Q1520.15 1485.92 1521.95 1482.38 Q1523.78 1478.82 1523.78 1471.71 Q1523.78 1464.58 1521.95 1461.04 Q1520.15 1457.48 1516.51 1457.48 M1516.51 1453.77 Q1522.32 1453.77 1525.38 1458.38 Q1528.46 1462.96 1528.46 1471.71 Q1528.46 1480.44 1525.38 1485.04 Q1522.32 1489.63 1516.51 1489.63 Q1510.7 1489.63 1507.62 1485.04 Q1504.57 1480.44 1504.57 1471.71 Q1504.57 1462.96 1507.62 1458.38 Q1510.7 1453.77 1516.51 1453.77 Z" fill="#000000" fill-rule="evenodd" fill-opacity="1" /><path clip-path="url(#clip220)" d="M1541.13 1436.78 L1531.54 1451.77 L1541.13 1451.77 L1541.13 1436.78 M1540.14 1433.47 L1544.91 1433.47 L1544.91 1451.77 L1548.92 1451.77 L1548.92 1454.93 L1544.91 1454.93 L1544.91 1461.55 L1541.13 1461.55 L1541.13 1454.93 L1528.46 1454.93 L1528.46 1451.26 L1540.14 1433.47 Z" fill="#000000" fill-rule="evenodd" fill-opacity="1" /><path clip-path="url(#clip220)" d="M1776.06 1485.02 L1783.7 1485.02 L1783.7 1458.66 L1775.39 1460.32 L1775.39 1456.06 L1783.65 1454.4 L1788.33 1454.4 L1788.33 1485.02 L1795.96 1485.02 L1795.96 1488.96 L1776.06 1488.96 L1776.06 1485.02 Z" fill="#000000" fill-rule="evenodd" fill-opacity="1" /><path clip-path="url(#clip220)" d="M1815.41 1457.48 Q1811.8 1457.48 1809.97 1461.04 Q1808.16 1464.58 1808.16 1471.71 Q1808.16 1478.82 1809.97 1482.38 Q1811.8 1485.92 1815.41 1485.92 Q1819.04 1485.92 1820.85 1482.38 Q1822.68 1478.82 1822.68 1471.71 Q1822.68 1464.58 1820.85 1461.04 Q1819.04 1457.48 1815.41 1457.48 M1815.41 1453.77 Q1821.22 1453.77 1824.27 1458.38 Q1827.35 1462.96 1827.35 1471.71 Q1827.35 1480.44 1824.27 1485.04 Q1821.22 1489.63 1815.41 1489.63 Q1809.6 1489.63 1806.52 1485.04 Q1803.46 1480.44 1803.46 1471.71 Q1803.46 1462.96 1806.52 1458.38 Q1809.6 1453.77 1815.41 1453.77 Z" fill="#000000" fill-rule="evenodd" fill-opacity="1" /><path clip-path="url(#clip220)" d="M1828.54 1433.47 L1843.45 1433.47 L1843.45 1436.66 L1832.02 1436.66 L1832.02 1443.55 Q1832.84 1443.27 1833.67 1443.13 Q1834.5 1442.98 1835.33 1442.98 Q1840.03 1442.98 1842.78 1445.56 Q1845.52 1448.14 1845.52 1452.54 Q1845.52 1457.07 1842.7 1459.59 Q1839.88 1462.09 1834.74 1462.09 Q1832.98 1462.09 1831.13 1461.79 Q1829.31 1461.49 1827.35 1460.89 L1827.35 1457.07 Q1829.05 1457.99 1830.85 1458.44 Q1832.66 1458.89 1834.67 1458.89 Q1837.92 1458.89 1839.82 1457.18 Q1841.72 1455.47 1841.72 1452.54 Q1841.72 1449.6 1839.82 1447.89 Q1837.92 1446.18 1834.67 1446.18 Q1833.15 1446.18 1831.62 1446.52 Q1830.12 1446.86 1828.54 1447.57 L1828.54 1433.47 Z" fill="#000000" fill-rule="evenodd" fill-opacity="1" /><path clip-path="url(#clip220)" d="M2073.19 1485.02 L2080.83 1485.02 L2080.83 1458.66 L2072.52 1460.32 L2072.52 1456.06 L2080.79 1454.4 L2085.46 1454.4 L2085.46 1485.02 L2093.1 1485.02 L2093.1 1488.96 L2073.19 1488.96 L2073.19 1485.02 Z" fill="#000000" fill-rule="evenodd" fill-opacity="1" /><path clip-path="url(#clip220)" d="M2112.55 1457.48 Q2108.94 1457.48 2107.11 1461.04 Q2105.3 1464.58 2105.3 1471.71 Q2105.3 1478.82 2107.11 1482.38 Q2108.94 1485.92 2112.55 1485.92 Q2116.18 1485.92 2117.99 1482.38 Q2119.82 1478.82 2119.82 1471.71 Q2119.82 1464.58 2117.99 1461.04 Q2116.18 1457.48 2112.55 1457.48 M2112.55 1453.77 Q2118.36 1453.77 2121.41 1458.38 Q2124.49 1462.96 2124.49 1471.71 Q2124.49 1480.44 2121.41 1485.04 Q2118.36 1489.63 2112.55 1489.63 Q2106.74 1489.63 2103.66 1485.04 Q2100.6 1480.44 2100.6 1471.71 Q2100.6 1462.96 2103.66 1458.38 Q2106.74 1453.77 2112.55 1453.77 Z" fill="#000000" fill-rule="evenodd" fill-opacity="1" /><path clip-path="url(#clip220)" d="M2134.52 1445.99 Q2131.96 1445.99 2130.45 1447.74 Q2128.97 1449.49 2128.97 1452.54 Q2128.97 1455.57 2130.45 1457.33 Q2131.96 1459.08 2134.52 1459.08 Q2137.07 1459.08 2138.56 1457.33 Q2140.06 1455.57 2140.06 1452.54 Q2140.06 1449.49 2138.56 1447.74 Q2137.07 1445.99 2134.52 1445.99 M2142.06 1434.09 L2142.06 1437.55 Q2140.63 1436.87 2139.16 1436.51 Q2137.71 1436.16 2136.28 1436.16 Q2132.52 1436.16 2130.53 1438.69 Q2128.55 1441.23 2128.27 1446.37 Q2129.38 1444.73 2131.05 1443.87 Q2132.73 1442.98 2134.74 1442.98 Q2138.97 1442.98 2141.42 1445.56 Q2143.88 1448.12 2143.88 1452.54 Q2143.88 1456.86 2141.32 1459.48 Q2138.77 1462.09 2134.52 1462.09 Q2129.64 1462.09 2127.07 1458.37 Q2124.49 1454.62 2124.49 1447.53 Q2124.49 1440.88 2127.65 1436.93 Q2130.81 1432.96 2136.13 1432.96 Q2137.56 1432.96 2139.01 1433.24 Q2140.48 1433.52 2142.06 1434.09 Z" fill="#000000" fill-rule="evenodd" fill-opacity="1" /><path clip-path="url(#clip220)" d="M1065.71 1543.95 L1065.71 1524.66 L1071.57 1524.66 L1071.57 1574.19 L1065.71 1574.19 L1065.71 1568.84 Q1063.86 1572.02 1061.03 1573.58 Q1058.23 1575.11 1054.28 1575.11 Q1047.82 1575.11 1043.75 1569.95 Q1039.71 1564.8 1039.71 1556.39 Q1039.71 1547.99 1043.75 1542.83 Q1047.82 1537.68 1054.28 1537.68 Q1058.23 1537.68 1061.03 1539.24 Q1063.86 1540.77 1065.71 1543.95 M1045.75 1556.39 Q1045.75 1562.85 1048.39 1566.55 Q1051.07 1570.21 1055.71 1570.21 Q1060.36 1570.21 1063.04 1566.55 Q1065.71 1562.85 1065.71 1556.39 Q1065.71 1549.93 1063.04 1546.27 Q1060.36 1542.58 1055.71 1542.58 Q1051.07 1542.58 1048.39 1546.27 Q1045.75 1549.93 1045.75 1556.39 Z" fill="#000000" fill-rule="evenodd" fill-opacity="1" /><path clip-path="url(#clip220)" d="M1099.83 1556.27 Q1092.73 1556.27 1089.99 1557.89 Q1087.26 1559.51 1087.26 1563.43 Q1087.26 1566.55 1089.29 1568.39 Q1091.36 1570.21 1094.9 1570.21 Q1099.77 1570.21 1102.69 1566.77 Q1105.65 1563.3 1105.65 1557.57 L1105.65 1556.27 L1099.83 1556.27 M1111.51 1553.85 L1111.51 1574.19 L1105.65 1574.19 L1105.65 1568.77 Q1103.65 1572.02 1100.66 1573.58 Q1097.66 1575.11 1093.34 1575.11 Q1087.86 1575.11 1084.62 1572.05 Q1081.4 1568.97 1081.4 1563.81 Q1081.4 1557.79 1085.41 1554.74 Q1089.45 1551.68 1097.44 1551.68 L1105.65 1551.68 L1105.65 1551.11 Q1105.65 1547.07 1102.98 1544.87 Q1100.34 1542.64 1095.53 1542.64 Q1092.48 1542.64 1089.58 1543.38 Q1086.68 1544.11 1084.01 1545.57 L1084.01 1540.16 Q1087.23 1538.92 1090.25 1538.31 Q1093.27 1537.68 1096.14 1537.68 Q1103.87 1537.68 1107.69 1541.69 Q1111.51 1545.7 1111.51 1553.85 Z" fill="#000000" fill-rule="evenodd" fill-opacity="1" /><path clip-path="url(#clip220)" d="M1129.37 1528.42 L1129.37 1538.54 L1141.43 1538.54 L1141.43 1543.09 L1129.37 1543.09 L1129.37 1562.44 Q1129.37 1566.8 1130.54 1568.04 Q1131.75 1569.28 1135.41 1569.28 L1141.43 1569.28 L1141.43 1574.19 L1135.41 1574.19 Q1128.63 1574.19 1126.06 1571.67 Q1123.48 1569.12 1123.48 1562.44 L1123.48 1543.09 L1119.18 1543.09 L1119.18 1538.54 L1123.48 1538.54 L1123.48 1528.42 L1129.37 1528.42 Z" fill="#000000" fill-rule="evenodd" fill-opacity="1" /><path clip-path="url(#clip220)" d="M1165.33 1556.27 Q1158.23 1556.27 1155.5 1557.89 Q1152.76 1559.51 1152.76 1563.43 Q1152.76 1566.55 1154.8 1568.39 Q1156.87 1570.21 1160.4 1570.21 Q1165.27 1570.21 1168.2 1566.77 Q1171.16 1563.3 1171.16 1557.57 L1171.16 1556.27 L1165.33 1556.27 M1177.01 1553.85 L1177.01 1574.19 L1171.16 1574.19 L1171.16 1568.77 Q1169.15 1572.02 1166.16 1573.58 Q1163.17 1575.11 1158.84 1575.11 Q1153.36 1575.11 1150.12 1572.05 Q1146.9 1568.97 1146.9 1563.81 Q1146.9 1557.79 1150.91 1554.74 Q1154.96 1551.68 1162.95 1551.68 L1171.16 1551.68 L1171.16 1551.11 Q1171.16 1547.07 1168.48 1544.87 Q1165.84 1542.64 1161.04 1542.64 Q1157.98 1542.64 1155.08 1543.38 Q1152.19 1544.11 1149.51 1545.57 L1149.51 1540.16 Q1152.73 1538.92 1155.75 1538.31 Q1158.78 1537.68 1161.64 1537.68 Q1169.37 1537.68 1173.19 1541.69 Q1177.01 1545.7 1177.01 1553.85 Z" fill="#000000" fill-rule="evenodd" fill-opacity="1" /><path clip-path="url(#clip220)" d="M1232.52 1539.59 L1232.52 1545.13 Q1230.04 1543.85 1227.37 1543.22 Q1224.69 1542.58 1221.83 1542.58 Q1217.47 1542.58 1215.27 1543.92 Q1213.11 1545.25 1213.11 1547.93 Q1213.11 1549.96 1214.67 1551.14 Q1216.23 1552.29 1220.94 1553.34 L1222.94 1553.78 Q1229.18 1555.12 1231.79 1557.57 Q1234.43 1559.99 1234.43 1564.35 Q1234.43 1569.32 1230.49 1572.21 Q1226.57 1575.11 1219.7 1575.11 Q1216.83 1575.11 1213.71 1574.54 Q1210.62 1573.99 1207.19 1572.88 L1207.19 1566.83 Q1210.43 1568.52 1213.58 1569.38 Q1216.74 1570.21 1219.82 1570.21 Q1223.96 1570.21 1226.19 1568.81 Q1228.42 1567.37 1228.42 1564.8 Q1228.42 1562.41 1226.79 1561.14 Q1225.2 1559.86 1219.76 1558.68 L1217.72 1558.21 Q1212.28 1557.06 1209.86 1554.71 Q1207.44 1552.32 1207.44 1548.18 Q1207.44 1543.15 1211.01 1540.42 Q1214.57 1537.68 1221.13 1537.68 Q1224.37 1537.68 1227.24 1538.16 Q1230.1 1538.63 1232.52 1539.59 Z" fill="#000000" fill-rule="evenodd" fill-opacity="1" /><path clip-path="url(#clip220)" d="M1243.76 1538.54 L1249.61 1538.54 L1249.61 1574.19 L1243.76 1574.19 L1243.76 1538.54 M1243.76 1524.66 L1249.61 1524.66 L1249.61 1532.08 L1243.76 1532.08 L1243.76 1524.66 Z" fill="#000000" fill-rule="evenodd" fill-opacity="1" /><path clip-path="url(#clip220)" d="M1259.32 1538.54 L1287.14 1538.54 L1287.14 1543.88 L1265.11 1569.51 L1287.14 1569.51 L1287.14 1574.19 L1258.53 1574.19 L1258.53 1568.84 L1280.55 1543.22 L1259.32 1543.22 L1259.32 1538.54 Z" fill="#000000" fill-rule="evenodd" fill-opacity="1" /><path clip-path="url(#clip220)" d="M1326.58 1554.9 L1326.58 1557.76 L1299.65 1557.76 Q1300.03 1563.81 1303.28 1566.99 Q1306.56 1570.14 1312.38 1570.14 Q1315.75 1570.14 1318.9 1569.32 Q1322.09 1568.49 1325.21 1566.83 L1325.21 1572.37 Q1322.06 1573.71 1318.75 1574.41 Q1315.44 1575.11 1312.03 1575.11 Q1303.5 1575.11 1298.5 1570.14 Q1293.54 1565.18 1293.54 1556.71 Q1293.54 1547.96 1298.25 1542.83 Q1302.99 1537.68 1311.01 1537.68 Q1318.2 1537.68 1322.37 1542.33 Q1326.58 1546.94 1326.58 1554.9 M1320.72 1553.18 Q1320.66 1548.37 1318.01 1545.51 Q1315.4 1542.64 1311.08 1542.64 Q1306.17 1542.64 1303.21 1545.41 Q1300.29 1548.18 1299.84 1553.21 L1320.72 1553.18 Z" fill="#000000" fill-rule="evenodd" fill-opacity="1" /><path clip-path="url(#clip220)" d="M1370.98 1524.72 Q1366.71 1532.04 1364.64 1539.21 Q1362.57 1546.37 1362.57 1553.72 Q1362.57 1561.07 1364.64 1568.3 Q1366.74 1575.49 1370.98 1582.78 L1365.88 1582.78 Q1361.11 1575.3 1358.72 1568.07 Q1356.37 1560.85 1356.37 1553.72 Q1356.37 1546.62 1358.72 1539.43 Q1361.08 1532.24 1365.88 1524.72 L1370.98 1524.72 Z" fill="#000000" fill-rule="evenodd" fill-opacity="1" /><path clip-path="url(#clip220)" d="M1407.93 1556.39 Q1407.93 1549.93 1405.26 1546.27 Q1402.61 1542.58 1397.97 1542.58 Q1393.32 1542.58 1390.65 1546.27 Q1388 1549.93 1388 1556.39 Q1388 1562.85 1390.65 1566.55 Q1393.32 1570.21 1397.97 1570.21 Q1402.61 1570.21 1405.26 1566.55 Q1407.93 1562.85 1407.93 1556.39 M1388 1543.95 Q1389.85 1540.77 1392.65 1539.24 Q1395.48 1537.68 1399.4 1537.68 Q1405.89 1537.68 1409.93 1542.83 Q1414.01 1547.99 1414.01 1556.39 Q1414.01 1564.8 1409.93 1569.95 Q1405.89 1575.11 1399.4 1575.11 Q1395.48 1575.11 1392.65 1573.58 Q1389.85 1572.02 1388 1568.84 L1388 1574.19 L1382.12 1574.19 L1382.12 1524.66 L1388 1524.66 L1388 1543.95 Z" fill="#000000" fill-rule="evenodd" fill-opacity="1" /><path clip-path="url(#clip220)" d="M1438.55 1577.5 Q1436.07 1583.86 1433.71 1585.8 Q1431.36 1587.74 1427.41 1587.74 L1422.73 1587.74 L1422.73 1582.84 L1426.17 1582.84 Q1428.59 1582.84 1429.92 1581.7 Q1431.26 1580.55 1432.88 1576.29 L1433.93 1573.61 L1419.51 1538.54 L1425.72 1538.54 L1436.86 1566.42 L1448 1538.54 L1454.21 1538.54 L1438.55 1577.5 Z" fill="#000000" fill-rule="evenodd" fill-opacity="1" /><path clip-path="url(#clip220)" d="M1468.09 1528.42 L1468.09 1538.54 L1480.15 1538.54 L1480.15 1543.09 L1468.09 1543.09 L1468.09 1562.44 Q1468.09 1566.8 1469.26 1568.04 Q1470.47 1569.28 1474.13 1569.28 L1480.15 1569.28 L1480.15 1574.19 L1474.13 1574.19 Q1467.35 1574.19 1464.78 1571.67 Q1462.2 1569.12 1462.2 1562.44 L1462.2 1543.09 L1457.9 1543.09 L1457.9 1538.54 L1462.2 1538.54 L1462.2 1528.42 L1468.09 1528.42 Z" fill="#000000" fill-rule="evenodd" fill-opacity="1" /><path clip-path="url(#clip220)" d="M1518.34 1554.9 L1518.34 1557.76 L1491.42 1557.76 Q1491.8 1563.81 1495.04 1566.99 Q1498.32 1570.14 1504.15 1570.14 Q1507.52 1570.14 1510.67 1569.32 Q1513.85 1568.49 1516.97 1566.83 L1516.97 1572.37 Q1513.82 1573.71 1510.51 1574.41 Q1507.2 1575.11 1503.8 1575.11 Q1495.27 1575.11 1490.27 1570.14 Q1485.3 1565.18 1485.3 1556.71 Q1485.3 1547.96 1490.02 1542.83 Q1494.76 1537.68 1502.78 1537.68 Q1509.97 1537.68 1514.14 1542.33 Q1518.34 1546.94 1518.34 1554.9 M1512.49 1553.18 Q1512.42 1548.37 1509.78 1545.51 Q1507.17 1542.64 1502.84 1542.64 Q1497.94 1542.64 1494.98 1545.41 Q1492.05 1548.18 1491.61 1553.21 L1512.49 1553.18 Z" fill="#000000" fill-rule="evenodd" fill-opacity="1" /><path clip-path="url(#clip220)" d="M1550.68 1539.59 L1550.68 1545.13 Q1548.2 1543.85 1545.52 1543.22 Q1542.85 1542.58 1539.99 1542.58 Q1535.63 1542.58 1533.43 1543.92 Q1531.26 1545.25 1531.26 1547.93 Q1531.26 1549.96 1532.82 1551.14 Q1534.38 1552.29 1539.09 1553.34 L1541.1 1553.78 Q1547.34 1555.12 1549.95 1557.57 Q1552.59 1559.99 1552.59 1564.35 Q1552.59 1569.32 1548.64 1572.21 Q1544.73 1575.11 1537.85 1575.11 Q1534.99 1575.11 1531.87 1574.54 Q1528.78 1573.99 1525.34 1572.88 L1525.34 1566.83 Q1528.59 1568.52 1531.74 1569.38 Q1534.89 1570.21 1537.98 1570.21 Q1542.12 1570.21 1544.35 1568.81 Q1546.57 1567.37 1546.57 1564.8 Q1546.57 1562.41 1544.95 1561.14 Q1543.36 1559.86 1537.92 1558.68 L1535.88 1558.21 Q1530.44 1557.06 1528.02 1554.71 Q1525.6 1552.32 1525.6 1548.18 Q1525.6 1543.15 1529.16 1540.42 Q1532.73 1537.68 1539.29 1537.68 Q1542.53 1537.68 1545.4 1538.16 Q1548.26 1538.63 1550.68 1539.59 Z" fill="#000000" fill-rule="evenodd" fill-opacity="1" /><path clip-path="url(#clip220)" d="M1560.99 1524.72 L1566.09 1524.72 Q1570.86 1532.24 1573.21 1539.43 Q1575.6 1546.62 1575.6 1553.72 Q1575.6 1560.85 1573.21 1568.07 Q1570.86 1575.3 1566.09 1582.78 L1560.99 1582.78 Q1565.23 1575.49 1567.29 1568.3 Q1569.4 1561.07 1569.4 1553.72 Q1569.4 1546.37 1567.29 1539.21 Q1565.23 1532.04 1560.99 1524.72 Z" fill="#000000" fill-rule="evenodd" fill-opacity="1" /><polyline clip-path="url(#clip222)" style="stroke:#000000; stroke-linecap:butt; stroke-linejoin:round; stroke-width:2; stroke-opacity:0.1; fill:none" points="
  262.551,1376.72 2352.76,1376.72 
  "/>
<polyline clip-path="url(#clip222)" style="stroke:#000000; stroke-linecap:butt; stroke-linejoin:round; stroke-width:2; stroke-opacity:0.1; fill:none" points="
  262.551,1108.65 2352.76,1108.65 
  "/>
<polyline clip-path="url(#clip222)" style="stroke:#000000; stroke-linecap:butt; stroke-linejoin:round; stroke-width:2; stroke-opacity:0.1; fill:none" points="
  262.551,840.573 2352.76,840.573 
  "/>
<polyline clip-path="url(#clip222)" style="stroke:#000000; stroke-linecap:butt; stroke-linejoin:round; stroke-width:2; stroke-opacity:0.1; fill:none" points="
  262.551,572.498 2352.76,572.498 
  "/>
<polyline clip-path="url(#clip222)" style="stroke:#000000; stroke-linecap:butt; stroke-linejoin:round; stroke-width:2; stroke-opacity:0.1; fill:none" points="
  262.551,304.423 2352.76,304.423 
  "/>
<polyline clip-path="url(#clip220)" style="stroke:#000000; stroke-linecap:butt; stroke-linejoin:round; stroke-width:4; stroke-opacity:1; fill:none" points="
  262.551,1410.9 262.551,123.472 
  "/>
<polyline clip-path="url(#clip220)" style="stroke:#000000; stroke-linecap:butt; stroke-linejoin:round; stroke-width:4; stroke-opacity:1; fill:none" points="
  262.551,1376.72 281.449,1376.72 
  "/>
<polyline clip-path="url(#clip220)" style="stroke:#000000; stroke-linecap:butt; stroke-linejoin:round; stroke-width:4; stroke-opacity:1; fill:none" points="
  262.551,1108.65 281.449,1108.65 
  "/>
<polyline clip-path="url(#clip220)" style="stroke:#000000; stroke-linecap:butt; stroke-linejoin:round; stroke-width:4; stroke-opacity:1; fill:none" points="
  262.551,840.573 281.449,840.573 
  "/>
<polyline clip-path="url(#clip220)" style="stroke:#000000; stroke-linecap:butt; stroke-linejoin:round; stroke-width:4; stroke-opacity:1; fill:none" points="
  262.551,572.498 281.449,572.498 
  "/>
<polyline clip-path="url(#clip220)" style="stroke:#000000; stroke-linecap:butt; stroke-linejoin:round; stroke-width:4; stroke-opacity:1; fill:none" points="
  262.551,304.423 281.449,304.423 
  "/>
<path clip-path="url(#clip220)" d="M214.607 1362.52 Q210.996 1362.52 209.167 1366.09 Q207.362 1369.63 207.362 1376.76 Q207.362 1383.86 209.167 1387.43 Q210.996 1390.97 214.607 1390.97 Q218.241 1390.97 220.047 1387.43 Q221.875 1383.86 221.875 1376.76 Q221.875 1369.63 220.047 1366.09 Q218.241 1362.52 214.607 1362.52 M214.607 1358.82 Q220.417 1358.82 223.473 1363.42 Q226.551 1368.01 226.551 1376.76 Q226.551 1385.48 223.473 1390.09 Q220.417 1394.67 214.607 1394.67 Q208.797 1394.67 205.718 1390.09 Q202.662 1385.48 202.662 1376.76 Q202.662 1368.01 205.718 1363.42 Q208.797 1358.82 214.607 1358.82 Z" fill="#000000" fill-rule="evenodd" fill-opacity="1" /><path clip-path="url(#clip220)" d="M148.311 1121.99 L164.63 1121.99 L164.63 1125.93 L142.686 1125.93 L142.686 1121.99 Q145.348 1119.24 149.931 1114.61 Q154.538 1109.96 155.718 1108.61 Q157.964 1106.09 158.843 1104.35 Q159.746 1102.59 159.746 1100.9 Q159.746 1098.15 157.802 1096.41 Q155.88 1094.68 152.778 1094.68 Q150.579 1094.68 148.126 1095.44 Q145.695 1096.21 142.917 1097.76 L142.917 1093.03 Q145.741 1091.9 148.195 1091.32 Q150.649 1090.74 152.686 1090.74 Q158.056 1090.74 161.251 1093.43 Q164.445 1096.11 164.445 1100.6 Q164.445 1102.73 163.635 1104.65 Q162.848 1106.55 160.741 1109.15 Q160.163 1109.82 157.061 1113.03 Q153.959 1116.23 148.311 1121.99 Z" fill="#000000" fill-rule="evenodd" fill-opacity="1" /><path clip-path="url(#clip220)" d="M174.491 1091.37 L192.848 1091.37 L192.848 1095.3 L178.774 1095.3 L178.774 1103.77 Q179.792 1103.43 180.811 1103.27 Q181.829 1103.08 182.848 1103.08 Q188.635 1103.08 192.014 1106.25 Q195.394 1109.42 195.394 1114.84 Q195.394 1120.42 191.922 1123.52 Q188.45 1126.6 182.13 1126.6 Q179.954 1126.6 177.686 1126.23 Q175.44 1125.86 173.033 1125.12 L173.033 1120.42 Q175.116 1121.55 177.339 1122.11 Q179.561 1122.66 182.038 1122.66 Q186.042 1122.66 188.38 1120.56 Q190.718 1118.45 190.718 1114.84 Q190.718 1111.23 188.38 1109.12 Q186.042 1107.02 182.038 1107.02 Q180.163 1107.02 178.288 1107.43 Q176.436 1107.85 174.491 1108.73 L174.491 1091.37 Z" fill="#000000" fill-rule="evenodd" fill-opacity="1" /><path clip-path="url(#clip220)" d="M214.607 1094.45 Q210.996 1094.45 209.167 1098.01 Q207.362 1101.55 207.362 1108.68 Q207.362 1115.79 209.167 1119.35 Q210.996 1122.9 214.607 1122.9 Q218.241 1122.9 220.047 1119.35 Q221.875 1115.79 221.875 1108.68 Q221.875 1101.55 220.047 1098.01 Q218.241 1094.45 214.607 1094.45 M214.607 1090.74 Q220.417 1090.74 223.473 1095.35 Q226.551 1099.93 226.551 1108.68 Q226.551 1117.41 223.473 1122.02 Q220.417 1126.6 214.607 1126.6 Q208.797 1126.6 205.718 1122.02 Q202.662 1117.41 202.662 1108.68 Q202.662 1099.93 205.718 1095.35 Q208.797 1090.74 214.607 1090.74 Z" fill="#000000" fill-rule="evenodd" fill-opacity="1" /><path clip-path="url(#clip220)" d="M144.329 823.293 L162.686 823.293 L162.686 827.228 L148.612 827.228 L148.612 835.7 Q149.63 835.353 150.649 835.191 Q151.667 835.006 152.686 835.006 Q158.473 835.006 161.852 838.177 Q165.232 841.348 165.232 846.765 Q165.232 852.343 161.76 855.445 Q158.288 858.524 151.968 858.524 Q149.792 858.524 147.524 858.154 Q145.279 857.783 142.871 857.042 L142.871 852.343 Q144.954 853.478 147.177 854.033 Q149.399 854.589 151.876 854.589 Q155.88 854.589 158.218 852.482 Q160.556 850.376 160.556 846.765 Q160.556 843.154 158.218 841.047 Q155.88 838.941 151.876 838.941 Q150.001 838.941 148.126 839.357 Q146.274 839.774 144.329 840.654 L144.329 823.293 Z" fill="#000000" fill-rule="evenodd" fill-opacity="1" /><path clip-path="url(#clip220)" d="M184.445 826.371 Q180.834 826.371 179.005 829.936 Q177.2 833.478 177.2 840.607 Q177.2 847.714 179.005 851.279 Q180.834 854.82 184.445 854.82 Q188.079 854.82 189.885 851.279 Q191.713 847.714 191.713 840.607 Q191.713 833.478 189.885 829.936 Q188.079 826.371 184.445 826.371 M184.445 822.668 Q190.255 822.668 193.311 827.274 Q196.389 831.857 196.389 840.607 Q196.389 849.334 193.311 853.941 Q190.255 858.524 184.445 858.524 Q178.635 858.524 175.556 853.941 Q172.501 849.334 172.501 840.607 Q172.501 831.857 175.556 827.274 Q178.635 822.668 184.445 822.668 Z" fill="#000000" fill-rule="evenodd" fill-opacity="1" /><path clip-path="url(#clip220)" d="M214.607 826.371 Q210.996 826.371 209.167 829.936 Q207.362 833.478 207.362 840.607 Q207.362 847.714 209.167 851.279 Q210.996 854.82 214.607 854.82 Q218.241 854.82 220.047 851.279 Q221.875 847.714 221.875 840.607 Q221.875 833.478 220.047 829.936 Q218.241 826.371 214.607 826.371 M214.607 822.668 Q220.417 822.668 223.473 827.274 Q226.551 831.857 226.551 840.607 Q226.551 849.334 223.473 853.941 Q220.417 858.524 214.607 858.524 Q208.797 858.524 205.718 853.941 Q202.662 849.334 202.662 840.607 Q202.662 831.857 205.718 827.274 Q208.797 822.668 214.607 822.668 Z" fill="#000000" fill-rule="evenodd" fill-opacity="1" /><path clip-path="url(#clip220)" d="M143.103 555.218 L165.325 555.218 L165.325 557.208 L152.778 589.778 L147.894 589.778 L159.7 559.153 L143.103 559.153 L143.103 555.218 Z" fill="#000000" fill-rule="evenodd" fill-opacity="1" /><path clip-path="url(#clip220)" d="M174.491 555.218 L192.848 555.218 L192.848 559.153 L178.774 559.153 L178.774 567.625 Q179.792 567.278 180.811 567.116 Q181.829 566.93 182.848 566.93 Q188.635 566.93 192.014 570.102 Q195.394 573.273 195.394 578.69 Q195.394 584.268 191.922 587.37 Q188.45 590.449 182.13 590.449 Q179.954 590.449 177.686 590.079 Q175.44 589.708 173.033 588.967 L173.033 584.268 Q175.116 585.403 177.339 585.958 Q179.561 586.514 182.038 586.514 Q186.042 586.514 188.38 584.407 Q190.718 582.301 190.718 578.69 Q190.718 575.079 188.38 572.972 Q186.042 570.866 182.038 570.866 Q180.163 570.866 178.288 571.282 Q176.436 571.699 174.491 572.579 L174.491 555.218 Z" fill="#000000" fill-rule="evenodd" fill-opacity="1" /><path clip-path="url(#clip220)" d="M214.607 558.296 Q210.996 558.296 209.167 561.861 Q207.362 565.403 207.362 572.532 Q207.362 579.639 209.167 583.204 Q210.996 586.745 214.607 586.745 Q218.241 586.745 220.047 583.204 Q221.875 579.639 221.875 572.532 Q221.875 565.403 220.047 561.861 Q218.241 558.296 214.607 558.296 M214.607 554.593 Q220.417 554.593 223.473 559.199 Q226.551 563.782 226.551 572.532 Q226.551 581.259 223.473 585.866 Q220.417 590.449 214.607 590.449 Q208.797 590.449 205.718 585.866 Q202.662 581.259 202.662 572.532 Q202.662 563.782 205.718 559.199 Q208.797 554.593 214.607 554.593 Z" fill="#000000" fill-rule="evenodd" fill-opacity="1" /><path clip-path="url(#clip220)" d="M114.931 317.767 L122.57 317.767 L122.57 291.402 L114.26 293.068 L114.26 288.809 L122.524 287.143 L127.2 287.143 L127.2 317.767 L134.839 317.767 L134.839 321.703 L114.931 321.703 L114.931 317.767 Z" fill="#000000" fill-rule="evenodd" fill-opacity="1" /><path clip-path="url(#clip220)" d="M154.283 290.221 Q150.672 290.221 148.843 293.786 Q147.038 297.328 147.038 304.457 Q147.038 311.564 148.843 315.129 Q150.672 318.67 154.283 318.67 Q157.917 318.67 159.723 315.129 Q161.552 311.564 161.552 304.457 Q161.552 297.328 159.723 293.786 Q157.917 290.221 154.283 290.221 M154.283 286.518 Q160.093 286.518 163.149 291.124 Q166.227 295.707 166.227 304.457 Q166.227 313.184 163.149 317.791 Q160.093 322.374 154.283 322.374 Q148.473 322.374 145.394 317.791 Q142.339 313.184 142.339 304.457 Q142.339 295.707 145.394 291.124 Q148.473 286.518 154.283 286.518 Z" fill="#000000" fill-rule="evenodd" fill-opacity="1" /><path clip-path="url(#clip220)" d="M184.445 290.221 Q180.834 290.221 179.005 293.786 Q177.2 297.328 177.2 304.457 Q177.2 311.564 179.005 315.129 Q180.834 318.67 184.445 318.67 Q188.079 318.67 189.885 315.129 Q191.713 311.564 191.713 304.457 Q191.713 297.328 189.885 293.786 Q188.079 290.221 184.445 290.221 M184.445 286.518 Q190.255 286.518 193.311 291.124 Q196.389 295.707 196.389 304.457 Q196.389 313.184 193.311 317.791 Q190.255 322.374 184.445 322.374 Q178.635 322.374 175.556 317.791 Q172.501 313.184 172.501 304.457 Q172.501 295.707 175.556 291.124 Q178.635 286.518 184.445 286.518 Z" fill="#000000" fill-rule="evenodd" fill-opacity="1" /><path clip-path="url(#clip220)" d="M214.607 290.221 Q210.996 290.221 209.167 293.786 Q207.362 297.328 207.362 304.457 Q207.362 311.564 209.167 315.129 Q210.996 318.67 214.607 318.67 Q218.241 318.67 220.047 315.129 Q221.875 311.564 221.875 304.457 Q221.875 297.328 220.047 293.786 Q218.241 290.221 214.607 290.221 M214.607 286.518 Q220.417 286.518 223.473 291.124 Q226.551 295.707 226.551 304.457 Q226.551 313.184 223.473 317.791 Q220.417 322.374 214.607 322.374 Q208.797 322.374 205.718 317.791 Q202.662 313.184 202.662 304.457 Q202.662 295.707 205.718 291.124 Q208.797 286.518 214.607 286.518 Z" fill="#000000" fill-rule="evenodd" fill-opacity="1" /><path clip-path="url(#clip220)" d="M14.479 954.543 L14.479 948.687 L64.0042 948.687 L64.0042 954.543 L14.479 954.543 Z" fill="#000000" fill-rule="evenodd" fill-opacity="1" /><path clip-path="url(#clip220)" d="M46.0847 920.232 Q46.0847 927.33 47.7079 930.067 Q49.3312 932.804 53.2461 932.804 Q56.3653 932.804 58.2114 930.767 Q60.0256 928.698 60.0256 925.165 Q60.0256 920.296 56.5881 917.367 Q53.1188 914.407 47.3897 914.407 L46.0847 914.407 L46.0847 920.232 M43.6657 908.551 L64.0042 908.551 L64.0042 914.407 L58.5933 914.407 Q61.8398 916.412 63.3994 919.404 Q64.9272 922.396 64.9272 926.725 Q64.9272 932.199 61.8716 935.446 Q58.7843 938.661 53.6281 938.661 Q47.6125 938.661 44.5569 934.65 Q41.5014 930.608 41.5014 922.619 L41.5014 914.407 L40.9285 914.407 Q36.8862 914.407 34.6901 917.081 Q32.4621 919.723 32.4621 924.529 Q32.4621 927.584 33.1941 930.481 Q33.9262 933.377 35.3903 936.051 L29.9795 936.051 Q28.7381 932.836 28.1334 929.812 Q27.4968 926.789 27.4968 923.924 Q27.4968 916.19 31.5072 912.37 Q35.5176 908.551 43.6657 908.551 Z" fill="#000000" fill-rule="evenodd" fill-opacity="1" /><path clip-path="url(#clip220)" d="M18.2347 890.695 L28.3562 890.695 L28.3562 878.632 L32.9077 878.632 L32.9077 890.695 L52.2594 890.695 Q56.6199 890.695 57.8613 889.517 Q59.1026 888.308 59.1026 884.648 L59.1026 878.632 L64.0042 878.632 L64.0042 884.648 Q64.0042 891.427 61.4897 894.005 Q58.9434 896.583 52.2594 896.583 L32.9077 896.583 L32.9077 900.88 L28.3562 900.88 L28.3562 896.583 L18.2347 896.583 L18.2347 890.695 Z" fill="#000000" fill-rule="evenodd" fill-opacity="1" /><path clip-path="url(#clip220)" d="M44.7161 840.438 L47.5806 840.438 L47.5806 867.365 Q53.6281 866.983 56.8109 863.736 Q59.9619 860.458 59.9619 854.633 Q59.9619 851.259 59.1344 848.108 Q58.3069 844.926 56.6518 841.806 L62.1899 841.806 Q63.5267 844.957 64.227 848.268 Q64.9272 851.578 64.9272 854.983 Q64.9272 863.513 59.9619 868.511 Q54.9967 873.476 46.5303 873.476 Q37.7774 873.476 32.6531 868.765 Q27.4968 864.023 27.4968 856.002 Q27.4968 848.809 32.1438 844.639 Q36.7589 840.438 44.7161 840.438 M42.9973 846.294 Q38.1912 846.358 35.3266 849 Q32.4621 851.61 32.4621 855.938 Q32.4621 860.84 35.2312 863.8 Q38.0002 866.728 43.0292 867.174 L42.9973 846.294 Z" fill="#000000" fill-rule="evenodd" fill-opacity="1" /><path clip-path="url(#clip220)" d="M42.4881 801.193 L64.0042 801.193 L64.0042 807.05 L42.679 807.05 Q37.6183 807.05 35.1038 809.023 Q32.5894 810.996 32.5894 814.943 Q32.5894 819.686 35.6131 822.423 Q38.6368 825.16 43.8567 825.16 L64.0042 825.16 L64.0042 831.048 L28.3562 831.048 L28.3562 825.16 L33.8944 825.16 Q30.6797 823.059 29.0883 820.227 Q27.4968 817.362 27.4968 813.638 Q27.4968 807.495 31.3163 804.344 Q35.1038 801.193 42.4881 801.193 Z" fill="#000000" fill-rule="evenodd" fill-opacity="1" /><path clip-path="url(#clip220)" d="M29.7248 763.858 L35.1993 763.858 Q33.8307 766.341 33.1623 768.855 Q32.4621 771.338 32.4621 773.884 Q32.4621 779.582 36.0905 782.733 Q39.6872 785.884 46.212 785.884 Q52.7369 785.884 56.3653 782.733 Q59.9619 779.582 59.9619 773.884 Q59.9619 771.338 59.2935 768.855 Q58.5933 766.341 57.2247 763.858 L62.6355 763.858 Q63.7814 766.309 64.3543 768.951 Q64.9272 771.561 64.9272 774.521 Q64.9272 782.573 59.8664 787.316 Q54.8057 792.058 46.212 792.058 Q37.491 792.058 32.4939 787.284 Q27.4968 782.478 27.4968 774.139 Q27.4968 771.433 28.0697 768.855 Q28.6108 766.277 29.7248 763.858 Z" fill="#000000" fill-rule="evenodd" fill-opacity="1" /><path clip-path="url(#clip220)" d="M67.3143 738.841 Q73.68 741.324 75.6216 743.679 Q77.5631 746.034 77.5631 749.981 L77.5631 754.66 L72.6615 754.66 L72.6615 751.222 Q72.6615 748.803 71.5157 747.467 Q70.3699 746.13 66.1048 744.507 L63.4312 743.456 L28.3562 757.875 L28.3562 751.668 L56.238 740.528 L28.3562 729.388 L28.3562 723.181 L67.3143 738.841 Z" fill="#000000" fill-rule="evenodd" fill-opacity="1" /><path clip-path="url(#clip220)" d="M14.5426 680.308 Q21.8632 684.573 29.0246 686.642 Q36.186 688.711 43.5384 688.711 Q50.8908 688.711 58.1159 686.642 Q65.3091 684.542 72.5979 680.308 L72.5979 685.401 Q65.1182 690.175 57.8931 692.562 Q50.668 694.918 43.5384 694.918 Q36.4406 694.918 29.2474 692.562 Q22.0542 690.207 14.5426 685.401 L14.5426 680.308 Z" fill="#000000" fill-rule="evenodd" fill-opacity="1" /><path clip-path="url(#clip220)" d="M77.5631 669.55 L28.3562 669.55 L28.3562 663.694 L50.5089 663.694 Q55.124 663.694 57.4793 661.498 Q59.8346 659.302 59.8346 655.005 Q59.8346 650.294 57.161 647.939 Q54.4874 645.552 49.1402 645.552 L28.3562 645.552 L28.3562 639.695 L55.7924 639.695 Q57.7021 639.695 58.6251 639.154 Q59.5163 638.581 59.5163 637.404 Q59.5163 637.117 59.3572 636.608 Q59.1662 636.099 58.7843 635.207 L63.4949 635.207 Q64.227 636.512 64.5771 637.69 Q64.9272 638.836 64.9272 639.95 Q64.9272 642.146 63.6859 643.451 Q62.4446 644.756 59.8983 645.233 Q62.4127 646.825 63.6859 649.148 Q64.9272 651.44 64.9272 654.559 Q64.9272 657.806 63.6859 660.097 Q62.4446 662.357 59.9619 663.694 L77.5631 663.694 L77.5631 669.55 Z" fill="#000000" fill-rule="evenodd" fill-opacity="1" /><path clip-path="url(#clip220)" d="M29.4065 604.747 L34.9447 604.747 Q33.6716 607.23 33.035 609.904 Q32.3984 612.577 32.3984 615.442 Q32.3984 619.802 33.7352 621.999 Q35.072 624.163 37.7456 624.163 Q39.7826 624.163 40.9603 622.603 Q42.1061 621.044 43.1565 616.333 L43.6021 614.328 Q44.9389 608.089 47.3897 605.48 Q49.8086 602.838 54.1691 602.838 Q59.1344 602.838 62.0308 606.784 Q64.9272 610.699 64.9272 617.574 Q64.9272 620.439 64.3543 623.558 Q63.8132 626.645 62.6992 630.083 L56.6518 630.083 Q58.3387 626.836 59.198 623.685 Q60.0256 620.534 60.0256 617.447 Q60.0256 613.309 58.6251 611.081 Q57.1929 608.853 54.6147 608.853 Q52.2276 608.853 50.9545 610.477 Q49.6813 612.068 48.5037 617.511 L48.0262 619.548 Q46.8804 624.99 44.5251 627.409 Q42.138 629.828 38.0002 629.828 Q32.9713 629.828 30.2341 626.264 Q27.4968 622.699 27.4968 616.142 Q27.4968 612.896 27.9743 610.031 Q28.4517 607.166 29.4065 604.747 Z" fill="#000000" fill-rule="evenodd" fill-opacity="1" /><path clip-path="url(#clip220)" d="M14.5426 594.435 L14.5426 589.342 Q22.0542 584.568 29.2474 582.213 Q36.4406 579.826 43.5384 579.826 Q50.668 579.826 57.8931 582.213 Q65.1182 584.568 72.5979 589.342 L72.5979 594.435 Q65.3091 590.202 58.1159 588.133 Q50.8908 586.032 43.5384 586.032 Q36.186 586.032 29.0246 588.133 Q21.8632 590.202 14.5426 594.435 Z" fill="#000000" fill-rule="evenodd" fill-opacity="1" /><path clip-path="url(#clip220)" d="M902.057 12.096 L910.24 12.096 L910.24 72.576 L902.057 72.576 L902.057 12.096 Z" fill="#000000" fill-rule="evenodd" fill-opacity="1" /><path clip-path="url(#clip220)" d="M963.914 45.1919 L963.914 72.576 L956.46 72.576 L956.46 45.4349 Q956.46 38.994 953.949 35.7938 Q951.437 32.5936 946.414 32.5936 Q940.378 32.5936 936.895 36.4419 Q933.411 40.2903 933.411 46.9338 L933.411 72.576 L925.917 72.576 L925.917 27.2059 L933.411 27.2059 L933.411 34.2544 Q936.084 30.163 939.69 28.1376 Q943.335 26.1121 948.075 26.1121 Q955.893 26.1121 959.904 30.9732 Q963.914 35.7938 963.914 45.1919 Z" fill="#000000" fill-rule="evenodd" fill-opacity="1" /><path clip-path="url(#clip220)" d="M986.154 14.324 L986.154 27.2059 L1001.51 27.2059 L1001.51 32.9987 L986.154 32.9987 L986.154 57.6282 Q986.154 63.1779 987.652 64.7578 Q989.192 66.3376 993.85 66.3376 L1001.51 66.3376 L1001.51 72.576 L993.85 72.576 Q985.222 72.576 981.941 69.3758 Q978.659 66.1351 978.659 57.6282 L978.659 32.9987 L973.191 32.9987 L973.191 27.2059 L978.659 27.2059 L978.659 14.324 L986.154 14.324 Z" fill="#000000" fill-rule="evenodd" fill-opacity="1" /><path clip-path="url(#clip220)" d="M1050.12 48.0275 L1050.12 51.6733 L1015.85 51.6733 Q1016.33 59.3701 1020.46 63.421 Q1024.64 67.4314 1032.05 67.4314 Q1036.34 67.4314 1040.35 66.3781 Q1044.41 65.3249 1048.38 63.2184 L1048.38 70.267 Q1044.37 71.9684 1040.15 72.8596 Q1035.94 73.7508 1031.6 73.7508 Q1020.75 73.7508 1014.39 67.4314 Q1008.07 61.1119 1008.07 50.3365 Q1008.07 39.1965 1014.06 32.6746 Q1020.1 26.1121 1030.31 26.1121 Q1039.46 26.1121 1044.77 32.0264 Q1050.12 37.9003 1050.12 48.0275 M1042.66 45.84 Q1042.58 39.7232 1039.22 36.0774 Q1035.9 32.4315 1030.39 32.4315 Q1024.15 32.4315 1020.38 35.9558 Q1016.66 39.4801 1016.09 45.8805 L1042.66 45.84 Z" fill="#000000" fill-rule="evenodd" fill-opacity="1" /><path clip-path="url(#clip220)" d="M1062.35 9.54393 L1069.8 9.54393 L1069.8 72.576 L1062.35 72.576 L1062.35 9.54393 Z" fill="#000000" fill-rule="evenodd" fill-opacity="1" /><path clip-path="url(#clip220)" d="M1114.24 65.6895 L1127.61 65.6895 L1127.61 19.5497 L1113.07 22.4663 L1113.07 15.0127 L1127.53 12.096 L1135.71 12.096 L1135.71 65.6895 L1149.08 65.6895 L1149.08 72.576 L1114.24 72.576 L1114.24 65.6895 Z" fill="#000000" fill-rule="evenodd" fill-opacity="1" /><path clip-path="url(#clip220)" d="M1183.11 43.8551 Q1177.28 43.8551 1173.91 46.9743 Q1170.59 50.0935 1170.59 55.5622 Q1170.59 61.0309 1173.91 64.1501 Q1177.28 67.2693 1183.11 67.2693 Q1188.94 67.2693 1192.3 64.1501 Q1195.67 60.9904 1195.67 55.5622 Q1195.67 50.0935 1192.3 46.9743 Q1188.98 43.8551 1183.11 43.8551 M1174.93 40.3713 Q1169.66 39.075 1166.7 35.4697 Q1163.79 31.8644 1163.79 26.6793 Q1163.79 19.4281 1168.93 15.2152 Q1174.12 11.0023 1183.11 11.0023 Q1192.14 11.0023 1197.29 15.2152 Q1202.43 19.4281 1202.43 26.6793 Q1202.43 31.8644 1199.47 35.4697 Q1196.56 39.075 1191.33 40.3713 Q1197.25 41.7486 1200.53 45.759 Q1203.85 49.7694 1203.85 55.5622 Q1203.85 64.3527 1198.46 69.0517 Q1193.11 73.7508 1183.11 73.7508 Q1173.1 73.7508 1167.72 69.0517 Q1162.37 64.3527 1162.37 55.5622 Q1162.37 49.7694 1165.69 45.759 Q1169.01 41.7486 1174.93 40.3713 M1171.93 27.4489 Q1171.93 32.148 1174.84 34.7811 Q1177.8 37.4142 1183.11 37.4142 Q1188.37 37.4142 1191.33 34.7811 Q1194.33 32.148 1194.33 27.4489 Q1194.33 22.7499 1191.33 20.1168 Q1188.37 17.4837 1183.11 17.4837 Q1177.8 17.4837 1174.84 20.1168 Q1171.93 22.7499 1171.93 27.4489 Z" fill="#000000" fill-rule="evenodd" fill-opacity="1" /><path clip-path="url(#clip220)" d="M1218.39 62.2867 L1226.94 62.2867 L1226.94 72.576 L1218.39 72.576 L1218.39 62.2867 Z" fill="#000000" fill-rule="evenodd" fill-opacity="1" /><path clip-path="url(#clip220)" d="M1262.26 17.4837 Q1255.94 17.4837 1252.74 23.7221 Q1249.58 29.92 1249.58 42.3968 Q1249.58 54.833 1252.74 61.0714 Q1255.94 67.2693 1262.26 67.2693 Q1268.62 67.2693 1271.78 61.0714 Q1274.98 54.833 1274.98 42.3968 Q1274.98 29.92 1271.78 23.7221 Q1268.62 17.4837 1262.26 17.4837 M1262.26 11.0023 Q1272.43 11.0023 1277.78 19.0636 Q1283.17 27.0843 1283.17 42.3968 Q1283.17 57.6687 1277.78 65.73 Q1272.43 73.7508 1262.26 73.7508 Q1252.1 73.7508 1246.71 65.73 Q1241.36 57.6687 1241.36 42.3968 Q1241.36 27.0843 1246.71 19.0636 Q1252.1 11.0023 1262.26 11.0023 Z" fill="#000000" fill-rule="evenodd" fill-opacity="1" /><path clip-path="url(#clip220)" d="M1320.03 19.2256 L1299.37 51.5113 L1320.03 51.5113 L1320.03 19.2256 M1317.88 12.096 L1328.17 12.096 L1328.17 51.5113 L1336.8 51.5113 L1336.8 58.3168 L1328.17 58.3168 L1328.17 72.576 L1320.03 72.576 L1320.03 58.3168 L1292.73 58.3168 L1292.73 50.4176 L1317.88 12.096 Z" fill="#000000" fill-rule="evenodd" fill-opacity="1" /><path clip-path="url(#clip220)" d="M1362.52 12.096 L1369.41 12.096 L1348.34 80.2727 L1341.46 80.2727 L1362.52 12.096 Z" fill="#000000" fill-rule="evenodd" fill-opacity="1" /><path clip-path="url(#clip220)" d="M1377.55 12.096 L1389.75 12.096 L1405.18 53.2532 L1420.69 12.096 L1432.89 12.096 L1432.89 72.576 L1424.91 72.576 L1424.91 19.4686 L1409.31 60.9499 L1401.09 60.9499 L1385.49 19.4686 L1385.49 72.576 L1377.55 72.576 L1377.55 12.096 Z" fill="#000000" fill-rule="evenodd" fill-opacity="1" /><path clip-path="url(#clip220)" d="M1457.31 18.8205 L1457.31 41.5461 L1467.6 41.5461 Q1473.32 41.5461 1476.43 38.5889 Q1479.55 35.6318 1479.55 30.163 Q1479.55 24.7348 1476.43 21.7777 Q1473.32 18.8205 1467.6 18.8205 L1457.31 18.8205 M1449.13 12.096 L1467.6 12.096 Q1477.77 12.096 1482.96 16.714 Q1488.18 21.2916 1488.18 30.163 Q1488.18 39.1155 1482.96 43.6931 Q1477.77 48.2706 1467.6 48.2706 L1457.31 48.2706 L1457.31 72.576 L1449.13 72.576 L1449.13 12.096 Z" fill="#000000" fill-rule="evenodd" fill-opacity="1" /><path clip-path="url(#clip220)" d="M1499.16 12.096 L1507.34 12.096 L1507.34 72.576 L1499.16 72.576 L1499.16 12.096 Z" fill="#000000" fill-rule="evenodd" fill-opacity="1" /><path clip-path="url(#clip220)" d="M1580.02 20.5624 L1580.02 43.1259 L1602.58 43.1259 L1602.58 50.0125 L1580.02 50.0125 L1580.02 72.576 L1573.21 72.576 L1573.21 50.0125 L1550.65 50.0125 L1550.65 43.1259 L1573.21 43.1259 L1573.21 20.5624 L1580.02 20.5624 Z" fill="#000000" fill-rule="evenodd" fill-opacity="1" /><path clip-path="url(#clip220)" d="M1645.88 12.096 L1654.07 12.096 L1654.07 72.576 L1645.88 72.576 L1645.88 12.096 Z" fill="#000000" fill-rule="evenodd" fill-opacity="1" /><path clip-path="url(#clip220)" d="M1678.53 43.6931 L1678.53 65.8515 L1691.66 65.8515 Q1698.26 65.8515 1701.42 63.1374 Q1704.62 60.3828 1704.62 54.752 Q1704.62 49.0808 1701.42 46.4072 Q1698.26 43.6931 1691.66 43.6931 L1678.53 43.6931 M1678.53 18.8205 L1678.53 37.0496 L1690.65 37.0496 Q1696.64 37.0496 1699.56 34.8216 Q1702.52 32.5531 1702.52 27.935 Q1702.52 23.3575 1699.56 21.089 Q1696.64 18.8205 1690.65 18.8205 L1678.53 18.8205 M1670.35 12.096 L1691.25 12.096 Q1700.61 12.096 1705.68 15.9849 Q1710.74 19.8737 1710.74 27.0438 Q1710.74 32.5936 1708.15 35.8748 Q1705.55 39.156 1700.53 39.9662 Q1706.57 41.2625 1709.89 45.3944 Q1713.25 49.4858 1713.25 55.6432 Q1713.25 63.745 1707.74 68.1605 Q1702.23 72.576 1692.06 72.576 L1670.35 72.576 L1670.35 12.096 Z" fill="#000000" fill-rule="evenodd" fill-opacity="1" /><polyline clip-path="url(#clip222)" style="stroke:#000000; stroke-linecap:butt; stroke-linejoin:round; stroke-width:4; stroke-opacity:1; fill:none" points="
  321.708,1374.42 411.339,1374.46 500.971,1374.46 590.602,1374.46 680.234,1374.46 769.865,1374.39 859.496,1373.76 949.128,1373.78 1038.76,1373.72 1128.39,1373.6 
  1218.02,1373.32 1307.65,1372.73 1397.28,1372.23 1486.92,1371.09 1576.55,1369.52 1666.18,1366.1 1755.81,1359.94 1845.44,1348.06 1935.07,1324.16 2024.7,1091.3 
  2114.34,963.716 2203.97,686.129 2293.6,159.909 
  "/>
<circle clip-path="url(#clip222)" cx="411.339" cy="1374.46" r="14" fill="#ff0000" fill-rule="evenodd" fill-opacity="1" stroke="#000000" stroke-opacity="1" stroke-width="3.2"/>
<circle clip-path="url(#clip222)" cx="500.971" cy="1374.46" r="14" fill="#ff0000" fill-rule="evenodd" fill-opacity="1" stroke="#000000" stroke-opacity="1" stroke-width="3.2"/>
<circle clip-path="url(#clip222)" cx="590.602" cy="1374.46" r="14" fill="#ff0000" fill-rule="evenodd" fill-opacity="1" stroke="#000000" stroke-opacity="1" stroke-width="3.2"/>
<circle clip-path="url(#clip222)" cx="680.234" cy="1374.46" r="14" fill="#ff0000" fill-rule="evenodd" fill-opacity="1" stroke="#000000" stroke-opacity="1" stroke-width="3.2"/>
<circle clip-path="url(#clip222)" cx="769.865" cy="1374.39" r="14" fill="#ff0000" fill-rule="evenodd" fill-opacity="1" stroke="#000000" stroke-opacity="1" stroke-width="3.2"/>
<circle clip-path="url(#clip222)" cx="859.496" cy="1373.76" r="14" fill="#ff0000" fill-rule="evenodd" fill-opacity="1" stroke="#000000" stroke-opacity="1" stroke-width="3.2"/>
<circle clip-path="url(#clip222)" cx="949.128" cy="1373.78" r="14" fill="#ff0000" fill-rule="evenodd" fill-opacity="1" stroke="#000000" stroke-opacity="1" stroke-width="3.2"/>
<circle clip-path="url(#clip222)" cx="1038.76" cy="1373.72" r="14" fill="#ff0000" fill-rule="evenodd" fill-opacity="1" stroke="#000000" stroke-opacity="1" stroke-width="3.2"/>
<circle clip-path="url(#clip222)" cx="1128.39" cy="1373.6" r="14" fill="#ff0000" fill-rule="evenodd" fill-opacity="1" stroke="#000000" stroke-opacity="1" stroke-width="3.2"/>
<circle clip-path="url(#clip222)" cx="1218.02" cy="1373.32" r="14" fill="#ff0000" fill-rule="evenodd" fill-opacity="1" stroke="#000000" stroke-opacity="1" stroke-width="3.2"/>
<circle clip-path="url(#clip222)" cx="1307.65" cy="1372.73" r="14" fill="#ff0000" fill-rule="evenodd" fill-opacity="1" stroke="#000000" stroke-opacity="1" stroke-width="3.2"/>
<circle clip-path="url(#clip222)" cx="1397.28" cy="1372.23" r="14" fill="#ff0000" fill-rule="evenodd" fill-opacity="1" stroke="#000000" stroke-opacity="1" stroke-width="3.2"/>
<circle clip-path="url(#clip222)" cx="1486.92" cy="1371.09" r="14" fill="#ff0000" fill-rule="evenodd" fill-opacity="1" stroke="#000000" stroke-opacity="1" stroke-width="3.2"/>
<circle clip-path="url(#clip222)" cx="1576.55" cy="1369.52" r="14" fill="#ff0000" fill-rule="evenodd" fill-opacity="1" stroke="#000000" stroke-opacity="1" stroke-width="3.2"/>
<circle clip-path="url(#clip222)" cx="1666.18" cy="1366.1" r="14" fill="#ff0000" fill-rule="evenodd" fill-opacity="1" stroke="#000000" stroke-opacity="1" stroke-width="3.2"/>
<circle clip-path="url(#clip222)" cx="1755.81" cy="1359.94" r="14" fill="#ff0000" fill-rule="evenodd" fill-opacity="1" stroke="#000000" stroke-opacity="1" stroke-width="3.2"/>
<circle clip-path="url(#clip222)" cx="1845.44" cy="1348.06" r="14" fill="#ff0000" fill-rule="evenodd" fill-opacity="1" stroke="#000000" stroke-opacity="1" stroke-width="3.2"/>
<circle clip-path="url(#clip222)" cx="1935.07" cy="1324.16" r="14" fill="#ff0000" fill-rule="evenodd" fill-opacity="1" stroke="#000000" stroke-opacity="1" stroke-width="3.2"/>
<circle clip-path="url(#clip222)" cx="2024.7" cy="1091.3" r="14" fill="#ff0000" fill-rule="evenodd" fill-opacity="1" stroke="#000000" stroke-opacity="1" stroke-width="3.2"/>
<circle clip-path="url(#clip222)" cx="2114.34" cy="963.716" r="14" fill="#ff0000" fill-rule="evenodd" fill-opacity="1" stroke="#000000" stroke-opacity="1" stroke-width="3.2"/>
<circle clip-path="url(#clip222)" cx="2203.97" cy="686.129" r="14" fill="#ff0000" fill-rule="evenodd" fill-opacity="1" stroke="#000000" stroke-opacity="1" stroke-width="3.2"/>
<circle clip-path="url(#clip222)" cx="2293.6" cy="159.909" r="14" fill="#ff0000" fill-rule="evenodd" fill-opacity="1" stroke="#000000" stroke-opacity="1" stroke-width="3.2"/>
</svg>
