<?xml version="1.0" encoding="utf-8"?>
<svg xmlns="http://www.w3.org/2000/svg" xmlns:xlink="http://www.w3.org/1999/xlink" width="600" height="400" viewBox="0 0 2400 1600">
<defs>
  <clipPath id="clip180">
    <rect x="0" y="0" width="2400" height="1600"/>
  </clipPath>
</defs>
<path clip-path="url(#clip180)" d="
M0 1600 L2400 1600 L2400 0 L0 0  Z
  " fill="#ffffff" fill-rule="evenodd" fill-opacity="1"/>
<defs>
  <clipPath id="clip181">
    <rect x="480" y="0" width="1681" height="1600"/>
  </clipPath>
</defs>
<path clip-path="url(#clip180)" d="
M265.445 1410.9 L2352.76 1410.9 L2352.76 123.472 L265.445 123.472  Z
  " fill="#ffffff" fill-rule="evenodd" fill-opacity="1"/>
<defs>
  <clipPath id="clip182">
    <rect x="265" y="123" width="2088" height="1288"/>
  </clipPath>
</defs>
<polyline clip-path="url(#clip182)" style="stroke:#000000; stroke-linecap:butt; stroke-linejoin:round; stroke-width:2; stroke-opacity:0.1; fill:none" points="
  324.52,1410.9 324.52,123.472 
  "/>
<polyline clip-path="url(#clip182)" style="stroke:#000000; stroke-linecap:butt; stroke-linejoin:round; stroke-width:2; stroke-opacity:0.1; fill:none" points="
  621.857,1410.9 621.857,123.472 
  "/>
<polyline clip-path="url(#clip182)" style="stroke:#000000; stroke-linecap:butt; stroke-linejoin:round; stroke-width:2; stroke-opacity:0.1; fill:none" points="
  919.193,1410.9 919.193,123.472 
  "/>
<polyline clip-path="url(#clip182)" style="stroke:#000000; stroke-linecap:butt; stroke-linejoin:round; stroke-width:2; stroke-opacity:0.1; fill:none" points="
  1216.53,1410.9 1216.53,123.472 
  "/>
<polyline clip-path="url(#clip182)" style="stroke:#000000; stroke-linecap:butt; stroke-linejoin:round; stroke-width:2; stroke-opacity:0.1; fill:none" points="
  1513.87,1410.9 1513.87,123.472 
  "/>
<polyline clip-path="url(#clip182)" style="stroke:#000000; stroke-linecap:butt; stroke-linejoin:round; stroke-width:2; stroke-opacity:0.1; fill:none" points="
  1811.2,1410.9 1811.2,123.472 
  "/>
<polyline clip-path="url(#clip182)" style="stroke:#000000; stroke-linecap:butt; stroke-linejoin:round; stroke-width:2; stroke-opacity:0.1; fill:none" points="
  2108.54,1410.9 2108.54,123.472 
  "/>
<polyline clip-path="url(#clip180)" style="stroke:#000000; stroke-linecap:butt; stroke-linejoin:round; stroke-width:4; stroke-opacity:1; fill:none" points="
  265.445,1410.9 2352.76,1410.9 
  "/>
<polyline clip-path="url(#clip180)" style="stroke:#000000; stroke-linecap:butt; stroke-linejoin:round; stroke-width:4; stroke-opacity:1; fill:none" points="
  324.52,1410.9 324.52,1392 
  "/>
<polyline clip-path="url(#clip180)" style="stroke:#000000; stroke-linecap:butt; stroke-linejoin:round; stroke-width:4; stroke-opacity:1; fill:none" points="
  621.857,1410.9 621.857,1392 
  "/>
<polyline clip-path="url(#clip180)" style="stroke:#000000; stroke-linecap:butt; stroke-linejoin:round; stroke-width:4; stroke-opacity:1; fill:none" points="
  919.193,1410.9 919.193,1392 
  "/>
<polyline clip-path="url(#clip180)" style="stroke:#000000; stroke-linecap:butt; stroke-linejoin:round; stroke-width:4; stroke-opacity:1; fill:none" points="
  1216.53,1410.9 1216.53,1392 
  "/>
<polyline clip-path="url(#clip180)" style="stroke:#000000; stroke-linecap:butt; stroke-linejoin:round; stroke-width:4; stroke-opacity:1; fill:none" points="
  1513.87,1410.9 1513.87,1392 
  "/>
<polyline clip-path="url(#clip180)" style="stroke:#000000; stroke-linecap:butt; stroke-linejoin:round; stroke-width:4; stroke-opacity:1; fill:none" points="
  1811.2,1410.9 1811.2,1392 
  "/>
<polyline clip-path="url(#clip180)" style="stroke:#000000; stroke-linecap:butt; stroke-linejoin:round; stroke-width:4; stroke-opacity:1; fill:none" points="
  2108.54,1410.9 2108.54,1392 
  "/>
<path clip-path="url(#clip180)" d="M289.502 1485.02 L297.141 1485.02 L297.141 1458.66 L288.831 1460.32 L288.831 1456.06 L297.095 1454.4 L301.771 1454.4 L301.771 1485.02 L309.41 1485.02 L309.41 1488.96 L289.502 1488.96 L289.502 1485.02 Z" fill="#000000" fill-rule="evenodd" fill-opacity="1" /><path clip-path="url(#clip180)" d="M328.854 1457.48 Q325.243 1457.48 323.414 1461.04 Q321.609 1464.58 321.609 1471.71 Q321.609 1478.82 323.414 1482.38 Q325.243 1485.92 328.854 1485.92 Q332.488 1485.92 334.294 1482.38 Q336.123 1478.82 336.123 1471.71 Q336.123 1464.58 334.294 1461.04 Q332.488 1457.48 328.854 1457.48 M328.854 1453.77 Q334.664 1453.77 337.72 1458.38 Q340.798 1462.96 340.798 1471.71 Q340.798 1480.44 337.72 1485.04 Q334.664 1489.63 328.854 1489.63 Q323.044 1489.63 319.965 1485.04 Q316.91 1480.44 316.91 1471.71 Q316.91 1462.96 319.965 1458.38 Q323.044 1453.77 328.854 1453.77 Z" fill="#000000" fill-rule="evenodd" fill-opacity="1" /><path clip-path="url(#clip180)" d="M350.503 1435.97 Q347.569 1435.97 346.083 1438.86 Q344.616 1441.74 344.616 1447.53 Q344.616 1453.31 346.083 1456.2 Q347.569 1459.08 350.503 1459.08 Q353.456 1459.08 354.923 1456.2 Q356.409 1453.31 356.409 1447.53 Q356.409 1441.74 354.923 1438.86 Q353.456 1435.97 350.503 1435.97 M350.503 1432.96 Q355.224 1432.96 357.707 1436.7 Q360.208 1440.43 360.208 1447.53 Q360.208 1454.62 357.707 1458.37 Q355.224 1462.09 350.503 1462.09 Q345.782 1462.09 343.281 1458.37 Q340.798 1454.62 340.798 1447.53 Q340.798 1440.43 343.281 1436.7 Q345.782 1432.96 350.503 1432.96 Z" fill="#000000" fill-rule="evenodd" fill-opacity="1" /><path clip-path="url(#clip180)" d="M588.184 1485.02 L595.823 1485.02 L595.823 1458.66 L587.513 1460.32 L587.513 1456.06 L595.777 1454.4 L600.453 1454.4 L600.453 1485.02 L608.091 1485.02 L608.091 1488.96 L588.184 1488.96 L588.184 1485.02 Z" fill="#000000" fill-rule="evenodd" fill-opacity="1" /><path clip-path="url(#clip180)" d="M627.536 1457.48 Q623.925 1457.48 622.096 1461.04 Q620.29 1464.58 620.29 1471.71 Q620.29 1478.82 622.096 1482.38 Q623.925 1485.92 627.536 1485.92 Q631.17 1485.92 632.976 1482.38 Q634.804 1478.82 634.804 1471.71 Q634.804 1464.58 632.976 1461.04 Q631.17 1457.48 627.536 1457.48 M627.536 1453.77 Q633.346 1453.77 636.401 1458.38 Q639.48 1462.96 639.48 1471.71 Q639.48 1480.44 636.401 1485.04 Q633.346 1489.63 627.536 1489.63 Q621.726 1489.63 618.647 1485.04 Q615.591 1480.44 615.591 1471.71 Q615.591 1462.96 618.647 1458.38 Q621.726 1453.77 627.536 1453.77 Z" fill="#000000" fill-rule="evenodd" fill-opacity="1" /><path clip-path="url(#clip180)" d="M640.026 1458.35 L646.232 1458.35 L646.232 1436.93 L639.48 1438.28 L639.48 1434.82 L646.194 1433.47 L649.994 1433.47 L649.994 1458.35 L656.2 1458.35 L656.2 1461.55 L640.026 1461.55 L640.026 1458.35 Z" fill="#000000" fill-rule="evenodd" fill-opacity="1" /><path clip-path="url(#clip180)" d="M884.966 1485.02 L892.605 1485.02 L892.605 1458.66 L884.295 1460.32 L884.295 1456.06 L892.559 1454.4 L897.235 1454.4 L897.235 1485.02 L904.874 1485.02 L904.874 1488.96 L884.966 1488.96 L884.966 1485.02 Z" fill="#000000" fill-rule="evenodd" fill-opacity="1" /><path clip-path="url(#clip180)" d="M924.318 1457.48 Q920.707 1457.48 918.878 1461.04 Q917.073 1464.58 917.073 1471.71 Q917.073 1478.82 918.878 1482.38 Q920.707 1485.92 924.318 1485.92 Q927.952 1485.92 929.758 1482.38 Q931.586 1478.82 931.586 1471.71 Q931.586 1464.58 929.758 1461.04 Q927.952 1457.48 924.318 1457.48 M924.318 1453.77 Q930.128 1453.77 933.184 1458.38 Q936.262 1462.96 936.262 1471.71 Q936.262 1480.44 933.184 1485.04 Q930.128 1489.63 924.318 1489.63 Q918.508 1489.63 915.429 1485.04 Q912.373 1480.44 912.373 1471.71 Q912.373 1462.96 915.429 1458.38 Q918.508 1453.77 924.318 1453.77 Z" fill="#000000" fill-rule="evenodd" fill-opacity="1" /><path clip-path="url(#clip180)" d="M940.833 1458.35 L954.092 1458.35 L954.092 1461.55 L936.262 1461.55 L936.262 1458.35 Q938.425 1456.11 942.149 1452.35 Q945.892 1448.57 946.851 1447.48 Q948.675 1445.43 949.39 1444.02 Q950.124 1442.59 950.124 1441.22 Q950.124 1438.98 948.544 1437.57 Q946.983 1436.16 944.462 1436.16 Q942.676 1436.16 940.682 1436.78 Q938.707 1437.4 936.45 1438.66 L936.45 1434.82 Q938.745 1433.9 940.738 1433.43 Q942.732 1432.96 944.387 1432.96 Q948.751 1432.96 951.346 1435.14 Q953.942 1437.32 953.942 1440.97 Q953.942 1442.7 953.283 1444.26 Q952.644 1445.8 950.932 1447.91 Q950.462 1448.46 947.942 1451.07 Q945.422 1453.67 940.833 1458.35 Z" fill="#000000" fill-rule="evenodd" fill-opacity="1" /><path clip-path="url(#clip180)" d="M1181.97 1485.02 L1189.61 1485.02 L1189.61 1458.66 L1181.3 1460.32 L1181.3 1456.06 L1189.57 1454.4 L1194.24 1454.4 L1194.24 1485.02 L1201.88 1485.02 L1201.88 1488.96 L1181.97 1488.96 L1181.97 1485.02 Z" fill="#000000" fill-rule="evenodd" fill-opacity="1" /><path clip-path="url(#clip180)" d="M1221.33 1457.48 Q1217.71 1457.48 1215.89 1461.04 Q1214.08 1464.58 1214.08 1471.71 Q1214.08 1478.82 1215.89 1482.38 Q1217.71 1485.92 1221.33 1485.92 Q1224.96 1485.92 1226.77 1482.38 Q1228.59 1478.82 1228.59 1471.71 Q1228.59 1464.58 1226.77 1461.04 Q1224.96 1457.48 1221.33 1457.48 M1221.33 1453.77 Q1227.14 1453.77 1230.19 1458.38 Q1233.27 1462.96 1233.27 1471.71 Q1233.27 1480.44 1230.19 1485.04 Q1227.14 1489.63 1221.33 1489.63 Q1215.52 1489.63 1212.44 1485.04 Q1209.38 1480.44 1209.38 1471.71 Q1209.38 1462.96 1212.44 1458.38 Q1215.52 1453.77 1221.33 1453.77 Z" fill="#000000" fill-rule="evenodd" fill-opacity="1" /><path clip-path="url(#clip180)" d="M1245.97 1446.41 Q1248.69 1446.99 1250.22 1448.83 Q1251.76 1450.68 1251.76 1453.38 Q1251.76 1457.54 1248.9 1459.82 Q1246.04 1462.09 1240.77 1462.09 Q1239.01 1462.09 1237.13 1461.73 Q1235.26 1461.4 1233.27 1460.7 L1233.27 1457.03 Q1234.85 1457.95 1236.73 1458.42 Q1238.61 1458.89 1240.66 1458.89 Q1244.23 1458.89 1246.1 1457.48 Q1247.98 1456.07 1247.98 1453.38 Q1247.98 1450.9 1246.23 1449.51 Q1244.5 1448.1 1241.4 1448.1 L1238.12 1448.1 L1238.12 1444.98 L1241.55 1444.98 Q1244.35 1444.98 1245.83 1443.87 Q1247.32 1442.74 1247.32 1440.63 Q1247.32 1438.47 1245.78 1437.32 Q1244.25 1436.16 1241.4 1436.16 Q1239.83 1436.16 1238.05 1436.49 Q1236.26 1436.83 1234.12 1437.55 L1234.12 1434.16 Q1236.28 1433.56 1238.16 1433.26 Q1240.06 1432.96 1241.73 1432.96 Q1246.06 1432.96 1248.58 1434.93 Q1251.1 1436.89 1251.1 1440.24 Q1251.1 1442.57 1249.76 1444.19 Q1248.43 1445.79 1245.97 1446.41 Z" fill="#000000" fill-rule="evenodd" fill-opacity="1" /><path clip-path="url(#clip180)" d="M1478.32 1485.02 L1485.96 1485.02 L1485.96 1458.66 L1477.65 1460.32 L1477.65 1456.06 L1485.92 1454.4 L1490.59 1454.4 L1490.59 1485.02 L1498.23 1485.02 L1498.23 1488.96 L1478.32 1488.96 L1478.32 1485.02 Z" fill="#000000" fill-rule="evenodd" fill-opacity="1" /><path clip-path="url(#clip180)" d="M1517.68 1457.48 Q1514.06 1457.48 1512.24 1461.04 Q1510.43 1464.58 1510.43 1471.71 Q1510.43 1478.82 1512.24 1482.38 Q1514.06 1485.92 1517.68 1485.92 Q1521.31 1485.92 1523.12 1482.38 Q1524.94 1478.82 1524.94 1471.71 Q1524.94 1464.58 1523.12 1461.04 Q1521.31 1457.48 1517.68 1457.48 M1517.68 1453.77 Q1523.49 1453.77 1526.54 1458.38 Q1529.62 1462.96 1529.62 1471.71 Q1529.62 1480.44 1526.54 1485.04 Q1523.49 1489.63 1517.68 1489.63 Q1511.87 1489.63 1508.79 1485.04 Q1505.73 1480.44 1505.73 1471.71 Q1505.73 1462.96 1508.79 1458.38 Q1511.87 1453.77 1517.68 1453.77 Z" fill="#000000" fill-rule="evenodd" fill-opacity="1" /><path clip-path="url(#clip180)" d="M1542.3 1436.78 L1532.7 1451.77 L1542.3 1451.77 L1542.3 1436.78 M1541.3 1433.47 L1546.08 1433.47 L1546.08 1451.77 L1550.08 1451.77 L1550.08 1454.93 L1546.08 1454.93 L1546.08 1461.55 L1542.3 1461.55 L1542.3 1454.93 L1529.62 1454.93 L1529.62 1451.26 L1541.3 1433.47 Z" fill="#000000" fill-rule="evenodd" fill-opacity="1" /><path clip-path="url(#clip180)" d="M1776.81 1485.02 L1784.45 1485.02 L1784.45 1458.66 L1776.14 1460.32 L1776.14 1456.06 L1784.4 1454.4 L1789.08 1454.4 L1789.08 1485.02 L1796.72 1485.02 L1796.72 1488.96 L1776.81 1488.96 L1776.81 1485.02 Z" fill="#000000" fill-rule="evenodd" fill-opacity="1" /><path clip-path="url(#clip180)" d="M1816.16 1457.48 Q1812.55 1457.48 1810.72 1461.04 Q1808.91 1464.58 1808.91 1471.71 Q1808.91 1478.82 1810.72 1482.38 Q1812.55 1485.92 1816.16 1485.92 Q1819.79 1485.92 1821.6 1482.38 Q1823.43 1478.82 1823.43 1471.71 Q1823.43 1464.58 1821.6 1461.04 Q1819.79 1457.48 1816.16 1457.48 M1816.16 1453.77 Q1821.97 1453.77 1825.03 1458.38 Q1828.1 1462.96 1828.1 1471.71 Q1828.1 1480.44 1825.03 1485.04 Q1821.97 1489.63 1816.16 1489.63 Q1810.35 1489.63 1807.27 1485.04 Q1804.22 1480.44 1804.22 1471.71 Q1804.22 1462.96 1807.27 1458.38 Q1810.35 1453.77 1816.16 1453.77 Z" fill="#000000" fill-rule="evenodd" fill-opacity="1" /><path clip-path="url(#clip180)" d="M1829.29 1433.47 L1844.2 1433.47 L1844.2 1436.66 L1832.77 1436.66 L1832.77 1443.55 Q1833.6 1443.27 1834.42 1443.13 Q1835.25 1442.98 1836.08 1442.98 Q1840.78 1442.98 1843.53 1445.56 Q1846.27 1448.14 1846.27 1452.54 Q1846.27 1457.07 1843.45 1459.59 Q1840.63 1462.09 1835.5 1462.09 Q1833.73 1462.09 1831.88 1461.79 Q1830.06 1461.49 1828.1 1460.89 L1828.1 1457.07 Q1829.8 1457.99 1831.6 1458.44 Q1833.41 1458.89 1835.42 1458.89 Q1838.67 1458.89 1840.57 1457.18 Q1842.47 1455.47 1842.47 1452.54 Q1842.47 1449.6 1840.57 1447.89 Q1838.67 1446.18 1835.42 1446.18 Q1833.9 1446.18 1832.37 1446.52 Q1830.87 1446.86 1829.29 1447.57 L1829.29 1433.47 Z" fill="#000000" fill-rule="evenodd" fill-opacity="1" /><path clip-path="url(#clip180)" d="M2073.53 1485.02 L2081.17 1485.02 L2081.17 1458.66 L2072.86 1460.32 L2072.86 1456.06 L2081.13 1454.4 L2085.8 1454.4 L2085.8 1485.02 L2093.44 1485.02 L2093.44 1488.96 L2073.53 1488.96 L2073.53 1485.02 Z" fill="#000000" fill-rule="evenodd" fill-opacity="1" /><path clip-path="url(#clip180)" d="M2112.89 1457.48 Q2109.27 1457.48 2107.45 1461.04 Q2105.64 1464.58 2105.64 1471.71 Q2105.64 1478.82 2107.45 1482.38 Q2109.27 1485.92 2112.89 1485.92 Q2116.52 1485.92 2118.32 1482.38 Q2120.15 1478.82 2120.15 1471.71 Q2120.15 1464.58 2118.32 1461.04 Q2116.52 1457.48 2112.89 1457.48 M2112.89 1453.77 Q2118.7 1453.77 2121.75 1458.38 Q2124.83 1462.96 2124.83 1471.71 Q2124.83 1480.44 2121.75 1485.04 Q2118.7 1489.63 2112.89 1489.63 Q2107.07 1489.63 2104 1485.04 Q2100.94 1480.44 2100.94 1471.71 Q2100.94 1462.96 2104 1458.38 Q2107.07 1453.77 2112.89 1453.77 Z" fill="#000000" fill-rule="evenodd" fill-opacity="1" /><path clip-path="url(#clip180)" d="M2134.85 1445.99 Q2132.3 1445.99 2130.79 1447.74 Q2129.31 1449.49 2129.31 1452.54 Q2129.31 1455.57 2130.79 1457.33 Q2132.3 1459.08 2134.85 1459.08 Q2137.41 1459.08 2138.9 1457.33 Q2140.4 1455.57 2140.4 1452.54 Q2140.4 1449.49 2138.9 1447.74 Q2137.41 1445.99 2134.85 1445.99 M2142.4 1434.09 L2142.4 1437.55 Q2140.97 1436.87 2139.5 1436.51 Q2138.05 1436.16 2136.62 1436.16 Q2132.86 1436.16 2130.87 1438.69 Q2128.89 1441.23 2128.61 1446.37 Q2129.72 1444.73 2131.39 1443.87 Q2133.07 1442.98 2135.08 1442.98 Q2139.31 1442.98 2141.76 1445.56 Q2144.22 1448.12 2144.22 1452.54 Q2144.22 1456.86 2141.66 1459.48 Q2139.1 1462.09 2134.85 1462.09 Q2129.98 1462.09 2127.41 1458.37 Q2124.83 1454.62 2124.83 1447.53 Q2124.83 1440.88 2127.99 1436.93 Q2131.15 1432.96 2136.47 1432.96 Q2137.9 1432.96 2139.35 1433.24 Q2140.82 1433.52 2142.4 1434.09 Z" fill="#000000" fill-rule="evenodd" fill-opacity="1" /><path clip-path="url(#clip180)" d="M1067.16 1543.95 L1067.16 1524.66 L1073.01 1524.66 L1073.01 1574.19 L1067.16 1574.19 L1067.16 1568.84 Q1065.31 1572.02 1062.48 1573.58 Q1059.68 1575.11 1055.73 1575.11 Q1049.27 1575.11 1045.19 1569.95 Q1041.15 1564.8 1041.15 1556.39 Q1041.15 1547.99 1045.19 1542.83 Q1049.27 1537.68 1055.73 1537.68 Q1059.68 1537.68 1062.48 1539.24 Q1065.31 1540.77 1067.16 1543.95 M1047.2 1556.39 Q1047.2 1562.85 1049.84 1566.55 Q1052.51 1570.21 1057.16 1570.21 Q1061.81 1570.21 1064.48 1566.55 Q1067.16 1562.85 1067.16 1556.39 Q1067.16 1549.93 1064.48 1546.27 Q1061.81 1542.58 1057.16 1542.58 Q1052.51 1542.58 1049.84 1546.27 Q1047.2 1549.93 1047.2 1556.39 Z" fill="#000000" fill-rule="evenodd" fill-opacity="1" /><path clip-path="url(#clip180)" d="M1101.28 1556.27 Q1094.18 1556.27 1091.44 1557.89 Q1088.7 1559.51 1088.7 1563.43 Q1088.7 1566.55 1090.74 1568.39 Q1092.81 1570.21 1096.34 1570.21 Q1101.21 1570.21 1104.14 1566.77 Q1107.1 1563.3 1107.1 1557.57 L1107.1 1556.27 L1101.28 1556.27 M1112.96 1553.85 L1112.96 1574.19 L1107.1 1574.19 L1107.1 1568.77 Q1105.1 1572.02 1102.1 1573.58 Q1099.11 1575.11 1094.78 1575.11 Q1089.31 1575.11 1086.06 1572.05 Q1082.85 1568.97 1082.85 1563.81 Q1082.85 1557.79 1086.86 1554.74 Q1090.9 1551.68 1098.89 1551.68 L1107.1 1551.68 L1107.1 1551.11 Q1107.1 1547.07 1104.43 1544.87 Q1101.79 1542.64 1096.98 1542.64 Q1093.92 1542.64 1091.03 1543.38 Q1088.13 1544.11 1085.46 1545.57 L1085.46 1540.16 Q1088.67 1538.92 1091.7 1538.31 Q1094.72 1537.68 1097.58 1537.68 Q1105.32 1537.68 1109.14 1541.69 Q1112.96 1545.7 1112.96 1553.85 Z" fill="#000000" fill-rule="evenodd" fill-opacity="1" /><path clip-path="url(#clip180)" d="M1130.81 1528.42 L1130.81 1538.54 L1142.88 1538.54 L1142.88 1543.09 L1130.81 1543.09 L1130.81 1562.44 Q1130.81 1566.8 1131.99 1568.04 Q1133.2 1569.28 1136.86 1569.28 L1142.88 1569.28 L1142.88 1574.19 L1136.86 1574.19 Q1130.08 1574.19 1127.5 1571.67 Q1124.92 1569.12 1124.92 1562.44 L1124.92 1543.09 L1120.63 1543.09 L1120.63 1538.54 L1124.92 1538.54 L1124.92 1528.42 L1130.81 1528.42 Z" fill="#000000" fill-rule="evenodd" fill-opacity="1" /><path clip-path="url(#clip180)" d="M1166.78 1556.27 Q1159.68 1556.27 1156.94 1557.89 Q1154.21 1559.51 1154.21 1563.43 Q1154.21 1566.55 1156.24 1568.39 Q1158.31 1570.21 1161.85 1570.21 Q1166.72 1570.21 1169.64 1566.77 Q1172.6 1563.3 1172.6 1557.57 L1172.6 1556.27 L1166.78 1556.27 M1178.46 1553.85 L1178.46 1574.19 L1172.6 1574.19 L1172.6 1568.77 Q1170.6 1572.02 1167.61 1573.58 Q1164.61 1575.11 1160.29 1575.11 Q1154.81 1575.11 1151.56 1572.05 Q1148.35 1568.97 1148.35 1563.81 Q1148.35 1557.79 1152.36 1554.74 Q1156.4 1551.68 1164.39 1551.68 L1172.6 1551.68 L1172.6 1551.11 Q1172.6 1547.07 1169.93 1544.87 Q1167.29 1542.64 1162.48 1542.64 Q1159.43 1542.64 1156.53 1543.38 Q1153.63 1544.11 1150.96 1545.57 L1150.96 1540.16 Q1154.17 1538.92 1157.2 1538.31 Q1160.22 1537.68 1163.09 1537.68 Q1170.82 1537.68 1174.64 1541.69 Q1178.46 1545.7 1178.46 1553.85 Z" fill="#000000" fill-rule="evenodd" fill-opacity="1" /><path clip-path="url(#clip180)" d="M1233.97 1539.59 L1233.97 1545.13 Q1231.49 1543.85 1228.81 1543.22 Q1226.14 1542.58 1223.27 1542.58 Q1218.91 1542.58 1216.72 1543.92 Q1214.55 1545.25 1214.55 1547.93 Q1214.55 1549.96 1216.11 1551.14 Q1217.67 1552.29 1222.38 1553.34 L1224.39 1553.78 Q1230.63 1555.12 1233.24 1557.57 Q1235.88 1559.99 1235.88 1564.35 Q1235.88 1569.32 1231.93 1572.21 Q1228.02 1575.11 1221.14 1575.11 Q1218.28 1575.11 1215.16 1574.54 Q1212.07 1573.99 1208.63 1572.88 L1208.63 1566.83 Q1211.88 1568.52 1215.03 1569.38 Q1218.18 1570.21 1221.27 1570.21 Q1225.41 1570.21 1227.64 1568.81 Q1229.86 1567.37 1229.86 1564.8 Q1229.86 1562.41 1228.24 1561.14 Q1226.65 1559.86 1221.21 1558.68 L1219.17 1558.21 Q1213.73 1557.06 1211.31 1554.71 Q1208.89 1552.32 1208.89 1548.18 Q1208.89 1543.15 1212.45 1540.42 Q1216.02 1537.68 1222.57 1537.68 Q1225.82 1537.68 1228.69 1538.16 Q1231.55 1538.63 1233.97 1539.59 Z" fill="#000000" fill-rule="evenodd" fill-opacity="1" /><path clip-path="url(#clip180)" d="M1245.2 1538.54 L1251.06 1538.54 L1251.06 1574.19 L1245.2 1574.19 L1245.2 1538.54 M1245.2 1524.66 L1251.06 1524.66 L1251.06 1532.08 L1245.2 1532.08 L1245.2 1524.66 Z" fill="#000000" fill-rule="evenodd" fill-opacity="1" /><path clip-path="url(#clip180)" d="M1260.77 1538.54 L1288.59 1538.54 L1288.59 1543.88 L1266.56 1569.51 L1288.59 1569.51 L1288.59 1574.19 L1259.97 1574.19 L1259.97 1568.84 L1282 1543.22 L1260.77 1543.22 L1260.77 1538.54 Z" fill="#000000" fill-rule="evenodd" fill-opacity="1" /><path clip-path="url(#clip180)" d="M1328.02 1554.9 L1328.02 1557.76 L1301.1 1557.76 Q1301.48 1563.81 1304.72 1566.99 Q1308 1570.14 1313.83 1570.14 Q1317.2 1570.14 1320.35 1569.32 Q1323.53 1568.49 1326.65 1566.83 L1326.65 1572.37 Q1323.5 1573.71 1320.19 1574.41 Q1316.88 1575.11 1313.48 1575.11 Q1304.95 1575.11 1299.95 1570.14 Q1294.98 1565.18 1294.98 1556.71 Q1294.98 1547.96 1299.69 1542.83 Q1304.44 1537.68 1312.46 1537.68 Q1319.65 1537.68 1323.82 1542.33 Q1328.02 1546.94 1328.02 1554.9 M1322.17 1553.18 Q1322.1 1548.37 1319.46 1545.51 Q1316.85 1542.64 1312.52 1542.64 Q1307.62 1542.64 1304.66 1545.41 Q1301.73 1548.18 1301.29 1553.21 L1322.17 1553.18 Z" fill="#000000" fill-rule="evenodd" fill-opacity="1" /><path clip-path="url(#clip180)" d="M1372.42 1524.72 Q1368.16 1532.04 1366.09 1539.21 Q1364.02 1546.37 1364.02 1553.72 Q1364.02 1561.07 1366.09 1568.3 Q1368.19 1575.49 1372.42 1582.78 L1367.33 1582.78 Q1362.56 1575.3 1360.17 1568.07 Q1357.81 1560.85 1357.81 1553.72 Q1357.81 1546.62 1360.17 1539.43 Q1362.52 1532.24 1367.33 1524.72 L1372.42 1524.72 Z" fill="#000000" fill-rule="evenodd" fill-opacity="1" /><path clip-path="url(#clip180)" d="M1409.38 1556.39 Q1409.38 1549.93 1406.7 1546.27 Q1404.06 1542.58 1399.41 1542.58 Q1394.77 1542.58 1392.09 1546.27 Q1389.45 1549.93 1389.45 1556.39 Q1389.45 1562.85 1392.09 1566.55 Q1394.77 1570.21 1399.41 1570.21 Q1404.06 1570.21 1406.7 1566.55 Q1409.38 1562.85 1409.38 1556.39 M1389.45 1543.95 Q1391.3 1540.77 1394.1 1539.24 Q1396.93 1537.68 1400.85 1537.68 Q1407.34 1537.68 1411.38 1542.83 Q1415.46 1547.99 1415.46 1556.39 Q1415.46 1564.8 1411.38 1569.95 Q1407.34 1575.11 1400.85 1575.11 Q1396.93 1575.11 1394.1 1573.58 Q1391.3 1572.02 1389.45 1568.84 L1389.45 1574.19 L1383.56 1574.19 L1383.56 1524.66 L1389.45 1524.66 L1389.45 1543.95 Z" fill="#000000" fill-rule="evenodd" fill-opacity="1" /><path clip-path="url(#clip180)" d="M1440 1577.5 Q1437.51 1583.86 1435.16 1585.8 Q1432.8 1587.74 1428.86 1587.74 L1424.18 1587.74 L1424.18 1582.84 L1427.61 1582.84 Q1430.03 1582.84 1431.37 1581.7 Q1432.71 1580.55 1434.33 1576.29 L1435.38 1573.61 L1420.96 1538.54 L1427.17 1538.54 L1438.31 1566.42 L1449.45 1538.54 L1455.65 1538.54 L1440 1577.5 Z" fill="#000000" fill-rule="evenodd" fill-opacity="1" /><path clip-path="url(#clip180)" d="M1469.53 1528.42 L1469.53 1538.54 L1481.6 1538.54 L1481.6 1543.09 L1469.53 1543.09 L1469.53 1562.44 Q1469.53 1566.8 1470.71 1568.04 Q1471.92 1569.28 1475.58 1569.28 L1481.6 1569.28 L1481.6 1574.19 L1475.58 1574.19 Q1468.8 1574.19 1466.22 1571.67 Q1463.64 1569.12 1463.64 1562.44 L1463.64 1543.09 L1459.35 1543.09 L1459.35 1538.54 L1463.64 1538.54 L1463.64 1528.42 L1469.53 1528.42 Z" fill="#000000" fill-rule="evenodd" fill-opacity="1" /><path clip-path="url(#clip180)" d="M1519.79 1554.9 L1519.79 1557.76 L1492.86 1557.76 Q1493.24 1563.81 1496.49 1566.99 Q1499.77 1570.14 1505.59 1570.14 Q1508.97 1570.14 1512.12 1569.32 Q1515.3 1568.49 1518.42 1566.83 L1518.42 1572.37 Q1515.27 1573.71 1511.96 1574.41 Q1508.65 1575.11 1505.24 1575.11 Q1496.71 1575.11 1491.72 1570.14 Q1486.75 1565.18 1486.75 1556.71 Q1486.75 1547.96 1491.46 1542.83 Q1496.2 1537.68 1504.23 1537.68 Q1511.42 1537.68 1515.59 1542.33 Q1519.79 1546.94 1519.79 1554.9 M1513.93 1553.18 Q1513.87 1548.37 1511.23 1545.51 Q1508.62 1542.64 1504.29 1542.64 Q1499.39 1542.64 1496.43 1545.41 Q1493.5 1548.18 1493.05 1553.21 L1513.93 1553.18 Z" fill="#000000" fill-rule="evenodd" fill-opacity="1" /><path clip-path="url(#clip180)" d="M1552.13 1539.59 L1552.13 1545.13 Q1549.64 1543.85 1546.97 1543.22 Q1544.3 1542.58 1541.43 1542.58 Q1537.07 1542.58 1534.88 1543.92 Q1532.71 1545.25 1532.71 1547.93 Q1532.71 1549.96 1534.27 1551.14 Q1535.83 1552.29 1540.54 1553.34 L1542.55 1553.78 Q1548.79 1555.12 1551.4 1557.57 Q1554.04 1559.99 1554.04 1564.35 Q1554.04 1569.32 1550.09 1572.21 Q1546.18 1575.11 1539.3 1575.11 Q1536.44 1575.11 1533.32 1574.54 Q1530.23 1573.99 1526.79 1572.88 L1526.79 1566.83 Q1530.04 1568.52 1533.19 1569.38 Q1536.34 1570.21 1539.43 1570.21 Q1543.57 1570.21 1545.79 1568.81 Q1548.02 1567.37 1548.02 1564.8 Q1548.02 1562.41 1546.4 1561.14 Q1544.81 1559.86 1539.36 1558.68 L1537.33 1558.21 Q1531.88 1557.06 1529.47 1554.71 Q1527.05 1552.32 1527.05 1548.18 Q1527.05 1543.15 1530.61 1540.42 Q1534.18 1537.68 1540.73 1537.68 Q1543.98 1537.68 1546.84 1538.16 Q1549.71 1538.63 1552.13 1539.59 Z" fill="#000000" fill-rule="evenodd" fill-opacity="1" /><path clip-path="url(#clip180)" d="M1562.44 1524.72 L1567.53 1524.72 Q1572.31 1532.24 1574.66 1539.43 Q1577.05 1546.62 1577.05 1553.72 Q1577.05 1560.85 1574.66 1568.07 Q1572.31 1575.3 1567.53 1582.78 L1562.44 1582.78 Q1566.67 1575.49 1568.74 1568.3 Q1570.84 1561.07 1570.84 1553.72 Q1570.84 1546.37 1568.74 1539.21 Q1566.67 1532.04 1562.44 1524.72 Z" fill="#000000" fill-rule="evenodd" fill-opacity="1" /><polyline clip-path="url(#clip182)" style="stroke:#000000; stroke-linecap:butt; stroke-linejoin:round; stroke-width:2; stroke-opacity:0.1; fill:none" points="
  265.445,1374.71 2352.76,1374.71 
  "/>
<polyline clip-path="url(#clip182)" style="stroke:#000000; stroke-linecap:butt; stroke-linejoin:round; stroke-width:2; stroke-opacity:0.1; fill:none" points="
  265.445,1181.75 2352.76,1181.75 
  "/>
<polyline clip-path="url(#clip182)" style="stroke:#000000; stroke-linecap:butt; stroke-linejoin:round; stroke-width:2; stroke-opacity:0.1; fill:none" points="
  265.445,988.781 2352.76,988.781 
  "/>
<polyline clip-path="url(#clip182)" style="stroke:#000000; stroke-linecap:butt; stroke-linejoin:round; stroke-width:2; stroke-opacity:0.1; fill:none" points="
  265.445,795.815 2352.76,795.815 
  "/>
<polyline clip-path="url(#clip182)" style="stroke:#000000; stroke-linecap:butt; stroke-linejoin:round; stroke-width:2; stroke-opacity:0.1; fill:none" points="
  265.445,602.849 2352.76,602.849 
  "/>
<polyline clip-path="url(#clip182)" style="stroke:#000000; stroke-linecap:butt; stroke-linejoin:round; stroke-width:2; stroke-opacity:0.1; fill:none" points="
  265.445,409.883 2352.76,409.883 
  "/>
<polyline clip-path="url(#clip182)" style="stroke:#000000; stroke-linecap:butt; stroke-linejoin:round; stroke-width:2; stroke-opacity:0.1; fill:none" points="
  265.445,216.917 2352.76,216.917 
  "/>
<polyline clip-path="url(#clip180)" style="stroke:#000000; stroke-linecap:butt; stroke-linejoin:round; stroke-width:4; stroke-opacity:1; fill:none" points="
  265.445,1410.9 265.445,123.472 
  "/>
<polyline clip-path="url(#clip180)" style="stroke:#000000; stroke-linecap:butt; stroke-linejoin:round; stroke-width:4; stroke-opacity:1; fill:none" points="
  265.445,1374.71 284.342,1374.71 
  "/>
<polyline clip-path="url(#clip180)" style="stroke:#000000; stroke-linecap:butt; stroke-linejoin:round; stroke-width:4; stroke-opacity:1; fill:none" points="
  265.445,1181.75 284.342,1181.75 
  "/>
<polyline clip-path="url(#clip180)" style="stroke:#000000; stroke-linecap:butt; stroke-linejoin:round; stroke-width:4; stroke-opacity:1; fill:none" points="
  265.445,988.781 284.342,988.781 
  "/>
<polyline clip-path="url(#clip180)" style="stroke:#000000; stroke-linecap:butt; stroke-linejoin:round; stroke-width:4; stroke-opacity:1; fill:none" points="
  265.445,795.815 284.342,795.815 
  "/>
<polyline clip-path="url(#clip180)" style="stroke:#000000; stroke-linecap:butt; stroke-linejoin:round; stroke-width:4; stroke-opacity:1; fill:none" points="
  265.445,602.849 284.342,602.849 
  "/>
<polyline clip-path="url(#clip180)" style="stroke:#000000; stroke-linecap:butt; stroke-linejoin:round; stroke-width:4; stroke-opacity:1; fill:none" points="
  265.445,409.883 284.342,409.883 
  "/>
<polyline clip-path="url(#clip180)" style="stroke:#000000; stroke-linecap:butt; stroke-linejoin:round; stroke-width:4; stroke-opacity:1; fill:none" points="
  265.445,216.917 284.342,216.917 
  "/>
<path clip-path="url(#clip180)" d="M217.5 1360.51 Q213.889 1360.51 212.061 1364.08 Q210.255 1367.62 210.255 1374.75 Q210.255 1381.85 212.061 1385.42 Q213.889 1388.96 217.5 1388.96 Q221.135 1388.96 222.94 1385.42 Q224.769 1381.85 224.769 1374.75 Q224.769 1367.62 222.94 1364.08 Q221.135 1360.51 217.5 1360.51 M217.5 1356.81 Q223.31 1356.81 226.366 1361.41 Q229.445 1366 229.445 1374.75 Q229.445 1383.47 226.366 1388.08 Q223.31 1392.66 217.5 1392.66 Q211.69 1392.66 208.612 1388.08 Q205.556 1383.47 205.556 1374.75 Q205.556 1366 208.612 1361.41 Q211.69 1356.81 217.5 1356.81 Z" fill="#000000" fill-rule="evenodd" fill-opacity="1" /><path clip-path="url(#clip180)" d="M117.825 1195.09 L125.464 1195.09 L125.464 1168.73 L117.154 1170.39 L117.154 1166.13 L125.418 1164.47 L130.093 1164.47 L130.093 1195.09 L137.732 1195.09 L137.732 1199.03 L117.825 1199.03 L117.825 1195.09 Z" fill="#000000" fill-rule="evenodd" fill-opacity="1" /><path clip-path="url(#clip180)" d="M157.177 1167.55 Q153.566 1167.55 151.737 1171.11 Q149.931 1174.65 149.931 1181.78 Q149.931 1188.89 151.737 1192.45 Q153.566 1195.99 157.177 1195.99 Q160.811 1195.99 162.616 1192.45 Q164.445 1188.89 164.445 1181.78 Q164.445 1174.65 162.616 1171.11 Q160.811 1167.55 157.177 1167.55 M157.177 1163.84 Q162.987 1163.84 166.042 1168.45 Q169.121 1173.03 169.121 1181.78 Q169.121 1190.51 166.042 1195.11 Q162.987 1199.7 157.177 1199.7 Q151.366 1199.7 148.288 1195.11 Q145.232 1190.51 145.232 1181.78 Q145.232 1173.03 148.288 1168.45 Q151.366 1163.84 157.177 1163.84 Z" fill="#000000" fill-rule="evenodd" fill-opacity="1" /><path clip-path="url(#clip180)" d="M187.338 1167.55 Q183.727 1167.55 181.899 1171.11 Q180.093 1174.65 180.093 1181.78 Q180.093 1188.89 181.899 1192.45 Q183.727 1195.99 187.338 1195.99 Q190.973 1195.99 192.778 1192.45 Q194.607 1188.89 194.607 1181.78 Q194.607 1174.65 192.778 1171.11 Q190.973 1167.55 187.338 1167.55 M187.338 1163.84 Q193.149 1163.84 196.204 1168.45 Q199.283 1173.03 199.283 1181.78 Q199.283 1190.51 196.204 1195.11 Q193.149 1199.7 187.338 1199.7 Q181.528 1199.7 178.45 1195.11 Q175.394 1190.51 175.394 1181.78 Q175.394 1173.03 178.45 1168.45 Q181.528 1163.84 187.338 1163.84 Z" fill="#000000" fill-rule="evenodd" fill-opacity="1" /><path clip-path="url(#clip180)" d="M217.5 1167.55 Q213.889 1167.55 212.061 1171.11 Q210.255 1174.65 210.255 1181.78 Q210.255 1188.89 212.061 1192.45 Q213.889 1195.99 217.5 1195.99 Q221.135 1195.99 222.94 1192.45 Q224.769 1188.89 224.769 1181.78 Q224.769 1174.65 222.94 1171.11 Q221.135 1167.55 217.5 1167.55 M217.5 1163.84 Q223.31 1163.84 226.366 1168.45 Q229.445 1173.03 229.445 1181.78 Q229.445 1190.51 226.366 1195.11 Q223.31 1199.7 217.5 1199.7 Q211.69 1199.7 208.612 1195.11 Q205.556 1190.51 205.556 1181.78 Q205.556 1173.03 208.612 1168.45 Q211.69 1163.84 217.5 1163.84 Z" fill="#000000" fill-rule="evenodd" fill-opacity="1" /><path clip-path="url(#clip180)" d="M121.043 1002.13 L137.362 1002.13 L137.362 1006.06 L115.418 1006.06 L115.418 1002.13 Q118.08 999.371 122.663 994.741 Q127.269 990.089 128.45 988.746 Q130.695 986.223 131.575 984.487 Q132.478 982.728 132.478 981.038 Q132.478 978.283 130.533 976.547 Q128.612 974.811 125.51 974.811 Q123.311 974.811 120.857 975.575 Q118.427 976.339 115.649 977.89 L115.649 973.167 Q118.473 972.033 120.927 971.455 Q123.38 970.876 125.418 970.876 Q130.788 970.876 133.982 973.561 Q137.177 976.246 137.177 980.737 Q137.177 982.866 136.367 984.788 Q135.579 986.686 133.473 989.278 Q132.894 989.95 129.792 993.167 Q126.691 996.362 121.043 1002.13 Z" fill="#000000" fill-rule="evenodd" fill-opacity="1" /><path clip-path="url(#clip180)" d="M157.177 974.579 Q153.566 974.579 151.737 978.144 Q149.931 981.686 149.931 988.816 Q149.931 995.922 151.737 999.487 Q153.566 1003.03 157.177 1003.03 Q160.811 1003.03 162.616 999.487 Q164.445 995.922 164.445 988.816 Q164.445 981.686 162.616 978.144 Q160.811 974.579 157.177 974.579 M157.177 970.876 Q162.987 970.876 166.042 975.482 Q169.121 980.066 169.121 988.816 Q169.121 997.542 166.042 1002.15 Q162.987 1006.73 157.177 1006.73 Q151.366 1006.73 148.288 1002.15 Q145.232 997.542 145.232 988.816 Q145.232 980.066 148.288 975.482 Q151.366 970.876 157.177 970.876 Z" fill="#000000" fill-rule="evenodd" fill-opacity="1" /><path clip-path="url(#clip180)" d="M187.338 974.579 Q183.727 974.579 181.899 978.144 Q180.093 981.686 180.093 988.816 Q180.093 995.922 181.899 999.487 Q183.727 1003.03 187.338 1003.03 Q190.973 1003.03 192.778 999.487 Q194.607 995.922 194.607 988.816 Q194.607 981.686 192.778 978.144 Q190.973 974.579 187.338 974.579 M187.338 970.876 Q193.149 970.876 196.204 975.482 Q199.283 980.066 199.283 988.816 Q199.283 997.542 196.204 1002.15 Q193.149 1006.73 187.338 1006.73 Q181.528 1006.73 178.45 1002.15 Q175.394 997.542 175.394 988.816 Q175.394 980.066 178.45 975.482 Q181.528 970.876 187.338 970.876 Z" fill="#000000" fill-rule="evenodd" fill-opacity="1" /><path clip-path="url(#clip180)" d="M217.5 974.579 Q213.889 974.579 212.061 978.144 Q210.255 981.686 210.255 988.816 Q210.255 995.922 212.061 999.487 Q213.889 1003.03 217.5 1003.03 Q221.135 1003.03 222.94 999.487 Q224.769 995.922 224.769 988.816 Q224.769 981.686 222.94 978.144 Q221.135 974.579 217.5 974.579 M217.5 970.876 Q223.31 970.876 226.366 975.482 Q229.445 980.066 229.445 988.816 Q229.445 997.542 226.366 1002.15 Q223.31 1006.73 217.5 1006.73 Q211.69 1006.73 208.612 1002.15 Q205.556 997.542 205.556 988.816 Q205.556 980.066 208.612 975.482 Q211.69 970.876 217.5 970.876 Z" fill="#000000" fill-rule="evenodd" fill-opacity="1" /><path clip-path="url(#clip180)" d="M131.181 794.461 Q134.538 795.178 136.413 797.447 Q138.311 799.715 138.311 803.049 Q138.311 808.164 134.792 810.965 Q131.274 813.766 124.793 813.766 Q122.617 813.766 120.302 813.326 Q118.01 812.91 115.556 812.053 L115.556 807.539 Q117.501 808.673 119.816 809.252 Q122.13 809.831 124.654 809.831 Q129.052 809.831 131.343 808.095 Q133.658 806.359 133.658 803.049 Q133.658 799.993 131.505 798.28 Q129.376 796.544 125.556 796.544 L121.529 796.544 L121.529 792.701 L125.742 792.701 Q129.191 792.701 131.019 791.336 Q132.848 789.947 132.848 787.354 Q132.848 784.692 130.95 783.28 Q129.075 781.845 125.556 781.845 Q123.635 781.845 121.436 782.262 Q119.237 782.678 116.598 783.558 L116.598 779.391 Q119.26 778.65 121.575 778.28 Q123.913 777.91 125.973 777.91 Q131.297 777.91 134.399 780.34 Q137.501 782.748 137.501 786.868 Q137.501 789.738 135.857 791.729 Q134.214 793.697 131.181 794.461 Z" fill="#000000" fill-rule="evenodd" fill-opacity="1" /><path clip-path="url(#clip180)" d="M157.177 781.613 Q153.566 781.613 151.737 785.178 Q149.931 788.72 149.931 795.849 Q149.931 802.956 151.737 806.521 Q153.566 810.062 157.177 810.062 Q160.811 810.062 162.616 806.521 Q164.445 802.956 164.445 795.849 Q164.445 788.72 162.616 785.178 Q160.811 781.613 157.177 781.613 M157.177 777.91 Q162.987 777.91 166.042 782.516 Q169.121 787.1 169.121 795.849 Q169.121 804.576 166.042 809.183 Q162.987 813.766 157.177 813.766 Q151.366 813.766 148.288 809.183 Q145.232 804.576 145.232 795.849 Q145.232 787.1 148.288 782.516 Q151.366 777.91 157.177 777.91 Z" fill="#000000" fill-rule="evenodd" fill-opacity="1" /><path clip-path="url(#clip180)" d="M187.338 781.613 Q183.727 781.613 181.899 785.178 Q180.093 788.72 180.093 795.849 Q180.093 802.956 181.899 806.521 Q183.727 810.062 187.338 810.062 Q190.973 810.062 192.778 806.521 Q194.607 802.956 194.607 795.849 Q194.607 788.72 192.778 785.178 Q190.973 781.613 187.338 781.613 M187.338 777.91 Q193.149 777.91 196.204 782.516 Q199.283 787.1 199.283 795.849 Q199.283 804.576 196.204 809.183 Q193.149 813.766 187.338 813.766 Q181.528 813.766 178.45 809.183 Q175.394 804.576 175.394 795.849 Q175.394 787.1 178.45 782.516 Q181.528 777.91 187.338 777.91 Z" fill="#000000" fill-rule="evenodd" fill-opacity="1" /><path clip-path="url(#clip180)" d="M217.5 781.613 Q213.889 781.613 212.061 785.178 Q210.255 788.72 210.255 795.849 Q210.255 802.956 212.061 806.521 Q213.889 810.062 217.5 810.062 Q221.135 810.062 222.94 806.521 Q224.769 802.956 224.769 795.849 Q224.769 788.72 222.94 785.178 Q221.135 781.613 217.5 781.613 M217.5 777.91 Q223.31 777.91 226.366 782.516 Q229.445 787.1 229.445 795.849 Q229.445 804.576 226.366 809.183 Q223.31 813.766 217.5 813.766 Q211.69 813.766 208.612 809.183 Q205.556 804.576 205.556 795.849 Q205.556 787.1 208.612 782.516 Q211.69 777.91 217.5 777.91 Z" fill="#000000" fill-rule="evenodd" fill-opacity="1" /><path clip-path="url(#clip180)" d="M129.862 589.643 L118.056 608.092 L129.862 608.092 L129.862 589.643 M128.635 585.569 L134.515 585.569 L134.515 608.092 L139.445 608.092 L139.445 611.981 L134.515 611.981 L134.515 620.129 L129.862 620.129 L129.862 611.981 L114.26 611.981 L114.26 607.467 L128.635 585.569 Z" fill="#000000" fill-rule="evenodd" fill-opacity="1" /><path clip-path="url(#clip180)" d="M157.177 588.647 Q153.566 588.647 151.737 592.212 Q149.931 595.754 149.931 602.883 Q149.931 609.99 151.737 613.555 Q153.566 617.096 157.177 617.096 Q160.811 617.096 162.616 613.555 Q164.445 609.99 164.445 602.883 Q164.445 595.754 162.616 592.212 Q160.811 588.647 157.177 588.647 M157.177 584.944 Q162.987 584.944 166.042 589.55 Q169.121 594.133 169.121 602.883 Q169.121 611.61 166.042 616.217 Q162.987 620.8 157.177 620.8 Q151.366 620.8 148.288 616.217 Q145.232 611.61 145.232 602.883 Q145.232 594.133 148.288 589.55 Q151.366 584.944 157.177 584.944 Z" fill="#000000" fill-rule="evenodd" fill-opacity="1" /><path clip-path="url(#clip180)" d="M187.338 588.647 Q183.727 588.647 181.899 592.212 Q180.093 595.754 180.093 602.883 Q180.093 609.99 181.899 613.555 Q183.727 617.096 187.338 617.096 Q190.973 617.096 192.778 613.555 Q194.607 609.99 194.607 602.883 Q194.607 595.754 192.778 592.212 Q190.973 588.647 187.338 588.647 M187.338 584.944 Q193.149 584.944 196.204 589.55 Q199.283 594.133 199.283 602.883 Q199.283 611.61 196.204 616.217 Q193.149 620.8 187.338 620.8 Q181.528 620.8 178.45 616.217 Q175.394 611.61 175.394 602.883 Q175.394 594.133 178.45 589.55 Q181.528 584.944 187.338 584.944 Z" fill="#000000" fill-rule="evenodd" fill-opacity="1" /><path clip-path="url(#clip180)" d="M217.5 588.647 Q213.889 588.647 212.061 592.212 Q210.255 595.754 210.255 602.883 Q210.255 609.99 212.061 613.555 Q213.889 617.096 217.5 617.096 Q221.135 617.096 222.94 613.555 Q224.769 609.99 224.769 602.883 Q224.769 595.754 222.94 592.212 Q221.135 588.647 217.5 588.647 M217.5 584.944 Q223.31 584.944 226.366 589.55 Q229.445 594.133 229.445 602.883 Q229.445 611.61 226.366 616.217 Q223.31 620.8 217.5 620.8 Q211.69 620.8 208.612 616.217 Q205.556 611.61 205.556 602.883 Q205.556 594.133 208.612 589.55 Q211.69 584.944 217.5 584.944 Z" fill="#000000" fill-rule="evenodd" fill-opacity="1" /><path clip-path="url(#clip180)" d="M117.061 392.603 L135.417 392.603 L135.417 396.538 L121.343 396.538 L121.343 405.01 Q122.362 404.663 123.38 404.501 Q124.399 404.316 125.418 404.316 Q131.205 404.316 134.584 407.487 Q137.964 410.658 137.964 416.075 Q137.964 421.653 134.492 424.755 Q131.019 427.834 124.7 427.834 Q122.524 427.834 120.255 427.464 Q118.01 427.093 115.603 426.352 L115.603 421.653 Q117.686 422.788 119.908 423.343 Q122.13 423.899 124.607 423.899 Q128.612 423.899 130.95 421.792 Q133.288 419.686 133.288 416.075 Q133.288 412.464 130.95 410.357 Q128.612 408.251 124.607 408.251 Q122.732 408.251 120.857 408.667 Q119.006 409.084 117.061 409.964 L117.061 392.603 Z" fill="#000000" fill-rule="evenodd" fill-opacity="1" /><path clip-path="url(#clip180)" d="M157.177 395.681 Q153.566 395.681 151.737 399.246 Q149.931 402.788 149.931 409.917 Q149.931 417.024 151.737 420.589 Q153.566 424.13 157.177 424.13 Q160.811 424.13 162.616 420.589 Q164.445 417.024 164.445 409.917 Q164.445 402.788 162.616 399.246 Q160.811 395.681 157.177 395.681 M157.177 391.978 Q162.987 391.978 166.042 396.584 Q169.121 401.167 169.121 409.917 Q169.121 418.644 166.042 423.251 Q162.987 427.834 157.177 427.834 Q151.366 427.834 148.288 423.251 Q145.232 418.644 145.232 409.917 Q145.232 401.167 148.288 396.584 Q151.366 391.978 157.177 391.978 Z" fill="#000000" fill-rule="evenodd" fill-opacity="1" /><path clip-path="url(#clip180)" d="M187.338 395.681 Q183.727 395.681 181.899 399.246 Q180.093 402.788 180.093 409.917 Q180.093 417.024 181.899 420.589 Q183.727 424.13 187.338 424.13 Q190.973 424.13 192.778 420.589 Q194.607 417.024 194.607 409.917 Q194.607 402.788 192.778 399.246 Q190.973 395.681 187.338 395.681 M187.338 391.978 Q193.149 391.978 196.204 396.584 Q199.283 401.167 199.283 409.917 Q199.283 418.644 196.204 423.251 Q193.149 427.834 187.338 427.834 Q181.528 427.834 178.45 423.251 Q175.394 418.644 175.394 409.917 Q175.394 401.167 178.45 396.584 Q181.528 391.978 187.338 391.978 Z" fill="#000000" fill-rule="evenodd" fill-opacity="1" /><path clip-path="url(#clip180)" d="M217.5 395.681 Q213.889 395.681 212.061 399.246 Q210.255 402.788 210.255 409.917 Q210.255 417.024 212.061 420.589 Q213.889 424.13 217.5 424.13 Q221.135 424.13 222.94 420.589 Q224.769 417.024 224.769 409.917 Q224.769 402.788 222.94 399.246 Q221.135 395.681 217.5 395.681 M217.5 391.978 Q223.31 391.978 226.366 396.584 Q229.445 401.167 229.445 409.917 Q229.445 418.644 226.366 423.251 Q223.31 427.834 217.5 427.834 Q211.69 427.834 208.612 423.251 Q205.556 418.644 205.556 409.917 Q205.556 401.167 208.612 396.584 Q211.69 391.978 217.5 391.978 Z" fill="#000000" fill-rule="evenodd" fill-opacity="1" /><path clip-path="url(#clip180)" d="M127.593 215.053 Q124.445 215.053 122.593 217.206 Q120.765 219.359 120.765 223.109 Q120.765 226.836 122.593 229.011 Q124.445 231.164 127.593 231.164 Q130.742 231.164 132.57 229.011 Q134.422 226.836 134.422 223.109 Q134.422 219.359 132.57 217.206 Q130.742 215.053 127.593 215.053 M136.876 200.401 L136.876 204.66 Q135.117 203.826 133.311 203.387 Q131.529 202.947 129.769 202.947 Q125.14 202.947 122.686 206.072 Q120.255 209.197 119.908 215.516 Q121.274 213.502 123.334 212.437 Q125.394 211.35 127.871 211.35 Q133.08 211.35 136.089 214.521 Q139.121 217.669 139.121 223.109 Q139.121 228.433 135.973 231.65 Q132.825 234.868 127.593 234.868 Q121.598 234.868 118.427 230.285 Q115.256 225.678 115.256 216.951 Q115.256 208.757 119.144 203.896 Q123.033 199.012 129.584 199.012 Q131.343 199.012 133.126 199.359 Q134.931 199.706 136.876 200.401 Z" fill="#000000" fill-rule="evenodd" fill-opacity="1" /><path clip-path="url(#clip180)" d="M157.177 202.715 Q153.566 202.715 151.737 206.28 Q149.931 209.822 149.931 216.951 Q149.931 224.058 151.737 227.623 Q153.566 231.164 157.177 231.164 Q160.811 231.164 162.616 227.623 Q164.445 224.058 164.445 216.951 Q164.445 209.822 162.616 206.28 Q160.811 202.715 157.177 202.715 M157.177 199.012 Q162.987 199.012 166.042 203.618 Q169.121 208.201 169.121 216.951 Q169.121 225.678 166.042 230.285 Q162.987 234.868 157.177 234.868 Q151.366 234.868 148.288 230.285 Q145.232 225.678 145.232 216.951 Q145.232 208.201 148.288 203.618 Q151.366 199.012 157.177 199.012 Z" fill="#000000" fill-rule="evenodd" fill-opacity="1" /><path clip-path="url(#clip180)" d="M187.338 202.715 Q183.727 202.715 181.899 206.28 Q180.093 209.822 180.093 216.951 Q180.093 224.058 181.899 227.623 Q183.727 231.164 187.338 231.164 Q190.973 231.164 192.778 227.623 Q194.607 224.058 194.607 216.951 Q194.607 209.822 192.778 206.28 Q190.973 202.715 187.338 202.715 M187.338 199.012 Q193.149 199.012 196.204 203.618 Q199.283 208.201 199.283 216.951 Q199.283 225.678 196.204 230.285 Q193.149 234.868 187.338 234.868 Q181.528 234.868 178.45 230.285 Q175.394 225.678 175.394 216.951 Q175.394 208.201 178.45 203.618 Q181.528 199.012 187.338 199.012 Z" fill="#000000" fill-rule="evenodd" fill-opacity="1" /><path clip-path="url(#clip180)" d="M217.5 202.715 Q213.889 202.715 212.061 206.28 Q210.255 209.822 210.255 216.951 Q210.255 224.058 212.061 227.623 Q213.889 231.164 217.5 231.164 Q221.135 231.164 222.94 227.623 Q224.769 224.058 224.769 216.951 Q224.769 209.822 222.94 206.28 Q221.135 202.715 217.5 202.715 M217.5 199.012 Q223.31 199.012 226.366 203.618 Q229.445 208.201 229.445 216.951 Q229.445 225.678 226.366 230.285 Q223.31 234.868 217.5 234.868 Q211.69 234.868 208.612 230.285 Q205.556 225.678 205.556 216.951 Q205.556 208.201 208.612 203.618 Q211.69 199.012 217.5 199.012 Z" fill="#000000" fill-rule="evenodd" fill-opacity="1" /><path clip-path="url(#clip180)" d="M46.212 1021.69 Q39.7508 1021.69 36.0905 1024.36 Q32.3984 1027 32.3984 1031.65 Q32.3984 1036.29 36.0905 1038.97 Q39.7508 1041.61 46.212 1041.61 Q52.6732 1041.61 56.3653 1038.97 Q60.0256 1036.29 60.0256 1031.65 Q60.0256 1027 56.3653 1024.36 Q52.6732 1021.69 46.212 1021.69 M33.7671 1041.61 Q30.5842 1039.76 29.0564 1036.96 Q27.4968 1034.13 27.4968 1030.22 Q27.4968 1023.72 32.6531 1019.68 Q37.8093 1015.61 46.212 1015.61 Q54.6147 1015.61 59.771 1019.68 Q64.9272 1023.72 64.9272 1030.22 Q64.9272 1034.13 63.3994 1036.96 Q61.8398 1039.76 58.657 1041.61 L64.0042 1041.61 L64.0042 1047.5 L14.479 1047.5 L14.479 1041.61 L33.7671 1041.61 Z" fill="#000000" fill-rule="evenodd" fill-opacity="1" /><path clip-path="url(#clip180)" d="M46.0847 989.698 Q46.0847 996.795 47.7079 999.533 Q49.3312 1002.27 53.2461 1002.27 Q56.3653 1002.27 58.2114 1000.23 Q60.0256 998.164 60.0256 994.631 Q60.0256 989.761 56.5881 986.833 Q53.1188 983.873 47.3897 983.873 L46.0847 983.873 L46.0847 989.698 M43.6657 978.017 L64.0042 978.017 L64.0042 983.873 L58.5933 983.873 Q61.8398 985.878 63.3994 988.87 Q64.9272 991.862 64.9272 996.191 Q64.9272 1001.67 61.8716 1004.91 Q58.7843 1008.13 53.6281 1008.13 Q47.6125 1008.13 44.5569 1004.12 Q41.5014 1000.07 41.5014 992.085 L41.5014 983.873 L40.9285 983.873 Q36.8862 983.873 34.6901 986.547 Q32.4621 989.188 32.4621 993.995 Q32.4621 997.05 33.1941 999.946 Q33.9262 1002.84 35.3903 1005.52 L29.9795 1005.52 Q28.7381 1002.3 28.1334 999.278 Q27.4968 996.254 27.4968 993.39 Q27.4968 985.655 31.5072 981.836 Q35.5176 978.017 43.6657 978.017 Z" fill="#000000" fill-rule="evenodd" fill-opacity="1" /><path clip-path="url(#clip180)" d="M42.4881 936.321 L64.0042 936.321 L64.0042 942.178 L42.679 942.178 Q37.6183 942.178 35.1038 944.151 Q32.5894 946.124 32.5894 950.071 Q32.5894 954.814 35.6131 957.551 Q38.6368 960.288 43.8567 960.288 L64.0042 960.288 L64.0042 966.176 L28.3562 966.176 L28.3562 960.288 L33.8944 960.288 Q30.6797 958.187 29.0883 955.355 Q27.4968 952.49 27.4968 948.766 Q27.4968 942.623 31.3163 939.472 Q35.1038 936.321 42.4881 936.321 Z" fill="#000000" fill-rule="evenodd" fill-opacity="1" /><path clip-path="url(#clip180)" d="M33.7671 901.183 L14.479 901.183 L14.479 895.326 L64.0042 895.326 L64.0042 901.183 L58.657 901.183 Q61.8398 903.029 63.3994 905.861 Q64.9272 908.662 64.9272 912.609 Q64.9272 919.07 59.771 923.144 Q54.6147 927.186 46.212 927.186 Q37.8093 927.186 32.6531 923.144 Q27.4968 919.07 27.4968 912.609 Q27.4968 908.662 29.0564 905.861 Q30.5842 903.029 33.7671 901.183 M46.212 921.139 Q52.6732 921.139 56.3653 918.497 Q60.0256 915.824 60.0256 911.177 Q60.0256 906.53 56.3653 903.856 Q52.6732 901.183 46.212 901.183 Q39.7508 901.183 36.0905 903.856 Q32.3984 906.53 32.3984 911.177 Q32.3984 915.824 36.0905 918.497 Q39.7508 921.139 46.212 921.139 Z" fill="#000000" fill-rule="evenodd" fill-opacity="1" /><path clip-path="url(#clip180)" d="M28.3562 886.669 L28.3562 880.812 L56.1743 873.492 L28.3562 866.203 L28.3562 859.296 L56.1743 851.976 L28.3562 844.687 L28.3562 838.83 L64.0042 848.156 L64.0042 855.063 L34.7856 862.734 L64.0042 870.436 L64.0042 877.343 L28.3562 886.669 Z" fill="#000000" fill-rule="evenodd" fill-opacity="1" /><path clip-path="url(#clip180)" d="M28.3562 829.95 L28.3562 824.094 L64.0042 824.094 L64.0042 829.95 L28.3562 829.95 M14.479 829.95 L14.479 824.094 L21.895 824.094 L21.895 829.95 L14.479 829.95 Z" fill="#000000" fill-rule="evenodd" fill-opacity="1" /><path clip-path="url(#clip180)" d="M33.7671 788.382 L14.479 788.382 L14.479 782.526 L64.0042 782.526 L64.0042 788.382 L58.657 788.382 Q61.8398 790.228 63.3994 793.061 Q64.9272 795.862 64.9272 799.809 Q64.9272 806.27 59.771 810.344 Q54.6147 814.386 46.212 814.386 Q37.8093 814.386 32.6531 810.344 Q27.4968 806.27 27.4968 799.809 Q27.4968 795.862 29.0564 793.061 Q30.5842 790.228 33.7671 788.382 M46.212 808.339 Q52.6732 808.339 56.3653 805.697 Q60.0256 803.023 60.0256 798.376 Q60.0256 793.729 56.3653 791.056 Q52.6732 788.382 46.212 788.382 Q39.7508 788.382 36.0905 791.056 Q32.3984 793.729 32.3984 798.376 Q32.3984 803.023 36.0905 805.697 Q39.7508 808.339 46.212 808.339 Z" fill="#000000" fill-rule="evenodd" fill-opacity="1" /><path clip-path="url(#clip180)" d="M18.2347 764.67 L28.3562 764.67 L28.3562 752.607 L32.9077 752.607 L32.9077 764.67 L52.2594 764.67 Q56.6199 764.67 57.8613 763.492 Q59.1026 762.283 59.1026 758.623 L59.1026 752.607 L64.0042 752.607 L64.0042 758.623 Q64.0042 765.402 61.4897 767.98 Q58.9434 770.558 52.2594 770.558 L32.9077 770.558 L32.9077 774.855 L28.3562 774.855 L28.3562 770.558 L18.2347 770.558 L18.2347 764.67 Z" fill="#000000" fill-rule="evenodd" fill-opacity="1" /><path clip-path="url(#clip180)" d="M42.4881 715.272 L64.0042 715.272 L64.0042 721.128 L42.679 721.128 Q37.6183 721.128 35.1038 723.102 Q32.5894 725.075 32.5894 729.022 Q32.5894 733.764 35.6131 736.502 Q38.6368 739.239 43.8567 739.239 L64.0042 739.239 L64.0042 745.127 L14.479 745.127 L14.479 739.239 L33.8944 739.239 Q30.6797 737.138 29.0883 734.306 Q27.4968 731.441 27.4968 727.717 Q27.4968 721.574 31.3163 718.423 Q35.1038 715.272 42.4881 715.272 Z" fill="#000000" fill-rule="evenodd" fill-opacity="1" /><path clip-path="url(#clip180)" d="M14.5426 668.802 Q21.8632 673.067 29.0246 675.136 Q36.186 677.205 43.5384 677.205 Q50.8908 677.205 58.1159 675.136 Q65.3091 673.036 72.5979 668.802 L72.5979 673.895 Q65.1182 678.669 57.8931 681.056 Q50.668 683.412 43.5384 683.412 Q36.4406 683.412 29.2474 681.056 Q22.0542 678.701 14.5426 673.895 L14.5426 668.802 Z" fill="#000000" fill-rule="evenodd" fill-opacity="1" /><path clip-path="url(#clip180)" d="M16.4842 657.185 L16.4842 647.605 L48.8219 635.478 L16.4842 623.288 L16.4842 613.707 L64.0042 613.707 L64.0042 619.977 L22.277 619.977 L54.8694 632.231 L54.8694 638.693 L22.277 650.947 L64.0042 650.947 L64.0042 657.185 L16.4842 657.185 Z" fill="#000000" fill-rule="evenodd" fill-opacity="1" /><path clip-path="url(#clip180)" d="M41.3104 594.515 L58.7206 594.515 L58.7206 584.202 Q58.7206 579.014 56.5881 576.531 Q54.4238 574.017 49.9996 574.017 Q45.5436 574.017 43.4429 576.531 Q41.3104 579.014 41.3104 584.202 L41.3104 594.515 M21.7677 594.515 L36.0905 594.515 L36.0905 584.998 Q36.0905 580.287 34.34 577.996 Q32.5576 575.672 28.9291 575.672 Q25.3325 575.672 23.5501 577.996 Q21.7677 580.287 21.7677 584.998 L21.7677 594.515 M16.4842 600.944 L16.4842 584.52 Q16.4842 577.168 19.5397 573.189 Q22.5952 569.211 28.2289 569.211 Q32.5894 569.211 35.1675 571.248 Q37.7456 573.285 38.3822 577.232 Q39.4007 572.489 42.6472 569.879 Q45.8619 567.238 50.6998 567.238 Q57.0655 567.238 60.5348 571.566 Q64.0042 575.895 64.0042 583.884 L64.0042 600.944 L16.4842 600.944 Z" fill="#000000" fill-rule="evenodd" fill-opacity="1" /><path clip-path="url(#clip180)" d="M16.4842 546.072 L16.4842 540.661 L70.0516 557.212 L70.0516 562.622 L16.4842 546.072 Z" fill="#000000" fill-rule="evenodd" fill-opacity="1" /><path clip-path="url(#clip180)" d="M29.4065 511.792 L34.9447 511.792 Q33.6716 514.275 33.035 516.948 Q32.3984 519.622 32.3984 522.487 Q32.3984 526.847 33.7352 529.043 Q35.072 531.208 37.7456 531.208 Q39.7826 531.208 40.9603 529.648 Q42.1061 528.088 43.1565 523.378 L43.6021 521.373 Q44.9389 515.134 47.3897 512.524 Q49.8086 509.883 54.1691 509.883 Q59.1344 509.883 62.0308 513.829 Q64.9272 517.744 64.9272 524.619 Q64.9272 527.484 64.3543 530.603 Q63.8132 533.69 62.6992 537.128 L56.6518 537.128 Q58.3387 533.881 59.198 530.73 Q60.0256 527.579 60.0256 524.492 Q60.0256 520.354 58.6251 518.126 Q57.1929 515.898 54.6147 515.898 Q52.2276 515.898 50.9545 517.521 Q49.6813 519.113 48.5037 524.555 L48.0262 526.593 Q46.8804 532.035 44.5251 534.454 Q42.138 536.873 38.0002 536.873 Q32.9713 536.873 30.2341 533.308 Q27.4968 529.744 27.4968 523.187 Q27.4968 519.94 27.9743 517.076 Q28.4517 514.211 29.4065 511.792 Z" fill="#000000" fill-rule="evenodd" fill-opacity="1" /><path clip-path="url(#clip180)" d="M14.5426 501.48 L14.5426 496.387 Q22.0542 491.613 29.2474 489.258 Q36.4406 486.87 43.5384 486.87 Q50.668 486.87 57.8931 489.258 Q65.1182 491.613 72.5979 496.387 L72.5979 501.48 Q65.3091 497.247 58.1159 495.178 Q50.8908 493.077 43.5384 493.077 Q36.186 493.077 29.0246 495.178 Q21.8632 497.247 14.5426 501.48 Z" fill="#000000" fill-rule="evenodd" fill-opacity="1" /><path clip-path="url(#clip180)" d="M904.05 27.2059 L911.504 27.2059 L911.504 72.576 L904.05 72.576 L904.05 27.2059 M904.05 9.54393 L911.504 9.54393 L911.504 18.9825 L904.05 18.9825 L904.05 9.54393 Z" fill="#000000" fill-rule="evenodd" fill-opacity="1" /><path clip-path="url(#clip180)" d="M964.814 45.1919 L964.814 72.576 L957.36 72.576 L957.36 45.4349 Q957.36 38.994 954.849 35.7938 Q952.337 32.5936 947.314 32.5936 Q941.278 32.5936 937.794 36.4419 Q934.311 40.2903 934.311 46.9338 L934.311 72.576 L926.816 72.576 L926.816 27.2059 L934.311 27.2059 L934.311 34.2544 Q936.984 30.163 940.59 28.1376 Q944.235 26.1121 948.975 26.1121 Q956.793 26.1121 960.804 30.9732 Q964.814 35.7938 964.814 45.1919 Z" fill="#000000" fill-rule="evenodd" fill-opacity="1" /><path clip-path="url(#clip180)" d="M987.053 14.324 L987.053 27.2059 L1002.41 27.2059 L1002.41 32.9987 L987.053 32.9987 L987.053 57.6282 Q987.053 63.1779 988.552 64.7578 Q990.092 66.3376 994.75 66.3376 L1002.41 66.3376 L1002.41 72.576 L994.75 72.576 Q986.122 72.576 982.84 69.3758 Q979.559 66.1351 979.559 57.6282 L979.559 32.9987 L974.091 32.9987 L974.091 27.2059 L979.559 27.2059 L979.559 14.324 L987.053 14.324 Z" fill="#000000" fill-rule="evenodd" fill-opacity="1" /><path clip-path="url(#clip180)" d="M1051.02 48.0275 L1051.02 51.6733 L1016.75 51.6733 Q1017.23 59.3701 1021.36 63.421 Q1025.54 67.4314 1032.95 67.4314 Q1037.24 67.4314 1041.25 66.3781 Q1045.31 65.3249 1049.28 63.2184 L1049.28 70.267 Q1045.26 71.9684 1041.05 72.8596 Q1036.84 73.7508 1032.5 73.7508 Q1021.65 73.7508 1015.29 67.4314 Q1008.97 61.1119 1008.97 50.3365 Q1008.97 39.1965 1014.96 32.6746 Q1021 26.1121 1031.21 26.1121 Q1040.36 26.1121 1045.67 32.0264 Q1051.02 37.9003 1051.02 48.0275 M1043.56 45.84 Q1043.48 39.7232 1040.12 36.0774 Q1036.8 32.4315 1031.29 32.4315 Q1025.05 32.4315 1021.28 35.9558 Q1017.56 39.4801 1016.99 45.8805 L1043.56 45.84 Z" fill="#000000" fill-rule="evenodd" fill-opacity="1" /><path clip-path="url(#clip180)" d="M1063.25 9.54393 L1070.7 9.54393 L1070.7 72.576 L1063.25 72.576 L1063.25 9.54393 Z" fill="#000000" fill-rule="evenodd" fill-opacity="1" /><path clip-path="url(#clip180)" d="M1115.14 65.6895 L1128.51 65.6895 L1128.51 19.5497 L1113.97 22.4663 L1113.97 15.0127 L1128.43 12.096 L1136.61 12.096 L1136.61 65.6895 L1149.98 65.6895 L1149.98 72.576 L1115.14 72.576 L1115.14 65.6895 Z" fill="#000000" fill-rule="evenodd" fill-opacity="1" /><path clip-path="url(#clip180)" d="M1184.01 43.8551 Q1178.18 43.8551 1174.81 46.9743 Q1171.49 50.0935 1171.49 55.5622 Q1171.49 61.0309 1174.81 64.1501 Q1178.18 67.2693 1184.01 67.2693 Q1189.84 67.2693 1193.2 64.1501 Q1196.57 60.9904 1196.57 55.5622 Q1196.57 50.0935 1193.2 46.9743 Q1189.88 43.8551 1184.01 43.8551 M1175.83 40.3713 Q1170.56 39.075 1167.6 35.4697 Q1164.69 31.8644 1164.69 26.6793 Q1164.69 19.4281 1169.83 15.2152 Q1175.02 11.0023 1184.01 11.0023 Q1193.04 11.0023 1198.19 15.2152 Q1203.33 19.4281 1203.33 26.6793 Q1203.33 31.8644 1200.37 35.4697 Q1197.46 39.075 1192.23 40.3713 Q1198.15 41.7486 1201.43 45.759 Q1204.75 49.7694 1204.75 55.5622 Q1204.75 64.3527 1199.36 69.0517 Q1194.01 73.7508 1184.01 73.7508 Q1174 73.7508 1168.61 69.0517 Q1163.27 64.3527 1163.27 55.5622 Q1163.27 49.7694 1166.59 45.759 Q1169.91 41.7486 1175.83 40.3713 M1172.83 27.4489 Q1172.83 32.148 1175.74 34.7811 Q1178.7 37.4142 1184.01 37.4142 Q1189.27 37.4142 1192.23 34.7811 Q1195.23 32.148 1195.23 27.4489 Q1195.23 22.7499 1192.23 20.1168 Q1189.27 17.4837 1184.01 17.4837 Q1178.7 17.4837 1175.74 20.1168 Q1172.83 22.7499 1172.83 27.4489 Z" fill="#000000" fill-rule="evenodd" fill-opacity="1" /><path clip-path="url(#clip180)" d="M1219.29 62.2867 L1227.84 62.2867 L1227.84 72.576 L1219.29 72.576 L1219.29 62.2867 Z" fill="#000000" fill-rule="evenodd" fill-opacity="1" /><path clip-path="url(#clip180)" d="M1263.16 17.4837 Q1256.84 17.4837 1253.64 23.7221 Q1250.48 29.92 1250.48 42.3968 Q1250.48 54.833 1253.64 61.0714 Q1256.84 67.2693 1263.16 67.2693 Q1269.52 67.2693 1272.68 61.0714 Q1275.88 54.833 1275.88 42.3968 Q1275.88 29.92 1272.68 23.7221 Q1269.52 17.4837 1263.16 17.4837 M1263.16 11.0023 Q1273.33 11.0023 1278.68 19.0636 Q1284.07 27.0843 1284.07 42.3968 Q1284.07 57.6687 1278.68 65.73 Q1273.33 73.7508 1263.16 73.7508 Q1253 73.7508 1247.61 65.73 Q1242.26 57.6687 1242.26 42.3968 Q1242.26 27.0843 1247.61 19.0636 Q1253 11.0023 1263.16 11.0023 Z" fill="#000000" fill-rule="evenodd" fill-opacity="1" /><path clip-path="url(#clip180)" d="M1320.93 19.2256 L1300.27 51.5113 L1320.93 51.5113 L1320.93 19.2256 M1318.78 12.096 L1329.07 12.096 L1329.07 51.5113 L1337.7 51.5113 L1337.7 58.3168 L1329.07 58.3168 L1329.07 72.576 L1320.93 72.576 L1320.93 58.3168 L1293.63 58.3168 L1293.63 50.4176 L1318.78 12.096 Z" fill="#000000" fill-rule="evenodd" fill-opacity="1" /><path clip-path="url(#clip180)" d="M1363.42 12.096 L1370.31 12.096 L1349.24 80.2727 L1342.36 80.2727 L1363.42 12.096 Z" fill="#000000" fill-rule="evenodd" fill-opacity="1" /><path clip-path="url(#clip180)" d="M1378.45 12.096 L1390.65 12.096 L1406.08 53.2532 L1421.59 12.096 L1433.79 12.096 L1433.79 72.576 L1425.81 72.576 L1425.81 19.4686 L1410.21 60.9499 L1401.99 60.9499 L1386.39 19.4686 L1386.39 72.576 L1378.45 72.576 L1378.45 12.096 Z" fill="#000000" fill-rule="evenodd" fill-opacity="1" /><path clip-path="url(#clip180)" d="M1458.21 18.8205 L1458.21 41.5461 L1468.5 41.5461 Q1474.22 41.5461 1477.33 38.5889 Q1480.45 35.6318 1480.45 30.163 Q1480.45 24.7348 1477.33 21.7777 Q1474.22 18.8205 1468.5 18.8205 L1458.21 18.8205 M1450.03 12.096 L1468.5 12.096 Q1478.67 12.096 1483.86 16.714 Q1489.08 21.2916 1489.08 30.163 Q1489.08 39.1155 1483.86 43.6931 Q1478.67 48.2706 1468.5 48.2706 L1458.21 48.2706 L1458.21 72.576 L1450.03 72.576 L1450.03 12.096 Z" fill="#000000" fill-rule="evenodd" fill-opacity="1" /><path clip-path="url(#clip180)" d="M1500.06 12.096 L1508.24 12.096 L1508.24 72.576 L1500.06 72.576 L1500.06 12.096 Z" fill="#000000" fill-rule="evenodd" fill-opacity="1" /><path clip-path="url(#clip180)" d="M1580.92 20.5624 L1580.92 43.1259 L1603.48 43.1259 L1603.48 50.0125 L1580.92 50.0125 L1580.92 72.576 L1574.11 72.576 L1574.11 50.0125 L1551.55 50.0125 L1551.55 43.1259 L1574.11 43.1259 L1574.11 20.5624 L1580.92 20.5624 Z" fill="#000000" fill-rule="evenodd" fill-opacity="1" /><path clip-path="url(#clip180)" d="M1646.78 12.096 L1654.97 12.096 L1654.97 72.576 L1646.78 72.576 L1646.78 12.096 Z" fill="#000000" fill-rule="evenodd" fill-opacity="1" /><path clip-path="url(#clip180)" d="M1679.43 43.6931 L1679.43 65.8515 L1692.56 65.8515 Q1699.16 65.8515 1702.32 63.1374 Q1705.52 60.3828 1705.52 54.752 Q1705.52 49.0808 1702.32 46.4072 Q1699.16 43.6931 1692.56 43.6931 L1679.43 43.6931 M1679.43 18.8205 L1679.43 37.0496 L1691.55 37.0496 Q1697.54 37.0496 1700.46 34.8216 Q1703.42 32.5531 1703.42 27.935 Q1703.42 23.3575 1700.46 21.089 Q1697.54 18.8205 1691.55 18.8205 L1679.43 18.8205 M1671.25 12.096 L1692.15 12.096 Q1701.51 12.096 1706.58 15.9849 Q1711.64 19.8737 1711.64 27.0438 Q1711.64 32.5936 1709.05 35.8748 Q1706.45 39.156 1701.43 39.9662 Q1707.47 41.2625 1710.79 45.3944 Q1714.15 49.4858 1714.15 55.6432 Q1714.15 63.745 1708.64 68.1605 Q1703.13 72.576 1692.96 72.576 L1671.25 72.576 L1671.25 12.096 Z" fill="#000000" fill-rule="evenodd" fill-opacity="1" /><polyline clip-path="url(#clip182)" style="stroke:#000000; stroke-linecap:butt; stroke-linejoin:round; stroke-width:4; stroke-opacity:1; fill:none" points="
  324.52,1374.46 414.027,1374.14 503.534,1373.55 593.042,1372.37 682.549,1369.97 772.056,1365.27 861.564,1356.76 951.071,1339.55 1040.58,1304.69 1130.09,1239.44 
  1219.59,1113.6 1309.1,911.22 1398.61,610.004 1488.11,349.05 1577.62,293.875 1667.13,256.233 1756.64,220.054 1846.14,194.031 1935.65,189.077 2025.16,194.643 
  2114.67,176.606 2204.17,165.613 2293.68,159.909 
  "/>
<circle clip-path="url(#clip182)" cx="324.52" cy="1374.46" r="14" fill="#ff0000" fill-rule="evenodd" fill-opacity="1" stroke="#000000" stroke-opacity="1" stroke-width="3.2"/>
<circle clip-path="url(#clip182)" cx="414.027" cy="1374.14" r="14" fill="#ff0000" fill-rule="evenodd" fill-opacity="1" stroke="#000000" stroke-opacity="1" stroke-width="3.2"/>
<circle clip-path="url(#clip182)" cx="503.534" cy="1373.55" r="14" fill="#ff0000" fill-rule="evenodd" fill-opacity="1" stroke="#000000" stroke-opacity="1" stroke-width="3.2"/>
<circle clip-path="url(#clip182)" cx="593.042" cy="1372.37" r="14" fill="#ff0000" fill-rule="evenodd" fill-opacity="1" stroke="#000000" stroke-opacity="1" stroke-width="3.2"/>
<circle clip-path="url(#clip182)" cx="682.549" cy="1369.97" r="14" fill="#ff0000" fill-rule="evenodd" fill-opacity="1" stroke="#000000" stroke-opacity="1" stroke-width="3.2"/>
<circle clip-path="url(#clip182)" cx="772.056" cy="1365.27" r="14" fill="#ff0000" fill-rule="evenodd" fill-opacity="1" stroke="#000000" stroke-opacity="1" stroke-width="3.2"/>
<circle clip-path="url(#clip182)" cx="861.564" cy="1356.76" r="14" fill="#ff0000" fill-rule="evenodd" fill-opacity="1" stroke="#000000" stroke-opacity="1" stroke-width="3.2"/>
<circle clip-path="url(#clip182)" cx="951.071" cy="1339.55" r="14" fill="#ff0000" fill-rule="evenodd" fill-opacity="1" stroke="#000000" stroke-opacity="1" stroke-width="3.2"/>
<circle clip-path="url(#clip182)" cx="1040.58" cy="1304.69" r="14" fill="#ff0000" fill-rule="evenodd" fill-opacity="1" stroke="#000000" stroke-opacity="1" stroke-width="3.2"/>
<circle clip-path="url(#clip182)" cx="1130.09" cy="1239.44" r="14" fill="#ff0000" fill-rule="evenodd" fill-opacity="1" stroke="#000000" stroke-opacity="1" stroke-width="3.2"/>
<circle clip-path="url(#clip182)" cx="1219.59" cy="1113.6" r="14" fill="#ff0000" fill-rule="evenodd" fill-opacity="1" stroke="#000000" stroke-opacity="1" stroke-width="3.2"/>
<circle clip-path="url(#clip182)" cx="1309.1" cy="911.22" r="14" fill="#ff0000" fill-rule="evenodd" fill-opacity="1" stroke="#000000" stroke-opacity="1" stroke-width="3.2"/>
<circle clip-path="url(#clip182)" cx="1398.61" cy="610.004" r="14" fill="#ff0000" fill-rule="evenodd" fill-opacity="1" stroke="#000000" stroke-opacity="1" stroke-width="3.2"/>
<circle clip-path="url(#clip182)" cx="1488.11" cy="349.05" r="14" fill="#ff0000" fill-rule="evenodd" fill-opacity="1" stroke="#000000" stroke-opacity="1" stroke-width="3.2"/>
<circle clip-path="url(#clip182)" cx="1577.62" cy="293.875" r="14" fill="#ff0000" fill-rule="evenodd" fill-opacity="1" stroke="#000000" stroke-opacity="1" stroke-width="3.2"/>
<circle clip-path="url(#clip182)" cx="1667.13" cy="256.233" r="14" fill="#ff0000" fill-rule="evenodd" fill-opacity="1" stroke="#000000" stroke-opacity="1" stroke-width="3.2"/>
<circle clip-path="url(#clip182)" cx="1756.64" cy="220.054" r="14" fill="#ff0000" fill-rule="evenodd" fill-opacity="1" stroke="#000000" stroke-opacity="1" stroke-width="3.2"/>
<circle clip-path="url(#clip182)" cx="1846.14" cy="194.031" r="14" fill="#ff0000" fill-rule="evenodd" fill-opacity="1" stroke="#000000" stroke-opacity="1" stroke-width="3.2"/>
<circle clip-path="url(#clip182)" cx="1935.65" cy="189.077" r="14" fill="#ff0000" fill-rule="evenodd" fill-opacity="1" stroke="#000000" stroke-opacity="1" stroke-width="3.2"/>
<circle clip-path="url(#clip182)" cx="2025.16" cy="194.643" r="14" fill="#ff0000" fill-rule="evenodd" fill-opacity="1" stroke="#000000" stroke-opacity="1" stroke-width="3.2"/>
<circle clip-path="url(#clip182)" cx="2114.67" cy="176.606" r="14" fill="#ff0000" fill-rule="evenodd" fill-opacity="1" stroke="#000000" stroke-opacity="1" stroke-width="3.2"/>
<circle clip-path="url(#clip182)" cx="2204.17" cy="165.613" r="14" fill="#ff0000" fill-rule="evenodd" fill-opacity="1" stroke="#000000" stroke-opacity="1" stroke-width="3.2"/>
<circle clip-path="url(#clip182)" cx="2293.68" cy="159.909" r="14" fill="#ff0000" fill-rule="evenodd" fill-opacity="1" stroke="#000000" stroke-opacity="1" stroke-width="3.2"/>
</svg>
