<?xml version="1.0" encoding="utf-8"?>
<svg xmlns="http://www.w3.org/2000/svg" xmlns:xlink="http://www.w3.org/1999/xlink" width="600" height="400" viewBox="0 0 2400 1600">
<defs>
  <clipPath id="clip990">
    <rect x="0" y="0" width="2400" height="1600"/>
  </clipPath>
</defs>
<path clip-path="url(#clip990)" d="
M0 1600 L2400 1600 L2400 0 L0 0  Z
  " fill="#ffffff" fill-rule="evenodd" fill-opacity="1"/>
<defs>
  <clipPath id="clip991">
    <rect x="480" y="0" width="1681" height="1600"/>
  </clipPath>
</defs>
<path clip-path="url(#clip990)" d="
M251.372 1410.9 L2352.76 1410.9 L2352.76 123.472 L251.372 123.472  Z
  " fill="#ffffff" fill-rule="evenodd" fill-opacity="1"/>
<defs>
  <clipPath id="clip992">
    <rect x="251" y="123" width="2102" height="1288"/>
  </clipPath>
</defs>
<polyline clip-path="url(#clip992)" style="stroke:#000000; stroke-linecap:butt; stroke-linejoin:round; stroke-width:2; stroke-opacity:0.1; fill:none" points="
  310.845,1410.9 310.845,123.472 
  "/>
<polyline clip-path="url(#clip992)" style="stroke:#000000; stroke-linecap:butt; stroke-linejoin:round; stroke-width:2; stroke-opacity:0.1; fill:none" points="
  610.187,1410.9 610.187,123.472 
  "/>
<polyline clip-path="url(#clip992)" style="stroke:#000000; stroke-linecap:butt; stroke-linejoin:round; stroke-width:2; stroke-opacity:0.1; fill:none" points="
  909.528,1410.9 909.528,123.472 
  "/>
<polyline clip-path="url(#clip992)" style="stroke:#000000; stroke-linecap:butt; stroke-linejoin:round; stroke-width:2; stroke-opacity:0.1; fill:none" points="
  1208.87,1410.9 1208.87,123.472 
  "/>
<polyline clip-path="url(#clip992)" style="stroke:#000000; stroke-linecap:butt; stroke-linejoin:round; stroke-width:2; stroke-opacity:0.1; fill:none" points="
  1508.21,1410.9 1508.21,123.472 
  "/>
<polyline clip-path="url(#clip992)" style="stroke:#000000; stroke-linecap:butt; stroke-linejoin:round; stroke-width:2; stroke-opacity:0.1; fill:none" points="
  1807.55,1410.9 1807.55,123.472 
  "/>
<polyline clip-path="url(#clip992)" style="stroke:#000000; stroke-linecap:butt; stroke-linejoin:round; stroke-width:2; stroke-opacity:0.1; fill:none" points="
  2106.89,1410.9 2106.89,123.472 
  "/>
<polyline clip-path="url(#clip990)" style="stroke:#000000; stroke-linecap:butt; stroke-linejoin:round; stroke-width:4; stroke-opacity:1; fill:none" points="
  251.372,1410.9 2352.76,1410.9 
  "/>
<polyline clip-path="url(#clip990)" style="stroke:#000000; stroke-linecap:butt; stroke-linejoin:round; stroke-width:4; stroke-opacity:1; fill:none" points="
  310.845,1410.9 310.845,1392 
  "/>
<polyline clip-path="url(#clip990)" style="stroke:#000000; stroke-linecap:butt; stroke-linejoin:round; stroke-width:4; stroke-opacity:1; fill:none" points="
  610.187,1410.9 610.187,1392 
  "/>
<polyline clip-path="url(#clip990)" style="stroke:#000000; stroke-linecap:butt; stroke-linejoin:round; stroke-width:4; stroke-opacity:1; fill:none" points="
  909.528,1410.9 909.528,1392 
  "/>
<polyline clip-path="url(#clip990)" style="stroke:#000000; stroke-linecap:butt; stroke-linejoin:round; stroke-width:4; stroke-opacity:1; fill:none" points="
  1208.87,1410.9 1208.87,1392 
  "/>
<polyline clip-path="url(#clip990)" style="stroke:#000000; stroke-linecap:butt; stroke-linejoin:round; stroke-width:4; stroke-opacity:1; fill:none" points="
  1508.21,1410.9 1508.21,1392 
  "/>
<polyline clip-path="url(#clip990)" style="stroke:#000000; stroke-linecap:butt; stroke-linejoin:round; stroke-width:4; stroke-opacity:1; fill:none" points="
  1807.55,1410.9 1807.55,1392 
  "/>
<polyline clip-path="url(#clip990)" style="stroke:#000000; stroke-linecap:butt; stroke-linejoin:round; stroke-width:4; stroke-opacity:1; fill:none" points="
  2106.89,1410.9 2106.89,1392 
  "/>
<path clip-path="url(#clip990)" d="M275.828 1485.02 L283.467 1485.02 L283.467 1458.66 L275.157 1460.32 L275.157 1456.06 L283.421 1454.4 L288.097 1454.4 L288.097 1485.02 L295.735 1485.02 L295.735 1488.96 L275.828 1488.96 L275.828 1485.02 Z" fill="#000000" fill-rule="evenodd" fill-opacity="1" /><path clip-path="url(#clip990)" d="M315.18 1457.48 Q311.569 1457.48 309.74 1461.04 Q307.934 1464.58 307.934 1471.71 Q307.934 1478.82 309.74 1482.38 Q311.569 1485.92 315.18 1485.92 Q318.814 1485.92 320.62 1482.38 Q322.448 1478.82 322.448 1471.71 Q322.448 1464.58 320.62 1461.04 Q318.814 1457.48 315.18 1457.48 M315.18 1453.77 Q320.99 1453.77 324.045 1458.38 Q327.124 1462.96 327.124 1471.71 Q327.124 1480.44 324.045 1485.04 Q320.99 1489.63 315.18 1489.63 Q309.37 1489.63 306.291 1485.04 Q303.235 1480.44 303.235 1471.71 Q303.235 1462.96 306.291 1458.38 Q309.37 1453.77 315.18 1453.77 Z" fill="#000000" fill-rule="evenodd" fill-opacity="1" /><path clip-path="url(#clip990)" d="M336.829 1435.97 Q333.895 1435.97 332.409 1438.86 Q330.942 1441.74 330.942 1447.53 Q330.942 1453.31 332.409 1456.2 Q333.895 1459.08 336.829 1459.08 Q339.782 1459.08 341.249 1456.2 Q342.735 1453.31 342.735 1447.53 Q342.735 1441.74 341.249 1438.86 Q339.782 1435.97 336.829 1435.97 M336.829 1432.96 Q341.55 1432.96 344.032 1436.7 Q346.534 1440.43 346.534 1447.53 Q346.534 1454.62 344.032 1458.37 Q341.55 1462.09 336.829 1462.09 Q332.108 1462.09 329.607 1458.37 Q327.124 1454.62 327.124 1447.53 Q327.124 1440.43 329.607 1436.7 Q332.108 1432.96 336.829 1432.96 Z" fill="#000000" fill-rule="evenodd" fill-opacity="1" /><path clip-path="url(#clip990)" d="M576.514 1485.02 L584.153 1485.02 L584.153 1458.66 L575.843 1460.32 L575.843 1456.06 L584.107 1454.4 L588.783 1454.4 L588.783 1485.02 L596.422 1485.02 L596.422 1488.96 L576.514 1488.96 L576.514 1485.02 Z" fill="#000000" fill-rule="evenodd" fill-opacity="1" /><path clip-path="url(#clip990)" d="M615.866 1457.48 Q612.255 1457.48 610.426 1461.04 Q608.621 1464.58 608.621 1471.71 Q608.621 1478.82 610.426 1482.38 Q612.255 1485.92 615.866 1485.92 Q619.5 1485.92 621.306 1482.38 Q623.135 1478.82 623.135 1471.71 Q623.135 1464.58 621.306 1461.04 Q619.5 1457.48 615.866 1457.48 M615.866 1453.77 Q621.676 1453.77 624.732 1458.38 Q627.81 1462.96 627.81 1471.71 Q627.81 1480.44 624.732 1485.04 Q621.676 1489.63 615.866 1489.63 Q610.056 1489.63 606.977 1485.04 Q603.922 1480.44 603.922 1471.71 Q603.922 1462.96 606.977 1458.38 Q610.056 1453.77 615.866 1453.77 Z" fill="#000000" fill-rule="evenodd" fill-opacity="1" /><path clip-path="url(#clip990)" d="M628.356 1458.35 L634.562 1458.35 L634.562 1436.93 L627.81 1438.28 L627.81 1434.82 L634.525 1433.47 L638.324 1433.47 L638.324 1458.35 L644.531 1458.35 L644.531 1461.55 L628.356 1461.55 L628.356 1458.35 Z" fill="#000000" fill-rule="evenodd" fill-opacity="1" /><path clip-path="url(#clip990)" d="M875.301 1485.02 L882.94 1485.02 L882.94 1458.66 L874.63 1460.32 L874.63 1456.06 L882.894 1454.4 L887.57 1454.4 L887.57 1485.02 L895.209 1485.02 L895.209 1488.96 L875.301 1488.96 L875.301 1485.02 Z" fill="#000000" fill-rule="evenodd" fill-opacity="1" /><path clip-path="url(#clip990)" d="M914.653 1457.48 Q911.042 1457.48 909.213 1461.04 Q907.408 1464.58 907.408 1471.71 Q907.408 1478.82 909.213 1482.38 Q911.042 1485.92 914.653 1485.92 Q918.287 1485.92 920.093 1482.38 Q921.921 1478.82 921.921 1471.71 Q921.921 1464.58 920.093 1461.04 Q918.287 1457.48 914.653 1457.48 M914.653 1453.77 Q920.463 1453.77 923.519 1458.38 Q926.597 1462.96 926.597 1471.71 Q926.597 1480.44 923.519 1485.04 Q920.463 1489.63 914.653 1489.63 Q908.843 1489.63 905.764 1485.04 Q902.708 1480.44 902.708 1471.71 Q902.708 1462.96 905.764 1458.38 Q908.843 1453.77 914.653 1453.77 Z" fill="#000000" fill-rule="evenodd" fill-opacity="1" /><path clip-path="url(#clip990)" d="M931.168 1458.35 L944.427 1458.35 L944.427 1461.55 L926.597 1461.55 L926.597 1458.35 Q928.76 1456.11 932.484 1452.35 Q936.227 1448.57 937.186 1447.48 Q939.01 1445.43 939.725 1444.02 Q940.459 1442.59 940.459 1441.22 Q940.459 1438.98 938.879 1437.57 Q937.318 1436.16 934.797 1436.16 Q933.011 1436.16 931.017 1436.78 Q929.042 1437.4 926.785 1438.66 L926.785 1434.82 Q929.08 1433.9 931.073 1433.43 Q933.067 1432.96 934.722 1432.96 Q939.086 1432.96 941.681 1435.14 Q944.277 1437.32 944.277 1440.97 Q944.277 1442.7 943.618 1444.26 Q942.979 1445.8 941.267 1447.91 Q940.797 1448.46 938.277 1451.07 Q935.757 1453.67 931.168 1458.35 Z" fill="#000000" fill-rule="evenodd" fill-opacity="1" /><path clip-path="url(#clip990)" d="M1174.31 1485.02 L1181.95 1485.02 L1181.95 1458.66 L1173.64 1460.32 L1173.64 1456.06 L1181.91 1454.4 L1186.58 1454.4 L1186.58 1485.02 L1194.22 1485.02 L1194.22 1488.96 L1174.31 1488.96 L1174.31 1485.02 Z" fill="#000000" fill-rule="evenodd" fill-opacity="1" /><path clip-path="url(#clip990)" d="M1213.67 1457.48 Q1210.05 1457.48 1208.23 1461.04 Q1206.42 1464.58 1206.42 1471.71 Q1206.42 1478.82 1208.23 1482.38 Q1210.05 1485.92 1213.67 1485.92 Q1217.3 1485.92 1219.11 1482.38 Q1220.93 1478.82 1220.93 1471.71 Q1220.93 1464.58 1219.11 1461.04 Q1217.3 1457.48 1213.67 1457.48 M1213.67 1453.77 Q1219.48 1453.77 1222.53 1458.38 Q1225.61 1462.96 1225.61 1471.71 Q1225.61 1480.44 1222.53 1485.04 Q1219.48 1489.63 1213.67 1489.63 Q1207.86 1489.63 1204.78 1485.04 Q1201.72 1480.44 1201.72 1471.71 Q1201.72 1462.96 1204.78 1458.38 Q1207.86 1453.77 1213.67 1453.77 Z" fill="#000000" fill-rule="evenodd" fill-opacity="1" /><path clip-path="url(#clip990)" d="M1238.3 1446.41 Q1241.03 1446.99 1242.56 1448.83 Q1244.1 1450.68 1244.1 1453.38 Q1244.1 1457.54 1241.24 1459.82 Q1238.38 1462.09 1233.11 1462.09 Q1231.35 1462.09 1229.47 1461.73 Q1227.6 1461.4 1225.61 1460.7 L1225.61 1457.03 Q1227.19 1457.95 1229.07 1458.42 Q1230.95 1458.89 1233 1458.89 Q1236.57 1458.89 1238.44 1457.48 Q1240.32 1456.07 1240.32 1453.38 Q1240.32 1450.9 1238.57 1449.51 Q1236.84 1448.1 1233.73 1448.1 L1230.46 1448.1 L1230.46 1444.98 L1233.89 1444.98 Q1236.69 1444.98 1238.17 1443.87 Q1239.66 1442.74 1239.66 1440.63 Q1239.66 1438.47 1238.12 1437.32 Q1236.59 1436.16 1233.73 1436.16 Q1232.17 1436.16 1230.39 1436.49 Q1228.6 1436.83 1226.46 1437.55 L1226.46 1434.16 Q1228.62 1433.56 1230.5 1433.26 Q1232.4 1432.96 1234.07 1432.96 Q1238.4 1432.96 1240.92 1434.93 Q1243.44 1436.89 1243.44 1440.24 Q1243.44 1442.57 1242.1 1444.19 Q1240.77 1445.79 1238.3 1446.41 Z" fill="#000000" fill-rule="evenodd" fill-opacity="1" /><path clip-path="url(#clip990)" d="M1472.67 1485.02 L1480.31 1485.02 L1480.31 1458.66 L1472 1460.32 L1472 1456.06 L1480.26 1454.4 L1484.94 1454.4 L1484.94 1485.02 L1492.58 1485.02 L1492.58 1488.96 L1472.67 1488.96 L1472.67 1485.02 Z" fill="#000000" fill-rule="evenodd" fill-opacity="1" /><path clip-path="url(#clip990)" d="M1512.02 1457.48 Q1508.41 1457.48 1506.58 1461.04 Q1504.77 1464.58 1504.77 1471.71 Q1504.77 1478.82 1506.58 1482.38 Q1508.41 1485.92 1512.02 1485.92 Q1515.65 1485.92 1517.46 1482.38 Q1519.29 1478.82 1519.29 1471.71 Q1519.29 1464.58 1517.46 1461.04 Q1515.65 1457.48 1512.02 1457.48 M1512.02 1453.77 Q1517.83 1453.77 1520.89 1458.38 Q1523.96 1462.96 1523.96 1471.71 Q1523.96 1480.44 1520.89 1485.04 Q1517.83 1489.63 1512.02 1489.63 Q1506.21 1489.63 1503.13 1485.04 Q1500.08 1480.44 1500.08 1471.71 Q1500.08 1462.96 1503.13 1458.38 Q1506.21 1453.77 1512.02 1453.77 Z" fill="#000000" fill-rule="evenodd" fill-opacity="1" /><path clip-path="url(#clip990)" d="M1536.64 1436.78 L1527.05 1451.77 L1536.64 1451.77 L1536.64 1436.78 M1535.64 1433.47 L1540.42 1433.47 L1540.42 1451.77 L1544.43 1451.77 L1544.43 1454.93 L1540.42 1454.93 L1540.42 1461.55 L1536.64 1461.55 L1536.64 1454.93 L1523.96 1454.93 L1523.96 1451.26 L1535.64 1433.47 Z" fill="#000000" fill-rule="evenodd" fill-opacity="1" /><path clip-path="url(#clip990)" d="M1773.16 1485.02 L1780.8 1485.02 L1780.8 1458.66 L1772.49 1460.32 L1772.49 1456.06 L1780.75 1454.4 L1785.43 1454.4 L1785.43 1485.02 L1793.06 1485.02 L1793.06 1488.96 L1773.16 1488.96 L1773.16 1485.02 Z" fill="#000000" fill-rule="evenodd" fill-opacity="1" /><path clip-path="url(#clip990)" d="M1812.51 1457.48 Q1808.9 1457.48 1807.07 1461.04 Q1805.26 1464.58 1805.26 1471.71 Q1805.26 1478.82 1807.07 1482.38 Q1808.9 1485.92 1812.51 1485.92 Q1816.14 1485.92 1817.95 1482.38 Q1819.78 1478.82 1819.78 1471.71 Q1819.78 1464.58 1817.95 1461.04 Q1816.14 1457.48 1812.51 1457.48 M1812.51 1453.77 Q1818.32 1453.77 1821.37 1458.38 Q1824.45 1462.96 1824.45 1471.71 Q1824.45 1480.44 1821.37 1485.04 Q1818.32 1489.63 1812.51 1489.63 Q1806.7 1489.63 1803.62 1485.04 Q1800.56 1480.44 1800.56 1471.71 Q1800.56 1462.96 1803.62 1458.38 Q1806.7 1453.77 1812.51 1453.77 Z" fill="#000000" fill-rule="evenodd" fill-opacity="1" /><path clip-path="url(#clip990)" d="M1825.64 1433.47 L1840.55 1433.47 L1840.55 1436.66 L1829.12 1436.66 L1829.12 1443.55 Q1829.94 1443.27 1830.77 1443.13 Q1831.6 1442.98 1832.43 1442.98 Q1837.13 1442.98 1839.88 1445.56 Q1842.62 1448.14 1842.62 1452.54 Q1842.62 1457.07 1839.8 1459.59 Q1836.98 1462.09 1831.84 1462.09 Q1830.08 1462.09 1828.23 1461.79 Q1826.41 1461.49 1824.45 1460.89 L1824.45 1457.07 Q1826.15 1457.99 1827.95 1458.44 Q1829.76 1458.89 1831.77 1458.89 Q1835.02 1458.89 1836.92 1457.18 Q1838.82 1455.47 1838.82 1452.54 Q1838.82 1449.6 1836.92 1447.89 Q1835.02 1446.18 1831.77 1446.18 Q1830.25 1446.18 1828.72 1446.52 Q1827.22 1446.86 1825.64 1447.57 L1825.64 1433.47 Z" fill="#000000" fill-rule="evenodd" fill-opacity="1" /><path clip-path="url(#clip990)" d="M2071.89 1485.02 L2079.53 1485.02 L2079.53 1458.66 L2071.22 1460.32 L2071.22 1456.06 L2079.48 1454.4 L2084.16 1454.4 L2084.16 1485.02 L2091.79 1485.02 L2091.79 1488.96 L2071.89 1488.96 L2071.89 1485.02 Z" fill="#000000" fill-rule="evenodd" fill-opacity="1" /><path clip-path="url(#clip990)" d="M2111.24 1457.48 Q2107.63 1457.48 2105.8 1461.04 Q2103.99 1464.58 2103.99 1471.71 Q2103.99 1478.82 2105.8 1482.38 Q2107.63 1485.92 2111.24 1485.92 Q2114.87 1485.92 2116.68 1482.38 Q2118.51 1478.82 2118.51 1471.71 Q2118.51 1464.58 2116.68 1461.04 Q2114.87 1457.48 2111.24 1457.48 M2111.24 1453.77 Q2117.05 1453.77 2120.1 1458.38 Q2123.18 1462.96 2123.18 1471.71 Q2123.18 1480.44 2120.1 1485.04 Q2117.05 1489.63 2111.24 1489.63 Q2105.43 1489.63 2102.35 1485.04 Q2099.29 1480.44 2099.29 1471.71 Q2099.29 1462.96 2102.35 1458.38 Q2105.43 1453.77 2111.24 1453.77 Z" fill="#000000" fill-rule="evenodd" fill-opacity="1" /><path clip-path="url(#clip990)" d="M2133.21 1445.99 Q2130.65 1445.99 2129.15 1447.74 Q2127.66 1449.49 2127.66 1452.54 Q2127.66 1455.57 2129.15 1457.33 Q2130.65 1459.08 2133.21 1459.08 Q2135.77 1459.08 2137.25 1457.33 Q2138.76 1455.57 2138.76 1452.54 Q2138.76 1449.49 2137.25 1447.74 Q2135.77 1445.99 2133.21 1445.99 M2140.75 1434.09 L2140.75 1437.55 Q2139.32 1436.87 2137.85 1436.51 Q2136.4 1436.16 2134.98 1436.16 Q2131.21 1436.16 2129.22 1438.69 Q2127.25 1441.23 2126.96 1446.37 Q2128.07 1444.73 2129.75 1443.87 Q2131.42 1442.98 2133.43 1442.98 Q2137.67 1442.98 2140.11 1445.56 Q2142.57 1448.12 2142.57 1452.54 Q2142.57 1456.86 2140.02 1459.48 Q2137.46 1462.09 2133.21 1462.09 Q2128.34 1462.09 2125.76 1458.37 Q2123.18 1454.62 2123.18 1447.53 Q2123.18 1440.88 2126.34 1436.93 Q2129.5 1432.96 2134.83 1432.96 Q2136.25 1432.96 2137.7 1433.24 Q2139.17 1433.52 2140.75 1434.09 Z" fill="#000000" fill-rule="evenodd" fill-opacity="1" /><path clip-path="url(#clip990)" d="M1060.12 1543.95 L1060.12 1524.66 L1065.98 1524.66 L1065.98 1574.19 L1060.12 1574.19 L1060.12 1568.84 Q1058.27 1572.02 1055.44 1573.58 Q1052.64 1575.11 1048.69 1575.11 Q1042.23 1575.11 1038.16 1569.95 Q1034.12 1564.8 1034.12 1556.39 Q1034.12 1547.99 1038.16 1542.83 Q1042.23 1537.68 1048.69 1537.68 Q1052.64 1537.68 1055.44 1539.24 Q1058.27 1540.77 1060.12 1543.95 M1040.16 1556.39 Q1040.16 1562.85 1042.8 1566.55 Q1045.48 1570.21 1050.13 1570.21 Q1054.77 1570.21 1057.45 1566.55 Q1060.12 1562.85 1060.12 1556.39 Q1060.12 1549.93 1057.45 1546.27 Q1054.77 1542.58 1050.13 1542.58 Q1045.48 1542.58 1042.8 1546.27 Q1040.16 1549.93 1040.16 1556.39 Z" fill="#000000" fill-rule="evenodd" fill-opacity="1" /><path clip-path="url(#clip990)" d="M1094.24 1556.27 Q1087.14 1556.27 1084.4 1557.89 Q1081.67 1559.51 1081.67 1563.43 Q1081.67 1566.55 1083.7 1568.39 Q1085.77 1570.21 1089.31 1570.21 Q1094.18 1570.21 1097.1 1566.77 Q1100.06 1563.3 1100.06 1557.57 L1100.06 1556.27 L1094.24 1556.27 M1105.92 1553.85 L1105.92 1574.19 L1100.06 1574.19 L1100.06 1568.77 Q1098.06 1572.02 1095.07 1573.58 Q1092.08 1575.11 1087.75 1575.11 Q1082.27 1575.11 1079.03 1572.05 Q1075.81 1568.97 1075.81 1563.81 Q1075.81 1557.79 1079.82 1554.74 Q1083.86 1551.68 1091.85 1551.68 L1100.06 1551.68 L1100.06 1551.11 Q1100.06 1547.07 1097.39 1544.87 Q1094.75 1542.64 1089.94 1542.64 Q1086.89 1542.64 1083.99 1543.38 Q1081.09 1544.11 1078.42 1545.57 L1078.42 1540.16 Q1081.64 1538.92 1084.66 1538.31 Q1087.68 1537.68 1090.55 1537.68 Q1098.28 1537.68 1102.1 1541.69 Q1105.92 1545.7 1105.92 1553.85 Z" fill="#000000" fill-rule="evenodd" fill-opacity="1" /><path clip-path="url(#clip990)" d="M1123.78 1528.42 L1123.78 1538.54 L1135.84 1538.54 L1135.84 1543.09 L1123.78 1543.09 L1123.78 1562.44 Q1123.78 1566.8 1124.95 1568.04 Q1126.16 1569.28 1129.82 1569.28 L1135.84 1569.28 L1135.84 1574.19 L1129.82 1574.19 Q1123.04 1574.19 1120.47 1571.67 Q1117.89 1569.12 1117.89 1562.44 L1117.89 1543.09 L1113.59 1543.09 L1113.59 1538.54 L1117.89 1538.54 L1117.89 1528.42 L1123.78 1528.42 Z" fill="#000000" fill-rule="evenodd" fill-opacity="1" /><path clip-path="url(#clip990)" d="M1159.74 1556.27 Q1152.64 1556.27 1149.91 1557.89 Q1147.17 1559.51 1147.17 1563.43 Q1147.17 1566.55 1149.21 1568.39 Q1151.28 1570.21 1154.81 1570.21 Q1159.68 1570.21 1162.61 1566.77 Q1165.57 1563.3 1165.57 1557.57 L1165.57 1556.27 L1159.74 1556.27 M1171.42 1553.85 L1171.42 1574.19 L1165.57 1574.19 L1165.57 1568.77 Q1163.56 1572.02 1160.57 1573.58 Q1157.58 1575.11 1153.25 1575.11 Q1147.78 1575.11 1144.53 1572.05 Q1141.31 1568.97 1141.31 1563.81 Q1141.31 1557.79 1145.32 1554.74 Q1149.37 1551.68 1157.36 1551.68 L1165.57 1551.68 L1165.57 1551.11 Q1165.57 1547.07 1162.89 1544.87 Q1160.25 1542.64 1155.45 1542.64 Q1152.39 1542.64 1149.49 1543.38 Q1146.6 1544.11 1143.92 1545.57 L1143.92 1540.16 Q1147.14 1538.92 1150.16 1538.31 Q1153.19 1537.68 1156.05 1537.68 Q1163.78 1537.68 1167.6 1541.69 Q1171.42 1545.7 1171.42 1553.85 Z" fill="#000000" fill-rule="evenodd" fill-opacity="1" /><path clip-path="url(#clip990)" d="M1226.93 1539.59 L1226.93 1545.13 Q1224.45 1543.85 1221.78 1543.22 Q1219.1 1542.58 1216.24 1542.58 Q1211.88 1542.58 1209.68 1543.92 Q1207.52 1545.25 1207.52 1547.93 Q1207.52 1549.96 1209.08 1551.14 Q1210.64 1552.29 1215.35 1553.34 L1217.35 1553.78 Q1223.59 1555.12 1226.2 1557.57 Q1228.84 1559.99 1228.84 1564.35 Q1228.84 1569.32 1224.9 1572.21 Q1220.98 1575.11 1214.11 1575.11 Q1211.24 1575.11 1208.12 1574.54 Q1205.03 1573.99 1201.6 1572.88 L1201.6 1566.83 Q1204.84 1568.52 1207.99 1569.38 Q1211.15 1570.21 1214.23 1570.21 Q1218.37 1570.21 1220.6 1568.81 Q1222.83 1567.37 1222.83 1564.8 Q1222.83 1562.41 1221.2 1561.14 Q1219.61 1559.86 1214.17 1558.68 L1212.13 1558.21 Q1206.69 1557.06 1204.27 1554.71 Q1201.85 1552.32 1201.85 1548.18 Q1201.85 1543.15 1205.42 1540.42 Q1208.98 1537.68 1215.54 1537.68 Q1218.78 1537.68 1221.65 1538.16 Q1224.51 1538.63 1226.93 1539.59 Z" fill="#000000" fill-rule="evenodd" fill-opacity="1" /><path clip-path="url(#clip990)" d="M1238.17 1538.54 L1244.02 1538.54 L1244.02 1574.19 L1238.17 1574.19 L1238.17 1538.54 M1238.17 1524.66 L1244.02 1524.66 L1244.02 1532.08 L1238.17 1532.08 L1238.17 1524.66 Z" fill="#000000" fill-rule="evenodd" fill-opacity="1" /><path clip-path="url(#clip990)" d="M1253.73 1538.54 L1281.55 1538.54 L1281.55 1543.88 L1259.53 1569.51 L1281.55 1569.51 L1281.55 1574.19 L1252.94 1574.19 L1252.94 1568.84 L1274.96 1543.22 L1253.73 1543.22 L1253.73 1538.54 Z" fill="#000000" fill-rule="evenodd" fill-opacity="1" /><path clip-path="url(#clip990)" d="M1320.99 1554.9 L1320.99 1557.76 L1294.06 1557.76 Q1294.44 1563.81 1297.69 1566.99 Q1300.97 1570.14 1306.79 1570.14 Q1310.16 1570.14 1313.32 1569.32 Q1316.5 1568.49 1319.62 1566.83 L1319.62 1572.37 Q1316.47 1573.71 1313.16 1574.41 Q1309.85 1575.11 1306.44 1575.11 Q1297.91 1575.11 1292.91 1570.14 Q1287.95 1565.18 1287.95 1556.71 Q1287.95 1547.96 1292.66 1542.83 Q1297.4 1537.68 1305.42 1537.68 Q1312.62 1537.68 1316.78 1542.33 Q1320.99 1546.94 1320.99 1554.9 M1315.13 1553.18 Q1315.07 1548.37 1312.42 1545.51 Q1309.81 1542.64 1305.49 1542.64 Q1300.58 1542.64 1297.62 1545.41 Q1294.7 1548.18 1294.25 1553.21 L1315.13 1553.18 Z" fill="#000000" fill-rule="evenodd" fill-opacity="1" /><path clip-path="url(#clip990)" d="M1365.39 1524.72 Q1361.12 1532.04 1359.05 1539.21 Q1356.98 1546.37 1356.98 1553.72 Q1356.98 1561.07 1359.05 1568.3 Q1361.15 1575.49 1365.39 1582.78 L1360.29 1582.78 Q1355.52 1575.3 1353.13 1568.07 Q1350.78 1560.85 1350.78 1553.72 Q1350.78 1546.62 1353.13 1539.43 Q1355.49 1532.24 1360.29 1524.72 L1365.39 1524.72 Z" fill="#000000" fill-rule="evenodd" fill-opacity="1" /><path clip-path="url(#clip990)" d="M1402.34 1556.39 Q1402.34 1549.93 1399.67 1546.27 Q1397.02 1542.58 1392.38 1542.58 Q1387.73 1542.58 1385.06 1546.27 Q1382.42 1549.93 1382.42 1556.39 Q1382.42 1562.85 1385.06 1566.55 Q1387.73 1570.21 1392.38 1570.21 Q1397.02 1570.21 1399.67 1566.55 Q1402.34 1562.85 1402.34 1556.39 M1382.42 1543.95 Q1384.26 1540.77 1387.06 1539.24 Q1389.89 1537.68 1393.81 1537.68 Q1400.3 1537.68 1404.35 1542.83 Q1408.42 1547.99 1408.42 1556.39 Q1408.42 1564.8 1404.35 1569.95 Q1400.3 1575.11 1393.81 1575.11 Q1389.89 1575.11 1387.06 1573.58 Q1384.26 1572.02 1382.42 1568.84 L1382.42 1574.19 L1376.53 1574.19 L1376.53 1524.66 L1382.42 1524.66 L1382.42 1543.95 Z" fill="#000000" fill-rule="evenodd" fill-opacity="1" /><path clip-path="url(#clip990)" d="M1432.96 1577.5 Q1430.48 1583.86 1428.12 1585.8 Q1425.77 1587.74 1421.82 1587.74 L1417.14 1587.74 L1417.14 1582.84 L1420.58 1582.84 Q1423 1582.84 1424.33 1581.7 Q1425.67 1580.55 1427.29 1576.29 L1428.34 1573.61 L1413.93 1538.54 L1420.13 1538.54 L1431.27 1566.42 L1442.41 1538.54 L1448.62 1538.54 L1432.96 1577.5 Z" fill="#000000" fill-rule="evenodd" fill-opacity="1" /><path clip-path="url(#clip990)" d="M1462.5 1528.42 L1462.5 1538.54 L1474.56 1538.54 L1474.56 1543.09 L1462.5 1543.09 L1462.5 1562.44 Q1462.5 1566.8 1463.67 1568.04 Q1464.88 1569.28 1468.54 1569.28 L1474.56 1569.28 L1474.56 1574.19 L1468.54 1574.19 Q1461.76 1574.19 1459.19 1571.67 Q1456.61 1569.12 1456.61 1562.44 L1456.61 1543.09 L1452.31 1543.09 L1452.31 1538.54 L1456.61 1538.54 L1456.61 1528.42 L1462.5 1528.42 Z" fill="#000000" fill-rule="evenodd" fill-opacity="1" /><path clip-path="url(#clip990)" d="M1512.75 1554.9 L1512.75 1557.76 L1485.83 1557.76 Q1486.21 1563.81 1489.45 1566.99 Q1492.73 1570.14 1498.56 1570.14 Q1501.93 1570.14 1505.08 1569.32 Q1508.27 1568.49 1511.38 1566.83 L1511.38 1572.37 Q1508.23 1573.71 1504.92 1574.41 Q1501.61 1575.11 1498.21 1575.11 Q1489.68 1575.11 1484.68 1570.14 Q1479.71 1565.18 1479.71 1556.71 Q1479.71 1547.96 1484.43 1542.83 Q1489.17 1537.68 1497.19 1537.68 Q1504.38 1537.68 1508.55 1542.33 Q1512.75 1546.94 1512.75 1554.9 M1506.9 1553.18 Q1506.83 1548.37 1504.19 1545.51 Q1501.58 1542.64 1497.25 1542.64 Q1492.35 1542.64 1489.39 1545.41 Q1486.46 1548.18 1486.02 1553.21 L1506.9 1553.18 Z" fill="#000000" fill-rule="evenodd" fill-opacity="1" /><path clip-path="url(#clip990)" d="M1545.09 1539.59 L1545.09 1545.13 Q1542.61 1543.85 1539.93 1543.22 Q1537.26 1542.58 1534.4 1542.58 Q1530.04 1542.58 1527.84 1543.92 Q1525.68 1545.25 1525.68 1547.93 Q1525.68 1549.96 1527.23 1551.14 Q1528.79 1552.29 1533.51 1553.34 L1535.51 1553.78 Q1541.75 1555.12 1544.36 1557.57 Q1547 1559.99 1547 1564.35 Q1547 1569.32 1543.05 1572.21 Q1539.14 1575.11 1532.26 1575.11 Q1529.4 1575.11 1526.28 1574.54 Q1523.19 1573.99 1519.76 1572.88 L1519.76 1566.83 Q1523 1568.52 1526.15 1569.38 Q1529.3 1570.21 1532.39 1570.21 Q1536.53 1570.21 1538.76 1568.81 Q1540.98 1567.37 1540.98 1564.8 Q1540.98 1562.41 1539.36 1561.14 Q1537.77 1559.86 1532.33 1558.68 L1530.29 1558.21 Q1524.85 1557.06 1522.43 1554.71 Q1520.01 1552.32 1520.01 1548.18 Q1520.01 1543.15 1523.57 1540.42 Q1527.14 1537.68 1533.7 1537.68 Q1536.94 1537.68 1539.81 1538.16 Q1542.67 1538.63 1545.09 1539.59 Z" fill="#000000" fill-rule="evenodd" fill-opacity="1" /><path clip-path="url(#clip990)" d="M1555.4 1524.72 L1560.5 1524.72 Q1565.27 1532.24 1567.63 1539.43 Q1570.01 1546.62 1570.01 1553.72 Q1570.01 1560.85 1567.63 1568.07 Q1565.27 1575.3 1560.5 1582.78 L1555.4 1582.78 Q1559.64 1575.49 1561.71 1568.3 Q1563.81 1561.07 1563.81 1553.72 Q1563.81 1546.37 1561.71 1539.21 Q1559.64 1532.04 1555.4 1524.72 Z" fill="#000000" fill-rule="evenodd" fill-opacity="1" /><polyline clip-path="url(#clip992)" style="stroke:#000000; stroke-linecap:butt; stroke-linejoin:round; stroke-width:2; stroke-opacity:0.1; fill:none" points="
  251.372,1410.9 2352.76,1410.9 
  "/>
<polyline clip-path="url(#clip992)" style="stroke:#000000; stroke-linecap:butt; stroke-linejoin:round; stroke-width:2; stroke-opacity:0.1; fill:none" points="
  251.372,1089.04 2352.76,1089.04 
  "/>
<polyline clip-path="url(#clip992)" style="stroke:#000000; stroke-linecap:butt; stroke-linejoin:round; stroke-width:2; stroke-opacity:0.1; fill:none" points="
  251.372,767.184 2352.76,767.184 
  "/>
<polyline clip-path="url(#clip992)" style="stroke:#000000; stroke-linecap:butt; stroke-linejoin:round; stroke-width:2; stroke-opacity:0.1; fill:none" points="
  251.372,445.328 2352.76,445.328 
  "/>
<polyline clip-path="url(#clip992)" style="stroke:#000000; stroke-linecap:butt; stroke-linejoin:round; stroke-width:2; stroke-opacity:0.1; fill:none" points="
  251.372,123.472 2352.76,123.472 
  "/>
<polyline clip-path="url(#clip990)" style="stroke:#000000; stroke-linecap:butt; stroke-linejoin:round; stroke-width:4; stroke-opacity:1; fill:none" points="
  251.372,1410.9 251.372,123.472 
  "/>
<polyline clip-path="url(#clip990)" style="stroke:#000000; stroke-linecap:butt; stroke-linejoin:round; stroke-width:4; stroke-opacity:1; fill:none" points="
  251.372,1410.9 270.27,1410.9 
  "/>
<polyline clip-path="url(#clip990)" style="stroke:#000000; stroke-linecap:butt; stroke-linejoin:round; stroke-width:4; stroke-opacity:1; fill:none" points="
  251.372,1089.04 270.27,1089.04 
  "/>
<polyline clip-path="url(#clip990)" style="stroke:#000000; stroke-linecap:butt; stroke-linejoin:round; stroke-width:4; stroke-opacity:1; fill:none" points="
  251.372,767.184 270.27,767.184 
  "/>
<polyline clip-path="url(#clip990)" style="stroke:#000000; stroke-linecap:butt; stroke-linejoin:round; stroke-width:4; stroke-opacity:1; fill:none" points="
  251.372,445.328 270.27,445.328 
  "/>
<polyline clip-path="url(#clip990)" style="stroke:#000000; stroke-linecap:butt; stroke-linejoin:round; stroke-width:4; stroke-opacity:1; fill:none" points="
  251.372,123.472 270.27,123.472 
  "/>
<path clip-path="url(#clip990)" d="M114.931 1430.69 L122.57 1430.69 L122.57 1404.32 L114.26 1405.99 L114.26 1401.73 L122.524 1400.06 L127.2 1400.06 L127.2 1430.69 L134.839 1430.69 L134.839 1434.62 L114.931 1434.62 L114.931 1430.69 Z" fill="#000000" fill-rule="evenodd" fill-opacity="1" /><path clip-path="url(#clip990)" d="M154.283 1403.14 Q150.672 1403.14 148.843 1406.71 Q147.038 1410.25 147.038 1417.38 Q147.038 1424.49 148.843 1428.05 Q150.672 1431.59 154.283 1431.59 Q157.917 1431.59 159.723 1428.05 Q161.552 1424.49 161.552 1417.38 Q161.552 1410.25 159.723 1406.71 Q157.917 1403.14 154.283 1403.14 M154.283 1399.44 Q160.093 1399.44 163.149 1404.05 Q166.227 1408.63 166.227 1417.38 Q166.227 1426.11 163.149 1430.71 Q160.093 1435.3 154.283 1435.3 Q148.473 1435.3 145.394 1430.71 Q142.339 1426.11 142.339 1417.38 Q142.339 1408.63 145.394 1404.05 Q148.473 1399.44 154.283 1399.44 Z" fill="#000000" fill-rule="evenodd" fill-opacity="1" /><path clip-path="url(#clip990)" d="M166.227 1393.54 L190.339 1393.54 L190.339 1396.74 L166.227 1396.74 L166.227 1393.54 Z" fill="#000000" fill-rule="evenodd" fill-opacity="1" /><path clip-path="url(#clip990)" d="M199.197 1404.02 L205.404 1404.02 L205.404 1382.59 L198.652 1383.95 L198.652 1380.49 L205.366 1379.13 L209.166 1379.13 L209.166 1404.02 L215.372 1404.02 L215.372 1407.21 L199.197 1407.21 L199.197 1404.02 Z" fill="#000000" fill-rule="evenodd" fill-opacity="1" /><path clip-path="url(#clip990)" d="M144.667 1108.83 L152.305 1108.83 L152.305 1082.47 L143.995 1084.13 L143.995 1079.87 L152.259 1078.21 L156.935 1078.21 L156.935 1108.83 L164.574 1108.83 L164.574 1112.77 L144.667 1112.77 L144.667 1108.83 Z" fill="#000000" fill-rule="evenodd" fill-opacity="1" /><path clip-path="url(#clip990)" d="M184.018 1081.29 Q180.407 1081.29 178.578 1084.85 Q176.773 1088.39 176.773 1095.52 Q176.773 1102.63 178.578 1106.19 Q180.407 1109.74 184.018 1109.74 Q187.652 1109.74 189.458 1106.19 Q191.287 1102.63 191.287 1095.52 Q191.287 1088.39 189.458 1084.85 Q187.652 1081.29 184.018 1081.29 M184.018 1077.58 Q189.828 1077.58 192.884 1082.19 Q195.963 1086.77 195.963 1095.52 Q195.963 1104.25 192.884 1108.86 Q189.828 1113.44 184.018 1113.44 Q178.208 1113.44 175.129 1108.86 Q172.074 1104.25 172.074 1095.52 Q172.074 1086.77 175.129 1082.19 Q178.208 1077.58 184.018 1077.58 Z" fill="#000000" fill-rule="evenodd" fill-opacity="1" /><path clip-path="url(#clip990)" d="M205.667 1059.78 Q202.733 1059.78 201.248 1062.68 Q199.781 1065.55 199.781 1071.35 Q199.781 1077.12 201.248 1080.02 Q202.733 1082.89 205.667 1082.89 Q208.62 1082.89 210.087 1080.02 Q211.573 1077.12 211.573 1071.35 Q211.573 1065.55 210.087 1062.68 Q208.62 1059.78 205.667 1059.78 M205.667 1056.77 Q210.388 1056.77 212.871 1060.51 Q215.372 1064.24 215.372 1071.35 Q215.372 1078.44 212.871 1082.18 Q210.388 1085.9 205.667 1085.9 Q200.947 1085.9 198.445 1082.18 Q195.963 1078.44 195.963 1071.35 Q195.963 1064.24 198.445 1060.51 Q200.947 1056.77 205.667 1056.77 Z" fill="#000000" fill-rule="evenodd" fill-opacity="1" /><path clip-path="url(#clip990)" d="M147.356 786.977 L154.995 786.977 L154.995 760.611 L146.685 762.278 L146.685 758.019 L154.949 756.352 L159.624 756.352 L159.624 786.977 L167.263 786.977 L167.263 790.912 L147.356 790.912 L147.356 786.977 Z" fill="#000000" fill-rule="evenodd" fill-opacity="1" /><path clip-path="url(#clip990)" d="M186.708 759.431 Q183.097 759.431 181.268 762.995 Q179.462 766.537 179.462 773.667 Q179.462 780.773 181.268 784.338 Q183.097 787.88 186.708 787.88 Q190.342 787.88 192.147 784.338 Q193.976 780.773 193.976 773.667 Q193.976 766.537 192.147 762.995 Q190.342 759.431 186.708 759.431 M186.708 755.727 Q192.518 755.727 195.573 760.333 Q198.652 764.917 198.652 773.667 Q198.652 782.394 195.573 787 Q192.518 791.583 186.708 791.583 Q180.898 791.583 177.819 787 Q174.763 782.394 174.763 773.667 Q174.763 764.917 177.819 760.333 Q180.898 755.727 186.708 755.727 Z" fill="#000000" fill-rule="evenodd" fill-opacity="1" /><path clip-path="url(#clip990)" d="M199.197 760.304 L205.404 760.304 L205.404 738.882 L198.652 740.236 L198.652 736.776 L205.366 735.422 L209.166 735.422 L209.166 760.304 L215.372 760.304 L215.372 763.502 L199.197 763.502 L199.197 760.304 Z" fill="#000000" fill-rule="evenodd" fill-opacity="1" /><path clip-path="url(#clip990)" d="M146.246 465.121 L153.885 465.121 L153.885 438.755 L145.575 440.422 L145.575 436.163 L153.839 434.496 L158.515 434.496 L158.515 465.121 L166.154 465.121 L166.154 469.056 L146.246 469.056 L146.246 465.121 Z" fill="#000000" fill-rule="evenodd" fill-opacity="1" /><path clip-path="url(#clip990)" d="M185.598 437.575 Q181.987 437.575 180.158 441.139 Q178.353 444.681 178.353 451.811 Q178.353 458.917 180.158 462.482 Q181.987 466.023 185.598 466.023 Q189.232 466.023 191.038 462.482 Q192.867 458.917 192.867 451.811 Q192.867 444.681 191.038 441.139 Q189.232 437.575 185.598 437.575 M185.598 433.871 Q191.408 433.871 194.464 438.477 Q197.542 443.061 197.542 451.811 Q197.542 460.537 194.464 465.144 Q191.408 469.727 185.598 469.727 Q179.788 469.727 176.709 465.144 Q173.654 460.537 173.654 451.811 Q173.654 443.061 176.709 438.477 Q179.788 433.871 185.598 433.871 Z" fill="#000000" fill-rule="evenodd" fill-opacity="1" /><path clip-path="url(#clip990)" d="M202.113 438.448 L215.372 438.448 L215.372 441.645 L197.542 441.645 L197.542 438.448 Q199.705 436.21 203.429 432.448 Q207.172 428.668 208.131 427.577 Q209.956 425.527 210.67 424.117 Q211.404 422.687 211.404 421.314 Q211.404 419.076 209.824 417.666 Q208.263 416.255 205.743 416.255 Q203.956 416.255 201.962 416.876 Q199.987 417.496 197.73 418.756 L197.73 414.92 Q200.025 413.998 202.019 413.528 Q204.012 413.058 205.667 413.058 Q210.031 413.058 212.626 415.239 Q215.222 417.421 215.222 421.07 Q215.222 422.8 214.563 424.361 Q213.924 425.903 212.212 428.01 Q211.742 428.555 209.222 431.17 Q206.702 433.765 202.113 438.448 Z" fill="#000000" fill-rule="evenodd" fill-opacity="1" /><path clip-path="url(#clip990)" d="M145.588 143.265 L153.227 143.265 L153.227 116.899 L144.917 118.566 L144.917 114.306 L153.181 112.64 L157.857 112.64 L157.857 143.265 L165.495 143.265 L165.495 147.2 L145.588 147.2 L145.588 143.265 Z" fill="#000000" fill-rule="evenodd" fill-opacity="1" /><path clip-path="url(#clip990)" d="M184.94 115.718 Q181.329 115.718 179.5 119.283 Q177.694 122.825 177.694 129.954 Q177.694 137.061 179.5 140.626 Q181.329 144.167 184.94 144.167 Q188.574 144.167 190.38 140.626 Q192.208 137.061 192.208 129.954 Q192.208 122.825 190.38 119.283 Q188.574 115.718 184.94 115.718 M184.94 112.015 Q190.75 112.015 193.805 116.621 Q196.884 121.204 196.884 129.954 Q196.884 138.681 193.805 143.288 Q190.75 147.871 184.94 147.871 Q179.13 147.871 176.051 143.288 Q172.995 138.681 172.995 129.954 Q172.995 121.204 176.051 116.621 Q179.13 112.015 184.94 112.015 Z" fill="#000000" fill-rule="evenodd" fill-opacity="1" /><path clip-path="url(#clip990)" d="M209.579 104.649 Q212.307 105.232 213.83 107.075 Q215.372 108.918 215.372 111.627 Q215.372 115.783 212.513 118.059 Q209.655 120.335 204.388 120.335 Q202.621 120.335 200.74 119.977 Q198.878 119.639 196.884 118.943 L196.884 115.275 Q198.464 116.197 200.345 116.667 Q202.226 117.137 204.276 117.137 Q207.849 117.137 209.711 115.727 Q211.592 114.316 211.592 111.627 Q211.592 109.144 209.843 107.752 Q208.112 106.342 205.009 106.342 L201.737 106.342 L201.737 103.22 L205.16 103.22 Q207.962 103.22 209.448 102.11 Q210.934 100.982 210.934 98.8751 Q210.934 96.7122 209.391 95.5649 Q207.868 94.3988 205.009 94.3988 Q203.448 94.3988 201.661 94.7374 Q199.875 95.0759 197.73 95.7906 L197.73 92.4052 Q199.893 91.8034 201.774 91.5024 Q203.674 91.2015 205.348 91.2015 Q209.673 91.2015 212.194 93.1763 Q214.714 95.1323 214.714 98.4801 Q214.714 100.812 213.379 102.43 Q212.043 104.028 209.579 104.649 Z" fill="#000000" fill-rule="evenodd" fill-opacity="1" /><path clip-path="url(#clip990)" d="M14.479 954.543 L14.479 948.687 L64.0042 948.687 L64.0042 954.543 L14.479 954.543 Z" fill="#000000" fill-rule="evenodd" fill-opacity="1" /><path clip-path="url(#clip990)" d="M46.0847 920.232 Q46.0847 927.33 47.7079 930.067 Q49.3312 932.804 53.2461 932.804 Q56.3653 932.804 58.2114 930.767 Q60.0256 928.698 60.0256 925.165 Q60.0256 920.296 56.5881 917.367 Q53.1188 914.407 47.3897 914.407 L46.0847 914.407 L46.0847 920.232 M43.6657 908.551 L64.0042 908.551 L64.0042 914.407 L58.5933 914.407 Q61.8398 916.412 63.3994 919.404 Q64.9272 922.396 64.9272 926.725 Q64.9272 932.199 61.8716 935.446 Q58.7843 938.661 53.6281 938.661 Q47.6125 938.661 44.5569 934.65 Q41.5014 930.608 41.5014 922.619 L41.5014 914.407 L40.9285 914.407 Q36.8862 914.407 34.6901 917.081 Q32.4621 919.723 32.4621 924.529 Q32.4621 927.584 33.1941 930.481 Q33.9262 933.377 35.3903 936.051 L29.9795 936.051 Q28.7381 932.836 28.1334 929.812 Q27.4968 926.789 27.4968 923.924 Q27.4968 916.19 31.5072 912.37 Q35.5176 908.551 43.6657 908.551 Z" fill="#000000" fill-rule="evenodd" fill-opacity="1" /><path clip-path="url(#clip990)" d="M18.2347 890.695 L28.3562 890.695 L28.3562 878.632 L32.9077 878.632 L32.9077 890.695 L52.2594 890.695 Q56.6199 890.695 57.8613 889.517 Q59.1026 888.308 59.1026 884.648 L59.1026 878.632 L64.0042 878.632 L64.0042 884.648 Q64.0042 891.427 61.4897 894.005 Q58.9434 896.583 52.2594 896.583 L32.9077 896.583 L32.9077 900.88 L28.3562 900.88 L28.3562 896.583 L18.2347 896.583 L18.2347 890.695 Z" fill="#000000" fill-rule="evenodd" fill-opacity="1" /><path clip-path="url(#clip990)" d="M44.7161 840.438 L47.5806 840.438 L47.5806 867.365 Q53.6281 866.983 56.8109 863.736 Q59.9619 860.458 59.9619 854.633 Q59.9619 851.259 59.1344 848.108 Q58.3069 844.926 56.6518 841.806 L62.1899 841.806 Q63.5267 844.957 64.227 848.268 Q64.9272 851.578 64.9272 854.983 Q64.9272 863.513 59.9619 868.511 Q54.9967 873.476 46.5303 873.476 Q37.7774 873.476 32.6531 868.765 Q27.4968 864.023 27.4968 856.002 Q27.4968 848.809 32.1438 844.639 Q36.7589 840.438 44.7161 840.438 M42.9973 846.294 Q38.1912 846.358 35.3266 849 Q32.4621 851.61 32.4621 855.938 Q32.4621 860.84 35.2312 863.8 Q38.0002 866.728 43.0292 867.174 L42.9973 846.294 Z" fill="#000000" fill-rule="evenodd" fill-opacity="1" /><path clip-path="url(#clip990)" d="M42.4881 801.193 L64.0042 801.193 L64.0042 807.05 L42.679 807.05 Q37.6183 807.05 35.1038 809.023 Q32.5894 810.996 32.5894 814.943 Q32.5894 819.686 35.6131 822.423 Q38.6368 825.16 43.8567 825.16 L64.0042 825.16 L64.0042 831.048 L28.3562 831.048 L28.3562 825.16 L33.8944 825.16 Q30.6797 823.059 29.0883 820.227 Q27.4968 817.362 27.4968 813.638 Q27.4968 807.495 31.3163 804.344 Q35.1038 801.193 42.4881 801.193 Z" fill="#000000" fill-rule="evenodd" fill-opacity="1" /><path clip-path="url(#clip990)" d="M29.7248 763.858 L35.1993 763.858 Q33.8307 766.341 33.1623 768.855 Q32.4621 771.338 32.4621 773.884 Q32.4621 779.582 36.0905 782.733 Q39.6872 785.884 46.212 785.884 Q52.7369 785.884 56.3653 782.733 Q59.9619 779.582 59.9619 773.884 Q59.9619 771.338 59.2935 768.855 Q58.5933 766.341 57.2247 763.858 L62.6355 763.858 Q63.7814 766.309 64.3543 768.951 Q64.9272 771.561 64.9272 774.521 Q64.9272 782.573 59.8664 787.316 Q54.8057 792.058 46.212 792.058 Q37.491 792.058 32.4939 787.284 Q27.4968 782.478 27.4968 774.139 Q27.4968 771.433 28.0697 768.855 Q28.6108 766.277 29.7248 763.858 Z" fill="#000000" fill-rule="evenodd" fill-opacity="1" /><path clip-path="url(#clip990)" d="M67.3143 738.841 Q73.68 741.324 75.6216 743.679 Q77.5631 746.034 77.5631 749.981 L77.5631 754.66 L72.6615 754.66 L72.6615 751.222 Q72.6615 748.803 71.5157 747.467 Q70.3699 746.13 66.1048 744.507 L63.4312 743.456 L28.3562 757.875 L28.3562 751.668 L56.238 740.528 L28.3562 729.388 L28.3562 723.181 L67.3143 738.841 Z" fill="#000000" fill-rule="evenodd" fill-opacity="1" /><path clip-path="url(#clip990)" d="M14.5426 680.308 Q21.8632 684.573 29.0246 686.642 Q36.186 688.711 43.5384 688.711 Q50.8908 688.711 58.1159 686.642 Q65.3091 684.542 72.5979 680.308 L72.5979 685.401 Q65.1182 690.175 57.8931 692.562 Q50.668 694.918 43.5384 694.918 Q36.4406 694.918 29.2474 692.562 Q22.0542 690.207 14.5426 685.401 L14.5426 680.308 Z" fill="#000000" fill-rule="evenodd" fill-opacity="1" /><path clip-path="url(#clip990)" d="M77.5631 669.55 L28.3562 669.55 L28.3562 663.694 L50.5089 663.694 Q55.124 663.694 57.4793 661.498 Q59.8346 659.302 59.8346 655.005 Q59.8346 650.294 57.161 647.939 Q54.4874 645.552 49.1402 645.552 L28.3562 645.552 L28.3562 639.695 L55.7924 639.695 Q57.7021 639.695 58.6251 639.154 Q59.5163 638.581 59.5163 637.404 Q59.5163 637.117 59.3572 636.608 Q59.1662 636.099 58.7843 635.207 L63.4949 635.207 Q64.227 636.512 64.5771 637.69 Q64.9272 638.836 64.9272 639.95 Q64.9272 642.146 63.6859 643.451 Q62.4446 644.756 59.8983 645.233 Q62.4127 646.825 63.6859 649.148 Q64.9272 651.44 64.9272 654.559 Q64.9272 657.806 63.6859 660.097 Q62.4446 662.357 59.9619 663.694 L77.5631 663.694 L77.5631 669.55 Z" fill="#000000" fill-rule="evenodd" fill-opacity="1" /><path clip-path="url(#clip990)" d="M29.4065 604.747 L34.9447 604.747 Q33.6716 607.23 33.035 609.904 Q32.3984 612.577 32.3984 615.442 Q32.3984 619.802 33.7352 621.999 Q35.072 624.163 37.7456 624.163 Q39.7826 624.163 40.9603 622.603 Q42.1061 621.044 43.1565 616.333 L43.6021 614.328 Q44.9389 608.089 47.3897 605.48 Q49.8086 602.838 54.1691 602.838 Q59.1344 602.838 62.0308 606.784 Q64.9272 610.699 64.9272 617.574 Q64.9272 620.439 64.3543 623.558 Q63.8132 626.645 62.6992 630.083 L56.6518 630.083 Q58.3387 626.836 59.198 623.685 Q60.0256 620.534 60.0256 617.447 Q60.0256 613.309 58.6251 611.081 Q57.1929 608.853 54.6147 608.853 Q52.2276 608.853 50.9545 610.477 Q49.6813 612.068 48.5037 617.511 L48.0262 619.548 Q46.8804 624.99 44.5251 627.409 Q42.138 629.828 38.0002 629.828 Q32.9713 629.828 30.2341 626.264 Q27.4968 622.699 27.4968 616.142 Q27.4968 612.896 27.9743 610.031 Q28.4517 607.166 29.4065 604.747 Z" fill="#000000" fill-rule="evenodd" fill-opacity="1" /><path clip-path="url(#clip990)" d="M14.5426 594.435 L14.5426 589.342 Q22.0542 584.568 29.2474 582.213 Q36.4406 579.826 43.5384 579.826 Q50.668 579.826 57.8931 582.213 Q65.1182 584.568 72.5979 589.342 L72.5979 594.435 Q65.3091 590.202 58.1159 588.133 Q50.8908 586.032 43.5384 586.032 Q36.186 586.032 29.0246 588.133 Q21.8632 590.202 14.5426 594.435 Z" fill="#000000" fill-rule="evenodd" fill-opacity="1" /><path clip-path="url(#clip990)" d="M953.788 12.096 L965.981 12.096 L981.415 53.2532 L996.93 12.096 L1009.12 12.096 L1009.12 72.576 L1001.14 72.576 L1001.14 19.4686 L985.547 60.9499 L977.323 60.9499 L961.727 19.4686 L961.727 72.576 L953.788 72.576 L953.788 12.096 Z" fill="#000000" fill-rule="evenodd" fill-opacity="1" /><path clip-path="url(#clip990)" d="M1033.55 18.8205 L1033.55 41.5461 L1043.84 41.5461 Q1049.55 41.5461 1052.67 38.5889 Q1055.79 35.6318 1055.79 30.163 Q1055.79 24.7348 1052.67 21.7777 Q1049.55 18.8205 1043.84 18.8205 L1033.55 18.8205 M1025.37 12.096 L1043.84 12.096 Q1054.01 12.096 1059.19 16.714 Q1064.42 21.2916 1064.42 30.163 Q1064.42 39.1155 1059.19 43.6931 Q1054.01 48.2706 1043.84 48.2706 L1033.55 48.2706 L1033.55 72.576 L1025.37 72.576 L1025.37 12.096 Z" fill="#000000" fill-rule="evenodd" fill-opacity="1" /><path clip-path="url(#clip990)" d="M1075.4 12.096 L1083.58 12.096 L1083.58 72.576 L1075.4 72.576 L1075.4 12.096 Z" fill="#000000" fill-rule="evenodd" fill-opacity="1" /><path clip-path="url(#clip990)" d="M1145.15 16.7545 L1145.15 25.383 Q1141.02 21.5346 1136.32 19.6307 Q1131.66 17.7268 1126.4 17.7268 Q1116.03 17.7268 1110.52 24.0867 Q1105.01 30.4061 1105.01 42.3968 Q1105.01 54.3469 1110.52 60.7069 Q1116.03 67.0263 1126.4 67.0263 Q1131.66 67.0263 1136.32 65.1223 Q1141.02 63.2184 1145.15 59.3701 L1145.15 67.9175 Q1140.86 70.8341 1136.04 72.2924 Q1131.26 73.7508 1125.91 73.7508 Q1112.18 73.7508 1104.28 65.3654 Q1096.38 56.9395 1096.38 42.3968 Q1096.38 27.8135 1104.28 19.4281 Q1112.18 11.0023 1125.91 11.0023 Q1131.34 11.0023 1136.12 12.4606 Q1140.94 13.8784 1145.15 16.7545 Z" fill="#000000" fill-rule="evenodd" fill-opacity="1" /><path clip-path="url(#clip990)" d="M1157.79 12.096 L1165.97 12.096 L1165.97 36.8875 L1195.71 36.8875 L1195.71 12.096 L1203.89 12.096 L1203.89 72.576 L1195.71 72.576 L1195.71 43.7741 L1165.97 43.7741 L1165.97 72.576 L1157.79 72.576 L1157.79 12.096 Z" fill="#000000" fill-rule="evenodd" fill-opacity="1" /><path clip-path="url(#clip990)" d="M1272.07 39.9662 Q1277.94 41.222 1281.22 45.1919 Q1284.54 49.1618 1284.54 54.9951 Q1284.54 63.9476 1278.39 68.8492 Q1272.23 73.7508 1260.89 73.7508 Q1257.08 73.7508 1253.03 72.9811 Q1249.02 72.2519 1244.72 70.7531 L1244.72 62.8538 Q1248.13 64.8388 1252.18 65.8515 Q1256.23 66.8642 1260.64 66.8642 Q1268.34 66.8642 1272.35 63.826 Q1276.4 60.7879 1276.4 54.9951 Q1276.4 49.6479 1272.63 46.6502 Q1268.91 43.612 1262.22 43.612 L1255.17 43.612 L1255.17 36.8875 L1262.55 36.8875 Q1268.58 36.8875 1271.78 34.4975 Q1274.98 32.067 1274.98 27.5299 Q1274.98 22.8714 1271.66 20.4004 Q1268.38 17.8888 1262.22 17.8888 Q1258.86 17.8888 1255.01 18.618 Q1251.16 19.3471 1246.55 20.8865 L1246.55 13.5948 Q1251.2 12.2985 1255.26 11.6504 Q1259.35 11.0023 1262.95 11.0023 Q1272.27 11.0023 1277.7 15.2557 Q1283.13 19.4686 1283.13 26.6793 Q1283.13 31.7024 1280.25 35.1862 Q1277.37 38.6294 1272.07 39.9662 Z" fill="#000000" fill-rule="evenodd" fill-opacity="1" /><path clip-path="url(#clip990)" d="M1300.06 62.2867 L1308.61 62.2867 L1308.61 72.576 L1300.06 72.576 L1300.06 62.2867 Z" fill="#000000" fill-rule="evenodd" fill-opacity="1" /><path clip-path="url(#clip990)" d="M1348.91 19.2256 L1328.25 51.5113 L1348.91 51.5113 L1348.91 19.2256 M1346.77 12.096 L1357.06 12.096 L1357.06 51.5113 L1365.68 51.5113 L1365.68 58.3168 L1357.06 58.3168 L1357.06 72.576 L1348.91 72.576 L1348.91 58.3168 L1321.61 58.3168 L1321.61 50.4176 L1346.77 12.096 Z" fill="#000000" fill-rule="evenodd" fill-opacity="1" /><path clip-path="url(#clip990)" d="M1379.21 62.2867 L1387.76 62.2867 L1387.76 72.576 L1379.21 72.576 L1379.21 62.2867 Z" fill="#000000" fill-rule="evenodd" fill-opacity="1" /><path clip-path="url(#clip990)" d="M1430.38 39.9662 Q1436.25 41.222 1439.53 45.1919 Q1442.85 49.1618 1442.85 54.9951 Q1442.85 63.9476 1436.7 68.8492 Q1430.54 73.7508 1419.2 73.7508 Q1415.39 73.7508 1411.34 72.9811 Q1407.33 72.2519 1403.03 70.7531 L1403.03 62.8538 Q1406.44 64.8388 1410.49 65.8515 Q1414.54 66.8642 1418.95 66.8642 Q1426.65 66.8642 1430.66 63.826 Q1434.71 60.7879 1434.71 54.9951 Q1434.71 49.6479 1430.94 46.6502 Q1427.22 43.612 1420.53 43.612 L1413.48 43.612 L1413.48 36.8875 L1420.86 36.8875 Q1426.89 36.8875 1430.09 34.4975 Q1433.29 32.067 1433.29 27.5299 Q1433.29 22.8714 1429.97 20.4004 Q1426.69 17.8888 1420.53 17.8888 Q1417.17 17.8888 1413.32 18.618 Q1409.47 19.3471 1404.86 20.8865 L1404.86 13.5948 Q1409.51 12.2985 1413.57 11.6504 Q1417.66 11.0023 1421.26 11.0023 Q1430.58 11.0023 1436.01 15.2557 Q1441.44 19.4686 1441.44 26.6793 Q1441.44 31.7024 1438.56 35.1862 Q1435.68 38.6294 1430.38 39.9662 Z" fill="#000000" fill-rule="evenodd" fill-opacity="1" /><path clip-path="url(#clip990)" d="M1470.56 12.096 L1477.45 12.096 L1456.38 80.2727 L1449.5 80.2727 L1470.56 12.096 Z" fill="#000000" fill-rule="evenodd" fill-opacity="1" /><path clip-path="url(#clip990)" d="M1484.66 12.096 L1492.88 12.096 L1492.88 48.8377 Q1492.88 58.5599 1496.41 62.8538 Q1499.93 67.1073 1507.83 67.1073 Q1515.69 67.1073 1519.21 62.8538 Q1522.74 58.5599 1522.74 48.8377 L1522.74 12.096 L1530.96 12.096 L1530.96 49.8504 Q1530.96 61.6791 1525.09 67.7149 Q1519.25 73.7508 1507.83 73.7508 Q1496.37 73.7508 1490.49 67.7149 Q1484.66 61.6791 1484.66 49.8504 L1484.66 12.096 Z" fill="#000000" fill-rule="evenodd" fill-opacity="1" /><path clip-path="url(#clip990)" d="M1591.6 16.7545 L1591.6 25.383 Q1587.47 21.5346 1582.77 19.6307 Q1578.11 17.7268 1572.85 17.7268 Q1562.48 17.7268 1556.97 24.0867 Q1551.46 30.4061 1551.46 42.3968 Q1551.46 54.3469 1556.97 60.7069 Q1562.48 67.0263 1572.85 67.0263 Q1578.11 67.0263 1582.77 65.1223 Q1587.47 63.2184 1591.6 59.3701 L1591.6 67.9175 Q1587.31 70.8341 1582.49 72.2924 Q1577.71 73.7508 1572.36 73.7508 Q1558.63 73.7508 1550.73 65.3654 Q1542.83 56.9395 1542.83 42.3968 Q1542.83 27.8135 1550.73 19.4281 Q1558.63 11.0023 1572.36 11.0023 Q1577.79 11.0023 1582.57 12.4606 Q1587.39 13.8784 1591.6 16.7545 Z" fill="#000000" fill-rule="evenodd" fill-opacity="1" /><path clip-path="url(#clip990)" d="M1601.32 12.096 L1610.12 12.096 L1625.14 34.5785 L1640.25 12.096 L1649.04 12.096 L1629.6 41.141 L1650.34 72.576 L1641.55 72.576 L1624.54 46.8528 L1607.4 72.576 L1598.57 72.576 L1620.16 40.2903 L1601.32 12.096 Z" fill="#000000" fill-rule="evenodd" fill-opacity="1" /><polyline clip-path="url(#clip992)" style="stroke:#0000ff; stroke-linecap:butt; stroke-linejoin:round; stroke-width:4; stroke-opacity:1; fill:none" points="
  310.845,1094.75 400.956,1094.75 491.067,1094.75 581.178,1094.75 671.288,1093.3 761.399,1087.65 851.51,1073.2 941.621,1069.5 1031.73,1019.04 1121.84,1012.42 
  1211.95,996.41 1302.06,972.01 1392.17,940.215 1482.29,913.929 1572.4,853.574 1662.51,812.522 1752.62,765.517 1842.73,702.1 1932.84,630.014 2022.95,546.071 
  2113.06,455.397 2203.17,362.841 2293.28,268.293 
  "/>
<circle clip-path="url(#clip992)" cx="310.845" cy="1094.75" r="14" fill="#0000ff" fill-rule="evenodd" fill-opacity="1" stroke="#000000" stroke-opacity="1" stroke-width="3.2"/>
<circle clip-path="url(#clip992)" cx="400.956" cy="1094.75" r="14" fill="#0000ff" fill-rule="evenodd" fill-opacity="1" stroke="#000000" stroke-opacity="1" stroke-width="3.2"/>
<circle clip-path="url(#clip992)" cx="491.067" cy="1094.75" r="14" fill="#0000ff" fill-rule="evenodd" fill-opacity="1" stroke="#000000" stroke-opacity="1" stroke-width="3.2"/>
<circle clip-path="url(#clip992)" cx="581.178" cy="1094.75" r="14" fill="#0000ff" fill-rule="evenodd" fill-opacity="1" stroke="#000000" stroke-opacity="1" stroke-width="3.2"/>
<circle clip-path="url(#clip992)" cx="671.288" cy="1093.3" r="14" fill="#0000ff" fill-rule="evenodd" fill-opacity="1" stroke="#000000" stroke-opacity="1" stroke-width="3.2"/>
<circle clip-path="url(#clip992)" cx="761.399" cy="1087.65" r="14" fill="#0000ff" fill-rule="evenodd" fill-opacity="1" stroke="#000000" stroke-opacity="1" stroke-width="3.2"/>
<circle clip-path="url(#clip992)" cx="851.51" cy="1073.2" r="14" fill="#0000ff" fill-rule="evenodd" fill-opacity="1" stroke="#000000" stroke-opacity="1" stroke-width="3.2"/>
<circle clip-path="url(#clip992)" cx="941.621" cy="1069.5" r="14" fill="#0000ff" fill-rule="evenodd" fill-opacity="1" stroke="#000000" stroke-opacity="1" stroke-width="3.2"/>
<circle clip-path="url(#clip992)" cx="1031.73" cy="1019.04" r="14" fill="#0000ff" fill-rule="evenodd" fill-opacity="1" stroke="#000000" stroke-opacity="1" stroke-width="3.2"/>
<circle clip-path="url(#clip992)" cx="1121.84" cy="1012.42" r="14" fill="#0000ff" fill-rule="evenodd" fill-opacity="1" stroke="#000000" stroke-opacity="1" stroke-width="3.2"/>
<circle clip-path="url(#clip992)" cx="1211.95" cy="996.41" r="14" fill="#0000ff" fill-rule="evenodd" fill-opacity="1" stroke="#000000" stroke-opacity="1" stroke-width="3.2"/>
<circle clip-path="url(#clip992)" cx="1302.06" cy="972.01" r="14" fill="#0000ff" fill-rule="evenodd" fill-opacity="1" stroke="#000000" stroke-opacity="1" stroke-width="3.2"/>
<circle clip-path="url(#clip992)" cx="1392.17" cy="940.215" r="14" fill="#0000ff" fill-rule="evenodd" fill-opacity="1" stroke="#000000" stroke-opacity="1" stroke-width="3.2"/>
<circle clip-path="url(#clip992)" cx="1482.29" cy="913.929" r="14" fill="#0000ff" fill-rule="evenodd" fill-opacity="1" stroke="#000000" stroke-opacity="1" stroke-width="3.2"/>
<circle clip-path="url(#clip992)" cx="1572.4" cy="853.574" r="14" fill="#0000ff" fill-rule="evenodd" fill-opacity="1" stroke="#000000" stroke-opacity="1" stroke-width="3.2"/>
<circle clip-path="url(#clip992)" cx="1662.51" cy="812.522" r="14" fill="#0000ff" fill-rule="evenodd" fill-opacity="1" stroke="#000000" stroke-opacity="1" stroke-width="3.2"/>
<circle clip-path="url(#clip992)" cx="1752.62" cy="765.517" r="14" fill="#0000ff" fill-rule="evenodd" fill-opacity="1" stroke="#000000" stroke-opacity="1" stroke-width="3.2"/>
<circle clip-path="url(#clip992)" cx="1842.73" cy="702.1" r="14" fill="#0000ff" fill-rule="evenodd" fill-opacity="1" stroke="#000000" stroke-opacity="1" stroke-width="3.2"/>
<circle clip-path="url(#clip992)" cx="1932.84" cy="630.014" r="14" fill="#0000ff" fill-rule="evenodd" fill-opacity="1" stroke="#000000" stroke-opacity="1" stroke-width="3.2"/>
<circle clip-path="url(#clip992)" cx="2022.95" cy="546.071" r="14" fill="#0000ff" fill-rule="evenodd" fill-opacity="1" stroke="#000000" stroke-opacity="1" stroke-width="3.2"/>
<circle clip-path="url(#clip992)" cx="2113.06" cy="455.397" r="14" fill="#0000ff" fill-rule="evenodd" fill-opacity="1" stroke="#000000" stroke-opacity="1" stroke-width="3.2"/>
<circle clip-path="url(#clip992)" cx="2203.17" cy="362.841" r="14" fill="#0000ff" fill-rule="evenodd" fill-opacity="1" stroke="#000000" stroke-opacity="1" stroke-width="3.2"/>
<circle clip-path="url(#clip992)" cx="2293.28" cy="268.293" r="14" fill="#0000ff" fill-rule="evenodd" fill-opacity="1" stroke="#000000" stroke-opacity="1" stroke-width="3.2"/>
<polyline clip-path="url(#clip992)" style="stroke:#ff0000; stroke-linecap:butt; stroke-linejoin:round; stroke-width:4; stroke-opacity:1; fill:none" points="
  310.845,1042.01 400.956,1043.01 491.067,1042.01 581.178,1043.01 761.399,1037.1 851.51,1025.99 941.621,1021.61 1031.73,984.668 1121.84,977.565 1211.95,963.216 
  1302.06,939.734 1392.17,909.217 1482.29,879.423 1572.4,829.567 1662.51,775.24 1752.62,701.225 1842.73,633.033 1932.84,552.842 2022.95,463.85 2113.06,371.569 
  2203.17,277.235 2293.28,181.701 
  "/>
<circle clip-path="url(#clip992)" cx="310.845" cy="1042.01" r="14" fill="#ff0000" fill-rule="evenodd" fill-opacity="1" stroke="#000000" stroke-opacity="1" stroke-width="3.2"/>
<circle clip-path="url(#clip992)" cx="400.956" cy="1043.01" r="14" fill="#ff0000" fill-rule="evenodd" fill-opacity="1" stroke="#000000" stroke-opacity="1" stroke-width="3.2"/>
<circle clip-path="url(#clip992)" cx="491.067" cy="1042.01" r="14" fill="#ff0000" fill-rule="evenodd" fill-opacity="1" stroke="#000000" stroke-opacity="1" stroke-width="3.2"/>
<circle clip-path="url(#clip992)" cx="581.178" cy="1043.01" r="14" fill="#ff0000" fill-rule="evenodd" fill-opacity="1" stroke="#000000" stroke-opacity="1" stroke-width="3.2"/>
<circle clip-path="url(#clip992)" cx="761.399" cy="1037.1" r="14" fill="#ff0000" fill-rule="evenodd" fill-opacity="1" stroke="#000000" stroke-opacity="1" stroke-width="3.2"/>
<circle clip-path="url(#clip992)" cx="851.51" cy="1025.99" r="14" fill="#ff0000" fill-rule="evenodd" fill-opacity="1" stroke="#000000" stroke-opacity="1" stroke-width="3.2"/>
<circle clip-path="url(#clip992)" cx="941.621" cy="1021.61" r="14" fill="#ff0000" fill-rule="evenodd" fill-opacity="1" stroke="#000000" stroke-opacity="1" stroke-width="3.2"/>
<circle clip-path="url(#clip992)" cx="1031.73" cy="984.668" r="14" fill="#ff0000" fill-rule="evenodd" fill-opacity="1" stroke="#000000" stroke-opacity="1" stroke-width="3.2"/>
<circle clip-path="url(#clip992)" cx="1121.84" cy="977.565" r="14" fill="#ff0000" fill-rule="evenodd" fill-opacity="1" stroke="#000000" stroke-opacity="1" stroke-width="3.2"/>
<circle clip-path="url(#clip992)" cx="1211.95" cy="963.216" r="14" fill="#ff0000" fill-rule="evenodd" fill-opacity="1" stroke="#000000" stroke-opacity="1" stroke-width="3.2"/>
<circle clip-path="url(#clip992)" cx="1302.06" cy="939.734" r="14" fill="#ff0000" fill-rule="evenodd" fill-opacity="1" stroke="#000000" stroke-opacity="1" stroke-width="3.2"/>
<circle clip-path="url(#clip992)" cx="1392.17" cy="909.217" r="14" fill="#ff0000" fill-rule="evenodd" fill-opacity="1" stroke="#000000" stroke-opacity="1" stroke-width="3.2"/>
<circle clip-path="url(#clip992)" cx="1482.29" cy="879.423" r="14" fill="#ff0000" fill-rule="evenodd" fill-opacity="1" stroke="#000000" stroke-opacity="1" stroke-width="3.2"/>
<circle clip-path="url(#clip992)" cx="1572.4" cy="829.567" r="14" fill="#ff0000" fill-rule="evenodd" fill-opacity="1" stroke="#000000" stroke-opacity="1" stroke-width="3.2"/>
<circle clip-path="url(#clip992)" cx="1662.51" cy="775.24" r="14" fill="#ff0000" fill-rule="evenodd" fill-opacity="1" stroke="#000000" stroke-opacity="1" stroke-width="3.2"/>
<circle clip-path="url(#clip992)" cx="1752.62" cy="701.225" r="14" fill="#ff0000" fill-rule="evenodd" fill-opacity="1" stroke="#000000" stroke-opacity="1" stroke-width="3.2"/>
<circle clip-path="url(#clip992)" cx="1842.73" cy="633.033" r="14" fill="#ff0000" fill-rule="evenodd" fill-opacity="1" stroke="#000000" stroke-opacity="1" stroke-width="3.2"/>
<circle clip-path="url(#clip992)" cx="1932.84" cy="552.842" r="14" fill="#ff0000" fill-rule="evenodd" fill-opacity="1" stroke="#000000" stroke-opacity="1" stroke-width="3.2"/>
<circle clip-path="url(#clip992)" cx="2022.95" cy="463.85" r="14" fill="#ff0000" fill-rule="evenodd" fill-opacity="1" stroke="#000000" stroke-opacity="1" stroke-width="3.2"/>
<circle clip-path="url(#clip992)" cx="2113.06" cy="371.569" r="14" fill="#ff0000" fill-rule="evenodd" fill-opacity="1" stroke="#000000" stroke-opacity="1" stroke-width="3.2"/>
<circle clip-path="url(#clip992)" cx="2203.17" cy="277.235" r="14" fill="#ff0000" fill-rule="evenodd" fill-opacity="1" stroke="#000000" stroke-opacity="1" stroke-width="3.2"/>
<circle clip-path="url(#clip992)" cx="2293.28" cy="181.701" r="14" fill="#ff0000" fill-rule="evenodd" fill-opacity="1" stroke="#000000" stroke-opacity="1" stroke-width="3.2"/>
<path clip-path="url(#clip990)" d="
M321.418 321.906 L1120.97 321.906 L1120.97 166.386 L321.418 166.386  Z
  " fill="#ffffff" fill-rule="evenodd" fill-opacity="1"/>
<polyline clip-path="url(#clip990)" style="stroke:#000000; stroke-linecap:butt; stroke-linejoin:round; stroke-width:4; stroke-opacity:1; fill:none" points="
  321.418,321.906 1120.97,321.906 1120.97,166.386 321.418,166.386 321.418,321.906 
  "/>
<polyline clip-path="url(#clip990)" style="stroke:#0000ff; stroke-linecap:butt; stroke-linejoin:round; stroke-width:4; stroke-opacity:1; fill:none" points="
  344.767,218.226 484.859,218.226 
  "/>
<path clip-path="url(#clip990)" d="M526.634 210.344 L526.634 214.372 Q524.828 213.446 522.884 212.983 Q520.939 212.52 518.856 212.52 Q515.685 212.52 514.088 213.493 Q512.513 214.465 512.513 216.409 Q512.513 217.891 513.648 218.747 Q514.782 219.58 518.208 220.344 L519.666 220.668 Q524.203 221.641 526.101 223.423 Q528.023 225.182 528.023 228.354 Q528.023 231.965 525.152 234.071 Q522.305 236.178 517.305 236.178 Q515.222 236.178 512.953 235.761 Q510.708 235.367 508.208 234.557 L508.208 230.159 Q510.569 231.386 512.861 232.011 Q515.152 232.613 517.398 232.613 Q520.407 232.613 522.027 231.594 Q523.648 230.553 523.648 228.678 Q523.648 226.942 522.467 226.016 Q521.31 225.09 517.351 224.233 L515.87 223.886 Q511.912 223.053 510.152 221.34 Q508.393 219.604 508.393 216.594 Q508.393 212.937 510.986 210.946 Q513.578 208.955 518.347 208.955 Q520.708 208.955 522.791 209.303 Q524.875 209.65 526.634 210.344 Z" fill="#000000" fill-rule="evenodd" fill-opacity="1" /><path clip-path="url(#clip990)" d="M546.587 222.474 Q541.425 222.474 539.435 223.654 Q537.444 224.835 537.444 227.682 Q537.444 229.951 538.925 231.293 Q540.43 232.613 542.999 232.613 Q546.541 232.613 548.671 230.113 Q550.823 227.59 550.823 223.423 L550.823 222.474 L546.587 222.474 M555.083 220.715 L555.083 235.506 L550.823 235.506 L550.823 231.571 Q549.365 233.932 547.189 235.066 Q545.013 236.178 541.865 236.178 Q537.884 236.178 535.523 233.955 Q533.185 231.71 533.185 227.96 Q533.185 223.585 536.101 221.363 Q539.041 219.141 544.851 219.141 L550.823 219.141 L550.823 218.724 Q550.823 215.784 548.879 214.187 Q546.958 212.567 543.462 212.567 Q541.24 212.567 539.134 213.099 Q537.027 213.631 535.083 214.696 L535.083 210.761 Q537.421 209.858 539.62 209.418 Q541.819 208.955 543.902 208.955 Q549.527 208.955 552.305 211.872 Q555.083 214.789 555.083 220.715 Z" fill="#000000" fill-rule="evenodd" fill-opacity="1" /><path clip-path="url(#clip990)" d="M584.041 214.557 Q585.638 211.687 587.86 210.321 Q590.083 208.955 593.092 208.955 Q597.143 208.955 599.342 211.803 Q601.541 214.627 601.541 219.858 L601.541 235.506 L597.258 235.506 L597.258 219.997 Q597.258 216.27 595.939 214.465 Q594.62 212.659 591.911 212.659 Q588.601 212.659 586.68 214.858 Q584.758 217.057 584.758 220.854 L584.758 235.506 L580.476 235.506 L580.476 219.997 Q580.476 216.247 579.157 214.465 Q577.837 212.659 575.083 212.659 Q571.819 212.659 569.897 214.881 Q567.976 217.08 567.976 220.854 L567.976 235.506 L563.694 235.506 L563.694 209.58 L567.976 209.58 L567.976 213.608 Q569.434 211.224 571.472 210.09 Q573.509 208.955 576.309 208.955 Q579.134 208.955 581.101 210.391 Q583.092 211.826 584.041 214.557 Z" fill="#000000" fill-rule="evenodd" fill-opacity="1" /><path clip-path="url(#clip990)" d="M632.212 221.479 L632.212 223.562 L612.629 223.562 Q612.906 227.96 615.268 230.275 Q617.652 232.566 621.888 232.566 Q624.342 232.566 626.633 231.965 Q628.948 231.363 631.217 230.159 L631.217 234.187 Q628.925 235.159 626.518 235.668 Q624.11 236.178 621.633 236.178 Q615.43 236.178 611.795 232.566 Q608.184 228.955 608.184 222.798 Q608.184 216.432 611.61 212.705 Q615.059 208.955 620.893 208.955 Q626.124 208.955 629.156 212.335 Q632.212 215.692 632.212 221.479 M627.953 220.229 Q627.906 216.733 625.985 214.65 Q624.087 212.567 620.939 212.567 Q617.374 212.567 615.221 214.58 Q613.092 216.594 612.768 220.252 L627.953 220.229 Z" fill="#000000" fill-rule="evenodd" fill-opacity="1" /><path clip-path="url(#clip990)" d="M654.272 199.488 L658.531 199.488 L658.531 235.506 L654.272 235.506 L654.272 199.488 Z" fill="#000000" fill-rule="evenodd" fill-opacity="1" /><path clip-path="url(#clip990)" d="M689.619 221.479 L689.619 223.562 L670.036 223.562 Q670.314 227.96 672.675 230.275 Q675.059 232.566 679.295 232.566 Q681.749 232.566 684.04 231.965 Q686.355 231.363 688.624 230.159 L688.624 234.187 Q686.332 235.159 683.925 235.668 Q681.517 236.178 679.04 236.178 Q672.837 236.178 669.202 232.566 Q665.591 228.955 665.591 222.798 Q665.591 216.432 669.017 212.705 Q672.466 208.955 678.3 208.955 Q683.531 208.955 686.563 212.335 Q689.619 215.692 689.619 221.479 M685.36 220.229 Q685.313 216.733 683.392 214.65 Q681.494 212.567 678.346 212.567 Q674.781 212.567 672.628 214.58 Q670.499 216.594 670.175 220.252 L685.36 220.229 Z" fill="#000000" fill-rule="evenodd" fill-opacity="1" /><path clip-path="url(#clip990)" d="M708.392 222.474 Q703.23 222.474 701.239 223.654 Q699.249 224.835 699.249 227.682 Q699.249 229.951 700.73 231.293 Q702.235 232.613 704.804 232.613 Q708.346 232.613 710.475 230.113 Q712.628 227.59 712.628 223.423 L712.628 222.474 L708.392 222.474 M716.887 220.715 L716.887 235.506 L712.628 235.506 L712.628 231.571 Q711.17 233.932 708.994 235.066 Q706.818 236.178 703.67 236.178 Q699.688 236.178 697.327 233.955 Q694.989 231.71 694.989 227.96 Q694.989 223.585 697.906 221.363 Q700.846 219.141 706.656 219.141 L712.628 219.141 L712.628 218.724 Q712.628 215.784 710.684 214.187 Q708.762 212.567 705.267 212.567 Q703.045 212.567 700.938 213.099 Q698.832 213.631 696.888 214.696 L696.888 210.761 Q699.225 209.858 701.425 209.418 Q703.624 208.955 705.707 208.955 Q711.332 208.955 714.11 211.872 Q716.887 214.789 716.887 220.715 Z" fill="#000000" fill-rule="evenodd" fill-opacity="1" /><path clip-path="url(#clip990)" d="M738.785 199.488 L738.785 203.03 L734.711 203.03 Q732.42 203.03 731.517 203.956 Q730.637 204.881 730.637 207.289 L730.637 209.58 L737.651 209.58 L737.651 212.891 L730.637 212.891 L730.637 235.506 L726.355 235.506 L726.355 212.891 L722.281 212.891 L722.281 209.58 L726.355 209.58 L726.355 207.775 Q726.355 203.446 728.369 201.479 Q730.383 199.488 734.758 199.488 L738.785 199.488 Z" fill="#000000" fill-rule="evenodd" fill-opacity="1" /><path clip-path="url(#clip990)" d="M773.947 210.344 L773.947 214.372 Q772.142 213.446 770.197 212.983 Q768.253 212.52 766.17 212.52 Q762.998 212.52 761.401 213.493 Q759.827 214.465 759.827 216.409 Q759.827 217.891 760.961 218.747 Q762.095 219.58 765.521 220.344 L766.98 220.668 Q771.517 221.641 773.415 223.423 Q775.336 225.182 775.336 228.354 Q775.336 231.965 772.466 234.071 Q769.619 236.178 764.619 236.178 Q762.535 236.178 760.267 235.761 Q758.021 235.367 755.521 234.557 L755.521 230.159 Q757.883 231.386 760.174 232.011 Q762.466 232.613 764.711 232.613 Q767.72 232.613 769.341 231.594 Q770.961 230.553 770.961 228.678 Q770.961 226.942 769.781 226.016 Q768.623 225.09 764.665 224.233 L763.183 223.886 Q759.225 223.053 757.466 221.34 Q755.707 219.604 755.707 216.594 Q755.707 212.937 758.299 210.946 Q760.892 208.955 765.66 208.955 Q768.021 208.955 770.105 209.303 Q772.188 209.65 773.947 210.344 Z" fill="#000000" fill-rule="evenodd" fill-opacity="1" /><path clip-path="url(#clip990)" d="M779.642 209.58 L783.901 209.58 L789.225 229.812 L794.526 209.58 L799.549 209.58 L804.873 229.812 L810.174 209.58 L814.433 209.58 L807.651 235.506 L802.628 235.506 L797.049 214.256 L791.447 235.506 L786.424 235.506 L779.642 209.58 Z" fill="#000000" fill-rule="evenodd" fill-opacity="1" /><path clip-path="url(#clip990)" d="M820.891 209.58 L825.151 209.58 L825.151 235.506 L820.891 235.506 L820.891 209.58 M820.891 199.488 L825.151 199.488 L825.151 204.881 L820.891 204.881 L820.891 199.488 Z" fill="#000000" fill-rule="evenodd" fill-opacity="1" /><path clip-path="url(#clip990)" d="M838.276 202.219 L838.276 209.58 L847.049 209.58 L847.049 212.891 L838.276 212.891 L838.276 226.965 Q838.276 230.136 839.132 231.039 Q840.012 231.941 842.674 231.941 L847.049 231.941 L847.049 235.506 L842.674 235.506 Q837.743 235.506 835.868 233.678 Q833.993 231.826 833.993 226.965 L833.993 212.891 L830.868 212.891 L830.868 209.58 L833.993 209.58 L833.993 202.219 L838.276 202.219 Z" fill="#000000" fill-rule="evenodd" fill-opacity="1" /><path clip-path="url(#clip990)" d="M871.308 210.576 L871.308 214.557 Q869.502 213.562 867.674 213.076 Q865.868 212.567 864.016 212.567 Q859.873 212.567 857.581 215.205 Q855.289 217.821 855.289 222.567 Q855.289 227.312 857.581 229.951 Q859.873 232.566 864.016 232.566 Q865.868 232.566 867.674 232.08 Q869.502 231.571 871.308 230.576 L871.308 234.511 Q869.525 235.344 867.604 235.761 Q865.706 236.178 863.553 236.178 Q857.697 236.178 854.248 232.497 Q850.799 228.816 850.799 222.567 Q850.799 216.224 854.271 212.59 Q857.766 208.955 863.831 208.955 Q865.799 208.955 867.674 209.372 Q869.549 209.766 871.308 210.576 Z" fill="#000000" fill-rule="evenodd" fill-opacity="1" /><path clip-path="url(#clip990)" d="M900.266 219.858 L900.266 235.506 L896.007 235.506 L896.007 219.997 Q896.007 216.317 894.572 214.488 Q893.136 212.659 890.266 212.659 Q886.817 212.659 884.826 214.858 Q882.836 217.057 882.836 220.854 L882.836 235.506 L878.553 235.506 L878.553 199.488 L882.836 199.488 L882.836 213.608 Q884.363 211.27 886.424 210.113 Q888.507 208.955 891.215 208.955 Q895.683 208.955 897.974 211.733 Q900.266 214.488 900.266 219.858 Z" fill="#000000" fill-rule="evenodd" fill-opacity="1" /><path clip-path="url(#clip990)" d="M934.062 199.534 Q930.96 204.858 929.456 210.067 Q927.951 215.275 927.951 220.622 Q927.951 225.969 929.456 231.224 Q930.983 236.455 934.062 241.756 L930.358 241.756 Q926.886 236.316 925.15 231.062 Q923.437 225.807 923.437 220.622 Q923.437 215.46 925.15 210.229 Q926.863 204.997 930.358 199.534 L934.062 199.534 Z" fill="#000000" fill-rule="evenodd" fill-opacity="1" /><path clip-path="url(#clip990)" d="M942.511 200.946 L964.363 200.946 L964.363 204.881 L947.187 204.881 L947.187 215.113 L963.645 215.113 L963.645 219.048 L947.187 219.048 L947.187 231.571 L964.78 231.571 L964.78 235.506 L942.511 235.506 L942.511 200.946 Z" fill="#000000" fill-rule="evenodd" fill-opacity="1" /><path clip-path="url(#clip990)" d="M977.141 204.789 L977.141 231.664 L982.789 231.664 Q989.941 231.664 993.252 228.423 Q996.585 225.182 996.585 218.192 Q996.585 211.247 993.252 208.03 Q989.941 204.789 982.789 204.789 L977.141 204.789 M972.465 200.946 L982.071 200.946 Q992.117 200.946 996.816 205.136 Q1001.52 209.303 1001.52 218.192 Q1001.52 227.127 996.793 231.316 Q992.071 235.506 982.071 235.506 L972.465 235.506 L972.465 200.946 Z" fill="#000000" fill-rule="evenodd" fill-opacity="1" /><path clip-path="url(#clip990)" d="M1025.36 219.303 Q1026.86 219.812 1028.27 221.479 Q1029.71 223.145 1031.14 226.062 L1035.89 235.506 L1030.87 235.506 L1026.45 226.641 Q1024.73 223.168 1023.11 222.034 Q1021.52 220.9 1018.74 220.9 L1013.65 220.9 L1013.65 235.506 L1008.97 235.506 L1008.97 200.946 L1019.52 200.946 Q1025.45 200.946 1028.37 203.423 Q1031.28 205.9 1031.28 210.9 Q1031.28 214.164 1029.76 216.317 Q1028.25 218.469 1025.36 219.303 M1013.65 204.789 L1013.65 217.057 L1019.52 217.057 Q1022.9 217.057 1024.62 215.506 Q1026.35 213.932 1026.35 210.9 Q1026.35 207.868 1024.62 206.34 Q1022.9 204.789 1019.52 204.789 L1013.65 204.789 Z" fill="#000000" fill-rule="evenodd" fill-opacity="1" /><path clip-path="url(#clip990)" d="M1041.05 199.534 L1044.76 199.534 Q1048.23 204.997 1049.94 210.229 Q1051.68 215.46 1051.68 220.622 Q1051.68 225.807 1049.94 231.062 Q1048.23 236.316 1044.76 241.756 L1041.05 241.756 Q1044.13 236.455 1045.64 231.224 Q1047.16 225.969 1047.16 220.622 Q1047.16 215.275 1045.64 210.067 Q1044.13 204.858 1041.05 199.534 Z" fill="#000000" fill-rule="evenodd" fill-opacity="1" /><polyline clip-path="url(#clip990)" style="stroke:#ff0000; stroke-linecap:butt; stroke-linejoin:round; stroke-width:4; stroke-opacity:1; fill:none" points="
  344.767,270.066 484.859,270.066 
  "/>
<path clip-path="url(#clip990)" d="M521.611 274.314 Q516.449 274.314 514.458 275.494 Q512.467 276.675 512.467 279.522 Q512.467 281.791 513.949 283.133 Q515.453 284.453 518.023 284.453 Q521.564 284.453 523.694 281.953 Q525.847 279.43 525.847 275.263 L525.847 274.314 L521.611 274.314 M530.106 272.555 L530.106 287.346 L525.847 287.346 L525.847 283.411 Q524.388 285.772 522.213 286.906 Q520.037 288.018 516.888 288.018 Q512.907 288.018 510.546 285.795 Q508.208 283.55 508.208 279.8 Q508.208 275.425 511.125 273.203 Q514.064 270.981 519.875 270.981 L525.847 270.981 L525.847 270.564 Q525.847 267.624 523.902 266.027 Q521.981 264.407 518.486 264.407 Q516.263 264.407 514.157 264.939 Q512.051 265.471 510.106 266.536 L510.106 262.601 Q512.444 261.698 514.643 261.258 Q516.842 260.795 518.925 260.795 Q524.55 260.795 527.328 263.712 Q530.106 266.629 530.106 272.555 Z" fill="#000000" fill-rule="evenodd" fill-opacity="1" /><path clip-path="url(#clip990)" d="M557.536 262.416 L557.536 266.397 Q555.731 265.402 553.902 264.916 Q552.097 264.407 550.245 264.407 Q546.101 264.407 543.81 267.045 Q541.518 269.661 541.518 274.407 Q541.518 279.152 543.81 281.791 Q546.101 284.406 550.245 284.406 Q552.097 284.406 553.902 283.92 Q555.731 283.411 557.536 282.416 L557.536 286.351 Q555.754 287.184 553.833 287.601 Q551.935 288.018 549.782 288.018 Q543.925 288.018 540.476 284.337 Q537.027 280.656 537.027 274.407 Q537.027 268.064 540.499 264.43 Q543.995 260.795 550.06 260.795 Q552.027 260.795 553.902 261.212 Q555.777 261.606 557.536 262.416 Z" fill="#000000" fill-rule="evenodd" fill-opacity="1" /><path clip-path="url(#clip990)" d="M579.967 265.402 Q579.249 264.985 578.393 264.8 Q577.559 264.592 576.541 264.592 Q572.93 264.592 570.985 266.953 Q569.064 269.291 569.064 273.689 L569.064 287.346 L564.782 287.346 L564.782 261.42 L569.064 261.42 L569.064 265.448 Q570.407 263.087 572.559 261.953 Q574.712 260.795 577.791 260.795 Q578.231 260.795 578.763 260.865 Q579.296 260.911 579.944 261.027 L579.967 265.402 Z" fill="#000000" fill-rule="evenodd" fill-opacity="1" /><path clip-path="url(#clip990)" d="M593.439 264.407 Q590.013 264.407 588.022 267.092 Q586.032 269.754 586.032 274.407 Q586.032 279.059 587.999 281.744 Q589.99 284.406 593.439 284.406 Q596.842 284.406 598.832 281.721 Q600.823 279.036 600.823 274.407 Q600.823 269.8 598.832 267.115 Q596.842 264.407 593.439 264.407 M593.439 260.795 Q598.995 260.795 602.166 264.407 Q605.337 268.018 605.337 274.407 Q605.337 280.772 602.166 284.406 Q598.995 288.018 593.439 288.018 Q587.86 288.018 584.689 284.406 Q581.541 280.772 581.541 274.407 Q581.541 268.018 584.689 264.407 Q587.86 260.795 593.439 260.795 Z" fill="#000000" fill-rule="evenodd" fill-opacity="1" /><path clip-path="url(#clip990)" d="M628.925 262.184 L628.925 266.212 Q627.119 265.286 625.175 264.823 Q623.23 264.36 621.147 264.36 Q617.976 264.36 616.379 265.333 Q614.805 266.305 614.805 268.249 Q614.805 269.731 615.939 270.587 Q617.073 271.42 620.499 272.184 L621.957 272.508 Q626.494 273.481 628.393 275.263 Q630.314 277.022 630.314 280.194 Q630.314 283.805 627.443 285.911 Q624.596 288.018 619.596 288.018 Q617.513 288.018 615.244 287.601 Q612.999 287.207 610.499 286.397 L610.499 281.999 Q612.86 283.226 615.152 283.851 Q617.443 284.453 619.689 284.453 Q622.698 284.453 624.318 283.434 Q625.939 282.393 625.939 280.518 Q625.939 278.782 624.758 277.856 Q623.601 276.93 619.643 276.073 L618.161 275.726 Q614.203 274.893 612.444 273.18 Q610.684 271.444 610.684 268.434 Q610.684 264.777 613.277 262.786 Q615.869 260.795 620.638 260.795 Q622.999 260.795 625.082 261.143 Q627.166 261.49 628.925 262.184 Z" fill="#000000" fill-rule="evenodd" fill-opacity="1" /><path clip-path="url(#clip990)" d="M653.624 262.184 L653.624 266.212 Q651.818 265.286 649.874 264.823 Q647.929 264.36 645.846 264.36 Q642.675 264.36 641.078 265.333 Q639.504 266.305 639.504 268.249 Q639.504 269.731 640.638 270.587 Q641.772 271.42 645.198 272.184 L646.656 272.508 Q651.193 273.481 653.091 275.263 Q655.013 277.022 655.013 280.194 Q655.013 283.805 652.142 285.911 Q649.295 288.018 644.295 288.018 Q642.212 288.018 639.943 287.601 Q637.698 287.207 635.198 286.397 L635.198 281.999 Q637.559 283.226 639.851 283.851 Q642.142 284.453 644.388 284.453 Q647.397 284.453 649.017 283.434 Q650.638 282.393 650.638 280.518 Q650.638 278.782 649.457 277.856 Q648.3 276.93 644.341 276.073 L642.86 275.726 Q638.902 274.893 637.142 273.18 Q635.383 271.444 635.383 268.434 Q635.383 264.777 637.976 262.786 Q640.568 260.795 645.337 260.795 Q647.698 260.795 649.781 261.143 Q651.865 261.49 653.624 262.184 Z" fill="#000000" fill-rule="evenodd" fill-opacity="1" /><path clip-path="url(#clip990)" d="M676.864 251.328 L681.124 251.328 L681.124 287.346 L676.864 287.346 L676.864 251.328 Z" fill="#000000" fill-rule="evenodd" fill-opacity="1" /><path clip-path="url(#clip990)" d="M712.211 273.319 L712.211 275.402 L692.628 275.402 Q692.906 279.8 695.267 282.115 Q697.651 284.406 701.887 284.406 Q704.341 284.406 706.633 283.805 Q708.948 283.203 711.216 281.999 L711.216 286.027 Q708.924 286.999 706.517 287.508 Q704.11 288.018 701.633 288.018 Q695.429 288.018 691.795 284.406 Q688.184 280.795 688.184 274.638 Q688.184 268.272 691.61 264.545 Q695.059 260.795 700.892 260.795 Q706.124 260.795 709.156 264.175 Q712.211 267.532 712.211 273.319 M707.952 272.069 Q707.906 268.573 705.985 266.49 Q704.087 264.407 700.938 264.407 Q697.374 264.407 695.221 266.42 Q693.091 268.434 692.767 272.092 L707.952 272.069 Z" fill="#000000" fill-rule="evenodd" fill-opacity="1" /><path clip-path="url(#clip990)" d="M730.985 274.314 Q725.823 274.314 723.832 275.494 Q721.841 276.675 721.841 279.522 Q721.841 281.791 723.323 283.133 Q724.827 284.453 727.397 284.453 Q730.938 284.453 733.068 281.953 Q735.221 279.43 735.221 275.263 L735.221 274.314 L730.985 274.314 M739.48 272.555 L739.48 287.346 L735.221 287.346 L735.221 283.411 Q733.762 285.772 731.586 286.906 Q729.41 288.018 726.262 288.018 Q722.281 288.018 719.92 285.795 Q717.582 283.55 717.582 279.8 Q717.582 275.425 720.498 273.203 Q723.438 270.981 729.248 270.981 L735.221 270.981 L735.221 270.564 Q735.221 267.624 733.276 266.027 Q731.355 264.407 727.86 264.407 Q725.637 264.407 723.531 264.939 Q721.424 265.471 719.48 266.536 L719.48 262.601 Q721.818 261.698 724.017 261.258 Q726.216 260.795 728.299 260.795 Q733.924 260.795 736.702 263.712 Q739.48 266.629 739.48 272.555 Z" fill="#000000" fill-rule="evenodd" fill-opacity="1" /><path clip-path="url(#clip990)" d="M761.378 251.328 L761.378 254.87 L757.304 254.87 Q755.012 254.87 754.109 255.796 Q753.23 256.721 753.23 259.129 L753.23 261.42 L760.244 261.42 L760.244 264.731 L753.23 264.731 L753.23 287.346 L748.947 287.346 L748.947 264.731 L744.873 264.731 L744.873 261.42 L748.947 261.42 L748.947 259.615 Q748.947 255.286 750.961 253.319 Q752.975 251.328 757.35 251.328 L761.378 251.328 Z" fill="#000000" fill-rule="evenodd" fill-opacity="1" /><path clip-path="url(#clip990)" d="M796.54 262.184 L796.54 266.212 Q794.734 265.286 792.79 264.823 Q790.845 264.36 788.762 264.36 Q785.591 264.36 783.994 265.333 Q782.419 266.305 782.419 268.249 Q782.419 269.731 783.554 270.587 Q784.688 271.42 788.114 272.184 L789.572 272.508 Q794.109 273.481 796.007 275.263 Q797.929 277.022 797.929 280.194 Q797.929 283.805 795.058 285.911 Q792.211 288.018 787.211 288.018 Q785.128 288.018 782.859 287.601 Q780.614 287.207 778.114 286.397 L778.114 281.999 Q780.475 283.226 782.767 283.851 Q785.058 284.453 787.304 284.453 Q790.313 284.453 791.933 283.434 Q793.554 282.393 793.554 280.518 Q793.554 278.782 792.373 277.856 Q791.216 276.93 787.257 276.073 L785.776 275.726 Q781.818 274.893 780.058 273.18 Q778.299 271.444 778.299 268.434 Q778.299 264.777 780.892 262.786 Q783.484 260.795 788.253 260.795 Q790.614 260.795 792.697 261.143 Q794.781 261.49 796.54 262.184 Z" fill="#000000" fill-rule="evenodd" fill-opacity="1" /><path clip-path="url(#clip990)" d="M802.234 261.42 L806.493 261.42 L811.817 281.652 L817.118 261.42 L822.141 261.42 L827.466 281.652 L832.766 261.42 L837.026 261.42 L830.243 287.346 L825.22 287.346 L819.641 266.096 L814.04 287.346 L809.017 287.346 L802.234 261.42 Z" fill="#000000" fill-rule="evenodd" fill-opacity="1" /><path clip-path="url(#clip990)" d="M843.484 261.42 L847.743 261.42 L847.743 287.346 L843.484 287.346 L843.484 261.42 M843.484 251.328 L847.743 251.328 L847.743 256.721 L843.484 256.721 L843.484 251.328 Z" fill="#000000" fill-rule="evenodd" fill-opacity="1" /><path clip-path="url(#clip990)" d="M860.868 254.059 L860.868 261.42 L869.641 261.42 L869.641 264.731 L860.868 264.731 L860.868 278.805 Q860.868 281.976 861.725 282.879 Q862.604 283.781 865.266 283.781 L869.641 283.781 L869.641 287.346 L865.266 287.346 Q860.336 287.346 858.461 285.518 Q856.586 283.666 856.586 278.805 L856.586 264.731 L853.461 264.731 L853.461 261.42 L856.586 261.42 L856.586 254.059 L860.868 254.059 Z" fill="#000000" fill-rule="evenodd" fill-opacity="1" /><path clip-path="url(#clip990)" d="M893.9 262.416 L893.9 266.397 Q892.095 265.402 890.266 264.916 Q888.461 264.407 886.609 264.407 Q882.465 264.407 880.174 267.045 Q877.882 269.661 877.882 274.407 Q877.882 279.152 880.174 281.791 Q882.465 284.406 886.609 284.406 Q888.461 284.406 890.266 283.92 Q892.095 283.411 893.9 282.416 L893.9 286.351 Q892.118 287.184 890.197 287.601 Q888.299 288.018 886.146 288.018 Q880.289 288.018 876.84 284.337 Q873.391 280.656 873.391 274.407 Q873.391 268.064 876.863 264.43 Q880.359 260.795 886.424 260.795 Q888.391 260.795 890.266 261.212 Q892.141 261.606 893.9 262.416 Z" fill="#000000" fill-rule="evenodd" fill-opacity="1" /><path clip-path="url(#clip990)" d="M922.859 271.698 L922.859 287.346 L918.599 287.346 L918.599 271.837 Q918.599 268.157 917.164 266.328 Q915.729 264.499 912.859 264.499 Q909.41 264.499 907.419 266.698 Q905.428 268.897 905.428 272.694 L905.428 287.346 L901.146 287.346 L901.146 251.328 L905.428 251.328 L905.428 265.448 Q906.956 263.11 909.016 261.953 Q911.099 260.795 913.808 260.795 Q918.275 260.795 920.567 263.573 Q922.859 266.328 922.859 271.698 Z" fill="#000000" fill-rule="evenodd" fill-opacity="1" /><path clip-path="url(#clip990)" d="M956.655 251.374 Q953.553 256.698 952.048 261.907 Q950.544 267.115 950.544 272.462 Q950.544 277.809 952.048 283.064 Q953.576 288.295 956.655 293.596 L952.951 293.596 Q949.479 288.156 947.743 282.902 Q946.03 277.647 946.03 272.462 Q946.03 267.3 947.743 262.069 Q949.456 256.837 952.951 251.374 L956.655 251.374 Z" fill="#000000" fill-rule="evenodd" fill-opacity="1" /><path clip-path="url(#clip990)" d="M965.104 252.786 L986.955 252.786 L986.955 256.721 L969.78 256.721 L969.78 266.953 L986.238 266.953 L986.238 270.888 L969.78 270.888 L969.78 283.411 L987.372 283.411 L987.372 287.346 L965.104 287.346 L965.104 252.786 Z" fill="#000000" fill-rule="evenodd" fill-opacity="1" /><path clip-path="url(#clip990)" d="M999.733 256.629 L999.733 283.504 L1005.38 283.504 Q1012.53 283.504 1015.84 280.263 Q1019.18 277.022 1019.18 270.032 Q1019.18 263.087 1015.84 259.87 Q1012.53 256.629 1005.38 256.629 L999.733 256.629 M995.057 252.786 L1004.66 252.786 Q1014.71 252.786 1019.41 256.976 Q1024.11 261.143 1024.11 270.032 Q1024.11 278.967 1019.39 283.156 Q1014.66 287.346 1004.66 287.346 L995.057 287.346 L995.057 252.786 Z" fill="#000000" fill-rule="evenodd" fill-opacity="1" /><path clip-path="url(#clip990)" d="M1047.95 271.143 Q1049.46 271.652 1050.87 273.319 Q1052.3 274.985 1053.74 277.902 L1058.48 287.346 L1053.46 287.346 L1049.04 278.481 Q1047.33 275.008 1045.71 273.874 Q1044.11 272.74 1041.33 272.74 L1036.24 272.74 L1036.24 287.346 L1031.56 287.346 L1031.56 252.786 L1042.12 252.786 Q1048.04 252.786 1050.96 255.263 Q1053.88 257.74 1053.88 262.74 Q1053.88 266.004 1052.35 268.157 Q1050.84 270.309 1047.95 271.143 M1036.24 256.629 L1036.24 268.897 L1042.12 268.897 Q1045.5 268.897 1047.21 267.346 Q1048.95 265.772 1048.95 262.74 Q1048.95 259.708 1047.21 258.18 Q1045.5 256.629 1042.12 256.629 L1036.24 256.629 Z" fill="#000000" fill-rule="evenodd" fill-opacity="1" /><path clip-path="url(#clip990)" d="M1063.64 251.374 L1067.35 251.374 Q1070.82 256.837 1072.53 262.069 Q1074.27 267.3 1074.27 272.462 Q1074.27 277.647 1072.53 282.902 Q1070.82 288.156 1067.35 293.596 L1063.64 293.596 Q1066.72 288.295 1068.23 283.064 Q1069.76 277.809 1069.76 272.462 Q1069.76 267.115 1068.23 261.907 Q1066.72 256.698 1063.64 251.374 Z" fill="#000000" fill-rule="evenodd" fill-opacity="1" /></svg>
