<?xml version="1.0" encoding="utf-8"?>
<svg xmlns="http://www.w3.org/2000/svg" xmlns:xlink="http://www.w3.org/1999/xlink" width="600" height="400" viewBox="0 0 2400 1600">
<defs>
  <clipPath id="clip950">
    <rect x="0" y="0" width="2400" height="1600"/>
  </clipPath>
</defs>
<path clip-path="url(#clip950)" d="
M0 1600 L2400 1600 L2400 0 L0 0  Z
  " fill="#ffffff" fill-rule="evenodd" fill-opacity="1"/>
<defs>
  <clipPath id="clip951">
    <rect x="480" y="0" width="1681" height="1600"/>
  </clipPath>
</defs>
<path clip-path="url(#clip950)" d="
M222.69 1410.9 L2352.76 1410.9 L2352.76 123.472 L222.69 123.472  Z
  " fill="#ffffff" fill-rule="evenodd" fill-opacity="1"/>
<defs>
  <clipPath id="clip952">
    <rect x="222" y="123" width="2131" height="1288"/>
  </clipPath>
</defs>
<polyline clip-path="url(#clip952)" style="stroke:#000000; stroke-linecap:butt; stroke-linejoin:round; stroke-width:2; stroke-opacity:0.1; fill:none" points="
  282.975,1410.9 282.975,123.472 
  "/>
<polyline clip-path="url(#clip952)" style="stroke:#000000; stroke-linecap:butt; stroke-linejoin:round; stroke-width:2; stroke-opacity:0.1; fill:none" points="
  586.403,1410.9 586.403,123.472 
  "/>
<polyline clip-path="url(#clip952)" style="stroke:#000000; stroke-linecap:butt; stroke-linejoin:round; stroke-width:2; stroke-opacity:0.1; fill:none" points="
  889.83,1410.9 889.83,123.472 
  "/>
<polyline clip-path="url(#clip952)" style="stroke:#000000; stroke-linecap:butt; stroke-linejoin:round; stroke-width:2; stroke-opacity:0.1; fill:none" points="
  1193.26,1410.9 1193.26,123.472 
  "/>
<polyline clip-path="url(#clip952)" style="stroke:#000000; stroke-linecap:butt; stroke-linejoin:round; stroke-width:2; stroke-opacity:0.1; fill:none" points="
  1496.68,1410.9 1496.68,123.472 
  "/>
<polyline clip-path="url(#clip952)" style="stroke:#000000; stroke-linecap:butt; stroke-linejoin:round; stroke-width:2; stroke-opacity:0.1; fill:none" points="
  1800.11,1410.9 1800.11,123.472 
  "/>
<polyline clip-path="url(#clip952)" style="stroke:#000000; stroke-linecap:butt; stroke-linejoin:round; stroke-width:2; stroke-opacity:0.1; fill:none" points="
  2103.54,1410.9 2103.54,123.472 
  "/>
<polyline clip-path="url(#clip950)" style="stroke:#000000; stroke-linecap:butt; stroke-linejoin:round; stroke-width:4; stroke-opacity:1; fill:none" points="
  222.69,1410.9 2352.76,1410.9 
  "/>
<polyline clip-path="url(#clip950)" style="stroke:#000000; stroke-linecap:butt; stroke-linejoin:round; stroke-width:4; stroke-opacity:1; fill:none" points="
  282.975,1410.9 282.975,1392 
  "/>
<polyline clip-path="url(#clip950)" style="stroke:#000000; stroke-linecap:butt; stroke-linejoin:round; stroke-width:4; stroke-opacity:1; fill:none" points="
  586.403,1410.9 586.403,1392 
  "/>
<polyline clip-path="url(#clip950)" style="stroke:#000000; stroke-linecap:butt; stroke-linejoin:round; stroke-width:4; stroke-opacity:1; fill:none" points="
  889.83,1410.9 889.83,1392 
  "/>
<polyline clip-path="url(#clip950)" style="stroke:#000000; stroke-linecap:butt; stroke-linejoin:round; stroke-width:4; stroke-opacity:1; fill:none" points="
  1193.26,1410.9 1193.26,1392 
  "/>
<polyline clip-path="url(#clip950)" style="stroke:#000000; stroke-linecap:butt; stroke-linejoin:round; stroke-width:4; stroke-opacity:1; fill:none" points="
  1496.68,1410.9 1496.68,1392 
  "/>
<polyline clip-path="url(#clip950)" style="stroke:#000000; stroke-linecap:butt; stroke-linejoin:round; stroke-width:4; stroke-opacity:1; fill:none" points="
  1800.11,1410.9 1800.11,1392 
  "/>
<polyline clip-path="url(#clip950)" style="stroke:#000000; stroke-linecap:butt; stroke-linejoin:round; stroke-width:4; stroke-opacity:1; fill:none" points="
  2103.54,1410.9 2103.54,1392 
  "/>
<path clip-path="url(#clip950)" d="M247.958 1485.02 L255.597 1485.02 L255.597 1458.66 L247.287 1460.32 L247.287 1456.06 L255.551 1454.4 L260.226 1454.4 L260.226 1485.02 L267.865 1485.02 L267.865 1488.96 L247.958 1488.96 L247.958 1485.02 Z" fill="#000000" fill-rule="evenodd" fill-opacity="1" /><path clip-path="url(#clip950)" d="M287.31 1457.48 Q283.699 1457.48 281.87 1461.04 Q280.064 1464.58 280.064 1471.71 Q280.064 1478.82 281.87 1482.38 Q283.699 1485.92 287.31 1485.92 Q290.944 1485.92 292.749 1482.38 Q294.578 1478.82 294.578 1471.71 Q294.578 1464.58 292.749 1461.04 Q290.944 1457.48 287.31 1457.48 M287.31 1453.77 Q293.12 1453.77 296.175 1458.38 Q299.254 1462.96 299.254 1471.71 Q299.254 1480.44 296.175 1485.04 Q293.12 1489.63 287.31 1489.63 Q281.5 1489.63 278.421 1485.04 Q275.365 1480.44 275.365 1471.71 Q275.365 1462.96 278.421 1458.38 Q281.5 1453.77 287.31 1453.77 Z" fill="#000000" fill-rule="evenodd" fill-opacity="1" /><path clip-path="url(#clip950)" d="M308.959 1435.97 Q306.025 1435.97 304.539 1438.86 Q303.072 1441.74 303.072 1447.53 Q303.072 1453.31 304.539 1456.2 Q306.025 1459.08 308.959 1459.08 Q311.912 1459.08 313.379 1456.2 Q314.864 1453.31 314.864 1447.53 Q314.864 1441.74 313.379 1438.86 Q311.912 1435.97 308.959 1435.97 M308.959 1432.96 Q313.68 1432.96 316.162 1436.7 Q318.664 1440.43 318.664 1447.53 Q318.664 1454.62 316.162 1458.37 Q313.68 1462.09 308.959 1462.09 Q304.238 1462.09 301.737 1458.37 Q299.254 1454.62 299.254 1447.53 Q299.254 1440.43 301.737 1436.7 Q304.238 1432.96 308.959 1432.96 Z" fill="#000000" fill-rule="evenodd" fill-opacity="1" /><path clip-path="url(#clip950)" d="M552.73 1485.02 L560.369 1485.02 L560.369 1458.66 L552.059 1460.32 L552.059 1456.06 L560.323 1454.4 L564.999 1454.4 L564.999 1485.02 L572.637 1485.02 L572.637 1488.96 L552.73 1488.96 L552.73 1485.02 Z" fill="#000000" fill-rule="evenodd" fill-opacity="1" /><path clip-path="url(#clip950)" d="M592.082 1457.48 Q588.471 1457.48 586.642 1461.04 Q584.836 1464.58 584.836 1471.71 Q584.836 1478.82 586.642 1482.38 Q588.471 1485.92 592.082 1485.92 Q595.716 1485.92 597.522 1482.38 Q599.35 1478.82 599.35 1471.71 Q599.35 1464.58 597.522 1461.04 Q595.716 1457.48 592.082 1457.48 M592.082 1453.77 Q597.892 1453.77 600.947 1458.38 Q604.026 1462.96 604.026 1471.71 Q604.026 1480.44 600.947 1485.04 Q597.892 1489.63 592.082 1489.63 Q586.272 1489.63 583.193 1485.04 Q580.137 1480.44 580.137 1471.71 Q580.137 1462.96 583.193 1458.38 Q586.272 1453.77 592.082 1453.77 Z" fill="#000000" fill-rule="evenodd" fill-opacity="1" /><path clip-path="url(#clip950)" d="M604.572 1458.35 L610.778 1458.35 L610.778 1436.93 L604.026 1438.28 L604.026 1434.82 L610.74 1433.47 L614.54 1433.47 L614.54 1458.35 L620.746 1458.35 L620.746 1461.55 L604.572 1461.55 L604.572 1458.35 Z" fill="#000000" fill-rule="evenodd" fill-opacity="1" /><path clip-path="url(#clip950)" d="M855.603 1485.02 L863.241 1485.02 L863.241 1458.66 L854.931 1460.32 L854.931 1456.06 L863.195 1454.4 L867.871 1454.4 L867.871 1485.02 L875.51 1485.02 L875.51 1488.96 L855.603 1488.96 L855.603 1485.02 Z" fill="#000000" fill-rule="evenodd" fill-opacity="1" /><path clip-path="url(#clip950)" d="M894.954 1457.48 Q891.343 1457.48 889.514 1461.04 Q887.709 1464.58 887.709 1471.71 Q887.709 1478.82 889.514 1482.38 Q891.343 1485.92 894.954 1485.92 Q898.588 1485.92 900.394 1482.38 Q902.223 1478.82 902.223 1471.71 Q902.223 1464.58 900.394 1461.04 Q898.588 1457.48 894.954 1457.48 M894.954 1453.77 Q900.764 1453.77 903.82 1458.38 Q906.899 1462.96 906.899 1471.71 Q906.899 1480.44 903.82 1485.04 Q900.764 1489.63 894.954 1489.63 Q889.144 1489.63 886.065 1485.04 Q883.01 1480.44 883.01 1471.71 Q883.01 1462.96 886.065 1458.38 Q889.144 1453.77 894.954 1453.77 Z" fill="#000000" fill-rule="evenodd" fill-opacity="1" /><path clip-path="url(#clip950)" d="M911.469 1458.35 L924.728 1458.35 L924.728 1461.55 L906.899 1461.55 L906.899 1458.35 Q909.061 1456.11 912.785 1452.35 Q916.528 1448.57 917.487 1447.48 Q919.312 1445.43 920.026 1444.02 Q920.76 1442.59 920.76 1441.22 Q920.76 1438.98 919.18 1437.57 Q917.619 1436.16 915.099 1436.16 Q913.312 1436.16 911.318 1436.78 Q909.344 1437.4 907.087 1438.66 L907.087 1434.82 Q909.381 1433.9 911.375 1433.43 Q913.368 1432.96 915.024 1432.96 Q919.387 1432.96 921.982 1435.14 Q924.578 1437.32 924.578 1440.97 Q924.578 1442.7 923.92 1444.26 Q923.28 1445.8 921.569 1447.91 Q921.098 1448.46 918.578 1451.07 Q916.058 1453.67 911.469 1458.35 Z" fill="#000000" fill-rule="evenodd" fill-opacity="1" /><path clip-path="url(#clip950)" d="M1158.7 1485.02 L1166.34 1485.02 L1166.34 1458.66 L1158.03 1460.32 L1158.03 1456.06 L1166.29 1454.4 L1170.97 1454.4 L1170.97 1485.02 L1178.61 1485.02 L1178.61 1488.96 L1158.7 1488.96 L1158.7 1485.02 Z" fill="#000000" fill-rule="evenodd" fill-opacity="1" /><path clip-path="url(#clip950)" d="M1198.05 1457.48 Q1194.44 1457.48 1192.61 1461.04 Q1190.81 1464.58 1190.81 1471.71 Q1190.81 1478.82 1192.61 1482.38 Q1194.44 1485.92 1198.05 1485.92 Q1201.69 1485.92 1203.49 1482.38 Q1205.32 1478.82 1205.32 1471.71 Q1205.32 1464.58 1203.49 1461.04 Q1201.69 1457.48 1198.05 1457.48 M1198.05 1453.77 Q1203.86 1453.77 1206.92 1458.38 Q1210 1462.96 1210 1471.71 Q1210 1480.44 1206.92 1485.04 Q1203.86 1489.63 1198.05 1489.63 Q1192.24 1489.63 1189.16 1485.04 Q1186.11 1480.44 1186.11 1471.71 Q1186.11 1462.96 1189.16 1458.38 Q1192.24 1453.77 1198.05 1453.77 Z" fill="#000000" fill-rule="evenodd" fill-opacity="1" /><path clip-path="url(#clip950)" d="M1222.69 1446.41 Q1225.42 1446.99 1226.94 1448.83 Q1228.48 1450.68 1228.48 1453.38 Q1228.48 1457.54 1225.63 1459.82 Q1222.77 1462.09 1217.5 1462.09 Q1215.73 1462.09 1213.85 1461.73 Q1211.99 1461.4 1210 1460.7 L1210 1457.03 Q1211.58 1457.95 1213.46 1458.42 Q1215.34 1458.89 1217.39 1458.89 Q1220.96 1458.89 1222.82 1457.48 Q1224.7 1456.07 1224.7 1453.38 Q1224.7 1450.9 1222.96 1449.51 Q1221.22 1448.1 1218.12 1448.1 L1214.85 1448.1 L1214.85 1444.98 L1218.27 1444.98 Q1221.07 1444.98 1222.56 1443.87 Q1224.05 1442.74 1224.05 1440.63 Q1224.05 1438.47 1222.5 1437.32 Q1220.98 1436.16 1218.12 1436.16 Q1216.56 1436.16 1214.77 1436.49 Q1212.99 1436.83 1210.84 1437.55 L1210.84 1434.16 Q1213.01 1433.56 1214.89 1433.26 Q1216.79 1432.96 1218.46 1432.96 Q1222.79 1432.96 1225.31 1434.93 Q1227.83 1436.89 1227.83 1440.24 Q1227.83 1442.57 1226.49 1444.19 Q1225.16 1445.79 1222.69 1446.41 Z" fill="#000000" fill-rule="evenodd" fill-opacity="1" /><path clip-path="url(#clip950)" d="M1461.14 1485.02 L1468.78 1485.02 L1468.78 1458.66 L1460.47 1460.32 L1460.47 1456.06 L1468.73 1454.4 L1473.41 1454.4 L1473.41 1485.02 L1481.05 1485.02 L1481.05 1488.96 L1461.14 1488.96 L1461.14 1485.02 Z" fill="#000000" fill-rule="evenodd" fill-opacity="1" /><path clip-path="url(#clip950)" d="M1500.49 1457.48 Q1496.88 1457.48 1495.05 1461.04 Q1493.25 1464.58 1493.25 1471.71 Q1493.25 1478.82 1495.05 1482.38 Q1496.88 1485.92 1500.49 1485.92 Q1504.13 1485.92 1505.93 1482.38 Q1507.76 1478.82 1507.76 1471.71 Q1507.76 1464.58 1505.93 1461.04 Q1504.13 1457.48 1500.49 1457.48 M1500.49 1453.77 Q1506.3 1453.77 1509.36 1458.38 Q1512.44 1462.96 1512.44 1471.71 Q1512.44 1480.44 1509.36 1485.04 Q1506.3 1489.63 1500.49 1489.63 Q1494.68 1489.63 1491.6 1485.04 Q1488.55 1480.44 1488.55 1471.71 Q1488.55 1462.96 1491.6 1458.38 Q1494.68 1453.77 1500.49 1453.77 Z" fill="#000000" fill-rule="evenodd" fill-opacity="1" /><path clip-path="url(#clip950)" d="M1525.11 1436.78 L1515.52 1451.77 L1525.11 1451.77 L1525.11 1436.78 M1524.12 1433.47 L1528.89 1433.47 L1528.89 1451.77 L1532.9 1451.77 L1532.9 1454.93 L1528.89 1454.93 L1528.89 1461.55 L1525.11 1461.55 L1525.11 1454.93 L1512.44 1454.93 L1512.44 1451.26 L1524.12 1433.47 Z" fill="#000000" fill-rule="evenodd" fill-opacity="1" /><path clip-path="url(#clip950)" d="M1765.72 1485.02 L1773.35 1485.02 L1773.35 1458.66 L1765.04 1460.32 L1765.04 1456.06 L1773.31 1454.4 L1777.98 1454.4 L1777.98 1485.02 L1785.62 1485.02 L1785.62 1488.96 L1765.72 1488.96 L1765.72 1485.02 Z" fill="#000000" fill-rule="evenodd" fill-opacity="1" /><path clip-path="url(#clip950)" d="M1805.07 1457.48 Q1801.46 1457.48 1799.63 1461.04 Q1797.82 1464.58 1797.82 1471.71 Q1797.82 1478.82 1799.63 1482.38 Q1801.46 1485.92 1805.07 1485.92 Q1808.7 1485.92 1810.51 1482.38 Q1812.34 1478.82 1812.34 1471.71 Q1812.34 1464.58 1810.51 1461.04 Q1808.7 1457.48 1805.07 1457.48 M1805.07 1453.77 Q1810.88 1453.77 1813.93 1458.38 Q1817.01 1462.96 1817.01 1471.71 Q1817.01 1480.44 1813.93 1485.04 Q1810.88 1489.63 1805.07 1489.63 Q1799.26 1489.63 1796.18 1485.04 Q1793.12 1480.44 1793.12 1471.71 Q1793.12 1462.96 1796.18 1458.38 Q1799.26 1453.77 1805.07 1453.77 Z" fill="#000000" fill-rule="evenodd" fill-opacity="1" /><path clip-path="url(#clip950)" d="M1818.2 1433.47 L1833.11 1433.47 L1833.11 1436.66 L1821.68 1436.66 L1821.68 1443.55 Q1822.5 1443.27 1823.33 1443.13 Q1824.16 1442.98 1824.99 1442.98 Q1829.69 1442.98 1832.43 1445.56 Q1835.18 1448.14 1835.18 1452.54 Q1835.18 1457.07 1832.36 1459.59 Q1829.54 1462.09 1824.4 1462.09 Q1822.63 1462.09 1820.79 1461.79 Q1818.97 1461.49 1817.01 1460.89 L1817.01 1457.07 Q1818.7 1457.99 1820.51 1458.44 Q1822.32 1458.89 1824.33 1458.89 Q1827.58 1458.89 1829.48 1457.18 Q1831.38 1455.47 1831.38 1452.54 Q1831.38 1449.6 1829.48 1447.89 Q1827.58 1446.18 1824.33 1446.18 Q1822.8 1446.18 1821.28 1446.52 Q1819.78 1446.86 1818.2 1447.57 L1818.2 1433.47 Z" fill="#000000" fill-rule="evenodd" fill-opacity="1" /><path clip-path="url(#clip950)" d="M2068.53 1485.02 L2076.17 1485.02 L2076.17 1458.66 L2067.86 1460.32 L2067.86 1456.06 L2076.12 1454.4 L2080.8 1454.4 L2080.8 1485.02 L2088.44 1485.02 L2088.44 1488.96 L2068.53 1488.96 L2068.53 1485.02 Z" fill="#000000" fill-rule="evenodd" fill-opacity="1" /><path clip-path="url(#clip950)" d="M2107.88 1457.48 Q2104.27 1457.48 2102.44 1461.04 Q2100.64 1464.58 2100.64 1471.71 Q2100.64 1478.82 2102.44 1482.38 Q2104.27 1485.92 2107.88 1485.92 Q2111.52 1485.92 2113.32 1482.38 Q2115.15 1478.82 2115.15 1471.71 Q2115.15 1464.58 2113.32 1461.04 Q2111.52 1457.48 2107.88 1457.48 M2107.88 1453.77 Q2113.69 1453.77 2116.75 1458.38 Q2119.83 1462.96 2119.83 1471.71 Q2119.83 1480.44 2116.75 1485.04 Q2113.69 1489.63 2107.88 1489.63 Q2102.07 1489.63 2098.99 1485.04 Q2095.94 1480.44 2095.94 1471.71 Q2095.94 1462.96 2098.99 1458.38 Q2102.07 1453.77 2107.88 1453.77 Z" fill="#000000" fill-rule="evenodd" fill-opacity="1" /><path clip-path="url(#clip950)" d="M2129.85 1445.99 Q2127.29 1445.99 2125.79 1447.74 Q2124.3 1449.49 2124.3 1452.54 Q2124.3 1455.57 2125.79 1457.33 Q2127.29 1459.08 2129.85 1459.08 Q2132.41 1459.08 2133.9 1457.33 Q2135.4 1455.57 2135.4 1452.54 Q2135.4 1449.49 2133.9 1447.74 Q2132.41 1445.99 2129.85 1445.99 M2137.39 1434.09 L2137.39 1437.55 Q2135.96 1436.87 2134.5 1436.51 Q2133.05 1436.16 2131.62 1436.16 Q2127.86 1436.16 2125.86 1438.69 Q2123.89 1441.23 2123.61 1446.37 Q2124.72 1444.73 2126.39 1443.87 Q2128.07 1442.98 2130.08 1442.98 Q2134.31 1442.98 2136.75 1445.56 Q2139.22 1448.12 2139.22 1452.54 Q2139.22 1456.86 2136.66 1459.48 Q2134.1 1462.09 2129.85 1462.09 Q2124.98 1462.09 2122.4 1458.37 Q2119.83 1454.62 2119.83 1447.53 Q2119.83 1440.88 2122.99 1436.93 Q2126.15 1432.96 2131.47 1432.96 Q2132.9 1432.96 2134.35 1433.24 Q2135.81 1433.52 2137.39 1434.09 Z" fill="#000000" fill-rule="evenodd" fill-opacity="1" /><path clip-path="url(#clip950)" d="M1045.78 1543.95 L1045.78 1524.66 L1051.63 1524.66 L1051.63 1574.19 L1045.78 1574.19 L1045.78 1568.84 Q1043.93 1572.02 1041.1 1573.58 Q1038.3 1575.11 1034.35 1575.11 Q1027.89 1575.11 1023.82 1569.95 Q1019.77 1564.8 1019.77 1556.39 Q1019.77 1547.99 1023.82 1542.83 Q1027.89 1537.68 1034.35 1537.68 Q1038.3 1537.68 1041.1 1539.24 Q1043.93 1540.77 1045.78 1543.95 M1025.82 1556.39 Q1025.82 1562.85 1028.46 1566.55 Q1031.14 1570.21 1035.78 1570.21 Q1040.43 1570.21 1043.1 1566.55 Q1045.78 1562.85 1045.78 1556.39 Q1045.78 1549.93 1043.1 1546.27 Q1040.43 1542.58 1035.78 1542.58 Q1031.14 1542.58 1028.46 1546.27 Q1025.82 1549.93 1025.82 1556.39 Z" fill="#000000" fill-rule="evenodd" fill-opacity="1" /><path clip-path="url(#clip950)" d="M1079.9 1556.27 Q1072.8 1556.27 1070.06 1557.89 Q1067.33 1559.51 1067.33 1563.43 Q1067.33 1566.55 1069.36 1568.39 Q1071.43 1570.21 1074.97 1570.21 Q1079.84 1570.21 1082.76 1566.77 Q1085.72 1563.3 1085.72 1557.57 L1085.72 1556.27 L1079.9 1556.27 M1091.58 1553.85 L1091.58 1574.19 L1085.72 1574.19 L1085.72 1568.77 Q1083.72 1572.02 1080.73 1573.58 Q1077.73 1575.11 1073.41 1575.11 Q1067.93 1575.11 1064.68 1572.05 Q1061.47 1568.97 1061.47 1563.81 Q1061.47 1557.79 1065.48 1554.74 Q1069.52 1551.68 1077.51 1551.68 L1085.72 1551.68 L1085.72 1551.11 Q1085.72 1547.07 1083.05 1544.87 Q1080.41 1542.64 1075.6 1542.64 Q1072.55 1542.64 1069.65 1543.38 Q1066.75 1544.11 1064.08 1545.57 L1064.08 1540.16 Q1067.29 1538.92 1070.32 1538.31 Q1073.34 1537.68 1076.21 1537.68 Q1083.94 1537.68 1087.76 1541.69 Q1091.58 1545.7 1091.58 1553.85 Z" fill="#000000" fill-rule="evenodd" fill-opacity="1" /><path clip-path="url(#clip950)" d="M1109.44 1528.42 L1109.44 1538.54 L1121.5 1538.54 L1121.5 1543.09 L1109.44 1543.09 L1109.44 1562.44 Q1109.44 1566.8 1110.61 1568.04 Q1111.82 1569.28 1115.48 1569.28 L1121.5 1569.28 L1121.5 1574.19 L1115.48 1574.19 Q1108.7 1574.19 1106.13 1571.67 Q1103.55 1569.12 1103.55 1562.44 L1103.55 1543.09 L1099.25 1543.09 L1099.25 1538.54 L1103.55 1538.54 L1103.55 1528.42 L1109.44 1528.42 Z" fill="#000000" fill-rule="evenodd" fill-opacity="1" /><path clip-path="url(#clip950)" d="M1145.4 1556.27 Q1138.3 1556.27 1135.57 1557.89 Q1132.83 1559.51 1132.83 1563.43 Q1132.83 1566.55 1134.87 1568.39 Q1136.94 1570.21 1140.47 1570.21 Q1145.34 1570.21 1148.27 1566.77 Q1151.23 1563.3 1151.23 1557.57 L1151.23 1556.27 L1145.4 1556.27 M1157.08 1553.85 L1157.08 1574.19 L1151.23 1574.19 L1151.23 1568.77 Q1149.22 1572.02 1146.23 1573.58 Q1143.24 1575.11 1138.91 1575.11 Q1133.43 1575.11 1130.19 1572.05 Q1126.97 1568.97 1126.97 1563.81 Q1126.97 1557.79 1130.98 1554.74 Q1135.03 1551.68 1143.01 1551.68 L1151.23 1551.68 L1151.23 1551.11 Q1151.23 1547.07 1148.55 1544.87 Q1145.91 1542.64 1141.1 1542.64 Q1138.05 1542.64 1135.15 1543.38 Q1132.26 1544.11 1129.58 1545.57 L1129.58 1540.16 Q1132.8 1538.92 1135.82 1538.31 Q1138.85 1537.68 1141.71 1537.68 Q1149.44 1537.68 1153.26 1541.69 Q1157.08 1545.7 1157.08 1553.85 Z" fill="#000000" fill-rule="evenodd" fill-opacity="1" /><path clip-path="url(#clip950)" d="M1212.59 1539.59 L1212.59 1545.13 Q1210.11 1543.85 1207.44 1543.22 Q1204.76 1542.58 1201.9 1542.58 Q1197.54 1542.58 1195.34 1543.92 Q1193.18 1545.25 1193.18 1547.93 Q1193.18 1549.96 1194.74 1551.14 Q1196.3 1552.29 1201.01 1553.34 L1203.01 1553.78 Q1209.25 1555.12 1211.86 1557.57 Q1214.5 1559.99 1214.5 1564.35 Q1214.5 1569.32 1210.55 1572.21 Q1206.64 1575.11 1199.76 1575.11 Q1196.9 1575.11 1193.78 1574.54 Q1190.69 1573.99 1187.26 1572.88 L1187.26 1566.83 Q1190.5 1568.52 1193.65 1569.38 Q1196.8 1570.21 1199.89 1570.21 Q1204.03 1570.21 1206.26 1568.81 Q1208.49 1567.37 1208.49 1564.8 Q1208.49 1562.41 1206.86 1561.14 Q1205.27 1559.86 1199.83 1558.68 L1197.79 1558.21 Q1192.35 1557.06 1189.93 1554.71 Q1187.51 1552.32 1187.51 1548.18 Q1187.51 1543.15 1191.08 1540.42 Q1194.64 1537.68 1201.2 1537.68 Q1204.44 1537.68 1207.31 1538.16 Q1210.17 1538.63 1212.59 1539.59 Z" fill="#000000" fill-rule="evenodd" fill-opacity="1" /><path clip-path="url(#clip950)" d="M1223.83 1538.54 L1229.68 1538.54 L1229.68 1574.19 L1223.83 1574.19 L1223.83 1538.54 M1223.83 1524.66 L1229.68 1524.66 L1229.68 1532.08 L1223.83 1532.08 L1223.83 1524.66 Z" fill="#000000" fill-rule="evenodd" fill-opacity="1" /><path clip-path="url(#clip950)" d="M1239.39 1538.54 L1267.21 1538.54 L1267.21 1543.88 L1245.18 1569.51 L1267.21 1569.51 L1267.21 1574.19 L1238.6 1574.19 L1238.6 1568.84 L1260.62 1543.22 L1239.39 1543.22 L1239.39 1538.54 Z" fill="#000000" fill-rule="evenodd" fill-opacity="1" /><path clip-path="url(#clip950)" d="M1306.65 1554.9 L1306.65 1557.76 L1279.72 1557.76 Q1280.1 1563.81 1283.35 1566.99 Q1286.63 1570.14 1292.45 1570.14 Q1295.82 1570.14 1298.97 1569.32 Q1302.16 1568.49 1305.28 1566.83 L1305.28 1572.37 Q1302.13 1573.71 1298.82 1574.41 Q1295.51 1575.11 1292.1 1575.11 Q1283.57 1575.11 1278.57 1570.14 Q1273.61 1565.18 1273.61 1556.71 Q1273.61 1547.96 1278.32 1542.83 Q1283.06 1537.68 1291.08 1537.68 Q1298.27 1537.68 1302.44 1542.33 Q1306.65 1546.94 1306.65 1554.9 M1300.79 1553.18 Q1300.73 1548.37 1298.08 1545.51 Q1295.47 1542.64 1291.14 1542.64 Q1286.24 1542.64 1283.28 1545.41 Q1280.35 1548.18 1279.91 1553.21 L1300.79 1553.18 Z" fill="#000000" fill-rule="evenodd" fill-opacity="1" /><path clip-path="url(#clip950)" d="M1351.05 1524.72 Q1346.78 1532.04 1344.71 1539.21 Q1342.64 1546.37 1342.64 1553.72 Q1342.64 1561.07 1344.71 1568.3 Q1346.81 1575.49 1351.05 1582.78 L1345.95 1582.78 Q1341.18 1575.3 1338.79 1568.07 Q1336.44 1560.85 1336.44 1553.72 Q1336.44 1546.62 1338.79 1539.43 Q1341.15 1532.24 1345.95 1524.72 L1351.05 1524.72 Z" fill="#000000" fill-rule="evenodd" fill-opacity="1" /><path clip-path="url(#clip950)" d="M1388 1556.39 Q1388 1549.93 1385.33 1546.27 Q1382.68 1542.58 1378.04 1542.58 Q1373.39 1542.58 1370.72 1546.27 Q1368.07 1549.93 1368.07 1556.39 Q1368.07 1562.85 1370.72 1566.55 Q1373.39 1570.21 1378.04 1570.21 Q1382.68 1570.21 1385.33 1566.55 Q1388 1562.85 1388 1556.39 M1368.07 1543.95 Q1369.92 1540.77 1372.72 1539.24 Q1375.55 1537.68 1379.47 1537.68 Q1385.96 1537.68 1390 1542.83 Q1394.08 1547.99 1394.08 1556.39 Q1394.08 1564.8 1390 1569.95 Q1385.96 1575.11 1379.47 1575.11 Q1375.55 1575.11 1372.72 1573.58 Q1369.92 1572.02 1368.07 1568.84 L1368.07 1574.19 L1362.19 1574.19 L1362.19 1524.66 L1368.07 1524.66 L1368.07 1543.95 Z" fill="#000000" fill-rule="evenodd" fill-opacity="1" /><path clip-path="url(#clip950)" d="M1418.62 1577.5 Q1416.14 1583.86 1413.78 1585.8 Q1411.42 1587.74 1407.48 1587.74 L1402.8 1587.74 L1402.8 1582.84 L1406.24 1582.84 Q1408.66 1582.84 1409.99 1581.7 Q1411.33 1580.55 1412.95 1576.29 L1414 1573.61 L1399.58 1538.54 L1405.79 1538.54 L1416.93 1566.42 L1428.07 1538.54 L1434.28 1538.54 L1418.62 1577.5 Z" fill="#000000" fill-rule="evenodd" fill-opacity="1" /><path clip-path="url(#clip950)" d="M1448.15 1528.42 L1448.15 1538.54 L1460.22 1538.54 L1460.22 1543.09 L1448.15 1543.09 L1448.15 1562.44 Q1448.15 1566.8 1449.33 1568.04 Q1450.54 1569.28 1454.2 1569.28 L1460.22 1569.28 L1460.22 1574.19 L1454.2 1574.19 Q1447.42 1574.19 1444.84 1571.67 Q1442.27 1569.12 1442.27 1562.44 L1442.27 1543.09 L1437.97 1543.09 L1437.97 1538.54 L1442.27 1538.54 L1442.27 1528.42 L1448.15 1528.42 Z" fill="#000000" fill-rule="evenodd" fill-opacity="1" /><path clip-path="url(#clip950)" d="M1498.41 1554.9 L1498.41 1557.76 L1471.49 1557.76 Q1471.87 1563.81 1475.11 1566.99 Q1478.39 1570.14 1484.22 1570.14 Q1487.59 1570.14 1490.74 1569.32 Q1493.92 1568.49 1497.04 1566.83 L1497.04 1572.37 Q1493.89 1573.71 1490.58 1574.41 Q1487.27 1575.11 1483.87 1575.11 Q1475.34 1575.11 1470.34 1570.14 Q1465.37 1565.18 1465.37 1556.71 Q1465.37 1547.96 1470.08 1542.83 Q1474.83 1537.68 1482.85 1537.68 Q1490.04 1537.68 1494.21 1542.33 Q1498.41 1546.94 1498.41 1554.9 M1492.56 1553.18 Q1492.49 1548.37 1489.85 1545.51 Q1487.24 1542.64 1482.91 1542.64 Q1478.01 1542.64 1475.05 1545.41 Q1472.12 1548.18 1471.68 1553.21 L1492.56 1553.18 Z" fill="#000000" fill-rule="evenodd" fill-opacity="1" /><path clip-path="url(#clip950)" d="M1530.75 1539.59 L1530.75 1545.13 Q1528.27 1543.85 1525.59 1543.22 Q1522.92 1542.58 1520.06 1542.58 Q1515.69 1542.58 1513.5 1543.92 Q1511.33 1545.25 1511.33 1547.93 Q1511.33 1549.96 1512.89 1551.14 Q1514.45 1552.29 1519.16 1553.34 L1521.17 1553.78 Q1527.41 1555.12 1530.02 1557.57 Q1532.66 1559.99 1532.66 1564.35 Q1532.66 1569.32 1528.71 1572.21 Q1524.8 1575.11 1517.92 1575.11 Q1515.06 1575.11 1511.94 1574.54 Q1508.85 1573.99 1505.41 1572.88 L1505.41 1566.83 Q1508.66 1568.52 1511.81 1569.38 Q1514.96 1570.21 1518.05 1570.21 Q1522.19 1570.21 1524.42 1568.81 Q1526.64 1567.37 1526.64 1564.8 Q1526.64 1562.41 1525.02 1561.14 Q1523.43 1559.86 1517.99 1558.68 L1515.95 1558.21 Q1510.51 1557.06 1508.09 1554.71 Q1505.67 1552.32 1505.67 1548.18 Q1505.67 1543.15 1509.23 1540.42 Q1512.8 1537.68 1519.36 1537.68 Q1522.6 1537.68 1525.47 1538.16 Q1528.33 1538.63 1530.75 1539.59 Z" fill="#000000" fill-rule="evenodd" fill-opacity="1" /><path clip-path="url(#clip950)" d="M1541.06 1524.72 L1546.15 1524.72 Q1550.93 1532.24 1553.28 1539.43 Q1555.67 1546.62 1555.67 1553.72 Q1555.67 1560.85 1553.28 1568.07 Q1550.93 1575.3 1546.15 1582.78 L1541.06 1582.78 Q1545.3 1575.49 1547.36 1568.3 Q1549.47 1561.07 1549.47 1553.72 Q1549.47 1546.37 1547.36 1539.21 Q1545.3 1532.04 1541.06 1524.72 Z" fill="#000000" fill-rule="evenodd" fill-opacity="1" /><polyline clip-path="url(#clip952)" style="stroke:#000000; stroke-linecap:butt; stroke-linejoin:round; stroke-width:2; stroke-opacity:0.1; fill:none" points="
  222.69,1410.9 2352.76,1410.9 
  "/>
<polyline clip-path="url(#clip952)" style="stroke:#000000; stroke-linecap:butt; stroke-linejoin:round; stroke-width:2; stroke-opacity:0.1; fill:none" points="
  222.69,1153.41 2352.76,1153.41 
  "/>
<polyline clip-path="url(#clip952)" style="stroke:#000000; stroke-linecap:butt; stroke-linejoin:round; stroke-width:2; stroke-opacity:0.1; fill:none" points="
  222.69,895.927 2352.76,895.927 
  "/>
<polyline clip-path="url(#clip952)" style="stroke:#000000; stroke-linecap:butt; stroke-linejoin:round; stroke-width:2; stroke-opacity:0.1; fill:none" points="
  222.69,638.442 2352.76,638.442 
  "/>
<polyline clip-path="url(#clip952)" style="stroke:#000000; stroke-linecap:butt; stroke-linejoin:round; stroke-width:2; stroke-opacity:0.1; fill:none" points="
  222.69,380.957 2352.76,380.957 
  "/>
<polyline clip-path="url(#clip952)" style="stroke:#000000; stroke-linecap:butt; stroke-linejoin:round; stroke-width:2; stroke-opacity:0.1; fill:none" points="
  222.69,123.472 2352.76,123.472 
  "/>
<polyline clip-path="url(#clip950)" style="stroke:#000000; stroke-linecap:butt; stroke-linejoin:round; stroke-width:4; stroke-opacity:1; fill:none" points="
  222.69,1410.9 222.69,123.472 
  "/>
<polyline clip-path="url(#clip950)" style="stroke:#000000; stroke-linecap:butt; stroke-linejoin:round; stroke-width:4; stroke-opacity:1; fill:none" points="
  222.69,1410.9 241.588,1410.9 
  "/>
<polyline clip-path="url(#clip950)" style="stroke:#000000; stroke-linecap:butt; stroke-linejoin:round; stroke-width:4; stroke-opacity:1; fill:none" points="
  222.69,1153.41 241.588,1153.41 
  "/>
<polyline clip-path="url(#clip950)" style="stroke:#000000; stroke-linecap:butt; stroke-linejoin:round; stroke-width:4; stroke-opacity:1; fill:none" points="
  222.69,895.927 241.588,895.927 
  "/>
<polyline clip-path="url(#clip950)" style="stroke:#000000; stroke-linecap:butt; stroke-linejoin:round; stroke-width:4; stroke-opacity:1; fill:none" points="
  222.69,638.442 241.588,638.442 
  "/>
<polyline clip-path="url(#clip950)" style="stroke:#000000; stroke-linecap:butt; stroke-linejoin:round; stroke-width:4; stroke-opacity:1; fill:none" points="
  222.69,380.957 241.588,380.957 
  "/>
<polyline clip-path="url(#clip950)" style="stroke:#000000; stroke-linecap:butt; stroke-linejoin:round; stroke-width:4; stroke-opacity:1; fill:none" points="
  222.69,123.472 241.588,123.472 
  "/>
<path clip-path="url(#clip950)" d="M115.985 1430.69 L123.624 1430.69 L123.624 1404.32 L115.313 1405.99 L115.313 1401.73 L123.577 1400.06 L128.253 1400.06 L128.253 1430.69 L135.892 1430.69 L135.892 1434.62 L115.985 1434.62 L115.985 1430.69 Z" fill="#000000" fill-rule="evenodd" fill-opacity="1" /><path clip-path="url(#clip950)" d="M155.336 1403.14 Q151.725 1403.14 149.897 1406.71 Q148.091 1410.25 148.091 1417.38 Q148.091 1424.49 149.897 1428.05 Q151.725 1431.59 155.336 1431.59 Q158.971 1431.59 160.776 1428.05 Q162.605 1424.49 162.605 1417.38 Q162.605 1410.25 160.776 1406.71 Q158.971 1403.14 155.336 1403.14 M155.336 1399.44 Q161.146 1399.44 164.202 1404.05 Q167.281 1408.63 167.281 1417.38 Q167.281 1426.11 164.202 1430.71 Q161.146 1435.3 155.336 1435.3 Q149.526 1435.3 146.447 1430.71 Q143.392 1426.11 143.392 1417.38 Q143.392 1408.63 146.447 1404.05 Q149.526 1399.44 155.336 1399.44 Z" fill="#000000" fill-rule="evenodd" fill-opacity="1" /><path clip-path="url(#clip950)" d="M176.986 1381.64 Q174.052 1381.64 172.566 1384.53 Q171.099 1387.41 171.099 1393.2 Q171.099 1398.98 172.566 1401.87 Q174.052 1404.75 176.986 1404.75 Q179.938 1404.75 181.405 1401.87 Q182.891 1398.98 182.891 1393.2 Q182.891 1387.41 181.405 1384.53 Q179.938 1381.64 176.986 1381.64 M176.986 1378.63 Q181.706 1378.63 184.189 1382.37 Q186.69 1386.09 186.69 1393.2 Q186.69 1400.29 184.189 1404.04 Q181.706 1407.76 176.986 1407.76 Q172.265 1407.76 169.763 1404.04 Q167.281 1400.29 167.281 1393.2 Q167.281 1386.09 169.763 1382.37 Q172.265 1378.63 176.986 1378.63 Z" fill="#000000" fill-rule="evenodd" fill-opacity="1" /><path clip-path="url(#clip950)" d="M118.674 1173.2 L126.313 1173.2 L126.313 1146.84 L118.003 1148.51 L118.003 1144.25 L126.267 1142.58 L130.943 1142.58 L130.943 1173.2 L138.581 1173.2 L138.581 1177.14 L118.674 1177.14 L118.674 1173.2 Z" fill="#000000" fill-rule="evenodd" fill-opacity="1" /><path clip-path="url(#clip950)" d="M158.026 1145.66 Q154.415 1145.66 152.586 1149.22 Q150.781 1152.76 150.781 1159.89 Q150.781 1167 152.586 1170.57 Q154.415 1174.11 158.026 1174.11 Q161.66 1174.11 163.466 1170.57 Q165.294 1167 165.294 1159.89 Q165.294 1152.76 163.466 1149.22 Q161.66 1145.66 158.026 1145.66 M158.026 1141.95 Q163.836 1141.95 166.892 1146.56 Q169.97 1151.14 169.97 1159.89 Q169.97 1168.62 166.892 1173.23 Q163.836 1177.81 158.026 1177.81 Q152.216 1177.81 149.137 1173.23 Q146.081 1168.62 146.081 1159.89 Q146.081 1151.14 149.137 1146.56 Q152.216 1141.95 158.026 1141.95 Z" fill="#000000" fill-rule="evenodd" fill-opacity="1" /><path clip-path="url(#clip950)" d="M170.516 1146.53 L176.722 1146.53 L176.722 1125.11 L169.97 1126.46 L169.97 1123 L176.685 1121.65 L180.484 1121.65 L180.484 1146.53 L186.69 1146.53 L186.69 1149.73 L170.516 1149.73 L170.516 1146.53 Z" fill="#000000" fill-rule="evenodd" fill-opacity="1" /><path clip-path="url(#clip950)" d="M117.565 915.719 L125.203 915.719 L125.203 889.354 L116.893 891.02 L116.893 886.761 L125.157 885.094 L129.833 885.094 L129.833 915.719 L137.472 915.719 L137.472 919.654 L117.565 919.654 L117.565 915.719 Z" fill="#000000" fill-rule="evenodd" fill-opacity="1" /><path clip-path="url(#clip950)" d="M156.916 888.173 Q153.305 888.173 151.476 891.738 Q149.671 895.28 149.671 902.409 Q149.671 909.516 151.476 913.08 Q153.305 916.622 156.916 916.622 Q160.55 916.622 162.356 913.08 Q164.185 909.516 164.185 902.409 Q164.185 895.28 162.356 891.738 Q160.55 888.173 156.916 888.173 M156.916 884.469 Q162.726 884.469 165.782 889.076 Q168.861 893.659 168.861 902.409 Q168.861 911.136 165.782 915.742 Q162.726 920.326 156.916 920.326 Q151.106 920.326 148.027 915.742 Q144.972 911.136 144.972 902.409 Q144.972 893.659 148.027 889.076 Q151.106 884.469 156.916 884.469 Z" fill="#000000" fill-rule="evenodd" fill-opacity="1" /><path clip-path="url(#clip950)" d="M173.431 889.047 L186.69 889.047 L186.69 892.244 L168.861 892.244 L168.861 889.047 Q171.023 886.809 174.747 883.047 Q178.49 879.267 179.449 878.176 Q181.274 876.126 181.988 874.715 Q182.722 873.286 182.722 871.913 Q182.722 869.675 181.142 868.264 Q179.581 866.854 177.061 866.854 Q175.274 866.854 173.28 867.474 Q171.306 868.095 169.049 869.355 L169.049 865.518 Q171.343 864.597 173.337 864.126 Q175.33 863.656 176.986 863.656 Q181.349 863.656 183.944 865.838 Q186.54 868.02 186.54 871.668 Q186.54 873.399 185.882 874.96 Q185.242 876.502 183.531 878.608 Q183.06 879.154 180.54 881.768 Q178.02 884.364 173.431 889.047 Z" fill="#000000" fill-rule="evenodd" fill-opacity="1" /><path clip-path="url(#clip950)" d="M116.906 658.234 L124.545 658.234 L124.545 631.869 L116.235 633.535 L116.235 629.276 L124.499 627.61 L129.175 627.61 L129.175 658.234 L136.814 658.234 L136.814 662.17 L116.906 662.17 L116.906 658.234 Z" fill="#000000" fill-rule="evenodd" fill-opacity="1" /><path clip-path="url(#clip950)" d="M156.258 630.688 Q152.647 630.688 150.818 634.253 Q149.013 637.795 149.013 644.924 Q149.013 652.031 150.818 655.595 Q152.647 659.137 156.258 659.137 Q159.892 659.137 161.698 655.595 Q163.526 652.031 163.526 644.924 Q163.526 637.795 161.698 634.253 Q159.892 630.688 156.258 630.688 M156.258 626.985 Q162.068 626.985 165.124 631.591 Q168.202 636.174 168.202 644.924 Q168.202 653.651 165.124 658.258 Q162.068 662.841 156.258 662.841 Q150.448 662.841 147.369 658.258 Q144.314 653.651 144.314 644.924 Q144.314 636.174 147.369 631.591 Q150.448 626.985 156.258 626.985 Z" fill="#000000" fill-rule="evenodd" fill-opacity="1" /><path clip-path="url(#clip950)" d="M180.898 619.619 Q183.625 620.202 185.148 622.045 Q186.69 623.888 186.69 626.597 Q186.69 630.753 183.832 633.029 Q180.973 635.305 175.707 635.305 Q173.939 635.305 172.058 634.947 Q170.196 634.609 168.202 633.913 L168.202 630.245 Q169.782 631.167 171.663 631.637 Q173.544 632.107 175.594 632.107 Q179.167 632.107 181.029 630.697 Q182.91 629.286 182.91 626.597 Q182.91 624.114 181.161 622.722 Q179.431 621.312 176.327 621.312 L173.055 621.312 L173.055 618.189 L176.478 618.189 Q179.28 618.189 180.766 617.08 Q182.252 615.951 182.252 613.845 Q182.252 611.682 180.709 610.535 Q179.186 609.369 176.327 609.369 Q174.766 609.369 172.979 609.707 Q171.193 610.046 169.049 610.76 L169.049 607.375 Q171.212 606.773 173.092 606.472 Q174.992 606.171 176.666 606.171 Q180.992 606.171 183.512 608.146 Q186.032 610.102 186.032 613.45 Q186.032 615.782 184.697 617.4 Q183.361 618.998 180.898 619.619 Z" fill="#000000" fill-rule="evenodd" fill-opacity="1" /><path clip-path="url(#clip950)" d="M114.931 400.749 L122.57 400.749 L122.57 374.384 L114.26 376.051 L114.26 371.791 L122.524 370.125 L127.2 370.125 L127.2 400.749 L134.839 400.749 L134.839 404.685 L114.931 404.685 L114.931 400.749 Z" fill="#000000" fill-rule="evenodd" fill-opacity="1" /><path clip-path="url(#clip950)" d="M154.283 373.203 Q150.672 373.203 148.843 376.768 Q147.038 380.31 147.038 387.439 Q147.038 394.546 148.843 398.111 Q150.672 401.652 154.283 401.652 Q157.917 401.652 159.723 398.111 Q161.552 394.546 161.552 387.439 Q161.552 380.31 159.723 376.768 Q157.917 373.203 154.283 373.203 M154.283 369.5 Q160.093 369.5 163.149 374.106 Q166.227 378.689 166.227 387.439 Q166.227 396.166 163.149 400.773 Q160.093 405.356 154.283 405.356 Q148.473 405.356 145.394 400.773 Q142.339 396.166 142.339 387.439 Q142.339 378.689 145.394 374.106 Q148.473 369.5 154.283 369.5 Z" fill="#000000" fill-rule="evenodd" fill-opacity="1" /><path clip-path="url(#clip950)" d="M178.904 352.504 L169.312 367.494 L178.904 367.494 L178.904 352.504 M177.907 349.194 L182.684 349.194 L182.684 367.494 L186.69 367.494 L186.69 370.654 L182.684 370.654 L182.684 377.274 L178.904 377.274 L178.904 370.654 L166.227 370.654 L166.227 366.986 L177.907 349.194 Z" fill="#000000" fill-rule="evenodd" fill-opacity="1" /><path clip-path="url(#clip950)" d="M117.226 143.265 L124.865 143.265 L124.865 116.899 L116.555 118.566 L116.555 114.306 L124.819 112.64 L129.494 112.64 L129.494 143.265 L137.133 143.265 L137.133 147.2 L117.226 147.2 L117.226 143.265 Z" fill="#000000" fill-rule="evenodd" fill-opacity="1" /><path clip-path="url(#clip950)" d="M156.578 115.718 Q152.967 115.718 151.138 119.283 Q149.332 122.825 149.332 129.954 Q149.332 137.061 151.138 140.626 Q152.967 144.167 156.578 144.167 Q160.212 144.167 162.017 140.626 Q163.846 137.061 163.846 129.954 Q163.846 122.825 162.017 119.283 Q160.212 115.718 156.578 115.718 M156.578 112.015 Q162.388 112.015 165.443 116.621 Q168.522 121.204 168.522 129.954 Q168.522 138.681 165.443 143.288 Q162.388 147.871 156.578 147.871 Q150.767 147.871 147.689 143.288 Q144.633 138.681 144.633 129.954 Q144.633 121.204 147.689 116.621 Q150.767 112.015 156.578 112.015 Z" fill="#000000" fill-rule="evenodd" fill-opacity="1" /><path clip-path="url(#clip950)" d="M169.707 91.7093 L184.621 91.7093 L184.621 94.9066 L173.186 94.9066 L173.186 101.79 Q174.014 101.508 174.841 101.377 Q175.669 101.226 176.497 101.226 Q181.198 101.226 183.944 103.803 Q186.69 106.379 186.69 110.78 Q186.69 115.313 183.869 117.833 Q181.048 120.335 175.913 120.335 Q174.146 120.335 172.302 120.034 Q170.478 119.733 168.522 119.131 L168.522 115.313 Q170.215 116.235 172.02 116.686 Q173.826 117.137 175.838 117.137 Q179.092 117.137 180.992 115.426 Q182.891 113.714 182.891 110.78 Q182.891 107.846 180.992 106.135 Q179.092 104.423 175.838 104.423 Q174.315 104.423 172.791 104.762 Q171.287 105.1 169.707 105.815 L169.707 91.7093 Z" fill="#000000" fill-rule="evenodd" fill-opacity="1" /><path clip-path="url(#clip950)" d="M46.212 1021.69 Q39.7508 1021.69 36.0905 1024.36 Q32.3984 1027 32.3984 1031.65 Q32.3984 1036.29 36.0905 1038.97 Q39.7508 1041.61 46.212 1041.61 Q52.6732 1041.61 56.3653 1038.97 Q60.0256 1036.29 60.0256 1031.65 Q60.0256 1027 56.3653 1024.36 Q52.6732 1021.69 46.212 1021.69 M33.7671 1041.61 Q30.5842 1039.76 29.0564 1036.96 Q27.4968 1034.13 27.4968 1030.22 Q27.4968 1023.72 32.6531 1019.68 Q37.8093 1015.61 46.212 1015.61 Q54.6147 1015.61 59.771 1019.68 Q64.9272 1023.72 64.9272 1030.22 Q64.9272 1034.13 63.3994 1036.96 Q61.8398 1039.76 58.657 1041.61 L64.0042 1041.61 L64.0042 1047.5 L14.479 1047.5 L14.479 1041.61 L33.7671 1041.61 Z" fill="#000000" fill-rule="evenodd" fill-opacity="1" /><path clip-path="url(#clip950)" d="M46.0847 989.698 Q46.0847 996.795 47.7079 999.533 Q49.3312 1002.27 53.2461 1002.27 Q56.3653 1002.27 58.2114 1000.23 Q60.0256 998.164 60.0256 994.631 Q60.0256 989.761 56.5881 986.833 Q53.1188 983.873 47.3897 983.873 L46.0847 983.873 L46.0847 989.698 M43.6657 978.017 L64.0042 978.017 L64.0042 983.873 L58.5933 983.873 Q61.8398 985.878 63.3994 988.87 Q64.9272 991.862 64.9272 996.191 Q64.9272 1001.67 61.8716 1004.91 Q58.7843 1008.13 53.6281 1008.13 Q47.6125 1008.13 44.5569 1004.12 Q41.5014 1000.07 41.5014 992.085 L41.5014 983.873 L40.9285 983.873 Q36.8862 983.873 34.6901 986.547 Q32.4621 989.188 32.4621 993.995 Q32.4621 997.05 33.1941 999.946 Q33.9262 1002.84 35.3903 1005.52 L29.9795 1005.52 Q28.7381 1002.3 28.1334 999.278 Q27.4968 996.254 27.4968 993.39 Q27.4968 985.655 31.5072 981.836 Q35.5176 978.017 43.6657 978.017 Z" fill="#000000" fill-rule="evenodd" fill-opacity="1" /><path clip-path="url(#clip950)" d="M42.4881 936.321 L64.0042 936.321 L64.0042 942.178 L42.679 942.178 Q37.6183 942.178 35.1038 944.151 Q32.5894 946.124 32.5894 950.071 Q32.5894 954.814 35.6131 957.551 Q38.6368 960.288 43.8567 960.288 L64.0042 960.288 L64.0042 966.176 L28.3562 966.176 L28.3562 960.288 L33.8944 960.288 Q30.6797 958.187 29.0883 955.355 Q27.4968 952.49 27.4968 948.766 Q27.4968 942.623 31.3163 939.472 Q35.1038 936.321 42.4881 936.321 Z" fill="#000000" fill-rule="evenodd" fill-opacity="1" /><path clip-path="url(#clip950)" d="M33.7671 901.183 L14.479 901.183 L14.479 895.326 L64.0042 895.326 L64.0042 901.183 L58.657 901.183 Q61.8398 903.029 63.3994 905.861 Q64.9272 908.662 64.9272 912.609 Q64.9272 919.07 59.771 923.144 Q54.6147 927.186 46.212 927.186 Q37.8093 927.186 32.6531 923.144 Q27.4968 919.07 27.4968 912.609 Q27.4968 908.662 29.0564 905.861 Q30.5842 903.029 33.7671 901.183 M46.212 921.139 Q52.6732 921.139 56.3653 918.497 Q60.0256 915.824 60.0256 911.177 Q60.0256 906.53 56.3653 903.856 Q52.6732 901.183 46.212 901.183 Q39.7508 901.183 36.0905 903.856 Q32.3984 906.53 32.3984 911.177 Q32.3984 915.824 36.0905 918.497 Q39.7508 921.139 46.212 921.139 Z" fill="#000000" fill-rule="evenodd" fill-opacity="1" /><path clip-path="url(#clip950)" d="M28.3562 886.669 L28.3562 880.812 L56.1743 873.492 L28.3562 866.203 L28.3562 859.296 L56.1743 851.976 L28.3562 844.687 L28.3562 838.83 L64.0042 848.156 L64.0042 855.063 L34.7856 862.734 L64.0042 870.436 L64.0042 877.343 L28.3562 886.669 Z" fill="#000000" fill-rule="evenodd" fill-opacity="1" /><path clip-path="url(#clip950)" d="M28.3562 829.95 L28.3562 824.094 L64.0042 824.094 L64.0042 829.95 L28.3562 829.95 M14.479 829.95 L14.479 824.094 L21.895 824.094 L21.895 829.95 L14.479 829.95 Z" fill="#000000" fill-rule="evenodd" fill-opacity="1" /><path clip-path="url(#clip950)" d="M33.7671 788.382 L14.479 788.382 L14.479 782.526 L64.0042 782.526 L64.0042 788.382 L58.657 788.382 Q61.8398 790.228 63.3994 793.061 Q64.9272 795.862 64.9272 799.809 Q64.9272 806.27 59.771 810.344 Q54.6147 814.386 46.212 814.386 Q37.8093 814.386 32.6531 810.344 Q27.4968 806.27 27.4968 799.809 Q27.4968 795.862 29.0564 793.061 Q30.5842 790.228 33.7671 788.382 M46.212 808.339 Q52.6732 808.339 56.3653 805.697 Q60.0256 803.023 60.0256 798.376 Q60.0256 793.729 56.3653 791.056 Q52.6732 788.382 46.212 788.382 Q39.7508 788.382 36.0905 791.056 Q32.3984 793.729 32.3984 798.376 Q32.3984 803.023 36.0905 805.697 Q39.7508 808.339 46.212 808.339 Z" fill="#000000" fill-rule="evenodd" fill-opacity="1" /><path clip-path="url(#clip950)" d="M18.2347 764.67 L28.3562 764.67 L28.3562 752.607 L32.9077 752.607 L32.9077 764.67 L52.2594 764.67 Q56.6199 764.67 57.8613 763.492 Q59.1026 762.283 59.1026 758.623 L59.1026 752.607 L64.0042 752.607 L64.0042 758.623 Q64.0042 765.402 61.4897 767.98 Q58.9434 770.558 52.2594 770.558 L32.9077 770.558 L32.9077 774.855 L28.3562 774.855 L28.3562 770.558 L18.2347 770.558 L18.2347 764.67 Z" fill="#000000" fill-rule="evenodd" fill-opacity="1" /><path clip-path="url(#clip950)" d="M42.4881 715.272 L64.0042 715.272 L64.0042 721.128 L42.679 721.128 Q37.6183 721.128 35.1038 723.102 Q32.5894 725.075 32.5894 729.022 Q32.5894 733.764 35.6131 736.502 Q38.6368 739.239 43.8567 739.239 L64.0042 739.239 L64.0042 745.127 L14.479 745.127 L14.479 739.239 L33.8944 739.239 Q30.6797 737.138 29.0883 734.306 Q27.4968 731.441 27.4968 727.717 Q27.4968 721.574 31.3163 718.423 Q35.1038 715.272 42.4881 715.272 Z" fill="#000000" fill-rule="evenodd" fill-opacity="1" /><path clip-path="url(#clip950)" d="M14.5426 668.802 Q21.8632 673.067 29.0246 675.136 Q36.186 677.205 43.5384 677.205 Q50.8908 677.205 58.1159 675.136 Q65.3091 673.036 72.5979 668.802 L72.5979 673.895 Q65.1182 678.669 57.8931 681.056 Q50.668 683.412 43.5384 683.412 Q36.4406 683.412 29.2474 681.056 Q22.0542 678.701 14.5426 673.895 L14.5426 668.802 Z" fill="#000000" fill-rule="evenodd" fill-opacity="1" /><path clip-path="url(#clip950)" d="M16.4842 657.185 L16.4842 647.605 L48.8219 635.478 L16.4842 623.288 L16.4842 613.707 L64.0042 613.707 L64.0042 619.977 L22.277 619.977 L54.8694 632.231 L54.8694 638.693 L22.277 650.947 L64.0042 650.947 L64.0042 657.185 L16.4842 657.185 Z" fill="#000000" fill-rule="evenodd" fill-opacity="1" /><path clip-path="url(#clip950)" d="M41.3104 594.515 L58.7206 594.515 L58.7206 584.202 Q58.7206 579.014 56.5881 576.531 Q54.4238 574.017 49.9996 574.017 Q45.5436 574.017 43.4429 576.531 Q41.3104 579.014 41.3104 584.202 L41.3104 594.515 M21.7677 594.515 L36.0905 594.515 L36.0905 584.998 Q36.0905 580.287 34.34 577.996 Q32.5576 575.672 28.9291 575.672 Q25.3325 575.672 23.5501 577.996 Q21.7677 580.287 21.7677 584.998 L21.7677 594.515 M16.4842 600.944 L16.4842 584.52 Q16.4842 577.168 19.5397 573.189 Q22.5952 569.211 28.2289 569.211 Q32.5894 569.211 35.1675 571.248 Q37.7456 573.285 38.3822 577.232 Q39.4007 572.489 42.6472 569.879 Q45.8619 567.238 50.6998 567.238 Q57.0655 567.238 60.5348 571.566 Q64.0042 575.895 64.0042 583.884 L64.0042 600.944 L16.4842 600.944 Z" fill="#000000" fill-rule="evenodd" fill-opacity="1" /><path clip-path="url(#clip950)" d="M16.4842 546.072 L16.4842 540.661 L70.0516 557.212 L70.0516 562.622 L16.4842 546.072 Z" fill="#000000" fill-rule="evenodd" fill-opacity="1" /><path clip-path="url(#clip950)" d="M29.4065 511.792 L34.9447 511.792 Q33.6716 514.275 33.035 516.948 Q32.3984 519.622 32.3984 522.487 Q32.3984 526.847 33.7352 529.043 Q35.072 531.208 37.7456 531.208 Q39.7826 531.208 40.9603 529.648 Q42.1061 528.088 43.1565 523.378 L43.6021 521.373 Q44.9389 515.134 47.3897 512.524 Q49.8086 509.883 54.1691 509.883 Q59.1344 509.883 62.0308 513.829 Q64.9272 517.744 64.9272 524.619 Q64.9272 527.484 64.3543 530.603 Q63.8132 533.69 62.6992 537.128 L56.6518 537.128 Q58.3387 533.881 59.198 530.73 Q60.0256 527.579 60.0256 524.492 Q60.0256 520.354 58.6251 518.126 Q57.1929 515.898 54.6147 515.898 Q52.2276 515.898 50.9545 517.521 Q49.6813 519.113 48.5037 524.555 L48.0262 526.593 Q46.8804 532.035 44.5251 534.454 Q42.138 536.873 38.0002 536.873 Q32.9713 536.873 30.2341 533.308 Q27.4968 529.744 27.4968 523.187 Q27.4968 519.94 27.9743 517.076 Q28.4517 514.211 29.4065 511.792 Z" fill="#000000" fill-rule="evenodd" fill-opacity="1" /><path clip-path="url(#clip950)" d="M14.5426 501.48 L14.5426 496.387 Q22.0542 491.613 29.2474 489.258 Q36.4406 486.87 43.5384 486.87 Q50.668 486.87 57.8931 489.258 Q65.1182 491.613 72.5979 496.387 L72.5979 501.48 Q65.3091 497.247 58.1159 495.178 Q50.8908 493.077 43.5384 493.077 Q36.186 493.077 29.0246 495.178 Q21.8632 497.247 14.5426 501.48 Z" fill="#000000" fill-rule="evenodd" fill-opacity="1" /><path clip-path="url(#clip950)" d="M939.447 12.096 L951.64 12.096 L967.074 53.2532 L982.589 12.096 L994.782 12.096 L994.782 72.576 L986.802 72.576 L986.802 19.4686 L971.206 60.9499 L962.982 60.9499 L947.386 19.4686 L947.386 72.576 L939.447 72.576 L939.447 12.096 Z" fill="#000000" fill-rule="evenodd" fill-opacity="1" /><path clip-path="url(#clip950)" d="M1019.21 18.8205 L1019.21 41.5461 L1029.5 41.5461 Q1035.21 41.5461 1038.33 38.5889 Q1041.45 35.6318 1041.45 30.163 Q1041.45 24.7348 1038.33 21.7777 Q1035.21 18.8205 1029.5 18.8205 L1019.21 18.8205 M1011.03 12.096 L1029.5 12.096 Q1039.67 12.096 1044.85 16.714 Q1050.08 21.2916 1050.08 30.163 Q1050.08 39.1155 1044.85 43.6931 Q1039.67 48.2706 1029.5 48.2706 L1019.21 48.2706 L1019.21 72.576 L1011.03 72.576 L1011.03 12.096 Z" fill="#000000" fill-rule="evenodd" fill-opacity="1" /><path clip-path="url(#clip950)" d="M1061.05 12.096 L1069.24 12.096 L1069.24 72.576 L1061.05 72.576 L1061.05 12.096 Z" fill="#000000" fill-rule="evenodd" fill-opacity="1" /><path clip-path="url(#clip950)" d="M1130.81 16.7545 L1130.81 25.383 Q1126.68 21.5346 1121.98 19.6307 Q1117.32 17.7268 1112.06 17.7268 Q1101.69 17.7268 1096.18 24.0867 Q1090.67 30.4061 1090.67 42.3968 Q1090.67 54.3469 1096.18 60.7069 Q1101.69 67.0263 1112.06 67.0263 Q1117.32 67.0263 1121.98 65.1223 Q1126.68 63.2184 1130.81 59.3701 L1130.81 67.9175 Q1126.52 70.8341 1121.7 72.2924 Q1116.92 73.7508 1111.57 73.7508 Q1097.84 73.7508 1089.94 65.3654 Q1082.04 56.9395 1082.04 42.3968 Q1082.04 27.8135 1089.94 19.4281 Q1097.84 11.0023 1111.57 11.0023 Q1117 11.0023 1121.78 12.4606 Q1126.6 13.8784 1130.81 16.7545 Z" fill="#000000" fill-rule="evenodd" fill-opacity="1" /><path clip-path="url(#clip950)" d="M1143.45 12.096 L1151.63 12.096 L1151.63 36.8875 L1181.37 36.8875 L1181.37 12.096 L1189.55 12.096 L1189.55 72.576 L1181.37 72.576 L1181.37 43.7741 L1151.63 43.7741 L1151.63 72.576 L1143.45 72.576 L1143.45 12.096 Z" fill="#000000" fill-rule="evenodd" fill-opacity="1" /><path clip-path="url(#clip950)" d="M1257.73 39.9662 Q1263.6 41.222 1266.88 45.1919 Q1270.2 49.1618 1270.2 54.9951 Q1270.2 63.9476 1264.05 68.8492 Q1257.89 73.7508 1246.55 73.7508 Q1242.74 73.7508 1238.69 72.9811 Q1234.68 72.2519 1230.38 70.7531 L1230.38 62.8538 Q1233.79 64.8388 1237.84 65.8515 Q1241.89 66.8642 1246.3 66.8642 Q1254 66.8642 1258.01 63.826 Q1262.06 60.7879 1262.06 54.9951 Q1262.06 49.6479 1258.29 46.6502 Q1254.57 43.612 1247.88 43.612 L1240.83 43.612 L1240.83 36.8875 L1248.21 36.8875 Q1254.24 36.8875 1257.44 34.4975 Q1260.64 32.067 1260.64 27.5299 Q1260.64 22.8714 1257.32 20.4004 Q1254.04 17.8888 1247.88 17.8888 Q1244.52 17.8888 1240.67 18.618 Q1236.82 19.3471 1232.21 20.8865 L1232.21 13.5948 Q1236.86 12.2985 1240.91 11.6504 Q1245.01 11.0023 1248.61 11.0023 Q1257.93 11.0023 1263.36 15.2557 Q1268.79 19.4686 1268.79 26.6793 Q1268.79 31.7024 1265.91 35.1862 Q1263.03 38.6294 1257.73 39.9662 Z" fill="#000000" fill-rule="evenodd" fill-opacity="1" /><path clip-path="url(#clip950)" d="M1285.72 62.2867 L1294.27 62.2867 L1294.27 72.576 L1285.72 72.576 L1285.72 62.2867 Z" fill="#000000" fill-rule="evenodd" fill-opacity="1" /><path clip-path="url(#clip950)" d="M1334.57 19.2256 L1313.91 51.5113 L1334.57 51.5113 L1334.57 19.2256 M1332.42 12.096 L1342.71 12.096 L1342.71 51.5113 L1351.34 51.5113 L1351.34 58.3168 L1342.71 58.3168 L1342.71 72.576 L1334.57 72.576 L1334.57 58.3168 L1307.27 58.3168 L1307.27 50.4176 L1332.42 12.096 Z" fill="#000000" fill-rule="evenodd" fill-opacity="1" /><path clip-path="url(#clip950)" d="M1364.87 62.2867 L1373.42 62.2867 L1373.42 72.576 L1364.87 72.576 L1364.87 62.2867 Z" fill="#000000" fill-rule="evenodd" fill-opacity="1" /><path clip-path="url(#clip950)" d="M1416.04 39.9662 Q1421.91 41.222 1425.19 45.1919 Q1428.51 49.1618 1428.51 54.9951 Q1428.51 63.9476 1422.35 68.8492 Q1416.2 73.7508 1404.86 73.7508 Q1401.05 73.7508 1397 72.9811 Q1392.99 72.2519 1388.69 70.7531 L1388.69 62.8538 Q1392.09 64.8388 1396.15 65.8515 Q1400.2 66.8642 1404.61 66.8642 Q1412.31 66.8642 1416.32 63.826 Q1420.37 60.7879 1420.37 54.9951 Q1420.37 49.6479 1416.6 46.6502 Q1412.88 43.612 1406.19 43.612 L1399.14 43.612 L1399.14 36.8875 L1406.52 36.8875 Q1412.55 36.8875 1415.75 34.4975 Q1418.95 32.067 1418.95 27.5299 Q1418.95 22.8714 1415.63 20.4004 Q1412.35 17.8888 1406.19 17.8888 Q1402.83 17.8888 1398.98 18.618 Q1395.13 19.3471 1390.51 20.8865 L1390.51 13.5948 Q1395.17 12.2985 1399.22 11.6504 Q1403.32 11.0023 1406.92 11.0023 Q1416.24 11.0023 1421.67 15.2557 Q1427.09 19.4686 1427.09 26.6793 Q1427.09 31.7024 1424.22 35.1862 Q1421.34 38.6294 1416.04 39.9662 Z" fill="#000000" fill-rule="evenodd" fill-opacity="1" /><path clip-path="url(#clip950)" d="M1456.22 12.096 L1463.11 12.096 L1442.04 80.2727 L1435.16 80.2727 L1456.22 12.096 Z" fill="#000000" fill-rule="evenodd" fill-opacity="1" /><path clip-path="url(#clip950)" d="M1470.32 12.096 L1478.54 12.096 L1478.54 48.8377 Q1478.54 58.5599 1482.07 62.8538 Q1485.59 67.1073 1493.49 67.1073 Q1501.35 67.1073 1504.87 62.8538 Q1508.4 58.5599 1508.4 48.8377 L1508.4 12.096 L1516.62 12.096 L1516.62 49.8504 Q1516.62 61.6791 1510.75 67.7149 Q1504.91 73.7508 1493.49 73.7508 Q1482.02 73.7508 1476.15 67.7149 Q1470.32 61.6791 1470.32 49.8504 L1470.32 12.096 Z" fill="#000000" fill-rule="evenodd" fill-opacity="1" /><path clip-path="url(#clip950)" d="M1577.26 16.7545 L1577.26 25.383 Q1573.13 21.5346 1568.43 19.6307 Q1563.77 17.7268 1558.51 17.7268 Q1548.14 17.7268 1542.63 24.0867 Q1537.12 30.4061 1537.12 42.3968 Q1537.12 54.3469 1542.63 60.7069 Q1548.14 67.0263 1558.51 67.0263 Q1563.77 67.0263 1568.43 65.1223 Q1573.13 63.2184 1577.26 59.3701 L1577.26 67.9175 Q1572.97 70.8341 1568.15 72.2924 Q1563.37 73.7508 1558.02 73.7508 Q1544.29 73.7508 1536.39 65.3654 Q1528.49 56.9395 1528.49 42.3968 Q1528.49 27.8135 1536.39 19.4281 Q1544.29 11.0023 1558.02 11.0023 Q1563.45 11.0023 1568.23 12.4606 Q1573.05 13.8784 1577.26 16.7545 Z" fill="#000000" fill-rule="evenodd" fill-opacity="1" /><path clip-path="url(#clip950)" d="M1586.98 12.096 L1595.77 12.096 L1610.8 34.5785 L1625.91 12.096 L1634.7 12.096 L1615.26 41.141 L1636 72.576 L1627.21 72.576 L1610.2 46.8528 L1593.06 72.576 L1584.23 72.576 L1605.82 40.2903 L1586.98 12.096 Z" fill="#000000" fill-rule="evenodd" fill-opacity="1" /><polyline clip-path="url(#clip952)" style="stroke:#0000ff; stroke-linecap:butt; stroke-linejoin:round; stroke-width:4; stroke-opacity:1; fill:none" points="
  282.975,1210.35 374.316,1131.91 465.657,1052.12 556.997,977.584 648.338,898.712 739.679,820.801 831.02,749.171 922.36,675.113 1013.7,626.451 1105.04,556.956 
  1196.38,496.012 1287.72,444.211 1379.06,397.604 1470.4,377.28 1561.75,371.038 1653.09,367.21 1744.43,362.71 1835.77,361.093 1927.11,360.481 2018.45,360.194 
  2109.79,360.052 2201.13,360.081 2292.47,359.987 
  "/>
<circle clip-path="url(#clip952)" cx="282.975" cy="1210.35" r="14" fill="#0000ff" fill-rule="evenodd" fill-opacity="1" stroke="#000000" stroke-opacity="1" stroke-width="3.2"/>
<circle clip-path="url(#clip952)" cx="374.316" cy="1131.91" r="14" fill="#0000ff" fill-rule="evenodd" fill-opacity="1" stroke="#000000" stroke-opacity="1" stroke-width="3.2"/>
<circle clip-path="url(#clip952)" cx="465.657" cy="1052.12" r="14" fill="#0000ff" fill-rule="evenodd" fill-opacity="1" stroke="#000000" stroke-opacity="1" stroke-width="3.2"/>
<circle clip-path="url(#clip952)" cx="556.997" cy="977.584" r="14" fill="#0000ff" fill-rule="evenodd" fill-opacity="1" stroke="#000000" stroke-opacity="1" stroke-width="3.2"/>
<circle clip-path="url(#clip952)" cx="648.338" cy="898.712" r="14" fill="#0000ff" fill-rule="evenodd" fill-opacity="1" stroke="#000000" stroke-opacity="1" stroke-width="3.2"/>
<circle clip-path="url(#clip952)" cx="739.679" cy="820.801" r="14" fill="#0000ff" fill-rule="evenodd" fill-opacity="1" stroke="#000000" stroke-opacity="1" stroke-width="3.2"/>
<circle clip-path="url(#clip952)" cx="831.02" cy="749.171" r="14" fill="#0000ff" fill-rule="evenodd" fill-opacity="1" stroke="#000000" stroke-opacity="1" stroke-width="3.2"/>
<circle clip-path="url(#clip952)" cx="922.36" cy="675.113" r="14" fill="#0000ff" fill-rule="evenodd" fill-opacity="1" stroke="#000000" stroke-opacity="1" stroke-width="3.2"/>
<circle clip-path="url(#clip952)" cx="1013.7" cy="626.451" r="14" fill="#0000ff" fill-rule="evenodd" fill-opacity="1" stroke="#000000" stroke-opacity="1" stroke-width="3.2"/>
<circle clip-path="url(#clip952)" cx="1105.04" cy="556.956" r="14" fill="#0000ff" fill-rule="evenodd" fill-opacity="1" stroke="#000000" stroke-opacity="1" stroke-width="3.2"/>
<circle clip-path="url(#clip952)" cx="1196.38" cy="496.012" r="14" fill="#0000ff" fill-rule="evenodd" fill-opacity="1" stroke="#000000" stroke-opacity="1" stroke-width="3.2"/>
<circle clip-path="url(#clip952)" cx="1287.72" cy="444.211" r="14" fill="#0000ff" fill-rule="evenodd" fill-opacity="1" stroke="#000000" stroke-opacity="1" stroke-width="3.2"/>
<circle clip-path="url(#clip952)" cx="1379.06" cy="397.604" r="14" fill="#0000ff" fill-rule="evenodd" fill-opacity="1" stroke="#000000" stroke-opacity="1" stroke-width="3.2"/>
<circle clip-path="url(#clip952)" cx="1470.4" cy="377.28" r="14" fill="#0000ff" fill-rule="evenodd" fill-opacity="1" stroke="#000000" stroke-opacity="1" stroke-width="3.2"/>
<circle clip-path="url(#clip952)" cx="1561.75" cy="371.038" r="14" fill="#0000ff" fill-rule="evenodd" fill-opacity="1" stroke="#000000" stroke-opacity="1" stroke-width="3.2"/>
<circle clip-path="url(#clip952)" cx="1653.09" cy="367.21" r="14" fill="#0000ff" fill-rule="evenodd" fill-opacity="1" stroke="#000000" stroke-opacity="1" stroke-width="3.2"/>
<circle clip-path="url(#clip952)" cx="1744.43" cy="362.71" r="14" fill="#0000ff" fill-rule="evenodd" fill-opacity="1" stroke="#000000" stroke-opacity="1" stroke-width="3.2"/>
<circle clip-path="url(#clip952)" cx="1835.77" cy="361.093" r="14" fill="#0000ff" fill-rule="evenodd" fill-opacity="1" stroke="#000000" stroke-opacity="1" stroke-width="3.2"/>
<circle clip-path="url(#clip952)" cx="1927.11" cy="360.481" r="14" fill="#0000ff" fill-rule="evenodd" fill-opacity="1" stroke="#000000" stroke-opacity="1" stroke-width="3.2"/>
<circle clip-path="url(#clip952)" cx="2018.45" cy="360.194" r="14" fill="#0000ff" fill-rule="evenodd" fill-opacity="1" stroke="#000000" stroke-opacity="1" stroke-width="3.2"/>
<circle clip-path="url(#clip952)" cx="2109.79" cy="360.052" r="14" fill="#0000ff" fill-rule="evenodd" fill-opacity="1" stroke="#000000" stroke-opacity="1" stroke-width="3.2"/>
<circle clip-path="url(#clip952)" cx="2201.13" cy="360.081" r="14" fill="#0000ff" fill-rule="evenodd" fill-opacity="1" stroke="#000000" stroke-opacity="1" stroke-width="3.2"/>
<circle clip-path="url(#clip952)" cx="2292.47" cy="359.987" r="14" fill="#0000ff" fill-rule="evenodd" fill-opacity="1" stroke="#000000" stroke-opacity="1" stroke-width="3.2"/>
<polyline clip-path="url(#clip952)" style="stroke:#ff0000; stroke-linecap:butt; stroke-linejoin:round; stroke-width:4; stroke-opacity:1; fill:none" points="
  282.975,1220.67 374.316,1139.84 556.997,983.885 739.679,830.018 831.02,756.504 922.36,684.714 1013.7,634.743 1105.04,563.986 1196.38,502.403 1287.72,459.418 
  1379.06,445.129 1470.4,437.202 1561.75,434.151 1653.09,432.212 1744.43,430.932 1835.77,429.882 1927.11,429.582 2018.45,429.409 2109.79,429.304 2201.13,429.314 
  2292.47,429.251 
  "/>
<circle clip-path="url(#clip952)" cx="282.975" cy="1220.67" r="14" fill="#ff0000" fill-rule="evenodd" fill-opacity="1" stroke="#000000" stroke-opacity="1" stroke-width="3.2"/>
<circle clip-path="url(#clip952)" cx="374.316" cy="1139.84" r="14" fill="#ff0000" fill-rule="evenodd" fill-opacity="1" stroke="#000000" stroke-opacity="1" stroke-width="3.2"/>
<circle clip-path="url(#clip952)" cx="556.997" cy="983.885" r="14" fill="#ff0000" fill-rule="evenodd" fill-opacity="1" stroke="#000000" stroke-opacity="1" stroke-width="3.2"/>
<circle clip-path="url(#clip952)" cx="739.679" cy="830.018" r="14" fill="#ff0000" fill-rule="evenodd" fill-opacity="1" stroke="#000000" stroke-opacity="1" stroke-width="3.2"/>
<circle clip-path="url(#clip952)" cx="831.02" cy="756.504" r="14" fill="#ff0000" fill-rule="evenodd" fill-opacity="1" stroke="#000000" stroke-opacity="1" stroke-width="3.2"/>
<circle clip-path="url(#clip952)" cx="922.36" cy="684.714" r="14" fill="#ff0000" fill-rule="evenodd" fill-opacity="1" stroke="#000000" stroke-opacity="1" stroke-width="3.2"/>
<circle clip-path="url(#clip952)" cx="1013.7" cy="634.743" r="14" fill="#ff0000" fill-rule="evenodd" fill-opacity="1" stroke="#000000" stroke-opacity="1" stroke-width="3.2"/>
<circle clip-path="url(#clip952)" cx="1105.04" cy="563.986" r="14" fill="#ff0000" fill-rule="evenodd" fill-opacity="1" stroke="#000000" stroke-opacity="1" stroke-width="3.2"/>
<circle clip-path="url(#clip952)" cx="1196.38" cy="502.403" r="14" fill="#ff0000" fill-rule="evenodd" fill-opacity="1" stroke="#000000" stroke-opacity="1" stroke-width="3.2"/>
<circle clip-path="url(#clip952)" cx="1287.72" cy="459.418" r="14" fill="#ff0000" fill-rule="evenodd" fill-opacity="1" stroke="#000000" stroke-opacity="1" stroke-width="3.2"/>
<circle clip-path="url(#clip952)" cx="1379.06" cy="445.129" r="14" fill="#ff0000" fill-rule="evenodd" fill-opacity="1" stroke="#000000" stroke-opacity="1" stroke-width="3.2"/>
<circle clip-path="url(#clip952)" cx="1470.4" cy="437.202" r="14" fill="#ff0000" fill-rule="evenodd" fill-opacity="1" stroke="#000000" stroke-opacity="1" stroke-width="3.2"/>
<circle clip-path="url(#clip952)" cx="1561.75" cy="434.151" r="14" fill="#ff0000" fill-rule="evenodd" fill-opacity="1" stroke="#000000" stroke-opacity="1" stroke-width="3.2"/>
<circle clip-path="url(#clip952)" cx="1653.09" cy="432.212" r="14" fill="#ff0000" fill-rule="evenodd" fill-opacity="1" stroke="#000000" stroke-opacity="1" stroke-width="3.2"/>
<circle clip-path="url(#clip952)" cx="1744.43" cy="430.932" r="14" fill="#ff0000" fill-rule="evenodd" fill-opacity="1" stroke="#000000" stroke-opacity="1" stroke-width="3.2"/>
<circle clip-path="url(#clip952)" cx="1835.77" cy="429.882" r="14" fill="#ff0000" fill-rule="evenodd" fill-opacity="1" stroke="#000000" stroke-opacity="1" stroke-width="3.2"/>
<circle clip-path="url(#clip952)" cx="1927.11" cy="429.582" r="14" fill="#ff0000" fill-rule="evenodd" fill-opacity="1" stroke="#000000" stroke-opacity="1" stroke-width="3.2"/>
<circle clip-path="url(#clip952)" cx="2018.45" cy="429.409" r="14" fill="#ff0000" fill-rule="evenodd" fill-opacity="1" stroke="#000000" stroke-opacity="1" stroke-width="3.2"/>
<circle clip-path="url(#clip952)" cx="2109.79" cy="429.304" r="14" fill="#ff0000" fill-rule="evenodd" fill-opacity="1" stroke="#000000" stroke-opacity="1" stroke-width="3.2"/>
<circle clip-path="url(#clip952)" cx="2201.13" cy="429.314" r="14" fill="#ff0000" fill-rule="evenodd" fill-opacity="1" stroke="#000000" stroke-opacity="1" stroke-width="3.2"/>
<circle clip-path="url(#clip952)" cx="2292.47" cy="429.251" r="14" fill="#ff0000" fill-rule="evenodd" fill-opacity="1" stroke="#000000" stroke-opacity="1" stroke-width="3.2"/>
<path clip-path="url(#clip950)" d="
M293.693 321.906 L1096.43 321.906 L1096.43 166.386 L293.693 166.386  Z
  " fill="#ffffff" fill-rule="evenodd" fill-opacity="1"/>
<polyline clip-path="url(#clip950)" style="stroke:#000000; stroke-linecap:butt; stroke-linejoin:round; stroke-width:4; stroke-opacity:1; fill:none" points="
  293.693,321.906 1096.43,321.906 1096.43,166.386 293.693,166.386 293.693,321.906 
  "/>
<polyline clip-path="url(#clip950)" style="stroke:#0000ff; stroke-linecap:butt; stroke-linejoin:round; stroke-width:4; stroke-opacity:1; fill:none" points="
  317.36,218.226 459.364,218.226 
  "/>
<path clip-path="url(#clip950)" d="M501.458 210.344 L501.458 214.372 Q499.652 213.446 497.708 212.983 Q495.763 212.52 493.68 212.52 Q490.508 212.52 488.911 213.493 Q487.337 214.465 487.337 216.409 Q487.337 217.891 488.471 218.747 Q489.606 219.58 493.032 220.344 L494.49 220.668 Q499.027 221.641 500.925 223.423 Q502.846 225.182 502.846 228.354 Q502.846 231.965 499.976 234.071 Q497.129 236.178 492.129 236.178 Q490.046 236.178 487.777 235.761 Q485.532 235.367 483.032 234.557 L483.032 230.159 Q485.393 231.386 487.684 232.011 Q489.976 232.613 492.221 232.613 Q495.231 232.613 496.851 231.594 Q498.471 230.553 498.471 228.678 Q498.471 226.942 497.291 226.016 Q496.133 225.09 492.175 224.233 L490.694 223.886 Q486.735 223.053 484.976 221.34 Q483.217 219.604 483.217 216.594 Q483.217 212.937 485.809 210.946 Q488.402 208.955 493.171 208.955 Q495.532 208.955 497.615 209.303 Q499.698 209.65 501.458 210.344 Z" fill="#000000" fill-rule="evenodd" fill-opacity="1" /><path clip-path="url(#clip950)" d="M521.411 222.474 Q516.249 222.474 514.258 223.654 Q512.268 224.835 512.268 227.682 Q512.268 229.951 513.749 231.293 Q515.254 232.613 517.823 232.613 Q521.365 232.613 523.494 230.113 Q525.647 227.59 525.647 223.423 L525.647 222.474 L521.411 222.474 M529.906 220.715 L529.906 235.506 L525.647 235.506 L525.647 231.571 Q524.189 233.932 522.013 235.066 Q519.837 236.178 516.689 236.178 Q512.707 236.178 510.346 233.955 Q508.008 231.71 508.008 227.96 Q508.008 223.585 510.925 221.363 Q513.865 219.141 519.675 219.141 L525.647 219.141 L525.647 218.724 Q525.647 215.784 523.703 214.187 Q521.781 212.567 518.286 212.567 Q516.064 212.567 513.957 213.099 Q511.851 213.631 509.907 214.696 L509.907 210.761 Q512.244 209.858 514.444 209.418 Q516.643 208.955 518.726 208.955 Q524.351 208.955 527.129 211.872 Q529.906 214.789 529.906 220.715 Z" fill="#000000" fill-rule="evenodd" fill-opacity="1" /><path clip-path="url(#clip950)" d="M558.865 214.557 Q560.462 211.687 562.684 210.321 Q564.906 208.955 567.915 208.955 Q571.966 208.955 574.165 211.803 Q576.365 214.627 576.365 219.858 L576.365 235.506 L572.082 235.506 L572.082 219.997 Q572.082 216.27 570.763 214.465 Q569.443 212.659 566.735 212.659 Q563.425 212.659 561.503 214.858 Q559.582 217.057 559.582 220.854 L559.582 235.506 L555.3 235.506 L555.3 219.997 Q555.3 216.247 553.98 214.465 Q552.661 212.659 549.906 212.659 Q546.642 212.659 544.721 214.881 Q542.8 217.08 542.8 220.854 L542.8 235.506 L538.517 235.506 L538.517 209.58 L542.8 209.58 L542.8 213.608 Q544.258 211.224 546.295 210.09 Q548.332 208.955 551.133 208.955 Q553.957 208.955 555.925 210.391 Q557.916 211.826 558.865 214.557 Z" fill="#000000" fill-rule="evenodd" fill-opacity="1" /><path clip-path="url(#clip950)" d="M607.036 221.479 L607.036 223.562 L587.452 223.562 Q587.73 227.96 590.091 230.275 Q592.476 232.566 596.712 232.566 Q599.165 232.566 601.457 231.965 Q603.772 231.363 606.04 230.159 L606.04 234.187 Q603.749 235.159 601.341 235.668 Q598.934 236.178 596.457 236.178 Q590.253 236.178 586.619 232.566 Q583.008 228.955 583.008 222.798 Q583.008 216.432 586.434 212.705 Q589.883 208.955 595.716 208.955 Q600.948 208.955 603.98 212.335 Q607.036 215.692 607.036 221.479 M602.776 220.229 Q602.73 216.733 600.809 214.65 Q598.911 212.567 595.763 212.567 Q592.198 212.567 590.045 214.58 Q587.915 216.594 587.591 220.252 L602.776 220.229 Z" fill="#000000" fill-rule="evenodd" fill-opacity="1" /><path clip-path="url(#clip950)" d="M629.096 199.488 L633.355 199.488 L633.355 235.506 L629.096 235.506 L629.096 199.488 Z" fill="#000000" fill-rule="evenodd" fill-opacity="1" /><path clip-path="url(#clip950)" d="M664.443 221.479 L664.443 223.562 L644.86 223.562 Q645.137 227.96 647.498 230.275 Q649.883 232.566 654.119 232.566 Q656.572 232.566 658.864 231.965 Q661.179 231.363 663.447 230.159 L663.447 234.187 Q661.156 235.159 658.748 235.668 Q656.341 236.178 653.864 236.178 Q647.66 236.178 644.026 232.566 Q640.415 228.955 640.415 222.798 Q640.415 216.432 643.841 212.705 Q647.29 208.955 653.123 208.955 Q658.355 208.955 661.387 212.335 Q664.443 215.692 664.443 221.479 M660.184 220.229 Q660.137 216.733 658.216 214.65 Q656.318 212.567 653.17 212.567 Q649.605 212.567 647.452 214.58 Q645.322 216.594 644.998 220.252 L660.184 220.229 Z" fill="#000000" fill-rule="evenodd" fill-opacity="1" /><path clip-path="url(#clip950)" d="M683.216 222.474 Q678.054 222.474 676.063 223.654 Q674.072 224.835 674.072 227.682 Q674.072 229.951 675.554 231.293 Q677.058 232.613 679.628 232.613 Q683.169 232.613 685.299 230.113 Q687.452 227.59 687.452 223.423 L687.452 222.474 L683.216 222.474 M691.711 220.715 L691.711 235.506 L687.452 235.506 L687.452 231.571 Q685.994 233.932 683.818 235.066 Q681.642 236.178 678.494 236.178 Q674.512 236.178 672.151 233.955 Q669.813 231.71 669.813 227.96 Q669.813 223.585 672.73 221.363 Q675.67 219.141 681.48 219.141 L687.452 219.141 L687.452 218.724 Q687.452 215.784 685.507 214.187 Q683.586 212.567 680.091 212.567 Q677.869 212.567 675.762 213.099 Q673.656 213.631 671.711 214.696 L671.711 210.761 Q674.049 209.858 676.248 209.418 Q678.447 208.955 680.531 208.955 Q686.156 208.955 688.933 211.872 Q691.711 214.789 691.711 220.715 Z" fill="#000000" fill-rule="evenodd" fill-opacity="1" /><path clip-path="url(#clip950)" d="M713.609 199.488 L713.609 203.03 L709.535 203.03 Q707.243 203.03 706.341 203.956 Q705.461 204.881 705.461 207.289 L705.461 209.58 L712.475 209.58 L712.475 212.891 L705.461 212.891 L705.461 235.506 L701.179 235.506 L701.179 212.891 L697.105 212.891 L697.105 209.58 L701.179 209.58 L701.179 207.775 Q701.179 203.446 703.193 201.479 Q705.206 199.488 709.581 199.488 L713.609 199.488 Z" fill="#000000" fill-rule="evenodd" fill-opacity="1" /><path clip-path="url(#clip950)" d="M748.771 210.344 L748.771 214.372 Q746.965 213.446 745.021 212.983 Q743.077 212.52 740.993 212.52 Q737.822 212.52 736.225 213.493 Q734.651 214.465 734.651 216.409 Q734.651 217.891 735.785 218.747 Q736.919 219.58 740.345 220.344 L741.803 220.668 Q746.34 221.641 748.239 223.423 Q750.16 225.182 750.16 228.354 Q750.16 231.965 747.29 234.071 Q744.442 236.178 739.442 236.178 Q737.359 236.178 735.091 235.761 Q732.845 235.367 730.345 234.557 L730.345 230.159 Q732.706 231.386 734.998 232.011 Q737.29 232.613 739.535 232.613 Q742.544 232.613 744.165 231.594 Q745.785 230.553 745.785 228.678 Q745.785 226.942 744.604 226.016 Q743.447 225.09 739.489 224.233 L738.007 223.886 Q734.049 223.053 732.29 221.34 Q730.53 219.604 730.53 216.594 Q730.53 212.937 733.123 210.946 Q735.716 208.955 740.484 208.955 Q742.845 208.955 744.928 209.303 Q747.012 209.65 748.771 210.344 Z" fill="#000000" fill-rule="evenodd" fill-opacity="1" /><path clip-path="url(#clip950)" d="M754.465 209.58 L758.725 209.58 L764.049 229.812 L769.35 209.58 L774.373 209.58 L779.697 229.812 L784.998 209.58 L789.257 209.58 L782.475 235.506 L777.451 235.506 L771.873 214.256 L766.271 235.506 L761.248 235.506 L754.465 209.58 Z" fill="#000000" fill-rule="evenodd" fill-opacity="1" /><path clip-path="url(#clip950)" d="M795.715 209.58 L799.974 209.58 L799.974 235.506 L795.715 235.506 L795.715 209.58 M795.715 199.488 L799.974 199.488 L799.974 204.881 L795.715 204.881 L795.715 199.488 Z" fill="#000000" fill-rule="evenodd" fill-opacity="1" /><path clip-path="url(#clip950)" d="M813.099 202.219 L813.099 209.58 L821.872 209.58 L821.872 212.891 L813.099 212.891 L813.099 226.965 Q813.099 230.136 813.956 231.039 Q814.835 231.941 817.497 231.941 L821.872 231.941 L821.872 235.506 L817.497 235.506 Q812.567 235.506 810.692 233.678 Q808.817 231.826 808.817 226.965 L808.817 212.891 L805.692 212.891 L805.692 209.58 L808.817 209.58 L808.817 202.219 L813.099 202.219 Z" fill="#000000" fill-rule="evenodd" fill-opacity="1" /><path clip-path="url(#clip950)" d="M846.132 210.576 L846.132 214.557 Q844.326 213.562 842.497 213.076 Q840.692 212.567 838.84 212.567 Q834.696 212.567 832.405 215.205 Q830.113 217.821 830.113 222.567 Q830.113 227.312 832.405 229.951 Q834.696 232.566 838.84 232.566 Q840.692 232.566 842.497 232.08 Q844.326 231.571 846.132 230.576 L846.132 234.511 Q844.349 235.344 842.428 235.761 Q840.53 236.178 838.377 236.178 Q832.521 236.178 829.071 232.497 Q825.622 228.816 825.622 222.567 Q825.622 216.224 829.095 212.59 Q832.59 208.955 838.655 208.955 Q840.622 208.955 842.497 209.372 Q844.372 209.766 846.132 210.576 Z" fill="#000000" fill-rule="evenodd" fill-opacity="1" /><path clip-path="url(#clip950)" d="M875.09 219.858 L875.09 235.506 L870.831 235.506 L870.831 219.997 Q870.831 216.317 869.395 214.488 Q867.96 212.659 865.09 212.659 Q861.641 212.659 859.65 214.858 Q857.659 217.057 857.659 220.854 L857.659 235.506 L853.377 235.506 L853.377 199.488 L857.659 199.488 L857.659 213.608 Q859.187 211.27 861.247 210.113 Q863.331 208.955 866.039 208.955 Q870.506 208.955 872.798 211.733 Q875.09 214.488 875.09 219.858 Z" fill="#000000" fill-rule="evenodd" fill-opacity="1" /><path clip-path="url(#clip950)" d="M908.886 199.534 Q905.784 204.858 904.279 210.067 Q902.775 215.275 902.775 220.622 Q902.775 225.969 904.279 231.224 Q905.807 236.455 908.886 241.756 L905.182 241.756 Q901.71 236.316 899.974 231.062 Q898.261 225.807 898.261 220.622 Q898.261 215.46 899.974 210.229 Q901.687 204.997 905.182 199.534 L908.886 199.534 Z" fill="#000000" fill-rule="evenodd" fill-opacity="1" /><path clip-path="url(#clip950)" d="M917.335 200.946 L939.187 200.946 L939.187 204.881 L922.011 204.881 L922.011 215.113 L938.469 215.113 L938.469 219.048 L922.011 219.048 L922.011 231.571 L939.603 231.571 L939.603 235.506 L917.335 235.506 L917.335 200.946 Z" fill="#000000" fill-rule="evenodd" fill-opacity="1" /><path clip-path="url(#clip950)" d="M951.964 204.789 L951.964 231.664 L957.612 231.664 Q964.765 231.664 968.075 228.423 Q971.409 225.182 971.409 218.192 Q971.409 211.247 968.075 208.03 Q964.765 204.789 957.612 204.789 L951.964 204.789 M947.288 200.946 L956.895 200.946 Q966.941 200.946 971.64 205.136 Q976.339 209.303 976.339 218.192 Q976.339 227.127 971.617 231.316 Q966.895 235.506 956.895 235.506 L947.288 235.506 L947.288 200.946 Z" fill="#000000" fill-rule="evenodd" fill-opacity="1" /><path clip-path="url(#clip950)" d="M1000.18 219.303 Q1001.69 219.812 1003.1 221.479 Q1004.53 223.145 1005.97 226.062 L1010.71 235.506 L1005.69 235.506 L1001.27 226.641 Q999.557 223.168 997.936 222.034 Q996.339 220.9 993.561 220.9 L988.469 220.9 L988.469 235.506 L983.793 235.506 L983.793 200.946 L994.348 200.946 Q1000.27 200.946 1003.19 203.423 Q1006.11 205.9 1006.11 210.9 Q1006.11 214.164 1004.58 216.317 Q1003.08 218.469 1000.18 219.303 M988.469 204.789 L988.469 217.057 L994.348 217.057 Q997.728 217.057 999.441 215.506 Q1001.18 213.932 1001.18 210.9 Q1001.18 207.868 999.441 206.34 Q997.728 204.789 994.348 204.789 L988.469 204.789 Z" fill="#000000" fill-rule="evenodd" fill-opacity="1" /><path clip-path="url(#clip950)" d="M1015.88 199.534 L1019.58 199.534 Q1023.05 204.997 1024.76 210.229 Q1026.5 215.46 1026.5 220.622 Q1026.5 225.807 1024.76 231.062 Q1023.05 236.316 1019.58 241.756 L1015.88 241.756 Q1018.95 236.455 1020.46 231.224 Q1021.99 225.969 1021.99 220.622 Q1021.99 215.275 1020.46 210.067 Q1018.95 204.858 1015.88 199.534 Z" fill="#000000" fill-rule="evenodd" fill-opacity="1" /><polyline clip-path="url(#clip950)" style="stroke:#ff0000; stroke-linecap:butt; stroke-linejoin:round; stroke-width:4; stroke-opacity:1; fill:none" points="
  317.36,270.066 459.364,270.066 
  "/>
<path clip-path="url(#clip950)" d="M496.434 274.314 Q491.272 274.314 489.282 275.494 Q487.291 276.675 487.291 279.522 Q487.291 281.791 488.772 283.133 Q490.277 284.453 492.846 284.453 Q496.388 284.453 498.518 281.953 Q500.67 279.43 500.67 275.263 L500.67 274.314 L496.434 274.314 M504.93 272.555 L504.93 287.346 L500.67 287.346 L500.67 283.411 Q499.212 285.772 497.036 286.906 Q494.86 288.018 491.712 288.018 Q487.731 288.018 485.37 285.795 Q483.032 283.55 483.032 279.8 Q483.032 275.425 485.948 273.203 Q488.888 270.981 494.698 270.981 L500.67 270.981 L500.67 270.564 Q500.67 267.624 498.726 266.027 Q496.805 264.407 493.309 264.407 Q491.087 264.407 488.981 264.939 Q486.874 265.471 484.93 266.536 L484.93 262.601 Q487.268 261.698 489.467 261.258 Q491.666 260.795 493.749 260.795 Q499.374 260.795 502.152 263.712 Q504.93 266.629 504.93 272.555 Z" fill="#000000" fill-rule="evenodd" fill-opacity="1" /><path clip-path="url(#clip950)" d="M532.36 262.416 L532.36 266.397 Q530.555 265.402 528.726 264.916 Q526.92 264.407 525.068 264.407 Q520.925 264.407 518.633 267.045 Q516.342 269.661 516.342 274.407 Q516.342 279.152 518.633 281.791 Q520.925 284.406 525.068 284.406 Q526.92 284.406 528.726 283.92 Q530.555 283.411 532.36 282.416 L532.36 286.351 Q530.578 287.184 528.656 287.601 Q526.758 288.018 524.606 288.018 Q518.749 288.018 515.3 284.337 Q511.851 280.656 511.851 274.407 Q511.851 268.064 515.323 264.43 Q518.819 260.795 524.883 260.795 Q526.851 260.795 528.726 261.212 Q530.601 261.606 532.36 262.416 Z" fill="#000000" fill-rule="evenodd" fill-opacity="1" /><path clip-path="url(#clip950)" d="M554.791 265.402 Q554.073 264.985 553.216 264.8 Q552.383 264.592 551.365 264.592 Q547.754 264.592 545.809 266.953 Q543.888 269.291 543.888 273.689 L543.888 287.346 L539.605 287.346 L539.605 261.42 L543.888 261.42 L543.888 265.448 Q545.23 263.087 547.383 261.953 Q549.536 260.795 552.615 260.795 Q553.054 260.795 553.587 260.865 Q554.119 260.911 554.767 261.027 L554.791 265.402 Z" fill="#000000" fill-rule="evenodd" fill-opacity="1" /><path clip-path="url(#clip950)" d="M568.263 264.407 Q564.837 264.407 562.846 267.092 Q560.855 269.754 560.855 274.407 Q560.855 279.059 562.823 281.744 Q564.814 284.406 568.263 284.406 Q571.665 284.406 573.656 281.721 Q575.647 279.036 575.647 274.407 Q575.647 269.8 573.656 267.115 Q571.665 264.407 568.263 264.407 M568.263 260.795 Q573.818 260.795 576.99 264.407 Q580.161 268.018 580.161 274.407 Q580.161 280.772 576.99 284.406 Q573.818 288.018 568.263 288.018 Q562.684 288.018 559.513 284.406 Q556.365 280.772 556.365 274.407 Q556.365 268.018 559.513 264.407 Q562.684 260.795 568.263 260.795 Z" fill="#000000" fill-rule="evenodd" fill-opacity="1" /><path clip-path="url(#clip950)" d="M603.749 262.184 L603.749 266.212 Q601.943 265.286 599.999 264.823 Q598.054 264.36 595.971 264.36 Q592.8 264.36 591.202 265.333 Q589.628 266.305 589.628 268.249 Q589.628 269.731 590.763 270.587 Q591.897 271.42 595.323 272.184 L596.781 272.508 Q601.318 273.481 603.216 275.263 Q605.138 277.022 605.138 280.194 Q605.138 283.805 602.267 285.911 Q599.42 288.018 594.42 288.018 Q592.337 288.018 590.068 287.601 Q587.823 287.207 585.323 286.397 L585.323 281.999 Q587.684 283.226 589.976 283.851 Q592.267 284.453 594.513 284.453 Q597.522 284.453 599.142 283.434 Q600.763 282.393 600.763 280.518 Q600.763 278.782 599.582 277.856 Q598.425 276.93 594.466 276.073 L592.985 275.726 Q589.026 274.893 587.267 273.18 Q585.508 271.444 585.508 268.434 Q585.508 264.777 588.101 262.786 Q590.693 260.795 595.462 260.795 Q597.823 260.795 599.906 261.143 Q601.989 261.49 603.749 262.184 Z" fill="#000000" fill-rule="evenodd" fill-opacity="1" /><path clip-path="url(#clip950)" d="M628.448 262.184 L628.448 266.212 Q626.642 265.286 624.698 264.823 Q622.753 264.36 620.67 264.36 Q617.499 264.36 615.901 265.333 Q614.327 266.305 614.327 268.249 Q614.327 269.731 615.462 270.587 Q616.596 271.42 620.022 272.184 L621.48 272.508 Q626.017 273.481 627.915 275.263 Q629.836 277.022 629.836 280.194 Q629.836 283.805 626.966 285.911 Q624.119 288.018 619.119 288.018 Q617.036 288.018 614.767 287.601 Q612.522 287.207 610.022 286.397 L610.022 281.999 Q612.383 283.226 614.674 283.851 Q616.966 284.453 619.211 284.453 Q622.221 284.453 623.841 283.434 Q625.461 282.393 625.461 280.518 Q625.461 278.782 624.281 277.856 Q623.124 276.93 619.165 276.073 L617.684 275.726 Q613.725 274.893 611.966 273.18 Q610.207 271.444 610.207 268.434 Q610.207 264.777 612.799 262.786 Q615.392 260.795 620.161 260.795 Q622.522 260.795 624.605 261.143 Q626.688 261.49 628.448 262.184 Z" fill="#000000" fill-rule="evenodd" fill-opacity="1" /><path clip-path="url(#clip950)" d="M651.688 251.328 L655.947 251.328 L655.947 287.346 L651.688 287.346 L651.688 251.328 Z" fill="#000000" fill-rule="evenodd" fill-opacity="1" /><path clip-path="url(#clip950)" d="M687.035 273.319 L687.035 275.402 L667.452 275.402 Q667.73 279.8 670.091 282.115 Q672.475 284.406 676.711 284.406 Q679.165 284.406 681.457 283.805 Q683.771 283.203 686.04 281.999 L686.04 286.027 Q683.748 286.999 681.341 287.508 Q678.933 288.018 676.457 288.018 Q670.253 288.018 666.619 284.406 Q663.008 280.795 663.008 274.638 Q663.008 268.272 666.433 264.545 Q669.883 260.795 675.716 260.795 Q680.947 260.795 683.98 264.175 Q687.035 267.532 687.035 273.319 M682.776 272.069 Q682.73 268.573 680.808 266.49 Q678.91 264.407 675.762 264.407 Q672.197 264.407 670.045 266.42 Q667.915 268.434 667.591 272.092 L682.776 272.069 Z" fill="#000000" fill-rule="evenodd" fill-opacity="1" /><path clip-path="url(#clip950)" d="M705.808 274.314 Q700.646 274.314 698.656 275.494 Q696.665 276.675 696.665 279.522 Q696.665 281.791 698.146 283.133 Q699.651 284.453 702.22 284.453 Q705.762 284.453 707.892 281.953 Q710.044 279.43 710.044 275.263 L710.044 274.314 L705.808 274.314 M714.304 272.555 L714.304 287.346 L710.044 287.346 L710.044 283.411 Q708.586 285.772 706.41 286.906 Q704.234 288.018 701.086 288.018 Q697.105 288.018 694.744 285.795 Q692.406 283.55 692.406 279.8 Q692.406 275.425 695.322 273.203 Q698.262 270.981 704.072 270.981 L710.044 270.981 L710.044 270.564 Q710.044 267.624 708.1 266.027 Q706.179 264.407 702.683 264.407 Q700.461 264.407 698.355 264.939 Q696.248 265.471 694.304 266.536 L694.304 262.601 Q696.642 261.698 698.841 261.258 Q701.04 260.795 703.123 260.795 Q708.748 260.795 711.526 263.712 Q714.304 266.629 714.304 272.555 Z" fill="#000000" fill-rule="evenodd" fill-opacity="1" /><path clip-path="url(#clip950)" d="M736.202 251.328 L736.202 254.87 L732.128 254.87 Q729.836 254.87 728.933 255.796 Q728.054 256.721 728.054 259.129 L728.054 261.42 L735.067 261.42 L735.067 264.731 L728.054 264.731 L728.054 287.346 L723.771 287.346 L723.771 264.731 L719.697 264.731 L719.697 261.42 L723.771 261.42 L723.771 259.615 Q723.771 255.286 725.785 253.319 Q727.799 251.328 732.174 251.328 L736.202 251.328 Z" fill="#000000" fill-rule="evenodd" fill-opacity="1" /><path clip-path="url(#clip950)" d="M771.363 262.184 L771.363 266.212 Q769.558 265.286 767.613 264.823 Q765.669 264.36 763.586 264.36 Q760.414 264.36 758.817 265.333 Q757.243 266.305 757.243 268.249 Q757.243 269.731 758.377 270.587 Q759.512 271.42 762.938 272.184 L764.396 272.508 Q768.933 273.481 770.831 275.263 Q772.752 277.022 772.752 280.194 Q772.752 283.805 769.882 285.911 Q767.035 288.018 762.035 288.018 Q759.951 288.018 757.683 287.601 Q755.438 287.207 752.938 286.397 L752.938 281.999 Q755.299 283.226 757.59 283.851 Q759.882 284.453 762.127 284.453 Q765.137 284.453 766.757 283.434 Q768.377 282.393 768.377 280.518 Q768.377 278.782 767.197 277.856 Q766.039 276.93 762.081 276.073 L760.6 275.726 Q756.641 274.893 754.882 273.18 Q753.123 271.444 753.123 268.434 Q753.123 264.777 755.715 262.786 Q758.308 260.795 763.076 260.795 Q765.438 260.795 767.521 261.143 Q769.604 261.49 771.363 262.184 Z" fill="#000000" fill-rule="evenodd" fill-opacity="1" /><path clip-path="url(#clip950)" d="M777.058 261.42 L781.317 261.42 L786.641 281.652 L791.942 261.42 L796.965 261.42 L802.289 281.652 L807.59 261.42 L811.849 261.42 L805.067 287.346 L800.044 287.346 L794.465 266.096 L788.863 287.346 L783.84 287.346 L777.058 261.42 Z" fill="#000000" fill-rule="evenodd" fill-opacity="1" /><path clip-path="url(#clip950)" d="M818.308 261.42 L822.567 261.42 L822.567 287.346 L818.308 287.346 L818.308 261.42 M818.308 251.328 L822.567 251.328 L822.567 256.721 L818.308 256.721 L818.308 251.328 Z" fill="#000000" fill-rule="evenodd" fill-opacity="1" /><path clip-path="url(#clip950)" d="M835.692 254.059 L835.692 261.42 L844.465 261.42 L844.465 264.731 L835.692 264.731 L835.692 278.805 Q835.692 281.976 836.548 282.879 Q837.428 283.781 840.09 283.781 L844.465 283.781 L844.465 287.346 L840.09 287.346 Q835.159 287.346 833.284 285.518 Q831.409 283.666 831.409 278.805 L831.409 264.731 L828.284 264.731 L828.284 261.42 L831.409 261.42 L831.409 254.059 L835.692 254.059 Z" fill="#000000" fill-rule="evenodd" fill-opacity="1" /><path clip-path="url(#clip950)" d="M868.724 262.416 L868.724 266.397 Q866.919 265.402 865.09 264.916 Q863.284 264.407 861.432 264.407 Q857.289 264.407 854.997 267.045 Q852.706 269.661 852.706 274.407 Q852.706 279.152 854.997 281.791 Q857.289 284.406 861.432 284.406 Q863.284 284.406 865.09 283.92 Q866.919 283.411 868.724 282.416 L868.724 286.351 Q866.942 287.184 865.02 287.601 Q863.122 288.018 860.969 288.018 Q855.113 288.018 851.664 284.337 Q848.215 280.656 848.215 274.407 Q848.215 268.064 851.687 264.43 Q855.182 260.795 861.247 260.795 Q863.215 260.795 865.09 261.212 Q866.965 261.606 868.724 262.416 Z" fill="#000000" fill-rule="evenodd" fill-opacity="1" /><path clip-path="url(#clip950)" d="M897.682 271.698 L897.682 287.346 L893.423 287.346 L893.423 271.837 Q893.423 268.157 891.988 266.328 Q890.553 264.499 887.682 264.499 Q884.233 264.499 882.242 266.698 Q880.252 268.897 880.252 272.694 L880.252 287.346 L875.969 287.346 L875.969 251.328 L880.252 251.328 L880.252 265.448 Q881.78 263.11 883.84 261.953 Q885.923 260.795 888.631 260.795 Q893.099 260.795 895.391 263.573 Q897.682 266.328 897.682 271.698 Z" fill="#000000" fill-rule="evenodd" fill-opacity="1" /><path clip-path="url(#clip950)" d="M931.478 251.374 Q928.377 256.698 926.872 261.907 Q925.367 267.115 925.367 272.462 Q925.367 277.809 926.872 283.064 Q928.4 288.295 931.478 293.596 L927.775 293.596 Q924.302 288.156 922.566 282.902 Q920.853 277.647 920.853 272.462 Q920.853 267.3 922.566 262.069 Q924.279 256.837 927.775 251.374 L931.478 251.374 Z" fill="#000000" fill-rule="evenodd" fill-opacity="1" /><path clip-path="url(#clip950)" d="M939.927 252.786 L961.779 252.786 L961.779 256.721 L944.603 256.721 L944.603 266.953 L961.062 266.953 L961.062 270.888 L944.603 270.888 L944.603 283.411 L962.196 283.411 L962.196 287.346 L939.927 287.346 L939.927 252.786 Z" fill="#000000" fill-rule="evenodd" fill-opacity="1" /><path clip-path="url(#clip950)" d="M974.557 256.629 L974.557 283.504 L980.205 283.504 Q987.358 283.504 990.668 280.263 Q994.001 277.022 994.001 270.032 Q994.001 263.087 990.668 259.87 Q987.358 256.629 980.205 256.629 L974.557 256.629 M969.881 252.786 L979.487 252.786 Q989.534 252.786 994.233 256.976 Q998.932 261.143 998.932 270.032 Q998.932 278.967 994.209 283.156 Q989.487 287.346 979.487 287.346 L969.881 287.346 L969.881 252.786 Z" fill="#000000" fill-rule="evenodd" fill-opacity="1" /><path clip-path="url(#clip950)" d="M1022.77 271.143 Q1024.28 271.652 1025.69 273.319 Q1027.13 274.985 1028.56 277.902 L1033.31 287.346 L1028.28 287.346 L1023.86 278.481 Q1022.15 275.008 1020.53 273.874 Q1018.93 272.74 1016.15 272.74 L1011.06 272.74 L1011.06 287.346 L1006.39 287.346 L1006.39 252.786 L1016.94 252.786 Q1022.87 252.786 1025.78 255.263 Q1028.7 257.74 1028.7 262.74 Q1028.7 266.004 1027.17 268.157 Q1025.67 270.309 1022.77 271.143 M1011.06 256.629 L1011.06 268.897 L1016.94 268.897 Q1020.32 268.897 1022.03 267.346 Q1023.77 265.772 1023.77 262.74 Q1023.77 259.708 1022.03 258.18 Q1020.32 256.629 1016.94 256.629 L1011.06 256.629 Z" fill="#000000" fill-rule="evenodd" fill-opacity="1" /><path clip-path="url(#clip950)" d="M1038.47 251.374 L1042.17 251.374 Q1045.64 256.837 1047.36 262.069 Q1049.09 267.3 1049.09 272.462 Q1049.09 277.647 1047.36 282.902 Q1045.64 288.156 1042.17 293.596 L1038.47 293.596 Q1041.55 288.295 1043.05 283.064 Q1044.58 277.809 1044.58 272.462 Q1044.58 267.115 1043.05 261.907 Q1041.55 256.698 1038.47 251.374 Z" fill="#000000" fill-rule="evenodd" fill-opacity="1" /></svg>
