<?xml version="1.0" encoding="utf-8"?>
<svg xmlns="http://www.w3.org/2000/svg" xmlns:xlink="http://www.w3.org/1999/xlink" width="600" height="400" viewBox="0 0 2400 1600">
<defs>
  <clipPath id="clip270">
    <rect x="0" y="0" width="2400" height="1600"/>
  </clipPath>
</defs>
<path clip-path="url(#clip270)" d="
M0 1600 L2400 1600 L2400 0 L0 0  Z
  " fill="#ffffff" fill-rule="evenodd" fill-opacity="1"/>
<defs>
  <clipPath id="clip271">
    <rect x="480" y="0" width="1681" height="1600"/>
  </clipPath>
</defs>
<path clip-path="url(#clip270)" d="
M235.283 1410.9 L2352.76 1410.9 L2352.76 123.472 L235.283 123.472  Z
  " fill="#ffffff" fill-rule="evenodd" fill-opacity="1"/>
<defs>
  <clipPath id="clip272">
    <rect x="235" y="123" width="2118" height="1288"/>
  </clipPath>
</defs>
<polyline clip-path="url(#clip272)" style="stroke:#000000; stroke-linecap:butt; stroke-linejoin:round; stroke-width:2; stroke-opacity:0.1; fill:none" points="
  295.211,1410.9 295.211,123.472 
  "/>
<polyline clip-path="url(#clip272)" style="stroke:#000000; stroke-linecap:butt; stroke-linejoin:round; stroke-width:2; stroke-opacity:0.1; fill:none" points="
  596.845,1410.9 596.845,123.472 
  "/>
<polyline clip-path="url(#clip272)" style="stroke:#000000; stroke-linecap:butt; stroke-linejoin:round; stroke-width:2; stroke-opacity:0.1; fill:none" points="
  898.478,1410.9 898.478,123.472 
  "/>
<polyline clip-path="url(#clip272)" style="stroke:#000000; stroke-linecap:butt; stroke-linejoin:round; stroke-width:2; stroke-opacity:0.1; fill:none" points="
  1200.11,1410.9 1200.11,123.472 
  "/>
<polyline clip-path="url(#clip272)" style="stroke:#000000; stroke-linecap:butt; stroke-linejoin:round; stroke-width:2; stroke-opacity:0.1; fill:none" points="
  1501.75,1410.9 1501.75,123.472 
  "/>
<polyline clip-path="url(#clip272)" style="stroke:#000000; stroke-linecap:butt; stroke-linejoin:round; stroke-width:2; stroke-opacity:0.1; fill:none" points="
  1803.38,1410.9 1803.38,123.472 
  "/>
<polyline clip-path="url(#clip272)" style="stroke:#000000; stroke-linecap:butt; stroke-linejoin:round; stroke-width:2; stroke-opacity:0.1; fill:none" points="
  2105.01,1410.9 2105.01,123.472 
  "/>
<polyline clip-path="url(#clip270)" style="stroke:#000000; stroke-linecap:butt; stroke-linejoin:round; stroke-width:4; stroke-opacity:1; fill:none" points="
  235.283,1410.9 2352.76,1410.9 
  "/>
<polyline clip-path="url(#clip270)" style="stroke:#000000; stroke-linecap:butt; stroke-linejoin:round; stroke-width:4; stroke-opacity:1; fill:none" points="
  295.211,1410.9 295.211,1392 
  "/>
<polyline clip-path="url(#clip270)" style="stroke:#000000; stroke-linecap:butt; stroke-linejoin:round; stroke-width:4; stroke-opacity:1; fill:none" points="
  596.845,1410.9 596.845,1392 
  "/>
<polyline clip-path="url(#clip270)" style="stroke:#000000; stroke-linecap:butt; stroke-linejoin:round; stroke-width:4; stroke-opacity:1; fill:none" points="
  898.478,1410.9 898.478,1392 
  "/>
<polyline clip-path="url(#clip270)" style="stroke:#000000; stroke-linecap:butt; stroke-linejoin:round; stroke-width:4; stroke-opacity:1; fill:none" points="
  1200.11,1410.9 1200.11,1392 
  "/>
<polyline clip-path="url(#clip270)" style="stroke:#000000; stroke-linecap:butt; stroke-linejoin:round; stroke-width:4; stroke-opacity:1; fill:none" points="
  1501.75,1410.9 1501.75,1392 
  "/>
<polyline clip-path="url(#clip270)" style="stroke:#000000; stroke-linecap:butt; stroke-linejoin:round; stroke-width:4; stroke-opacity:1; fill:none" points="
  1803.38,1410.9 1803.38,1392 
  "/>
<polyline clip-path="url(#clip270)" style="stroke:#000000; stroke-linecap:butt; stroke-linejoin:round; stroke-width:4; stroke-opacity:1; fill:none" points="
  2105.01,1410.9 2105.01,1392 
  "/>
<path clip-path="url(#clip270)" d="M260.194 1485.02 L267.833 1485.02 L267.833 1458.66 L259.523 1460.32 L259.523 1456.06 L267.787 1454.4 L272.463 1454.4 L272.463 1485.02 L280.101 1485.02 L280.101 1488.96 L260.194 1488.96 L260.194 1485.02 Z" fill="#000000" fill-rule="evenodd" fill-opacity="1" /><path clip-path="url(#clip270)" d="M299.546 1457.48 Q295.935 1457.48 294.106 1461.04 Q292.3 1464.58 292.3 1471.71 Q292.3 1478.82 294.106 1482.38 Q295.935 1485.92 299.546 1485.92 Q303.18 1485.92 304.986 1482.38 Q306.814 1478.82 306.814 1471.71 Q306.814 1464.58 304.986 1461.04 Q303.18 1457.48 299.546 1457.48 M299.546 1453.77 Q305.356 1453.77 308.411 1458.38 Q311.49 1462.96 311.49 1471.71 Q311.49 1480.44 308.411 1485.04 Q305.356 1489.63 299.546 1489.63 Q293.736 1489.63 290.657 1485.04 Q287.601 1480.44 287.601 1471.71 Q287.601 1462.96 290.657 1458.38 Q293.736 1453.77 299.546 1453.77 Z" fill="#000000" fill-rule="evenodd" fill-opacity="1" /><path clip-path="url(#clip270)" d="M321.195 1435.97 Q318.261 1435.97 316.775 1438.86 Q315.308 1441.74 315.308 1447.53 Q315.308 1453.31 316.775 1456.2 Q318.261 1459.08 321.195 1459.08 Q324.148 1459.08 325.615 1456.2 Q327.101 1453.31 327.101 1447.53 Q327.101 1441.74 325.615 1438.86 Q324.148 1435.97 321.195 1435.97 M321.195 1432.96 Q325.916 1432.96 328.398 1436.7 Q330.9 1440.43 330.9 1447.53 Q330.9 1454.62 328.398 1458.37 Q325.916 1462.09 321.195 1462.09 Q316.474 1462.09 313.973 1458.37 Q311.49 1454.62 311.49 1447.53 Q311.49 1440.43 313.973 1436.7 Q316.474 1432.96 321.195 1432.96 Z" fill="#000000" fill-rule="evenodd" fill-opacity="1" /><path clip-path="url(#clip270)" d="M563.172 1485.02 L570.811 1485.02 L570.811 1458.66 L562.501 1460.32 L562.501 1456.06 L570.765 1454.4 L575.441 1454.4 L575.441 1485.02 L583.08 1485.02 L583.08 1488.96 L563.172 1488.96 L563.172 1485.02 Z" fill="#000000" fill-rule="evenodd" fill-opacity="1" /><path clip-path="url(#clip270)" d="M602.524 1457.48 Q598.913 1457.48 597.084 1461.04 Q595.279 1464.58 595.279 1471.71 Q595.279 1478.82 597.084 1482.38 Q598.913 1485.92 602.524 1485.92 Q606.158 1485.92 607.964 1482.38 Q609.793 1478.82 609.793 1471.71 Q609.793 1464.58 607.964 1461.04 Q606.158 1457.48 602.524 1457.48 M602.524 1453.77 Q608.334 1453.77 611.39 1458.38 Q614.468 1462.96 614.468 1471.71 Q614.468 1480.44 611.39 1485.04 Q608.334 1489.63 602.524 1489.63 Q596.714 1489.63 593.635 1485.04 Q590.58 1480.44 590.58 1471.71 Q590.58 1462.96 593.635 1458.38 Q596.714 1453.77 602.524 1453.77 Z" fill="#000000" fill-rule="evenodd" fill-opacity="1" /><path clip-path="url(#clip270)" d="M615.014 1458.35 L621.22 1458.35 L621.22 1436.93 L614.468 1438.28 L614.468 1434.82 L621.183 1433.47 L624.982 1433.47 L624.982 1458.35 L631.189 1458.35 L631.189 1461.55 L615.014 1461.55 L615.014 1458.35 Z" fill="#000000" fill-rule="evenodd" fill-opacity="1" /><path clip-path="url(#clip270)" d="M864.251 1485.02 L871.89 1485.02 L871.89 1458.66 L863.58 1460.32 L863.58 1456.06 L871.844 1454.4 L876.52 1454.4 L876.52 1485.02 L884.158 1485.02 L884.158 1488.96 L864.251 1488.96 L864.251 1485.02 Z" fill="#000000" fill-rule="evenodd" fill-opacity="1" /><path clip-path="url(#clip270)" d="M903.603 1457.48 Q899.992 1457.48 898.163 1461.04 Q896.357 1464.58 896.357 1471.71 Q896.357 1478.82 898.163 1482.38 Q899.992 1485.92 903.603 1485.92 Q907.237 1485.92 909.043 1482.38 Q910.871 1478.82 910.871 1471.71 Q910.871 1464.58 909.043 1461.04 Q907.237 1457.48 903.603 1457.48 M903.603 1453.77 Q909.413 1453.77 912.468 1458.38 Q915.547 1462.96 915.547 1471.71 Q915.547 1480.44 912.468 1485.04 Q909.413 1489.63 903.603 1489.63 Q897.793 1489.63 894.714 1485.04 Q891.658 1480.44 891.658 1471.71 Q891.658 1462.96 894.714 1458.38 Q897.793 1453.77 903.603 1453.77 Z" fill="#000000" fill-rule="evenodd" fill-opacity="1" /><path clip-path="url(#clip270)" d="M920.117 1458.35 L933.377 1458.35 L933.377 1461.55 L915.547 1461.55 L915.547 1458.35 Q917.71 1456.11 921.434 1452.35 Q925.177 1448.57 926.136 1447.48 Q927.96 1445.43 928.675 1444.02 Q929.408 1442.59 929.408 1441.22 Q929.408 1438.98 927.829 1437.57 Q926.268 1436.16 923.747 1436.16 Q921.961 1436.16 919.967 1436.78 Q917.992 1437.4 915.735 1438.66 L915.735 1434.82 Q918.03 1433.9 920.023 1433.43 Q922.017 1432.96 923.672 1432.96 Q928.035 1432.96 930.631 1435.14 Q933.226 1437.32 933.226 1440.97 Q933.226 1442.7 932.568 1444.26 Q931.929 1445.8 930.217 1447.91 Q929.747 1448.46 927.227 1451.07 Q924.706 1453.67 920.117 1458.35 Z" fill="#000000" fill-rule="evenodd" fill-opacity="1" /><path clip-path="url(#clip270)" d="M1165.56 1485.02 L1173.19 1485.02 L1173.19 1458.66 L1164.88 1460.32 L1164.88 1456.06 L1173.15 1454.4 L1177.82 1454.4 L1177.82 1485.02 L1185.46 1485.02 L1185.46 1488.96 L1165.56 1488.96 L1165.56 1485.02 Z" fill="#000000" fill-rule="evenodd" fill-opacity="1" /><path clip-path="url(#clip270)" d="M1204.91 1457.48 Q1201.3 1457.48 1199.47 1461.04 Q1197.66 1464.58 1197.66 1471.71 Q1197.66 1478.82 1199.47 1482.38 Q1201.3 1485.92 1204.91 1485.92 Q1208.54 1485.92 1210.35 1482.38 Q1212.18 1478.82 1212.18 1471.71 Q1212.18 1464.58 1210.35 1461.04 Q1208.54 1457.48 1204.91 1457.48 M1204.91 1453.77 Q1210.72 1453.77 1213.77 1458.38 Q1216.85 1462.96 1216.85 1471.71 Q1216.85 1480.44 1213.77 1485.04 Q1210.72 1489.63 1204.91 1489.63 Q1199.1 1489.63 1196.02 1485.04 Q1192.96 1480.44 1192.96 1471.71 Q1192.96 1462.96 1196.02 1458.38 Q1199.1 1453.77 1204.91 1453.77 Z" fill="#000000" fill-rule="evenodd" fill-opacity="1" /><path clip-path="url(#clip270)" d="M1229.55 1446.41 Q1232.27 1446.99 1233.8 1448.83 Q1235.34 1450.68 1235.34 1453.38 Q1235.34 1457.54 1232.48 1459.82 Q1229.62 1462.09 1224.36 1462.09 Q1222.59 1462.09 1220.71 1461.73 Q1218.85 1461.4 1216.85 1460.7 L1216.85 1457.03 Q1218.43 1457.95 1220.31 1458.42 Q1222.19 1458.89 1224.24 1458.89 Q1227.82 1458.89 1229.68 1457.48 Q1231.56 1456.07 1231.56 1453.38 Q1231.56 1450.9 1229.81 1449.51 Q1228.08 1448.1 1224.98 1448.1 L1221.7 1448.1 L1221.7 1444.98 L1225.13 1444.98 Q1227.93 1444.98 1229.42 1443.87 Q1230.9 1442.74 1230.9 1440.63 Q1230.9 1438.47 1229.36 1437.32 Q1227.84 1436.16 1224.98 1436.16 Q1223.42 1436.16 1221.63 1436.49 Q1219.84 1436.83 1217.7 1437.55 L1217.7 1434.16 Q1219.86 1433.56 1221.74 1433.26 Q1223.64 1432.96 1225.31 1432.96 Q1229.64 1432.96 1232.16 1434.93 Q1234.68 1436.89 1234.68 1440.24 Q1234.68 1442.57 1233.35 1444.19 Q1232.01 1445.79 1229.55 1446.41 Z" fill="#000000" fill-rule="evenodd" fill-opacity="1" /><path clip-path="url(#clip270)" d="M1466.2 1485.02 L1473.84 1485.02 L1473.84 1458.66 L1465.53 1460.32 L1465.53 1456.06 L1473.79 1454.4 L1478.47 1454.4 L1478.47 1485.02 L1486.11 1485.02 L1486.11 1488.96 L1466.2 1488.96 L1466.2 1485.02 Z" fill="#000000" fill-rule="evenodd" fill-opacity="1" /><path clip-path="url(#clip270)" d="M1505.55 1457.48 Q1501.94 1457.48 1500.11 1461.04 Q1498.31 1464.58 1498.31 1471.71 Q1498.31 1478.82 1500.11 1482.38 Q1501.94 1485.92 1505.55 1485.92 Q1509.19 1485.92 1510.99 1482.38 Q1512.82 1478.82 1512.82 1471.71 Q1512.82 1464.58 1510.99 1461.04 Q1509.19 1457.48 1505.55 1457.48 M1505.55 1453.77 Q1511.36 1453.77 1514.42 1458.38 Q1517.5 1462.96 1517.5 1471.71 Q1517.5 1480.44 1514.42 1485.04 Q1511.36 1489.63 1505.55 1489.63 Q1499.74 1489.63 1496.66 1485.04 Q1493.61 1480.44 1493.61 1471.71 Q1493.61 1462.96 1496.66 1458.38 Q1499.74 1453.77 1505.55 1453.77 Z" fill="#000000" fill-rule="evenodd" fill-opacity="1" /><path clip-path="url(#clip270)" d="M1530.17 1436.78 L1520.58 1451.77 L1530.17 1451.77 L1530.17 1436.78 M1529.18 1433.47 L1533.95 1433.47 L1533.95 1451.77 L1537.96 1451.77 L1537.96 1454.93 L1533.95 1454.93 L1533.95 1461.55 L1530.17 1461.55 L1530.17 1454.93 L1517.5 1454.93 L1517.5 1451.26 L1529.18 1433.47 Z" fill="#000000" fill-rule="evenodd" fill-opacity="1" /><path clip-path="url(#clip270)" d="M1768.98 1485.02 L1776.62 1485.02 L1776.62 1458.66 L1768.31 1460.32 L1768.31 1456.06 L1776.57 1454.4 L1781.25 1454.4 L1781.25 1485.02 L1788.89 1485.02 L1788.89 1488.96 L1768.98 1488.96 L1768.98 1485.02 Z" fill="#000000" fill-rule="evenodd" fill-opacity="1" /><path clip-path="url(#clip270)" d="M1808.33 1457.48 Q1804.72 1457.48 1802.89 1461.04 Q1801.09 1464.58 1801.09 1471.71 Q1801.09 1478.82 1802.89 1482.38 Q1804.72 1485.92 1808.33 1485.92 Q1811.97 1485.92 1813.77 1482.38 Q1815.6 1478.82 1815.6 1471.71 Q1815.6 1464.58 1813.77 1461.04 Q1811.97 1457.48 1808.33 1457.48 M1808.33 1453.77 Q1814.14 1453.77 1817.2 1458.38 Q1820.28 1462.96 1820.28 1471.71 Q1820.28 1480.44 1817.2 1485.04 Q1814.14 1489.63 1808.33 1489.63 Q1802.52 1489.63 1799.45 1485.04 Q1796.39 1480.44 1796.39 1471.71 Q1796.39 1462.96 1799.45 1458.38 Q1802.52 1453.77 1808.33 1453.77 Z" fill="#000000" fill-rule="evenodd" fill-opacity="1" /><path clip-path="url(#clip270)" d="M1821.46 1433.47 L1836.38 1433.47 L1836.38 1436.66 L1824.94 1436.66 L1824.94 1443.55 Q1825.77 1443.27 1826.6 1443.13 Q1827.43 1442.98 1828.25 1442.98 Q1832.95 1442.98 1835.7 1445.56 Q1838.45 1448.14 1838.45 1452.54 Q1838.45 1457.07 1835.63 1459.59 Q1832.8 1462.09 1827.67 1462.09 Q1825.9 1462.09 1824.06 1461.79 Q1822.23 1461.49 1820.28 1460.89 L1820.28 1457.07 Q1821.97 1457.99 1823.78 1458.44 Q1825.58 1458.89 1827.59 1458.89 Q1830.85 1458.89 1832.75 1457.18 Q1834.65 1455.47 1834.65 1452.54 Q1834.65 1449.6 1832.75 1447.89 Q1830.85 1446.18 1827.59 1446.18 Q1826.07 1446.18 1824.55 1446.52 Q1823.04 1446.86 1821.46 1447.57 L1821.46 1433.47 Z" fill="#000000" fill-rule="evenodd" fill-opacity="1" /><path clip-path="url(#clip270)" d="M2070 1485.02 L2077.64 1485.02 L2077.64 1458.66 L2069.33 1460.32 L2069.33 1456.06 L2077.6 1454.4 L2082.27 1454.4 L2082.27 1485.02 L2089.91 1485.02 L2089.91 1488.96 L2070 1488.96 L2070 1485.02 Z" fill="#000000" fill-rule="evenodd" fill-opacity="1" /><path clip-path="url(#clip270)" d="M2109.36 1457.48 Q2105.75 1457.48 2103.92 1461.04 Q2102.11 1464.58 2102.11 1471.71 Q2102.11 1478.82 2103.92 1482.38 Q2105.75 1485.92 2109.36 1485.92 Q2112.99 1485.92 2114.8 1482.38 Q2116.62 1478.82 2116.62 1471.71 Q2116.62 1464.58 2114.8 1461.04 Q2112.99 1457.48 2109.36 1457.48 M2109.36 1453.77 Q2115.17 1453.77 2118.22 1458.38 Q2121.3 1462.96 2121.3 1471.71 Q2121.3 1480.44 2118.22 1485.04 Q2115.17 1489.63 2109.36 1489.63 Q2103.55 1489.63 2100.47 1485.04 Q2097.41 1480.44 2097.41 1471.71 Q2097.41 1462.96 2100.47 1458.38 Q2103.55 1453.77 2109.36 1453.77 Z" fill="#000000" fill-rule="evenodd" fill-opacity="1" /><path clip-path="url(#clip270)" d="M2131.33 1445.99 Q2128.77 1445.99 2127.26 1447.74 Q2125.78 1449.49 2125.78 1452.54 Q2125.78 1455.57 2127.26 1457.33 Q2128.77 1459.08 2131.33 1459.08 Q2133.88 1459.08 2135.37 1457.33 Q2136.87 1455.57 2136.87 1452.54 Q2136.87 1449.49 2135.37 1447.74 Q2133.88 1445.99 2131.33 1445.99 M2138.87 1434.09 L2138.87 1437.55 Q2137.44 1436.87 2135.97 1436.51 Q2134.52 1436.16 2133.09 1436.16 Q2129.33 1436.16 2127.34 1438.69 Q2125.36 1441.23 2125.08 1446.37 Q2126.19 1444.73 2127.86 1443.87 Q2129.54 1442.98 2131.55 1442.98 Q2135.78 1442.98 2138.23 1445.56 Q2140.69 1448.12 2140.69 1452.54 Q2140.69 1456.86 2138.13 1459.48 Q2135.58 1462.09 2131.33 1462.09 Q2126.45 1462.09 2123.88 1458.37 Q2121.3 1454.62 2121.3 1447.53 Q2121.3 1440.88 2124.46 1436.93 Q2127.62 1432.96 2132.94 1432.96 Q2134.37 1432.96 2135.82 1433.24 Q2137.29 1433.52 2138.87 1434.09 Z" fill="#000000" fill-rule="evenodd" fill-opacity="1" /><path clip-path="url(#clip270)" d="M1052.07 1543.95 L1052.07 1524.66 L1057.93 1524.66 L1057.93 1574.19 L1052.07 1574.19 L1052.07 1568.84 Q1050.23 1572.02 1047.4 1573.58 Q1044.6 1575.11 1040.65 1575.11 Q1034.19 1575.11 1030.11 1569.95 Q1026.07 1564.8 1026.07 1556.39 Q1026.07 1547.99 1030.11 1542.83 Q1034.19 1537.68 1040.65 1537.68 Q1044.6 1537.68 1047.4 1539.24 Q1050.23 1540.77 1052.07 1543.95 M1032.12 1556.39 Q1032.12 1562.85 1034.76 1566.55 Q1037.43 1570.21 1042.08 1570.21 Q1046.73 1570.21 1049.4 1566.55 Q1052.07 1562.85 1052.07 1556.39 Q1052.07 1549.93 1049.4 1546.27 Q1046.73 1542.58 1042.08 1542.58 Q1037.43 1542.58 1034.76 1546.27 Q1032.12 1549.93 1032.12 1556.39 Z" fill="#000000" fill-rule="evenodd" fill-opacity="1" /><path clip-path="url(#clip270)" d="M1086.19 1556.27 Q1079.1 1556.27 1076.36 1557.89 Q1073.62 1559.51 1073.62 1563.43 Q1073.62 1566.55 1075.66 1568.39 Q1077.73 1570.21 1081.26 1570.21 Q1086.13 1570.21 1089.06 1566.77 Q1092.02 1563.3 1092.02 1557.57 L1092.02 1556.27 L1086.19 1556.27 M1097.88 1553.85 L1097.88 1574.19 L1092.02 1574.19 L1092.02 1568.77 Q1090.01 1572.02 1087.02 1573.58 Q1084.03 1575.11 1079.7 1575.11 Q1074.23 1575.11 1070.98 1572.05 Q1067.77 1568.97 1067.77 1563.81 Q1067.77 1557.79 1071.78 1554.74 Q1075.82 1551.68 1083.81 1551.68 L1092.02 1551.68 L1092.02 1551.11 Q1092.02 1547.07 1089.35 1544.87 Q1086.7 1542.64 1081.9 1542.64 Q1078.84 1542.64 1075.95 1543.38 Q1073.05 1544.11 1070.38 1545.57 L1070.38 1540.16 Q1073.59 1538.92 1076.61 1538.31 Q1079.64 1537.68 1082.5 1537.68 Q1090.24 1537.68 1094.06 1541.69 Q1097.88 1545.7 1097.88 1553.85 Z" fill="#000000" fill-rule="evenodd" fill-opacity="1" /><path clip-path="url(#clip270)" d="M1115.73 1528.42 L1115.73 1538.54 L1127.79 1538.54 L1127.79 1543.09 L1115.73 1543.09 L1115.73 1562.44 Q1115.73 1566.8 1116.91 1568.04 Q1118.12 1569.28 1121.78 1569.28 L1127.79 1569.28 L1127.79 1574.19 L1121.78 1574.19 Q1115 1574.19 1112.42 1571.67 Q1109.84 1569.12 1109.84 1562.44 L1109.84 1543.09 L1105.55 1543.09 L1105.55 1538.54 L1109.84 1538.54 L1109.84 1528.42 L1115.73 1528.42 Z" fill="#000000" fill-rule="evenodd" fill-opacity="1" /><path clip-path="url(#clip270)" d="M1151.7 1556.27 Q1144.6 1556.27 1141.86 1557.89 Q1139.13 1559.51 1139.13 1563.43 Q1139.13 1566.55 1141.16 1568.39 Q1143.23 1570.21 1146.76 1570.21 Q1151.63 1570.21 1154.56 1566.77 Q1157.52 1563.3 1157.52 1557.57 L1157.52 1556.27 L1151.7 1556.27 M1163.38 1553.85 L1163.38 1574.19 L1157.52 1574.19 L1157.52 1568.77 Q1155.52 1572.02 1152.53 1573.58 Q1149.53 1575.11 1145.21 1575.11 Q1139.73 1575.11 1136.48 1572.05 Q1133.27 1568.97 1133.27 1563.81 Q1133.27 1557.79 1137.28 1554.74 Q1141.32 1551.68 1149.31 1551.68 L1157.52 1551.68 L1157.52 1551.11 Q1157.52 1547.07 1154.85 1544.87 Q1152.21 1542.64 1147.4 1542.64 Q1144.35 1542.64 1141.45 1543.38 Q1138.55 1544.11 1135.88 1545.57 L1135.88 1540.16 Q1139.09 1538.92 1142.12 1538.31 Q1145.14 1537.68 1148.01 1537.68 Q1155.74 1537.68 1159.56 1541.69 Q1163.38 1545.7 1163.38 1553.85 Z" fill="#000000" fill-rule="evenodd" fill-opacity="1" /><path clip-path="url(#clip270)" d="M1218.89 1539.59 L1218.89 1545.13 Q1216.41 1543.85 1213.73 1543.22 Q1211.06 1542.58 1208.19 1542.58 Q1203.83 1542.58 1201.64 1543.92 Q1199.47 1545.25 1199.47 1547.93 Q1199.47 1549.96 1201.03 1551.14 Q1202.59 1552.29 1207.3 1553.34 L1209.31 1553.78 Q1215.55 1555.12 1218.16 1557.57 Q1220.8 1559.99 1220.8 1564.35 Q1220.8 1569.32 1216.85 1572.21 Q1212.94 1575.11 1206.06 1575.11 Q1203.2 1575.11 1200.08 1574.54 Q1196.99 1573.99 1193.55 1572.88 L1193.55 1566.83 Q1196.8 1568.52 1199.95 1569.38 Q1203.1 1570.21 1206.19 1570.21 Q1210.33 1570.21 1212.55 1568.81 Q1214.78 1567.37 1214.78 1564.8 Q1214.78 1562.41 1213.16 1561.14 Q1211.57 1559.86 1206.12 1558.68 L1204.09 1558.21 Q1198.65 1557.06 1196.23 1554.71 Q1193.81 1552.32 1193.81 1548.18 Q1193.81 1543.15 1197.37 1540.42 Q1200.94 1537.68 1207.49 1537.68 Q1210.74 1537.68 1213.6 1538.16 Q1216.47 1538.63 1218.89 1539.59 Z" fill="#000000" fill-rule="evenodd" fill-opacity="1" /><path clip-path="url(#clip270)" d="M1230.12 1538.54 L1235.98 1538.54 L1235.98 1574.19 L1230.12 1574.19 L1230.12 1538.54 M1230.12 1524.66 L1235.98 1524.66 L1235.98 1532.08 L1230.12 1532.08 L1230.12 1524.66 Z" fill="#000000" fill-rule="evenodd" fill-opacity="1" /><path clip-path="url(#clip270)" d="M1245.69 1538.54 L1273.51 1538.54 L1273.51 1543.88 L1251.48 1569.51 L1273.51 1569.51 L1273.51 1574.19 L1244.89 1574.19 L1244.89 1568.84 L1266.92 1543.22 L1245.69 1543.22 L1245.69 1538.54 Z" fill="#000000" fill-rule="evenodd" fill-opacity="1" /><path clip-path="url(#clip270)" d="M1312.94 1554.9 L1312.94 1557.76 L1286.01 1557.76 Q1286.4 1563.81 1289.64 1566.99 Q1292.92 1570.14 1298.75 1570.14 Q1302.12 1570.14 1305.27 1569.32 Q1308.45 1568.49 1311.57 1566.83 L1311.57 1572.37 Q1308.42 1573.71 1305.11 1574.41 Q1301.8 1575.11 1298.4 1575.11 Q1289.87 1575.11 1284.87 1570.14 Q1279.9 1565.18 1279.9 1556.71 Q1279.9 1547.96 1284.61 1542.83 Q1289.36 1537.68 1297.38 1537.68 Q1304.57 1537.68 1308.74 1542.33 Q1312.94 1546.94 1312.94 1554.9 M1307.08 1553.18 Q1307.02 1548.37 1304.38 1545.51 Q1301.77 1542.64 1297.44 1542.64 Q1292.54 1542.64 1289.58 1545.41 Q1286.65 1548.18 1286.21 1553.21 L1307.08 1553.18 Z" fill="#000000" fill-rule="evenodd" fill-opacity="1" /><path clip-path="url(#clip270)" d="M1357.34 1524.72 Q1353.08 1532.04 1351.01 1539.21 Q1348.94 1546.37 1348.94 1553.72 Q1348.94 1561.07 1351.01 1568.3 Q1353.11 1575.49 1357.34 1582.78 L1352.25 1582.78 Q1347.48 1575.3 1345.09 1568.07 Q1342.73 1560.85 1342.73 1553.72 Q1342.73 1546.62 1345.09 1539.43 Q1347.44 1532.24 1352.25 1524.72 L1357.34 1524.72 Z" fill="#000000" fill-rule="evenodd" fill-opacity="1" /><path clip-path="url(#clip270)" d="M1394.3 1556.39 Q1394.3 1549.93 1391.62 1546.27 Q1388.98 1542.58 1384.33 1542.58 Q1379.69 1542.58 1377.01 1546.27 Q1374.37 1549.93 1374.37 1556.39 Q1374.37 1562.85 1377.01 1566.55 Q1379.69 1570.21 1384.33 1570.21 Q1388.98 1570.21 1391.62 1566.55 Q1394.3 1562.85 1394.3 1556.39 M1374.37 1543.95 Q1376.22 1540.77 1379.02 1539.24 Q1381.85 1537.68 1385.77 1537.68 Q1392.26 1537.68 1396.3 1542.83 Q1400.37 1547.99 1400.37 1556.39 Q1400.37 1564.8 1396.3 1569.95 Q1392.26 1575.11 1385.77 1575.11 Q1381.85 1575.11 1379.02 1573.58 Q1376.22 1572.02 1374.37 1568.84 L1374.37 1574.19 L1368.48 1574.19 L1368.48 1524.66 L1374.37 1524.66 L1374.37 1543.95 Z" fill="#000000" fill-rule="evenodd" fill-opacity="1" /><path clip-path="url(#clip270)" d="M1424.91 1577.5 Q1422.43 1583.86 1420.08 1585.8 Q1417.72 1587.74 1413.77 1587.74 L1409.1 1587.74 L1409.1 1582.84 L1412.53 1582.84 Q1414.95 1582.84 1416.29 1581.7 Q1417.63 1580.55 1419.25 1576.29 L1420.3 1573.61 L1405.88 1538.54 L1412.09 1538.54 L1423.23 1566.42 L1434.37 1538.54 L1440.57 1538.54 L1424.91 1577.5 Z" fill="#000000" fill-rule="evenodd" fill-opacity="1" /><path clip-path="url(#clip270)" d="M1454.45 1528.42 L1454.45 1538.54 L1466.51 1538.54 L1466.51 1543.09 L1454.45 1543.09 L1454.45 1562.44 Q1454.45 1566.8 1455.63 1568.04 Q1456.84 1569.28 1460.5 1569.28 L1466.51 1569.28 L1466.51 1574.19 L1460.5 1574.19 Q1453.72 1574.19 1451.14 1571.67 Q1448.56 1569.12 1448.56 1562.44 L1448.56 1543.09 L1444.27 1543.09 L1444.27 1538.54 L1448.56 1538.54 L1448.56 1528.42 L1454.45 1528.42 Z" fill="#000000" fill-rule="evenodd" fill-opacity="1" /><path clip-path="url(#clip270)" d="M1504.71 1554.9 L1504.71 1557.76 L1477.78 1557.76 Q1478.16 1563.81 1481.41 1566.99 Q1484.69 1570.14 1490.51 1570.14 Q1493.89 1570.14 1497.04 1569.32 Q1500.22 1568.49 1503.34 1566.83 L1503.34 1572.37 Q1500.19 1573.71 1496.88 1574.41 Q1493.57 1575.11 1490.16 1575.11 Q1481.63 1575.11 1476.64 1570.14 Q1471.67 1565.18 1471.67 1556.71 Q1471.67 1547.96 1476.38 1542.83 Q1481.12 1537.68 1489.14 1537.68 Q1496.34 1537.68 1500.51 1542.33 Q1504.71 1546.94 1504.71 1554.9 M1498.85 1553.18 Q1498.79 1548.37 1496.15 1545.51 Q1493.54 1542.64 1489.21 1542.64 Q1484.31 1542.64 1481.35 1545.41 Q1478.42 1548.18 1477.97 1553.21 L1498.85 1553.18 Z" fill="#000000" fill-rule="evenodd" fill-opacity="1" /><path clip-path="url(#clip270)" d="M1537.05 1539.59 L1537.05 1545.13 Q1534.56 1543.85 1531.89 1543.22 Q1529.22 1542.58 1526.35 1542.58 Q1521.99 1542.58 1519.8 1543.92 Q1517.63 1545.25 1517.63 1547.93 Q1517.63 1549.96 1519.19 1551.14 Q1520.75 1552.29 1525.46 1553.34 L1527.47 1553.78 Q1533.7 1555.12 1536.31 1557.57 Q1538.96 1559.99 1538.96 1564.35 Q1538.96 1569.32 1535.01 1572.21 Q1531.09 1575.11 1524.22 1575.11 Q1521.35 1575.11 1518.24 1574.54 Q1515.15 1573.99 1511.71 1572.88 L1511.71 1566.83 Q1514.96 1568.52 1518.11 1569.38 Q1521.26 1570.21 1524.35 1570.21 Q1528.48 1570.21 1530.71 1568.81 Q1532.94 1567.37 1532.94 1564.8 Q1532.94 1562.41 1531.32 1561.14 Q1529.73 1559.86 1524.28 1558.68 L1522.25 1558.21 Q1516.8 1557.06 1514.38 1554.71 Q1511.97 1552.32 1511.97 1548.18 Q1511.97 1543.15 1515.53 1540.42 Q1519.09 1537.68 1525.65 1537.68 Q1528.9 1537.68 1531.76 1538.16 Q1534.63 1538.63 1537.05 1539.59 Z" fill="#000000" fill-rule="evenodd" fill-opacity="1" /><path clip-path="url(#clip270)" d="M1547.36 1524.72 L1552.45 1524.72 Q1557.23 1532.24 1559.58 1539.43 Q1561.97 1546.62 1561.97 1553.72 Q1561.97 1560.85 1559.58 1568.07 Q1557.23 1575.3 1552.45 1582.78 L1547.36 1582.78 Q1551.59 1575.49 1553.66 1568.3 Q1555.76 1561.07 1555.76 1553.72 Q1555.76 1546.37 1553.66 1539.21 Q1551.59 1532.04 1547.36 1524.72 Z" fill="#000000" fill-rule="evenodd" fill-opacity="1" /><polyline clip-path="url(#clip272)" style="stroke:#000000; stroke-linecap:butt; stroke-linejoin:round; stroke-width:2; stroke-opacity:0.1; fill:none" points="
  235.283,1378.04 2352.76,1378.04 
  "/>
<polyline clip-path="url(#clip272)" style="stroke:#000000; stroke-linecap:butt; stroke-linejoin:round; stroke-width:2; stroke-opacity:0.1; fill:none" points="
  235.283,1195.46 2352.76,1195.46 
  "/>
<polyline clip-path="url(#clip272)" style="stroke:#000000; stroke-linecap:butt; stroke-linejoin:round; stroke-width:2; stroke-opacity:0.1; fill:none" points="
  235.283,1012.89 2352.76,1012.89 
  "/>
<polyline clip-path="url(#clip272)" style="stroke:#000000; stroke-linecap:butt; stroke-linejoin:round; stroke-width:2; stroke-opacity:0.1; fill:none" points="
  235.283,830.31 2352.76,830.31 
  "/>
<polyline clip-path="url(#clip272)" style="stroke:#000000; stroke-linecap:butt; stroke-linejoin:round; stroke-width:2; stroke-opacity:0.1; fill:none" points="
  235.283,647.734 2352.76,647.734 
  "/>
<polyline clip-path="url(#clip272)" style="stroke:#000000; stroke-linecap:butt; stroke-linejoin:round; stroke-width:2; stroke-opacity:0.1; fill:none" points="
  235.283,465.158 2352.76,465.158 
  "/>
<polyline clip-path="url(#clip272)" style="stroke:#000000; stroke-linecap:butt; stroke-linejoin:round; stroke-width:2; stroke-opacity:0.1; fill:none" points="
  235.283,282.582 2352.76,282.582 
  "/>
<polyline clip-path="url(#clip270)" style="stroke:#000000; stroke-linecap:butt; stroke-linejoin:round; stroke-width:4; stroke-opacity:1; fill:none" points="
  235.283,1410.9 235.283,123.472 
  "/>
<polyline clip-path="url(#clip270)" style="stroke:#000000; stroke-linecap:butt; stroke-linejoin:round; stroke-width:4; stroke-opacity:1; fill:none" points="
  235.283,1378.04 254.18,1378.04 
  "/>
<polyline clip-path="url(#clip270)" style="stroke:#000000; stroke-linecap:butt; stroke-linejoin:round; stroke-width:4; stroke-opacity:1; fill:none" points="
  235.283,1195.46 254.18,1195.46 
  "/>
<polyline clip-path="url(#clip270)" style="stroke:#000000; stroke-linecap:butt; stroke-linejoin:round; stroke-width:4; stroke-opacity:1; fill:none" points="
  235.283,1012.89 254.18,1012.89 
  "/>
<polyline clip-path="url(#clip270)" style="stroke:#000000; stroke-linecap:butt; stroke-linejoin:round; stroke-width:4; stroke-opacity:1; fill:none" points="
  235.283,830.31 254.18,830.31 
  "/>
<polyline clip-path="url(#clip270)" style="stroke:#000000; stroke-linecap:butt; stroke-linejoin:round; stroke-width:4; stroke-opacity:1; fill:none" points="
  235.283,647.734 254.18,647.734 
  "/>
<polyline clip-path="url(#clip270)" style="stroke:#000000; stroke-linecap:butt; stroke-linejoin:round; stroke-width:4; stroke-opacity:1; fill:none" points="
  235.283,465.158 254.18,465.158 
  "/>
<polyline clip-path="url(#clip270)" style="stroke:#000000; stroke-linecap:butt; stroke-linejoin:round; stroke-width:4; stroke-opacity:1; fill:none" points="
  235.283,282.582 254.18,282.582 
  "/>
<path clip-path="url(#clip270)" d="M187.338 1363.84 Q183.727 1363.84 181.899 1367.4 Q180.093 1370.94 180.093 1378.07 Q180.093 1385.18 181.899 1388.74 Q183.727 1392.29 187.338 1392.29 Q190.973 1392.29 192.778 1388.74 Q194.607 1385.18 194.607 1378.07 Q194.607 1370.94 192.778 1367.4 Q190.973 1363.84 187.338 1363.84 M187.338 1360.13 Q193.149 1360.13 196.204 1364.74 Q199.283 1369.32 199.283 1378.07 Q199.283 1386.8 196.204 1391.41 Q193.149 1395.99 187.338 1395.99 Q181.528 1395.99 178.45 1391.41 Q175.394 1386.8 175.394 1378.07 Q175.394 1369.32 178.45 1364.74 Q181.528 1360.13 187.338 1360.13 Z" fill="#000000" fill-rule="evenodd" fill-opacity="1" /><path clip-path="url(#clip270)" d="M117.825 1208.81 L125.464 1208.81 L125.464 1182.44 L117.154 1184.11 L117.154 1179.85 L125.418 1178.18 L130.093 1178.18 L130.093 1208.81 L137.732 1208.81 L137.732 1212.74 L117.825 1212.74 L117.825 1208.81 Z" fill="#000000" fill-rule="evenodd" fill-opacity="1" /><path clip-path="url(#clip270)" d="M157.177 1181.26 Q153.566 1181.26 151.737 1184.83 Q149.931 1188.37 149.931 1195.5 Q149.931 1202.6 151.737 1206.17 Q153.566 1209.71 157.177 1209.71 Q160.811 1209.71 162.616 1206.17 Q164.445 1202.6 164.445 1195.5 Q164.445 1188.37 162.616 1184.83 Q160.811 1181.26 157.177 1181.26 M157.177 1177.56 Q162.987 1177.56 166.042 1182.16 Q169.121 1186.75 169.121 1195.5 Q169.121 1204.22 166.042 1208.83 Q162.987 1213.41 157.177 1213.41 Q151.366 1213.41 148.288 1208.83 Q145.232 1204.22 145.232 1195.5 Q145.232 1186.75 148.288 1182.16 Q151.366 1177.56 157.177 1177.56 Z" fill="#000000" fill-rule="evenodd" fill-opacity="1" /><path clip-path="url(#clip270)" d="M187.338 1181.26 Q183.727 1181.26 181.899 1184.83 Q180.093 1188.37 180.093 1195.5 Q180.093 1202.6 181.899 1206.17 Q183.727 1209.71 187.338 1209.71 Q190.973 1209.71 192.778 1206.17 Q194.607 1202.6 194.607 1195.5 Q194.607 1188.37 192.778 1184.83 Q190.973 1181.26 187.338 1181.26 M187.338 1177.56 Q193.149 1177.56 196.204 1182.16 Q199.283 1186.75 199.283 1195.5 Q199.283 1204.22 196.204 1208.83 Q193.149 1213.41 187.338 1213.41 Q181.528 1213.41 178.45 1208.83 Q175.394 1204.22 175.394 1195.5 Q175.394 1186.75 178.45 1182.16 Q181.528 1177.56 187.338 1177.56 Z" fill="#000000" fill-rule="evenodd" fill-opacity="1" /><path clip-path="url(#clip270)" d="M121.043 1026.23 L137.362 1026.23 L137.362 1030.17 L115.418 1030.17 L115.418 1026.23 Q118.08 1023.48 122.663 1018.85 Q127.269 1014.19 128.45 1012.85 Q130.695 1010.33 131.575 1008.59 Q132.478 1006.83 132.478 1005.14 Q132.478 1002.39 130.533 1000.65 Q128.612 998.916 125.51 998.916 Q123.311 998.916 120.857 999.68 Q118.427 1000.44 115.649 1002 L115.649 997.273 Q118.473 996.139 120.927 995.56 Q123.38 994.981 125.418 994.981 Q130.788 994.981 133.982 997.666 Q137.177 1000.35 137.177 1004.84 Q137.177 1006.97 136.367 1008.89 Q135.579 1010.79 133.473 1013.38 Q132.894 1014.06 129.792 1017.27 Q126.691 1020.47 121.043 1026.23 Z" fill="#000000" fill-rule="evenodd" fill-opacity="1" /><path clip-path="url(#clip270)" d="M157.177 998.685 Q153.566 998.685 151.737 1002.25 Q149.931 1005.79 149.931 1012.92 Q149.931 1020.03 151.737 1023.59 Q153.566 1027.13 157.177 1027.13 Q160.811 1027.13 162.616 1023.59 Q164.445 1020.03 164.445 1012.92 Q164.445 1005.79 162.616 1002.25 Q160.811 998.685 157.177 998.685 M157.177 994.981 Q162.987 994.981 166.042 999.588 Q169.121 1004.17 169.121 1012.92 Q169.121 1021.65 166.042 1026.25 Q162.987 1030.84 157.177 1030.84 Q151.366 1030.84 148.288 1026.25 Q145.232 1021.65 145.232 1012.92 Q145.232 1004.17 148.288 999.588 Q151.366 994.981 157.177 994.981 Z" fill="#000000" fill-rule="evenodd" fill-opacity="1" /><path clip-path="url(#clip270)" d="M187.338 998.685 Q183.727 998.685 181.899 1002.25 Q180.093 1005.79 180.093 1012.92 Q180.093 1020.03 181.899 1023.59 Q183.727 1027.13 187.338 1027.13 Q190.973 1027.13 192.778 1023.59 Q194.607 1020.03 194.607 1012.92 Q194.607 1005.79 192.778 1002.25 Q190.973 998.685 187.338 998.685 M187.338 994.981 Q193.149 994.981 196.204 999.588 Q199.283 1004.17 199.283 1012.92 Q199.283 1021.65 196.204 1026.25 Q193.149 1030.84 187.338 1030.84 Q181.528 1030.84 178.45 1026.25 Q175.394 1021.65 175.394 1012.92 Q175.394 1004.17 178.45 999.588 Q181.528 994.981 187.338 994.981 Z" fill="#000000" fill-rule="evenodd" fill-opacity="1" /><path clip-path="url(#clip270)" d="M131.181 828.956 Q134.538 829.674 136.413 831.942 Q138.311 834.211 138.311 837.544 Q138.311 842.66 134.792 845.46 Q131.274 848.261 124.793 848.261 Q122.617 848.261 120.302 847.822 Q118.01 847.405 115.556 846.548 L115.556 842.035 Q117.501 843.169 119.816 843.748 Q122.13 844.326 124.654 844.326 Q129.052 844.326 131.343 842.59 Q133.658 840.854 133.658 837.544 Q133.658 834.488 131.505 832.775 Q129.376 831.039 125.556 831.039 L121.529 831.039 L121.529 827.197 L125.742 827.197 Q129.191 827.197 131.019 825.831 Q132.848 824.442 132.848 821.849 Q132.848 819.187 130.95 817.775 Q129.075 816.34 125.556 816.34 Q123.635 816.34 121.436 816.757 Q119.237 817.174 116.598 818.053 L116.598 813.887 Q119.26 813.146 121.575 812.775 Q123.913 812.405 125.973 812.405 Q131.297 812.405 134.399 814.836 Q137.501 817.243 137.501 821.363 Q137.501 824.234 135.857 826.224 Q134.214 828.192 131.181 828.956 Z" fill="#000000" fill-rule="evenodd" fill-opacity="1" /><path clip-path="url(#clip270)" d="M157.177 816.109 Q153.566 816.109 151.737 819.674 Q149.931 823.215 149.931 830.345 Q149.931 837.451 151.737 841.016 Q153.566 844.558 157.177 844.558 Q160.811 844.558 162.616 841.016 Q164.445 837.451 164.445 830.345 Q164.445 823.215 162.616 819.674 Q160.811 816.109 157.177 816.109 M157.177 812.405 Q162.987 812.405 166.042 817.012 Q169.121 821.595 169.121 830.345 Q169.121 839.072 166.042 843.678 Q162.987 848.261 157.177 848.261 Q151.366 848.261 148.288 843.678 Q145.232 839.072 145.232 830.345 Q145.232 821.595 148.288 817.012 Q151.366 812.405 157.177 812.405 Z" fill="#000000" fill-rule="evenodd" fill-opacity="1" /><path clip-path="url(#clip270)" d="M187.338 816.109 Q183.727 816.109 181.899 819.674 Q180.093 823.215 180.093 830.345 Q180.093 837.451 181.899 841.016 Q183.727 844.558 187.338 844.558 Q190.973 844.558 192.778 841.016 Q194.607 837.451 194.607 830.345 Q194.607 823.215 192.778 819.674 Q190.973 816.109 187.338 816.109 M187.338 812.405 Q193.149 812.405 196.204 817.012 Q199.283 821.595 199.283 830.345 Q199.283 839.072 196.204 843.678 Q193.149 848.261 187.338 848.261 Q181.528 848.261 178.45 843.678 Q175.394 839.072 175.394 830.345 Q175.394 821.595 178.45 817.012 Q181.528 812.405 187.338 812.405 Z" fill="#000000" fill-rule="evenodd" fill-opacity="1" /><path clip-path="url(#clip270)" d="M129.862 634.528 L118.056 652.977 L129.862 652.977 L129.862 634.528 M128.635 630.454 L134.515 630.454 L134.515 652.977 L139.445 652.977 L139.445 656.866 L134.515 656.866 L134.515 665.014 L129.862 665.014 L129.862 656.866 L114.26 656.866 L114.26 652.352 L128.635 630.454 Z" fill="#000000" fill-rule="evenodd" fill-opacity="1" /><path clip-path="url(#clip270)" d="M157.177 633.533 Q153.566 633.533 151.737 637.097 Q149.931 640.639 149.931 647.769 Q149.931 654.875 151.737 658.44 Q153.566 661.982 157.177 661.982 Q160.811 661.982 162.616 658.44 Q164.445 654.875 164.445 647.769 Q164.445 640.639 162.616 637.097 Q160.811 633.533 157.177 633.533 M157.177 629.829 Q162.987 629.829 166.042 634.435 Q169.121 639.019 169.121 647.769 Q169.121 656.495 166.042 661.102 Q162.987 665.685 157.177 665.685 Q151.366 665.685 148.288 661.102 Q145.232 656.495 145.232 647.769 Q145.232 639.019 148.288 634.435 Q151.366 629.829 157.177 629.829 Z" fill="#000000" fill-rule="evenodd" fill-opacity="1" /><path clip-path="url(#clip270)" d="M187.338 633.533 Q183.727 633.533 181.899 637.097 Q180.093 640.639 180.093 647.769 Q180.093 654.875 181.899 658.44 Q183.727 661.982 187.338 661.982 Q190.973 661.982 192.778 658.44 Q194.607 654.875 194.607 647.769 Q194.607 640.639 192.778 637.097 Q190.973 633.533 187.338 633.533 M187.338 629.829 Q193.149 629.829 196.204 634.435 Q199.283 639.019 199.283 647.769 Q199.283 656.495 196.204 661.102 Q193.149 665.685 187.338 665.685 Q181.528 665.685 178.45 661.102 Q175.394 656.495 175.394 647.769 Q175.394 639.019 178.45 634.435 Q181.528 629.829 187.338 629.829 Z" fill="#000000" fill-rule="evenodd" fill-opacity="1" /><path clip-path="url(#clip270)" d="M117.061 447.878 L135.417 447.878 L135.417 451.813 L121.343 451.813 L121.343 460.285 Q122.362 459.938 123.38 459.776 Q124.399 459.591 125.418 459.591 Q131.205 459.591 134.584 462.762 Q137.964 465.933 137.964 471.35 Q137.964 476.929 134.492 480.03 Q131.019 483.109 124.7 483.109 Q122.524 483.109 120.255 482.739 Q118.01 482.368 115.603 481.628 L115.603 476.929 Q117.686 478.063 119.908 478.618 Q122.13 479.174 124.607 479.174 Q128.612 479.174 130.95 477.067 Q133.288 474.961 133.288 471.35 Q133.288 467.739 130.95 465.632 Q128.612 463.526 124.607 463.526 Q122.732 463.526 120.857 463.942 Q119.006 464.359 117.061 465.239 L117.061 447.878 Z" fill="#000000" fill-rule="evenodd" fill-opacity="1" /><path clip-path="url(#clip270)" d="M157.177 450.956 Q153.566 450.956 151.737 454.521 Q149.931 458.063 149.931 465.192 Q149.931 472.299 151.737 475.864 Q153.566 479.405 157.177 479.405 Q160.811 479.405 162.616 475.864 Q164.445 472.299 164.445 465.192 Q164.445 458.063 162.616 454.521 Q160.811 450.956 157.177 450.956 M157.177 447.253 Q162.987 447.253 166.042 451.859 Q169.121 456.443 169.121 465.192 Q169.121 473.919 166.042 478.526 Q162.987 483.109 157.177 483.109 Q151.366 483.109 148.288 478.526 Q145.232 473.919 145.232 465.192 Q145.232 456.443 148.288 451.859 Q151.366 447.253 157.177 447.253 Z" fill="#000000" fill-rule="evenodd" fill-opacity="1" /><path clip-path="url(#clip270)" d="M187.338 450.956 Q183.727 450.956 181.899 454.521 Q180.093 458.063 180.093 465.192 Q180.093 472.299 181.899 475.864 Q183.727 479.405 187.338 479.405 Q190.973 479.405 192.778 475.864 Q194.607 472.299 194.607 465.192 Q194.607 458.063 192.778 454.521 Q190.973 450.956 187.338 450.956 M187.338 447.253 Q193.149 447.253 196.204 451.859 Q199.283 456.443 199.283 465.192 Q199.283 473.919 196.204 478.526 Q193.149 483.109 187.338 483.109 Q181.528 483.109 178.45 478.526 Q175.394 473.919 175.394 465.192 Q175.394 456.443 178.45 451.859 Q181.528 447.253 187.338 447.253 Z" fill="#000000" fill-rule="evenodd" fill-opacity="1" /><path clip-path="url(#clip270)" d="M127.593 280.718 Q124.445 280.718 122.593 282.871 Q120.765 285.024 120.765 288.774 Q120.765 292.501 122.593 294.676 Q124.445 296.829 127.593 296.829 Q130.742 296.829 132.57 294.676 Q134.422 292.501 134.422 288.774 Q134.422 285.024 132.57 282.871 Q130.742 280.718 127.593 280.718 M136.876 266.065 L136.876 270.325 Q135.117 269.491 133.311 269.052 Q131.529 268.612 129.769 268.612 Q125.14 268.612 122.686 271.737 Q120.255 274.862 119.908 281.181 Q121.274 279.167 123.334 278.102 Q125.394 277.014 127.871 277.014 Q133.08 277.014 136.089 280.186 Q139.121 283.334 139.121 288.774 Q139.121 294.098 135.973 297.315 Q132.825 300.533 127.593 300.533 Q121.598 300.533 118.427 295.95 Q115.256 291.343 115.256 282.616 Q115.256 274.422 119.144 269.561 Q123.033 264.677 129.584 264.677 Q131.343 264.677 133.126 265.024 Q134.931 265.371 136.876 266.065 Z" fill="#000000" fill-rule="evenodd" fill-opacity="1" /><path clip-path="url(#clip270)" d="M157.177 268.38 Q153.566 268.38 151.737 271.945 Q149.931 275.487 149.931 282.616 Q149.931 289.723 151.737 293.288 Q153.566 296.829 157.177 296.829 Q160.811 296.829 162.616 293.288 Q164.445 289.723 164.445 282.616 Q164.445 275.487 162.616 271.945 Q160.811 268.38 157.177 268.38 M157.177 264.677 Q162.987 264.677 166.042 269.283 Q169.121 273.866 169.121 282.616 Q169.121 291.343 166.042 295.95 Q162.987 300.533 157.177 300.533 Q151.366 300.533 148.288 295.95 Q145.232 291.343 145.232 282.616 Q145.232 273.866 148.288 269.283 Q151.366 264.677 157.177 264.677 Z" fill="#000000" fill-rule="evenodd" fill-opacity="1" /><path clip-path="url(#clip270)" d="M187.338 268.38 Q183.727 268.38 181.899 271.945 Q180.093 275.487 180.093 282.616 Q180.093 289.723 181.899 293.288 Q183.727 296.829 187.338 296.829 Q190.973 296.829 192.778 293.288 Q194.607 289.723 194.607 282.616 Q194.607 275.487 192.778 271.945 Q190.973 268.38 187.338 268.38 M187.338 264.677 Q193.149 264.677 196.204 269.283 Q199.283 273.866 199.283 282.616 Q199.283 291.343 196.204 295.95 Q193.149 300.533 187.338 300.533 Q181.528 300.533 178.45 295.95 Q175.394 291.343 175.394 282.616 Q175.394 273.866 178.45 269.283 Q181.528 264.677 187.338 264.677 Z" fill="#000000" fill-rule="evenodd" fill-opacity="1" /><path clip-path="url(#clip270)" d="M14.479 954.543 L14.479 948.687 L64.0042 948.687 L64.0042 954.543 L14.479 954.543 Z" fill="#000000" fill-rule="evenodd" fill-opacity="1" /><path clip-path="url(#clip270)" d="M46.0847 920.232 Q46.0847 927.33 47.7079 930.067 Q49.3312 932.804 53.2461 932.804 Q56.3653 932.804 58.2114 930.767 Q60.0256 928.698 60.0256 925.165 Q60.0256 920.296 56.5881 917.367 Q53.1188 914.407 47.3897 914.407 L46.0847 914.407 L46.0847 920.232 M43.6657 908.551 L64.0042 908.551 L64.0042 914.407 L58.5933 914.407 Q61.8398 916.412 63.3994 919.404 Q64.9272 922.396 64.9272 926.725 Q64.9272 932.199 61.8716 935.446 Q58.7843 938.661 53.6281 938.661 Q47.6125 938.661 44.5569 934.65 Q41.5014 930.608 41.5014 922.619 L41.5014 914.407 L40.9285 914.407 Q36.8862 914.407 34.6901 917.081 Q32.4621 919.723 32.4621 924.529 Q32.4621 927.584 33.1941 930.481 Q33.9262 933.377 35.3903 936.051 L29.9795 936.051 Q28.7381 932.836 28.1334 929.812 Q27.4968 926.789 27.4968 923.924 Q27.4968 916.19 31.5072 912.37 Q35.5176 908.551 43.6657 908.551 Z" fill="#000000" fill-rule="evenodd" fill-opacity="1" /><path clip-path="url(#clip270)" d="M18.2347 890.695 L28.3562 890.695 L28.3562 878.632 L32.9077 878.632 L32.9077 890.695 L52.2594 890.695 Q56.6199 890.695 57.8613 889.517 Q59.1026 888.308 59.1026 884.648 L59.1026 878.632 L64.0042 878.632 L64.0042 884.648 Q64.0042 891.427 61.4897 894.005 Q58.9434 896.583 52.2594 896.583 L32.9077 896.583 L32.9077 900.88 L28.3562 900.88 L28.3562 896.583 L18.2347 896.583 L18.2347 890.695 Z" fill="#000000" fill-rule="evenodd" fill-opacity="1" /><path clip-path="url(#clip270)" d="M44.7161 840.438 L47.5806 840.438 L47.5806 867.365 Q53.6281 866.983 56.8109 863.736 Q59.9619 860.458 59.9619 854.633 Q59.9619 851.259 59.1344 848.108 Q58.3069 844.926 56.6518 841.806 L62.1899 841.806 Q63.5267 844.957 64.227 848.268 Q64.9272 851.578 64.9272 854.983 Q64.9272 863.513 59.9619 868.511 Q54.9967 873.476 46.5303 873.476 Q37.7774 873.476 32.6531 868.765 Q27.4968 864.023 27.4968 856.002 Q27.4968 848.809 32.1438 844.639 Q36.7589 840.438 44.7161 840.438 M42.9973 846.294 Q38.1912 846.358 35.3266 849 Q32.4621 851.61 32.4621 855.938 Q32.4621 860.84 35.2312 863.8 Q38.0002 866.728 43.0292 867.174 L42.9973 846.294 Z" fill="#000000" fill-rule="evenodd" fill-opacity="1" /><path clip-path="url(#clip270)" d="M42.4881 801.193 L64.0042 801.193 L64.0042 807.05 L42.679 807.05 Q37.6183 807.05 35.1038 809.023 Q32.5894 810.996 32.5894 814.943 Q32.5894 819.686 35.6131 822.423 Q38.6368 825.16 43.8567 825.16 L64.0042 825.16 L64.0042 831.048 L28.3562 831.048 L28.3562 825.16 L33.8944 825.16 Q30.6797 823.059 29.0883 820.227 Q27.4968 817.362 27.4968 813.638 Q27.4968 807.495 31.3163 804.344 Q35.1038 801.193 42.4881 801.193 Z" fill="#000000" fill-rule="evenodd" fill-opacity="1" /><path clip-path="url(#clip270)" d="M29.7248 763.858 L35.1993 763.858 Q33.8307 766.341 33.1623 768.855 Q32.4621 771.338 32.4621 773.884 Q32.4621 779.582 36.0905 782.733 Q39.6872 785.884 46.212 785.884 Q52.7369 785.884 56.3653 782.733 Q59.9619 779.582 59.9619 773.884 Q59.9619 771.338 59.2935 768.855 Q58.5933 766.341 57.2247 763.858 L62.6355 763.858 Q63.7814 766.309 64.3543 768.951 Q64.9272 771.561 64.9272 774.521 Q64.9272 782.573 59.8664 787.316 Q54.8057 792.058 46.212 792.058 Q37.491 792.058 32.4939 787.284 Q27.4968 782.478 27.4968 774.139 Q27.4968 771.433 28.0697 768.855 Q28.6108 766.277 29.7248 763.858 Z" fill="#000000" fill-rule="evenodd" fill-opacity="1" /><path clip-path="url(#clip270)" d="M67.3143 738.841 Q73.68 741.324 75.6216 743.679 Q77.5631 746.034 77.5631 749.981 L77.5631 754.66 L72.6615 754.66 L72.6615 751.222 Q72.6615 748.803 71.5157 747.467 Q70.3699 746.13 66.1048 744.507 L63.4312 743.456 L28.3562 757.875 L28.3562 751.668 L56.238 740.528 L28.3562 729.388 L28.3562 723.181 L67.3143 738.841 Z" fill="#000000" fill-rule="evenodd" fill-opacity="1" /><path clip-path="url(#clip270)" d="M14.5426 680.308 Q21.8632 684.573 29.0246 686.642 Q36.186 688.711 43.5384 688.711 Q50.8908 688.711 58.1159 686.642 Q65.3091 684.542 72.5979 680.308 L72.5979 685.401 Q65.1182 690.175 57.8931 692.562 Q50.668 694.918 43.5384 694.918 Q36.4406 694.918 29.2474 692.562 Q22.0542 690.207 14.5426 685.401 L14.5426 680.308 Z" fill="#000000" fill-rule="evenodd" fill-opacity="1" /><path clip-path="url(#clip270)" d="M77.5631 669.55 L28.3562 669.55 L28.3562 663.694 L50.5089 663.694 Q55.124 663.694 57.4793 661.498 Q59.8346 659.302 59.8346 655.005 Q59.8346 650.294 57.161 647.939 Q54.4874 645.552 49.1402 645.552 L28.3562 645.552 L28.3562 639.695 L55.7924 639.695 Q57.7021 639.695 58.6251 639.154 Q59.5163 638.581 59.5163 637.404 Q59.5163 637.117 59.3572 636.608 Q59.1662 636.099 58.7843 635.207 L63.4949 635.207 Q64.227 636.512 64.5771 637.69 Q64.9272 638.836 64.9272 639.95 Q64.9272 642.146 63.6859 643.451 Q62.4446 644.756 59.8983 645.233 Q62.4127 646.825 63.6859 649.148 Q64.9272 651.44 64.9272 654.559 Q64.9272 657.806 63.6859 660.097 Q62.4446 662.357 59.9619 663.694 L77.5631 663.694 L77.5631 669.55 Z" fill="#000000" fill-rule="evenodd" fill-opacity="1" /><path clip-path="url(#clip270)" d="M29.4065 604.747 L34.9447 604.747 Q33.6716 607.23 33.035 609.904 Q32.3984 612.577 32.3984 615.442 Q32.3984 619.802 33.7352 621.999 Q35.072 624.163 37.7456 624.163 Q39.7826 624.163 40.9603 622.603 Q42.1061 621.044 43.1565 616.333 L43.6021 614.328 Q44.9389 608.089 47.3897 605.48 Q49.8086 602.838 54.1691 602.838 Q59.1344 602.838 62.0308 606.784 Q64.9272 610.699 64.9272 617.574 Q64.9272 620.439 64.3543 623.558 Q63.8132 626.645 62.6992 630.083 L56.6518 630.083 Q58.3387 626.836 59.198 623.685 Q60.0256 620.534 60.0256 617.447 Q60.0256 613.309 58.6251 611.081 Q57.1929 608.853 54.6147 608.853 Q52.2276 608.853 50.9545 610.477 Q49.6813 612.068 48.5037 617.511 L48.0262 619.548 Q46.8804 624.99 44.5251 627.409 Q42.138 629.828 38.0002 629.828 Q32.9713 629.828 30.2341 626.264 Q27.4968 622.699 27.4968 616.142 Q27.4968 612.896 27.9743 610.031 Q28.4517 607.166 29.4065 604.747 Z" fill="#000000" fill-rule="evenodd" fill-opacity="1" /><path clip-path="url(#clip270)" d="M14.5426 594.435 L14.5426 589.342 Q22.0542 584.568 29.2474 582.213 Q36.4406 579.826 43.5384 579.826 Q50.668 579.826 57.8931 582.213 Q65.1182 584.568 72.5979 589.342 L72.5979 594.435 Q65.3091 590.202 58.1159 588.133 Q50.8908 586.032 43.5384 586.032 Q36.186 586.032 29.0246 588.133 Q21.8632 590.202 14.5426 594.435 Z" fill="#000000" fill-rule="evenodd" fill-opacity="1" /><path clip-path="url(#clip270)" d="M912.748 12.096 L924.941 12.096 L940.375 53.2532 L955.89 12.096 L968.084 12.096 L968.084 72.576 L960.103 72.576 L960.103 19.4686 L944.507 60.9499 L936.284 60.9499 L920.688 19.4686 L920.688 72.576 L912.748 72.576 L912.748 12.096 Z" fill="#000000" fill-rule="evenodd" fill-opacity="1" /><path clip-path="url(#clip270)" d="M992.511 18.8205 L992.511 41.5461 L1002.8 41.5461 Q1008.51 41.5461 1011.63 38.5889 Q1014.75 35.6318 1014.75 30.163 Q1014.75 24.7348 1011.63 21.7777 Q1008.51 18.8205 1002.8 18.8205 L992.511 18.8205 M984.328 12.096 L1002.8 12.096 Q1012.97 12.096 1018.15 16.714 Q1023.38 21.2916 1023.38 30.163 Q1023.38 39.1155 1018.15 43.6931 Q1012.97 48.2706 1002.8 48.2706 L992.511 48.2706 L992.511 72.576 L984.328 72.576 L984.328 12.096 Z" fill="#000000" fill-rule="evenodd" fill-opacity="1" /><path clip-path="url(#clip270)" d="M1034.36 12.096 L1042.54 12.096 L1042.54 72.576 L1034.36 72.576 L1034.36 12.096 Z" fill="#000000" fill-rule="evenodd" fill-opacity="1" /><path clip-path="url(#clip270)" d="M1104.11 16.7545 L1104.11 25.383 Q1099.98 21.5346 1095.28 19.6307 Q1090.62 17.7268 1085.36 17.7268 Q1074.99 17.7268 1069.48 24.0867 Q1063.97 30.4061 1063.97 42.3968 Q1063.97 54.3469 1069.48 60.7069 Q1074.99 67.0263 1085.36 67.0263 Q1090.62 67.0263 1095.28 65.1223 Q1099.98 63.2184 1104.11 59.3701 L1104.11 67.9175 Q1099.82 70.8341 1095 72.2924 Q1090.22 73.7508 1084.87 73.7508 Q1071.14 73.7508 1063.24 65.3654 Q1055.34 56.9395 1055.34 42.3968 Q1055.34 27.8135 1063.24 19.4281 Q1071.14 11.0023 1084.87 11.0023 Q1090.3 11.0023 1095.08 12.4606 Q1099.9 13.8784 1104.11 16.7545 Z" fill="#000000" fill-rule="evenodd" fill-opacity="1" /><path clip-path="url(#clip270)" d="M1116.75 12.096 L1124.93 12.096 L1124.93 36.8875 L1154.67 36.8875 L1154.67 12.096 L1162.85 12.096 L1162.85 72.576 L1154.67 72.576 L1154.67 43.7741 L1124.93 43.7741 L1124.93 72.576 L1116.75 72.576 L1116.75 12.096 Z" fill="#000000" fill-rule="evenodd" fill-opacity="1" /><path clip-path="url(#clip270)" d="M1231.03 39.9662 Q1236.9 41.222 1240.18 45.1919 Q1243.5 49.1618 1243.5 54.9951 Q1243.5 63.9476 1237.35 68.8492 Q1231.19 73.7508 1219.85 73.7508 Q1216.04 73.7508 1211.99 72.9811 Q1207.98 72.2519 1203.68 70.7531 L1203.68 62.8538 Q1207.09 64.8388 1211.14 65.8515 Q1215.19 66.8642 1219.6 66.8642 Q1227.3 66.8642 1231.31 63.826 Q1235.36 60.7879 1235.36 54.9951 Q1235.36 49.6479 1231.59 46.6502 Q1227.87 43.612 1221.18 43.612 L1214.14 43.612 L1214.14 36.8875 L1221.51 36.8875 Q1227.54 36.8875 1230.74 34.4975 Q1233.94 32.067 1233.94 27.5299 Q1233.94 22.8714 1230.62 20.4004 Q1227.34 17.8888 1221.18 17.8888 Q1217.82 17.8888 1213.97 18.618 Q1210.13 19.3471 1205.51 20.8865 L1205.51 13.5948 Q1210.17 12.2985 1214.22 11.6504 Q1218.31 11.0023 1221.91 11.0023 Q1231.23 11.0023 1236.66 15.2557 Q1242.09 19.4686 1242.09 26.6793 Q1242.09 31.7024 1239.21 35.1862 Q1236.33 38.6294 1231.03 39.9662 Z" fill="#000000" fill-rule="evenodd" fill-opacity="1" /><path clip-path="url(#clip270)" d="M1259.02 62.2867 L1267.57 62.2867 L1267.57 72.576 L1259.02 72.576 L1259.02 62.2867 Z" fill="#000000" fill-rule="evenodd" fill-opacity="1" /><path clip-path="url(#clip270)" d="M1307.87 19.2256 L1287.21 51.5113 L1307.87 51.5113 L1307.87 19.2256 M1305.73 12.096 L1316.02 12.096 L1316.02 51.5113 L1324.64 51.5113 L1324.64 58.3168 L1316.02 58.3168 L1316.02 72.576 L1307.87 72.576 L1307.87 58.3168 L1280.57 58.3168 L1280.57 50.4176 L1305.73 12.096 Z" fill="#000000" fill-rule="evenodd" fill-opacity="1" /><path clip-path="url(#clip270)" d="M1338.17 62.2867 L1346.72 62.2867 L1346.72 72.576 L1338.17 72.576 L1338.17 62.2867 Z" fill="#000000" fill-rule="evenodd" fill-opacity="1" /><path clip-path="url(#clip270)" d="M1389.34 39.9662 Q1395.21 41.222 1398.49 45.1919 Q1401.81 49.1618 1401.81 54.9951 Q1401.81 63.9476 1395.66 68.8492 Q1389.5 73.7508 1378.16 73.7508 Q1374.35 73.7508 1370.3 72.9811 Q1366.29 72.2519 1361.99 70.7531 L1361.99 62.8538 Q1365.4 64.8388 1369.45 65.8515 Q1373.5 66.8642 1377.91 66.8642 Q1385.61 66.8642 1389.62 63.826 Q1393.67 60.7879 1393.67 54.9951 Q1393.67 49.6479 1389.9 46.6502 Q1386.18 43.612 1379.49 43.612 L1372.44 43.612 L1372.44 36.8875 L1379.82 36.8875 Q1385.85 36.8875 1389.05 34.4975 Q1392.25 32.067 1392.25 27.5299 Q1392.25 22.8714 1388.93 20.4004 Q1385.65 17.8888 1379.49 17.8888 Q1376.13 17.8888 1372.28 18.618 Q1368.43 19.3471 1363.82 20.8865 L1363.82 13.5948 Q1368.47 12.2985 1372.53 11.6504 Q1376.62 11.0023 1380.22 11.0023 Q1389.54 11.0023 1394.97 15.2557 Q1400.4 19.4686 1400.4 26.6793 Q1400.4 31.7024 1397.52 35.1862 Q1394.64 38.6294 1389.34 39.9662 Z" fill="#000000" fill-rule="evenodd" fill-opacity="1" /><path clip-path="url(#clip270)" d="M1472.99 20.5624 L1472.99 43.1259 L1495.55 43.1259 L1495.55 50.0125 L1472.99 50.0125 L1472.99 72.576 L1466.18 72.576 L1466.18 50.0125 L1443.62 50.0125 L1443.62 43.1259 L1466.18 43.1259 L1466.18 20.5624 L1472.99 20.5624 Z" fill="#000000" fill-rule="evenodd" fill-opacity="1" /><path clip-path="url(#clip270)" d="M1537.76 54.671 L1537.76 27.2059 L1545.22 27.2059 L1545.22 54.3874 Q1545.22 60.8284 1547.73 64.0691 Q1550.24 67.2693 1555.26 67.2693 Q1561.3 67.2693 1564.78 63.421 Q1568.31 59.5726 1568.31 52.9291 L1568.31 27.2059 L1575.76 27.2059 L1575.76 72.576 L1568.31 72.576 L1568.31 65.6084 Q1565.59 69.7404 1561.99 71.7658 Q1558.42 73.7508 1553.68 73.7508 Q1545.86 73.7508 1541.81 68.8897 Q1537.76 64.0286 1537.76 54.671 M1556.52 26.1121 L1556.52 26.1121 Z" fill="#000000" fill-rule="evenodd" fill-opacity="1" /><path clip-path="url(#clip270)" d="M1623.76 28.9478 L1623.76 35.9153 Q1620.6 34.1734 1617.4 33.3227 Q1614.24 32.4315 1611 32.4315 Q1603.75 32.4315 1599.74 37.0496 Q1595.73 41.6271 1595.73 49.9314 Q1595.73 58.2358 1599.74 62.8538 Q1603.75 67.4314 1611 67.4314 Q1614.24 67.4314 1617.4 66.5807 Q1620.6 65.6895 1623.76 63.9476 L1623.76 70.8341 Q1620.64 72.2924 1617.28 73.0216 Q1613.96 73.7508 1610.19 73.7508 Q1599.94 73.7508 1593.91 67.3098 Q1587.87 60.8689 1587.87 49.9314 Q1587.87 38.832 1593.95 32.472 Q1600.07 26.1121 1610.68 26.1121 Q1614.12 26.1121 1617.4 26.8413 Q1620.68 27.5299 1623.76 28.9478 Z" fill="#000000" fill-rule="evenodd" fill-opacity="1" /><path clip-path="url(#clip270)" d="M1674.44 27.2059 L1658.03 49.2833 L1675.29 72.576 L1666.5 72.576 L1653.29 54.752 L1640.09 72.576 L1631.3 72.576 L1648.92 48.8377 L1632.8 27.2059 L1641.59 27.2059 L1653.62 43.369 L1665.65 27.2059 L1674.44 27.2059 Z" fill="#000000" fill-rule="evenodd" fill-opacity="1" /><polyline clip-path="url(#clip272)" style="stroke:#000000; stroke-linecap:butt; stroke-linejoin:round; stroke-width:4; stroke-opacity:1; fill:none" points="
  295.211,1374.39 386.012,1374.39 476.813,1374.39 567.614,1374.39 658.414,1374.46 749.215,1374.44 840.016,1374.28 930.816,1373.04 1021.62,1372.87 1112.42,1372.58 
  1203.22,1372.01 1294.02,1371.08 1384.82,1370.17 1475.62,1368.27 1566.42,1365.88 1657.22,1360.57 1748.02,1350.6 1838.82,1329.78 1929.62,1290.07 2020.43,1215.38 
  2111.23,1065.23 2202.03,764.382 2292.83,159.909 
  "/>
<circle clip-path="url(#clip272)" cx="295.211" cy="1374.39" r="14" fill="#ff0000" fill-rule="evenodd" fill-opacity="1" stroke="#000000" stroke-opacity="1" stroke-width="3.2"/>
<circle clip-path="url(#clip272)" cx="386.012" cy="1374.39" r="14" fill="#ff0000" fill-rule="evenodd" fill-opacity="1" stroke="#000000" stroke-opacity="1" stroke-width="3.2"/>
<circle clip-path="url(#clip272)" cx="476.813" cy="1374.39" r="14" fill="#ff0000" fill-rule="evenodd" fill-opacity="1" stroke="#000000" stroke-opacity="1" stroke-width="3.2"/>
<circle clip-path="url(#clip272)" cx="567.614" cy="1374.39" r="14" fill="#ff0000" fill-rule="evenodd" fill-opacity="1" stroke="#000000" stroke-opacity="1" stroke-width="3.2"/>
<circle clip-path="url(#clip272)" cx="658.414" cy="1374.46" r="14" fill="#ff0000" fill-rule="evenodd" fill-opacity="1" stroke="#000000" stroke-opacity="1" stroke-width="3.2"/>
<circle clip-path="url(#clip272)" cx="749.215" cy="1374.44" r="14" fill="#ff0000" fill-rule="evenodd" fill-opacity="1" stroke="#000000" stroke-opacity="1" stroke-width="3.2"/>
<circle clip-path="url(#clip272)" cx="840.016" cy="1374.28" r="14" fill="#ff0000" fill-rule="evenodd" fill-opacity="1" stroke="#000000" stroke-opacity="1" stroke-width="3.2"/>
<circle clip-path="url(#clip272)" cx="930.816" cy="1373.04" r="14" fill="#ff0000" fill-rule="evenodd" fill-opacity="1" stroke="#000000" stroke-opacity="1" stroke-width="3.2"/>
<circle clip-path="url(#clip272)" cx="1021.62" cy="1372.87" r="14" fill="#ff0000" fill-rule="evenodd" fill-opacity="1" stroke="#000000" stroke-opacity="1" stroke-width="3.2"/>
<circle clip-path="url(#clip272)" cx="1112.42" cy="1372.58" r="14" fill="#ff0000" fill-rule="evenodd" fill-opacity="1" stroke="#000000" stroke-opacity="1" stroke-width="3.2"/>
<circle clip-path="url(#clip272)" cx="1203.22" cy="1372.01" r="14" fill="#ff0000" fill-rule="evenodd" fill-opacity="1" stroke="#000000" stroke-opacity="1" stroke-width="3.2"/>
<circle clip-path="url(#clip272)" cx="1294.02" cy="1371.08" r="14" fill="#ff0000" fill-rule="evenodd" fill-opacity="1" stroke="#000000" stroke-opacity="1" stroke-width="3.2"/>
<circle clip-path="url(#clip272)" cx="1384.82" cy="1370.17" r="14" fill="#ff0000" fill-rule="evenodd" fill-opacity="1" stroke="#000000" stroke-opacity="1" stroke-width="3.2"/>
<circle clip-path="url(#clip272)" cx="1475.62" cy="1368.27" r="14" fill="#ff0000" fill-rule="evenodd" fill-opacity="1" stroke="#000000" stroke-opacity="1" stroke-width="3.2"/>
<circle clip-path="url(#clip272)" cx="1566.42" cy="1365.88" r="14" fill="#ff0000" fill-rule="evenodd" fill-opacity="1" stroke="#000000" stroke-opacity="1" stroke-width="3.2"/>
<circle clip-path="url(#clip272)" cx="1657.22" cy="1360.57" r="14" fill="#ff0000" fill-rule="evenodd" fill-opacity="1" stroke="#000000" stroke-opacity="1" stroke-width="3.2"/>
<circle clip-path="url(#clip272)" cx="1748.02" cy="1350.6" r="14" fill="#ff0000" fill-rule="evenodd" fill-opacity="1" stroke="#000000" stroke-opacity="1" stroke-width="3.2"/>
<circle clip-path="url(#clip272)" cx="1838.82" cy="1329.78" r="14" fill="#ff0000" fill-rule="evenodd" fill-opacity="1" stroke="#000000" stroke-opacity="1" stroke-width="3.2"/>
<circle clip-path="url(#clip272)" cx="1929.62" cy="1290.07" r="14" fill="#ff0000" fill-rule="evenodd" fill-opacity="1" stroke="#000000" stroke-opacity="1" stroke-width="3.2"/>
<circle clip-path="url(#clip272)" cx="2020.43" cy="1215.38" r="14" fill="#ff0000" fill-rule="evenodd" fill-opacity="1" stroke="#000000" stroke-opacity="1" stroke-width="3.2"/>
<circle clip-path="url(#clip272)" cx="2111.23" cy="1065.23" r="14" fill="#ff0000" fill-rule="evenodd" fill-opacity="1" stroke="#000000" stroke-opacity="1" stroke-width="3.2"/>
<circle clip-path="url(#clip272)" cx="2202.03" cy="764.382" r="14" fill="#ff0000" fill-rule="evenodd" fill-opacity="1" stroke="#000000" stroke-opacity="1" stroke-width="3.2"/>
<circle clip-path="url(#clip272)" cx="2292.83" cy="159.909" r="14" fill="#ff0000" fill-rule="evenodd" fill-opacity="1" stroke="#000000" stroke-opacity="1" stroke-width="3.2"/>
</svg>
