<?xml version="1.0" encoding="utf-8"?>
<svg xmlns="http://www.w3.org/2000/svg" xmlns:xlink="http://www.w3.org/1999/xlink" width="600" height="400" viewBox="0 0 2400 1600">
<defs>
  <clipPath id="clip180">
    <rect x="0" y="0" width="2400" height="1600"/>
  </clipPath>
</defs>
<path clip-path="url(#clip180)" d="
M0 1600 L2400 1600 L2400 0 L0 0  Z
  " fill="#ffffff" fill-rule="evenodd" fill-opacity="1"/>
<defs>
  <clipPath id="clip181">
    <rect x="480" y="0" width="1681" height="1600"/>
  </clipPath>
</defs>
<path clip-path="url(#clip180)" d="
M265.445 1410.9 L2352.76 1410.9 L2352.76 123.472 L265.445 123.472  Z
  " fill="#ffffff" fill-rule="evenodd" fill-opacity="1"/>
<defs>
  <clipPath id="clip182">
    <rect x="265" y="123" width="2088" height="1288"/>
  </clipPath>
</defs>
<polyline clip-path="url(#clip182)" style="stroke:#000000; stroke-linecap:butt; stroke-linejoin:round; stroke-width:2; stroke-opacity:0.1; fill:none" points="
  324.52,1410.9 324.52,123.472 
  "/>
<polyline clip-path="url(#clip182)" style="stroke:#000000; stroke-linecap:butt; stroke-linejoin:round; stroke-width:2; stroke-opacity:0.1; fill:none" points="
  621.857,1410.9 621.857,123.472 
  "/>
<polyline clip-path="url(#clip182)" style="stroke:#000000; stroke-linecap:butt; stroke-linejoin:round; stroke-width:2; stroke-opacity:0.1; fill:none" points="
  919.193,1410.9 919.193,123.472 
  "/>
<polyline clip-path="url(#clip182)" style="stroke:#000000; stroke-linecap:butt; stroke-linejoin:round; stroke-width:2; stroke-opacity:0.1; fill:none" points="
  1216.53,1410.9 1216.53,123.472 
  "/>
<polyline clip-path="url(#clip182)" style="stroke:#000000; stroke-linecap:butt; stroke-linejoin:round; stroke-width:2; stroke-opacity:0.1; fill:none" points="
  1513.87,1410.9 1513.87,123.472 
  "/>
<polyline clip-path="url(#clip182)" style="stroke:#000000; stroke-linecap:butt; stroke-linejoin:round; stroke-width:2; stroke-opacity:0.1; fill:none" points="
  1811.2,1410.9 1811.2,123.472 
  "/>
<polyline clip-path="url(#clip182)" style="stroke:#000000; stroke-linecap:butt; stroke-linejoin:round; stroke-width:2; stroke-opacity:0.1; fill:none" points="
  2108.54,1410.9 2108.54,123.472 
  "/>
<polyline clip-path="url(#clip180)" style="stroke:#000000; stroke-linecap:butt; stroke-linejoin:round; stroke-width:4; stroke-opacity:1; fill:none" points="
  265.445,1410.9 2352.76,1410.9 
  "/>
<polyline clip-path="url(#clip180)" style="stroke:#000000; stroke-linecap:butt; stroke-linejoin:round; stroke-width:4; stroke-opacity:1; fill:none" points="
  324.52,1410.9 324.52,1392 
  "/>
<polyline clip-path="url(#clip180)" style="stroke:#000000; stroke-linecap:butt; stroke-linejoin:round; stroke-width:4; stroke-opacity:1; fill:none" points="
  621.857,1410.9 621.857,1392 
  "/>
<polyline clip-path="url(#clip180)" style="stroke:#000000; stroke-linecap:butt; stroke-linejoin:round; stroke-width:4; stroke-opacity:1; fill:none" points="
  919.193,1410.9 919.193,1392 
  "/>
<polyline clip-path="url(#clip180)" style="stroke:#000000; stroke-linecap:butt; stroke-linejoin:round; stroke-width:4; stroke-opacity:1; fill:none" points="
  1216.53,1410.9 1216.53,1392 
  "/>
<polyline clip-path="url(#clip180)" style="stroke:#000000; stroke-linecap:butt; stroke-linejoin:round; stroke-width:4; stroke-opacity:1; fill:none" points="
  1513.87,1410.9 1513.87,1392 
  "/>
<polyline clip-path="url(#clip180)" style="stroke:#000000; stroke-linecap:butt; stroke-linejoin:round; stroke-width:4; stroke-opacity:1; fill:none" points="
  1811.2,1410.9 1811.2,1392 
  "/>
<polyline clip-path="url(#clip180)" style="stroke:#000000; stroke-linecap:butt; stroke-linejoin:round; stroke-width:4; stroke-opacity:1; fill:none" points="
  2108.54,1410.9 2108.54,1392 
  "/>
<path clip-path="url(#clip180)" d="M289.502 1485.02 L297.141 1485.02 L297.141 1458.66 L288.831 1460.32 L288.831 1456.06 L297.095 1454.4 L301.771 1454.4 L301.771 1485.02 L309.41 1485.02 L309.41 1488.96 L289.502 1488.96 L289.502 1485.02 Z" fill="#000000" fill-rule="evenodd" fill-opacity="1" /><path clip-path="url(#clip180)" d="M328.854 1457.48 Q325.243 1457.48 323.414 1461.04 Q321.609 1464.58 321.609 1471.71 Q321.609 1478.82 323.414 1482.38 Q325.243 1485.92 328.854 1485.92 Q332.488 1485.92 334.294 1482.38 Q336.123 1478.82 336.123 1471.71 Q336.123 1464.58 334.294 1461.04 Q332.488 1457.48 328.854 1457.48 M328.854 1453.77 Q334.664 1453.77 337.72 1458.38 Q340.798 1462.96 340.798 1471.71 Q340.798 1480.44 337.72 1485.04 Q334.664 1489.63 328.854 1489.63 Q323.044 1489.63 319.965 1485.04 Q316.91 1480.44 316.91 1471.71 Q316.91 1462.96 319.965 1458.38 Q323.044 1453.77 328.854 1453.77 Z" fill="#000000" fill-rule="evenodd" fill-opacity="1" /><path clip-path="url(#clip180)" d="M350.503 1435.97 Q347.569 1435.97 346.083 1438.86 Q344.616 1441.74 344.616 1447.53 Q344.616 1453.31 346.083 1456.2 Q347.569 1459.08 350.503 1459.08 Q353.456 1459.08 354.923 1456.2 Q356.409 1453.31 356.409 1447.53 Q356.409 1441.74 354.923 1438.86 Q353.456 1435.97 350.503 1435.97 M350.503 1432.96 Q355.224 1432.96 357.707 1436.7 Q360.208 1440.43 360.208 1447.53 Q360.208 1454.62 357.707 1458.37 Q355.224 1462.09 350.503 1462.09 Q345.782 1462.09 343.281 1458.37 Q340.798 1454.62 340.798 1447.53 Q340.798 1440.43 343.281 1436.7 Q345.782 1432.96 350.503 1432.96 Z" fill="#000000" fill-rule="evenodd" fill-opacity="1" /><path clip-path="url(#clip180)" d="M588.184 1485.02 L595.823 1485.02 L595.823 1458.66 L587.513 1460.32 L587.513 1456.06 L595.777 1454.4 L600.453 1454.4 L600.453 1485.02 L608.091 1485.02 L608.091 1488.96 L588.184 1488.96 L588.184 1485.02 Z" fill="#000000" fill-rule="evenodd" fill-opacity="1" /><path clip-path="url(#clip180)" d="M627.536 1457.48 Q623.925 1457.48 622.096 1461.04 Q620.29 1464.58 620.29 1471.71 Q620.29 1478.82 622.096 1482.38 Q623.925 1485.92 627.536 1485.92 Q631.17 1485.92 632.976 1482.38 Q634.804 1478.82 634.804 1471.71 Q634.804 1464.58 632.976 1461.04 Q631.17 1457.48 627.536 1457.48 M627.536 1453.77 Q633.346 1453.77 636.401 1458.38 Q639.48 1462.96 639.48 1471.71 Q639.48 1480.44 636.401 1485.04 Q633.346 1489.63 627.536 1489.63 Q621.726 1489.63 618.647 1485.04 Q615.591 1480.44 615.591 1471.71 Q615.591 1462.96 618.647 1458.38 Q621.726 1453.77 627.536 1453.77 Z" fill="#000000" fill-rule="evenodd" fill-opacity="1" /><path clip-path="url(#clip180)" d="M640.026 1458.35 L646.232 1458.35 L646.232 1436.93 L639.48 1438.28 L639.48 1434.82 L646.194 1433.47 L649.994 1433.47 L649.994 1458.35 L656.2 1458.35 L656.2 1461.55 L640.026 1461.55 L640.026 1458.35 Z" fill="#000000" fill-rule="evenodd" fill-opacity="1" /><path clip-path="url(#clip180)" d="M884.966 1485.02 L892.605 1485.02 L892.605 1458.66 L884.295 1460.32 L884.295 1456.06 L892.559 1454.4 L897.235 1454.4 L897.235 1485.02 L904.874 1485.02 L904.874 1488.96 L884.966 1488.96 L884.966 1485.02 Z" fill="#000000" fill-rule="evenodd" fill-opacity="1" /><path clip-path="url(#clip180)" d="M924.318 1457.48 Q920.707 1457.48 918.878 1461.04 Q917.073 1464.58 917.073 1471.71 Q917.073 1478.82 918.878 1482.38 Q920.707 1485.92 924.318 1485.92 Q927.952 1485.92 929.758 1482.38 Q931.586 1478.82 931.586 1471.71 Q931.586 1464.58 929.758 1461.04 Q927.952 1457.48 924.318 1457.48 M924.318 1453.77 Q930.128 1453.77 933.184 1458.38 Q936.262 1462.96 936.262 1471.71 Q936.262 1480.44 933.184 1485.04 Q930.128 1489.63 924.318 1489.63 Q918.508 1489.63 915.429 1485.04 Q912.373 1480.44 912.373 1471.71 Q912.373 1462.96 915.429 1458.38 Q918.508 1453.77 924.318 1453.77 Z" fill="#000000" fill-rule="evenodd" fill-opacity="1" /><path clip-path="url(#clip180)" d="M940.833 1458.35 L954.092 1458.35 L954.092 1461.55 L936.262 1461.55 L936.262 1458.35 Q938.425 1456.11 942.149 1452.35 Q945.892 1448.57 946.851 1447.48 Q948.675 1445.43 949.39 1444.02 Q950.124 1442.59 950.124 1441.22 Q950.124 1438.98 948.544 1437.57 Q946.983 1436.16 944.462 1436.16 Q942.676 1436.16 940.682 1436.78 Q938.707 1437.4 936.45 1438.66 L936.45 1434.82 Q938.745 1433.9 940.738 1433.43 Q942.732 1432.96 944.387 1432.96 Q948.751 1432.96 951.346 1435.14 Q953.942 1437.32 953.942 1440.97 Q953.942 1442.7 953.283 1444.26 Q952.644 1445.8 950.932 1447.91 Q950.462 1448.46 947.942 1451.07 Q945.422 1453.67 940.833 1458.35 Z" fill="#000000" fill-rule="evenodd" fill-opacity="1" /><path clip-path="url(#clip180)" d="M1181.97 1485.02 L1189.61 1485.02 L1189.61 1458.66 L1181.3 1460.32 L1181.3 1456.06 L1189.57 1454.4 L1194.24 1454.4 L1194.24 1485.02 L1201.88 1485.02 L1201.88 1488.96 L1181.97 1488.96 L1181.97 1485.02 Z" fill="#000000" fill-rule="evenodd" fill-opacity="1" /><path clip-path="url(#clip180)" d="M1221.33 1457.48 Q1217.71 1457.48 1215.89 1461.04 Q1214.08 1464.58 1214.08 1471.71 Q1214.08 1478.82 1215.89 1482.38 Q1217.71 1485.92 1221.33 1485.92 Q1224.96 1485.92 1226.77 1482.38 Q1228.59 1478.82 1228.59 1471.71 Q1228.59 1464.58 1226.77 1461.04 Q1224.96 1457.48 1221.33 1457.48 M1221.33 1453.77 Q1227.14 1453.77 1230.19 1458.38 Q1233.27 1462.96 1233.27 1471.71 Q1233.27 1480.44 1230.19 1485.04 Q1227.14 1489.63 1221.33 1489.63 Q1215.52 1489.63 1212.44 1485.04 Q1209.38 1480.44 1209.38 1471.71 Q1209.38 1462.96 1212.44 1458.38 Q1215.52 1453.77 1221.33 1453.77 Z" fill="#000000" fill-rule="evenodd" fill-opacity="1" /><path clip-path="url(#clip180)" d="M1245.97 1446.41 Q1248.69 1446.99 1250.22 1448.83 Q1251.76 1450.68 1251.76 1453.38 Q1251.76 1457.54 1248.9 1459.82 Q1246.04 1462.09 1240.77 1462.09 Q1239.01 1462.09 1237.13 1461.73 Q1235.26 1461.4 1233.27 1460.7 L1233.27 1457.03 Q1234.85 1457.95 1236.73 1458.42 Q1238.61 1458.89 1240.66 1458.89 Q1244.23 1458.89 1246.1 1457.48 Q1247.98 1456.07 1247.98 1453.38 Q1247.98 1450.9 1246.23 1449.51 Q1244.5 1448.1 1241.4 1448.1 L1238.12 1448.1 L1238.12 1444.98 L1241.55 1444.98 Q1244.35 1444.98 1245.83 1443.87 Q1247.32 1442.74 1247.32 1440.63 Q1247.32 1438.47 1245.78 1437.32 Q1244.25 1436.16 1241.4 1436.16 Q1239.83 1436.16 1238.05 1436.49 Q1236.26 1436.83 1234.12 1437.55 L1234.12 1434.16 Q1236.28 1433.56 1238.16 1433.26 Q1240.06 1432.96 1241.73 1432.96 Q1246.06 1432.96 1248.58 1434.93 Q1251.1 1436.89 1251.1 1440.24 Q1251.1 1442.57 1249.76 1444.19 Q1248.43 1445.79 1245.97 1446.41 Z" fill="#000000" fill-rule="evenodd" fill-opacity="1" /><path clip-path="url(#clip180)" d="M1478.32 1485.02 L1485.96 1485.02 L1485.96 1458.66 L1477.65 1460.32 L1477.65 1456.06 L1485.92 1454.4 L1490.59 1454.4 L1490.59 1485.02 L1498.23 1485.02 L1498.23 1488.96 L1478.32 1488.96 L1478.32 1485.02 Z" fill="#000000" fill-rule="evenodd" fill-opacity="1" /><path clip-path="url(#clip180)" d="M1517.68 1457.48 Q1514.06 1457.48 1512.24 1461.04 Q1510.43 1464.58 1510.43 1471.71 Q1510.43 1478.82 1512.24 1482.38 Q1514.06 1485.92 1517.68 1485.92 Q1521.31 1485.92 1523.12 1482.38 Q1524.94 1478.82 1524.94 1471.71 Q1524.94 1464.58 1523.12 1461.04 Q1521.31 1457.48 1517.68 1457.48 M1517.68 1453.77 Q1523.49 1453.77 1526.54 1458.38 Q1529.62 1462.96 1529.62 1471.71 Q1529.62 1480.44 1526.54 1485.04 Q1523.49 1489.63 1517.68 1489.63 Q1511.87 1489.63 1508.79 1485.04 Q1505.73 1480.44 1505.73 1471.71 Q1505.73 1462.96 1508.79 1458.38 Q1511.87 1453.77 1517.68 1453.77 Z" fill="#000000" fill-rule="evenodd" fill-opacity="1" /><path clip-path="url(#clip180)" d="M1542.3 1436.78 L1532.7 1451.77 L1542.3 1451.77 L1542.3 1436.78 M1541.3 1433.47 L1546.08 1433.47 L1546.08 1451.77 L1550.08 1451.77 L1550.08 1454.93 L1546.08 1454.93 L1546.08 1461.55 L1542.3 1461.55 L1542.3 1454.93 L1529.62 1454.93 L1529.62 1451.26 L1541.3 1433.47 Z" fill="#000000" fill-rule="evenodd" fill-opacity="1" /><path clip-path="url(#clip180)" d="M1776.81 1485.02 L1784.45 1485.02 L1784.45 1458.66 L1776.14 1460.32 L1776.14 1456.06 L1784.4 1454.4 L1789.08 1454.4 L1789.08 1485.02 L1796.72 1485.02 L1796.72 1488.96 L1776.81 1488.96 L1776.81 1485.02 Z" fill="#000000" fill-rule="evenodd" fill-opacity="1" /><path clip-path="url(#clip180)" d="M1816.16 1457.48 Q1812.55 1457.48 1810.72 1461.04 Q1808.91 1464.58 1808.91 1471.71 Q1808.91 1478.82 1810.72 1482.38 Q1812.55 1485.92 1816.16 1485.92 Q1819.79 1485.92 1821.6 1482.38 Q1823.43 1478.82 1823.43 1471.71 Q1823.43 1464.58 1821.6 1461.04 Q1819.79 1457.48 1816.16 1457.48 M1816.16 1453.77 Q1821.97 1453.77 1825.03 1458.38 Q1828.1 1462.96 1828.1 1471.71 Q1828.1 1480.44 1825.03 1485.04 Q1821.97 1489.63 1816.16 1489.63 Q1810.35 1489.63 1807.27 1485.04 Q1804.22 1480.44 1804.22 1471.71 Q1804.22 1462.96 1807.27 1458.38 Q1810.35 1453.77 1816.16 1453.77 Z" fill="#000000" fill-rule="evenodd" fill-opacity="1" /><path clip-path="url(#clip180)" d="M1829.29 1433.47 L1844.2 1433.47 L1844.2 1436.66 L1832.77 1436.66 L1832.77 1443.55 Q1833.6 1443.27 1834.42 1443.13 Q1835.25 1442.98 1836.08 1442.98 Q1840.78 1442.98 1843.53 1445.56 Q1846.27 1448.14 1846.27 1452.54 Q1846.27 1457.07 1843.45 1459.59 Q1840.63 1462.09 1835.5 1462.09 Q1833.73 1462.09 1831.88 1461.79 Q1830.06 1461.49 1828.1 1460.89 L1828.1 1457.07 Q1829.8 1457.99 1831.6 1458.44 Q1833.41 1458.89 1835.42 1458.89 Q1838.67 1458.89 1840.57 1457.18 Q1842.47 1455.47 1842.47 1452.54 Q1842.47 1449.6 1840.57 1447.89 Q1838.67 1446.18 1835.42 1446.18 Q1833.9 1446.18 1832.37 1446.52 Q1830.87 1446.86 1829.29 1447.57 L1829.29 1433.47 Z" fill="#000000" fill-rule="evenodd" fill-opacity="1" /><path clip-path="url(#clip180)" d="M2073.53 1485.02 L2081.17 1485.02 L2081.17 1458.66 L2072.86 1460.32 L2072.86 1456.06 L2081.13 1454.4 L2085.8 1454.4 L2085.8 1485.02 L2093.44 1485.02 L2093.44 1488.96 L2073.53 1488.96 L2073.53 1485.02 Z" fill="#000000" fill-rule="evenodd" fill-opacity="1" /><path clip-path="url(#clip180)" d="M2112.89 1457.48 Q2109.27 1457.48 2107.45 1461.04 Q2105.64 1464.58 2105.64 1471.71 Q2105.64 1478.82 2107.45 1482.38 Q2109.27 1485.92 2112.89 1485.92 Q2116.52 1485.92 2118.32 1482.38 Q2120.15 1478.82 2120.15 1471.71 Q2120.15 1464.58 2118.32 1461.04 Q2116.52 1457.48 2112.89 1457.48 M2112.89 1453.77 Q2118.7 1453.77 2121.75 1458.38 Q2124.83 1462.96 2124.83 1471.71 Q2124.83 1480.44 2121.75 1485.04 Q2118.7 1489.63 2112.89 1489.63 Q2107.07 1489.63 2104 1485.04 Q2100.94 1480.44 2100.94 1471.71 Q2100.94 1462.96 2104 1458.38 Q2107.07 1453.77 2112.89 1453.77 Z" fill="#000000" fill-rule="evenodd" fill-opacity="1" /><path clip-path="url(#clip180)" d="M2134.85 1445.99 Q2132.3 1445.99 2130.79 1447.74 Q2129.31 1449.49 2129.31 1452.54 Q2129.31 1455.57 2130.79 1457.33 Q2132.3 1459.08 2134.85 1459.08 Q2137.41 1459.08 2138.9 1457.33 Q2140.4 1455.57 2140.4 1452.54 Q2140.4 1449.49 2138.9 1447.74 Q2137.41 1445.99 2134.85 1445.99 M2142.4 1434.09 L2142.4 1437.55 Q2140.97 1436.87 2139.5 1436.51 Q2138.05 1436.16 2136.62 1436.16 Q2132.86 1436.16 2130.87 1438.69 Q2128.89 1441.23 2128.61 1446.37 Q2129.72 1444.73 2131.39 1443.87 Q2133.07 1442.98 2135.08 1442.98 Q2139.31 1442.98 2141.76 1445.56 Q2144.22 1448.12 2144.22 1452.54 Q2144.22 1456.86 2141.66 1459.48 Q2139.1 1462.09 2134.85 1462.09 Q2129.98 1462.09 2127.41 1458.37 Q2124.83 1454.62 2124.83 1447.53 Q2124.83 1440.88 2127.99 1436.93 Q2131.15 1432.96 2136.47 1432.96 Q2137.9 1432.96 2139.35 1433.24 Q2140.82 1433.52 2142.4 1434.09 Z" fill="#000000" fill-rule="evenodd" fill-opacity="1" /><path clip-path="url(#clip180)" d="M1067.16 1543.95 L1067.16 1524.66 L1073.01 1524.66 L1073.01 1574.19 L1067.16 1574.19 L1067.16 1568.84 Q1065.31 1572.02 1062.48 1573.58 Q1059.68 1575.11 1055.73 1575.11 Q1049.27 1575.11 1045.19 1569.95 Q1041.15 1564.8 1041.15 1556.39 Q1041.15 1547.99 1045.19 1542.83 Q1049.27 1537.68 1055.73 1537.68 Q1059.68 1537.68 1062.48 1539.24 Q1065.31 1540.77 1067.16 1543.95 M1047.2 1556.39 Q1047.2 1562.85 1049.84 1566.55 Q1052.51 1570.21 1057.16 1570.21 Q1061.81 1570.21 1064.48 1566.55 Q1067.16 1562.85 1067.16 1556.39 Q1067.16 1549.93 1064.48 1546.27 Q1061.81 1542.58 1057.16 1542.58 Q1052.51 1542.58 1049.84 1546.27 Q1047.2 1549.93 1047.2 1556.39 Z" fill="#000000" fill-rule="evenodd" fill-opacity="1" /><path clip-path="url(#clip180)" d="M1101.28 1556.27 Q1094.18 1556.27 1091.44 1557.89 Q1088.7 1559.51 1088.7 1563.43 Q1088.7 1566.55 1090.74 1568.39 Q1092.81 1570.21 1096.34 1570.21 Q1101.21 1570.21 1104.14 1566.77 Q1107.1 1563.3 1107.1 1557.57 L1107.1 1556.27 L1101.28 1556.27 M1112.96 1553.85 L1112.96 1574.19 L1107.1 1574.19 L1107.1 1568.77 Q1105.1 1572.02 1102.1 1573.58 Q1099.11 1575.11 1094.78 1575.11 Q1089.31 1575.11 1086.06 1572.05 Q1082.85 1568.97 1082.85 1563.81 Q1082.85 1557.79 1086.86 1554.74 Q1090.9 1551.68 1098.89 1551.68 L1107.1 1551.68 L1107.1 1551.11 Q1107.1 1547.07 1104.43 1544.87 Q1101.79 1542.64 1096.98 1542.64 Q1093.92 1542.64 1091.03 1543.38 Q1088.13 1544.11 1085.46 1545.57 L1085.46 1540.16 Q1088.67 1538.92 1091.7 1538.31 Q1094.72 1537.68 1097.58 1537.68 Q1105.32 1537.68 1109.14 1541.69 Q1112.96 1545.7 1112.96 1553.85 Z" fill="#000000" fill-rule="evenodd" fill-opacity="1" /><path clip-path="url(#clip180)" d="M1130.81 1528.42 L1130.81 1538.54 L1142.88 1538.54 L1142.88 1543.09 L1130.81 1543.09 L1130.81 1562.44 Q1130.81 1566.8 1131.99 1568.04 Q1133.2 1569.28 1136.86 1569.28 L1142.88 1569.28 L1142.88 1574.19 L1136.86 1574.19 Q1130.08 1574.19 1127.5 1571.67 Q1124.92 1569.12 1124.92 1562.44 L1124.92 1543.09 L1120.63 1543.09 L1120.63 1538.54 L1124.92 1538.54 L1124.92 1528.42 L1130.81 1528.42 Z" fill="#000000" fill-rule="evenodd" fill-opacity="1" /><path clip-path="url(#clip180)" d="M1166.78 1556.27 Q1159.68 1556.27 1156.94 1557.89 Q1154.21 1559.51 1154.21 1563.43 Q1154.21 1566.55 1156.24 1568.39 Q1158.31 1570.21 1161.85 1570.21 Q1166.72 1570.21 1169.64 1566.77 Q1172.6 1563.3 1172.6 1557.57 L1172.6 1556.27 L1166.78 1556.27 M1178.46 1553.85 L1178.46 1574.19 L1172.6 1574.19 L1172.6 1568.77 Q1170.6 1572.02 1167.61 1573.58 Q1164.61 1575.11 1160.29 1575.11 Q1154.81 1575.11 1151.56 1572.05 Q1148.35 1568.97 1148.35 1563.81 Q1148.35 1557.79 1152.36 1554.74 Q1156.4 1551.68 1164.39 1551.68 L1172.6 1551.68 L1172.6 1551.11 Q1172.6 1547.07 1169.93 1544.87 Q1167.29 1542.64 1162.48 1542.64 Q1159.43 1542.64 1156.53 1543.38 Q1153.63 1544.11 1150.96 1545.57 L1150.96 1540.16 Q1154.17 1538.92 1157.2 1538.31 Q1160.22 1537.68 1163.09 1537.68 Q1170.82 1537.68 1174.64 1541.69 Q1178.46 1545.7 1178.46 1553.85 Z" fill="#000000" fill-rule="evenodd" fill-opacity="1" /><path clip-path="url(#clip180)" d="M1233.97 1539.59 L1233.97 1545.13 Q1231.49 1543.85 1228.81 1543.22 Q1226.14 1542.58 1223.27 1542.58 Q1218.91 1542.58 1216.72 1543.92 Q1214.55 1545.25 1214.55 1547.93 Q1214.55 1549.96 1216.11 1551.14 Q1217.67 1552.29 1222.38 1553.34 L1224.39 1553.78 Q1230.63 1555.12 1233.24 1557.57 Q1235.88 1559.99 1235.88 1564.35 Q1235.88 1569.32 1231.93 1572.21 Q1228.02 1575.11 1221.14 1575.11 Q1218.28 1575.11 1215.16 1574.54 Q1212.07 1573.99 1208.63 1572.88 L1208.63 1566.83 Q1211.88 1568.52 1215.03 1569.38 Q1218.18 1570.21 1221.27 1570.21 Q1225.41 1570.21 1227.64 1568.81 Q1229.86 1567.37 1229.86 1564.8 Q1229.86 1562.41 1228.24 1561.14 Q1226.65 1559.86 1221.21 1558.68 L1219.17 1558.21 Q1213.73 1557.06 1211.31 1554.71 Q1208.89 1552.32 1208.89 1548.18 Q1208.89 1543.15 1212.45 1540.42 Q1216.02 1537.68 1222.57 1537.68 Q1225.82 1537.68 1228.69 1538.16 Q1231.55 1538.63 1233.97 1539.59 Z" fill="#000000" fill-rule="evenodd" fill-opacity="1" /><path clip-path="url(#clip180)" d="M1245.2 1538.54 L1251.06 1538.54 L1251.06 1574.19 L1245.2 1574.19 L1245.2 1538.54 M1245.2 1524.66 L1251.06 1524.66 L1251.06 1532.08 L1245.2 1532.08 L1245.2 1524.66 Z" fill="#000000" fill-rule="evenodd" fill-opacity="1" /><path clip-path="url(#clip180)" d="M1260.77 1538.54 L1288.59 1538.54 L1288.59 1543.88 L1266.56 1569.51 L1288.59 1569.51 L1288.59 1574.19 L1259.97 1574.19 L1259.97 1568.84 L1282 1543.22 L1260.77 1543.22 L1260.77 1538.54 Z" fill="#000000" fill-rule="evenodd" fill-opacity="1" /><path clip-path="url(#clip180)" d="M1328.02 1554.9 L1328.02 1557.76 L1301.1 1557.76 Q1301.48 1563.81 1304.72 1566.99 Q1308 1570.14 1313.83 1570.14 Q1317.2 1570.14 1320.35 1569.32 Q1323.53 1568.49 1326.65 1566.83 L1326.65 1572.37 Q1323.5 1573.71 1320.19 1574.41 Q1316.88 1575.11 1313.48 1575.11 Q1304.95 1575.11 1299.95 1570.14 Q1294.98 1565.18 1294.98 1556.71 Q1294.98 1547.96 1299.69 1542.83 Q1304.44 1537.68 1312.46 1537.68 Q1319.65 1537.68 1323.82 1542.33 Q1328.02 1546.94 1328.02 1554.9 M1322.17 1553.18 Q1322.1 1548.37 1319.46 1545.51 Q1316.85 1542.64 1312.52 1542.64 Q1307.62 1542.64 1304.66 1545.41 Q1301.73 1548.18 1301.29 1553.21 L1322.17 1553.18 Z" fill="#000000" fill-rule="evenodd" fill-opacity="1" /><path clip-path="url(#clip180)" d="M1372.42 1524.72 Q1368.16 1532.04 1366.09 1539.21 Q1364.02 1546.37 1364.02 1553.72 Q1364.02 1561.07 1366.09 1568.3 Q1368.19 1575.49 1372.42 1582.78 L1367.33 1582.78 Q1362.56 1575.3 1360.17 1568.07 Q1357.81 1560.85 1357.81 1553.72 Q1357.81 1546.62 1360.17 1539.43 Q1362.52 1532.24 1367.33 1524.72 L1372.42 1524.72 Z" fill="#000000" fill-rule="evenodd" fill-opacity="1" /><path clip-path="url(#clip180)" d="M1409.38 1556.39 Q1409.38 1549.93 1406.7 1546.27 Q1404.06 1542.58 1399.41 1542.58 Q1394.77 1542.58 1392.09 1546.27 Q1389.45 1549.93 1389.45 1556.39 Q1389.45 1562.85 1392.09 1566.55 Q1394.77 1570.21 1399.41 1570.21 Q1404.06 1570.21 1406.7 1566.55 Q1409.38 1562.85 1409.38 1556.39 M1389.45 1543.95 Q1391.3 1540.77 1394.1 1539.24 Q1396.93 1537.68 1400.85 1537.68 Q1407.34 1537.68 1411.38 1542.83 Q1415.46 1547.99 1415.46 1556.39 Q1415.46 1564.8 1411.38 1569.95 Q1407.34 1575.11 1400.85 1575.11 Q1396.93 1575.11 1394.1 1573.58 Q1391.3 1572.02 1389.45 1568.84 L1389.45 1574.19 L1383.56 1574.19 L1383.56 1524.66 L1389.45 1524.66 L1389.45 1543.95 Z" fill="#000000" fill-rule="evenodd" fill-opacity="1" /><path clip-path="url(#clip180)" d="M1440 1577.5 Q1437.51 1583.86 1435.16 1585.8 Q1432.8 1587.74 1428.86 1587.74 L1424.18 1587.74 L1424.18 1582.84 L1427.61 1582.84 Q1430.03 1582.84 1431.37 1581.7 Q1432.71 1580.55 1434.33 1576.29 L1435.38 1573.61 L1420.96 1538.54 L1427.17 1538.54 L1438.31 1566.42 L1449.45 1538.54 L1455.65 1538.54 L1440 1577.5 Z" fill="#000000" fill-rule="evenodd" fill-opacity="1" /><path clip-path="url(#clip180)" d="M1469.53 1528.42 L1469.53 1538.54 L1481.6 1538.54 L1481.6 1543.09 L1469.53 1543.09 L1469.53 1562.44 Q1469.53 1566.8 1470.71 1568.04 Q1471.92 1569.28 1475.58 1569.28 L1481.6 1569.28 L1481.6 1574.19 L1475.58 1574.19 Q1468.8 1574.19 1466.22 1571.67 Q1463.64 1569.12 1463.64 1562.44 L1463.64 1543.09 L1459.35 1543.09 L1459.35 1538.54 L1463.64 1538.54 L1463.64 1528.42 L1469.53 1528.42 Z" fill="#000000" fill-rule="evenodd" fill-opacity="1" /><path clip-path="url(#clip180)" d="M1519.79 1554.9 L1519.79 1557.76 L1492.86 1557.76 Q1493.24 1563.81 1496.49 1566.99 Q1499.77 1570.14 1505.59 1570.14 Q1508.97 1570.14 1512.12 1569.32 Q1515.3 1568.49 1518.42 1566.83 L1518.42 1572.37 Q1515.27 1573.71 1511.96 1574.41 Q1508.65 1575.11 1505.24 1575.11 Q1496.71 1575.11 1491.72 1570.14 Q1486.75 1565.18 1486.75 1556.71 Q1486.75 1547.96 1491.46 1542.83 Q1496.2 1537.68 1504.23 1537.68 Q1511.42 1537.68 1515.59 1542.33 Q1519.79 1546.94 1519.79 1554.9 M1513.93 1553.18 Q1513.87 1548.37 1511.23 1545.51 Q1508.62 1542.64 1504.29 1542.64 Q1499.39 1542.64 1496.43 1545.41 Q1493.5 1548.18 1493.05 1553.21 L1513.93 1553.18 Z" fill="#000000" fill-rule="evenodd" fill-opacity="1" /><path clip-path="url(#clip180)" d="M1552.13 1539.59 L1552.13 1545.13 Q1549.64 1543.85 1546.97 1543.22 Q1544.3 1542.58 1541.43 1542.58 Q1537.07 1542.58 1534.88 1543.92 Q1532.71 1545.25 1532.71 1547.93 Q1532.71 1549.96 1534.27 1551.14 Q1535.83 1552.29 1540.54 1553.34 L1542.55 1553.78 Q1548.79 1555.12 1551.4 1557.57 Q1554.04 1559.99 1554.04 1564.35 Q1554.04 1569.32 1550.09 1572.21 Q1546.18 1575.11 1539.3 1575.11 Q1536.44 1575.11 1533.32 1574.54 Q1530.23 1573.99 1526.79 1572.88 L1526.79 1566.83 Q1530.04 1568.52 1533.19 1569.38 Q1536.34 1570.21 1539.43 1570.21 Q1543.57 1570.21 1545.79 1568.81 Q1548.02 1567.37 1548.02 1564.8 Q1548.02 1562.41 1546.4 1561.14 Q1544.81 1559.86 1539.36 1558.68 L1537.33 1558.21 Q1531.88 1557.06 1529.47 1554.71 Q1527.05 1552.32 1527.05 1548.18 Q1527.05 1543.15 1530.61 1540.42 Q1534.18 1537.68 1540.73 1537.68 Q1543.98 1537.68 1546.84 1538.16 Q1549.71 1538.63 1552.13 1539.59 Z" fill="#000000" fill-rule="evenodd" fill-opacity="1" /><path clip-path="url(#clip180)" d="M1562.44 1524.72 L1567.53 1524.72 Q1572.31 1532.24 1574.66 1539.43 Q1577.05 1546.62 1577.05 1553.72 Q1577.05 1560.85 1574.66 1568.07 Q1572.31 1575.3 1567.53 1582.78 L1562.44 1582.78 Q1566.67 1575.49 1568.74 1568.3 Q1570.84 1561.07 1570.84 1553.72 Q1570.84 1546.37 1568.74 1539.21 Q1566.67 1532.04 1562.44 1524.72 Z" fill="#000000" fill-rule="evenodd" fill-opacity="1" /><polyline clip-path="url(#clip182)" style="stroke:#000000; stroke-linecap:butt; stroke-linejoin:round; stroke-width:2; stroke-opacity:0.1; fill:none" points="
  265.445,1375.06 2352.76,1375.06 
  "/>
<polyline clip-path="url(#clip182)" style="stroke:#000000; stroke-linecap:butt; stroke-linejoin:round; stroke-width:2; stroke-opacity:0.1; fill:none" points="
  265.445,1184.51 2352.76,1184.51 
  "/>
<polyline clip-path="url(#clip182)" style="stroke:#000000; stroke-linecap:butt; stroke-linejoin:round; stroke-width:2; stroke-opacity:0.1; fill:none" points="
  265.445,993.965 2352.76,993.965 
  "/>
<polyline clip-path="url(#clip182)" style="stroke:#000000; stroke-linecap:butt; stroke-linejoin:round; stroke-width:2; stroke-opacity:0.1; fill:none" points="
  265.445,803.418 2352.76,803.418 
  "/>
<polyline clip-path="url(#clip182)" style="stroke:#000000; stroke-linecap:butt; stroke-linejoin:round; stroke-width:2; stroke-opacity:0.1; fill:none" points="
  265.445,612.87 2352.76,612.87 
  "/>
<polyline clip-path="url(#clip182)" style="stroke:#000000; stroke-linecap:butt; stroke-linejoin:round; stroke-width:2; stroke-opacity:0.1; fill:none" points="
  265.445,422.323 2352.76,422.323 
  "/>
<polyline clip-path="url(#clip182)" style="stroke:#000000; stroke-linecap:butt; stroke-linejoin:round; stroke-width:2; stroke-opacity:0.1; fill:none" points="
  265.445,231.776 2352.76,231.776 
  "/>
<polyline clip-path="url(#clip180)" style="stroke:#000000; stroke-linecap:butt; stroke-linejoin:round; stroke-width:4; stroke-opacity:1; fill:none" points="
  265.445,1410.9 265.445,123.472 
  "/>
<polyline clip-path="url(#clip180)" style="stroke:#000000; stroke-linecap:butt; stroke-linejoin:round; stroke-width:4; stroke-opacity:1; fill:none" points="
  265.445,1375.06 284.342,1375.06 
  "/>
<polyline clip-path="url(#clip180)" style="stroke:#000000; stroke-linecap:butt; stroke-linejoin:round; stroke-width:4; stroke-opacity:1; fill:none" points="
  265.445,1184.51 284.342,1184.51 
  "/>
<polyline clip-path="url(#clip180)" style="stroke:#000000; stroke-linecap:butt; stroke-linejoin:round; stroke-width:4; stroke-opacity:1; fill:none" points="
  265.445,993.965 284.342,993.965 
  "/>
<polyline clip-path="url(#clip180)" style="stroke:#000000; stroke-linecap:butt; stroke-linejoin:round; stroke-width:4; stroke-opacity:1; fill:none" points="
  265.445,803.418 284.342,803.418 
  "/>
<polyline clip-path="url(#clip180)" style="stroke:#000000; stroke-linecap:butt; stroke-linejoin:round; stroke-width:4; stroke-opacity:1; fill:none" points="
  265.445,612.87 284.342,612.87 
  "/>
<polyline clip-path="url(#clip180)" style="stroke:#000000; stroke-linecap:butt; stroke-linejoin:round; stroke-width:4; stroke-opacity:1; fill:none" points="
  265.445,422.323 284.342,422.323 
  "/>
<polyline clip-path="url(#clip180)" style="stroke:#000000; stroke-linecap:butt; stroke-linejoin:round; stroke-width:4; stroke-opacity:1; fill:none" points="
  265.445,231.776 284.342,231.776 
  "/>
<path clip-path="url(#clip180)" d="M217.5 1360.86 Q213.889 1360.86 212.061 1364.42 Q210.255 1367.97 210.255 1375.1 Q210.255 1382.2 212.061 1385.77 Q213.889 1389.31 217.5 1389.31 Q221.135 1389.31 222.94 1385.77 Q224.769 1382.2 224.769 1375.1 Q224.769 1367.97 222.94 1364.42 Q221.135 1360.86 217.5 1360.86 M217.5 1357.16 Q223.31 1357.16 226.366 1361.76 Q229.445 1366.35 229.445 1375.1 Q229.445 1383.82 226.366 1388.43 Q223.31 1393.01 217.5 1393.01 Q211.69 1393.01 208.612 1388.43 Q205.556 1383.82 205.556 1375.1 Q205.556 1366.35 208.612 1361.76 Q211.69 1357.16 217.5 1357.16 Z" fill="#000000" fill-rule="evenodd" fill-opacity="1" /><path clip-path="url(#clip180)" d="M117.825 1197.86 L125.464 1197.86 L125.464 1171.49 L117.154 1173.16 L117.154 1168.9 L125.418 1167.23 L130.093 1167.23 L130.093 1197.86 L137.732 1197.86 L137.732 1201.79 L117.825 1201.79 L117.825 1197.86 Z" fill="#000000" fill-rule="evenodd" fill-opacity="1" /><path clip-path="url(#clip180)" d="M157.177 1170.31 Q153.566 1170.31 151.737 1173.88 Q149.931 1177.42 149.931 1184.55 Q149.931 1191.65 151.737 1195.22 Q153.566 1198.76 157.177 1198.76 Q160.811 1198.76 162.616 1195.22 Q164.445 1191.65 164.445 1184.55 Q164.445 1177.42 162.616 1173.88 Q160.811 1170.31 157.177 1170.31 M157.177 1166.61 Q162.987 1166.61 166.042 1171.21 Q169.121 1175.8 169.121 1184.55 Q169.121 1193.27 166.042 1197.88 Q162.987 1202.46 157.177 1202.46 Q151.366 1202.46 148.288 1197.88 Q145.232 1193.27 145.232 1184.55 Q145.232 1175.8 148.288 1171.21 Q151.366 1166.61 157.177 1166.61 Z" fill="#000000" fill-rule="evenodd" fill-opacity="1" /><path clip-path="url(#clip180)" d="M187.338 1170.31 Q183.727 1170.31 181.899 1173.88 Q180.093 1177.42 180.093 1184.55 Q180.093 1191.65 181.899 1195.22 Q183.727 1198.76 187.338 1198.76 Q190.973 1198.76 192.778 1195.22 Q194.607 1191.65 194.607 1184.55 Q194.607 1177.42 192.778 1173.88 Q190.973 1170.31 187.338 1170.31 M187.338 1166.61 Q193.149 1166.61 196.204 1171.21 Q199.283 1175.8 199.283 1184.55 Q199.283 1193.27 196.204 1197.88 Q193.149 1202.46 187.338 1202.46 Q181.528 1202.46 178.45 1197.88 Q175.394 1193.27 175.394 1184.55 Q175.394 1175.8 178.45 1171.21 Q181.528 1166.61 187.338 1166.61 Z" fill="#000000" fill-rule="evenodd" fill-opacity="1" /><path clip-path="url(#clip180)" d="M217.5 1170.31 Q213.889 1170.31 212.061 1173.88 Q210.255 1177.42 210.255 1184.55 Q210.255 1191.65 212.061 1195.22 Q213.889 1198.76 217.5 1198.76 Q221.135 1198.76 222.94 1195.22 Q224.769 1191.65 224.769 1184.55 Q224.769 1177.42 222.94 1173.88 Q221.135 1170.31 217.5 1170.31 M217.5 1166.61 Q223.31 1166.61 226.366 1171.21 Q229.445 1175.8 229.445 1184.55 Q229.445 1193.27 226.366 1197.88 Q223.31 1202.46 217.5 1202.46 Q211.69 1202.46 208.612 1197.88 Q205.556 1193.27 205.556 1184.55 Q205.556 1175.8 208.612 1171.21 Q211.69 1166.61 217.5 1166.61 Z" fill="#000000" fill-rule="evenodd" fill-opacity="1" /><path clip-path="url(#clip180)" d="M121.043 1007.31 L137.362 1007.31 L137.362 1011.25 L115.418 1011.25 L115.418 1007.31 Q118.08 1004.56 122.663 999.926 Q127.269 995.273 128.45 993.931 Q130.695 991.408 131.575 989.671 Q132.478 987.912 132.478 986.222 Q132.478 983.468 130.533 981.732 Q128.612 979.996 125.51 979.996 Q123.311 979.996 120.857 980.759 Q118.427 981.523 115.649 983.074 L115.649 978.352 Q118.473 977.218 120.927 976.639 Q123.38 976.06 125.418 976.06 Q130.788 976.06 133.982 978.746 Q137.177 981.431 137.177 985.921 Q137.177 988.051 136.367 989.972 Q135.579 991.871 133.473 994.463 Q132.894 995.134 129.792 998.352 Q126.691 1001.55 121.043 1007.31 Z" fill="#000000" fill-rule="evenodd" fill-opacity="1" /><path clip-path="url(#clip180)" d="M157.177 979.764 Q153.566 979.764 151.737 983.329 Q149.931 986.871 149.931 994 Q149.931 1001.11 151.737 1004.67 Q153.566 1008.21 157.177 1008.21 Q160.811 1008.21 162.616 1004.67 Q164.445 1001.11 164.445 994 Q164.445 986.871 162.616 983.329 Q160.811 979.764 157.177 979.764 M157.177 976.06 Q162.987 976.06 166.042 980.667 Q169.121 985.25 169.121 994 Q169.121 1002.73 166.042 1007.33 Q162.987 1011.92 157.177 1011.92 Q151.366 1011.92 148.288 1007.33 Q145.232 1002.73 145.232 994 Q145.232 985.25 148.288 980.667 Q151.366 976.06 157.177 976.06 Z" fill="#000000" fill-rule="evenodd" fill-opacity="1" /><path clip-path="url(#clip180)" d="M187.338 979.764 Q183.727 979.764 181.899 983.329 Q180.093 986.871 180.093 994 Q180.093 1001.11 181.899 1004.67 Q183.727 1008.21 187.338 1008.21 Q190.973 1008.21 192.778 1004.67 Q194.607 1001.11 194.607 994 Q194.607 986.871 192.778 983.329 Q190.973 979.764 187.338 979.764 M187.338 976.06 Q193.149 976.06 196.204 980.667 Q199.283 985.25 199.283 994 Q199.283 1002.73 196.204 1007.33 Q193.149 1011.92 187.338 1011.92 Q181.528 1011.92 178.45 1007.33 Q175.394 1002.73 175.394 994 Q175.394 985.25 178.45 980.667 Q181.528 976.06 187.338 976.06 Z" fill="#000000" fill-rule="evenodd" fill-opacity="1" /><path clip-path="url(#clip180)" d="M217.5 979.764 Q213.889 979.764 212.061 983.329 Q210.255 986.871 210.255 994 Q210.255 1001.11 212.061 1004.67 Q213.889 1008.21 217.5 1008.21 Q221.135 1008.21 222.94 1004.67 Q224.769 1001.11 224.769 994 Q224.769 986.871 222.94 983.329 Q221.135 979.764 217.5 979.764 M217.5 976.06 Q223.31 976.06 226.366 980.667 Q229.445 985.25 229.445 994 Q229.445 1002.73 226.366 1007.33 Q223.31 1011.92 217.5 1011.92 Q211.69 1011.92 208.612 1007.33 Q205.556 1002.73 205.556 994 Q205.556 985.25 208.612 980.667 Q211.69 976.06 217.5 976.06 Z" fill="#000000" fill-rule="evenodd" fill-opacity="1" /><path clip-path="url(#clip180)" d="M131.181 802.064 Q134.538 802.781 136.413 805.05 Q138.311 807.318 138.311 810.652 Q138.311 815.767 134.792 818.568 Q131.274 821.369 124.793 821.369 Q122.617 821.369 120.302 820.929 Q118.01 820.513 115.556 819.656 L115.556 815.142 Q117.501 816.277 119.816 816.855 Q122.13 817.434 124.654 817.434 Q129.052 817.434 131.343 815.698 Q133.658 813.962 133.658 810.652 Q133.658 807.596 131.505 805.883 Q129.376 804.147 125.556 804.147 L121.529 804.147 L121.529 800.305 L125.742 800.305 Q129.191 800.305 131.019 798.939 Q132.848 797.55 132.848 794.957 Q132.848 792.295 130.95 790.883 Q129.075 789.448 125.556 789.448 Q123.635 789.448 121.436 789.865 Q119.237 790.281 116.598 791.161 L116.598 786.994 Q119.26 786.254 121.575 785.883 Q123.913 785.513 125.973 785.513 Q131.297 785.513 134.399 787.943 Q137.501 790.351 137.501 794.471 Q137.501 797.342 135.857 799.332 Q134.214 801.3 131.181 802.064 Z" fill="#000000" fill-rule="evenodd" fill-opacity="1" /><path clip-path="url(#clip180)" d="M157.177 789.217 Q153.566 789.217 151.737 792.781 Q149.931 796.323 149.931 803.453 Q149.931 810.559 151.737 814.124 Q153.566 817.666 157.177 817.666 Q160.811 817.666 162.616 814.124 Q164.445 810.559 164.445 803.453 Q164.445 796.323 162.616 792.781 Q160.811 789.217 157.177 789.217 M157.177 785.513 Q162.987 785.513 166.042 790.119 Q169.121 794.703 169.121 803.453 Q169.121 812.179 166.042 816.786 Q162.987 821.369 157.177 821.369 Q151.366 821.369 148.288 816.786 Q145.232 812.179 145.232 803.453 Q145.232 794.703 148.288 790.119 Q151.366 785.513 157.177 785.513 Z" fill="#000000" fill-rule="evenodd" fill-opacity="1" /><path clip-path="url(#clip180)" d="M187.338 789.217 Q183.727 789.217 181.899 792.781 Q180.093 796.323 180.093 803.453 Q180.093 810.559 181.899 814.124 Q183.727 817.666 187.338 817.666 Q190.973 817.666 192.778 814.124 Q194.607 810.559 194.607 803.453 Q194.607 796.323 192.778 792.781 Q190.973 789.217 187.338 789.217 M187.338 785.513 Q193.149 785.513 196.204 790.119 Q199.283 794.703 199.283 803.453 Q199.283 812.179 196.204 816.786 Q193.149 821.369 187.338 821.369 Q181.528 821.369 178.45 816.786 Q175.394 812.179 175.394 803.453 Q175.394 794.703 178.45 790.119 Q181.528 785.513 187.338 785.513 Z" fill="#000000" fill-rule="evenodd" fill-opacity="1" /><path clip-path="url(#clip180)" d="M217.5 789.217 Q213.889 789.217 212.061 792.781 Q210.255 796.323 210.255 803.453 Q210.255 810.559 212.061 814.124 Q213.889 817.666 217.5 817.666 Q221.135 817.666 222.94 814.124 Q224.769 810.559 224.769 803.453 Q224.769 796.323 222.94 792.781 Q221.135 789.217 217.5 789.217 M217.5 785.513 Q223.31 785.513 226.366 790.119 Q229.445 794.703 229.445 803.453 Q229.445 812.179 226.366 816.786 Q223.31 821.369 217.5 821.369 Q211.69 821.369 208.612 816.786 Q205.556 812.179 205.556 803.453 Q205.556 794.703 208.612 790.119 Q211.69 785.513 217.5 785.513 Z" fill="#000000" fill-rule="evenodd" fill-opacity="1" /><path clip-path="url(#clip180)" d="M129.862 599.665 L118.056 618.114 L129.862 618.114 L129.862 599.665 M128.635 595.59 L134.515 595.59 L134.515 618.114 L139.445 618.114 L139.445 622.002 L134.515 622.002 L134.515 630.15 L129.862 630.15 L129.862 622.002 L114.26 622.002 L114.26 617.489 L128.635 595.59 Z" fill="#000000" fill-rule="evenodd" fill-opacity="1" /><path clip-path="url(#clip180)" d="M157.177 598.669 Q153.566 598.669 151.737 602.234 Q149.931 605.776 149.931 612.905 Q149.931 620.012 151.737 623.576 Q153.566 627.118 157.177 627.118 Q160.811 627.118 162.616 623.576 Q164.445 620.012 164.445 612.905 Q164.445 605.776 162.616 602.234 Q160.811 598.669 157.177 598.669 M157.177 594.965 Q162.987 594.965 166.042 599.572 Q169.121 604.155 169.121 612.905 Q169.121 621.632 166.042 626.238 Q162.987 630.822 157.177 630.822 Q151.366 630.822 148.288 626.238 Q145.232 621.632 145.232 612.905 Q145.232 604.155 148.288 599.572 Q151.366 594.965 157.177 594.965 Z" fill="#000000" fill-rule="evenodd" fill-opacity="1" /><path clip-path="url(#clip180)" d="M187.338 598.669 Q183.727 598.669 181.899 602.234 Q180.093 605.776 180.093 612.905 Q180.093 620.012 181.899 623.576 Q183.727 627.118 187.338 627.118 Q190.973 627.118 192.778 623.576 Q194.607 620.012 194.607 612.905 Q194.607 605.776 192.778 602.234 Q190.973 598.669 187.338 598.669 M187.338 594.965 Q193.149 594.965 196.204 599.572 Q199.283 604.155 199.283 612.905 Q199.283 621.632 196.204 626.238 Q193.149 630.822 187.338 630.822 Q181.528 630.822 178.45 626.238 Q175.394 621.632 175.394 612.905 Q175.394 604.155 178.45 599.572 Q181.528 594.965 187.338 594.965 Z" fill="#000000" fill-rule="evenodd" fill-opacity="1" /><path clip-path="url(#clip180)" d="M217.5 598.669 Q213.889 598.669 212.061 602.234 Q210.255 605.776 210.255 612.905 Q210.255 620.012 212.061 623.576 Q213.889 627.118 217.5 627.118 Q221.135 627.118 222.94 623.576 Q224.769 620.012 224.769 612.905 Q224.769 605.776 222.94 602.234 Q221.135 598.669 217.5 598.669 M217.5 594.965 Q223.31 594.965 226.366 599.572 Q229.445 604.155 229.445 612.905 Q229.445 621.632 226.366 626.238 Q223.31 630.822 217.5 630.822 Q211.69 630.822 208.612 626.238 Q205.556 621.632 205.556 612.905 Q205.556 604.155 208.612 599.572 Q211.69 594.965 217.5 594.965 Z" fill="#000000" fill-rule="evenodd" fill-opacity="1" /><path clip-path="url(#clip180)" d="M117.061 405.043 L135.417 405.043 L135.417 408.978 L121.343 408.978 L121.343 417.45 Q122.362 417.103 123.38 416.941 Q124.399 416.756 125.418 416.756 Q131.205 416.756 134.584 419.927 Q137.964 423.098 137.964 428.515 Q137.964 434.094 134.492 437.196 Q131.019 440.274 124.7 440.274 Q122.524 440.274 120.255 439.904 Q118.01 439.534 115.603 438.793 L115.603 434.094 Q117.686 435.228 119.908 435.784 Q122.13 436.339 124.607 436.339 Q128.612 436.339 130.95 434.233 Q133.288 432.126 133.288 428.515 Q133.288 424.904 130.95 422.798 Q128.612 420.691 124.607 420.691 Q122.732 420.691 120.857 421.108 Q119.006 421.524 117.061 422.404 L117.061 405.043 Z" fill="#000000" fill-rule="evenodd" fill-opacity="1" /><path clip-path="url(#clip180)" d="M157.177 408.122 Q153.566 408.122 151.737 411.686 Q149.931 415.228 149.931 422.358 Q149.931 429.464 151.737 433.029 Q153.566 436.571 157.177 436.571 Q160.811 436.571 162.616 433.029 Q164.445 429.464 164.445 422.358 Q164.445 415.228 162.616 411.686 Q160.811 408.122 157.177 408.122 M157.177 404.418 Q162.987 404.418 166.042 409.024 Q169.121 413.608 169.121 422.358 Q169.121 431.085 166.042 435.691 Q162.987 440.274 157.177 440.274 Q151.366 440.274 148.288 435.691 Q145.232 431.085 145.232 422.358 Q145.232 413.608 148.288 409.024 Q151.366 404.418 157.177 404.418 Z" fill="#000000" fill-rule="evenodd" fill-opacity="1" /><path clip-path="url(#clip180)" d="M187.338 408.122 Q183.727 408.122 181.899 411.686 Q180.093 415.228 180.093 422.358 Q180.093 429.464 181.899 433.029 Q183.727 436.571 187.338 436.571 Q190.973 436.571 192.778 433.029 Q194.607 429.464 194.607 422.358 Q194.607 415.228 192.778 411.686 Q190.973 408.122 187.338 408.122 M187.338 404.418 Q193.149 404.418 196.204 409.024 Q199.283 413.608 199.283 422.358 Q199.283 431.085 196.204 435.691 Q193.149 440.274 187.338 440.274 Q181.528 440.274 178.45 435.691 Q175.394 431.085 175.394 422.358 Q175.394 413.608 178.45 409.024 Q181.528 404.418 187.338 404.418 Z" fill="#000000" fill-rule="evenodd" fill-opacity="1" /><path clip-path="url(#clip180)" d="M217.5 408.122 Q213.889 408.122 212.061 411.686 Q210.255 415.228 210.255 422.358 Q210.255 429.464 212.061 433.029 Q213.889 436.571 217.5 436.571 Q221.135 436.571 222.94 433.029 Q224.769 429.464 224.769 422.358 Q224.769 415.228 222.94 411.686 Q221.135 408.122 217.5 408.122 M217.5 404.418 Q223.31 404.418 226.366 409.024 Q229.445 413.608 229.445 422.358 Q229.445 431.085 226.366 435.691 Q223.31 440.274 217.5 440.274 Q211.69 440.274 208.612 435.691 Q205.556 431.085 205.556 422.358 Q205.556 413.608 208.612 409.024 Q211.69 404.418 217.5 404.418 Z" fill="#000000" fill-rule="evenodd" fill-opacity="1" /><path clip-path="url(#clip180)" d="M127.593 229.912 Q124.445 229.912 122.593 232.065 Q120.765 234.218 120.765 237.968 Q120.765 241.694 122.593 243.87 Q124.445 246.023 127.593 246.023 Q130.742 246.023 132.57 243.87 Q134.422 241.694 134.422 237.968 Q134.422 234.218 132.57 232.065 Q130.742 229.912 127.593 229.912 M136.876 215.259 L136.876 219.519 Q135.117 218.685 133.311 218.246 Q131.529 217.806 129.769 217.806 Q125.14 217.806 122.686 220.931 Q120.255 224.056 119.908 230.375 Q121.274 228.361 123.334 227.296 Q125.394 226.208 127.871 226.208 Q133.08 226.208 136.089 229.38 Q139.121 232.528 139.121 237.968 Q139.121 243.292 135.973 246.509 Q132.825 249.727 127.593 249.727 Q121.598 249.727 118.427 245.144 Q115.256 240.537 115.256 231.81 Q115.256 223.616 119.144 218.755 Q123.033 213.871 129.584 213.871 Q131.343 213.871 133.126 214.218 Q134.931 214.565 136.876 215.259 Z" fill="#000000" fill-rule="evenodd" fill-opacity="1" /><path clip-path="url(#clip180)" d="M157.177 217.574 Q153.566 217.574 151.737 221.139 Q149.931 224.681 149.931 231.81 Q149.931 238.917 151.737 242.482 Q153.566 246.023 157.177 246.023 Q160.811 246.023 162.616 242.482 Q164.445 238.917 164.445 231.81 Q164.445 224.681 162.616 221.139 Q160.811 217.574 157.177 217.574 M157.177 213.871 Q162.987 213.871 166.042 218.477 Q169.121 223.06 169.121 231.81 Q169.121 240.537 166.042 245.144 Q162.987 249.727 157.177 249.727 Q151.366 249.727 148.288 245.144 Q145.232 240.537 145.232 231.81 Q145.232 223.06 148.288 218.477 Q151.366 213.871 157.177 213.871 Z" fill="#000000" fill-rule="evenodd" fill-opacity="1" /><path clip-path="url(#clip180)" d="M187.338 217.574 Q183.727 217.574 181.899 221.139 Q180.093 224.681 180.093 231.81 Q180.093 238.917 181.899 242.482 Q183.727 246.023 187.338 246.023 Q190.973 246.023 192.778 242.482 Q194.607 238.917 194.607 231.81 Q194.607 224.681 192.778 221.139 Q190.973 217.574 187.338 217.574 M187.338 213.871 Q193.149 213.871 196.204 218.477 Q199.283 223.06 199.283 231.81 Q199.283 240.537 196.204 245.144 Q193.149 249.727 187.338 249.727 Q181.528 249.727 178.45 245.144 Q175.394 240.537 175.394 231.81 Q175.394 223.06 178.45 218.477 Q181.528 213.871 187.338 213.871 Z" fill="#000000" fill-rule="evenodd" fill-opacity="1" /><path clip-path="url(#clip180)" d="M217.5 217.574 Q213.889 217.574 212.061 221.139 Q210.255 224.681 210.255 231.81 Q210.255 238.917 212.061 242.482 Q213.889 246.023 217.5 246.023 Q221.135 246.023 222.94 242.482 Q224.769 238.917 224.769 231.81 Q224.769 224.681 222.94 221.139 Q221.135 217.574 217.5 217.574 M217.5 213.871 Q223.31 213.871 226.366 218.477 Q229.445 223.06 229.445 231.81 Q229.445 240.537 226.366 245.144 Q223.31 249.727 217.5 249.727 Q211.69 249.727 208.612 245.144 Q205.556 240.537 205.556 231.81 Q205.556 223.06 208.612 218.477 Q211.69 213.871 217.5 213.871 Z" fill="#000000" fill-rule="evenodd" fill-opacity="1" /><path clip-path="url(#clip180)" d="M46.212 1021.69 Q39.7508 1021.69 36.0905 1024.36 Q32.3984 1027 32.3984 1031.65 Q32.3984 1036.29 36.0905 1038.97 Q39.7508 1041.61 46.212 1041.61 Q52.6732 1041.61 56.3653 1038.97 Q60.0256 1036.29 60.0256 1031.65 Q60.0256 1027 56.3653 1024.36 Q52.6732 1021.69 46.212 1021.69 M33.7671 1041.61 Q30.5842 1039.76 29.0564 1036.96 Q27.4968 1034.13 27.4968 1030.22 Q27.4968 1023.72 32.6531 1019.68 Q37.8093 1015.61 46.212 1015.61 Q54.6147 1015.61 59.771 1019.68 Q64.9272 1023.72 64.9272 1030.22 Q64.9272 1034.13 63.3994 1036.96 Q61.8398 1039.76 58.657 1041.61 L64.0042 1041.61 L64.0042 1047.5 L14.479 1047.5 L14.479 1041.61 L33.7671 1041.61 Z" fill="#000000" fill-rule="evenodd" fill-opacity="1" /><path clip-path="url(#clip180)" d="M46.0847 989.698 Q46.0847 996.795 47.7079 999.533 Q49.3312 1002.27 53.2461 1002.27 Q56.3653 1002.27 58.2114 1000.23 Q60.0256 998.164 60.0256 994.631 Q60.0256 989.761 56.5881 986.833 Q53.1188 983.873 47.3897 983.873 L46.0847 983.873 L46.0847 989.698 M43.6657 978.017 L64.0042 978.017 L64.0042 983.873 L58.5933 983.873 Q61.8398 985.878 63.3994 988.87 Q64.9272 991.862 64.9272 996.191 Q64.9272 1001.67 61.8716 1004.91 Q58.7843 1008.13 53.6281 1008.13 Q47.6125 1008.13 44.5569 1004.12 Q41.5014 1000.07 41.5014 992.085 L41.5014 983.873 L40.9285 983.873 Q36.8862 983.873 34.6901 986.547 Q32.4621 989.188 32.4621 993.995 Q32.4621 997.05 33.1941 999.946 Q33.9262 1002.84 35.3903 1005.52 L29.9795 1005.52 Q28.7381 1002.3 28.1334 999.278 Q27.4968 996.254 27.4968 993.39 Q27.4968 985.655 31.5072 981.836 Q35.5176 978.017 43.6657 978.017 Z" fill="#000000" fill-rule="evenodd" fill-opacity="1" /><path clip-path="url(#clip180)" d="M42.4881 936.321 L64.0042 936.321 L64.0042 942.178 L42.679 942.178 Q37.6183 942.178 35.1038 944.151 Q32.5894 946.124 32.5894 950.071 Q32.5894 954.814 35.6131 957.551 Q38.6368 960.288 43.8567 960.288 L64.0042 960.288 L64.0042 966.176 L28.3562 966.176 L28.3562 960.288 L33.8944 960.288 Q30.6797 958.187 29.0883 955.355 Q27.4968 952.49 27.4968 948.766 Q27.4968 942.623 31.3163 939.472 Q35.1038 936.321 42.4881 936.321 Z" fill="#000000" fill-rule="evenodd" fill-opacity="1" /><path clip-path="url(#clip180)" d="M33.7671 901.183 L14.479 901.183 L14.479 895.326 L64.0042 895.326 L64.0042 901.183 L58.657 901.183 Q61.8398 903.029 63.3994 905.861 Q64.9272 908.662 64.9272 912.609 Q64.9272 919.07 59.771 923.144 Q54.6147 927.186 46.212 927.186 Q37.8093 927.186 32.6531 923.144 Q27.4968 919.07 27.4968 912.609 Q27.4968 908.662 29.0564 905.861 Q30.5842 903.029 33.7671 901.183 M46.212 921.139 Q52.6732 921.139 56.3653 918.497 Q60.0256 915.824 60.0256 911.177 Q60.0256 906.53 56.3653 903.856 Q52.6732 901.183 46.212 901.183 Q39.7508 901.183 36.0905 903.856 Q32.3984 906.53 32.3984 911.177 Q32.3984 915.824 36.0905 918.497 Q39.7508 921.139 46.212 921.139 Z" fill="#000000" fill-rule="evenodd" fill-opacity="1" /><path clip-path="url(#clip180)" d="M28.3562 886.669 L28.3562 880.812 L56.1743 873.492 L28.3562 866.203 L28.3562 859.296 L56.1743 851.976 L28.3562 844.687 L28.3562 838.83 L64.0042 848.156 L64.0042 855.063 L34.7856 862.734 L64.0042 870.436 L64.0042 877.343 L28.3562 886.669 Z" fill="#000000" fill-rule="evenodd" fill-opacity="1" /><path clip-path="url(#clip180)" d="M28.3562 829.95 L28.3562 824.094 L64.0042 824.094 L64.0042 829.95 L28.3562 829.95 M14.479 829.95 L14.479 824.094 L21.895 824.094 L21.895 829.95 L14.479 829.95 Z" fill="#000000" fill-rule="evenodd" fill-opacity="1" /><path clip-path="url(#clip180)" d="M33.7671 788.382 L14.479 788.382 L14.479 782.526 L64.0042 782.526 L64.0042 788.382 L58.657 788.382 Q61.8398 790.228 63.3994 793.061 Q64.9272 795.862 64.9272 799.809 Q64.9272 806.27 59.771 810.344 Q54.6147 814.386 46.212 814.386 Q37.8093 814.386 32.6531 810.344 Q27.4968 806.27 27.4968 799.809 Q27.4968 795.862 29.0564 793.061 Q30.5842 790.228 33.7671 788.382 M46.212 808.339 Q52.6732 808.339 56.3653 805.697 Q60.0256 803.023 60.0256 798.376 Q60.0256 793.729 56.3653 791.056 Q52.6732 788.382 46.212 788.382 Q39.7508 788.382 36.0905 791.056 Q32.3984 793.729 32.3984 798.376 Q32.3984 803.023 36.0905 805.697 Q39.7508 808.339 46.212 808.339 Z" fill="#000000" fill-rule="evenodd" fill-opacity="1" /><path clip-path="url(#clip180)" d="M18.2347 764.67 L28.3562 764.67 L28.3562 752.607 L32.9077 752.607 L32.9077 764.67 L52.2594 764.67 Q56.6199 764.67 57.8613 763.492 Q59.1026 762.283 59.1026 758.623 L59.1026 752.607 L64.0042 752.607 L64.0042 758.623 Q64.0042 765.402 61.4897 767.98 Q58.9434 770.558 52.2594 770.558 L32.9077 770.558 L32.9077 774.855 L28.3562 774.855 L28.3562 770.558 L18.2347 770.558 L18.2347 764.67 Z" fill="#000000" fill-rule="evenodd" fill-opacity="1" /><path clip-path="url(#clip180)" d="M42.4881 715.272 L64.0042 715.272 L64.0042 721.128 L42.679 721.128 Q37.6183 721.128 35.1038 723.102 Q32.5894 725.075 32.5894 729.022 Q32.5894 733.764 35.6131 736.502 Q38.6368 739.239 43.8567 739.239 L64.0042 739.239 L64.0042 745.127 L14.479 745.127 L14.479 739.239 L33.8944 739.239 Q30.6797 737.138 29.0883 734.306 Q27.4968 731.441 27.4968 727.717 Q27.4968 721.574 31.3163 718.423 Q35.1038 715.272 42.4881 715.272 Z" fill="#000000" fill-rule="evenodd" fill-opacity="1" /><path clip-path="url(#clip180)" d="M14.5426 668.802 Q21.8632 673.067 29.0246 675.136 Q36.186 677.205 43.5384 677.205 Q50.8908 677.205 58.1159 675.136 Q65.3091 673.036 72.5979 668.802 L72.5979 673.895 Q65.1182 678.669 57.8931 681.056 Q50.668 683.412 43.5384 683.412 Q36.4406 683.412 29.2474 681.056 Q22.0542 678.701 14.5426 673.895 L14.5426 668.802 Z" fill="#000000" fill-rule="evenodd" fill-opacity="1" /><path clip-path="url(#clip180)" d="M16.4842 657.185 L16.4842 647.605 L48.8219 635.478 L16.4842 623.288 L16.4842 613.707 L64.0042 613.707 L64.0042 619.977 L22.277 619.977 L54.8694 632.231 L54.8694 638.693 L22.277 650.947 L64.0042 650.947 L64.0042 657.185 L16.4842 657.185 Z" fill="#000000" fill-rule="evenodd" fill-opacity="1" /><path clip-path="url(#clip180)" d="M41.3104 594.515 L58.7206 594.515 L58.7206 584.202 Q58.7206 579.014 56.5881 576.531 Q54.4238 574.017 49.9996 574.017 Q45.5436 574.017 43.4429 576.531 Q41.3104 579.014 41.3104 584.202 L41.3104 594.515 M21.7677 594.515 L36.0905 594.515 L36.0905 584.998 Q36.0905 580.287 34.34 577.996 Q32.5576 575.672 28.9291 575.672 Q25.3325 575.672 23.5501 577.996 Q21.7677 580.287 21.7677 584.998 L21.7677 594.515 M16.4842 600.944 L16.4842 584.52 Q16.4842 577.168 19.5397 573.189 Q22.5952 569.211 28.2289 569.211 Q32.5894 569.211 35.1675 571.248 Q37.7456 573.285 38.3822 577.232 Q39.4007 572.489 42.6472 569.879 Q45.8619 567.238 50.6998 567.238 Q57.0655 567.238 60.5348 571.566 Q64.0042 575.895 64.0042 583.884 L64.0042 600.944 L16.4842 600.944 Z" fill="#000000" fill-rule="evenodd" fill-opacity="1" /><path clip-path="url(#clip180)" d="M16.4842 546.072 L16.4842 540.661 L70.0516 557.212 L70.0516 562.622 L16.4842 546.072 Z" fill="#000000" fill-rule="evenodd" fill-opacity="1" /><path clip-path="url(#clip180)" d="M29.4065 511.792 L34.9447 511.792 Q33.6716 514.275 33.035 516.948 Q32.3984 519.622 32.3984 522.487 Q32.3984 526.847 33.7352 529.043 Q35.072 531.208 37.7456 531.208 Q39.7826 531.208 40.9603 529.648 Q42.1061 528.088 43.1565 523.378 L43.6021 521.373 Q44.9389 515.134 47.3897 512.524 Q49.8086 509.883 54.1691 509.883 Q59.1344 509.883 62.0308 513.829 Q64.9272 517.744 64.9272 524.619 Q64.9272 527.484 64.3543 530.603 Q63.8132 533.69 62.6992 537.128 L56.6518 537.128 Q58.3387 533.881 59.198 530.73 Q60.0256 527.579 60.0256 524.492 Q60.0256 520.354 58.6251 518.126 Q57.1929 515.898 54.6147 515.898 Q52.2276 515.898 50.9545 517.521 Q49.6813 519.113 48.5037 524.555 L48.0262 526.593 Q46.8804 532.035 44.5251 534.454 Q42.138 536.873 38.0002 536.873 Q32.9713 536.873 30.2341 533.308 Q27.4968 529.744 27.4968 523.187 Q27.4968 519.94 27.9743 517.076 Q28.4517 514.211 29.4065 511.792 Z" fill="#000000" fill-rule="evenodd" fill-opacity="1" /><path clip-path="url(#clip180)" d="M14.5426 501.48 L14.5426 496.387 Q22.0542 491.613 29.2474 489.258 Q36.4406 486.87 43.5384 486.87 Q50.668 486.87 57.8931 489.258 Q65.1182 491.613 72.5979 496.387 L72.5979 501.48 Q65.3091 497.247 58.1159 495.178 Q50.8908 493.077 43.5384 493.077 Q36.186 493.077 29.0246 495.178 Q21.8632 497.247 14.5426 501.48 Z" fill="#000000" fill-rule="evenodd" fill-opacity="1" /><path clip-path="url(#clip180)" d="M927.829 12.096 L940.022 12.096 L955.456 53.2532 L970.971 12.096 L983.165 12.096 L983.165 72.576 L975.184 72.576 L975.184 19.4686 L959.588 60.9499 L951.365 60.9499 L935.769 19.4686 L935.769 72.576 L927.829 72.576 L927.829 12.096 Z" fill="#000000" fill-rule="evenodd" fill-opacity="1" /><path clip-path="url(#clip180)" d="M1007.59 18.8205 L1007.59 41.5461 L1017.88 41.5461 Q1023.59 41.5461 1026.71 38.5889 Q1029.83 35.6318 1029.83 30.163 Q1029.83 24.7348 1026.71 21.7777 Q1023.59 18.8205 1017.88 18.8205 L1007.59 18.8205 M999.409 12.096 L1017.88 12.096 Q1028.05 12.096 1033.23 16.714 Q1038.46 21.2916 1038.46 30.163 Q1038.46 39.1155 1033.23 43.6931 Q1028.05 48.2706 1017.88 48.2706 L1007.59 48.2706 L1007.59 72.576 L999.409 72.576 L999.409 12.096 Z" fill="#000000" fill-rule="evenodd" fill-opacity="1" /><path clip-path="url(#clip180)" d="M1049.44 12.096 L1057.62 12.096 L1057.62 72.576 L1049.44 72.576 L1049.44 12.096 Z" fill="#000000" fill-rule="evenodd" fill-opacity="1" /><path clip-path="url(#clip180)" d="M1119.19 16.7545 L1119.19 25.383 Q1115.06 21.5346 1110.36 19.6307 Q1105.7 17.7268 1100.44 17.7268 Q1090.07 17.7268 1084.56 24.0867 Q1079.05 30.4061 1079.05 42.3968 Q1079.05 54.3469 1084.56 60.7069 Q1090.07 67.0263 1100.44 67.0263 Q1105.7 67.0263 1110.36 65.1223 Q1115.06 63.2184 1119.19 59.3701 L1119.19 67.9175 Q1114.9 70.8341 1110.08 72.2924 Q1105.3 73.7508 1099.95 73.7508 Q1086.22 73.7508 1078.32 65.3654 Q1070.42 56.9395 1070.42 42.3968 Q1070.42 27.8135 1078.32 19.4281 Q1086.22 11.0023 1099.95 11.0023 Q1105.38 11.0023 1110.16 12.4606 Q1114.98 13.8784 1119.19 16.7545 Z" fill="#000000" fill-rule="evenodd" fill-opacity="1" /><path clip-path="url(#clip180)" d="M1131.83 12.096 L1140.02 12.096 L1140.02 36.8875 L1169.75 36.8875 L1169.75 12.096 L1177.93 12.096 L1177.93 72.576 L1169.75 72.576 L1169.75 43.7741 L1140.02 43.7741 L1140.02 72.576 L1131.83 72.576 L1131.83 12.096 Z" fill="#000000" fill-rule="evenodd" fill-opacity="1" /><path clip-path="url(#clip180)" d="M1246.11 39.9662 Q1251.98 41.222 1255.26 45.1919 Q1258.59 49.1618 1258.59 54.9951 Q1258.59 63.9476 1252.43 68.8492 Q1246.27 73.7508 1234.93 73.7508 Q1231.12 73.7508 1227.07 72.9811 Q1223.06 72.2519 1218.77 70.7531 L1218.77 62.8538 Q1222.17 64.8388 1226.22 65.8515 Q1230.27 66.8642 1234.69 66.8642 Q1242.38 66.8642 1246.39 63.826 Q1250.44 60.7879 1250.44 54.9951 Q1250.44 49.6479 1246.68 46.6502 Q1242.95 43.612 1236.27 43.612 L1229.22 43.612 L1229.22 36.8875 L1236.59 36.8875 Q1242.62 36.8875 1245.83 34.4975 Q1249.03 32.067 1249.03 27.5299 Q1249.03 22.8714 1245.7 20.4004 Q1242.42 17.8888 1236.27 17.8888 Q1232.9 17.8888 1229.05 18.618 Q1225.21 19.3471 1220.59 20.8865 L1220.59 13.5948 Q1225.25 12.2985 1229.3 11.6504 Q1233.39 11.0023 1236.99 11.0023 Q1246.31 11.0023 1251.74 15.2557 Q1257.17 19.4686 1257.17 26.6793 Q1257.17 31.7024 1254.29 35.1862 Q1251.42 38.6294 1246.11 39.9662 Z" fill="#000000" fill-rule="evenodd" fill-opacity="1" /><path clip-path="url(#clip180)" d="M1274.1 62.2867 L1282.65 62.2867 L1282.65 72.576 L1274.1 72.576 L1274.1 62.2867 Z" fill="#000000" fill-rule="evenodd" fill-opacity="1" /><path clip-path="url(#clip180)" d="M1322.95 19.2256 L1302.29 51.5113 L1322.95 51.5113 L1322.95 19.2256 M1320.81 12.096 L1331.1 12.096 L1331.1 51.5113 L1339.73 51.5113 L1339.73 58.3168 L1331.1 58.3168 L1331.1 72.576 L1322.95 72.576 L1322.95 58.3168 L1295.65 58.3168 L1295.65 50.4176 L1320.81 12.096 Z" fill="#000000" fill-rule="evenodd" fill-opacity="1" /><path clip-path="url(#clip180)" d="M1353.26 62.2867 L1361.8 62.2867 L1361.8 72.576 L1353.26 72.576 L1353.26 62.2867 Z" fill="#000000" fill-rule="evenodd" fill-opacity="1" /><path clip-path="url(#clip180)" d="M1404.42 39.9662 Q1410.29 41.222 1413.57 45.1919 Q1416.89 49.1618 1416.89 54.9951 Q1416.89 63.9476 1410.74 68.8492 Q1404.58 73.7508 1393.24 73.7508 Q1389.43 73.7508 1385.38 72.9811 Q1381.37 72.2519 1377.07 70.7531 L1377.07 62.8538 Q1380.48 64.8388 1384.53 65.8515 Q1388.58 66.8642 1392.99 66.8642 Q1400.69 66.8642 1404.7 63.826 Q1408.75 60.7879 1408.75 54.9951 Q1408.75 49.6479 1404.99 46.6502 Q1401.26 43.612 1394.57 43.612 L1387.53 43.612 L1387.53 36.8875 L1394.9 36.8875 Q1400.93 36.8875 1404.13 34.4975 Q1407.33 32.067 1407.33 27.5299 Q1407.33 22.8714 1404.01 20.4004 Q1400.73 17.8888 1394.57 17.8888 Q1391.21 17.8888 1387.36 18.618 Q1383.52 19.3471 1378.9 20.8865 L1378.9 13.5948 Q1383.56 12.2985 1387.61 11.6504 Q1391.7 11.0023 1395.3 11.0023 Q1404.62 11.0023 1410.05 15.2557 Q1415.48 19.4686 1415.48 26.6793 Q1415.48 31.7024 1412.6 35.1862 Q1409.72 38.6294 1404.42 39.9662 Z" fill="#000000" fill-rule="evenodd" fill-opacity="1" /><path clip-path="url(#clip180)" d="M1488.07 20.5624 L1488.07 43.1259 L1510.63 43.1259 L1510.63 50.0125 L1488.07 50.0125 L1488.07 72.576 L1481.26 72.576 L1481.26 50.0125 L1458.7 50.0125 L1458.7 43.1259 L1481.26 43.1259 L1481.26 20.5624 L1488.07 20.5624 Z" fill="#000000" fill-rule="evenodd" fill-opacity="1" /><path clip-path="url(#clip180)" d="M1552.84 54.671 L1552.84 27.2059 L1560.3 27.2059 L1560.3 54.3874 Q1560.3 60.8284 1562.81 64.0691 Q1565.32 67.2693 1570.34 67.2693 Q1576.38 67.2693 1579.86 63.421 Q1583.39 59.5726 1583.39 52.9291 L1583.39 27.2059 L1590.84 27.2059 L1590.84 72.576 L1583.39 72.576 L1583.39 65.6084 Q1580.67 69.7404 1577.07 71.7658 Q1573.5 73.7508 1568.76 73.7508 Q1560.95 73.7508 1556.89 68.8897 Q1552.84 64.0286 1552.84 54.671 M1571.6 26.1121 L1571.6 26.1121 Z" fill="#000000" fill-rule="evenodd" fill-opacity="1" /><path clip-path="url(#clip180)" d="M1638.84 28.9478 L1638.84 35.9153 Q1635.68 34.1734 1632.48 33.3227 Q1629.32 32.4315 1626.08 32.4315 Q1618.83 32.4315 1614.82 37.0496 Q1610.81 41.6271 1610.81 49.9314 Q1610.81 58.2358 1614.82 62.8538 Q1618.83 67.4314 1626.08 67.4314 Q1629.32 67.4314 1632.48 66.5807 Q1635.68 65.6895 1638.84 63.9476 L1638.84 70.8341 Q1635.72 72.2924 1632.36 73.0216 Q1629.04 73.7508 1625.27 73.7508 Q1615.02 73.7508 1608.99 67.3098 Q1602.95 60.8689 1602.95 49.9314 Q1602.95 38.832 1609.03 32.472 Q1615.15 26.1121 1625.76 26.1121 Q1629.2 26.1121 1632.48 26.8413 Q1635.77 27.5299 1638.84 28.9478 Z" fill="#000000" fill-rule="evenodd" fill-opacity="1" /><path clip-path="url(#clip180)" d="M1689.52 27.2059 L1673.11 49.2833 L1690.37 72.576 L1681.58 72.576 L1668.38 54.752 L1655.17 72.576 L1646.38 72.576 L1664 48.8377 L1647.88 27.2059 L1656.67 27.2059 L1668.7 43.369 L1680.73 27.2059 L1689.52 27.2059 Z" fill="#000000" fill-rule="evenodd" fill-opacity="1" /><polyline clip-path="url(#clip182)" style="stroke:#000000; stroke-linecap:butt; stroke-linejoin:round; stroke-width:4; stroke-opacity:1; fill:none" points="
  324.52,1374.46 414.027,1373.82 503.534,1372.49 593.042,1369.91 682.549,1364.58 772.056,1354.35 861.564,1336.69 951.071,1306.72 1040.58,1251.09 1130.09,1149.37 
  1219.59,973.253 1309.1,620.835 1398.61,426.887 1488.11,316.88 1577.62,281.855 1667.13,263.332 1756.64,251.103 1846.14,242.082 1935.65,161.688 2025.16,162.715 
  2114.67,162.845 2204.17,159.909 2293.68,163.76 
  "/>
<circle clip-path="url(#clip182)" cx="324.52" cy="1374.46" r="14" fill="#ff0000" fill-rule="evenodd" fill-opacity="1" stroke="#000000" stroke-opacity="1" stroke-width="3.2"/>
<circle clip-path="url(#clip182)" cx="414.027" cy="1373.82" r="14" fill="#ff0000" fill-rule="evenodd" fill-opacity="1" stroke="#000000" stroke-opacity="1" stroke-width="3.2"/>
<circle clip-path="url(#clip182)" cx="503.534" cy="1372.49" r="14" fill="#ff0000" fill-rule="evenodd" fill-opacity="1" stroke="#000000" stroke-opacity="1" stroke-width="3.2"/>
<circle clip-path="url(#clip182)" cx="593.042" cy="1369.91" r="14" fill="#ff0000" fill-rule="evenodd" fill-opacity="1" stroke="#000000" stroke-opacity="1" stroke-width="3.2"/>
<circle clip-path="url(#clip182)" cx="682.549" cy="1364.58" r="14" fill="#ff0000" fill-rule="evenodd" fill-opacity="1" stroke="#000000" stroke-opacity="1" stroke-width="3.2"/>
<circle clip-path="url(#clip182)" cx="772.056" cy="1354.35" r="14" fill="#ff0000" fill-rule="evenodd" fill-opacity="1" stroke="#000000" stroke-opacity="1" stroke-width="3.2"/>
<circle clip-path="url(#clip182)" cx="861.564" cy="1336.69" r="14" fill="#ff0000" fill-rule="evenodd" fill-opacity="1" stroke="#000000" stroke-opacity="1" stroke-width="3.2"/>
<circle clip-path="url(#clip182)" cx="951.071" cy="1306.72" r="14" fill="#ff0000" fill-rule="evenodd" fill-opacity="1" stroke="#000000" stroke-opacity="1" stroke-width="3.2"/>
<circle clip-path="url(#clip182)" cx="1040.58" cy="1251.09" r="14" fill="#ff0000" fill-rule="evenodd" fill-opacity="1" stroke="#000000" stroke-opacity="1" stroke-width="3.2"/>
<circle clip-path="url(#clip182)" cx="1130.09" cy="1149.37" r="14" fill="#ff0000" fill-rule="evenodd" fill-opacity="1" stroke="#000000" stroke-opacity="1" stroke-width="3.2"/>
<circle clip-path="url(#clip182)" cx="1219.59" cy="973.253" r="14" fill="#ff0000" fill-rule="evenodd" fill-opacity="1" stroke="#000000" stroke-opacity="1" stroke-width="3.2"/>
<circle clip-path="url(#clip182)" cx="1309.1" cy="620.835" r="14" fill="#ff0000" fill-rule="evenodd" fill-opacity="1" stroke="#000000" stroke-opacity="1" stroke-width="3.2"/>
<circle clip-path="url(#clip182)" cx="1398.61" cy="426.887" r="14" fill="#ff0000" fill-rule="evenodd" fill-opacity="1" stroke="#000000" stroke-opacity="1" stroke-width="3.2"/>
<circle clip-path="url(#clip182)" cx="1488.11" cy="316.88" r="14" fill="#ff0000" fill-rule="evenodd" fill-opacity="1" stroke="#000000" stroke-opacity="1" stroke-width="3.2"/>
<circle clip-path="url(#clip182)" cx="1577.62" cy="281.855" r="14" fill="#ff0000" fill-rule="evenodd" fill-opacity="1" stroke="#000000" stroke-opacity="1" stroke-width="3.2"/>
<circle clip-path="url(#clip182)" cx="1667.13" cy="263.332" r="14" fill="#ff0000" fill-rule="evenodd" fill-opacity="1" stroke="#000000" stroke-opacity="1" stroke-width="3.2"/>
<circle clip-path="url(#clip182)" cx="1756.64" cy="251.103" r="14" fill="#ff0000" fill-rule="evenodd" fill-opacity="1" stroke="#000000" stroke-opacity="1" stroke-width="3.2"/>
<circle clip-path="url(#clip182)" cx="1846.14" cy="242.082" r="14" fill="#ff0000" fill-rule="evenodd" fill-opacity="1" stroke="#000000" stroke-opacity="1" stroke-width="3.2"/>
<circle clip-path="url(#clip182)" cx="1935.65" cy="161.688" r="14" fill="#ff0000" fill-rule="evenodd" fill-opacity="1" stroke="#000000" stroke-opacity="1" stroke-width="3.2"/>
<circle clip-path="url(#clip182)" cx="2025.16" cy="162.715" r="14" fill="#ff0000" fill-rule="evenodd" fill-opacity="1" stroke="#000000" stroke-opacity="1" stroke-width="3.2"/>
<circle clip-path="url(#clip182)" cx="2114.67" cy="162.845" r="14" fill="#ff0000" fill-rule="evenodd" fill-opacity="1" stroke="#000000" stroke-opacity="1" stroke-width="3.2"/>
<circle clip-path="url(#clip182)" cx="2204.17" cy="159.909" r="14" fill="#ff0000" fill-rule="evenodd" fill-opacity="1" stroke="#000000" stroke-opacity="1" stroke-width="3.2"/>
<circle clip-path="url(#clip182)" cx="2293.68" cy="163.76" r="14" fill="#ff0000" fill-rule="evenodd" fill-opacity="1" stroke="#000000" stroke-opacity="1" stroke-width="3.2"/>
</svg>
