<?xml version="1.0" encoding="utf-8"?>
<svg xmlns="http://www.w3.org/2000/svg" xmlns:xlink="http://www.w3.org/1999/xlink" width="600" height="400" viewBox="0 0 2400 1600">
<defs>
  <clipPath id="clip870">
    <rect x="0" y="0" width="2400" height="1600"/>
  </clipPath>
</defs>
<path clip-path="url(#clip870)" d="
M0 1600 L2400 1600 L2400 0 L0 0  Z
  " fill="#ffffff" fill-rule="evenodd" fill-opacity="1"/>
<defs>
  <clipPath id="clip871">
    <rect x="480" y="0" width="1681" height="1600"/>
  </clipPath>
</defs>
<path clip-path="url(#clip870)" d="
M251.372 1410.9 L2352.76 1410.9 L2352.76 123.472 L251.372 123.472  Z
  " fill="#ffffff" fill-rule="evenodd" fill-opacity="1"/>
<defs>
  <clipPath id="clip872">
    <rect x="251" y="123" width="2102" height="1288"/>
  </clipPath>
</defs>
<polyline clip-path="url(#clip872)" style="stroke:#000000; stroke-linecap:butt; stroke-linejoin:round; stroke-width:2; stroke-opacity:0.1; fill:none" points="
  310.845,1410.9 310.845,123.472 
  "/>
<polyline clip-path="url(#clip872)" style="stroke:#000000; stroke-linecap:butt; stroke-linejoin:round; stroke-width:2; stroke-opacity:0.1; fill:none" points="
  610.187,1410.9 610.187,123.472 
  "/>
<polyline clip-path="url(#clip872)" style="stroke:#000000; stroke-linecap:butt; stroke-linejoin:round; stroke-width:2; stroke-opacity:0.1; fill:none" points="
  909.528,1410.9 909.528,123.472 
  "/>
<polyline clip-path="url(#clip872)" style="stroke:#000000; stroke-linecap:butt; stroke-linejoin:round; stroke-width:2; stroke-opacity:0.1; fill:none" points="
  1208.87,1410.9 1208.87,123.472 
  "/>
<polyline clip-path="url(#clip872)" style="stroke:#000000; stroke-linecap:butt; stroke-linejoin:round; stroke-width:2; stroke-opacity:0.1; fill:none" points="
  1508.21,1410.9 1508.21,123.472 
  "/>
<polyline clip-path="url(#clip872)" style="stroke:#000000; stroke-linecap:butt; stroke-linejoin:round; stroke-width:2; stroke-opacity:0.1; fill:none" points="
  1807.55,1410.9 1807.55,123.472 
  "/>
<polyline clip-path="url(#clip872)" style="stroke:#000000; stroke-linecap:butt; stroke-linejoin:round; stroke-width:2; stroke-opacity:0.1; fill:none" points="
  2106.89,1410.9 2106.89,123.472 
  "/>
<polyline clip-path="url(#clip870)" style="stroke:#000000; stroke-linecap:butt; stroke-linejoin:round; stroke-width:4; stroke-opacity:1; fill:none" points="
  251.372,1410.9 2352.76,1410.9 
  "/>
<polyline clip-path="url(#clip870)" style="stroke:#000000; stroke-linecap:butt; stroke-linejoin:round; stroke-width:4; stroke-opacity:1; fill:none" points="
  310.845,1410.9 310.845,1392 
  "/>
<polyline clip-path="url(#clip870)" style="stroke:#000000; stroke-linecap:butt; stroke-linejoin:round; stroke-width:4; stroke-opacity:1; fill:none" points="
  610.187,1410.9 610.187,1392 
  "/>
<polyline clip-path="url(#clip870)" style="stroke:#000000; stroke-linecap:butt; stroke-linejoin:round; stroke-width:4; stroke-opacity:1; fill:none" points="
  909.528,1410.9 909.528,1392 
  "/>
<polyline clip-path="url(#clip870)" style="stroke:#000000; stroke-linecap:butt; stroke-linejoin:round; stroke-width:4; stroke-opacity:1; fill:none" points="
  1208.87,1410.9 1208.87,1392 
  "/>
<polyline clip-path="url(#clip870)" style="stroke:#000000; stroke-linecap:butt; stroke-linejoin:round; stroke-width:4; stroke-opacity:1; fill:none" points="
  1508.21,1410.9 1508.21,1392 
  "/>
<polyline clip-path="url(#clip870)" style="stroke:#000000; stroke-linecap:butt; stroke-linejoin:round; stroke-width:4; stroke-opacity:1; fill:none" points="
  1807.55,1410.9 1807.55,1392 
  "/>
<polyline clip-path="url(#clip870)" style="stroke:#000000; stroke-linecap:butt; stroke-linejoin:round; stroke-width:4; stroke-opacity:1; fill:none" points="
  2106.89,1410.9 2106.89,1392 
  "/>
<path clip-path="url(#clip870)" d="M275.828 1485.02 L283.467 1485.02 L283.467 1458.66 L275.157 1460.32 L275.157 1456.06 L283.421 1454.4 L288.097 1454.4 L288.097 1485.02 L295.735 1485.02 L295.735 1488.96 L275.828 1488.96 L275.828 1485.02 Z" fill="#000000" fill-rule="evenodd" fill-opacity="1" /><path clip-path="url(#clip870)" d="M315.18 1457.48 Q311.569 1457.48 309.74 1461.04 Q307.934 1464.58 307.934 1471.71 Q307.934 1478.82 309.74 1482.38 Q311.569 1485.92 315.18 1485.92 Q318.814 1485.92 320.62 1482.38 Q322.448 1478.82 322.448 1471.71 Q322.448 1464.58 320.62 1461.04 Q318.814 1457.48 315.18 1457.48 M315.18 1453.77 Q320.99 1453.77 324.045 1458.38 Q327.124 1462.96 327.124 1471.71 Q327.124 1480.44 324.045 1485.04 Q320.99 1489.63 315.18 1489.63 Q309.37 1489.63 306.291 1485.04 Q303.235 1480.44 303.235 1471.71 Q303.235 1462.96 306.291 1458.38 Q309.37 1453.77 315.18 1453.77 Z" fill="#000000" fill-rule="evenodd" fill-opacity="1" /><path clip-path="url(#clip870)" d="M336.829 1435.97 Q333.895 1435.97 332.409 1438.86 Q330.942 1441.74 330.942 1447.53 Q330.942 1453.31 332.409 1456.2 Q333.895 1459.08 336.829 1459.08 Q339.782 1459.08 341.249 1456.2 Q342.735 1453.31 342.735 1447.53 Q342.735 1441.74 341.249 1438.86 Q339.782 1435.97 336.829 1435.97 M336.829 1432.96 Q341.55 1432.96 344.032 1436.7 Q346.534 1440.43 346.534 1447.53 Q346.534 1454.62 344.032 1458.37 Q341.55 1462.09 336.829 1462.09 Q332.108 1462.09 329.607 1458.37 Q327.124 1454.62 327.124 1447.53 Q327.124 1440.43 329.607 1436.7 Q332.108 1432.96 336.829 1432.96 Z" fill="#000000" fill-rule="evenodd" fill-opacity="1" /><path clip-path="url(#clip870)" d="M576.514 1485.02 L584.153 1485.02 L584.153 1458.66 L575.843 1460.32 L575.843 1456.06 L584.107 1454.4 L588.783 1454.4 L588.783 1485.02 L596.422 1485.02 L596.422 1488.96 L576.514 1488.96 L576.514 1485.02 Z" fill="#000000" fill-rule="evenodd" fill-opacity="1" /><path clip-path="url(#clip870)" d="M615.866 1457.48 Q612.255 1457.48 610.426 1461.04 Q608.621 1464.58 608.621 1471.71 Q608.621 1478.82 610.426 1482.38 Q612.255 1485.92 615.866 1485.92 Q619.5 1485.92 621.306 1482.38 Q623.135 1478.82 623.135 1471.71 Q623.135 1464.58 621.306 1461.04 Q619.5 1457.48 615.866 1457.48 M615.866 1453.77 Q621.676 1453.77 624.732 1458.38 Q627.81 1462.96 627.81 1471.71 Q627.81 1480.44 624.732 1485.04 Q621.676 1489.63 615.866 1489.63 Q610.056 1489.63 606.977 1485.04 Q603.922 1480.44 603.922 1471.71 Q603.922 1462.96 606.977 1458.38 Q610.056 1453.77 615.866 1453.77 Z" fill="#000000" fill-rule="evenodd" fill-opacity="1" /><path clip-path="url(#clip870)" d="M628.356 1458.35 L634.562 1458.35 L634.562 1436.93 L627.81 1438.28 L627.81 1434.82 L634.525 1433.47 L638.324 1433.47 L638.324 1458.35 L644.531 1458.35 L644.531 1461.55 L628.356 1461.55 L628.356 1458.35 Z" fill="#000000" fill-rule="evenodd" fill-opacity="1" /><path clip-path="url(#clip870)" d="M875.301 1485.02 L882.94 1485.02 L882.94 1458.66 L874.63 1460.32 L874.63 1456.06 L882.894 1454.4 L887.57 1454.4 L887.57 1485.02 L895.209 1485.02 L895.209 1488.96 L875.301 1488.96 L875.301 1485.02 Z" fill="#000000" fill-rule="evenodd" fill-opacity="1" /><path clip-path="url(#clip870)" d="M914.653 1457.48 Q911.042 1457.48 909.213 1461.04 Q907.408 1464.58 907.408 1471.71 Q907.408 1478.82 909.213 1482.38 Q911.042 1485.92 914.653 1485.92 Q918.287 1485.92 920.093 1482.38 Q921.921 1478.82 921.921 1471.71 Q921.921 1464.58 920.093 1461.04 Q918.287 1457.48 914.653 1457.48 M914.653 1453.77 Q920.463 1453.77 923.519 1458.38 Q926.597 1462.96 926.597 1471.71 Q926.597 1480.44 923.519 1485.04 Q920.463 1489.63 914.653 1489.63 Q908.843 1489.63 905.764 1485.04 Q902.708 1480.44 902.708 1471.71 Q902.708 1462.96 905.764 1458.38 Q908.843 1453.77 914.653 1453.77 Z" fill="#000000" fill-rule="evenodd" fill-opacity="1" /><path clip-path="url(#clip870)" d="M931.168 1458.35 L944.427 1458.35 L944.427 1461.55 L926.597 1461.55 L926.597 1458.35 Q928.76 1456.11 932.484 1452.35 Q936.227 1448.57 937.186 1447.48 Q939.01 1445.43 939.725 1444.02 Q940.459 1442.59 940.459 1441.22 Q940.459 1438.98 938.879 1437.57 Q937.318 1436.16 934.797 1436.16 Q933.011 1436.16 931.017 1436.78 Q929.042 1437.4 926.785 1438.66 L926.785 1434.82 Q929.08 1433.9 931.073 1433.43 Q933.067 1432.96 934.722 1432.96 Q939.086 1432.96 941.681 1435.14 Q944.277 1437.32 944.277 1440.97 Q944.277 1442.7 943.618 1444.26 Q942.979 1445.8 941.267 1447.91 Q940.797 1448.46 938.277 1451.07 Q935.757 1453.67 931.168 1458.35 Z" fill="#000000" fill-rule="evenodd" fill-opacity="1" /><path clip-path="url(#clip870)" d="M1174.31 1485.02 L1181.95 1485.02 L1181.95 1458.66 L1173.64 1460.32 L1173.64 1456.06 L1181.91 1454.4 L1186.58 1454.4 L1186.58 1485.02 L1194.22 1485.02 L1194.22 1488.96 L1174.31 1488.96 L1174.31 1485.02 Z" fill="#000000" fill-rule="evenodd" fill-opacity="1" /><path clip-path="url(#clip870)" d="M1213.67 1457.48 Q1210.05 1457.48 1208.23 1461.04 Q1206.42 1464.58 1206.42 1471.71 Q1206.42 1478.82 1208.23 1482.38 Q1210.05 1485.92 1213.67 1485.92 Q1217.3 1485.92 1219.11 1482.38 Q1220.93 1478.82 1220.93 1471.71 Q1220.93 1464.58 1219.11 1461.04 Q1217.3 1457.48 1213.67 1457.48 M1213.67 1453.77 Q1219.48 1453.77 1222.53 1458.38 Q1225.61 1462.96 1225.61 1471.71 Q1225.61 1480.44 1222.53 1485.04 Q1219.48 1489.63 1213.67 1489.63 Q1207.86 1489.63 1204.78 1485.04 Q1201.72 1480.44 1201.72 1471.71 Q1201.72 1462.96 1204.78 1458.38 Q1207.86 1453.77 1213.67 1453.77 Z" fill="#000000" fill-rule="evenodd" fill-opacity="1" /><path clip-path="url(#clip870)" d="M1238.3 1446.41 Q1241.03 1446.99 1242.56 1448.83 Q1244.1 1450.68 1244.1 1453.38 Q1244.1 1457.54 1241.24 1459.82 Q1238.38 1462.09 1233.11 1462.09 Q1231.35 1462.09 1229.47 1461.73 Q1227.6 1461.4 1225.61 1460.7 L1225.61 1457.03 Q1227.19 1457.95 1229.07 1458.42 Q1230.95 1458.89 1233 1458.89 Q1236.57 1458.89 1238.44 1457.48 Q1240.32 1456.07 1240.32 1453.38 Q1240.32 1450.9 1238.57 1449.51 Q1236.84 1448.1 1233.73 1448.1 L1230.46 1448.1 L1230.46 1444.98 L1233.89 1444.98 Q1236.69 1444.98 1238.17 1443.87 Q1239.66 1442.74 1239.66 1440.63 Q1239.66 1438.47 1238.12 1437.32 Q1236.59 1436.16 1233.73 1436.16 Q1232.17 1436.16 1230.39 1436.49 Q1228.6 1436.83 1226.46 1437.55 L1226.46 1434.16 Q1228.62 1433.56 1230.5 1433.26 Q1232.4 1432.96 1234.07 1432.96 Q1238.4 1432.96 1240.92 1434.93 Q1243.44 1436.89 1243.44 1440.24 Q1243.44 1442.57 1242.1 1444.19 Q1240.77 1445.79 1238.3 1446.41 Z" fill="#000000" fill-rule="evenodd" fill-opacity="1" /><path clip-path="url(#clip870)" d="M1472.67 1485.02 L1480.31 1485.02 L1480.31 1458.66 L1472 1460.32 L1472 1456.06 L1480.26 1454.4 L1484.94 1454.4 L1484.94 1485.02 L1492.58 1485.02 L1492.58 1488.96 L1472.67 1488.96 L1472.67 1485.02 Z" fill="#000000" fill-rule="evenodd" fill-opacity="1" /><path clip-path="url(#clip870)" d="M1512.02 1457.48 Q1508.41 1457.48 1506.58 1461.04 Q1504.77 1464.58 1504.77 1471.71 Q1504.77 1478.82 1506.58 1482.38 Q1508.41 1485.92 1512.02 1485.92 Q1515.65 1485.92 1517.46 1482.38 Q1519.29 1478.82 1519.29 1471.71 Q1519.29 1464.58 1517.46 1461.04 Q1515.65 1457.48 1512.02 1457.48 M1512.02 1453.77 Q1517.83 1453.77 1520.89 1458.38 Q1523.96 1462.96 1523.96 1471.71 Q1523.96 1480.44 1520.89 1485.04 Q1517.83 1489.63 1512.02 1489.63 Q1506.21 1489.63 1503.13 1485.04 Q1500.08 1480.44 1500.08 1471.71 Q1500.08 1462.96 1503.13 1458.38 Q1506.21 1453.77 1512.02 1453.77 Z" fill="#000000" fill-rule="evenodd" fill-opacity="1" /><path clip-path="url(#clip870)" d="M1536.64 1436.78 L1527.05 1451.77 L1536.64 1451.77 L1536.64 1436.78 M1535.64 1433.47 L1540.42 1433.47 L1540.42 1451.77 L1544.43 1451.77 L1544.43 1454.93 L1540.42 1454.93 L1540.42 1461.55 L1536.64 1461.55 L1536.64 1454.93 L1523.96 1454.93 L1523.96 1451.26 L1535.64 1433.47 Z" fill="#000000" fill-rule="evenodd" fill-opacity="1" /><path clip-path="url(#clip870)" d="M1773.16 1485.02 L1780.8 1485.02 L1780.8 1458.66 L1772.49 1460.32 L1772.49 1456.06 L1780.75 1454.4 L1785.43 1454.4 L1785.43 1485.02 L1793.06 1485.02 L1793.06 1488.96 L1773.16 1488.96 L1773.16 1485.02 Z" fill="#000000" fill-rule="evenodd" fill-opacity="1" /><path clip-path="url(#clip870)" d="M1812.51 1457.48 Q1808.9 1457.48 1807.07 1461.04 Q1805.26 1464.58 1805.26 1471.71 Q1805.26 1478.82 1807.07 1482.38 Q1808.9 1485.92 1812.51 1485.92 Q1816.14 1485.92 1817.95 1482.38 Q1819.78 1478.82 1819.78 1471.71 Q1819.78 1464.58 1817.95 1461.04 Q1816.14 1457.48 1812.51 1457.48 M1812.51 1453.77 Q1818.32 1453.77 1821.37 1458.38 Q1824.45 1462.96 1824.45 1471.71 Q1824.45 1480.44 1821.37 1485.04 Q1818.32 1489.63 1812.51 1489.63 Q1806.7 1489.63 1803.62 1485.04 Q1800.56 1480.44 1800.56 1471.71 Q1800.56 1462.96 1803.62 1458.38 Q1806.7 1453.77 1812.51 1453.77 Z" fill="#000000" fill-rule="evenodd" fill-opacity="1" /><path clip-path="url(#clip870)" d="M1825.64 1433.47 L1840.55 1433.47 L1840.55 1436.66 L1829.12 1436.66 L1829.12 1443.55 Q1829.94 1443.27 1830.77 1443.13 Q1831.6 1442.98 1832.43 1442.98 Q1837.13 1442.98 1839.88 1445.56 Q1842.62 1448.14 1842.62 1452.54 Q1842.62 1457.07 1839.8 1459.59 Q1836.98 1462.09 1831.84 1462.09 Q1830.08 1462.09 1828.23 1461.79 Q1826.41 1461.49 1824.45 1460.89 L1824.45 1457.07 Q1826.15 1457.99 1827.95 1458.44 Q1829.76 1458.89 1831.77 1458.89 Q1835.02 1458.89 1836.92 1457.18 Q1838.82 1455.47 1838.82 1452.54 Q1838.82 1449.6 1836.92 1447.89 Q1835.02 1446.18 1831.77 1446.18 Q1830.25 1446.18 1828.72 1446.52 Q1827.22 1446.86 1825.64 1447.57 L1825.64 1433.47 Z" fill="#000000" fill-rule="evenodd" fill-opacity="1" /><path clip-path="url(#clip870)" d="M2071.89 1485.02 L2079.53 1485.02 L2079.53 1458.66 L2071.22 1460.32 L2071.22 1456.06 L2079.48 1454.4 L2084.16 1454.4 L2084.16 1485.02 L2091.79 1485.02 L2091.79 1488.96 L2071.89 1488.96 L2071.89 1485.02 Z" fill="#000000" fill-rule="evenodd" fill-opacity="1" /><path clip-path="url(#clip870)" d="M2111.24 1457.48 Q2107.63 1457.48 2105.8 1461.04 Q2103.99 1464.58 2103.99 1471.71 Q2103.99 1478.82 2105.8 1482.38 Q2107.63 1485.92 2111.24 1485.92 Q2114.87 1485.92 2116.68 1482.38 Q2118.51 1478.82 2118.51 1471.71 Q2118.51 1464.58 2116.68 1461.04 Q2114.87 1457.48 2111.24 1457.48 M2111.24 1453.77 Q2117.05 1453.77 2120.1 1458.38 Q2123.18 1462.96 2123.18 1471.71 Q2123.18 1480.44 2120.1 1485.04 Q2117.05 1489.63 2111.24 1489.63 Q2105.43 1489.63 2102.35 1485.04 Q2099.29 1480.44 2099.29 1471.71 Q2099.29 1462.96 2102.35 1458.38 Q2105.43 1453.77 2111.24 1453.77 Z" fill="#000000" fill-rule="evenodd" fill-opacity="1" /><path clip-path="url(#clip870)" d="M2133.21 1445.99 Q2130.65 1445.99 2129.15 1447.74 Q2127.66 1449.49 2127.66 1452.54 Q2127.66 1455.57 2129.15 1457.33 Q2130.65 1459.08 2133.21 1459.08 Q2135.77 1459.08 2137.25 1457.33 Q2138.76 1455.57 2138.76 1452.54 Q2138.76 1449.49 2137.25 1447.74 Q2135.77 1445.99 2133.21 1445.99 M2140.75 1434.09 L2140.75 1437.55 Q2139.32 1436.87 2137.85 1436.51 Q2136.4 1436.16 2134.98 1436.16 Q2131.21 1436.16 2129.22 1438.69 Q2127.25 1441.23 2126.96 1446.37 Q2128.07 1444.73 2129.75 1443.87 Q2131.42 1442.98 2133.43 1442.98 Q2137.67 1442.98 2140.11 1445.56 Q2142.57 1448.12 2142.57 1452.54 Q2142.57 1456.86 2140.02 1459.48 Q2137.46 1462.09 2133.21 1462.09 Q2128.34 1462.09 2125.76 1458.37 Q2123.18 1454.62 2123.18 1447.53 Q2123.18 1440.88 2126.34 1436.93 Q2129.5 1432.96 2134.83 1432.96 Q2136.25 1432.96 2137.7 1433.24 Q2139.17 1433.52 2140.75 1434.09 Z" fill="#000000" fill-rule="evenodd" fill-opacity="1" /><path clip-path="url(#clip870)" d="M1060.12 1543.95 L1060.12 1524.66 L1065.98 1524.66 L1065.98 1574.19 L1060.12 1574.19 L1060.12 1568.84 Q1058.27 1572.02 1055.44 1573.58 Q1052.64 1575.11 1048.69 1575.11 Q1042.23 1575.11 1038.16 1569.95 Q1034.12 1564.8 1034.12 1556.39 Q1034.12 1547.99 1038.16 1542.83 Q1042.23 1537.68 1048.69 1537.68 Q1052.64 1537.68 1055.44 1539.24 Q1058.27 1540.77 1060.12 1543.95 M1040.16 1556.39 Q1040.16 1562.85 1042.8 1566.55 Q1045.48 1570.21 1050.13 1570.21 Q1054.77 1570.21 1057.45 1566.55 Q1060.12 1562.85 1060.12 1556.39 Q1060.12 1549.93 1057.45 1546.27 Q1054.77 1542.58 1050.13 1542.58 Q1045.48 1542.58 1042.8 1546.27 Q1040.16 1549.93 1040.16 1556.39 Z" fill="#000000" fill-rule="evenodd" fill-opacity="1" /><path clip-path="url(#clip870)" d="M1094.24 1556.27 Q1087.14 1556.27 1084.4 1557.89 Q1081.67 1559.51 1081.67 1563.43 Q1081.67 1566.55 1083.7 1568.39 Q1085.77 1570.21 1089.31 1570.21 Q1094.18 1570.21 1097.1 1566.77 Q1100.06 1563.3 1100.06 1557.57 L1100.06 1556.27 L1094.24 1556.27 M1105.92 1553.85 L1105.92 1574.19 L1100.06 1574.19 L1100.06 1568.77 Q1098.06 1572.02 1095.07 1573.58 Q1092.08 1575.11 1087.75 1575.11 Q1082.27 1575.11 1079.03 1572.05 Q1075.81 1568.97 1075.81 1563.81 Q1075.81 1557.79 1079.82 1554.74 Q1083.86 1551.68 1091.85 1551.68 L1100.06 1551.68 L1100.06 1551.11 Q1100.06 1547.07 1097.39 1544.87 Q1094.75 1542.64 1089.94 1542.64 Q1086.89 1542.64 1083.99 1543.38 Q1081.09 1544.11 1078.42 1545.57 L1078.42 1540.16 Q1081.64 1538.92 1084.66 1538.31 Q1087.68 1537.68 1090.55 1537.68 Q1098.28 1537.68 1102.1 1541.69 Q1105.92 1545.7 1105.92 1553.85 Z" fill="#000000" fill-rule="evenodd" fill-opacity="1" /><path clip-path="url(#clip870)" d="M1123.78 1528.42 L1123.78 1538.54 L1135.84 1538.54 L1135.84 1543.09 L1123.78 1543.09 L1123.78 1562.44 Q1123.78 1566.8 1124.95 1568.04 Q1126.16 1569.28 1129.82 1569.28 L1135.84 1569.28 L1135.84 1574.19 L1129.82 1574.19 Q1123.04 1574.19 1120.47 1571.67 Q1117.89 1569.12 1117.89 1562.44 L1117.89 1543.09 L1113.59 1543.09 L1113.59 1538.54 L1117.89 1538.54 L1117.89 1528.42 L1123.78 1528.42 Z" fill="#000000" fill-rule="evenodd" fill-opacity="1" /><path clip-path="url(#clip870)" d="M1159.74 1556.27 Q1152.64 1556.27 1149.91 1557.89 Q1147.17 1559.51 1147.17 1563.43 Q1147.17 1566.55 1149.21 1568.39 Q1151.28 1570.21 1154.81 1570.21 Q1159.68 1570.21 1162.61 1566.77 Q1165.57 1563.3 1165.57 1557.57 L1165.57 1556.27 L1159.74 1556.27 M1171.42 1553.85 L1171.42 1574.19 L1165.57 1574.19 L1165.57 1568.77 Q1163.56 1572.02 1160.57 1573.58 Q1157.58 1575.11 1153.25 1575.11 Q1147.78 1575.11 1144.53 1572.05 Q1141.31 1568.97 1141.31 1563.81 Q1141.31 1557.79 1145.32 1554.74 Q1149.37 1551.68 1157.36 1551.68 L1165.57 1551.68 L1165.57 1551.11 Q1165.57 1547.07 1162.89 1544.87 Q1160.25 1542.64 1155.45 1542.64 Q1152.39 1542.64 1149.49 1543.38 Q1146.6 1544.11 1143.92 1545.57 L1143.92 1540.16 Q1147.14 1538.92 1150.16 1538.31 Q1153.19 1537.68 1156.05 1537.68 Q1163.78 1537.68 1167.6 1541.69 Q1171.42 1545.7 1171.42 1553.85 Z" fill="#000000" fill-rule="evenodd" fill-opacity="1" /><path clip-path="url(#clip870)" d="M1226.93 1539.59 L1226.93 1545.13 Q1224.45 1543.85 1221.78 1543.22 Q1219.1 1542.58 1216.24 1542.58 Q1211.88 1542.58 1209.68 1543.92 Q1207.52 1545.25 1207.52 1547.93 Q1207.52 1549.96 1209.08 1551.14 Q1210.64 1552.29 1215.35 1553.34 L1217.35 1553.78 Q1223.59 1555.12 1226.2 1557.57 Q1228.84 1559.99 1228.84 1564.35 Q1228.84 1569.32 1224.9 1572.21 Q1220.98 1575.11 1214.11 1575.11 Q1211.24 1575.11 1208.12 1574.54 Q1205.03 1573.99 1201.6 1572.88 L1201.6 1566.83 Q1204.84 1568.52 1207.99 1569.38 Q1211.15 1570.21 1214.23 1570.21 Q1218.37 1570.21 1220.6 1568.81 Q1222.83 1567.37 1222.83 1564.8 Q1222.83 1562.41 1221.2 1561.14 Q1219.61 1559.86 1214.17 1558.68 L1212.13 1558.21 Q1206.69 1557.06 1204.27 1554.71 Q1201.85 1552.32 1201.85 1548.18 Q1201.85 1543.15 1205.42 1540.42 Q1208.98 1537.68 1215.54 1537.68 Q1218.78 1537.68 1221.65 1538.16 Q1224.51 1538.63 1226.93 1539.59 Z" fill="#000000" fill-rule="evenodd" fill-opacity="1" /><path clip-path="url(#clip870)" d="M1238.17 1538.54 L1244.02 1538.54 L1244.02 1574.19 L1238.17 1574.19 L1238.17 1538.54 M1238.17 1524.66 L1244.02 1524.66 L1244.02 1532.08 L1238.17 1532.08 L1238.17 1524.66 Z" fill="#000000" fill-rule="evenodd" fill-opacity="1" /><path clip-path="url(#clip870)" d="M1253.73 1538.54 L1281.55 1538.54 L1281.55 1543.88 L1259.53 1569.51 L1281.55 1569.51 L1281.55 1574.19 L1252.94 1574.19 L1252.94 1568.84 L1274.96 1543.22 L1253.73 1543.22 L1253.73 1538.54 Z" fill="#000000" fill-rule="evenodd" fill-opacity="1" /><path clip-path="url(#clip870)" d="M1320.99 1554.9 L1320.99 1557.76 L1294.06 1557.76 Q1294.44 1563.81 1297.69 1566.99 Q1300.97 1570.14 1306.79 1570.14 Q1310.16 1570.14 1313.32 1569.32 Q1316.5 1568.49 1319.62 1566.83 L1319.62 1572.37 Q1316.47 1573.71 1313.16 1574.41 Q1309.85 1575.11 1306.44 1575.11 Q1297.91 1575.11 1292.91 1570.14 Q1287.95 1565.18 1287.95 1556.71 Q1287.95 1547.96 1292.66 1542.83 Q1297.4 1537.68 1305.42 1537.68 Q1312.62 1537.68 1316.78 1542.33 Q1320.99 1546.94 1320.99 1554.9 M1315.13 1553.18 Q1315.07 1548.37 1312.42 1545.51 Q1309.81 1542.64 1305.49 1542.64 Q1300.58 1542.64 1297.62 1545.41 Q1294.7 1548.18 1294.25 1553.21 L1315.13 1553.18 Z" fill="#000000" fill-rule="evenodd" fill-opacity="1" /><path clip-path="url(#clip870)" d="M1365.39 1524.72 Q1361.12 1532.04 1359.05 1539.21 Q1356.98 1546.37 1356.98 1553.72 Q1356.98 1561.07 1359.05 1568.3 Q1361.15 1575.49 1365.39 1582.78 L1360.29 1582.78 Q1355.52 1575.3 1353.13 1568.07 Q1350.78 1560.85 1350.78 1553.72 Q1350.78 1546.62 1353.13 1539.43 Q1355.49 1532.24 1360.29 1524.72 L1365.39 1524.72 Z" fill="#000000" fill-rule="evenodd" fill-opacity="1" /><path clip-path="url(#clip870)" d="M1402.34 1556.39 Q1402.34 1549.93 1399.67 1546.27 Q1397.02 1542.58 1392.38 1542.58 Q1387.73 1542.58 1385.06 1546.27 Q1382.42 1549.93 1382.42 1556.39 Q1382.42 1562.85 1385.06 1566.55 Q1387.73 1570.21 1392.38 1570.21 Q1397.02 1570.21 1399.67 1566.55 Q1402.34 1562.85 1402.34 1556.39 M1382.42 1543.95 Q1384.26 1540.77 1387.06 1539.24 Q1389.89 1537.68 1393.81 1537.68 Q1400.3 1537.68 1404.35 1542.83 Q1408.42 1547.99 1408.42 1556.39 Q1408.42 1564.8 1404.35 1569.95 Q1400.3 1575.11 1393.81 1575.11 Q1389.89 1575.11 1387.06 1573.58 Q1384.26 1572.02 1382.42 1568.84 L1382.42 1574.19 L1376.53 1574.19 L1376.53 1524.66 L1382.42 1524.66 L1382.42 1543.95 Z" fill="#000000" fill-rule="evenodd" fill-opacity="1" /><path clip-path="url(#clip870)" d="M1432.96 1577.5 Q1430.48 1583.86 1428.12 1585.8 Q1425.77 1587.74 1421.82 1587.74 L1417.14 1587.74 L1417.14 1582.84 L1420.58 1582.84 Q1423 1582.84 1424.33 1581.7 Q1425.67 1580.55 1427.29 1576.29 L1428.34 1573.61 L1413.93 1538.54 L1420.13 1538.54 L1431.27 1566.42 L1442.41 1538.54 L1448.62 1538.54 L1432.96 1577.5 Z" fill="#000000" fill-rule="evenodd" fill-opacity="1" /><path clip-path="url(#clip870)" d="M1462.5 1528.42 L1462.5 1538.54 L1474.56 1538.54 L1474.56 1543.09 L1462.5 1543.09 L1462.5 1562.44 Q1462.5 1566.8 1463.67 1568.04 Q1464.88 1569.28 1468.54 1569.28 L1474.56 1569.28 L1474.56 1574.19 L1468.54 1574.19 Q1461.76 1574.19 1459.19 1571.67 Q1456.61 1569.12 1456.61 1562.44 L1456.61 1543.09 L1452.31 1543.09 L1452.31 1538.54 L1456.61 1538.54 L1456.61 1528.42 L1462.5 1528.42 Z" fill="#000000" fill-rule="evenodd" fill-opacity="1" /><path clip-path="url(#clip870)" d="M1512.75 1554.9 L1512.75 1557.76 L1485.83 1557.76 Q1486.21 1563.81 1489.45 1566.99 Q1492.73 1570.14 1498.56 1570.14 Q1501.93 1570.14 1505.08 1569.32 Q1508.27 1568.49 1511.38 1566.83 L1511.38 1572.37 Q1508.23 1573.71 1504.92 1574.41 Q1501.61 1575.11 1498.21 1575.11 Q1489.68 1575.11 1484.68 1570.14 Q1479.71 1565.18 1479.71 1556.71 Q1479.71 1547.96 1484.43 1542.83 Q1489.17 1537.68 1497.19 1537.68 Q1504.38 1537.68 1508.55 1542.33 Q1512.75 1546.94 1512.75 1554.9 M1506.9 1553.18 Q1506.83 1548.37 1504.19 1545.51 Q1501.58 1542.64 1497.25 1542.64 Q1492.35 1542.64 1489.39 1545.41 Q1486.46 1548.18 1486.02 1553.21 L1506.9 1553.18 Z" fill="#000000" fill-rule="evenodd" fill-opacity="1" /><path clip-path="url(#clip870)" d="M1545.09 1539.59 L1545.09 1545.13 Q1542.61 1543.85 1539.93 1543.22 Q1537.26 1542.58 1534.4 1542.58 Q1530.04 1542.58 1527.84 1543.92 Q1525.68 1545.25 1525.68 1547.93 Q1525.68 1549.96 1527.23 1551.14 Q1528.79 1552.29 1533.51 1553.34 L1535.51 1553.78 Q1541.75 1555.12 1544.36 1557.57 Q1547 1559.99 1547 1564.35 Q1547 1569.32 1543.05 1572.21 Q1539.14 1575.11 1532.26 1575.11 Q1529.4 1575.11 1526.28 1574.54 Q1523.19 1573.99 1519.76 1572.88 L1519.76 1566.83 Q1523 1568.52 1526.15 1569.38 Q1529.3 1570.21 1532.39 1570.21 Q1536.53 1570.21 1538.76 1568.81 Q1540.98 1567.37 1540.98 1564.8 Q1540.98 1562.41 1539.36 1561.14 Q1537.77 1559.86 1532.33 1558.68 L1530.29 1558.21 Q1524.85 1557.06 1522.43 1554.71 Q1520.01 1552.32 1520.01 1548.18 Q1520.01 1543.15 1523.57 1540.42 Q1527.14 1537.68 1533.7 1537.68 Q1536.94 1537.68 1539.81 1538.16 Q1542.67 1538.63 1545.09 1539.59 Z" fill="#000000" fill-rule="evenodd" fill-opacity="1" /><path clip-path="url(#clip870)" d="M1555.4 1524.72 L1560.5 1524.72 Q1565.27 1532.24 1567.63 1539.43 Q1570.01 1546.62 1570.01 1553.72 Q1570.01 1560.85 1567.63 1568.07 Q1565.27 1575.3 1560.5 1582.78 L1555.4 1582.78 Q1559.64 1575.49 1561.71 1568.3 Q1563.81 1561.07 1563.81 1553.72 Q1563.81 1546.37 1561.71 1539.21 Q1559.64 1532.04 1555.4 1524.72 Z" fill="#000000" fill-rule="evenodd" fill-opacity="1" /><polyline clip-path="url(#clip872)" style="stroke:#000000; stroke-linecap:butt; stroke-linejoin:round; stroke-width:2; stroke-opacity:0.1; fill:none" points="
  251.372,1410.9 2352.76,1410.9 
  "/>
<polyline clip-path="url(#clip872)" style="stroke:#000000; stroke-linecap:butt; stroke-linejoin:round; stroke-width:2; stroke-opacity:0.1; fill:none" points="
  251.372,1089.04 2352.76,1089.04 
  "/>
<polyline clip-path="url(#clip872)" style="stroke:#000000; stroke-linecap:butt; stroke-linejoin:round; stroke-width:2; stroke-opacity:0.1; fill:none" points="
  251.372,767.184 2352.76,767.184 
  "/>
<polyline clip-path="url(#clip872)" style="stroke:#000000; stroke-linecap:butt; stroke-linejoin:round; stroke-width:2; stroke-opacity:0.1; fill:none" points="
  251.372,445.328 2352.76,445.328 
  "/>
<polyline clip-path="url(#clip872)" style="stroke:#000000; stroke-linecap:butt; stroke-linejoin:round; stroke-width:2; stroke-opacity:0.1; fill:none" points="
  251.372,123.472 2352.76,123.472 
  "/>
<polyline clip-path="url(#clip870)" style="stroke:#000000; stroke-linecap:butt; stroke-linejoin:round; stroke-width:4; stroke-opacity:1; fill:none" points="
  251.372,1410.9 251.372,123.472 
  "/>
<polyline clip-path="url(#clip870)" style="stroke:#000000; stroke-linecap:butt; stroke-linejoin:round; stroke-width:4; stroke-opacity:1; fill:none" points="
  251.372,1410.9 270.27,1410.9 
  "/>
<polyline clip-path="url(#clip870)" style="stroke:#000000; stroke-linecap:butt; stroke-linejoin:round; stroke-width:4; stroke-opacity:1; fill:none" points="
  251.372,1089.04 270.27,1089.04 
  "/>
<polyline clip-path="url(#clip870)" style="stroke:#000000; stroke-linecap:butt; stroke-linejoin:round; stroke-width:4; stroke-opacity:1; fill:none" points="
  251.372,767.184 270.27,767.184 
  "/>
<polyline clip-path="url(#clip870)" style="stroke:#000000; stroke-linecap:butt; stroke-linejoin:round; stroke-width:4; stroke-opacity:1; fill:none" points="
  251.372,445.328 270.27,445.328 
  "/>
<polyline clip-path="url(#clip870)" style="stroke:#000000; stroke-linecap:butt; stroke-linejoin:round; stroke-width:4; stroke-opacity:1; fill:none" points="
  251.372,123.472 270.27,123.472 
  "/>
<path clip-path="url(#clip870)" d="M114.931 1430.69 L122.57 1430.69 L122.57 1404.32 L114.26 1405.99 L114.26 1401.73 L122.524 1400.06 L127.2 1400.06 L127.2 1430.69 L134.839 1430.69 L134.839 1434.62 L114.931 1434.62 L114.931 1430.69 Z" fill="#000000" fill-rule="evenodd" fill-opacity="1" /><path clip-path="url(#clip870)" d="M154.283 1403.14 Q150.672 1403.14 148.843 1406.71 Q147.038 1410.25 147.038 1417.38 Q147.038 1424.49 148.843 1428.05 Q150.672 1431.59 154.283 1431.59 Q157.917 1431.59 159.723 1428.05 Q161.552 1424.49 161.552 1417.38 Q161.552 1410.25 159.723 1406.71 Q157.917 1403.14 154.283 1403.14 M154.283 1399.44 Q160.093 1399.44 163.149 1404.05 Q166.227 1408.63 166.227 1417.38 Q166.227 1426.11 163.149 1430.71 Q160.093 1435.3 154.283 1435.3 Q148.473 1435.3 145.394 1430.71 Q142.339 1426.11 142.339 1417.38 Q142.339 1408.63 145.394 1404.05 Q148.473 1399.44 154.283 1399.44 Z" fill="#000000" fill-rule="evenodd" fill-opacity="1" /><path clip-path="url(#clip870)" d="M166.227 1393.54 L190.339 1393.54 L190.339 1396.74 L166.227 1396.74 L166.227 1393.54 Z" fill="#000000" fill-rule="evenodd" fill-opacity="1" /><path clip-path="url(#clip870)" d="M199.197 1404.02 L205.404 1404.02 L205.404 1382.59 L198.652 1383.95 L198.652 1380.49 L205.366 1379.13 L209.166 1379.13 L209.166 1404.02 L215.372 1404.02 L215.372 1407.21 L199.197 1407.21 L199.197 1404.02 Z" fill="#000000" fill-rule="evenodd" fill-opacity="1" /><path clip-path="url(#clip870)" d="M144.667 1108.83 L152.305 1108.83 L152.305 1082.47 L143.995 1084.13 L143.995 1079.87 L152.259 1078.21 L156.935 1078.21 L156.935 1108.83 L164.574 1108.83 L164.574 1112.77 L144.667 1112.77 L144.667 1108.83 Z" fill="#000000" fill-rule="evenodd" fill-opacity="1" /><path clip-path="url(#clip870)" d="M184.018 1081.29 Q180.407 1081.29 178.578 1084.85 Q176.773 1088.39 176.773 1095.52 Q176.773 1102.63 178.578 1106.19 Q180.407 1109.74 184.018 1109.74 Q187.652 1109.74 189.458 1106.19 Q191.287 1102.63 191.287 1095.52 Q191.287 1088.39 189.458 1084.85 Q187.652 1081.29 184.018 1081.29 M184.018 1077.58 Q189.828 1077.58 192.884 1082.19 Q195.963 1086.77 195.963 1095.52 Q195.963 1104.25 192.884 1108.86 Q189.828 1113.44 184.018 1113.44 Q178.208 1113.44 175.129 1108.86 Q172.074 1104.25 172.074 1095.52 Q172.074 1086.77 175.129 1082.19 Q178.208 1077.58 184.018 1077.58 Z" fill="#000000" fill-rule="evenodd" fill-opacity="1" /><path clip-path="url(#clip870)" d="M205.667 1059.78 Q202.733 1059.78 201.248 1062.68 Q199.781 1065.55 199.781 1071.35 Q199.781 1077.12 201.248 1080.02 Q202.733 1082.89 205.667 1082.89 Q208.62 1082.89 210.087 1080.02 Q211.573 1077.12 211.573 1071.35 Q211.573 1065.55 210.087 1062.68 Q208.62 1059.78 205.667 1059.78 M205.667 1056.77 Q210.388 1056.77 212.871 1060.51 Q215.372 1064.24 215.372 1071.35 Q215.372 1078.44 212.871 1082.18 Q210.388 1085.9 205.667 1085.9 Q200.947 1085.9 198.445 1082.18 Q195.963 1078.44 195.963 1071.35 Q195.963 1064.24 198.445 1060.51 Q200.947 1056.77 205.667 1056.77 Z" fill="#000000" fill-rule="evenodd" fill-opacity="1" /><path clip-path="url(#clip870)" d="M147.356 786.977 L154.995 786.977 L154.995 760.611 L146.685 762.278 L146.685 758.019 L154.949 756.352 L159.624 756.352 L159.624 786.977 L167.263 786.977 L167.263 790.912 L147.356 790.912 L147.356 786.977 Z" fill="#000000" fill-rule="evenodd" fill-opacity="1" /><path clip-path="url(#clip870)" d="M186.708 759.431 Q183.097 759.431 181.268 762.995 Q179.462 766.537 179.462 773.667 Q179.462 780.773 181.268 784.338 Q183.097 787.88 186.708 787.88 Q190.342 787.88 192.147 784.338 Q193.976 780.773 193.976 773.667 Q193.976 766.537 192.147 762.995 Q190.342 759.431 186.708 759.431 M186.708 755.727 Q192.518 755.727 195.573 760.333 Q198.652 764.917 198.652 773.667 Q198.652 782.394 195.573 787 Q192.518 791.583 186.708 791.583 Q180.898 791.583 177.819 787 Q174.763 782.394 174.763 773.667 Q174.763 764.917 177.819 760.333 Q180.898 755.727 186.708 755.727 Z" fill="#000000" fill-rule="evenodd" fill-opacity="1" /><path clip-path="url(#clip870)" d="M199.197 760.304 L205.404 760.304 L205.404 738.882 L198.652 740.236 L198.652 736.776 L205.366 735.422 L209.166 735.422 L209.166 760.304 L215.372 760.304 L215.372 763.502 L199.197 763.502 L199.197 760.304 Z" fill="#000000" fill-rule="evenodd" fill-opacity="1" /><path clip-path="url(#clip870)" d="M146.246 465.121 L153.885 465.121 L153.885 438.755 L145.575 440.422 L145.575 436.163 L153.839 434.496 L158.515 434.496 L158.515 465.121 L166.154 465.121 L166.154 469.056 L146.246 469.056 L146.246 465.121 Z" fill="#000000" fill-rule="evenodd" fill-opacity="1" /><path clip-path="url(#clip870)" d="M185.598 437.575 Q181.987 437.575 180.158 441.139 Q178.353 444.681 178.353 451.811 Q178.353 458.917 180.158 462.482 Q181.987 466.023 185.598 466.023 Q189.232 466.023 191.038 462.482 Q192.867 458.917 192.867 451.811 Q192.867 444.681 191.038 441.139 Q189.232 437.575 185.598 437.575 M185.598 433.871 Q191.408 433.871 194.464 438.477 Q197.542 443.061 197.542 451.811 Q197.542 460.537 194.464 465.144 Q191.408 469.727 185.598 469.727 Q179.788 469.727 176.709 465.144 Q173.654 460.537 173.654 451.811 Q173.654 443.061 176.709 438.477 Q179.788 433.871 185.598 433.871 Z" fill="#000000" fill-rule="evenodd" fill-opacity="1" /><path clip-path="url(#clip870)" d="M202.113 438.448 L215.372 438.448 L215.372 441.645 L197.542 441.645 L197.542 438.448 Q199.705 436.21 203.429 432.448 Q207.172 428.668 208.131 427.577 Q209.956 425.527 210.67 424.117 Q211.404 422.687 211.404 421.314 Q211.404 419.076 209.824 417.666 Q208.263 416.255 205.743 416.255 Q203.956 416.255 201.962 416.876 Q199.987 417.496 197.73 418.756 L197.73 414.92 Q200.025 413.998 202.019 413.528 Q204.012 413.058 205.667 413.058 Q210.031 413.058 212.626 415.239 Q215.222 417.421 215.222 421.07 Q215.222 422.8 214.563 424.361 Q213.924 425.903 212.212 428.01 Q211.742 428.555 209.222 431.17 Q206.702 433.765 202.113 438.448 Z" fill="#000000" fill-rule="evenodd" fill-opacity="1" /><path clip-path="url(#clip870)" d="M145.588 143.265 L153.227 143.265 L153.227 116.899 L144.917 118.566 L144.917 114.306 L153.181 112.64 L157.857 112.64 L157.857 143.265 L165.495 143.265 L165.495 147.2 L145.588 147.2 L145.588 143.265 Z" fill="#000000" fill-rule="evenodd" fill-opacity="1" /><path clip-path="url(#clip870)" d="M184.94 115.718 Q181.329 115.718 179.5 119.283 Q177.694 122.825 177.694 129.954 Q177.694 137.061 179.5 140.626 Q181.329 144.167 184.94 144.167 Q188.574 144.167 190.38 140.626 Q192.208 137.061 192.208 129.954 Q192.208 122.825 190.38 119.283 Q188.574 115.718 184.94 115.718 M184.94 112.015 Q190.75 112.015 193.805 116.621 Q196.884 121.204 196.884 129.954 Q196.884 138.681 193.805 143.288 Q190.75 147.871 184.94 147.871 Q179.13 147.871 176.051 143.288 Q172.995 138.681 172.995 129.954 Q172.995 121.204 176.051 116.621 Q179.13 112.015 184.94 112.015 Z" fill="#000000" fill-rule="evenodd" fill-opacity="1" /><path clip-path="url(#clip870)" d="M209.579 104.649 Q212.307 105.232 213.83 107.075 Q215.372 108.918 215.372 111.627 Q215.372 115.783 212.513 118.059 Q209.655 120.335 204.388 120.335 Q202.621 120.335 200.74 119.977 Q198.878 119.639 196.884 118.943 L196.884 115.275 Q198.464 116.197 200.345 116.667 Q202.226 117.137 204.276 117.137 Q207.849 117.137 209.711 115.727 Q211.592 114.316 211.592 111.627 Q211.592 109.144 209.843 107.752 Q208.112 106.342 205.009 106.342 L201.737 106.342 L201.737 103.22 L205.16 103.22 Q207.962 103.22 209.448 102.11 Q210.934 100.982 210.934 98.8751 Q210.934 96.7122 209.391 95.5649 Q207.868 94.3988 205.009 94.3988 Q203.448 94.3988 201.661 94.7374 Q199.875 95.0759 197.73 95.7906 L197.73 92.4052 Q199.893 91.8034 201.774 91.5024 Q203.674 91.2015 205.348 91.2015 Q209.673 91.2015 212.194 93.1763 Q214.714 95.1323 214.714 98.4801 Q214.714 100.812 213.379 102.43 Q212.043 104.028 209.579 104.649 Z" fill="#000000" fill-rule="evenodd" fill-opacity="1" /><path clip-path="url(#clip870)" d="M16.4842 963.519 L16.4842 957.089 L58.5933 957.089 L58.5933 933.95 L64.0042 933.95 L64.0042 963.519 L16.4842 963.519 Z" fill="#000000" fill-rule="evenodd" fill-opacity="1" /><path clip-path="url(#clip870)" d="M46.0847 911.256 Q46.0847 918.354 47.7079 921.091 Q49.3312 923.829 53.2461 923.829 Q56.3653 923.829 58.2114 921.791 Q60.0256 919.723 60.0256 916.19 Q60.0256 911.32 56.5881 908.392 Q53.1188 905.432 47.3897 905.432 L46.0847 905.432 L46.0847 911.256 M43.6657 899.575 L64.0042 899.575 L64.0042 905.432 L58.5933 905.432 Q61.8398 907.437 63.3994 910.429 Q64.9272 913.421 64.9272 917.749 Q64.9272 923.224 61.8716 926.47 Q58.7843 929.685 53.6281 929.685 Q47.6125 929.685 44.5569 925.675 Q41.5014 921.632 41.5014 913.643 L41.5014 905.432 L40.9285 905.432 Q36.8862 905.432 34.6901 908.105 Q32.4621 910.747 32.4621 915.553 Q32.4621 918.609 33.1941 921.505 Q33.9262 924.401 35.3903 927.075 L29.9795 927.075 Q28.7381 923.86 28.1334 920.837 Q27.4968 917.813 27.4968 914.948 Q27.4968 907.214 31.5072 903.395 Q35.5176 899.575 43.6657 899.575 Z" fill="#000000" fill-rule="evenodd" fill-opacity="1" /><path clip-path="url(#clip870)" d="M18.2347 881.719 L28.3562 881.719 L28.3562 869.656 L32.9077 869.656 L32.9077 881.719 L52.2594 881.719 Q56.6199 881.719 57.8613 880.542 Q59.1026 879.332 59.1026 875.672 L59.1026 869.656 L64.0042 869.656 L64.0042 875.672 Q64.0042 882.451 61.4897 885.03 Q58.9434 887.608 52.2594 887.608 L32.9077 887.608 L32.9077 891.904 L28.3562 891.904 L28.3562 887.608 L18.2347 887.608 L18.2347 881.719 Z" fill="#000000" fill-rule="evenodd" fill-opacity="1" /><path clip-path="url(#clip870)" d="M44.7161 831.462 L47.5806 831.462 L47.5806 858.389 Q53.6281 858.007 56.8109 854.761 Q59.9619 851.482 59.9619 845.658 Q59.9619 842.284 59.1344 839.133 Q58.3069 835.95 56.6518 832.831 L62.1899 832.831 Q63.5267 835.982 64.227 839.292 Q64.9272 842.602 64.9272 846.008 Q64.9272 854.538 59.9619 859.535 Q54.9967 864.5 46.5303 864.5 Q37.7774 864.5 32.6531 859.79 Q27.4968 855.047 27.4968 847.026 Q27.4968 839.833 32.1438 835.663 Q36.7589 831.462 44.7161 831.462 M42.9973 837.319 Q38.1912 837.382 35.3266 840.024 Q32.4621 842.634 32.4621 846.963 Q32.4621 851.864 35.2312 854.824 Q38.0002 857.752 43.0292 858.198 L42.9973 837.319 Z" fill="#000000" fill-rule="evenodd" fill-opacity="1" /><path clip-path="url(#clip870)" d="M42.4881 792.218 L64.0042 792.218 L64.0042 798.074 L42.679 798.074 Q37.6183 798.074 35.1038 800.047 Q32.5894 802.021 32.5894 805.967 Q32.5894 810.71 35.6131 813.447 Q38.6368 816.184 43.8567 816.184 L64.0042 816.184 L64.0042 822.073 L28.3562 822.073 L28.3562 816.184 L33.8944 816.184 Q30.6797 814.084 29.0883 811.251 Q27.4968 808.386 27.4968 804.662 Q27.4968 798.52 31.3163 795.369 Q35.1038 792.218 42.4881 792.218 Z" fill="#000000" fill-rule="evenodd" fill-opacity="1" /><path clip-path="url(#clip870)" d="M29.7248 754.883 L35.1993 754.883 Q33.8307 757.365 33.1623 759.88 Q32.4621 762.362 32.4621 764.909 Q32.4621 770.606 36.0905 773.757 Q39.6872 776.908 46.212 776.908 Q52.7369 776.908 56.3653 773.757 Q59.9619 770.606 59.9619 764.909 Q59.9619 762.362 59.2935 759.88 Q58.5933 757.365 57.2247 754.883 L62.6355 754.883 Q63.7814 757.333 64.3543 759.975 Q64.9272 762.585 64.9272 765.545 Q64.9272 773.598 59.8664 778.34 Q54.8057 783.083 46.212 783.083 Q37.491 783.083 32.4939 778.308 Q27.4968 773.502 27.4968 765.163 Q27.4968 762.458 28.0697 759.88 Q28.6108 757.302 29.7248 754.883 Z" fill="#000000" fill-rule="evenodd" fill-opacity="1" /><path clip-path="url(#clip870)" d="M67.3143 729.865 Q73.68 732.348 75.6216 734.703 Q77.5631 737.059 77.5631 741.005 L77.5631 745.684 L72.6615 745.684 L72.6615 742.247 Q72.6615 739.828 71.5157 738.491 Q70.3699 737.154 66.1048 735.531 L63.4312 734.481 L28.3562 748.899 L28.3562 742.692 L56.238 731.552 L28.3562 720.412 L28.3562 714.206 L67.3143 729.865 Z" fill="#000000" fill-rule="evenodd" fill-opacity="1" /><path clip-path="url(#clip870)" d="M14.5426 671.333 Q21.8632 675.598 29.0246 677.667 Q36.186 679.735 43.5384 679.735 Q50.8908 679.735 58.1159 677.667 Q65.3091 675.566 72.5979 671.333 L72.5979 676.425 Q65.1182 681.2 57.8931 683.587 Q50.668 685.942 43.5384 685.942 Q36.4406 685.942 29.2474 683.587 Q22.0542 681.231 14.5426 676.425 L14.5426 671.333 Z" fill="#000000" fill-rule="evenodd" fill-opacity="1" /><path clip-path="url(#clip870)" d="M77.5631 660.575 L28.3562 660.575 L28.3562 654.718 L50.5089 654.718 Q55.124 654.718 57.4793 652.522 Q59.8346 650.326 59.8346 646.029 Q59.8346 641.318 57.161 638.963 Q54.4874 636.576 49.1402 636.576 L28.3562 636.576 L28.3562 630.72 L55.7924 630.72 Q57.7021 630.72 58.6251 630.178 Q59.5163 629.606 59.5163 628.428 Q59.5163 628.141 59.3572 627.632 Q59.1662 627.123 58.7843 626.232 L63.4949 626.232 Q64.227 627.537 64.5771 628.714 Q64.9272 629.86 64.9272 630.974 Q64.9272 633.17 63.6859 634.475 Q62.4446 635.78 59.8983 636.258 Q62.4127 637.849 63.6859 640.173 Q64.9272 642.464 64.9272 645.583 Q64.9272 648.83 63.6859 651.122 Q62.4446 653.381 59.9619 654.718 L77.5631 654.718 L77.5631 660.575 Z" fill="#000000" fill-rule="evenodd" fill-opacity="1" /><path clip-path="url(#clip870)" d="M29.4065 595.772 L34.9447 595.772 Q33.6716 598.254 33.035 600.928 Q32.3984 603.602 32.3984 606.466 Q32.3984 610.827 33.7352 613.023 Q35.072 615.187 37.7456 615.187 Q39.7826 615.187 40.9603 613.628 Q42.1061 612.068 43.1565 607.357 L43.6021 605.352 Q44.9389 599.114 47.3897 596.504 Q49.8086 593.862 54.1691 593.862 Q59.1344 593.862 62.0308 597.809 Q64.9272 601.724 64.9272 608.599 Q64.9272 611.463 64.3543 614.582 Q63.8132 617.67 62.6992 621.107 L56.6518 621.107 Q58.3387 617.861 59.198 614.71 Q60.0256 611.559 60.0256 608.471 Q60.0256 604.334 58.6251 602.106 Q57.1929 599.878 54.6147 599.878 Q52.2276 599.878 50.9545 601.501 Q49.6813 603.092 48.5037 608.535 L48.0262 610.572 Q46.8804 616.015 44.5251 618.434 Q42.138 620.853 38.0002 620.853 Q32.9713 620.853 30.2341 617.288 Q27.4968 613.723 27.4968 607.166 Q27.4968 603.92 27.9743 601.055 Q28.4517 598.191 29.4065 595.772 Z" fill="#000000" fill-rule="evenodd" fill-opacity="1" /><path clip-path="url(#clip870)" d="M14.5426 585.459 L14.5426 580.367 Q22.0542 575.593 29.2474 573.237 Q36.4406 570.85 43.5384 570.85 Q50.668 570.85 57.8931 573.237 Q65.1182 575.593 72.5979 580.367 L72.5979 585.459 Q65.3091 581.226 58.1159 579.157 Q50.8908 577.057 43.5384 577.057 Q36.186 577.057 29.0246 579.157 Q21.8632 581.226 14.5426 585.459 Z" fill="#000000" fill-rule="evenodd" fill-opacity="1" /><path clip-path="url(#clip870)" d="M953.788 12.096 L965.981 12.096 L981.415 53.2532 L996.93 12.096 L1009.12 12.096 L1009.12 72.576 L1001.14 72.576 L1001.14 19.4686 L985.547 60.9499 L977.323 60.9499 L961.727 19.4686 L961.727 72.576 L953.788 72.576 L953.788 12.096 Z" fill="#000000" fill-rule="evenodd" fill-opacity="1" /><path clip-path="url(#clip870)" d="M1033.55 18.8205 L1033.55 41.5461 L1043.84 41.5461 Q1049.55 41.5461 1052.67 38.5889 Q1055.79 35.6318 1055.79 30.163 Q1055.79 24.7348 1052.67 21.7777 Q1049.55 18.8205 1043.84 18.8205 L1033.55 18.8205 M1025.37 12.096 L1043.84 12.096 Q1054.01 12.096 1059.19 16.714 Q1064.42 21.2916 1064.42 30.163 Q1064.42 39.1155 1059.19 43.6931 Q1054.01 48.2706 1043.84 48.2706 L1033.55 48.2706 L1033.55 72.576 L1025.37 72.576 L1025.37 12.096 Z" fill="#000000" fill-rule="evenodd" fill-opacity="1" /><path clip-path="url(#clip870)" d="M1075.4 12.096 L1083.58 12.096 L1083.58 72.576 L1075.4 72.576 L1075.4 12.096 Z" fill="#000000" fill-rule="evenodd" fill-opacity="1" /><path clip-path="url(#clip870)" d="M1145.15 16.7545 L1145.15 25.383 Q1141.02 21.5346 1136.32 19.6307 Q1131.66 17.7268 1126.4 17.7268 Q1116.03 17.7268 1110.52 24.0867 Q1105.01 30.4061 1105.01 42.3968 Q1105.01 54.3469 1110.52 60.7069 Q1116.03 67.0263 1126.4 67.0263 Q1131.66 67.0263 1136.32 65.1223 Q1141.02 63.2184 1145.15 59.3701 L1145.15 67.9175 Q1140.86 70.8341 1136.04 72.2924 Q1131.26 73.7508 1125.91 73.7508 Q1112.18 73.7508 1104.28 65.3654 Q1096.38 56.9395 1096.38 42.3968 Q1096.38 27.8135 1104.28 19.4281 Q1112.18 11.0023 1125.91 11.0023 Q1131.34 11.0023 1136.12 12.4606 Q1140.94 13.8784 1145.15 16.7545 Z" fill="#000000" fill-rule="evenodd" fill-opacity="1" /><path clip-path="url(#clip870)" d="M1157.79 12.096 L1165.97 12.096 L1165.97 36.8875 L1195.71 36.8875 L1195.71 12.096 L1203.89 12.096 L1203.89 72.576 L1195.71 72.576 L1195.71 43.7741 L1165.97 43.7741 L1165.97 72.576 L1157.79 72.576 L1157.79 12.096 Z" fill="#000000" fill-rule="evenodd" fill-opacity="1" /><path clip-path="url(#clip870)" d="M1272.07 39.9662 Q1277.94 41.222 1281.22 45.1919 Q1284.54 49.1618 1284.54 54.9951 Q1284.54 63.9476 1278.39 68.8492 Q1272.23 73.7508 1260.89 73.7508 Q1257.08 73.7508 1253.03 72.9811 Q1249.02 72.2519 1244.72 70.7531 L1244.72 62.8538 Q1248.13 64.8388 1252.18 65.8515 Q1256.23 66.8642 1260.64 66.8642 Q1268.34 66.8642 1272.35 63.826 Q1276.4 60.7879 1276.4 54.9951 Q1276.4 49.6479 1272.63 46.6502 Q1268.91 43.612 1262.22 43.612 L1255.17 43.612 L1255.17 36.8875 L1262.55 36.8875 Q1268.58 36.8875 1271.78 34.4975 Q1274.98 32.067 1274.98 27.5299 Q1274.98 22.8714 1271.66 20.4004 Q1268.38 17.8888 1262.22 17.8888 Q1258.86 17.8888 1255.01 18.618 Q1251.16 19.3471 1246.55 20.8865 L1246.55 13.5948 Q1251.2 12.2985 1255.26 11.6504 Q1259.35 11.0023 1262.95 11.0023 Q1272.27 11.0023 1277.7 15.2557 Q1283.13 19.4686 1283.13 26.6793 Q1283.13 31.7024 1280.25 35.1862 Q1277.37 38.6294 1272.07 39.9662 Z" fill="#000000" fill-rule="evenodd" fill-opacity="1" /><path clip-path="url(#clip870)" d="M1300.06 62.2867 L1308.61 62.2867 L1308.61 72.576 L1300.06 72.576 L1300.06 62.2867 Z" fill="#000000" fill-rule="evenodd" fill-opacity="1" /><path clip-path="url(#clip870)" d="M1348.91 19.2256 L1328.25 51.5113 L1348.91 51.5113 L1348.91 19.2256 M1346.77 12.096 L1357.06 12.096 L1357.06 51.5113 L1365.68 51.5113 L1365.68 58.3168 L1357.06 58.3168 L1357.06 72.576 L1348.91 72.576 L1348.91 58.3168 L1321.61 58.3168 L1321.61 50.4176 L1346.77 12.096 Z" fill="#000000" fill-rule="evenodd" fill-opacity="1" /><path clip-path="url(#clip870)" d="M1379.21 62.2867 L1387.76 62.2867 L1387.76 72.576 L1379.21 72.576 L1379.21 62.2867 Z" fill="#000000" fill-rule="evenodd" fill-opacity="1" /><path clip-path="url(#clip870)" d="M1430.38 39.9662 Q1436.25 41.222 1439.53 45.1919 Q1442.85 49.1618 1442.85 54.9951 Q1442.85 63.9476 1436.7 68.8492 Q1430.54 73.7508 1419.2 73.7508 Q1415.39 73.7508 1411.34 72.9811 Q1407.33 72.2519 1403.03 70.7531 L1403.03 62.8538 Q1406.44 64.8388 1410.49 65.8515 Q1414.54 66.8642 1418.95 66.8642 Q1426.65 66.8642 1430.66 63.826 Q1434.71 60.7879 1434.71 54.9951 Q1434.71 49.6479 1430.94 46.6502 Q1427.22 43.612 1420.53 43.612 L1413.48 43.612 L1413.48 36.8875 L1420.86 36.8875 Q1426.89 36.8875 1430.09 34.4975 Q1433.29 32.067 1433.29 27.5299 Q1433.29 22.8714 1429.97 20.4004 Q1426.69 17.8888 1420.53 17.8888 Q1417.17 17.8888 1413.32 18.618 Q1409.47 19.3471 1404.86 20.8865 L1404.86 13.5948 Q1409.51 12.2985 1413.57 11.6504 Q1417.66 11.0023 1421.26 11.0023 Q1430.58 11.0023 1436.01 15.2557 Q1441.44 19.4686 1441.44 26.6793 Q1441.44 31.7024 1438.56 35.1862 Q1435.68 38.6294 1430.38 39.9662 Z" fill="#000000" fill-rule="evenodd" fill-opacity="1" /><path clip-path="url(#clip870)" d="M1470.56 12.096 L1477.45 12.096 L1456.38 80.2727 L1449.5 80.2727 L1470.56 12.096 Z" fill="#000000" fill-rule="evenodd" fill-opacity="1" /><path clip-path="url(#clip870)" d="M1484.66 12.096 L1492.88 12.096 L1492.88 48.8377 Q1492.88 58.5599 1496.41 62.8538 Q1499.93 67.1073 1507.83 67.1073 Q1515.69 67.1073 1519.21 62.8538 Q1522.74 58.5599 1522.74 48.8377 L1522.74 12.096 L1530.96 12.096 L1530.96 49.8504 Q1530.96 61.6791 1525.09 67.7149 Q1519.25 73.7508 1507.83 73.7508 Q1496.37 73.7508 1490.49 67.7149 Q1484.66 61.6791 1484.66 49.8504 L1484.66 12.096 Z" fill="#000000" fill-rule="evenodd" fill-opacity="1" /><path clip-path="url(#clip870)" d="M1591.6 16.7545 L1591.6 25.383 Q1587.47 21.5346 1582.77 19.6307 Q1578.11 17.7268 1572.85 17.7268 Q1562.48 17.7268 1556.97 24.0867 Q1551.46 30.4061 1551.46 42.3968 Q1551.46 54.3469 1556.97 60.7069 Q1562.48 67.0263 1572.85 67.0263 Q1578.11 67.0263 1582.77 65.1223 Q1587.47 63.2184 1591.6 59.3701 L1591.6 67.9175 Q1587.31 70.8341 1582.49 72.2924 Q1577.71 73.7508 1572.36 73.7508 Q1558.63 73.7508 1550.73 65.3654 Q1542.83 56.9395 1542.83 42.3968 Q1542.83 27.8135 1550.73 19.4281 Q1558.63 11.0023 1572.36 11.0023 Q1577.79 11.0023 1582.57 12.4606 Q1587.39 13.8784 1591.6 16.7545 Z" fill="#000000" fill-rule="evenodd" fill-opacity="1" /><path clip-path="url(#clip870)" d="M1601.32 12.096 L1610.12 12.096 L1625.14 34.5785 L1640.25 12.096 L1649.04 12.096 L1629.6 41.141 L1650.34 72.576 L1641.55 72.576 L1624.54 46.8528 L1607.4 72.576 L1598.57 72.576 L1620.16 40.2903 L1601.32 12.096 Z" fill="#000000" fill-rule="evenodd" fill-opacity="1" /><polyline clip-path="url(#clip872)" style="stroke:#0000ff; stroke-linecap:butt; stroke-linejoin:round; stroke-width:4; stroke-opacity:1; fill:none" points="
  310.845,992.152 400.956,992.152 491.067,992.152 581.178,992.152 671.288,994.976 761.399,994.265 851.51,988.02 941.621,948.148 1031.73,943.63 1121.84,935.943 
  1211.95,922.154 1302.06,902.066 1392.17,884.83 1482.29,854.615 1572.4,824 1662.51,773.328 1752.62,710.229 1842.73,631.33 1932.84,547.4 2022.95,461.476 
  2113.06,370.068 2203.17,275.877 2293.28,180.038 
  "/>
<circle clip-path="url(#clip872)" cx="310.845" cy="992.152" r="14" fill="#0000ff" fill-rule="evenodd" fill-opacity="1" stroke="#000000" stroke-opacity="1" stroke-width="3.2"/>
<circle clip-path="url(#clip872)" cx="400.956" cy="992.152" r="14" fill="#0000ff" fill-rule="evenodd" fill-opacity="1" stroke="#000000" stroke-opacity="1" stroke-width="3.2"/>
<circle clip-path="url(#clip872)" cx="491.067" cy="992.152" r="14" fill="#0000ff" fill-rule="evenodd" fill-opacity="1" stroke="#000000" stroke-opacity="1" stroke-width="3.2"/>
<circle clip-path="url(#clip872)" cx="581.178" cy="992.152" r="14" fill="#0000ff" fill-rule="evenodd" fill-opacity="1" stroke="#000000" stroke-opacity="1" stroke-width="3.2"/>
<circle clip-path="url(#clip872)" cx="671.288" cy="994.976" r="14" fill="#0000ff" fill-rule="evenodd" fill-opacity="1" stroke="#000000" stroke-opacity="1" stroke-width="3.2"/>
<circle clip-path="url(#clip872)" cx="761.399" cy="994.265" r="14" fill="#0000ff" fill-rule="evenodd" fill-opacity="1" stroke="#000000" stroke-opacity="1" stroke-width="3.2"/>
<circle clip-path="url(#clip872)" cx="851.51" cy="988.02" r="14" fill="#0000ff" fill-rule="evenodd" fill-opacity="1" stroke="#000000" stroke-opacity="1" stroke-width="3.2"/>
<circle clip-path="url(#clip872)" cx="941.621" cy="948.148" r="14" fill="#0000ff" fill-rule="evenodd" fill-opacity="1" stroke="#000000" stroke-opacity="1" stroke-width="3.2"/>
<circle clip-path="url(#clip872)" cx="1031.73" cy="943.63" r="14" fill="#0000ff" fill-rule="evenodd" fill-opacity="1" stroke="#000000" stroke-opacity="1" stroke-width="3.2"/>
<circle clip-path="url(#clip872)" cx="1121.84" cy="935.943" r="14" fill="#0000ff" fill-rule="evenodd" fill-opacity="1" stroke="#000000" stroke-opacity="1" stroke-width="3.2"/>
<circle clip-path="url(#clip872)" cx="1211.95" cy="922.154" r="14" fill="#0000ff" fill-rule="evenodd" fill-opacity="1" stroke="#000000" stroke-opacity="1" stroke-width="3.2"/>
<circle clip-path="url(#clip872)" cx="1302.06" cy="902.066" r="14" fill="#0000ff" fill-rule="evenodd" fill-opacity="1" stroke="#000000" stroke-opacity="1" stroke-width="3.2"/>
<circle clip-path="url(#clip872)" cx="1392.17" cy="884.83" r="14" fill="#0000ff" fill-rule="evenodd" fill-opacity="1" stroke="#000000" stroke-opacity="1" stroke-width="3.2"/>
<circle clip-path="url(#clip872)" cx="1482.29" cy="854.615" r="14" fill="#0000ff" fill-rule="evenodd" fill-opacity="1" stroke="#000000" stroke-opacity="1" stroke-width="3.2"/>
<circle clip-path="url(#clip872)" cx="1572.4" cy="824" r="14" fill="#0000ff" fill-rule="evenodd" fill-opacity="1" stroke="#000000" stroke-opacity="1" stroke-width="3.2"/>
<circle clip-path="url(#clip872)" cx="1662.51" cy="773.328" r="14" fill="#0000ff" fill-rule="evenodd" fill-opacity="1" stroke="#000000" stroke-opacity="1" stroke-width="3.2"/>
<circle clip-path="url(#clip872)" cx="1752.62" cy="710.229" r="14" fill="#0000ff" fill-rule="evenodd" fill-opacity="1" stroke="#000000" stroke-opacity="1" stroke-width="3.2"/>
<circle clip-path="url(#clip872)" cx="1842.73" cy="631.33" r="14" fill="#0000ff" fill-rule="evenodd" fill-opacity="1" stroke="#000000" stroke-opacity="1" stroke-width="3.2"/>
<circle clip-path="url(#clip872)" cx="1932.84" cy="547.4" r="14" fill="#0000ff" fill-rule="evenodd" fill-opacity="1" stroke="#000000" stroke-opacity="1" stroke-width="3.2"/>
<circle clip-path="url(#clip872)" cx="2022.95" cy="461.476" r="14" fill="#0000ff" fill-rule="evenodd" fill-opacity="1" stroke="#000000" stroke-opacity="1" stroke-width="3.2"/>
<circle clip-path="url(#clip872)" cx="2113.06" cy="370.068" r="14" fill="#0000ff" fill-rule="evenodd" fill-opacity="1" stroke="#000000" stroke-opacity="1" stroke-width="3.2"/>
<circle clip-path="url(#clip872)" cx="2203.17" cy="275.877" r="14" fill="#0000ff" fill-rule="evenodd" fill-opacity="1" stroke="#000000" stroke-opacity="1" stroke-width="3.2"/>
<circle clip-path="url(#clip872)" cx="2293.28" cy="180.038" r="14" fill="#0000ff" fill-rule="evenodd" fill-opacity="1" stroke="#000000" stroke-opacity="1" stroke-width="3.2"/>
<polyline clip-path="url(#clip872)" style="stroke:#ff0000; stroke-linecap:butt; stroke-linejoin:round; stroke-width:4; stroke-opacity:1; fill:none" points="
  310.845,1096.21 400.956,1096.21 491.067,1096.21 581.178,1096.21 671.288,1096.21 761.399,1089.04 851.51,1071.96 941.621,1068.29 1031.73,1019.04 1121.84,1011.62 
  1211.95,996.41 1302.06,971.406 1392.17,939.734 1482.29,911.946 1572.4,854.615 1662.51,810.792 1752.62,765.655 1842.73,702.451 1932.84,629.7 2022.95,545.985 
  2113.06,454.618 2203.17,363.043 2293.28,268.356 
  "/>
<circle clip-path="url(#clip872)" cx="310.845" cy="1096.21" r="14" fill="#ff0000" fill-rule="evenodd" fill-opacity="1" stroke="#000000" stroke-opacity="1" stroke-width="3.2"/>
<circle clip-path="url(#clip872)" cx="400.956" cy="1096.21" r="14" fill="#ff0000" fill-rule="evenodd" fill-opacity="1" stroke="#000000" stroke-opacity="1" stroke-width="3.2"/>
<circle clip-path="url(#clip872)" cx="491.067" cy="1096.21" r="14" fill="#ff0000" fill-rule="evenodd" fill-opacity="1" stroke="#000000" stroke-opacity="1" stroke-width="3.2"/>
<circle clip-path="url(#clip872)" cx="581.178" cy="1096.21" r="14" fill="#ff0000" fill-rule="evenodd" fill-opacity="1" stroke="#000000" stroke-opacity="1" stroke-width="3.2"/>
<circle clip-path="url(#clip872)" cx="671.288" cy="1096.21" r="14" fill="#ff0000" fill-rule="evenodd" fill-opacity="1" stroke="#000000" stroke-opacity="1" stroke-width="3.2"/>
<circle clip-path="url(#clip872)" cx="761.399" cy="1089.04" r="14" fill="#ff0000" fill-rule="evenodd" fill-opacity="1" stroke="#000000" stroke-opacity="1" stroke-width="3.2"/>
<circle clip-path="url(#clip872)" cx="851.51" cy="1071.96" r="14" fill="#ff0000" fill-rule="evenodd" fill-opacity="1" stroke="#000000" stroke-opacity="1" stroke-width="3.2"/>
<circle clip-path="url(#clip872)" cx="941.621" cy="1068.29" r="14" fill="#ff0000" fill-rule="evenodd" fill-opacity="1" stroke="#000000" stroke-opacity="1" stroke-width="3.2"/>
<circle clip-path="url(#clip872)" cx="1031.73" cy="1019.04" r="14" fill="#ff0000" fill-rule="evenodd" fill-opacity="1" stroke="#000000" stroke-opacity="1" stroke-width="3.2"/>
<circle clip-path="url(#clip872)" cx="1121.84" cy="1011.62" r="14" fill="#ff0000" fill-rule="evenodd" fill-opacity="1" stroke="#000000" stroke-opacity="1" stroke-width="3.2"/>
<circle clip-path="url(#clip872)" cx="1211.95" cy="996.41" r="14" fill="#ff0000" fill-rule="evenodd" fill-opacity="1" stroke="#000000" stroke-opacity="1" stroke-width="3.2"/>
<circle clip-path="url(#clip872)" cx="1302.06" cy="971.406" r="14" fill="#ff0000" fill-rule="evenodd" fill-opacity="1" stroke="#000000" stroke-opacity="1" stroke-width="3.2"/>
<circle clip-path="url(#clip872)" cx="1392.17" cy="939.734" r="14" fill="#ff0000" fill-rule="evenodd" fill-opacity="1" stroke="#000000" stroke-opacity="1" stroke-width="3.2"/>
<circle clip-path="url(#clip872)" cx="1482.29" cy="911.946" r="14" fill="#ff0000" fill-rule="evenodd" fill-opacity="1" stroke="#000000" stroke-opacity="1" stroke-width="3.2"/>
<circle clip-path="url(#clip872)" cx="1572.4" cy="854.615" r="14" fill="#ff0000" fill-rule="evenodd" fill-opacity="1" stroke="#000000" stroke-opacity="1" stroke-width="3.2"/>
<circle clip-path="url(#clip872)" cx="1662.51" cy="810.792" r="14" fill="#ff0000" fill-rule="evenodd" fill-opacity="1" stroke="#000000" stroke-opacity="1" stroke-width="3.2"/>
<circle clip-path="url(#clip872)" cx="1752.62" cy="765.655" r="14" fill="#ff0000" fill-rule="evenodd" fill-opacity="1" stroke="#000000" stroke-opacity="1" stroke-width="3.2"/>
<circle clip-path="url(#clip872)" cx="1842.73" cy="702.451" r="14" fill="#ff0000" fill-rule="evenodd" fill-opacity="1" stroke="#000000" stroke-opacity="1" stroke-width="3.2"/>
<circle clip-path="url(#clip872)" cx="1932.84" cy="629.7" r="14" fill="#ff0000" fill-rule="evenodd" fill-opacity="1" stroke="#000000" stroke-opacity="1" stroke-width="3.2"/>
<circle clip-path="url(#clip872)" cx="2022.95" cy="545.985" r="14" fill="#ff0000" fill-rule="evenodd" fill-opacity="1" stroke="#000000" stroke-opacity="1" stroke-width="3.2"/>
<circle clip-path="url(#clip872)" cx="2113.06" cy="454.618" r="14" fill="#ff0000" fill-rule="evenodd" fill-opacity="1" stroke="#000000" stroke-opacity="1" stroke-width="3.2"/>
<circle clip-path="url(#clip872)" cx="2203.17" cy="363.043" r="14" fill="#ff0000" fill-rule="evenodd" fill-opacity="1" stroke="#000000" stroke-opacity="1" stroke-width="3.2"/>
<circle clip-path="url(#clip872)" cx="2293.28" cy="268.356" r="14" fill="#ff0000" fill-rule="evenodd" fill-opacity="1" stroke="#000000" stroke-opacity="1" stroke-width="3.2"/>
<path clip-path="url(#clip870)" d="
M321.418 321.906 L1015.85 321.906 L1015.85 166.386 L321.418 166.386  Z
  " fill="#ffffff" fill-rule="evenodd" fill-opacity="1"/>
<polyline clip-path="url(#clip870)" style="stroke:#000000; stroke-linecap:butt; stroke-linejoin:round; stroke-width:4; stroke-opacity:1; fill:none" points="
  321.418,321.906 1015.85,321.906 1015.85,166.386 321.418,166.386 321.418,321.906 
  "/>
<polyline clip-path="url(#clip870)" style="stroke:#0000ff; stroke-linecap:butt; stroke-linejoin:round; stroke-width:4; stroke-opacity:1; fill:none" points="
  344.767,218.226 484.859,218.226 
  "/>
<path clip-path="url(#clip870)" d="M508.208 200.946 L528.069 200.946 L528.069 204.881 L512.884 204.881 L512.884 215.067 L526.587 215.067 L526.587 219.002 L512.884 219.002 L512.884 235.506 L508.208 235.506 L508.208 200.946 Z" fill="#000000" fill-rule="evenodd" fill-opacity="1" /><path clip-path="url(#clip870)" d="M540.152 204.789 L540.152 231.664 L545.8 231.664 Q552.953 231.664 556.263 228.423 Q559.597 225.182 559.597 218.192 Q559.597 211.247 556.263 208.03 Q552.953 204.789 545.8 204.789 L540.152 204.789 M535.476 200.946 L545.083 200.946 Q555.129 200.946 559.828 205.136 Q564.527 209.303 564.527 218.192 Q564.527 227.127 559.805 231.316 Q555.083 235.506 545.083 235.506 L535.476 235.506 L535.476 200.946 Z" fill="#000000" fill-rule="evenodd" fill-opacity="1" /><path clip-path="url(#clip870)" d="M588.37 219.303 Q589.874 219.812 591.286 221.479 Q592.721 223.145 594.157 226.062 L598.902 235.506 L593.879 235.506 L589.458 226.641 Q587.745 223.168 586.124 222.034 Q584.527 220.9 581.749 220.9 L576.657 220.9 L576.657 235.506 L571.981 235.506 L571.981 200.946 L582.536 200.946 Q588.462 200.946 591.379 203.423 Q594.295 205.9 594.295 210.9 Q594.295 214.164 592.768 216.317 Q591.263 218.469 588.37 219.303 M576.657 204.789 L576.657 217.057 L582.536 217.057 Q585.916 217.057 587.629 215.506 Q589.365 213.932 589.365 210.9 Q589.365 207.868 587.629 206.34 Q585.916 204.789 582.536 204.789 L576.657 204.789 Z" fill="#000000" fill-rule="evenodd" fill-opacity="1" /><path clip-path="url(#clip870)" d="M630.036 199.534 Q626.934 204.858 625.43 210.067 Q623.925 215.275 623.925 220.622 Q623.925 225.969 625.43 231.224 Q626.957 236.455 630.036 241.756 L626.332 241.756 Q622.86 236.316 621.124 231.062 Q619.411 225.807 619.411 220.622 Q619.411 215.46 621.124 210.229 Q622.837 204.997 626.332 199.534 L630.036 199.534 Z" fill="#000000" fill-rule="evenodd" fill-opacity="1" /><path clip-path="url(#clip870)" d="M638.485 200.946 L643.161 200.946 L643.161 235.506 L638.485 235.506 L638.485 200.946 Z" fill="#000000" fill-rule="evenodd" fill-opacity="1" /><path clip-path="url(#clip870)" d="M657.142 219.002 L657.142 231.664 L664.642 231.664 Q668.415 231.664 670.221 230.113 Q672.05 228.539 672.05 225.321 Q672.05 222.08 670.221 220.553 Q668.415 219.002 664.642 219.002 L657.142 219.002 M657.142 204.789 L657.142 215.205 L664.064 215.205 Q667.49 215.205 669.156 213.932 Q670.846 212.636 670.846 209.997 Q670.846 207.381 669.156 206.085 Q667.49 204.789 664.064 204.789 L657.142 204.789 M652.466 200.946 L664.411 200.946 Q669.758 200.946 672.652 203.168 Q675.545 205.391 675.545 209.488 Q675.545 212.659 674.064 214.534 Q672.582 216.409 669.712 216.872 Q673.161 217.613 675.059 219.974 Q676.98 222.312 676.98 225.83 Q676.98 230.46 673.832 232.983 Q670.684 235.506 664.874 235.506 L652.466 235.506 L652.466 200.946 Z" fill="#000000" fill-rule="evenodd" fill-opacity="1" /><path clip-path="url(#clip870)" d="M714.897 213.562 Q714.179 213.145 713.323 212.96 Q712.489 212.752 711.471 212.752 Q707.86 212.752 705.915 215.113 Q703.994 217.451 703.994 221.849 L703.994 235.506 L699.712 235.506 L699.712 209.58 L703.994 209.58 L703.994 213.608 Q705.337 211.247 707.489 210.113 Q709.642 208.955 712.721 208.955 Q713.161 208.955 713.693 209.025 Q714.225 209.071 714.874 209.187 L714.897 213.562 Z" fill="#000000" fill-rule="evenodd" fill-opacity="1" /><path clip-path="url(#clip870)" d="M731.147 222.474 Q725.985 222.474 723.994 223.654 Q722.003 224.835 722.003 227.682 Q722.003 229.951 723.485 231.293 Q724.989 232.613 727.559 232.613 Q731.1 232.613 733.23 230.113 Q735.383 227.59 735.383 223.423 L735.383 222.474 L731.147 222.474 M739.642 220.715 L739.642 235.506 L735.383 235.506 L735.383 231.571 Q733.924 233.932 731.748 235.066 Q729.573 236.178 726.424 236.178 Q722.443 236.178 720.082 233.955 Q717.744 231.71 717.744 227.96 Q717.744 223.585 720.661 221.363 Q723.6 219.141 729.41 219.141 L735.383 219.141 L735.383 218.724 Q735.383 215.784 733.438 214.187 Q731.517 212.567 728.022 212.567 Q725.799 212.567 723.693 213.099 Q721.586 213.631 719.642 214.696 L719.642 210.761 Q721.98 209.858 724.179 209.418 Q726.378 208.955 728.461 208.955 Q734.086 208.955 736.864 211.872 Q739.642 214.789 739.642 220.715 Z" fill="#000000" fill-rule="evenodd" fill-opacity="1" /><path clip-path="url(#clip870)" d="M752.628 202.219 L752.628 209.58 L761.401 209.58 L761.401 212.891 L752.628 212.891 L752.628 226.965 Q752.628 230.136 753.484 231.039 Q754.364 231.941 757.026 231.941 L761.401 231.941 L761.401 235.506 L757.026 235.506 Q752.096 235.506 750.221 233.678 Q748.346 231.826 748.346 226.965 L748.346 212.891 L745.221 212.891 L745.221 209.58 L748.346 209.58 L748.346 202.219 L752.628 202.219 Z" fill="#000000" fill-rule="evenodd" fill-opacity="1" /><path clip-path="url(#clip870)" d="M789.179 221.479 L789.179 223.562 L769.595 223.562 Q769.873 227.96 772.234 230.275 Q774.619 232.566 778.855 232.566 Q781.308 232.566 783.6 231.965 Q785.915 231.363 788.183 230.159 L788.183 234.187 Q785.892 235.159 783.484 235.668 Q781.077 236.178 778.6 236.178 Q772.396 236.178 768.762 232.566 Q765.151 228.955 765.151 222.798 Q765.151 216.432 768.577 212.705 Q772.026 208.955 777.859 208.955 Q783.091 208.955 786.123 212.335 Q789.179 215.692 789.179 221.479 M784.919 220.229 Q784.873 216.733 782.952 214.65 Q781.054 212.567 777.906 212.567 Q774.341 212.567 772.188 214.58 Q770.058 216.594 769.734 220.252 L784.919 220.229 Z" fill="#000000" fill-rule="evenodd" fill-opacity="1" /><path clip-path="url(#clip870)" d="M811.794 213.979 L841.47 213.979 L841.47 217.867 L811.794 217.867 L811.794 213.979 M811.794 223.423 L841.47 223.423 L841.47 227.358 L811.794 227.358 L811.794 223.423 Z" fill="#000000" fill-rule="evenodd" fill-opacity="1" /><path clip-path="url(#clip870)" d="M866.678 200.946 L885.035 200.946 L885.035 204.881 L870.961 204.881 L870.961 213.354 Q871.979 213.006 872.998 212.844 Q874.016 212.659 875.035 212.659 Q880.822 212.659 884.201 215.83 Q887.581 219.002 887.581 224.418 Q887.581 229.997 884.109 233.099 Q880.637 236.178 874.317 236.178 Q872.141 236.178 869.873 235.807 Q867.627 235.437 865.22 234.696 L865.22 229.997 Q867.303 231.131 869.525 231.687 Q871.748 232.242 874.225 232.242 Q878.229 232.242 880.567 230.136 Q882.905 228.029 882.905 224.418 Q882.905 220.807 880.567 218.701 Q878.229 216.594 874.225 216.594 Q872.35 216.594 870.475 217.011 Q868.623 217.428 866.678 218.307 L866.678 200.946 Z" fill="#000000" fill-rule="evenodd" fill-opacity="1" /><path clip-path="url(#clip870)" d="M907.372 216.363 Q904.224 216.363 902.373 218.516 Q900.544 220.668 900.544 224.418 Q900.544 228.145 902.373 230.321 Q904.224 232.474 907.372 232.474 Q910.521 232.474 912.349 230.321 Q914.201 228.145 914.201 224.418 Q914.201 220.668 912.349 218.516 Q910.521 216.363 907.372 216.363 M916.655 201.71 L916.655 205.969 Q914.896 205.136 913.09 204.696 Q911.308 204.256 909.548 204.256 Q904.919 204.256 902.465 207.381 Q900.035 210.506 899.687 216.826 Q901.053 214.812 903.113 213.747 Q905.173 212.659 907.65 212.659 Q912.859 212.659 915.868 215.83 Q918.9 218.979 918.9 224.418 Q918.9 229.742 915.752 232.96 Q912.604 236.178 907.372 236.178 Q901.377 236.178 898.206 231.594 Q895.035 226.988 895.035 218.261 Q895.035 210.067 898.923 205.206 Q902.812 200.321 909.363 200.321 Q911.122 200.321 912.905 200.669 Q914.71 201.016 916.655 201.71 Z" fill="#000000" fill-rule="evenodd" fill-opacity="1" /><path clip-path="url(#clip870)" d="M925.683 199.534 L929.386 199.534 Q932.858 204.997 934.571 210.229 Q936.308 215.46 936.308 220.622 Q936.308 225.807 934.571 231.062 Q932.858 236.316 929.386 241.756 L925.683 241.756 Q928.761 236.455 930.266 231.224 Q931.794 225.969 931.794 220.622 Q931.794 215.275 930.266 210.067 Q928.761 204.858 925.683 199.534 Z" fill="#000000" fill-rule="evenodd" fill-opacity="1" /><polyline clip-path="url(#clip870)" style="stroke:#ff0000; stroke-linecap:butt; stroke-linejoin:round; stroke-width:4; stroke-opacity:1; fill:none" points="
  344.767,270.066 484.859,270.066 
  "/>
<path clip-path="url(#clip870)" d="M508.208 252.786 L530.06 252.786 L530.06 256.721 L512.884 256.721 L512.884 266.953 L529.342 266.953 L529.342 270.888 L512.884 270.888 L512.884 283.411 L530.476 283.411 L530.476 287.346 L508.208 287.346 L508.208 252.786 Z" fill="#000000" fill-rule="evenodd" fill-opacity="1" /><path clip-path="url(#clip870)" d="M542.837 256.629 L542.837 283.504 L548.486 283.504 Q555.638 283.504 558.948 280.263 Q562.282 277.022 562.282 270.032 Q562.282 263.087 558.948 259.87 Q555.638 256.629 548.486 256.629 L542.837 256.629 M538.162 252.786 L547.768 252.786 Q557.814 252.786 562.513 256.976 Q567.212 261.143 567.212 270.032 Q567.212 278.967 562.49 283.156 Q557.768 287.346 547.768 287.346 L538.162 287.346 L538.162 252.786 Z" fill="#000000" fill-rule="evenodd" fill-opacity="1" /><path clip-path="url(#clip870)" d="M591.055 271.143 Q592.559 271.652 593.971 273.319 Q595.407 274.985 596.842 277.902 L601.587 287.346 L596.564 287.346 L592.143 278.481 Q590.43 275.008 588.809 273.874 Q587.212 272.74 584.434 272.74 L579.342 272.74 L579.342 287.346 L574.666 287.346 L574.666 252.786 L585.221 252.786 Q591.147 252.786 594.064 255.263 Q596.981 257.74 596.981 262.74 Q596.981 266.004 595.453 268.157 Q593.948 270.309 591.055 271.143 M579.342 256.629 L579.342 268.897 L585.221 268.897 Q588.601 268.897 590.314 267.346 Q592.05 265.772 592.05 262.74 Q592.05 259.708 590.314 258.18 Q588.601 256.629 585.221 256.629 L579.342 256.629 Z" fill="#000000" fill-rule="evenodd" fill-opacity="1" /><path clip-path="url(#clip870)" d="M632.721 251.374 Q629.619 256.698 628.115 261.907 Q626.61 267.115 626.61 272.462 Q626.61 277.809 628.115 283.064 Q629.642 288.295 632.721 293.596 L629.018 293.596 Q625.545 288.156 623.809 282.902 Q622.096 277.647 622.096 272.462 Q622.096 267.3 623.809 262.069 Q625.522 256.837 629.018 251.374 L632.721 251.374 Z" fill="#000000" fill-rule="evenodd" fill-opacity="1" /><path clip-path="url(#clip870)" d="M641.17 252.786 L645.846 252.786 L645.846 287.346 L641.17 287.346 L641.17 252.786 Z" fill="#000000" fill-rule="evenodd" fill-opacity="1" /><path clip-path="url(#clip870)" d="M659.828 270.842 L659.828 283.504 L667.327 283.504 Q671.101 283.504 672.906 281.953 Q674.735 280.379 674.735 277.161 Q674.735 273.92 672.906 272.393 Q671.101 270.842 667.327 270.842 L659.828 270.842 M659.828 256.629 L659.828 267.045 L666.749 267.045 Q670.175 267.045 671.841 265.772 Q673.531 264.476 673.531 261.837 Q673.531 259.221 671.841 257.925 Q670.175 256.629 666.749 256.629 L659.828 256.629 M655.152 252.786 L667.096 252.786 Q672.443 252.786 675.337 255.008 Q678.23 257.231 678.23 261.328 Q678.23 264.499 676.749 266.374 Q675.267 268.249 672.397 268.712 Q675.846 269.453 677.744 271.814 Q679.665 274.152 679.665 277.67 Q679.665 282.3 676.517 284.823 Q673.369 287.346 667.559 287.346 L655.152 287.346 L655.152 252.786 Z" fill="#000000" fill-rule="evenodd" fill-opacity="1" /><path clip-path="url(#clip870)" d="M717.582 265.402 Q716.864 264.985 716.008 264.8 Q715.174 264.592 714.156 264.592 Q710.545 264.592 708.6 266.953 Q706.679 269.291 706.679 273.689 L706.679 287.346 L702.397 287.346 L702.397 261.42 L706.679 261.42 L706.679 265.448 Q708.022 263.087 710.174 261.953 Q712.327 260.795 715.406 260.795 Q715.846 260.795 716.378 260.865 Q716.911 260.911 717.559 261.027 L717.582 265.402 Z" fill="#000000" fill-rule="evenodd" fill-opacity="1" /><path clip-path="url(#clip870)" d="M733.832 274.314 Q728.67 274.314 726.679 275.494 Q724.688 276.675 724.688 279.522 Q724.688 281.791 726.17 283.133 Q727.674 284.453 730.244 284.453 Q733.785 284.453 735.915 281.953 Q738.068 279.43 738.068 275.263 L738.068 274.314 L733.832 274.314 M742.327 272.555 L742.327 287.346 L738.068 287.346 L738.068 283.411 Q736.61 285.772 734.434 286.906 Q732.258 288.018 729.11 288.018 Q725.128 288.018 722.767 285.795 Q720.429 283.55 720.429 279.8 Q720.429 275.425 723.346 273.203 Q726.285 270.981 732.096 270.981 L738.068 270.981 L738.068 270.564 Q738.068 267.624 736.123 266.027 Q734.202 264.407 730.707 264.407 Q728.485 264.407 726.378 264.939 Q724.272 265.471 722.327 266.536 L722.327 262.601 Q724.665 261.698 726.864 261.258 Q729.063 260.795 731.147 260.795 Q736.772 260.795 739.549 263.712 Q742.327 266.629 742.327 272.555 Z" fill="#000000" fill-rule="evenodd" fill-opacity="1" /><path clip-path="url(#clip870)" d="M755.313 254.059 L755.313 261.42 L764.086 261.42 L764.086 264.731 L755.313 264.731 L755.313 278.805 Q755.313 281.976 756.17 282.879 Q757.049 283.781 759.711 283.781 L764.086 283.781 L764.086 287.346 L759.711 287.346 Q754.781 287.346 752.906 285.518 Q751.031 283.666 751.031 278.805 L751.031 264.731 L747.906 264.731 L747.906 261.42 L751.031 261.42 L751.031 254.059 L755.313 254.059 Z" fill="#000000" fill-rule="evenodd" fill-opacity="1" /><path clip-path="url(#clip870)" d="M791.864 273.319 L791.864 275.402 L772.281 275.402 Q772.558 279.8 774.919 282.115 Q777.304 284.406 781.54 284.406 Q783.994 284.406 786.285 283.805 Q788.6 283.203 790.868 281.999 L790.868 286.027 Q788.577 286.999 786.169 287.508 Q783.762 288.018 781.285 288.018 Q775.082 288.018 771.447 284.406 Q767.836 280.795 767.836 274.638 Q767.836 268.272 771.262 264.545 Q774.711 260.795 780.544 260.795 Q785.776 260.795 788.808 264.175 Q791.864 267.532 791.864 273.319 M787.605 272.069 Q787.558 268.573 785.637 266.49 Q783.739 264.407 780.591 264.407 Q777.026 264.407 774.873 266.42 Q772.744 268.434 772.42 272.092 L787.605 272.069 Z" fill="#000000" fill-rule="evenodd" fill-opacity="1" /><path clip-path="url(#clip870)" d="M814.479 265.819 L844.155 265.819 L844.155 269.707 L814.479 269.707 L814.479 265.819 M814.479 275.263 L844.155 275.263 L844.155 279.198 L814.479 279.198 L814.479 275.263 Z" fill="#000000" fill-rule="evenodd" fill-opacity="1" /><path clip-path="url(#clip870)" d="M870.127 283.411 L877.766 283.411 L877.766 257.046 L869.456 258.712 L869.456 254.453 L877.72 252.786 L882.396 252.786 L882.396 283.411 L890.035 283.411 L890.035 287.346 L870.127 287.346 L870.127 283.411 Z" fill="#000000" fill-rule="evenodd" fill-opacity="1" /><path clip-path="url(#clip870)" d="M909.479 255.865 Q905.868 255.865 904.039 259.43 Q902.234 262.971 902.234 270.101 Q902.234 277.207 904.039 280.772 Q905.868 284.314 909.479 284.314 Q913.113 284.314 914.919 280.772 Q916.747 277.207 916.747 270.101 Q916.747 262.971 914.919 259.43 Q913.113 255.865 909.479 255.865 M909.479 252.161 Q915.289 252.161 918.345 256.768 Q921.423 261.351 921.423 270.101 Q921.423 278.828 918.345 283.434 Q915.289 288.018 909.479 288.018 Q903.669 288.018 900.59 283.434 Q897.535 278.828 897.535 270.101 Q897.535 261.351 900.59 256.768 Q903.669 252.161 909.479 252.161 Z" fill="#000000" fill-rule="evenodd" fill-opacity="1" /><path clip-path="url(#clip870)" d="M939.641 255.865 Q936.03 255.865 934.201 259.43 Q932.396 262.971 932.396 270.101 Q932.396 277.207 934.201 280.772 Q936.03 284.314 939.641 284.314 Q943.275 284.314 945.081 280.772 Q946.909 277.207 946.909 270.101 Q946.909 262.971 945.081 259.43 Q943.275 255.865 939.641 255.865 M939.641 252.161 Q945.451 252.161 948.507 256.768 Q951.585 261.351 951.585 270.101 Q951.585 278.828 948.507 283.434 Q945.451 288.018 939.641 288.018 Q933.831 288.018 930.752 283.434 Q927.696 278.828 927.696 270.101 Q927.696 261.351 930.752 256.768 Q933.831 252.161 939.641 252.161 Z" fill="#000000" fill-rule="evenodd" fill-opacity="1" /><path clip-path="url(#clip870)" d="M958.53 251.374 L962.233 251.374 Q965.706 256.837 967.418 262.069 Q969.155 267.3 969.155 272.462 Q969.155 277.647 967.418 282.902 Q965.706 288.156 962.233 293.596 L958.53 293.596 Q961.608 288.295 963.113 283.064 Q964.641 277.809 964.641 272.462 Q964.641 267.115 963.113 261.907 Q961.608 256.698 958.53 251.374 Z" fill="#000000" fill-rule="evenodd" fill-opacity="1" /></svg>
