<?xml version="1.0" encoding="utf-8"?>
<svg xmlns="http://www.w3.org/2000/svg" xmlns:xlink="http://www.w3.org/1999/xlink" width="600" height="400" viewBox="0 0 2400 1600">
<defs>
  <clipPath id="clip580">
    <rect x="0" y="0" width="2400" height="1600"/>
  </clipPath>
</defs>
<path clip-path="url(#clip580)" d="
M0 1600 L2400 1600 L2400 0 L0 0  Z
  " fill="#ffffff" fill-rule="evenodd" fill-opacity="1"/>
<defs>
  <clipPath id="clip581">
    <rect x="480" y="0" width="1681" height="1600"/>
  </clipPath>
</defs>
<path clip-path="url(#clip580)" d="
M222.69 1410.9 L2352.76 1410.9 L2352.76 123.472 L222.69 123.472  Z
  " fill="#ffffff" fill-rule="evenodd" fill-opacity="1"/>
<defs>
  <clipPath id="clip582">
    <rect x="222" y="123" width="2131" height="1288"/>
  </clipPath>
</defs>
<polyline clip-path="url(#clip582)" style="stroke:#000000; stroke-linecap:butt; stroke-linejoin:round; stroke-width:2; stroke-opacity:0.1; fill:none" points="
  282.975,1410.9 282.975,123.472 
  "/>
<polyline clip-path="url(#clip582)" style="stroke:#000000; stroke-linecap:butt; stroke-linejoin:round; stroke-width:2; stroke-opacity:0.1; fill:none" points="
  586.403,1410.9 586.403,123.472 
  "/>
<polyline clip-path="url(#clip582)" style="stroke:#000000; stroke-linecap:butt; stroke-linejoin:round; stroke-width:2; stroke-opacity:0.1; fill:none" points="
  889.83,1410.9 889.83,123.472 
  "/>
<polyline clip-path="url(#clip582)" style="stroke:#000000; stroke-linecap:butt; stroke-linejoin:round; stroke-width:2; stroke-opacity:0.1; fill:none" points="
  1193.26,1410.9 1193.26,123.472 
  "/>
<polyline clip-path="url(#clip582)" style="stroke:#000000; stroke-linecap:butt; stroke-linejoin:round; stroke-width:2; stroke-opacity:0.1; fill:none" points="
  1496.68,1410.9 1496.68,123.472 
  "/>
<polyline clip-path="url(#clip582)" style="stroke:#000000; stroke-linecap:butt; stroke-linejoin:round; stroke-width:2; stroke-opacity:0.1; fill:none" points="
  1800.11,1410.9 1800.11,123.472 
  "/>
<polyline clip-path="url(#clip582)" style="stroke:#000000; stroke-linecap:butt; stroke-linejoin:round; stroke-width:2; stroke-opacity:0.1; fill:none" points="
  2103.54,1410.9 2103.54,123.472 
  "/>
<polyline clip-path="url(#clip580)" style="stroke:#000000; stroke-linecap:butt; stroke-linejoin:round; stroke-width:4; stroke-opacity:1; fill:none" points="
  222.69,1410.9 2352.76,1410.9 
  "/>
<polyline clip-path="url(#clip580)" style="stroke:#000000; stroke-linecap:butt; stroke-linejoin:round; stroke-width:4; stroke-opacity:1; fill:none" points="
  282.975,1410.9 282.975,1392 
  "/>
<polyline clip-path="url(#clip580)" style="stroke:#000000; stroke-linecap:butt; stroke-linejoin:round; stroke-width:4; stroke-opacity:1; fill:none" points="
  586.403,1410.9 586.403,1392 
  "/>
<polyline clip-path="url(#clip580)" style="stroke:#000000; stroke-linecap:butt; stroke-linejoin:round; stroke-width:4; stroke-opacity:1; fill:none" points="
  889.83,1410.9 889.83,1392 
  "/>
<polyline clip-path="url(#clip580)" style="stroke:#000000; stroke-linecap:butt; stroke-linejoin:round; stroke-width:4; stroke-opacity:1; fill:none" points="
  1193.26,1410.9 1193.26,1392 
  "/>
<polyline clip-path="url(#clip580)" style="stroke:#000000; stroke-linecap:butt; stroke-linejoin:round; stroke-width:4; stroke-opacity:1; fill:none" points="
  1496.68,1410.9 1496.68,1392 
  "/>
<polyline clip-path="url(#clip580)" style="stroke:#000000; stroke-linecap:butt; stroke-linejoin:round; stroke-width:4; stroke-opacity:1; fill:none" points="
  1800.11,1410.9 1800.11,1392 
  "/>
<polyline clip-path="url(#clip580)" style="stroke:#000000; stroke-linecap:butt; stroke-linejoin:round; stroke-width:4; stroke-opacity:1; fill:none" points="
  2103.54,1410.9 2103.54,1392 
  "/>
<path clip-path="url(#clip580)" d="M247.958 1485.02 L255.597 1485.02 L255.597 1458.66 L247.287 1460.32 L247.287 1456.06 L255.551 1454.4 L260.226 1454.4 L260.226 1485.02 L267.865 1485.02 L267.865 1488.96 L247.958 1488.96 L247.958 1485.02 Z" fill="#000000" fill-rule="evenodd" fill-opacity="1" /><path clip-path="url(#clip580)" d="M287.31 1457.48 Q283.699 1457.48 281.87 1461.04 Q280.064 1464.58 280.064 1471.71 Q280.064 1478.82 281.87 1482.38 Q283.699 1485.92 287.31 1485.92 Q290.944 1485.92 292.749 1482.38 Q294.578 1478.82 294.578 1471.71 Q294.578 1464.58 292.749 1461.04 Q290.944 1457.48 287.31 1457.48 M287.31 1453.77 Q293.12 1453.77 296.175 1458.38 Q299.254 1462.96 299.254 1471.71 Q299.254 1480.44 296.175 1485.04 Q293.12 1489.63 287.31 1489.63 Q281.5 1489.63 278.421 1485.04 Q275.365 1480.44 275.365 1471.71 Q275.365 1462.96 278.421 1458.38 Q281.5 1453.77 287.31 1453.77 Z" fill="#000000" fill-rule="evenodd" fill-opacity="1" /><path clip-path="url(#clip580)" d="M308.959 1435.97 Q306.025 1435.97 304.539 1438.86 Q303.072 1441.74 303.072 1447.53 Q303.072 1453.31 304.539 1456.2 Q306.025 1459.08 308.959 1459.08 Q311.912 1459.08 313.379 1456.2 Q314.864 1453.31 314.864 1447.53 Q314.864 1441.74 313.379 1438.86 Q311.912 1435.97 308.959 1435.97 M308.959 1432.96 Q313.68 1432.96 316.162 1436.7 Q318.664 1440.43 318.664 1447.53 Q318.664 1454.62 316.162 1458.37 Q313.68 1462.09 308.959 1462.09 Q304.238 1462.09 301.737 1458.37 Q299.254 1454.62 299.254 1447.53 Q299.254 1440.43 301.737 1436.7 Q304.238 1432.96 308.959 1432.96 Z" fill="#000000" fill-rule="evenodd" fill-opacity="1" /><path clip-path="url(#clip580)" d="M552.73 1485.02 L560.369 1485.02 L560.369 1458.66 L552.059 1460.32 L552.059 1456.06 L560.323 1454.4 L564.999 1454.4 L564.999 1485.02 L572.637 1485.02 L572.637 1488.96 L552.73 1488.96 L552.73 1485.02 Z" fill="#000000" fill-rule="evenodd" fill-opacity="1" /><path clip-path="url(#clip580)" d="M592.082 1457.48 Q588.471 1457.48 586.642 1461.04 Q584.836 1464.58 584.836 1471.71 Q584.836 1478.82 586.642 1482.38 Q588.471 1485.92 592.082 1485.92 Q595.716 1485.92 597.522 1482.38 Q599.35 1478.82 599.35 1471.71 Q599.35 1464.58 597.522 1461.04 Q595.716 1457.48 592.082 1457.48 M592.082 1453.77 Q597.892 1453.77 600.947 1458.38 Q604.026 1462.96 604.026 1471.71 Q604.026 1480.44 600.947 1485.04 Q597.892 1489.63 592.082 1489.63 Q586.272 1489.63 583.193 1485.04 Q580.137 1480.44 580.137 1471.71 Q580.137 1462.96 583.193 1458.38 Q586.272 1453.77 592.082 1453.77 Z" fill="#000000" fill-rule="evenodd" fill-opacity="1" /><path clip-path="url(#clip580)" d="M604.572 1458.35 L610.778 1458.35 L610.778 1436.93 L604.026 1438.28 L604.026 1434.82 L610.74 1433.47 L614.54 1433.47 L614.54 1458.35 L620.746 1458.35 L620.746 1461.55 L604.572 1461.55 L604.572 1458.35 Z" fill="#000000" fill-rule="evenodd" fill-opacity="1" /><path clip-path="url(#clip580)" d="M855.603 1485.02 L863.241 1485.02 L863.241 1458.66 L854.931 1460.32 L854.931 1456.06 L863.195 1454.4 L867.871 1454.4 L867.871 1485.02 L875.51 1485.02 L875.51 1488.96 L855.603 1488.96 L855.603 1485.02 Z" fill="#000000" fill-rule="evenodd" fill-opacity="1" /><path clip-path="url(#clip580)" d="M894.954 1457.48 Q891.343 1457.48 889.514 1461.04 Q887.709 1464.58 887.709 1471.71 Q887.709 1478.82 889.514 1482.38 Q891.343 1485.92 894.954 1485.92 Q898.588 1485.92 900.394 1482.38 Q902.223 1478.82 902.223 1471.71 Q902.223 1464.58 900.394 1461.04 Q898.588 1457.48 894.954 1457.48 M894.954 1453.77 Q900.764 1453.77 903.82 1458.38 Q906.899 1462.96 906.899 1471.71 Q906.899 1480.44 903.82 1485.04 Q900.764 1489.63 894.954 1489.63 Q889.144 1489.63 886.065 1485.04 Q883.01 1480.44 883.01 1471.71 Q883.01 1462.96 886.065 1458.38 Q889.144 1453.77 894.954 1453.77 Z" fill="#000000" fill-rule="evenodd" fill-opacity="1" /><path clip-path="url(#clip580)" d="M911.469 1458.35 L924.728 1458.35 L924.728 1461.55 L906.899 1461.55 L906.899 1458.35 Q909.061 1456.11 912.785 1452.35 Q916.528 1448.57 917.487 1447.48 Q919.312 1445.43 920.026 1444.02 Q920.76 1442.59 920.76 1441.22 Q920.76 1438.98 919.18 1437.57 Q917.619 1436.16 915.099 1436.16 Q913.312 1436.16 911.318 1436.78 Q909.344 1437.4 907.087 1438.66 L907.087 1434.82 Q909.381 1433.9 911.375 1433.43 Q913.368 1432.96 915.024 1432.96 Q919.387 1432.96 921.982 1435.14 Q924.578 1437.32 924.578 1440.97 Q924.578 1442.7 923.92 1444.26 Q923.28 1445.8 921.569 1447.91 Q921.098 1448.46 918.578 1451.07 Q916.058 1453.67 911.469 1458.35 Z" fill="#000000" fill-rule="evenodd" fill-opacity="1" /><path clip-path="url(#clip580)" d="M1158.7 1485.02 L1166.34 1485.02 L1166.34 1458.66 L1158.03 1460.32 L1158.03 1456.06 L1166.29 1454.4 L1170.97 1454.4 L1170.97 1485.02 L1178.61 1485.02 L1178.61 1488.96 L1158.7 1488.96 L1158.7 1485.02 Z" fill="#000000" fill-rule="evenodd" fill-opacity="1" /><path clip-path="url(#clip580)" d="M1198.05 1457.48 Q1194.44 1457.48 1192.61 1461.04 Q1190.81 1464.58 1190.81 1471.71 Q1190.81 1478.82 1192.61 1482.38 Q1194.44 1485.92 1198.05 1485.92 Q1201.69 1485.92 1203.49 1482.38 Q1205.32 1478.82 1205.32 1471.71 Q1205.32 1464.58 1203.49 1461.04 Q1201.69 1457.48 1198.05 1457.48 M1198.05 1453.77 Q1203.86 1453.77 1206.92 1458.38 Q1210 1462.96 1210 1471.71 Q1210 1480.44 1206.92 1485.04 Q1203.86 1489.63 1198.05 1489.63 Q1192.24 1489.63 1189.16 1485.04 Q1186.11 1480.44 1186.11 1471.71 Q1186.11 1462.96 1189.16 1458.38 Q1192.24 1453.77 1198.05 1453.77 Z" fill="#000000" fill-rule="evenodd" fill-opacity="1" /><path clip-path="url(#clip580)" d="M1222.69 1446.41 Q1225.42 1446.99 1226.94 1448.83 Q1228.48 1450.68 1228.48 1453.38 Q1228.48 1457.54 1225.63 1459.82 Q1222.77 1462.09 1217.5 1462.09 Q1215.73 1462.09 1213.85 1461.73 Q1211.99 1461.4 1210 1460.7 L1210 1457.03 Q1211.58 1457.95 1213.46 1458.42 Q1215.34 1458.89 1217.39 1458.89 Q1220.96 1458.89 1222.82 1457.48 Q1224.7 1456.07 1224.7 1453.38 Q1224.7 1450.9 1222.96 1449.51 Q1221.22 1448.1 1218.12 1448.1 L1214.85 1448.1 L1214.85 1444.98 L1218.27 1444.98 Q1221.07 1444.98 1222.56 1443.87 Q1224.05 1442.74 1224.05 1440.63 Q1224.05 1438.47 1222.5 1437.32 Q1220.98 1436.16 1218.12 1436.16 Q1216.56 1436.16 1214.77 1436.49 Q1212.99 1436.83 1210.84 1437.55 L1210.84 1434.16 Q1213.01 1433.56 1214.89 1433.26 Q1216.79 1432.96 1218.46 1432.96 Q1222.79 1432.96 1225.31 1434.93 Q1227.83 1436.89 1227.83 1440.24 Q1227.83 1442.57 1226.49 1444.19 Q1225.16 1445.79 1222.69 1446.41 Z" fill="#000000" fill-rule="evenodd" fill-opacity="1" /><path clip-path="url(#clip580)" d="M1461.14 1485.02 L1468.78 1485.02 L1468.78 1458.66 L1460.47 1460.32 L1460.47 1456.06 L1468.73 1454.4 L1473.41 1454.4 L1473.41 1485.02 L1481.05 1485.02 L1481.05 1488.96 L1461.14 1488.96 L1461.14 1485.02 Z" fill="#000000" fill-rule="evenodd" fill-opacity="1" /><path clip-path="url(#clip580)" d="M1500.49 1457.48 Q1496.88 1457.48 1495.05 1461.04 Q1493.25 1464.58 1493.25 1471.71 Q1493.25 1478.82 1495.05 1482.38 Q1496.88 1485.92 1500.49 1485.92 Q1504.13 1485.92 1505.93 1482.38 Q1507.76 1478.82 1507.76 1471.71 Q1507.76 1464.58 1505.93 1461.04 Q1504.13 1457.48 1500.49 1457.48 M1500.49 1453.77 Q1506.3 1453.77 1509.36 1458.38 Q1512.44 1462.96 1512.44 1471.71 Q1512.44 1480.44 1509.36 1485.04 Q1506.3 1489.63 1500.49 1489.63 Q1494.68 1489.63 1491.6 1485.04 Q1488.55 1480.44 1488.55 1471.71 Q1488.55 1462.96 1491.6 1458.38 Q1494.68 1453.77 1500.49 1453.77 Z" fill="#000000" fill-rule="evenodd" fill-opacity="1" /><path clip-path="url(#clip580)" d="M1525.11 1436.78 L1515.52 1451.77 L1525.11 1451.77 L1525.11 1436.78 M1524.12 1433.47 L1528.89 1433.47 L1528.89 1451.77 L1532.9 1451.77 L1532.9 1454.93 L1528.89 1454.93 L1528.89 1461.55 L1525.11 1461.55 L1525.11 1454.93 L1512.44 1454.93 L1512.44 1451.26 L1524.12 1433.47 Z" fill="#000000" fill-rule="evenodd" fill-opacity="1" /><path clip-path="url(#clip580)" d="M1765.72 1485.02 L1773.35 1485.02 L1773.35 1458.66 L1765.04 1460.32 L1765.04 1456.06 L1773.31 1454.4 L1777.98 1454.4 L1777.98 1485.02 L1785.62 1485.02 L1785.62 1488.96 L1765.72 1488.96 L1765.72 1485.02 Z" fill="#000000" fill-rule="evenodd" fill-opacity="1" /><path clip-path="url(#clip580)" d="M1805.07 1457.48 Q1801.46 1457.48 1799.63 1461.04 Q1797.82 1464.58 1797.82 1471.71 Q1797.82 1478.82 1799.63 1482.38 Q1801.46 1485.92 1805.07 1485.92 Q1808.7 1485.92 1810.51 1482.38 Q1812.34 1478.82 1812.34 1471.71 Q1812.34 1464.58 1810.51 1461.04 Q1808.7 1457.48 1805.07 1457.48 M1805.07 1453.77 Q1810.88 1453.77 1813.93 1458.38 Q1817.01 1462.96 1817.01 1471.71 Q1817.01 1480.44 1813.93 1485.04 Q1810.88 1489.63 1805.07 1489.63 Q1799.26 1489.63 1796.18 1485.04 Q1793.12 1480.44 1793.12 1471.71 Q1793.12 1462.96 1796.18 1458.38 Q1799.26 1453.77 1805.07 1453.77 Z" fill="#000000" fill-rule="evenodd" fill-opacity="1" /><path clip-path="url(#clip580)" d="M1818.2 1433.47 L1833.11 1433.47 L1833.11 1436.66 L1821.68 1436.66 L1821.68 1443.55 Q1822.5 1443.27 1823.33 1443.13 Q1824.16 1442.98 1824.99 1442.98 Q1829.69 1442.98 1832.43 1445.56 Q1835.18 1448.14 1835.18 1452.54 Q1835.18 1457.07 1832.36 1459.59 Q1829.54 1462.09 1824.4 1462.09 Q1822.63 1462.09 1820.79 1461.79 Q1818.97 1461.49 1817.01 1460.89 L1817.01 1457.07 Q1818.7 1457.99 1820.51 1458.44 Q1822.32 1458.89 1824.33 1458.89 Q1827.58 1458.89 1829.48 1457.18 Q1831.38 1455.47 1831.38 1452.54 Q1831.38 1449.6 1829.48 1447.89 Q1827.58 1446.18 1824.33 1446.18 Q1822.8 1446.18 1821.28 1446.52 Q1819.78 1446.86 1818.2 1447.57 L1818.2 1433.47 Z" fill="#000000" fill-rule="evenodd" fill-opacity="1" /><path clip-path="url(#clip580)" d="M2068.53 1485.02 L2076.17 1485.02 L2076.17 1458.66 L2067.86 1460.32 L2067.86 1456.06 L2076.12 1454.4 L2080.8 1454.4 L2080.8 1485.02 L2088.44 1485.02 L2088.44 1488.96 L2068.53 1488.96 L2068.53 1485.02 Z" fill="#000000" fill-rule="evenodd" fill-opacity="1" /><path clip-path="url(#clip580)" d="M2107.88 1457.48 Q2104.27 1457.48 2102.44 1461.04 Q2100.64 1464.58 2100.64 1471.71 Q2100.64 1478.82 2102.44 1482.38 Q2104.27 1485.92 2107.88 1485.92 Q2111.52 1485.92 2113.32 1482.38 Q2115.15 1478.82 2115.15 1471.71 Q2115.15 1464.58 2113.32 1461.04 Q2111.52 1457.48 2107.88 1457.48 M2107.88 1453.77 Q2113.69 1453.77 2116.75 1458.38 Q2119.83 1462.96 2119.83 1471.71 Q2119.83 1480.44 2116.75 1485.04 Q2113.69 1489.63 2107.88 1489.63 Q2102.07 1489.63 2098.99 1485.04 Q2095.94 1480.44 2095.94 1471.71 Q2095.94 1462.96 2098.99 1458.38 Q2102.07 1453.77 2107.88 1453.77 Z" fill="#000000" fill-rule="evenodd" fill-opacity="1" /><path clip-path="url(#clip580)" d="M2129.85 1445.99 Q2127.29 1445.99 2125.79 1447.74 Q2124.3 1449.49 2124.3 1452.54 Q2124.3 1455.57 2125.79 1457.33 Q2127.29 1459.08 2129.85 1459.08 Q2132.41 1459.08 2133.9 1457.33 Q2135.4 1455.57 2135.4 1452.54 Q2135.4 1449.49 2133.9 1447.74 Q2132.41 1445.99 2129.85 1445.99 M2137.39 1434.09 L2137.39 1437.55 Q2135.96 1436.87 2134.5 1436.51 Q2133.05 1436.16 2131.62 1436.16 Q2127.86 1436.16 2125.86 1438.69 Q2123.89 1441.23 2123.61 1446.37 Q2124.72 1444.73 2126.39 1443.87 Q2128.07 1442.98 2130.08 1442.98 Q2134.31 1442.98 2136.75 1445.56 Q2139.22 1448.12 2139.22 1452.54 Q2139.22 1456.86 2136.66 1459.48 Q2134.1 1462.09 2129.85 1462.09 Q2124.98 1462.09 2122.4 1458.37 Q2119.83 1454.62 2119.83 1447.53 Q2119.83 1440.88 2122.99 1436.93 Q2126.15 1432.96 2131.47 1432.96 Q2132.9 1432.96 2134.35 1433.24 Q2135.81 1433.52 2137.39 1434.09 Z" fill="#000000" fill-rule="evenodd" fill-opacity="1" /><path clip-path="url(#clip580)" d="M1045.78 1543.95 L1045.78 1524.66 L1051.63 1524.66 L1051.63 1574.19 L1045.78 1574.19 L1045.78 1568.84 Q1043.93 1572.02 1041.1 1573.58 Q1038.3 1575.11 1034.35 1575.11 Q1027.89 1575.11 1023.82 1569.95 Q1019.77 1564.8 1019.77 1556.39 Q1019.77 1547.99 1023.82 1542.83 Q1027.89 1537.68 1034.35 1537.68 Q1038.3 1537.68 1041.1 1539.24 Q1043.93 1540.77 1045.78 1543.95 M1025.82 1556.39 Q1025.82 1562.85 1028.46 1566.55 Q1031.14 1570.21 1035.78 1570.21 Q1040.43 1570.21 1043.1 1566.55 Q1045.78 1562.85 1045.78 1556.39 Q1045.78 1549.93 1043.1 1546.27 Q1040.43 1542.58 1035.78 1542.58 Q1031.14 1542.58 1028.46 1546.27 Q1025.82 1549.93 1025.82 1556.39 Z" fill="#000000" fill-rule="evenodd" fill-opacity="1" /><path clip-path="url(#clip580)" d="M1079.9 1556.27 Q1072.8 1556.27 1070.06 1557.89 Q1067.33 1559.51 1067.33 1563.43 Q1067.33 1566.55 1069.36 1568.39 Q1071.43 1570.21 1074.97 1570.21 Q1079.84 1570.21 1082.76 1566.77 Q1085.72 1563.3 1085.72 1557.57 L1085.72 1556.27 L1079.9 1556.27 M1091.58 1553.85 L1091.58 1574.19 L1085.72 1574.19 L1085.72 1568.77 Q1083.72 1572.02 1080.73 1573.58 Q1077.73 1575.11 1073.41 1575.11 Q1067.93 1575.11 1064.68 1572.05 Q1061.47 1568.97 1061.47 1563.81 Q1061.47 1557.79 1065.48 1554.74 Q1069.52 1551.68 1077.51 1551.68 L1085.72 1551.68 L1085.72 1551.11 Q1085.72 1547.07 1083.05 1544.87 Q1080.41 1542.64 1075.6 1542.64 Q1072.55 1542.64 1069.65 1543.38 Q1066.75 1544.11 1064.08 1545.57 L1064.08 1540.16 Q1067.29 1538.92 1070.32 1538.31 Q1073.34 1537.68 1076.21 1537.68 Q1083.94 1537.68 1087.76 1541.69 Q1091.58 1545.7 1091.58 1553.85 Z" fill="#000000" fill-rule="evenodd" fill-opacity="1" /><path clip-path="url(#clip580)" d="M1109.44 1528.42 L1109.44 1538.54 L1121.5 1538.54 L1121.5 1543.09 L1109.44 1543.09 L1109.44 1562.44 Q1109.44 1566.8 1110.61 1568.04 Q1111.82 1569.28 1115.48 1569.28 L1121.5 1569.28 L1121.5 1574.19 L1115.48 1574.19 Q1108.7 1574.19 1106.13 1571.67 Q1103.55 1569.12 1103.55 1562.44 L1103.55 1543.09 L1099.25 1543.09 L1099.25 1538.54 L1103.55 1538.54 L1103.55 1528.42 L1109.44 1528.42 Z" fill="#000000" fill-rule="evenodd" fill-opacity="1" /><path clip-path="url(#clip580)" d="M1145.4 1556.27 Q1138.3 1556.27 1135.57 1557.89 Q1132.83 1559.51 1132.83 1563.43 Q1132.83 1566.55 1134.87 1568.39 Q1136.94 1570.21 1140.47 1570.21 Q1145.34 1570.21 1148.27 1566.77 Q1151.23 1563.3 1151.23 1557.57 L1151.23 1556.27 L1145.4 1556.27 M1157.08 1553.85 L1157.08 1574.19 L1151.23 1574.19 L1151.23 1568.77 Q1149.22 1572.02 1146.23 1573.58 Q1143.24 1575.11 1138.91 1575.11 Q1133.43 1575.11 1130.19 1572.05 Q1126.97 1568.97 1126.97 1563.81 Q1126.97 1557.79 1130.98 1554.74 Q1135.03 1551.68 1143.01 1551.68 L1151.23 1551.68 L1151.23 1551.11 Q1151.23 1547.07 1148.55 1544.87 Q1145.91 1542.64 1141.1 1542.64 Q1138.05 1542.64 1135.15 1543.38 Q1132.26 1544.11 1129.58 1545.57 L1129.58 1540.16 Q1132.8 1538.92 1135.82 1538.31 Q1138.85 1537.68 1141.71 1537.68 Q1149.44 1537.68 1153.26 1541.69 Q1157.08 1545.7 1157.08 1553.85 Z" fill="#000000" fill-rule="evenodd" fill-opacity="1" /><path clip-path="url(#clip580)" d="M1212.59 1539.59 L1212.59 1545.13 Q1210.11 1543.85 1207.44 1543.22 Q1204.76 1542.58 1201.9 1542.58 Q1197.54 1542.58 1195.34 1543.92 Q1193.18 1545.25 1193.18 1547.93 Q1193.18 1549.96 1194.74 1551.14 Q1196.3 1552.29 1201.01 1553.34 L1203.01 1553.78 Q1209.25 1555.12 1211.86 1557.57 Q1214.5 1559.99 1214.5 1564.35 Q1214.5 1569.32 1210.55 1572.21 Q1206.64 1575.11 1199.76 1575.11 Q1196.9 1575.11 1193.78 1574.54 Q1190.69 1573.99 1187.26 1572.88 L1187.26 1566.83 Q1190.5 1568.52 1193.65 1569.38 Q1196.8 1570.21 1199.89 1570.21 Q1204.03 1570.21 1206.26 1568.81 Q1208.49 1567.37 1208.49 1564.8 Q1208.49 1562.41 1206.86 1561.14 Q1205.27 1559.86 1199.83 1558.68 L1197.79 1558.21 Q1192.35 1557.06 1189.93 1554.71 Q1187.51 1552.32 1187.51 1548.18 Q1187.51 1543.15 1191.08 1540.42 Q1194.64 1537.68 1201.2 1537.68 Q1204.44 1537.68 1207.31 1538.16 Q1210.17 1538.63 1212.59 1539.59 Z" fill="#000000" fill-rule="evenodd" fill-opacity="1" /><path clip-path="url(#clip580)" d="M1223.83 1538.54 L1229.68 1538.54 L1229.68 1574.19 L1223.83 1574.19 L1223.83 1538.54 M1223.83 1524.66 L1229.68 1524.66 L1229.68 1532.08 L1223.83 1532.08 L1223.83 1524.66 Z" fill="#000000" fill-rule="evenodd" fill-opacity="1" /><path clip-path="url(#clip580)" d="M1239.39 1538.54 L1267.21 1538.54 L1267.21 1543.88 L1245.18 1569.51 L1267.21 1569.51 L1267.21 1574.19 L1238.6 1574.19 L1238.6 1568.84 L1260.62 1543.22 L1239.39 1543.22 L1239.39 1538.54 Z" fill="#000000" fill-rule="evenodd" fill-opacity="1" /><path clip-path="url(#clip580)" d="M1306.65 1554.9 L1306.65 1557.76 L1279.72 1557.76 Q1280.1 1563.81 1283.35 1566.99 Q1286.63 1570.14 1292.45 1570.14 Q1295.82 1570.14 1298.97 1569.32 Q1302.16 1568.49 1305.28 1566.83 L1305.28 1572.37 Q1302.13 1573.71 1298.82 1574.41 Q1295.51 1575.11 1292.1 1575.11 Q1283.57 1575.11 1278.57 1570.14 Q1273.61 1565.18 1273.61 1556.71 Q1273.61 1547.96 1278.32 1542.83 Q1283.06 1537.68 1291.08 1537.68 Q1298.27 1537.68 1302.44 1542.33 Q1306.65 1546.94 1306.65 1554.9 M1300.79 1553.18 Q1300.73 1548.37 1298.08 1545.51 Q1295.47 1542.64 1291.14 1542.64 Q1286.24 1542.64 1283.28 1545.41 Q1280.35 1548.18 1279.91 1553.21 L1300.79 1553.18 Z" fill="#000000" fill-rule="evenodd" fill-opacity="1" /><path clip-path="url(#clip580)" d="M1351.05 1524.72 Q1346.78 1532.04 1344.71 1539.21 Q1342.64 1546.37 1342.64 1553.72 Q1342.64 1561.07 1344.71 1568.3 Q1346.81 1575.49 1351.05 1582.78 L1345.95 1582.78 Q1341.18 1575.3 1338.79 1568.07 Q1336.44 1560.85 1336.44 1553.72 Q1336.44 1546.62 1338.79 1539.43 Q1341.15 1532.24 1345.95 1524.72 L1351.05 1524.72 Z" fill="#000000" fill-rule="evenodd" fill-opacity="1" /><path clip-path="url(#clip580)" d="M1388 1556.39 Q1388 1549.93 1385.33 1546.27 Q1382.68 1542.58 1378.04 1542.58 Q1373.39 1542.58 1370.72 1546.27 Q1368.07 1549.93 1368.07 1556.39 Q1368.07 1562.85 1370.72 1566.55 Q1373.39 1570.21 1378.04 1570.21 Q1382.68 1570.21 1385.33 1566.55 Q1388 1562.85 1388 1556.39 M1368.07 1543.95 Q1369.92 1540.77 1372.72 1539.24 Q1375.55 1537.68 1379.47 1537.68 Q1385.96 1537.68 1390 1542.83 Q1394.08 1547.99 1394.08 1556.39 Q1394.08 1564.8 1390 1569.95 Q1385.96 1575.11 1379.47 1575.11 Q1375.55 1575.11 1372.72 1573.58 Q1369.92 1572.02 1368.07 1568.84 L1368.07 1574.19 L1362.19 1574.19 L1362.19 1524.66 L1368.07 1524.66 L1368.07 1543.95 Z" fill="#000000" fill-rule="evenodd" fill-opacity="1" /><path clip-path="url(#clip580)" d="M1418.62 1577.5 Q1416.14 1583.86 1413.78 1585.8 Q1411.42 1587.74 1407.48 1587.74 L1402.8 1587.74 L1402.8 1582.84 L1406.24 1582.84 Q1408.66 1582.84 1409.99 1581.7 Q1411.33 1580.55 1412.95 1576.29 L1414 1573.61 L1399.58 1538.54 L1405.79 1538.54 L1416.93 1566.42 L1428.07 1538.54 L1434.28 1538.54 L1418.62 1577.5 Z" fill="#000000" fill-rule="evenodd" fill-opacity="1" /><path clip-path="url(#clip580)" d="M1448.15 1528.42 L1448.15 1538.54 L1460.22 1538.54 L1460.22 1543.09 L1448.15 1543.09 L1448.15 1562.44 Q1448.15 1566.8 1449.33 1568.04 Q1450.54 1569.28 1454.2 1569.28 L1460.22 1569.28 L1460.22 1574.19 L1454.2 1574.19 Q1447.42 1574.19 1444.84 1571.67 Q1442.27 1569.12 1442.27 1562.44 L1442.27 1543.09 L1437.97 1543.09 L1437.97 1538.54 L1442.27 1538.54 L1442.27 1528.42 L1448.15 1528.42 Z" fill="#000000" fill-rule="evenodd" fill-opacity="1" /><path clip-path="url(#clip580)" d="M1498.41 1554.9 L1498.41 1557.76 L1471.49 1557.76 Q1471.87 1563.81 1475.11 1566.99 Q1478.39 1570.14 1484.22 1570.14 Q1487.59 1570.14 1490.74 1569.32 Q1493.92 1568.49 1497.04 1566.83 L1497.04 1572.37 Q1493.89 1573.71 1490.58 1574.41 Q1487.27 1575.11 1483.87 1575.11 Q1475.34 1575.11 1470.34 1570.14 Q1465.37 1565.18 1465.37 1556.71 Q1465.37 1547.96 1470.08 1542.83 Q1474.83 1537.68 1482.85 1537.68 Q1490.04 1537.68 1494.21 1542.33 Q1498.41 1546.94 1498.41 1554.9 M1492.56 1553.18 Q1492.49 1548.37 1489.85 1545.51 Q1487.24 1542.64 1482.91 1542.64 Q1478.01 1542.64 1475.05 1545.41 Q1472.12 1548.18 1471.68 1553.21 L1492.56 1553.18 Z" fill="#000000" fill-rule="evenodd" fill-opacity="1" /><path clip-path="url(#clip580)" d="M1530.75 1539.59 L1530.75 1545.13 Q1528.27 1543.85 1525.59 1543.22 Q1522.92 1542.58 1520.06 1542.58 Q1515.69 1542.58 1513.5 1543.92 Q1511.33 1545.25 1511.33 1547.93 Q1511.33 1549.96 1512.89 1551.14 Q1514.45 1552.29 1519.16 1553.34 L1521.17 1553.78 Q1527.41 1555.12 1530.02 1557.57 Q1532.66 1559.99 1532.66 1564.35 Q1532.66 1569.32 1528.71 1572.21 Q1524.8 1575.11 1517.92 1575.11 Q1515.06 1575.11 1511.94 1574.54 Q1508.85 1573.99 1505.41 1572.88 L1505.41 1566.83 Q1508.66 1568.52 1511.81 1569.38 Q1514.96 1570.21 1518.05 1570.21 Q1522.19 1570.21 1524.42 1568.81 Q1526.64 1567.37 1526.64 1564.8 Q1526.64 1562.41 1525.02 1561.14 Q1523.43 1559.86 1517.99 1558.68 L1515.95 1558.21 Q1510.51 1557.06 1508.09 1554.71 Q1505.67 1552.32 1505.67 1548.18 Q1505.67 1543.15 1509.23 1540.42 Q1512.8 1537.68 1519.36 1537.68 Q1522.6 1537.68 1525.47 1538.16 Q1528.33 1538.63 1530.75 1539.59 Z" fill="#000000" fill-rule="evenodd" fill-opacity="1" /><path clip-path="url(#clip580)" d="M1541.06 1524.72 L1546.15 1524.72 Q1550.93 1532.24 1553.28 1539.43 Q1555.67 1546.62 1555.67 1553.72 Q1555.67 1560.85 1553.28 1568.07 Q1550.93 1575.3 1546.15 1582.78 L1541.06 1582.78 Q1545.3 1575.49 1547.36 1568.3 Q1549.47 1561.07 1549.47 1553.72 Q1549.47 1546.37 1547.36 1539.21 Q1545.3 1532.04 1541.06 1524.72 Z" fill="#000000" fill-rule="evenodd" fill-opacity="1" /><polyline clip-path="url(#clip582)" style="stroke:#000000; stroke-linecap:butt; stroke-linejoin:round; stroke-width:2; stroke-opacity:0.1; fill:none" points="
  222.69,1410.9 2352.76,1410.9 
  "/>
<polyline clip-path="url(#clip582)" style="stroke:#000000; stroke-linecap:butt; stroke-linejoin:round; stroke-width:2; stroke-opacity:0.1; fill:none" points="
  222.69,1089.04 2352.76,1089.04 
  "/>
<polyline clip-path="url(#clip582)" style="stroke:#000000; stroke-linecap:butt; stroke-linejoin:round; stroke-width:2; stroke-opacity:0.1; fill:none" points="
  222.69,767.184 2352.76,767.184 
  "/>
<polyline clip-path="url(#clip582)" style="stroke:#000000; stroke-linecap:butt; stroke-linejoin:round; stroke-width:2; stroke-opacity:0.1; fill:none" points="
  222.69,445.328 2352.76,445.328 
  "/>
<polyline clip-path="url(#clip582)" style="stroke:#000000; stroke-linecap:butt; stroke-linejoin:round; stroke-width:2; stroke-opacity:0.1; fill:none" points="
  222.69,123.472 2352.76,123.472 
  "/>
<polyline clip-path="url(#clip580)" style="stroke:#000000; stroke-linecap:butt; stroke-linejoin:round; stroke-width:4; stroke-opacity:1; fill:none" points="
  222.69,1410.9 222.69,123.472 
  "/>
<polyline clip-path="url(#clip580)" style="stroke:#000000; stroke-linecap:butt; stroke-linejoin:round; stroke-width:4; stroke-opacity:1; fill:none" points="
  222.69,1410.9 241.588,1410.9 
  "/>
<polyline clip-path="url(#clip580)" style="stroke:#000000; stroke-linecap:butt; stroke-linejoin:round; stroke-width:4; stroke-opacity:1; fill:none" points="
  222.69,1089.04 241.588,1089.04 
  "/>
<polyline clip-path="url(#clip580)" style="stroke:#000000; stroke-linecap:butt; stroke-linejoin:round; stroke-width:4; stroke-opacity:1; fill:none" points="
  222.69,767.184 241.588,767.184 
  "/>
<polyline clip-path="url(#clip580)" style="stroke:#000000; stroke-linecap:butt; stroke-linejoin:round; stroke-width:4; stroke-opacity:1; fill:none" points="
  222.69,445.328 241.588,445.328 
  "/>
<polyline clip-path="url(#clip580)" style="stroke:#000000; stroke-linecap:butt; stroke-linejoin:round; stroke-width:4; stroke-opacity:1; fill:none" points="
  222.69,123.472 241.588,123.472 
  "/>
<path clip-path="url(#clip580)" d="M115.985 1430.69 L123.624 1430.69 L123.624 1404.32 L115.313 1405.99 L115.313 1401.73 L123.577 1400.06 L128.253 1400.06 L128.253 1430.69 L135.892 1430.69 L135.892 1434.62 L115.985 1434.62 L115.985 1430.69 Z" fill="#000000" fill-rule="evenodd" fill-opacity="1" /><path clip-path="url(#clip580)" d="M155.336 1403.14 Q151.725 1403.14 149.897 1406.71 Q148.091 1410.25 148.091 1417.38 Q148.091 1424.49 149.897 1428.05 Q151.725 1431.59 155.336 1431.59 Q158.971 1431.59 160.776 1428.05 Q162.605 1424.49 162.605 1417.38 Q162.605 1410.25 160.776 1406.71 Q158.971 1403.14 155.336 1403.14 M155.336 1399.44 Q161.146 1399.44 164.202 1404.05 Q167.281 1408.63 167.281 1417.38 Q167.281 1426.11 164.202 1430.71 Q161.146 1435.3 155.336 1435.3 Q149.526 1435.3 146.447 1430.71 Q143.392 1426.11 143.392 1417.38 Q143.392 1408.63 146.447 1404.05 Q149.526 1399.44 155.336 1399.44 Z" fill="#000000" fill-rule="evenodd" fill-opacity="1" /><path clip-path="url(#clip580)" d="M176.986 1381.64 Q174.052 1381.64 172.566 1384.53 Q171.099 1387.41 171.099 1393.2 Q171.099 1398.98 172.566 1401.87 Q174.052 1404.75 176.986 1404.75 Q179.938 1404.75 181.405 1401.87 Q182.891 1398.98 182.891 1393.2 Q182.891 1387.41 181.405 1384.53 Q179.938 1381.64 176.986 1381.64 M176.986 1378.63 Q181.706 1378.63 184.189 1382.37 Q186.69 1386.09 186.69 1393.2 Q186.69 1400.29 184.189 1404.04 Q181.706 1407.76 176.986 1407.76 Q172.265 1407.76 169.763 1404.04 Q167.281 1400.29 167.281 1393.2 Q167.281 1386.09 169.763 1382.37 Q172.265 1378.63 176.986 1378.63 Z" fill="#000000" fill-rule="evenodd" fill-opacity="1" /><path clip-path="url(#clip580)" d="M118.674 1108.83 L126.313 1108.83 L126.313 1082.47 L118.003 1084.13 L118.003 1079.87 L126.267 1078.21 L130.943 1078.21 L130.943 1108.83 L138.581 1108.83 L138.581 1112.77 L118.674 1112.77 L118.674 1108.83 Z" fill="#000000" fill-rule="evenodd" fill-opacity="1" /><path clip-path="url(#clip580)" d="M158.026 1081.29 Q154.415 1081.29 152.586 1084.85 Q150.781 1088.39 150.781 1095.52 Q150.781 1102.63 152.586 1106.19 Q154.415 1109.74 158.026 1109.74 Q161.66 1109.74 163.466 1106.19 Q165.294 1102.63 165.294 1095.52 Q165.294 1088.39 163.466 1084.85 Q161.66 1081.29 158.026 1081.29 M158.026 1077.58 Q163.836 1077.58 166.892 1082.19 Q169.97 1086.77 169.97 1095.52 Q169.97 1104.25 166.892 1108.86 Q163.836 1113.44 158.026 1113.44 Q152.216 1113.44 149.137 1108.86 Q146.081 1104.25 146.081 1095.52 Q146.081 1086.77 149.137 1082.19 Q152.216 1077.58 158.026 1077.58 Z" fill="#000000" fill-rule="evenodd" fill-opacity="1" /><path clip-path="url(#clip580)" d="M170.516 1082.16 L176.722 1082.16 L176.722 1060.74 L169.97 1062.09 L169.97 1058.63 L176.685 1057.28 L180.484 1057.28 L180.484 1082.16 L186.69 1082.16 L186.69 1085.36 L170.516 1085.36 L170.516 1082.16 Z" fill="#000000" fill-rule="evenodd" fill-opacity="1" /><path clip-path="url(#clip580)" d="M117.565 786.977 L125.203 786.977 L125.203 760.611 L116.893 762.278 L116.893 758.019 L125.157 756.352 L129.833 756.352 L129.833 786.977 L137.472 786.977 L137.472 790.912 L117.565 790.912 L117.565 786.977 Z" fill="#000000" fill-rule="evenodd" fill-opacity="1" /><path clip-path="url(#clip580)" d="M156.916 759.431 Q153.305 759.431 151.476 762.995 Q149.671 766.537 149.671 773.667 Q149.671 780.773 151.476 784.338 Q153.305 787.88 156.916 787.88 Q160.55 787.88 162.356 784.338 Q164.185 780.773 164.185 773.667 Q164.185 766.537 162.356 762.995 Q160.55 759.431 156.916 759.431 M156.916 755.727 Q162.726 755.727 165.782 760.333 Q168.861 764.917 168.861 773.667 Q168.861 782.394 165.782 787 Q162.726 791.583 156.916 791.583 Q151.106 791.583 148.027 787 Q144.972 782.394 144.972 773.667 Q144.972 764.917 148.027 760.333 Q151.106 755.727 156.916 755.727 Z" fill="#000000" fill-rule="evenodd" fill-opacity="1" /><path clip-path="url(#clip580)" d="M173.431 760.304 L186.69 760.304 L186.69 763.502 L168.861 763.502 L168.861 760.304 Q171.023 758.066 174.747 754.305 Q178.49 750.524 179.449 749.433 Q181.274 747.383 181.988 745.973 Q182.722 744.543 182.722 743.17 Q182.722 740.932 181.142 739.522 Q179.581 738.111 177.061 738.111 Q175.274 738.111 173.28 738.732 Q171.306 739.352 169.049 740.613 L169.049 736.776 Q171.343 735.854 173.337 735.384 Q175.33 734.914 176.986 734.914 Q181.349 734.914 183.944 737.095 Q186.54 739.277 186.54 742.926 Q186.54 744.656 185.882 746.217 Q185.242 747.759 183.531 749.866 Q183.06 750.411 180.54 753.026 Q178.02 755.621 173.431 760.304 Z" fill="#000000" fill-rule="evenodd" fill-opacity="1" /><path clip-path="url(#clip580)" d="M116.906 465.121 L124.545 465.121 L124.545 438.755 L116.235 440.422 L116.235 436.163 L124.499 434.496 L129.175 434.496 L129.175 465.121 L136.814 465.121 L136.814 469.056 L116.906 469.056 L116.906 465.121 Z" fill="#000000" fill-rule="evenodd" fill-opacity="1" /><path clip-path="url(#clip580)" d="M156.258 437.575 Q152.647 437.575 150.818 441.139 Q149.013 444.681 149.013 451.811 Q149.013 458.917 150.818 462.482 Q152.647 466.023 156.258 466.023 Q159.892 466.023 161.698 462.482 Q163.526 458.917 163.526 451.811 Q163.526 444.681 161.698 441.139 Q159.892 437.575 156.258 437.575 M156.258 433.871 Q162.068 433.871 165.124 438.477 Q168.202 443.061 168.202 451.811 Q168.202 460.537 165.124 465.144 Q162.068 469.727 156.258 469.727 Q150.448 469.727 147.369 465.144 Q144.314 460.537 144.314 451.811 Q144.314 443.061 147.369 438.477 Q150.448 433.871 156.258 433.871 Z" fill="#000000" fill-rule="evenodd" fill-opacity="1" /><path clip-path="url(#clip580)" d="M180.898 426.505 Q183.625 427.088 185.148 428.931 Q186.69 430.775 186.69 433.483 Q186.69 437.639 183.832 439.915 Q180.973 442.191 175.707 442.191 Q173.939 442.191 172.058 441.834 Q170.196 441.495 168.202 440.799 L168.202 437.132 Q169.782 438.053 171.663 438.523 Q173.544 438.994 175.594 438.994 Q179.167 438.994 181.029 437.583 Q182.91 436.172 182.91 433.483 Q182.91 431 181.161 429.608 Q179.431 428.198 176.327 428.198 L173.055 428.198 L173.055 425.076 L176.478 425.076 Q179.28 425.076 180.766 423.966 Q182.252 422.838 182.252 420.731 Q182.252 418.568 180.709 417.421 Q179.186 416.255 176.327 416.255 Q174.766 416.255 172.979 416.594 Q171.193 416.932 169.049 417.647 L169.049 414.261 Q171.212 413.659 173.092 413.359 Q174.992 413.058 176.666 413.058 Q180.992 413.058 183.512 415.032 Q186.032 416.988 186.032 420.336 Q186.032 422.668 184.697 424.286 Q183.361 425.885 180.898 426.505 Z" fill="#000000" fill-rule="evenodd" fill-opacity="1" /><path clip-path="url(#clip580)" d="M114.931 143.265 L122.57 143.265 L122.57 116.899 L114.26 118.566 L114.26 114.306 L122.524 112.64 L127.2 112.64 L127.2 143.265 L134.839 143.265 L134.839 147.2 L114.931 147.2 L114.931 143.265 Z" fill="#000000" fill-rule="evenodd" fill-opacity="1" /><path clip-path="url(#clip580)" d="M154.283 115.718 Q150.672 115.718 148.843 119.283 Q147.038 122.825 147.038 129.954 Q147.038 137.061 148.843 140.626 Q150.672 144.167 154.283 144.167 Q157.917 144.167 159.723 140.626 Q161.552 137.061 161.552 129.954 Q161.552 122.825 159.723 119.283 Q157.917 115.718 154.283 115.718 M154.283 112.015 Q160.093 112.015 163.149 116.621 Q166.227 121.204 166.227 129.954 Q166.227 138.681 163.149 143.288 Q160.093 147.871 154.283 147.871 Q148.473 147.871 145.394 143.288 Q142.339 138.681 142.339 129.954 Q142.339 121.204 145.394 116.621 Q148.473 112.015 154.283 112.015 Z" fill="#000000" fill-rule="evenodd" fill-opacity="1" /><path clip-path="url(#clip580)" d="M178.904 95.0195 L169.312 110.009 L178.904 110.009 L178.904 95.0195 M177.907 91.7093 L182.684 91.7093 L182.684 110.009 L186.69 110.009 L186.69 113.169 L182.684 113.169 L182.684 119.789 L178.904 119.789 L178.904 113.169 L166.227 113.169 L166.227 109.501 L177.907 91.7093 Z" fill="#000000" fill-rule="evenodd" fill-opacity="1" /><path clip-path="url(#clip580)" d="M14.479 954.543 L14.479 948.687 L64.0042 948.687 L64.0042 954.543 L14.479 954.543 Z" fill="#000000" fill-rule="evenodd" fill-opacity="1" /><path clip-path="url(#clip580)" d="M46.0847 920.232 Q46.0847 927.33 47.7079 930.067 Q49.3312 932.804 53.2461 932.804 Q56.3653 932.804 58.2114 930.767 Q60.0256 928.698 60.0256 925.165 Q60.0256 920.296 56.5881 917.367 Q53.1188 914.407 47.3897 914.407 L46.0847 914.407 L46.0847 920.232 M43.6657 908.551 L64.0042 908.551 L64.0042 914.407 L58.5933 914.407 Q61.8398 916.412 63.3994 919.404 Q64.9272 922.396 64.9272 926.725 Q64.9272 932.199 61.8716 935.446 Q58.7843 938.661 53.6281 938.661 Q47.6125 938.661 44.5569 934.65 Q41.5014 930.608 41.5014 922.619 L41.5014 914.407 L40.9285 914.407 Q36.8862 914.407 34.6901 917.081 Q32.4621 919.723 32.4621 924.529 Q32.4621 927.584 33.1941 930.481 Q33.9262 933.377 35.3903 936.051 L29.9795 936.051 Q28.7381 932.836 28.1334 929.812 Q27.4968 926.789 27.4968 923.924 Q27.4968 916.19 31.5072 912.37 Q35.5176 908.551 43.6657 908.551 Z" fill="#000000" fill-rule="evenodd" fill-opacity="1" /><path clip-path="url(#clip580)" d="M18.2347 890.695 L28.3562 890.695 L28.3562 878.632 L32.9077 878.632 L32.9077 890.695 L52.2594 890.695 Q56.6199 890.695 57.8613 889.517 Q59.1026 888.308 59.1026 884.648 L59.1026 878.632 L64.0042 878.632 L64.0042 884.648 Q64.0042 891.427 61.4897 894.005 Q58.9434 896.583 52.2594 896.583 L32.9077 896.583 L32.9077 900.88 L28.3562 900.88 L28.3562 896.583 L18.2347 896.583 L18.2347 890.695 Z" fill="#000000" fill-rule="evenodd" fill-opacity="1" /><path clip-path="url(#clip580)" d="M44.7161 840.438 L47.5806 840.438 L47.5806 867.365 Q53.6281 866.983 56.8109 863.736 Q59.9619 860.458 59.9619 854.633 Q59.9619 851.259 59.1344 848.108 Q58.3069 844.926 56.6518 841.806 L62.1899 841.806 Q63.5267 844.957 64.227 848.268 Q64.9272 851.578 64.9272 854.983 Q64.9272 863.513 59.9619 868.511 Q54.9967 873.476 46.5303 873.476 Q37.7774 873.476 32.6531 868.765 Q27.4968 864.023 27.4968 856.002 Q27.4968 848.809 32.1438 844.639 Q36.7589 840.438 44.7161 840.438 M42.9973 846.294 Q38.1912 846.358 35.3266 849 Q32.4621 851.61 32.4621 855.938 Q32.4621 860.84 35.2312 863.8 Q38.0002 866.728 43.0292 867.174 L42.9973 846.294 Z" fill="#000000" fill-rule="evenodd" fill-opacity="1" /><path clip-path="url(#clip580)" d="M42.4881 801.193 L64.0042 801.193 L64.0042 807.05 L42.679 807.05 Q37.6183 807.05 35.1038 809.023 Q32.5894 810.996 32.5894 814.943 Q32.5894 819.686 35.6131 822.423 Q38.6368 825.16 43.8567 825.16 L64.0042 825.16 L64.0042 831.048 L28.3562 831.048 L28.3562 825.16 L33.8944 825.16 Q30.6797 823.059 29.0883 820.227 Q27.4968 817.362 27.4968 813.638 Q27.4968 807.495 31.3163 804.344 Q35.1038 801.193 42.4881 801.193 Z" fill="#000000" fill-rule="evenodd" fill-opacity="1" /><path clip-path="url(#clip580)" d="M29.7248 763.858 L35.1993 763.858 Q33.8307 766.341 33.1623 768.855 Q32.4621 771.338 32.4621 773.884 Q32.4621 779.582 36.0905 782.733 Q39.6872 785.884 46.212 785.884 Q52.7369 785.884 56.3653 782.733 Q59.9619 779.582 59.9619 773.884 Q59.9619 771.338 59.2935 768.855 Q58.5933 766.341 57.2247 763.858 L62.6355 763.858 Q63.7814 766.309 64.3543 768.951 Q64.9272 771.561 64.9272 774.521 Q64.9272 782.573 59.8664 787.316 Q54.8057 792.058 46.212 792.058 Q37.491 792.058 32.4939 787.284 Q27.4968 782.478 27.4968 774.139 Q27.4968 771.433 28.0697 768.855 Q28.6108 766.277 29.7248 763.858 Z" fill="#000000" fill-rule="evenodd" fill-opacity="1" /><path clip-path="url(#clip580)" d="M67.3143 738.841 Q73.68 741.324 75.6216 743.679 Q77.5631 746.034 77.5631 749.981 L77.5631 754.66 L72.6615 754.66 L72.6615 751.222 Q72.6615 748.803 71.5157 747.467 Q70.3699 746.13 66.1048 744.507 L63.4312 743.456 L28.3562 757.875 L28.3562 751.668 L56.238 740.528 L28.3562 729.388 L28.3562 723.181 L67.3143 738.841 Z" fill="#000000" fill-rule="evenodd" fill-opacity="1" /><path clip-path="url(#clip580)" d="M14.5426 680.308 Q21.8632 684.573 29.0246 686.642 Q36.186 688.711 43.5384 688.711 Q50.8908 688.711 58.1159 686.642 Q65.3091 684.542 72.5979 680.308 L72.5979 685.401 Q65.1182 690.175 57.8931 692.562 Q50.668 694.918 43.5384 694.918 Q36.4406 694.918 29.2474 692.562 Q22.0542 690.207 14.5426 685.401 L14.5426 680.308 Z" fill="#000000" fill-rule="evenodd" fill-opacity="1" /><path clip-path="url(#clip580)" d="M77.5631 669.55 L28.3562 669.55 L28.3562 663.694 L50.5089 663.694 Q55.124 663.694 57.4793 661.498 Q59.8346 659.302 59.8346 655.005 Q59.8346 650.294 57.161 647.939 Q54.4874 645.552 49.1402 645.552 L28.3562 645.552 L28.3562 639.695 L55.7924 639.695 Q57.7021 639.695 58.6251 639.154 Q59.5163 638.581 59.5163 637.404 Q59.5163 637.117 59.3572 636.608 Q59.1662 636.099 58.7843 635.207 L63.4949 635.207 Q64.227 636.512 64.5771 637.69 Q64.9272 638.836 64.9272 639.95 Q64.9272 642.146 63.6859 643.451 Q62.4446 644.756 59.8983 645.233 Q62.4127 646.825 63.6859 649.148 Q64.9272 651.44 64.9272 654.559 Q64.9272 657.806 63.6859 660.097 Q62.4446 662.357 59.9619 663.694 L77.5631 663.694 L77.5631 669.55 Z" fill="#000000" fill-rule="evenodd" fill-opacity="1" /><path clip-path="url(#clip580)" d="M29.4065 604.747 L34.9447 604.747 Q33.6716 607.23 33.035 609.904 Q32.3984 612.577 32.3984 615.442 Q32.3984 619.802 33.7352 621.999 Q35.072 624.163 37.7456 624.163 Q39.7826 624.163 40.9603 622.603 Q42.1061 621.044 43.1565 616.333 L43.6021 614.328 Q44.9389 608.089 47.3897 605.48 Q49.8086 602.838 54.1691 602.838 Q59.1344 602.838 62.0308 606.784 Q64.9272 610.699 64.9272 617.574 Q64.9272 620.439 64.3543 623.558 Q63.8132 626.645 62.6992 630.083 L56.6518 630.083 Q58.3387 626.836 59.198 623.685 Q60.0256 620.534 60.0256 617.447 Q60.0256 613.309 58.6251 611.081 Q57.1929 608.853 54.6147 608.853 Q52.2276 608.853 50.9545 610.477 Q49.6813 612.068 48.5037 617.511 L48.0262 619.548 Q46.8804 624.99 44.5251 627.409 Q42.138 629.828 38.0002 629.828 Q32.9713 629.828 30.2341 626.264 Q27.4968 622.699 27.4968 616.142 Q27.4968 612.896 27.9743 610.031 Q28.4517 607.166 29.4065 604.747 Z" fill="#000000" fill-rule="evenodd" fill-opacity="1" /><path clip-path="url(#clip580)" d="M14.5426 594.435 L14.5426 589.342 Q22.0542 584.568 29.2474 582.213 Q36.4406 579.826 43.5384 579.826 Q50.668 579.826 57.8931 582.213 Q65.1182 584.568 72.5979 589.342 L72.5979 594.435 Q65.3091 590.202 58.1159 588.133 Q50.8908 586.032 43.5384 586.032 Q36.186 586.032 29.0246 588.133 Q21.8632 590.202 14.5426 594.435 Z" fill="#000000" fill-rule="evenodd" fill-opacity="1" /><path clip-path="url(#clip580)" d="M589.712 17.6457 Q580.8 17.6457 575.534 24.2892 Q570.308 30.9327 570.308 42.3968 Q570.308 53.8203 575.534 60.4638 Q580.8 67.1073 589.712 67.1073 Q598.624 67.1073 603.809 60.4638 Q609.035 53.8203 609.035 42.3968 Q609.035 30.9327 603.809 24.2892 Q598.624 17.6457 589.712 17.6457 M589.712 11.0023 Q602.432 11.0023 610.047 19.5497 Q617.663 28.0566 617.663 42.3968 Q617.663 56.6965 610.047 65.2439 Q602.432 73.7508 589.712 73.7508 Q576.951 73.7508 569.295 65.2439 Q561.68 56.737 561.68 42.3968 Q561.68 28.0566 569.295 19.5497 Q576.951 11.0023 589.712 11.0023 Z" fill="#000000" fill-rule="evenodd" fill-opacity="1" /><path clip-path="url(#clip580)" d="M637.35 65.7705 L637.35 89.8329 L629.856 89.8329 L629.856 27.2059 L637.35 27.2059 L637.35 34.0924 Q639.7 30.0415 643.265 28.0971 Q646.87 26.1121 651.853 26.1121 Q660.117 26.1121 665.261 32.6746 Q670.446 39.2371 670.446 49.9314 Q670.446 60.6258 665.261 67.1883 Q660.117 73.7508 651.853 73.7508 Q646.87 73.7508 643.265 71.8063 Q639.7 69.8214 637.35 65.7705 M662.709 49.9314 Q662.709 41.7081 659.306 37.0496 Q655.944 32.3505 650.03 32.3505 Q644.115 32.3505 640.713 37.0496 Q637.35 41.7081 637.35 49.9314 Q637.35 58.1548 640.713 62.8538 Q644.115 67.5124 650.03 67.5124 Q655.944 67.5124 659.306 62.8538 Q662.709 58.1548 662.709 49.9314 Z" fill="#000000" fill-rule="evenodd" fill-opacity="1" /><path clip-path="url(#clip580)" d="M721.609 48.0275 L721.609 51.6733 L687.339 51.6733 Q687.825 59.3701 691.957 63.421 Q696.129 67.4314 703.542 67.4314 Q707.836 67.4314 711.847 66.3781 Q715.897 65.3249 719.867 63.2184 L719.867 70.267 Q715.857 71.9684 711.644 72.8596 Q707.431 73.7508 703.097 73.7508 Q692.24 73.7508 685.88 67.4314 Q679.561 61.1119 679.561 50.3365 Q679.561 39.1965 685.556 32.6746 Q691.592 26.1121 701.8 26.1121 Q710.955 26.1121 716.262 32.0264 Q721.609 37.9003 721.609 48.0275 M714.156 45.84 Q714.075 39.7232 710.712 36.0774 Q707.391 32.4315 701.881 32.4315 Q695.643 32.4315 691.876 35.9558 Q688.149 39.4801 687.582 45.8805 L714.156 45.84 Z" fill="#000000" fill-rule="evenodd" fill-opacity="1" /><path clip-path="url(#clip580)" d="M771.557 45.1919 L771.557 72.576 L764.103 72.576 L764.103 45.4349 Q764.103 38.994 761.592 35.7938 Q759.08 32.5936 754.057 32.5936 Q748.021 32.5936 744.537 36.4419 Q741.054 40.2903 741.054 46.9338 L741.054 72.576 L733.559 72.576 L733.559 27.2059 L741.054 27.2059 L741.054 34.2544 Q743.727 30.163 747.332 28.1376 Q750.978 26.1121 755.718 26.1121 Q763.536 26.1121 767.547 30.9732 Q771.557 35.7938 771.557 45.1919 Z" fill="#000000" fill-rule="evenodd" fill-opacity="1" /><path clip-path="url(#clip580)" d="M786.748 12.096 L798.941 12.096 L814.375 53.2532 L829.89 12.096 L842.083 12.096 L842.083 72.576 L834.103 72.576 L834.103 19.4686 L818.507 60.9499 L810.284 60.9499 L794.688 19.4686 L794.688 72.576 L786.748 72.576 L786.748 12.096 Z" fill="#000000" fill-rule="evenodd" fill-opacity="1" /><path clip-path="url(#clip580)" d="M866.51 18.8205 L866.51 41.5461 L876.799 41.5461 Q882.511 41.5461 885.63 38.5889 Q888.75 35.6318 888.75 30.163 Q888.75 24.7348 885.63 21.7777 Q882.511 18.8205 876.799 18.8205 L866.51 18.8205 M858.327 12.096 L876.799 12.096 Q886.967 12.096 892.152 16.714 Q897.378 21.2916 897.378 30.163 Q897.378 39.1155 892.152 43.6931 Q886.967 48.2706 876.799 48.2706 L866.51 48.2706 L866.51 72.576 L858.327 72.576 L858.327 12.096 Z" fill="#000000" fill-rule="evenodd" fill-opacity="1" /><path clip-path="url(#clip580)" d="M908.356 12.096 L916.539 12.096 L916.539 72.576 L908.356 72.576 L908.356 12.096 Z" fill="#000000" fill-rule="evenodd" fill-opacity="1" /><path clip-path="url(#clip580)" d="M958.871 9.54393 L966.324 9.54393 L966.324 72.576 L958.871 72.576 L958.871 9.54393 Z" fill="#000000" fill-rule="evenodd" fill-opacity="1" /><path clip-path="url(#clip580)" d="M1002.54 49.7694 Q993.506 49.7694 990.022 51.8354 Q986.538 53.9013 986.538 58.8839 Q986.538 62.8538 989.131 65.2034 Q991.764 67.5124 996.261 67.5124 Q1002.46 67.5124 1006.19 63.1374 Q1009.95 58.7219 1009.95 51.4303 L1009.95 49.7694 L1002.54 49.7694 M1017.41 46.6907 L1017.41 72.576 L1009.95 72.576 L1009.95 65.6895 Q1007.4 69.8214 1003.59 71.8063 Q999.785 73.7508 994.276 73.7508 Q987.308 73.7508 983.176 69.8619 Q979.085 65.9325 979.085 59.3701 Q979.085 51.7138 984.189 47.825 Q989.334 43.9361 999.501 43.9361 L1009.95 43.9361 L1009.95 43.2069 Q1009.95 38.0623 1006.55 35.2672 Q1003.19 32.4315 997.071 32.4315 Q993.182 32.4315 989.496 33.3632 Q985.809 34.295 982.406 36.1584 L982.406 29.2718 Q986.498 27.692 990.346 26.9223 Q994.195 26.1121 997.84 26.1121 Q1007.68 26.1121 1012.55 31.2163 Q1017.41 36.3204 1017.41 46.6907 Z" fill="#000000" fill-rule="evenodd" fill-opacity="1" /><path clip-path="url(#clip580)" d="M1040.13 14.324 L1040.13 27.2059 L1055.48 27.2059 L1055.48 32.9987 L1040.13 32.9987 L1040.13 57.6282 Q1040.13 63.1779 1041.63 64.7578 Q1043.17 66.3376 1047.83 66.3376 L1055.48 66.3376 L1055.48 72.576 L1047.83 72.576 Q1039.2 72.576 1035.92 69.3758 Q1032.64 66.1351 1032.64 57.6282 L1032.64 32.9987 L1027.17 32.9987 L1027.17 27.2059 L1032.64 27.2059 L1032.64 14.324 L1040.13 14.324 Z" fill="#000000" fill-rule="evenodd" fill-opacity="1" /><path clip-path="url(#clip580)" d="M1104.1 48.0275 L1104.1 51.6733 L1069.82 51.6733 Q1070.31 59.3701 1074.44 63.421 Q1078.62 67.4314 1086.03 67.4314 Q1090.32 67.4314 1094.33 66.3781 Q1098.38 65.3249 1102.35 63.2184 L1102.35 70.267 Q1098.34 71.9684 1094.13 72.8596 Q1089.92 73.7508 1085.58 73.7508 Q1074.73 73.7508 1068.37 67.4314 Q1062.05 61.1119 1062.05 50.3365 Q1062.05 39.1965 1068.04 32.6746 Q1074.08 26.1121 1084.29 26.1121 Q1093.44 26.1121 1098.75 32.0264 Q1104.1 37.9003 1104.1 48.0275 M1096.64 45.84 Q1096.56 39.7232 1093.2 36.0774 Q1089.88 32.4315 1084.37 32.4315 Q1078.13 32.4315 1074.36 35.9558 Q1070.64 39.4801 1070.07 45.8805 L1096.64 45.84 Z" fill="#000000" fill-rule="evenodd" fill-opacity="1" /><path clip-path="url(#clip580)" d="M1154.04 45.1919 L1154.04 72.576 L1146.59 72.576 L1146.59 45.4349 Q1146.59 38.994 1144.08 35.7938 Q1141.57 32.5936 1136.54 32.5936 Q1130.51 32.5936 1127.02 36.4419 Q1123.54 40.2903 1123.54 46.9338 L1123.54 72.576 L1116.05 72.576 L1116.05 27.2059 L1123.54 27.2059 L1123.54 34.2544 Q1126.21 30.163 1129.82 28.1376 Q1133.46 26.1121 1138.2 26.1121 Q1146.02 26.1121 1150.03 30.9732 Q1154.04 35.7938 1154.04 45.1919 Z" fill="#000000" fill-rule="evenodd" fill-opacity="1" /><path clip-path="url(#clip580)" d="M1201.56 28.9478 L1201.56 35.9153 Q1198.4 34.1734 1195.2 33.3227 Q1192.04 32.4315 1188.8 32.4315 Q1181.55 32.4315 1177.54 37.0496 Q1173.53 41.6271 1173.53 49.9314 Q1173.53 58.2358 1177.54 62.8538 Q1181.55 67.4314 1188.8 67.4314 Q1192.04 67.4314 1195.2 66.5807 Q1198.4 65.6895 1201.56 63.9476 L1201.56 70.8341 Q1198.44 72.2924 1195.08 73.0216 Q1191.76 73.7508 1187.99 73.7508 Q1177.74 73.7508 1171.71 67.3098 Q1165.67 60.8689 1165.67 49.9314 Q1165.67 38.832 1171.75 32.472 Q1177.86 26.1121 1188.48 26.1121 Q1191.92 26.1121 1195.2 26.8413 Q1198.48 27.5299 1201.56 28.9478 Z" fill="#000000" fill-rule="evenodd" fill-opacity="1" /><path clip-path="url(#clip580)" d="M1233.4 76.7889 Q1230.24 84.8907 1227.24 87.3618 Q1224.25 89.8329 1219.22 89.8329 L1213.27 89.8329 L1213.27 83.5945 L1217.64 83.5945 Q1220.72 83.5945 1222.42 82.1361 Q1224.12 80.6778 1226.19 75.2496 L1227.53 71.8468 L1209.18 27.2059 L1217.08 27.2059 L1231.25 62.6918 L1245.43 27.2059 L1253.33 27.2059 L1233.4 76.7889 Z" fill="#000000" fill-rule="evenodd" fill-opacity="1" /><path clip-path="url(#clip580)" d="M1259.49 62.2867 L1268.04 62.2867 L1268.04 72.576 L1259.49 72.576 L1259.49 62.2867 M1259.49 29.6769 L1268.04 29.6769 L1268.04 39.9662 L1259.49 39.9662 L1259.49 29.6769 Z" fill="#000000" fill-rule="evenodd" fill-opacity="1" /><path clip-path="url(#clip580)" d="M1312.23 12.096 L1320.41 12.096 L1320.41 72.576 L1312.23 72.576 L1312.23 12.096 Z" fill="#000000" fill-rule="evenodd" fill-opacity="1" /><path clip-path="url(#clip580)" d="M1374.09 45.1919 L1374.09 72.576 L1366.63 72.576 L1366.63 45.4349 Q1366.63 38.994 1364.12 35.7938 Q1361.61 32.5936 1356.59 32.5936 Q1350.55 32.5936 1347.07 36.4419 Q1343.59 40.2903 1343.59 46.9338 L1343.59 72.576 L1336.09 72.576 L1336.09 27.2059 L1343.59 27.2059 L1343.59 34.2544 Q1346.26 30.163 1349.86 28.1376 Q1353.51 26.1121 1358.25 26.1121 Q1366.07 26.1121 1370.08 30.9732 Q1374.09 35.7938 1374.09 45.1919 Z" fill="#000000" fill-rule="evenodd" fill-opacity="1" /><path clip-path="url(#clip580)" d="M1411.92 9.54393 L1411.92 15.7418 L1404.79 15.7418 Q1400.78 15.7418 1399.2 17.3622 Q1397.66 18.9825 1397.66 23.1955 L1397.66 27.2059 L1409.94 27.2059 L1409.94 32.9987 L1397.66 32.9987 L1397.66 72.576 L1390.17 72.576 L1390.17 32.9987 L1383.04 32.9987 L1383.04 27.2059 L1390.17 27.2059 L1390.17 24.0462 Q1390.17 16.471 1393.69 13.0277 Q1397.22 9.54393 1404.88 9.54393 L1411.92 9.54393 Z" fill="#000000" fill-rule="evenodd" fill-opacity="1" /><path clip-path="url(#clip580)" d="M1418.16 27.2059 L1425.62 27.2059 L1425.62 72.576 L1418.16 72.576 L1418.16 27.2059 M1418.16 9.54393 L1425.62 9.54393 L1425.62 18.9825 L1418.16 18.9825 L1418.16 9.54393 Z" fill="#000000" fill-rule="evenodd" fill-opacity="1" /><path clip-path="url(#clip580)" d="M1478.93 45.1919 L1478.93 72.576 L1471.47 72.576 L1471.47 45.4349 Q1471.47 38.994 1468.96 35.7938 Q1466.45 32.5936 1461.43 32.5936 Q1455.39 32.5936 1451.91 36.4419 Q1448.42 40.2903 1448.42 46.9338 L1448.42 72.576 L1440.93 72.576 L1440.93 27.2059 L1448.42 27.2059 L1448.42 34.2544 Q1451.1 30.163 1454.7 28.1376 Q1458.35 26.1121 1463.09 26.1121 Q1470.91 26.1121 1474.92 30.9732 Q1478.93 35.7938 1478.93 45.1919 Z" fill="#000000" fill-rule="evenodd" fill-opacity="1" /><path clip-path="url(#clip580)" d="M1493.79 27.2059 L1501.25 27.2059 L1501.25 72.576 L1493.79 72.576 L1493.79 27.2059 M1493.79 9.54393 L1501.25 9.54393 L1501.25 18.9825 L1493.79 18.9825 L1493.79 9.54393 Z" fill="#000000" fill-rule="evenodd" fill-opacity="1" /><path clip-path="url(#clip580)" d="M1549.41 49.9314 Q1549.41 41.7081 1546.01 37.0496 Q1542.65 32.3505 1536.73 32.3505 Q1530.82 32.3505 1527.42 37.0496 Q1524.05 41.7081 1524.05 49.9314 Q1524.05 58.1548 1527.42 62.8538 Q1530.82 67.5124 1536.73 67.5124 Q1542.65 67.5124 1546.01 62.8538 Q1549.41 58.1548 1549.41 49.9314 M1524.05 34.0924 Q1526.4 30.0415 1529.97 28.0971 Q1533.57 26.1121 1538.56 26.1121 Q1546.82 26.1121 1551.96 32.6746 Q1557.15 39.2371 1557.15 49.9314 Q1557.15 60.6258 1551.96 67.1883 Q1546.82 73.7508 1538.56 73.7508 Q1533.57 73.7508 1529.97 71.8063 Q1526.4 69.8214 1524.05 65.7705 L1524.05 72.576 L1516.56 72.576 L1516.56 9.54393 L1524.05 9.54393 L1524.05 34.0924 Z" fill="#000000" fill-rule="evenodd" fill-opacity="1" /><path clip-path="url(#clip580)" d="M1590.12 49.7694 Q1581.09 49.7694 1577.61 51.8354 Q1574.12 53.9013 1574.12 58.8839 Q1574.12 62.8538 1576.71 65.2034 Q1579.35 67.5124 1583.84 67.5124 Q1590.04 67.5124 1593.77 63.1374 Q1597.54 58.7219 1597.54 51.4303 L1597.54 49.7694 L1590.12 49.7694 M1604.99 46.6907 L1604.99 72.576 L1597.54 72.576 L1597.54 65.6895 Q1594.98 69.8214 1591.18 71.8063 Q1587.37 73.7508 1581.86 73.7508 Q1574.89 73.7508 1570.76 69.8619 Q1566.67 65.9325 1566.67 59.3701 Q1566.67 51.7138 1571.77 47.825 Q1576.92 43.9361 1587.08 43.9361 L1597.54 43.9361 L1597.54 43.2069 Q1597.54 38.0623 1594.13 35.2672 Q1590.77 32.4315 1584.65 32.4315 Q1580.77 32.4315 1577.08 33.3632 Q1573.39 34.295 1569.99 36.1584 L1569.99 29.2718 Q1574.08 27.692 1577.93 26.9223 Q1581.78 26.1121 1585.42 26.1121 Q1595.27 26.1121 1600.13 31.2163 Q1604.99 36.3204 1604.99 46.6907 Z" fill="#000000" fill-rule="evenodd" fill-opacity="1" /><path clip-path="url(#clip580)" d="M1658.06 45.1919 L1658.06 72.576 L1650.6 72.576 L1650.6 45.4349 Q1650.6 38.994 1648.09 35.7938 Q1645.58 32.5936 1640.56 32.5936 Q1634.52 32.5936 1631.04 36.4419 Q1627.55 40.2903 1627.55 46.9338 L1627.55 72.576 L1620.06 72.576 L1620.06 27.2059 L1627.55 27.2059 L1627.55 34.2544 Q1630.23 30.163 1633.83 28.1376 Q1637.48 26.1121 1642.22 26.1121 Q1650.04 26.1121 1654.05 30.9732 Q1658.06 35.7938 1658.06 45.1919 Z" fill="#000000" fill-rule="evenodd" fill-opacity="1" /><path clip-path="url(#clip580)" d="M1702.78 34.0924 L1702.78 9.54393 L1710.23 9.54393 L1710.23 72.576 L1702.78 72.576 L1702.78 65.7705 Q1700.43 69.8214 1696.82 71.8063 Q1693.26 73.7508 1688.24 73.7508 Q1680.01 73.7508 1674.83 67.1883 Q1669.68 60.6258 1669.68 49.9314 Q1669.68 39.2371 1674.83 32.6746 Q1680.01 26.1121 1688.24 26.1121 Q1693.26 26.1121 1696.82 28.0971 Q1700.43 30.0415 1702.78 34.0924 M1677.38 49.9314 Q1677.38 58.1548 1680.74 62.8538 Q1684.14 67.5124 1690.06 67.5124 Q1695.97 67.5124 1699.38 62.8538 Q1702.78 58.1548 1702.78 49.9314 Q1702.78 41.7081 1699.38 37.0496 Q1695.97 32.3505 1690.06 32.3505 Q1684.14 32.3505 1680.74 37.0496 Q1677.38 41.7081 1677.38 49.9314 Z" fill="#000000" fill-rule="evenodd" fill-opacity="1" /><path clip-path="url(#clip580)" d="M1746.61 27.2059 L1754.51 27.2059 L1768.69 65.2844 L1782.87 27.2059 L1790.76 27.2059 L1773.75 72.576 L1763.62 72.576 L1746.61 27.2059 Z" fill="#000000" fill-rule="evenodd" fill-opacity="1" /><path clip-path="url(#clip580)" d="M1829.98 28.5427 L1829.98 35.5912 Q1826.82 33.9709 1823.41 33.1607 Q1820.01 32.3505 1816.37 32.3505 Q1810.82 32.3505 1808.02 34.0519 Q1805.27 35.7533 1805.27 39.156 Q1805.27 41.7486 1807.25 43.2475 Q1809.24 44.7058 1815.23 46.0426 L1817.78 46.6097 Q1825.72 48.3111 1829.05 51.4303 Q1832.41 54.509 1832.41 60.0587 Q1832.41 66.3781 1827.38 70.0644 Q1822.4 73.7508 1813.65 73.7508 Q1810.01 73.7508 1806.04 73.0216 Q1802.11 72.3329 1797.73 70.9151 L1797.73 63.2184 Q1801.86 65.3654 1805.87 66.4591 Q1809.88 67.5124 1813.81 67.5124 Q1819.08 67.5124 1821.92 65.73 Q1824.75 63.9071 1824.75 60.6258 Q1824.75 57.5877 1822.69 55.9673 Q1820.66 54.3469 1813.73 52.8481 L1811.14 52.2405 Q1804.21 50.7821 1801.13 47.7845 Q1798.06 44.7463 1798.06 39.4801 Q1798.06 33.0797 1802.59 29.5959 Q1807.13 26.1121 1815.47 26.1121 Q1819.61 26.1121 1823.25 26.7198 Q1826.9 27.3274 1829.98 28.5427 Z" fill="#000000" fill-rule="evenodd" fill-opacity="1" /><path clip-path="url(#clip580)" d="M1862.59 12.096 L1913.75 12.096 L1913.75 18.9825 L1892.28 18.9825 L1892.28 72.576 L1884.06 72.576 L1884.06 18.9825 L1862.59 18.9825 L1862.59 12.096 Z" fill="#000000" fill-rule="evenodd" fill-opacity="1" /><path clip-path="url(#clip580)" d="M1962.08 16.7545 L1962.08 25.383 Q1957.95 21.5346 1953.25 19.6307 Q1948.59 17.7268 1943.32 17.7268 Q1932.95 17.7268 1927.44 24.0867 Q1921.93 30.4061 1921.93 42.3968 Q1921.93 54.3469 1927.44 60.7069 Q1932.95 67.0263 1943.32 67.0263 Q1948.59 67.0263 1953.25 65.1223 Q1957.95 63.2184 1962.08 59.3701 L1962.08 67.9175 Q1957.78 70.8341 1952.96 72.2924 Q1948.18 73.7508 1942.84 73.7508 Q1929.1 73.7508 1921.2 65.3654 Q1913.3 56.9395 1913.3 42.3968 Q1913.3 27.8135 1921.2 19.4281 Q1929.1 11.0023 1942.84 11.0023 Q1948.26 11.0023 1953.04 12.4606 Q1957.86 13.8784 1962.08 16.7545 Z" fill="#000000" fill-rule="evenodd" fill-opacity="1" /><path clip-path="url(#clip580)" d="M1982.9 18.8205 L1982.9 41.5461 L1993.19 41.5461 Q1998.9 41.5461 2002.02 38.5889 Q2005.14 35.6318 2005.14 30.163 Q2005.14 24.7348 2002.02 21.7777 Q1998.9 18.8205 1993.19 18.8205 L1982.9 18.8205 M1974.72 12.096 L1993.19 12.096 Q2003.36 12.096 2008.54 16.714 Q2013.77 21.2916 2013.77 30.163 Q2013.77 39.1155 2008.54 43.6931 Q2003.36 48.2706 1993.19 48.2706 L1982.9 48.2706 L1982.9 72.576 L1974.72 72.576 L1974.72 12.096 Z" fill="#000000" fill-rule="evenodd" fill-opacity="1" /><polyline clip-path="url(#clip582)" style="stroke:#0000ff; stroke-linecap:butt; stroke-linejoin:round; stroke-width:4; stroke-opacity:1; fill:none" points="
  282.975,963.102 374.316,963.842 465.657,963.785 556.997,963.785 648.338,963.272 739.679,963.728 831.02,963.386 922.36,960.961 1013.7,866.954 1105.04,858.617 
  1196.38,807.621 1287.72,742.928 1379.06,706.178 1470.4,668.656 1561.75,637.504 1653.09,562.624 1744.43,449.078 1835.77,384.613 1927.11,309.073 2018.45,226.01 
  
  "/>
<circle clip-path="url(#clip582)" cx="282.975" cy="963.102" r="14" fill="#0000ff" fill-rule="evenodd" fill-opacity="1" stroke="#000000" stroke-opacity="1" stroke-width="3.2"/>
<circle clip-path="url(#clip582)" cx="374.316" cy="963.842" r="14" fill="#0000ff" fill-rule="evenodd" fill-opacity="1" stroke="#000000" stroke-opacity="1" stroke-width="3.2"/>
<circle clip-path="url(#clip582)" cx="465.657" cy="963.785" r="14" fill="#0000ff" fill-rule="evenodd" fill-opacity="1" stroke="#000000" stroke-opacity="1" stroke-width="3.2"/>
<circle clip-path="url(#clip582)" cx="556.997" cy="963.785" r="14" fill="#0000ff" fill-rule="evenodd" fill-opacity="1" stroke="#000000" stroke-opacity="1" stroke-width="3.2"/>
<circle clip-path="url(#clip582)" cx="648.338" cy="963.272" r="14" fill="#0000ff" fill-rule="evenodd" fill-opacity="1" stroke="#000000" stroke-opacity="1" stroke-width="3.2"/>
<circle clip-path="url(#clip582)" cx="739.679" cy="963.728" r="14" fill="#0000ff" fill-rule="evenodd" fill-opacity="1" stroke="#000000" stroke-opacity="1" stroke-width="3.2"/>
<circle clip-path="url(#clip582)" cx="831.02" cy="963.386" r="14" fill="#0000ff" fill-rule="evenodd" fill-opacity="1" stroke="#000000" stroke-opacity="1" stroke-width="3.2"/>
<circle clip-path="url(#clip582)" cx="922.36" cy="960.961" r="14" fill="#0000ff" fill-rule="evenodd" fill-opacity="1" stroke="#000000" stroke-opacity="1" stroke-width="3.2"/>
<circle clip-path="url(#clip582)" cx="1013.7" cy="866.954" r="14" fill="#0000ff" fill-rule="evenodd" fill-opacity="1" stroke="#000000" stroke-opacity="1" stroke-width="3.2"/>
<circle clip-path="url(#clip582)" cx="1105.04" cy="858.617" r="14" fill="#0000ff" fill-rule="evenodd" fill-opacity="1" stroke="#000000" stroke-opacity="1" stroke-width="3.2"/>
<circle clip-path="url(#clip582)" cx="1196.38" cy="807.621" r="14" fill="#0000ff" fill-rule="evenodd" fill-opacity="1" stroke="#000000" stroke-opacity="1" stroke-width="3.2"/>
<circle clip-path="url(#clip582)" cx="1287.72" cy="742.928" r="14" fill="#0000ff" fill-rule="evenodd" fill-opacity="1" stroke="#000000" stroke-opacity="1" stroke-width="3.2"/>
<circle clip-path="url(#clip582)" cx="1379.06" cy="706.178" r="14" fill="#0000ff" fill-rule="evenodd" fill-opacity="1" stroke="#000000" stroke-opacity="1" stroke-width="3.2"/>
<circle clip-path="url(#clip582)" cx="1470.4" cy="668.656" r="14" fill="#0000ff" fill-rule="evenodd" fill-opacity="1" stroke="#000000" stroke-opacity="1" stroke-width="3.2"/>
<circle clip-path="url(#clip582)" cx="1561.75" cy="637.504" r="14" fill="#0000ff" fill-rule="evenodd" fill-opacity="1" stroke="#000000" stroke-opacity="1" stroke-width="3.2"/>
<circle clip-path="url(#clip582)" cx="1653.09" cy="562.624" r="14" fill="#0000ff" fill-rule="evenodd" fill-opacity="1" stroke="#000000" stroke-opacity="1" stroke-width="3.2"/>
<circle clip-path="url(#clip582)" cx="1744.43" cy="449.078" r="14" fill="#0000ff" fill-rule="evenodd" fill-opacity="1" stroke="#000000" stroke-opacity="1" stroke-width="3.2"/>
<circle clip-path="url(#clip582)" cx="1835.77" cy="384.613" r="14" fill="#0000ff" fill-rule="evenodd" fill-opacity="1" stroke="#000000" stroke-opacity="1" stroke-width="3.2"/>
<circle clip-path="url(#clip582)" cx="1927.11" cy="309.073" r="14" fill="#0000ff" fill-rule="evenodd" fill-opacity="1" stroke="#000000" stroke-opacity="1" stroke-width="3.2"/>
<circle clip-path="url(#clip582)" cx="2018.45" cy="226.01" r="14" fill="#0000ff" fill-rule="evenodd" fill-opacity="1" stroke="#000000" stroke-opacity="1" stroke-width="3.2"/>
<polyline clip-path="url(#clip582)" style="stroke:#ff0000; stroke-linecap:butt; stroke-linejoin:round; stroke-width:4; stroke-opacity:1; fill:none" points="
  282.975,1318.99 374.316,1318.99 465.657,1318.99 556.997,1318.99 648.338,1318.27 739.679,1316.83 831.02,1309.2 922.36,1265.98 1013.7,1259.21 1105.04,1254.11 
  1196.38,1244.43 1287.72,1225.4 1379.06,1208.32 1470.4,1177.52 1561.75,1137.51 1653.09,1091.3 1744.43,1026.7 1835.77,955.64 1927.11,870.362 2018.45,783.631 
  2109.79,692.103 2201.13,598.17 2292.47,502.369 
  "/>
<circle clip-path="url(#clip582)" cx="282.975" cy="1318.99" r="14" fill="#ff0000" fill-rule="evenodd" fill-opacity="1" stroke="#000000" stroke-opacity="1" stroke-width="3.2"/>
<circle clip-path="url(#clip582)" cx="374.316" cy="1318.99" r="14" fill="#ff0000" fill-rule="evenodd" fill-opacity="1" stroke="#000000" stroke-opacity="1" stroke-width="3.2"/>
<circle clip-path="url(#clip582)" cx="465.657" cy="1318.99" r="14" fill="#ff0000" fill-rule="evenodd" fill-opacity="1" stroke="#000000" stroke-opacity="1" stroke-width="3.2"/>
<circle clip-path="url(#clip582)" cx="556.997" cy="1318.99" r="14" fill="#ff0000" fill-rule="evenodd" fill-opacity="1" stroke="#000000" stroke-opacity="1" stroke-width="3.2"/>
<circle clip-path="url(#clip582)" cx="648.338" cy="1318.27" r="14" fill="#ff0000" fill-rule="evenodd" fill-opacity="1" stroke="#000000" stroke-opacity="1" stroke-width="3.2"/>
<circle clip-path="url(#clip582)" cx="739.679" cy="1316.83" r="14" fill="#ff0000" fill-rule="evenodd" fill-opacity="1" stroke="#000000" stroke-opacity="1" stroke-width="3.2"/>
<circle clip-path="url(#clip582)" cx="831.02" cy="1309.2" r="14" fill="#ff0000" fill-rule="evenodd" fill-opacity="1" stroke="#000000" stroke-opacity="1" stroke-width="3.2"/>
<circle clip-path="url(#clip582)" cx="922.36" cy="1265.98" r="14" fill="#ff0000" fill-rule="evenodd" fill-opacity="1" stroke="#000000" stroke-opacity="1" stroke-width="3.2"/>
<circle clip-path="url(#clip582)" cx="1013.7" cy="1259.21" r="14" fill="#ff0000" fill-rule="evenodd" fill-opacity="1" stroke="#000000" stroke-opacity="1" stroke-width="3.2"/>
<circle clip-path="url(#clip582)" cx="1105.04" cy="1254.11" r="14" fill="#ff0000" fill-rule="evenodd" fill-opacity="1" stroke="#000000" stroke-opacity="1" stroke-width="3.2"/>
<circle clip-path="url(#clip582)" cx="1196.38" cy="1244.43" r="14" fill="#ff0000" fill-rule="evenodd" fill-opacity="1" stroke="#000000" stroke-opacity="1" stroke-width="3.2"/>
<circle clip-path="url(#clip582)" cx="1287.72" cy="1225.4" r="14" fill="#ff0000" fill-rule="evenodd" fill-opacity="1" stroke="#000000" stroke-opacity="1" stroke-width="3.2"/>
<circle clip-path="url(#clip582)" cx="1379.06" cy="1208.32" r="14" fill="#ff0000" fill-rule="evenodd" fill-opacity="1" stroke="#000000" stroke-opacity="1" stroke-width="3.2"/>
<circle clip-path="url(#clip582)" cx="1470.4" cy="1177.52" r="14" fill="#ff0000" fill-rule="evenodd" fill-opacity="1" stroke="#000000" stroke-opacity="1" stroke-width="3.2"/>
<circle clip-path="url(#clip582)" cx="1561.75" cy="1137.51" r="14" fill="#ff0000" fill-rule="evenodd" fill-opacity="1" stroke="#000000" stroke-opacity="1" stroke-width="3.2"/>
<circle clip-path="url(#clip582)" cx="1653.09" cy="1091.3" r="14" fill="#ff0000" fill-rule="evenodd" fill-opacity="1" stroke="#000000" stroke-opacity="1" stroke-width="3.2"/>
<circle clip-path="url(#clip582)" cx="1744.43" cy="1026.7" r="14" fill="#ff0000" fill-rule="evenodd" fill-opacity="1" stroke="#000000" stroke-opacity="1" stroke-width="3.2"/>
<circle clip-path="url(#clip582)" cx="1835.77" cy="955.64" r="14" fill="#ff0000" fill-rule="evenodd" fill-opacity="1" stroke="#000000" stroke-opacity="1" stroke-width="3.2"/>
<circle clip-path="url(#clip582)" cx="1927.11" cy="870.362" r="14" fill="#ff0000" fill-rule="evenodd" fill-opacity="1" stroke="#000000" stroke-opacity="1" stroke-width="3.2"/>
<circle clip-path="url(#clip582)" cx="2018.45" cy="783.631" r="14" fill="#ff0000" fill-rule="evenodd" fill-opacity="1" stroke="#000000" stroke-opacity="1" stroke-width="3.2"/>
<circle clip-path="url(#clip582)" cx="2109.79" cy="692.103" r="14" fill="#ff0000" fill-rule="evenodd" fill-opacity="1" stroke="#000000" stroke-opacity="1" stroke-width="3.2"/>
<circle clip-path="url(#clip582)" cx="2201.13" cy="598.17" r="14" fill="#ff0000" fill-rule="evenodd" fill-opacity="1" stroke="#000000" stroke-opacity="1" stroke-width="3.2"/>
<circle clip-path="url(#clip582)" cx="2292.47" cy="502.369" r="14" fill="#ff0000" fill-rule="evenodd" fill-opacity="1" stroke="#000000" stroke-opacity="1" stroke-width="3.2"/>
<path clip-path="url(#clip580)" d="
M293.693 321.906 L757.796 321.906 L757.796 166.386 L293.693 166.386  Z
  " fill="#ffffff" fill-rule="evenodd" fill-opacity="1"/>
<polyline clip-path="url(#clip580)" style="stroke:#000000; stroke-linecap:butt; stroke-linejoin:round; stroke-width:4; stroke-opacity:1; fill:none" points="
  293.693,321.906 757.796,321.906 757.796,166.386 293.693,166.386 293.693,321.906 
  "/>
<polyline clip-path="url(#clip580)" style="stroke:#0000ff; stroke-linecap:butt; stroke-linejoin:round; stroke-width:4; stroke-opacity:1; fill:none" points="
  317.36,218.226 459.364,218.226 
  "/>
<path clip-path="url(#clip580)" d="M483.032 200.946 L512.268 200.946 L512.268 204.881 L499.999 204.881 L499.999 235.506 L495.3 235.506 L495.3 204.881 L483.032 204.881 L483.032 200.946 Z" fill="#000000" fill-rule="evenodd" fill-opacity="1" /><path clip-path="url(#clip580)" d="M539.883 203.608 L539.883 208.539 Q537.522 206.34 534.837 205.252 Q532.175 204.164 529.166 204.164 Q523.24 204.164 520.092 207.798 Q516.944 211.409 516.944 218.261 Q516.944 225.09 520.092 228.724 Q523.24 232.335 529.166 232.335 Q532.175 232.335 534.837 231.247 Q537.522 230.159 539.883 227.96 L539.883 232.844 Q537.43 234.511 534.675 235.344 Q531.943 236.178 528.888 236.178 Q521.041 236.178 516.527 231.386 Q512.013 226.571 512.013 218.261 Q512.013 209.928 516.527 205.136 Q521.041 200.321 528.888 200.321 Q531.99 200.321 534.721 201.155 Q537.476 201.965 539.883 203.608 Z" fill="#000000" fill-rule="evenodd" fill-opacity="1" /><path clip-path="url(#clip580)" d="M551.781 204.789 L551.781 217.775 L557.661 217.775 Q560.925 217.775 562.707 216.085 Q564.49 214.395 564.49 211.27 Q564.49 208.168 562.707 206.479 Q560.925 204.789 557.661 204.789 L551.781 204.789 M547.105 200.946 L557.661 200.946 Q563.471 200.946 566.434 203.585 Q569.42 206.201 569.42 211.27 Q569.42 216.386 566.434 219.002 Q563.471 221.617 557.661 221.617 L551.781 221.617 L551.781 235.506 L547.105 235.506 L547.105 200.946 Z" fill="#000000" fill-rule="evenodd" fill-opacity="1" /><polyline clip-path="url(#clip580)" style="stroke:#ff0000; stroke-linecap:butt; stroke-linejoin:round; stroke-width:4; stroke-opacity:1; fill:none" points="
  317.36,270.066 459.364,270.066 
  "/>
<path clip-path="url(#clip580)" d="M483.032 252.786 L487.708 252.786 L487.708 287.346 L483.032 287.346 L483.032 252.786 Z" fill="#000000" fill-rule="evenodd" fill-opacity="1" /><path clip-path="url(#clip580)" d="M518.379 271.698 L518.379 287.346 L514.119 287.346 L514.119 271.837 Q514.119 268.157 512.684 266.328 Q511.249 264.499 508.379 264.499 Q504.93 264.499 502.939 266.698 Q500.948 268.897 500.948 272.694 L500.948 287.346 L496.666 287.346 L496.666 261.42 L500.948 261.42 L500.948 265.448 Q502.476 263.11 504.536 261.953 Q506.62 260.795 509.328 260.795 Q513.795 260.795 516.087 263.573 Q518.379 266.328 518.379 271.698 Z" fill="#000000" fill-rule="evenodd" fill-opacity="1" /><path clip-path="url(#clip580)" d="M539.999 251.328 L539.999 254.87 L535.925 254.87 Q533.633 254.87 532.73 255.796 Q531.851 256.721 531.851 259.129 L531.851 261.42 L538.865 261.42 L538.865 264.731 L531.851 264.731 L531.851 287.346 L527.568 287.346 L527.568 264.731 L523.494 264.731 L523.494 261.42 L527.568 261.42 L527.568 259.615 Q527.568 255.286 529.582 253.319 Q531.596 251.328 535.971 251.328 L539.999 251.328 Z" fill="#000000" fill-rule="evenodd" fill-opacity="1" /><path clip-path="url(#clip580)" d="M543.564 261.42 L547.823 261.42 L547.823 287.346 L543.564 287.346 L543.564 261.42 M543.564 251.328 L547.823 251.328 L547.823 256.721 L543.564 256.721 L543.564 251.328 Z" fill="#000000" fill-rule="evenodd" fill-opacity="1" /><path clip-path="url(#clip580)" d="M578.286 271.698 L578.286 287.346 L574.027 287.346 L574.027 271.837 Q574.027 268.157 572.591 266.328 Q571.156 264.499 568.286 264.499 Q564.837 264.499 562.846 266.698 Q560.855 268.897 560.855 272.694 L560.855 287.346 L556.573 287.346 L556.573 261.42 L560.855 261.42 L560.855 265.448 Q562.383 263.11 564.443 261.953 Q566.527 260.795 569.235 260.795 Q573.702 260.795 575.994 263.573 Q578.286 266.328 578.286 271.698 Z" fill="#000000" fill-rule="evenodd" fill-opacity="1" /><path clip-path="url(#clip580)" d="M586.781 261.42 L591.04 261.42 L591.04 287.346 L586.781 287.346 L586.781 261.42 M586.781 251.328 L591.04 251.328 L591.04 256.721 L586.781 256.721 L586.781 251.328 Z" fill="#000000" fill-rule="evenodd" fill-opacity="1" /><path clip-path="url(#clip580)" d="M618.563 274.407 Q618.563 269.707 616.619 267.045 Q614.698 264.36 611.318 264.36 Q607.938 264.36 605.994 267.045 Q604.073 269.707 604.073 274.407 Q604.073 279.106 605.994 281.791 Q607.938 284.453 611.318 284.453 Q614.698 284.453 616.619 281.791 Q618.563 279.106 618.563 274.407 M604.073 265.356 Q605.415 263.041 607.452 261.93 Q609.512 260.795 612.36 260.795 Q617.082 260.795 620.022 264.545 Q622.985 268.295 622.985 274.407 Q622.985 280.518 620.022 284.268 Q617.082 288.018 612.36 288.018 Q609.512 288.018 607.452 286.906 Q605.415 285.772 604.073 283.457 L604.073 287.346 L599.79 287.346 L599.79 251.328 L604.073 251.328 L604.073 265.356 Z" fill="#000000" fill-rule="evenodd" fill-opacity="1" /><path clip-path="url(#clip580)" d="M641.827 274.314 Q636.665 274.314 634.674 275.494 Q632.684 276.675 632.684 279.522 Q632.684 281.791 634.165 283.133 Q635.67 284.453 638.239 284.453 Q641.781 284.453 643.91 281.953 Q646.063 279.43 646.063 275.263 L646.063 274.314 L641.827 274.314 M650.322 272.555 L650.322 287.346 L646.063 287.346 L646.063 283.411 Q644.605 285.772 642.429 286.906 Q640.253 288.018 637.105 288.018 Q633.123 288.018 630.762 285.795 Q628.424 283.55 628.424 279.8 Q628.424 275.425 631.341 273.203 Q634.281 270.981 640.091 270.981 L646.063 270.981 L646.063 270.564 Q646.063 267.624 644.119 266.027 Q642.197 264.407 638.702 264.407 Q636.48 264.407 634.373 264.939 Q632.267 265.471 630.323 266.536 L630.323 262.601 Q632.661 261.698 634.86 261.258 Q637.059 260.795 639.142 260.795 Q644.767 260.795 647.545 263.712 Q650.322 266.629 650.322 272.555 Z" fill="#000000" fill-rule="evenodd" fill-opacity="1" /><path clip-path="url(#clip580)" d="M680.646 271.698 L680.646 287.346 L676.387 287.346 L676.387 271.837 Q676.387 268.157 674.952 266.328 Q673.517 264.499 670.646 264.499 Q667.197 264.499 665.207 266.698 Q663.216 268.897 663.216 272.694 L663.216 287.346 L658.934 287.346 L658.934 261.42 L663.216 261.42 L663.216 265.448 Q664.744 263.11 666.804 261.953 Q668.887 260.795 671.595 260.795 Q676.063 260.795 678.355 263.573 Q680.646 266.328 680.646 271.698 Z" fill="#000000" fill-rule="evenodd" fill-opacity="1" /><path clip-path="url(#clip580)" d="M706.202 265.356 L706.202 251.328 L710.461 251.328 L710.461 287.346 L706.202 287.346 L706.202 283.457 Q704.859 285.772 702.799 286.906 Q700.762 288.018 697.892 288.018 Q693.193 288.018 690.23 284.268 Q687.29 280.518 687.29 274.407 Q687.29 268.295 690.23 264.545 Q693.193 260.795 697.892 260.795 Q700.762 260.795 702.799 261.93 Q704.859 263.041 706.202 265.356 M691.688 274.407 Q691.688 279.106 693.609 281.791 Q695.554 284.453 698.933 284.453 Q702.313 284.453 704.257 281.791 Q706.202 279.106 706.202 274.407 Q706.202 269.707 704.257 267.045 Q702.313 264.36 698.933 264.36 Q695.554 264.36 693.609 267.045 Q691.688 269.707 691.688 274.407 Z" fill="#000000" fill-rule="evenodd" fill-opacity="1" /></svg>
