<?xml version="1.0" encoding="utf-8"?>
<svg xmlns="http://www.w3.org/2000/svg" xmlns:xlink="http://www.w3.org/1999/xlink" width="600" height="400" viewBox="0 0 2400 1600">
<defs>
  <clipPath id="clip540">
    <rect x="0" y="0" width="2400" height="1600"/>
  </clipPath>
</defs>
<path clip-path="url(#clip540)" d="
M0 1600 L2400 1600 L2400 0 L0 0  Z
  " fill="#ffffff" fill-rule="evenodd" fill-opacity="1"/>
<defs>
  <clipPath id="clip541">
    <rect x="480" y="0" width="1681" height="1600"/>
  </clipPath>
</defs>
<path clip-path="url(#clip540)" d="
M235.283 1410.9 L2352.76 1410.9 L2352.76 123.472 L235.283 123.472  Z
  " fill="#ffffff" fill-rule="evenodd" fill-opacity="1"/>
<defs>
  <clipPath id="clip542">
    <rect x="235" y="123" width="2118" height="1288"/>
  </clipPath>
</defs>
<polyline clip-path="url(#clip542)" style="stroke:#000000; stroke-linecap:butt; stroke-linejoin:round; stroke-width:2; stroke-opacity:0.1; fill:none" points="
  295.211,1410.9 295.211,123.472 
  "/>
<polyline clip-path="url(#clip542)" style="stroke:#000000; stroke-linecap:butt; stroke-linejoin:round; stroke-width:2; stroke-opacity:0.1; fill:none" points="
  596.845,1410.9 596.845,123.472 
  "/>
<polyline clip-path="url(#clip542)" style="stroke:#000000; stroke-linecap:butt; stroke-linejoin:round; stroke-width:2; stroke-opacity:0.1; fill:none" points="
  898.478,1410.9 898.478,123.472 
  "/>
<polyline clip-path="url(#clip542)" style="stroke:#000000; stroke-linecap:butt; stroke-linejoin:round; stroke-width:2; stroke-opacity:0.1; fill:none" points="
  1200.11,1410.9 1200.11,123.472 
  "/>
<polyline clip-path="url(#clip542)" style="stroke:#000000; stroke-linecap:butt; stroke-linejoin:round; stroke-width:2; stroke-opacity:0.1; fill:none" points="
  1501.75,1410.9 1501.75,123.472 
  "/>
<polyline clip-path="url(#clip542)" style="stroke:#000000; stroke-linecap:butt; stroke-linejoin:round; stroke-width:2; stroke-opacity:0.1; fill:none" points="
  1803.38,1410.9 1803.38,123.472 
  "/>
<polyline clip-path="url(#clip542)" style="stroke:#000000; stroke-linecap:butt; stroke-linejoin:round; stroke-width:2; stroke-opacity:0.1; fill:none" points="
  2105.01,1410.9 2105.01,123.472 
  "/>
<polyline clip-path="url(#clip540)" style="stroke:#000000; stroke-linecap:butt; stroke-linejoin:round; stroke-width:4; stroke-opacity:1; fill:none" points="
  235.283,1410.9 2352.76,1410.9 
  "/>
<polyline clip-path="url(#clip540)" style="stroke:#000000; stroke-linecap:butt; stroke-linejoin:round; stroke-width:4; stroke-opacity:1; fill:none" points="
  295.211,1410.9 295.211,1392 
  "/>
<polyline clip-path="url(#clip540)" style="stroke:#000000; stroke-linecap:butt; stroke-linejoin:round; stroke-width:4; stroke-opacity:1; fill:none" points="
  596.845,1410.9 596.845,1392 
  "/>
<polyline clip-path="url(#clip540)" style="stroke:#000000; stroke-linecap:butt; stroke-linejoin:round; stroke-width:4; stroke-opacity:1; fill:none" points="
  898.478,1410.9 898.478,1392 
  "/>
<polyline clip-path="url(#clip540)" style="stroke:#000000; stroke-linecap:butt; stroke-linejoin:round; stroke-width:4; stroke-opacity:1; fill:none" points="
  1200.11,1410.9 1200.11,1392 
  "/>
<polyline clip-path="url(#clip540)" style="stroke:#000000; stroke-linecap:butt; stroke-linejoin:round; stroke-width:4; stroke-opacity:1; fill:none" points="
  1501.75,1410.9 1501.75,1392 
  "/>
<polyline clip-path="url(#clip540)" style="stroke:#000000; stroke-linecap:butt; stroke-linejoin:round; stroke-width:4; stroke-opacity:1; fill:none" points="
  1803.38,1410.9 1803.38,1392 
  "/>
<polyline clip-path="url(#clip540)" style="stroke:#000000; stroke-linecap:butt; stroke-linejoin:round; stroke-width:4; stroke-opacity:1; fill:none" points="
  2105.01,1410.9 2105.01,1392 
  "/>
<path clip-path="url(#clip540)" d="M260.194 1485.02 L267.833 1485.02 L267.833 1458.66 L259.523 1460.32 L259.523 1456.06 L267.787 1454.4 L272.463 1454.4 L272.463 1485.02 L280.101 1485.02 L280.101 1488.96 L260.194 1488.96 L260.194 1485.02 Z" fill="#000000" fill-rule="evenodd" fill-opacity="1" /><path clip-path="url(#clip540)" d="M299.546 1457.48 Q295.935 1457.48 294.106 1461.04 Q292.3 1464.58 292.3 1471.71 Q292.3 1478.82 294.106 1482.38 Q295.935 1485.92 299.546 1485.92 Q303.18 1485.92 304.986 1482.38 Q306.814 1478.82 306.814 1471.71 Q306.814 1464.58 304.986 1461.04 Q303.18 1457.48 299.546 1457.48 M299.546 1453.77 Q305.356 1453.77 308.411 1458.38 Q311.49 1462.96 311.49 1471.71 Q311.49 1480.44 308.411 1485.04 Q305.356 1489.63 299.546 1489.63 Q293.736 1489.63 290.657 1485.04 Q287.601 1480.44 287.601 1471.71 Q287.601 1462.96 290.657 1458.38 Q293.736 1453.77 299.546 1453.77 Z" fill="#000000" fill-rule="evenodd" fill-opacity="1" /><path clip-path="url(#clip540)" d="M321.195 1435.97 Q318.261 1435.97 316.775 1438.86 Q315.308 1441.74 315.308 1447.53 Q315.308 1453.31 316.775 1456.2 Q318.261 1459.08 321.195 1459.08 Q324.148 1459.08 325.615 1456.2 Q327.101 1453.31 327.101 1447.53 Q327.101 1441.74 325.615 1438.86 Q324.148 1435.97 321.195 1435.97 M321.195 1432.96 Q325.916 1432.96 328.398 1436.7 Q330.9 1440.43 330.9 1447.53 Q330.9 1454.62 328.398 1458.37 Q325.916 1462.09 321.195 1462.09 Q316.474 1462.09 313.973 1458.37 Q311.49 1454.62 311.49 1447.53 Q311.49 1440.43 313.973 1436.7 Q316.474 1432.96 321.195 1432.96 Z" fill="#000000" fill-rule="evenodd" fill-opacity="1" /><path clip-path="url(#clip540)" d="M563.172 1485.02 L570.811 1485.02 L570.811 1458.66 L562.501 1460.32 L562.501 1456.06 L570.765 1454.4 L575.441 1454.4 L575.441 1485.02 L583.08 1485.02 L583.08 1488.96 L563.172 1488.96 L563.172 1485.02 Z" fill="#000000" fill-rule="evenodd" fill-opacity="1" /><path clip-path="url(#clip540)" d="M602.524 1457.48 Q598.913 1457.48 597.084 1461.04 Q595.279 1464.58 595.279 1471.71 Q595.279 1478.82 597.084 1482.38 Q598.913 1485.92 602.524 1485.92 Q606.158 1485.92 607.964 1482.38 Q609.793 1478.82 609.793 1471.71 Q609.793 1464.58 607.964 1461.04 Q606.158 1457.48 602.524 1457.48 M602.524 1453.77 Q608.334 1453.77 611.39 1458.38 Q614.468 1462.96 614.468 1471.71 Q614.468 1480.44 611.39 1485.04 Q608.334 1489.63 602.524 1489.63 Q596.714 1489.63 593.635 1485.04 Q590.58 1480.44 590.58 1471.71 Q590.58 1462.96 593.635 1458.38 Q596.714 1453.77 602.524 1453.77 Z" fill="#000000" fill-rule="evenodd" fill-opacity="1" /><path clip-path="url(#clip540)" d="M615.014 1458.35 L621.22 1458.35 L621.22 1436.93 L614.468 1438.28 L614.468 1434.82 L621.183 1433.47 L624.982 1433.47 L624.982 1458.35 L631.189 1458.35 L631.189 1461.55 L615.014 1461.55 L615.014 1458.35 Z" fill="#000000" fill-rule="evenodd" fill-opacity="1" /><path clip-path="url(#clip540)" d="M864.251 1485.02 L871.89 1485.02 L871.89 1458.66 L863.58 1460.32 L863.58 1456.06 L871.844 1454.4 L876.52 1454.4 L876.52 1485.02 L884.158 1485.02 L884.158 1488.96 L864.251 1488.96 L864.251 1485.02 Z" fill="#000000" fill-rule="evenodd" fill-opacity="1" /><path clip-path="url(#clip540)" d="M903.603 1457.48 Q899.992 1457.48 898.163 1461.04 Q896.357 1464.58 896.357 1471.71 Q896.357 1478.82 898.163 1482.38 Q899.992 1485.92 903.603 1485.92 Q907.237 1485.92 909.043 1482.38 Q910.871 1478.82 910.871 1471.71 Q910.871 1464.58 909.043 1461.04 Q907.237 1457.48 903.603 1457.48 M903.603 1453.77 Q909.413 1453.77 912.468 1458.38 Q915.547 1462.96 915.547 1471.71 Q915.547 1480.44 912.468 1485.04 Q909.413 1489.63 903.603 1489.63 Q897.793 1489.63 894.714 1485.04 Q891.658 1480.44 891.658 1471.71 Q891.658 1462.96 894.714 1458.38 Q897.793 1453.77 903.603 1453.77 Z" fill="#000000" fill-rule="evenodd" fill-opacity="1" /><path clip-path="url(#clip540)" d="M920.117 1458.35 L933.377 1458.35 L933.377 1461.55 L915.547 1461.55 L915.547 1458.35 Q917.71 1456.11 921.434 1452.35 Q925.177 1448.57 926.136 1447.48 Q927.96 1445.43 928.675 1444.02 Q929.408 1442.59 929.408 1441.22 Q929.408 1438.98 927.829 1437.57 Q926.268 1436.16 923.747 1436.16 Q921.961 1436.16 919.967 1436.78 Q917.992 1437.4 915.735 1438.66 L915.735 1434.82 Q918.03 1433.9 920.023 1433.43 Q922.017 1432.96 923.672 1432.96 Q928.035 1432.96 930.631 1435.14 Q933.226 1437.32 933.226 1440.97 Q933.226 1442.7 932.568 1444.26 Q931.929 1445.8 930.217 1447.91 Q929.747 1448.46 927.227 1451.07 Q924.706 1453.67 920.117 1458.35 Z" fill="#000000" fill-rule="evenodd" fill-opacity="1" /><path clip-path="url(#clip540)" d="M1165.56 1485.02 L1173.19 1485.02 L1173.19 1458.66 L1164.88 1460.32 L1164.88 1456.06 L1173.15 1454.4 L1177.82 1454.4 L1177.82 1485.02 L1185.46 1485.02 L1185.46 1488.96 L1165.56 1488.96 L1165.56 1485.02 Z" fill="#000000" fill-rule="evenodd" fill-opacity="1" /><path clip-path="url(#clip540)" d="M1204.91 1457.48 Q1201.3 1457.48 1199.47 1461.04 Q1197.66 1464.58 1197.66 1471.71 Q1197.66 1478.82 1199.47 1482.38 Q1201.3 1485.92 1204.91 1485.92 Q1208.54 1485.92 1210.35 1482.38 Q1212.18 1478.82 1212.18 1471.71 Q1212.18 1464.58 1210.35 1461.04 Q1208.54 1457.48 1204.91 1457.48 M1204.91 1453.77 Q1210.72 1453.77 1213.77 1458.38 Q1216.85 1462.96 1216.85 1471.71 Q1216.85 1480.44 1213.77 1485.04 Q1210.72 1489.63 1204.91 1489.63 Q1199.1 1489.63 1196.02 1485.04 Q1192.96 1480.44 1192.96 1471.71 Q1192.96 1462.96 1196.02 1458.38 Q1199.1 1453.77 1204.91 1453.77 Z" fill="#000000" fill-rule="evenodd" fill-opacity="1" /><path clip-path="url(#clip540)" d="M1229.55 1446.41 Q1232.27 1446.99 1233.8 1448.83 Q1235.34 1450.68 1235.34 1453.38 Q1235.34 1457.54 1232.48 1459.82 Q1229.62 1462.09 1224.36 1462.09 Q1222.59 1462.09 1220.71 1461.73 Q1218.85 1461.4 1216.85 1460.7 L1216.85 1457.03 Q1218.43 1457.95 1220.31 1458.42 Q1222.19 1458.89 1224.24 1458.89 Q1227.82 1458.89 1229.68 1457.48 Q1231.56 1456.07 1231.56 1453.38 Q1231.56 1450.9 1229.81 1449.51 Q1228.08 1448.1 1224.98 1448.1 L1221.7 1448.1 L1221.7 1444.98 L1225.13 1444.98 Q1227.93 1444.98 1229.42 1443.87 Q1230.9 1442.74 1230.9 1440.63 Q1230.9 1438.47 1229.36 1437.32 Q1227.84 1436.16 1224.98 1436.16 Q1223.42 1436.16 1221.63 1436.49 Q1219.84 1436.83 1217.7 1437.55 L1217.7 1434.16 Q1219.86 1433.56 1221.74 1433.26 Q1223.64 1432.96 1225.31 1432.96 Q1229.64 1432.96 1232.16 1434.93 Q1234.68 1436.89 1234.68 1440.24 Q1234.68 1442.57 1233.35 1444.19 Q1232.01 1445.79 1229.55 1446.41 Z" fill="#000000" fill-rule="evenodd" fill-opacity="1" /><path clip-path="url(#clip540)" d="M1466.2 1485.02 L1473.84 1485.02 L1473.84 1458.66 L1465.53 1460.32 L1465.53 1456.06 L1473.79 1454.4 L1478.47 1454.4 L1478.47 1485.02 L1486.11 1485.02 L1486.11 1488.96 L1466.2 1488.96 L1466.2 1485.02 Z" fill="#000000" fill-rule="evenodd" fill-opacity="1" /><path clip-path="url(#clip540)" d="M1505.55 1457.48 Q1501.94 1457.48 1500.11 1461.04 Q1498.31 1464.58 1498.31 1471.71 Q1498.31 1478.82 1500.11 1482.38 Q1501.94 1485.92 1505.55 1485.92 Q1509.19 1485.92 1510.99 1482.38 Q1512.82 1478.82 1512.82 1471.71 Q1512.82 1464.58 1510.99 1461.04 Q1509.19 1457.48 1505.55 1457.48 M1505.55 1453.77 Q1511.36 1453.77 1514.42 1458.38 Q1517.5 1462.96 1517.5 1471.71 Q1517.5 1480.44 1514.42 1485.04 Q1511.36 1489.63 1505.55 1489.63 Q1499.74 1489.63 1496.66 1485.04 Q1493.61 1480.44 1493.61 1471.71 Q1493.61 1462.96 1496.66 1458.38 Q1499.74 1453.77 1505.55 1453.77 Z" fill="#000000" fill-rule="evenodd" fill-opacity="1" /><path clip-path="url(#clip540)" d="M1530.17 1436.78 L1520.58 1451.77 L1530.17 1451.77 L1530.17 1436.78 M1529.18 1433.47 L1533.95 1433.47 L1533.95 1451.77 L1537.96 1451.77 L1537.96 1454.93 L1533.95 1454.93 L1533.95 1461.55 L1530.17 1461.55 L1530.17 1454.93 L1517.5 1454.93 L1517.5 1451.26 L1529.18 1433.47 Z" fill="#000000" fill-rule="evenodd" fill-opacity="1" /><path clip-path="url(#clip540)" d="M1768.98 1485.02 L1776.62 1485.02 L1776.62 1458.66 L1768.31 1460.32 L1768.31 1456.06 L1776.57 1454.4 L1781.25 1454.4 L1781.25 1485.02 L1788.89 1485.02 L1788.89 1488.96 L1768.98 1488.96 L1768.98 1485.02 Z" fill="#000000" fill-rule="evenodd" fill-opacity="1" /><path clip-path="url(#clip540)" d="M1808.33 1457.48 Q1804.72 1457.48 1802.89 1461.04 Q1801.09 1464.58 1801.09 1471.71 Q1801.09 1478.82 1802.89 1482.38 Q1804.72 1485.92 1808.33 1485.92 Q1811.97 1485.92 1813.77 1482.38 Q1815.6 1478.82 1815.6 1471.71 Q1815.6 1464.58 1813.77 1461.04 Q1811.97 1457.48 1808.33 1457.48 M1808.33 1453.77 Q1814.14 1453.77 1817.2 1458.38 Q1820.28 1462.96 1820.28 1471.71 Q1820.28 1480.44 1817.2 1485.04 Q1814.14 1489.63 1808.33 1489.63 Q1802.52 1489.63 1799.45 1485.04 Q1796.39 1480.44 1796.39 1471.71 Q1796.39 1462.96 1799.45 1458.38 Q1802.52 1453.77 1808.33 1453.77 Z" fill="#000000" fill-rule="evenodd" fill-opacity="1" /><path clip-path="url(#clip540)" d="M1821.46 1433.47 L1836.38 1433.47 L1836.38 1436.66 L1824.94 1436.66 L1824.94 1443.55 Q1825.77 1443.27 1826.6 1443.13 Q1827.43 1442.98 1828.25 1442.98 Q1832.95 1442.98 1835.7 1445.56 Q1838.45 1448.14 1838.45 1452.54 Q1838.45 1457.07 1835.63 1459.59 Q1832.8 1462.09 1827.67 1462.09 Q1825.9 1462.09 1824.06 1461.79 Q1822.23 1461.49 1820.28 1460.89 L1820.28 1457.07 Q1821.97 1457.99 1823.78 1458.44 Q1825.58 1458.89 1827.59 1458.89 Q1830.85 1458.89 1832.75 1457.18 Q1834.65 1455.47 1834.65 1452.54 Q1834.65 1449.6 1832.75 1447.89 Q1830.85 1446.18 1827.59 1446.18 Q1826.07 1446.18 1824.55 1446.52 Q1823.04 1446.86 1821.46 1447.57 L1821.46 1433.47 Z" fill="#000000" fill-rule="evenodd" fill-opacity="1" /><path clip-path="url(#clip540)" d="M2070 1485.02 L2077.64 1485.02 L2077.64 1458.66 L2069.33 1460.32 L2069.33 1456.06 L2077.6 1454.4 L2082.27 1454.4 L2082.27 1485.02 L2089.91 1485.02 L2089.91 1488.96 L2070 1488.96 L2070 1485.02 Z" fill="#000000" fill-rule="evenodd" fill-opacity="1" /><path clip-path="url(#clip540)" d="M2109.36 1457.48 Q2105.75 1457.48 2103.92 1461.04 Q2102.11 1464.58 2102.11 1471.71 Q2102.11 1478.82 2103.92 1482.38 Q2105.75 1485.92 2109.36 1485.92 Q2112.99 1485.92 2114.8 1482.38 Q2116.62 1478.82 2116.62 1471.71 Q2116.62 1464.58 2114.8 1461.04 Q2112.99 1457.48 2109.36 1457.48 M2109.36 1453.77 Q2115.17 1453.77 2118.22 1458.38 Q2121.3 1462.96 2121.3 1471.71 Q2121.3 1480.44 2118.22 1485.04 Q2115.17 1489.63 2109.36 1489.63 Q2103.55 1489.63 2100.47 1485.04 Q2097.41 1480.44 2097.41 1471.71 Q2097.41 1462.96 2100.47 1458.38 Q2103.55 1453.77 2109.36 1453.77 Z" fill="#000000" fill-rule="evenodd" fill-opacity="1" /><path clip-path="url(#clip540)" d="M2131.33 1445.99 Q2128.77 1445.99 2127.26 1447.74 Q2125.78 1449.49 2125.78 1452.54 Q2125.78 1455.57 2127.26 1457.33 Q2128.77 1459.08 2131.33 1459.08 Q2133.88 1459.08 2135.37 1457.33 Q2136.87 1455.57 2136.87 1452.54 Q2136.87 1449.49 2135.37 1447.74 Q2133.88 1445.99 2131.33 1445.99 M2138.87 1434.09 L2138.87 1437.55 Q2137.44 1436.87 2135.97 1436.51 Q2134.52 1436.16 2133.09 1436.16 Q2129.33 1436.16 2127.34 1438.69 Q2125.36 1441.23 2125.08 1446.37 Q2126.19 1444.73 2127.86 1443.87 Q2129.54 1442.98 2131.55 1442.98 Q2135.78 1442.98 2138.23 1445.56 Q2140.69 1448.12 2140.69 1452.54 Q2140.69 1456.86 2138.13 1459.48 Q2135.58 1462.09 2131.33 1462.09 Q2126.45 1462.09 2123.88 1458.37 Q2121.3 1454.62 2121.3 1447.53 Q2121.3 1440.88 2124.46 1436.93 Q2127.62 1432.96 2132.94 1432.96 Q2134.37 1432.96 2135.82 1433.24 Q2137.29 1433.52 2138.87 1434.09 Z" fill="#000000" fill-rule="evenodd" fill-opacity="1" /><path clip-path="url(#clip540)" d="M1052.07 1543.95 L1052.07 1524.66 L1057.93 1524.66 L1057.93 1574.19 L1052.07 1574.19 L1052.07 1568.84 Q1050.23 1572.02 1047.4 1573.58 Q1044.6 1575.11 1040.65 1575.11 Q1034.19 1575.11 1030.11 1569.95 Q1026.07 1564.8 1026.07 1556.39 Q1026.07 1547.99 1030.11 1542.83 Q1034.19 1537.68 1040.65 1537.68 Q1044.6 1537.68 1047.4 1539.24 Q1050.23 1540.77 1052.07 1543.95 M1032.12 1556.39 Q1032.12 1562.85 1034.76 1566.55 Q1037.43 1570.21 1042.08 1570.21 Q1046.73 1570.21 1049.4 1566.55 Q1052.07 1562.85 1052.07 1556.39 Q1052.07 1549.93 1049.4 1546.27 Q1046.73 1542.58 1042.08 1542.58 Q1037.43 1542.58 1034.76 1546.27 Q1032.12 1549.93 1032.12 1556.39 Z" fill="#000000" fill-rule="evenodd" fill-opacity="1" /><path clip-path="url(#clip540)" d="M1086.19 1556.27 Q1079.1 1556.27 1076.36 1557.89 Q1073.62 1559.51 1073.62 1563.43 Q1073.62 1566.55 1075.66 1568.39 Q1077.73 1570.21 1081.26 1570.21 Q1086.13 1570.21 1089.06 1566.77 Q1092.02 1563.3 1092.02 1557.57 L1092.02 1556.27 L1086.19 1556.27 M1097.88 1553.85 L1097.88 1574.19 L1092.02 1574.19 L1092.02 1568.77 Q1090.01 1572.02 1087.02 1573.58 Q1084.03 1575.11 1079.7 1575.11 Q1074.23 1575.11 1070.98 1572.05 Q1067.77 1568.97 1067.77 1563.81 Q1067.77 1557.79 1071.78 1554.74 Q1075.82 1551.68 1083.81 1551.68 L1092.02 1551.68 L1092.02 1551.11 Q1092.02 1547.07 1089.35 1544.87 Q1086.7 1542.64 1081.9 1542.64 Q1078.84 1542.64 1075.95 1543.38 Q1073.05 1544.11 1070.38 1545.57 L1070.38 1540.16 Q1073.59 1538.92 1076.61 1538.31 Q1079.64 1537.68 1082.5 1537.68 Q1090.24 1537.68 1094.06 1541.69 Q1097.88 1545.7 1097.88 1553.85 Z" fill="#000000" fill-rule="evenodd" fill-opacity="1" /><path clip-path="url(#clip540)" d="M1115.73 1528.42 L1115.73 1538.54 L1127.79 1538.54 L1127.79 1543.09 L1115.73 1543.09 L1115.73 1562.44 Q1115.73 1566.8 1116.91 1568.04 Q1118.12 1569.28 1121.78 1569.28 L1127.79 1569.28 L1127.79 1574.19 L1121.78 1574.19 Q1115 1574.19 1112.42 1571.67 Q1109.84 1569.12 1109.84 1562.44 L1109.84 1543.09 L1105.55 1543.09 L1105.55 1538.54 L1109.84 1538.54 L1109.84 1528.42 L1115.73 1528.42 Z" fill="#000000" fill-rule="evenodd" fill-opacity="1" /><path clip-path="url(#clip540)" d="M1151.7 1556.27 Q1144.6 1556.27 1141.86 1557.89 Q1139.13 1559.51 1139.13 1563.43 Q1139.13 1566.55 1141.16 1568.39 Q1143.23 1570.21 1146.76 1570.21 Q1151.63 1570.21 1154.56 1566.77 Q1157.52 1563.3 1157.52 1557.57 L1157.52 1556.27 L1151.7 1556.27 M1163.38 1553.85 L1163.38 1574.19 L1157.52 1574.19 L1157.52 1568.77 Q1155.52 1572.02 1152.53 1573.58 Q1149.53 1575.11 1145.21 1575.11 Q1139.73 1575.11 1136.48 1572.05 Q1133.27 1568.97 1133.27 1563.81 Q1133.27 1557.79 1137.28 1554.74 Q1141.32 1551.68 1149.31 1551.68 L1157.52 1551.68 L1157.52 1551.11 Q1157.52 1547.07 1154.85 1544.87 Q1152.21 1542.64 1147.4 1542.64 Q1144.35 1542.64 1141.45 1543.38 Q1138.55 1544.11 1135.88 1545.57 L1135.88 1540.16 Q1139.09 1538.92 1142.12 1538.31 Q1145.14 1537.68 1148.01 1537.68 Q1155.74 1537.68 1159.56 1541.69 Q1163.38 1545.7 1163.38 1553.85 Z" fill="#000000" fill-rule="evenodd" fill-opacity="1" /><path clip-path="url(#clip540)" d="M1218.89 1539.59 L1218.89 1545.13 Q1216.41 1543.85 1213.73 1543.22 Q1211.06 1542.58 1208.19 1542.58 Q1203.83 1542.58 1201.64 1543.92 Q1199.47 1545.25 1199.47 1547.93 Q1199.47 1549.96 1201.03 1551.14 Q1202.59 1552.29 1207.3 1553.34 L1209.31 1553.78 Q1215.55 1555.12 1218.16 1557.57 Q1220.8 1559.99 1220.8 1564.35 Q1220.8 1569.32 1216.85 1572.21 Q1212.94 1575.11 1206.06 1575.11 Q1203.2 1575.11 1200.08 1574.54 Q1196.99 1573.99 1193.55 1572.88 L1193.55 1566.83 Q1196.8 1568.52 1199.95 1569.38 Q1203.1 1570.21 1206.19 1570.21 Q1210.33 1570.21 1212.55 1568.81 Q1214.78 1567.37 1214.78 1564.8 Q1214.78 1562.41 1213.16 1561.14 Q1211.57 1559.86 1206.12 1558.68 L1204.09 1558.21 Q1198.65 1557.06 1196.23 1554.71 Q1193.81 1552.32 1193.81 1548.18 Q1193.81 1543.15 1197.37 1540.42 Q1200.94 1537.68 1207.49 1537.68 Q1210.74 1537.68 1213.6 1538.16 Q1216.47 1538.63 1218.89 1539.59 Z" fill="#000000" fill-rule="evenodd" fill-opacity="1" /><path clip-path="url(#clip540)" d="M1230.12 1538.54 L1235.98 1538.54 L1235.98 1574.19 L1230.12 1574.19 L1230.12 1538.54 M1230.12 1524.66 L1235.98 1524.66 L1235.98 1532.08 L1230.12 1532.08 L1230.12 1524.66 Z" fill="#000000" fill-rule="evenodd" fill-opacity="1" /><path clip-path="url(#clip540)" d="M1245.69 1538.54 L1273.51 1538.54 L1273.51 1543.88 L1251.48 1569.51 L1273.51 1569.51 L1273.51 1574.19 L1244.89 1574.19 L1244.89 1568.84 L1266.92 1543.22 L1245.69 1543.22 L1245.69 1538.54 Z" fill="#000000" fill-rule="evenodd" fill-opacity="1" /><path clip-path="url(#clip540)" d="M1312.94 1554.9 L1312.94 1557.76 L1286.01 1557.76 Q1286.4 1563.81 1289.64 1566.99 Q1292.92 1570.14 1298.75 1570.14 Q1302.12 1570.14 1305.27 1569.32 Q1308.45 1568.49 1311.57 1566.83 L1311.57 1572.37 Q1308.42 1573.71 1305.11 1574.41 Q1301.8 1575.11 1298.4 1575.11 Q1289.87 1575.11 1284.87 1570.14 Q1279.9 1565.18 1279.9 1556.71 Q1279.9 1547.96 1284.61 1542.83 Q1289.36 1537.68 1297.38 1537.68 Q1304.57 1537.68 1308.74 1542.33 Q1312.94 1546.94 1312.94 1554.9 M1307.08 1553.18 Q1307.02 1548.37 1304.38 1545.51 Q1301.77 1542.64 1297.44 1542.64 Q1292.54 1542.64 1289.58 1545.41 Q1286.65 1548.18 1286.21 1553.21 L1307.08 1553.18 Z" fill="#000000" fill-rule="evenodd" fill-opacity="1" /><path clip-path="url(#clip540)" d="M1357.34 1524.72 Q1353.08 1532.04 1351.01 1539.21 Q1348.94 1546.37 1348.94 1553.72 Q1348.94 1561.07 1351.01 1568.3 Q1353.11 1575.49 1357.34 1582.78 L1352.25 1582.78 Q1347.48 1575.3 1345.09 1568.07 Q1342.73 1560.85 1342.73 1553.72 Q1342.73 1546.62 1345.09 1539.43 Q1347.44 1532.24 1352.25 1524.72 L1357.34 1524.72 Z" fill="#000000" fill-rule="evenodd" fill-opacity="1" /><path clip-path="url(#clip540)" d="M1394.3 1556.39 Q1394.3 1549.93 1391.62 1546.27 Q1388.98 1542.58 1384.33 1542.58 Q1379.69 1542.58 1377.01 1546.27 Q1374.37 1549.93 1374.37 1556.39 Q1374.37 1562.85 1377.01 1566.55 Q1379.69 1570.21 1384.33 1570.21 Q1388.98 1570.21 1391.62 1566.55 Q1394.3 1562.85 1394.3 1556.39 M1374.37 1543.95 Q1376.22 1540.77 1379.02 1539.24 Q1381.85 1537.68 1385.77 1537.68 Q1392.26 1537.68 1396.3 1542.83 Q1400.37 1547.99 1400.37 1556.39 Q1400.37 1564.8 1396.3 1569.95 Q1392.26 1575.11 1385.77 1575.11 Q1381.85 1575.11 1379.02 1573.58 Q1376.22 1572.02 1374.37 1568.84 L1374.37 1574.19 L1368.48 1574.19 L1368.48 1524.66 L1374.37 1524.66 L1374.37 1543.95 Z" fill="#000000" fill-rule="evenodd" fill-opacity="1" /><path clip-path="url(#clip540)" d="M1424.91 1577.5 Q1422.43 1583.86 1420.08 1585.8 Q1417.72 1587.74 1413.77 1587.74 L1409.1 1587.74 L1409.1 1582.84 L1412.53 1582.84 Q1414.95 1582.84 1416.29 1581.7 Q1417.63 1580.55 1419.25 1576.29 L1420.3 1573.61 L1405.88 1538.54 L1412.09 1538.54 L1423.23 1566.42 L1434.37 1538.54 L1440.57 1538.54 L1424.91 1577.5 Z" fill="#000000" fill-rule="evenodd" fill-opacity="1" /><path clip-path="url(#clip540)" d="M1454.45 1528.42 L1454.45 1538.54 L1466.51 1538.54 L1466.51 1543.09 L1454.45 1543.09 L1454.45 1562.44 Q1454.45 1566.8 1455.63 1568.04 Q1456.84 1569.28 1460.5 1569.28 L1466.51 1569.28 L1466.51 1574.19 L1460.5 1574.19 Q1453.72 1574.19 1451.14 1571.67 Q1448.56 1569.12 1448.56 1562.44 L1448.56 1543.09 L1444.27 1543.09 L1444.27 1538.54 L1448.56 1538.54 L1448.56 1528.42 L1454.45 1528.42 Z" fill="#000000" fill-rule="evenodd" fill-opacity="1" /><path clip-path="url(#clip540)" d="M1504.71 1554.9 L1504.71 1557.76 L1477.78 1557.76 Q1478.16 1563.81 1481.41 1566.99 Q1484.69 1570.14 1490.51 1570.14 Q1493.89 1570.14 1497.04 1569.32 Q1500.22 1568.49 1503.34 1566.83 L1503.34 1572.37 Q1500.19 1573.71 1496.88 1574.41 Q1493.57 1575.11 1490.16 1575.11 Q1481.63 1575.11 1476.64 1570.14 Q1471.67 1565.18 1471.67 1556.71 Q1471.67 1547.96 1476.38 1542.83 Q1481.12 1537.68 1489.14 1537.68 Q1496.34 1537.68 1500.51 1542.33 Q1504.71 1546.94 1504.71 1554.9 M1498.85 1553.18 Q1498.79 1548.37 1496.15 1545.51 Q1493.54 1542.64 1489.21 1542.64 Q1484.31 1542.64 1481.35 1545.41 Q1478.42 1548.18 1477.97 1553.21 L1498.85 1553.18 Z" fill="#000000" fill-rule="evenodd" fill-opacity="1" /><path clip-path="url(#clip540)" d="M1537.05 1539.59 L1537.05 1545.13 Q1534.56 1543.85 1531.89 1543.22 Q1529.22 1542.58 1526.35 1542.58 Q1521.99 1542.58 1519.8 1543.92 Q1517.63 1545.25 1517.63 1547.93 Q1517.63 1549.96 1519.19 1551.14 Q1520.75 1552.29 1525.46 1553.34 L1527.47 1553.78 Q1533.7 1555.12 1536.31 1557.57 Q1538.96 1559.99 1538.96 1564.35 Q1538.96 1569.32 1535.01 1572.21 Q1531.09 1575.11 1524.22 1575.11 Q1521.35 1575.11 1518.24 1574.54 Q1515.15 1573.99 1511.71 1572.88 L1511.71 1566.83 Q1514.96 1568.52 1518.11 1569.38 Q1521.26 1570.21 1524.35 1570.21 Q1528.48 1570.21 1530.71 1568.81 Q1532.94 1567.37 1532.94 1564.8 Q1532.94 1562.41 1531.32 1561.14 Q1529.73 1559.86 1524.28 1558.68 L1522.25 1558.21 Q1516.8 1557.06 1514.38 1554.71 Q1511.97 1552.32 1511.97 1548.18 Q1511.97 1543.15 1515.53 1540.42 Q1519.09 1537.68 1525.65 1537.68 Q1528.9 1537.68 1531.76 1538.16 Q1534.63 1538.63 1537.05 1539.59 Z" fill="#000000" fill-rule="evenodd" fill-opacity="1" /><path clip-path="url(#clip540)" d="M1547.36 1524.72 L1552.45 1524.72 Q1557.23 1532.24 1559.58 1539.43 Q1561.97 1546.62 1561.97 1553.72 Q1561.97 1560.85 1559.58 1568.07 Q1557.23 1575.3 1552.45 1582.78 L1547.36 1582.78 Q1551.59 1575.49 1553.66 1568.3 Q1555.76 1561.07 1555.76 1553.72 Q1555.76 1546.37 1553.66 1539.21 Q1551.59 1532.04 1547.36 1524.72 Z" fill="#000000" fill-rule="evenodd" fill-opacity="1" /><polyline clip-path="url(#clip542)" style="stroke:#000000; stroke-linecap:butt; stroke-linejoin:round; stroke-width:2; stroke-opacity:0.1; fill:none" points="
  235.283,1378 2352.76,1378 
  "/>
<polyline clip-path="url(#clip542)" style="stroke:#000000; stroke-linecap:butt; stroke-linejoin:round; stroke-width:2; stroke-opacity:0.1; fill:none" points="
  235.283,1194.81 2352.76,1194.81 
  "/>
<polyline clip-path="url(#clip542)" style="stroke:#000000; stroke-linecap:butt; stroke-linejoin:round; stroke-width:2; stroke-opacity:0.1; fill:none" points="
  235.283,1011.62 2352.76,1011.62 
  "/>
<polyline clip-path="url(#clip542)" style="stroke:#000000; stroke-linecap:butt; stroke-linejoin:round; stroke-width:2; stroke-opacity:0.1; fill:none" points="
  235.283,828.425 2352.76,828.425 
  "/>
<polyline clip-path="url(#clip542)" style="stroke:#000000; stroke-linecap:butt; stroke-linejoin:round; stroke-width:2; stroke-opacity:0.1; fill:none" points="
  235.283,645.235 2352.76,645.235 
  "/>
<polyline clip-path="url(#clip542)" style="stroke:#000000; stroke-linecap:butt; stroke-linejoin:round; stroke-width:2; stroke-opacity:0.1; fill:none" points="
  235.283,462.044 2352.76,462.044 
  "/>
<polyline clip-path="url(#clip542)" style="stroke:#000000; stroke-linecap:butt; stroke-linejoin:round; stroke-width:2; stroke-opacity:0.1; fill:none" points="
  235.283,278.854 2352.76,278.854 
  "/>
<polyline clip-path="url(#clip540)" style="stroke:#000000; stroke-linecap:butt; stroke-linejoin:round; stroke-width:4; stroke-opacity:1; fill:none" points="
  235.283,1410.9 235.283,123.472 
  "/>
<polyline clip-path="url(#clip540)" style="stroke:#000000; stroke-linecap:butt; stroke-linejoin:round; stroke-width:4; stroke-opacity:1; fill:none" points="
  235.283,1378 254.18,1378 
  "/>
<polyline clip-path="url(#clip540)" style="stroke:#000000; stroke-linecap:butt; stroke-linejoin:round; stroke-width:4; stroke-opacity:1; fill:none" points="
  235.283,1194.81 254.18,1194.81 
  "/>
<polyline clip-path="url(#clip540)" style="stroke:#000000; stroke-linecap:butt; stroke-linejoin:round; stroke-width:4; stroke-opacity:1; fill:none" points="
  235.283,1011.62 254.18,1011.62 
  "/>
<polyline clip-path="url(#clip540)" style="stroke:#000000; stroke-linecap:butt; stroke-linejoin:round; stroke-width:4; stroke-opacity:1; fill:none" points="
  235.283,828.425 254.18,828.425 
  "/>
<polyline clip-path="url(#clip540)" style="stroke:#000000; stroke-linecap:butt; stroke-linejoin:round; stroke-width:4; stroke-opacity:1; fill:none" points="
  235.283,645.235 254.18,645.235 
  "/>
<polyline clip-path="url(#clip540)" style="stroke:#000000; stroke-linecap:butt; stroke-linejoin:round; stroke-width:4; stroke-opacity:1; fill:none" points="
  235.283,462.044 254.18,462.044 
  "/>
<polyline clip-path="url(#clip540)" style="stroke:#000000; stroke-linecap:butt; stroke-linejoin:round; stroke-width:4; stroke-opacity:1; fill:none" points="
  235.283,278.854 254.18,278.854 
  "/>
<path clip-path="url(#clip540)" d="M187.338 1363.79 Q183.727 1363.79 181.899 1367.36 Q180.093 1370.9 180.093 1378.03 Q180.093 1385.14 181.899 1388.7 Q183.727 1392.24 187.338 1392.24 Q190.973 1392.24 192.778 1388.7 Q194.607 1385.14 194.607 1378.03 Q194.607 1370.9 192.778 1367.36 Q190.973 1363.79 187.338 1363.79 M187.338 1360.09 Q193.149 1360.09 196.204 1364.7 Q199.283 1369.28 199.283 1378.03 Q199.283 1386.76 196.204 1391.36 Q193.149 1395.95 187.338 1395.95 Q181.528 1395.95 178.45 1391.36 Q175.394 1386.76 175.394 1378.03 Q175.394 1369.28 178.45 1364.7 Q181.528 1360.09 187.338 1360.09 Z" fill="#000000" fill-rule="evenodd" fill-opacity="1" /><path clip-path="url(#clip540)" d="M117.825 1208.15 L125.464 1208.15 L125.464 1181.78 L117.154 1183.45 L117.154 1179.19 L125.418 1177.53 L130.093 1177.53 L130.093 1208.15 L137.732 1208.15 L137.732 1212.09 L117.825 1212.09 L117.825 1208.15 Z" fill="#000000" fill-rule="evenodd" fill-opacity="1" /><path clip-path="url(#clip540)" d="M157.177 1180.6 Q153.566 1180.6 151.737 1184.17 Q149.931 1187.71 149.931 1194.84 Q149.931 1201.95 151.737 1205.51 Q153.566 1209.05 157.177 1209.05 Q160.811 1209.05 162.616 1205.51 Q164.445 1201.95 164.445 1194.84 Q164.445 1187.71 162.616 1184.17 Q160.811 1180.6 157.177 1180.6 M157.177 1176.9 Q162.987 1176.9 166.042 1181.51 Q169.121 1186.09 169.121 1194.84 Q169.121 1203.57 166.042 1208.17 Q162.987 1212.76 157.177 1212.76 Q151.366 1212.76 148.288 1208.17 Q145.232 1203.57 145.232 1194.84 Q145.232 1186.09 148.288 1181.51 Q151.366 1176.9 157.177 1176.9 Z" fill="#000000" fill-rule="evenodd" fill-opacity="1" /><path clip-path="url(#clip540)" d="M187.338 1180.6 Q183.727 1180.6 181.899 1184.17 Q180.093 1187.71 180.093 1194.84 Q180.093 1201.95 181.899 1205.51 Q183.727 1209.05 187.338 1209.05 Q190.973 1209.05 192.778 1205.51 Q194.607 1201.95 194.607 1194.84 Q194.607 1187.71 192.778 1184.17 Q190.973 1180.6 187.338 1180.6 M187.338 1176.9 Q193.149 1176.9 196.204 1181.51 Q199.283 1186.09 199.283 1194.84 Q199.283 1203.57 196.204 1208.17 Q193.149 1212.76 187.338 1212.76 Q181.528 1212.76 178.45 1208.17 Q175.394 1203.57 175.394 1194.84 Q175.394 1186.09 178.45 1181.51 Q181.528 1176.9 187.338 1176.9 Z" fill="#000000" fill-rule="evenodd" fill-opacity="1" /><path clip-path="url(#clip540)" d="M121.043 1024.96 L137.362 1024.96 L137.362 1028.9 L115.418 1028.9 L115.418 1024.96 Q118.08 1022.21 122.663 1017.58 Q127.269 1012.92 128.45 1011.58 Q130.695 1009.06 131.575 1007.32 Q132.478 1005.56 132.478 1003.87 Q132.478 1001.12 130.533 999.381 Q128.612 997.645 125.51 997.645 Q123.311 997.645 120.857 998.409 Q118.427 999.173 115.649 1000.72 L115.649 996.002 Q118.473 994.868 120.927 994.289 Q123.38 993.71 125.418 993.71 Q130.788 993.71 133.982 996.395 Q137.177 999.08 137.177 1003.57 Q137.177 1005.7 136.367 1007.62 Q135.579 1009.52 133.473 1012.11 Q132.894 1012.78 129.792 1016 Q126.691 1019.2 121.043 1024.96 Z" fill="#000000" fill-rule="evenodd" fill-opacity="1" /><path clip-path="url(#clip540)" d="M157.177 997.414 Q153.566 997.414 151.737 1000.98 Q149.931 1004.52 149.931 1011.65 Q149.931 1018.76 151.737 1022.32 Q153.566 1025.86 157.177 1025.86 Q160.811 1025.86 162.616 1022.32 Q164.445 1018.76 164.445 1011.65 Q164.445 1004.52 162.616 1000.98 Q160.811 997.414 157.177 997.414 M157.177 993.71 Q162.987 993.71 166.042 998.317 Q169.121 1002.9 169.121 1011.65 Q169.121 1020.38 166.042 1024.98 Q162.987 1029.57 157.177 1029.57 Q151.366 1029.57 148.288 1024.98 Q145.232 1020.38 145.232 1011.65 Q145.232 1002.9 148.288 998.317 Q151.366 993.71 157.177 993.71 Z" fill="#000000" fill-rule="evenodd" fill-opacity="1" /><path clip-path="url(#clip540)" d="M187.338 997.414 Q183.727 997.414 181.899 1000.98 Q180.093 1004.52 180.093 1011.65 Q180.093 1018.76 181.899 1022.32 Q183.727 1025.86 187.338 1025.86 Q190.973 1025.86 192.778 1022.32 Q194.607 1018.76 194.607 1011.65 Q194.607 1004.52 192.778 1000.98 Q190.973 997.414 187.338 997.414 M187.338 993.71 Q193.149 993.71 196.204 998.317 Q199.283 1002.9 199.283 1011.65 Q199.283 1020.38 196.204 1024.98 Q193.149 1029.57 187.338 1029.57 Q181.528 1029.57 178.45 1024.98 Q175.394 1020.38 175.394 1011.65 Q175.394 1002.9 178.45 998.317 Q181.528 993.71 187.338 993.71 Z" fill="#000000" fill-rule="evenodd" fill-opacity="1" /><path clip-path="url(#clip540)" d="M131.181 827.071 Q134.538 827.788 136.413 830.057 Q138.311 832.325 138.311 835.659 Q138.311 840.774 134.792 843.575 Q131.274 846.376 124.793 846.376 Q122.617 846.376 120.302 845.936 Q118.01 845.52 115.556 844.663 L115.556 840.149 Q117.501 841.284 119.816 841.862 Q122.13 842.441 124.654 842.441 Q129.052 842.441 131.343 840.705 Q133.658 838.969 133.658 835.659 Q133.658 832.603 131.505 830.89 Q129.376 829.154 125.556 829.154 L121.529 829.154 L121.529 825.311 L125.742 825.311 Q129.191 825.311 131.019 823.946 Q132.848 822.557 132.848 819.964 Q132.848 817.302 130.95 815.89 Q129.075 814.455 125.556 814.455 Q123.635 814.455 121.436 814.872 Q119.237 815.288 116.598 816.168 L116.598 812.001 Q119.26 811.261 121.575 810.89 Q123.913 810.52 125.973 810.52 Q131.297 810.52 134.399 812.95 Q137.501 815.358 137.501 819.478 Q137.501 822.349 135.857 824.339 Q134.214 826.307 131.181 827.071 Z" fill="#000000" fill-rule="evenodd" fill-opacity="1" /><path clip-path="url(#clip540)" d="M157.177 814.224 Q153.566 814.224 151.737 817.788 Q149.931 821.33 149.931 828.46 Q149.931 835.566 151.737 839.131 Q153.566 842.672 157.177 842.672 Q160.811 842.672 162.616 839.131 Q164.445 835.566 164.445 828.46 Q164.445 821.33 162.616 817.788 Q160.811 814.224 157.177 814.224 M157.177 810.52 Q162.987 810.52 166.042 815.126 Q169.121 819.71 169.121 828.46 Q169.121 837.186 166.042 841.793 Q162.987 846.376 157.177 846.376 Q151.366 846.376 148.288 841.793 Q145.232 837.186 145.232 828.46 Q145.232 819.71 148.288 815.126 Q151.366 810.52 157.177 810.52 Z" fill="#000000" fill-rule="evenodd" fill-opacity="1" /><path clip-path="url(#clip540)" d="M187.338 814.224 Q183.727 814.224 181.899 817.788 Q180.093 821.33 180.093 828.46 Q180.093 835.566 181.899 839.131 Q183.727 842.672 187.338 842.672 Q190.973 842.672 192.778 839.131 Q194.607 835.566 194.607 828.46 Q194.607 821.33 192.778 817.788 Q190.973 814.224 187.338 814.224 M187.338 810.52 Q193.149 810.52 196.204 815.126 Q199.283 819.71 199.283 828.46 Q199.283 837.186 196.204 841.793 Q193.149 846.376 187.338 846.376 Q181.528 846.376 178.45 841.793 Q175.394 837.186 175.394 828.46 Q175.394 819.71 178.45 815.126 Q181.528 810.52 187.338 810.52 Z" fill="#000000" fill-rule="evenodd" fill-opacity="1" /><path clip-path="url(#clip540)" d="M129.862 632.029 L118.056 650.478 L129.862 650.478 L129.862 632.029 M128.635 627.955 L134.515 627.955 L134.515 650.478 L139.445 650.478 L139.445 654.367 L134.515 654.367 L134.515 662.515 L129.862 662.515 L129.862 654.367 L114.26 654.367 L114.26 649.853 L128.635 627.955 Z" fill="#000000" fill-rule="evenodd" fill-opacity="1" /><path clip-path="url(#clip540)" d="M157.177 631.033 Q153.566 631.033 151.737 634.598 Q149.931 638.14 149.931 645.269 Q149.931 652.376 151.737 655.941 Q153.566 659.482 157.177 659.482 Q160.811 659.482 162.616 655.941 Q164.445 652.376 164.445 645.269 Q164.445 638.14 162.616 634.598 Q160.811 631.033 157.177 631.033 M157.177 627.33 Q162.987 627.33 166.042 631.936 Q169.121 636.519 169.121 645.269 Q169.121 653.996 166.042 658.603 Q162.987 663.186 157.177 663.186 Q151.366 663.186 148.288 658.603 Q145.232 653.996 145.232 645.269 Q145.232 636.519 148.288 631.936 Q151.366 627.33 157.177 627.33 Z" fill="#000000" fill-rule="evenodd" fill-opacity="1" /><path clip-path="url(#clip540)" d="M187.338 631.033 Q183.727 631.033 181.899 634.598 Q180.093 638.14 180.093 645.269 Q180.093 652.376 181.899 655.941 Q183.727 659.482 187.338 659.482 Q190.973 659.482 192.778 655.941 Q194.607 652.376 194.607 645.269 Q194.607 638.14 192.778 634.598 Q190.973 631.033 187.338 631.033 M187.338 627.33 Q193.149 627.33 196.204 631.936 Q199.283 636.519 199.283 645.269 Q199.283 653.996 196.204 658.603 Q193.149 663.186 187.338 663.186 Q181.528 663.186 178.45 658.603 Q175.394 653.996 175.394 645.269 Q175.394 636.519 178.45 631.936 Q181.528 627.33 187.338 627.33 Z" fill="#000000" fill-rule="evenodd" fill-opacity="1" /><path clip-path="url(#clip540)" d="M117.061 444.764 L135.417 444.764 L135.417 448.7 L121.343 448.7 L121.343 457.172 Q122.362 456.824 123.38 456.662 Q124.399 456.477 125.418 456.477 Q131.205 456.477 134.584 459.649 Q137.964 462.82 137.964 468.236 Q137.964 473.815 134.492 476.917 Q131.019 479.996 124.7 479.996 Q122.524 479.996 120.255 479.625 Q118.01 479.255 115.603 478.514 L115.603 473.815 Q117.686 474.949 119.908 475.505 Q122.13 476.06 124.607 476.06 Q128.612 476.06 130.95 473.954 Q133.288 471.848 133.288 468.236 Q133.288 464.625 130.95 462.519 Q128.612 460.412 124.607 460.412 Q122.732 460.412 120.857 460.829 Q119.006 461.246 117.061 462.125 L117.061 444.764 Z" fill="#000000" fill-rule="evenodd" fill-opacity="1" /><path clip-path="url(#clip540)" d="M157.177 447.843 Q153.566 447.843 151.737 451.408 Q149.931 454.949 149.931 462.079 Q149.931 469.186 151.737 472.75 Q153.566 476.292 157.177 476.292 Q160.811 476.292 162.616 472.75 Q164.445 469.186 164.445 462.079 Q164.445 454.949 162.616 451.408 Q160.811 447.843 157.177 447.843 M157.177 444.139 Q162.987 444.139 166.042 448.746 Q169.121 453.329 169.121 462.079 Q169.121 470.806 166.042 475.412 Q162.987 479.996 157.177 479.996 Q151.366 479.996 148.288 475.412 Q145.232 470.806 145.232 462.079 Q145.232 453.329 148.288 448.746 Q151.366 444.139 157.177 444.139 Z" fill="#000000" fill-rule="evenodd" fill-opacity="1" /><path clip-path="url(#clip540)" d="M187.338 447.843 Q183.727 447.843 181.899 451.408 Q180.093 454.949 180.093 462.079 Q180.093 469.186 181.899 472.75 Q183.727 476.292 187.338 476.292 Q190.973 476.292 192.778 472.75 Q194.607 469.186 194.607 462.079 Q194.607 454.949 192.778 451.408 Q190.973 447.843 187.338 447.843 M187.338 444.139 Q193.149 444.139 196.204 448.746 Q199.283 453.329 199.283 462.079 Q199.283 470.806 196.204 475.412 Q193.149 479.996 187.338 479.996 Q181.528 479.996 178.45 475.412 Q175.394 470.806 175.394 462.079 Q175.394 453.329 178.45 448.746 Q181.528 444.139 187.338 444.139 Z" fill="#000000" fill-rule="evenodd" fill-opacity="1" /><path clip-path="url(#clip540)" d="M127.593 276.991 Q124.445 276.991 122.593 279.143 Q120.765 281.296 120.765 285.046 Q120.765 288.773 122.593 290.949 Q124.445 293.102 127.593 293.102 Q130.742 293.102 132.57 290.949 Q134.422 288.773 134.422 285.046 Q134.422 281.296 132.57 279.143 Q130.742 276.991 127.593 276.991 M136.876 262.338 L136.876 266.597 Q135.117 265.764 133.311 265.324 Q131.529 264.884 129.769 264.884 Q125.14 264.884 122.686 268.009 Q120.255 271.134 119.908 277.454 Q121.274 275.44 123.334 274.375 Q125.394 273.287 127.871 273.287 Q133.08 273.287 136.089 276.458 Q139.121 279.606 139.121 285.046 Q139.121 290.37 135.973 293.588 Q132.825 296.805 127.593 296.805 Q121.598 296.805 118.427 292.222 Q115.256 287.616 115.256 278.889 Q115.256 270.694 119.144 265.833 Q123.033 260.949 129.584 260.949 Q131.343 260.949 133.126 261.296 Q134.931 261.644 136.876 262.338 Z" fill="#000000" fill-rule="evenodd" fill-opacity="1" /><path clip-path="url(#clip540)" d="M157.177 264.653 Q153.566 264.653 151.737 268.218 Q149.931 271.759 149.931 278.889 Q149.931 285.995 151.737 289.56 Q153.566 293.102 157.177 293.102 Q160.811 293.102 162.616 289.56 Q164.445 285.995 164.445 278.889 Q164.445 271.759 162.616 268.218 Q160.811 264.653 157.177 264.653 M157.177 260.949 Q162.987 260.949 166.042 265.556 Q169.121 270.139 169.121 278.889 Q169.121 287.616 166.042 292.222 Q162.987 296.805 157.177 296.805 Q151.366 296.805 148.288 292.222 Q145.232 287.616 145.232 278.889 Q145.232 270.139 148.288 265.556 Q151.366 260.949 157.177 260.949 Z" fill="#000000" fill-rule="evenodd" fill-opacity="1" /><path clip-path="url(#clip540)" d="M187.338 264.653 Q183.727 264.653 181.899 268.218 Q180.093 271.759 180.093 278.889 Q180.093 285.995 181.899 289.56 Q183.727 293.102 187.338 293.102 Q190.973 293.102 192.778 289.56 Q194.607 285.995 194.607 278.889 Q194.607 271.759 192.778 268.218 Q190.973 264.653 187.338 264.653 M187.338 260.949 Q193.149 260.949 196.204 265.556 Q199.283 270.139 199.283 278.889 Q199.283 287.616 196.204 292.222 Q193.149 296.805 187.338 296.805 Q181.528 296.805 178.45 292.222 Q175.394 287.616 175.394 278.889 Q175.394 270.139 178.45 265.556 Q181.528 260.949 187.338 260.949 Z" fill="#000000" fill-rule="evenodd" fill-opacity="1" /><path clip-path="url(#clip540)" d="M14.479 954.543 L14.479 948.687 L64.0042 948.687 L64.0042 954.543 L14.479 954.543 Z" fill="#000000" fill-rule="evenodd" fill-opacity="1" /><path clip-path="url(#clip540)" d="M46.0847 920.232 Q46.0847 927.33 47.7079 930.067 Q49.3312 932.804 53.2461 932.804 Q56.3653 932.804 58.2114 930.767 Q60.0256 928.698 60.0256 925.165 Q60.0256 920.296 56.5881 917.367 Q53.1188 914.407 47.3897 914.407 L46.0847 914.407 L46.0847 920.232 M43.6657 908.551 L64.0042 908.551 L64.0042 914.407 L58.5933 914.407 Q61.8398 916.412 63.3994 919.404 Q64.9272 922.396 64.9272 926.725 Q64.9272 932.199 61.8716 935.446 Q58.7843 938.661 53.6281 938.661 Q47.6125 938.661 44.5569 934.65 Q41.5014 930.608 41.5014 922.619 L41.5014 914.407 L40.9285 914.407 Q36.8862 914.407 34.6901 917.081 Q32.4621 919.723 32.4621 924.529 Q32.4621 927.584 33.1941 930.481 Q33.9262 933.377 35.3903 936.051 L29.9795 936.051 Q28.7381 932.836 28.1334 929.812 Q27.4968 926.789 27.4968 923.924 Q27.4968 916.19 31.5072 912.37 Q35.5176 908.551 43.6657 908.551 Z" fill="#000000" fill-rule="evenodd" fill-opacity="1" /><path clip-path="url(#clip540)" d="M18.2347 890.695 L28.3562 890.695 L28.3562 878.632 L32.9077 878.632 L32.9077 890.695 L52.2594 890.695 Q56.6199 890.695 57.8613 889.517 Q59.1026 888.308 59.1026 884.648 L59.1026 878.632 L64.0042 878.632 L64.0042 884.648 Q64.0042 891.427 61.4897 894.005 Q58.9434 896.583 52.2594 896.583 L32.9077 896.583 L32.9077 900.88 L28.3562 900.88 L28.3562 896.583 L18.2347 896.583 L18.2347 890.695 Z" fill="#000000" fill-rule="evenodd" fill-opacity="1" /><path clip-path="url(#clip540)" d="M44.7161 840.438 L47.5806 840.438 L47.5806 867.365 Q53.6281 866.983 56.8109 863.736 Q59.9619 860.458 59.9619 854.633 Q59.9619 851.259 59.1344 848.108 Q58.3069 844.926 56.6518 841.806 L62.1899 841.806 Q63.5267 844.957 64.227 848.268 Q64.9272 851.578 64.9272 854.983 Q64.9272 863.513 59.9619 868.511 Q54.9967 873.476 46.5303 873.476 Q37.7774 873.476 32.6531 868.765 Q27.4968 864.023 27.4968 856.002 Q27.4968 848.809 32.1438 844.639 Q36.7589 840.438 44.7161 840.438 M42.9973 846.294 Q38.1912 846.358 35.3266 849 Q32.4621 851.61 32.4621 855.938 Q32.4621 860.84 35.2312 863.8 Q38.0002 866.728 43.0292 867.174 L42.9973 846.294 Z" fill="#000000" fill-rule="evenodd" fill-opacity="1" /><path clip-path="url(#clip540)" d="M42.4881 801.193 L64.0042 801.193 L64.0042 807.05 L42.679 807.05 Q37.6183 807.05 35.1038 809.023 Q32.5894 810.996 32.5894 814.943 Q32.5894 819.686 35.6131 822.423 Q38.6368 825.16 43.8567 825.16 L64.0042 825.16 L64.0042 831.048 L28.3562 831.048 L28.3562 825.16 L33.8944 825.16 Q30.6797 823.059 29.0883 820.227 Q27.4968 817.362 27.4968 813.638 Q27.4968 807.495 31.3163 804.344 Q35.1038 801.193 42.4881 801.193 Z" fill="#000000" fill-rule="evenodd" fill-opacity="1" /><path clip-path="url(#clip540)" d="M29.7248 763.858 L35.1993 763.858 Q33.8307 766.341 33.1623 768.855 Q32.4621 771.338 32.4621 773.884 Q32.4621 779.582 36.0905 782.733 Q39.6872 785.884 46.212 785.884 Q52.7369 785.884 56.3653 782.733 Q59.9619 779.582 59.9619 773.884 Q59.9619 771.338 59.2935 768.855 Q58.5933 766.341 57.2247 763.858 L62.6355 763.858 Q63.7814 766.309 64.3543 768.951 Q64.9272 771.561 64.9272 774.521 Q64.9272 782.573 59.8664 787.316 Q54.8057 792.058 46.212 792.058 Q37.491 792.058 32.4939 787.284 Q27.4968 782.478 27.4968 774.139 Q27.4968 771.433 28.0697 768.855 Q28.6108 766.277 29.7248 763.858 Z" fill="#000000" fill-rule="evenodd" fill-opacity="1" /><path clip-path="url(#clip540)" d="M67.3143 738.841 Q73.68 741.324 75.6216 743.679 Q77.5631 746.034 77.5631 749.981 L77.5631 754.66 L72.6615 754.66 L72.6615 751.222 Q72.6615 748.803 71.5157 747.467 Q70.3699 746.13 66.1048 744.507 L63.4312 743.456 L28.3562 757.875 L28.3562 751.668 L56.238 740.528 L28.3562 729.388 L28.3562 723.181 L67.3143 738.841 Z" fill="#000000" fill-rule="evenodd" fill-opacity="1" /><path clip-path="url(#clip540)" d="M14.5426 680.308 Q21.8632 684.573 29.0246 686.642 Q36.186 688.711 43.5384 688.711 Q50.8908 688.711 58.1159 686.642 Q65.3091 684.542 72.5979 680.308 L72.5979 685.401 Q65.1182 690.175 57.8931 692.562 Q50.668 694.918 43.5384 694.918 Q36.4406 694.918 29.2474 692.562 Q22.0542 690.207 14.5426 685.401 L14.5426 680.308 Z" fill="#000000" fill-rule="evenodd" fill-opacity="1" /><path clip-path="url(#clip540)" d="M77.5631 669.55 L28.3562 669.55 L28.3562 663.694 L50.5089 663.694 Q55.124 663.694 57.4793 661.498 Q59.8346 659.302 59.8346 655.005 Q59.8346 650.294 57.161 647.939 Q54.4874 645.552 49.1402 645.552 L28.3562 645.552 L28.3562 639.695 L55.7924 639.695 Q57.7021 639.695 58.6251 639.154 Q59.5163 638.581 59.5163 637.404 Q59.5163 637.117 59.3572 636.608 Q59.1662 636.099 58.7843 635.207 L63.4949 635.207 Q64.227 636.512 64.5771 637.69 Q64.9272 638.836 64.9272 639.95 Q64.9272 642.146 63.6859 643.451 Q62.4446 644.756 59.8983 645.233 Q62.4127 646.825 63.6859 649.148 Q64.9272 651.44 64.9272 654.559 Q64.9272 657.806 63.6859 660.097 Q62.4446 662.357 59.9619 663.694 L77.5631 663.694 L77.5631 669.55 Z" fill="#000000" fill-rule="evenodd" fill-opacity="1" /><path clip-path="url(#clip540)" d="M29.4065 604.747 L34.9447 604.747 Q33.6716 607.23 33.035 609.904 Q32.3984 612.577 32.3984 615.442 Q32.3984 619.802 33.7352 621.999 Q35.072 624.163 37.7456 624.163 Q39.7826 624.163 40.9603 622.603 Q42.1061 621.044 43.1565 616.333 L43.6021 614.328 Q44.9389 608.089 47.3897 605.48 Q49.8086 602.838 54.1691 602.838 Q59.1344 602.838 62.0308 606.784 Q64.9272 610.699 64.9272 617.574 Q64.9272 620.439 64.3543 623.558 Q63.8132 626.645 62.6992 630.083 L56.6518 630.083 Q58.3387 626.836 59.198 623.685 Q60.0256 620.534 60.0256 617.447 Q60.0256 613.309 58.6251 611.081 Q57.1929 608.853 54.6147 608.853 Q52.2276 608.853 50.9545 610.477 Q49.6813 612.068 48.5037 617.511 L48.0262 619.548 Q46.8804 624.99 44.5251 627.409 Q42.138 629.828 38.0002 629.828 Q32.9713 629.828 30.2341 626.264 Q27.4968 622.699 27.4968 616.142 Q27.4968 612.896 27.9743 610.031 Q28.4517 607.166 29.4065 604.747 Z" fill="#000000" fill-rule="evenodd" fill-opacity="1" /><path clip-path="url(#clip540)" d="M14.5426 594.435 L14.5426 589.342 Q22.0542 584.568 29.2474 582.213 Q36.4406 579.826 43.5384 579.826 Q50.668 579.826 57.8931 582.213 Q65.1182 584.568 72.5979 589.342 L72.5979 594.435 Q65.3091 590.202 58.1159 588.133 Q50.8908 586.032 43.5384 586.032 Q36.186 586.032 29.0246 588.133 Q21.8632 590.202 14.5426 594.435 Z" fill="#000000" fill-rule="evenodd" fill-opacity="1" /><path clip-path="url(#clip540)" d="M888.402 17.6457 Q879.49 17.6457 874.224 24.2892 Q868.999 30.9327 868.999 42.3968 Q868.999 53.8203 874.224 60.4638 Q879.49 67.1073 888.402 67.1073 Q897.314 67.1073 902.499 60.4638 Q907.725 53.8203 907.725 42.3968 Q907.725 30.9327 902.499 24.2892 Q897.314 17.6457 888.402 17.6457 M888.402 11.0023 Q901.122 11.0023 908.738 19.5497 Q916.354 28.0566 916.354 42.3968 Q916.354 56.6965 908.738 65.2439 Q901.122 73.7508 888.402 73.7508 Q875.642 73.7508 867.986 65.2439 Q860.37 56.737 860.37 42.3968 Q860.37 28.0566 867.986 19.5497 Q875.642 11.0023 888.402 11.0023 Z" fill="#000000" fill-rule="evenodd" fill-opacity="1" /><path clip-path="url(#clip540)" d="M936.041 65.7705 L936.041 89.8329 L928.547 89.8329 L928.547 27.2059 L936.041 27.2059 L936.041 34.0924 Q938.39 30.0415 941.955 28.0971 Q945.561 26.1121 950.543 26.1121 Q958.807 26.1121 963.952 32.6746 Q969.137 39.2371 969.137 49.9314 Q969.137 60.6258 963.952 67.1883 Q958.807 73.7508 950.543 73.7508 Q945.561 73.7508 941.955 71.8063 Q938.39 69.8214 936.041 65.7705 M961.4 49.9314 Q961.4 41.7081 957.997 37.0496 Q954.635 32.3505 948.72 32.3505 Q942.806 32.3505 939.403 37.0496 Q936.041 41.7081 936.041 49.9314 Q936.041 58.1548 939.403 62.8538 Q942.806 67.5124 948.72 67.5124 Q954.635 67.5124 957.997 62.8538 Q961.4 58.1548 961.4 49.9314 Z" fill="#000000" fill-rule="evenodd" fill-opacity="1" /><path clip-path="url(#clip540)" d="M1020.3 48.0275 L1020.3 51.6733 L986.029 51.6733 Q986.515 59.3701 990.647 63.421 Q994.82 67.4314 1002.23 67.4314 Q1006.53 67.4314 1010.54 66.3781 Q1014.59 65.3249 1018.56 63.2184 L1018.56 70.267 Q1014.55 71.9684 1010.33 72.8596 Q1006.12 73.7508 1001.79 73.7508 Q990.931 73.7508 984.571 67.4314 Q978.251 61.1119 978.251 50.3365 Q978.251 39.1965 984.247 32.6746 Q990.283 26.1121 1000.49 26.1121 Q1009.65 26.1121 1014.95 32.0264 Q1020.3 37.9003 1020.3 48.0275 M1012.85 45.84 Q1012.77 39.7232 1009.4 36.0774 Q1006.08 32.4315 1000.57 32.4315 Q994.333 32.4315 990.566 35.9558 Q986.839 39.4801 986.272 45.8805 L1012.85 45.84 Z" fill="#000000" fill-rule="evenodd" fill-opacity="1" /><path clip-path="url(#clip540)" d="M1070.25 45.1919 L1070.25 72.576 L1062.79 72.576 L1062.79 45.4349 Q1062.79 38.994 1060.28 35.7938 Q1057.77 32.5936 1052.75 32.5936 Q1046.71 32.5936 1043.23 36.4419 Q1039.74 40.2903 1039.74 46.9338 L1039.74 72.576 L1032.25 72.576 L1032.25 27.2059 L1039.74 27.2059 L1039.74 34.2544 Q1042.42 30.163 1046.02 28.1376 Q1049.67 26.1121 1054.41 26.1121 Q1062.23 26.1121 1066.24 30.9732 Q1070.25 35.7938 1070.25 45.1919 Z" fill="#000000" fill-rule="evenodd" fill-opacity="1" /><path clip-path="url(#clip540)" d="M1085.44 12.096 L1097.63 12.096 L1113.07 53.2532 L1128.58 12.096 L1140.77 12.096 L1140.77 72.576 L1132.79 72.576 L1132.79 19.4686 L1117.2 60.9499 L1108.97 60.9499 L1093.38 19.4686 L1093.38 72.576 L1085.44 72.576 L1085.44 12.096 Z" fill="#000000" fill-rule="evenodd" fill-opacity="1" /><path clip-path="url(#clip540)" d="M1165.2 18.8205 L1165.2 41.5461 L1175.49 41.5461 Q1181.2 41.5461 1184.32 38.5889 Q1187.44 35.6318 1187.44 30.163 Q1187.44 24.7348 1184.32 21.7777 Q1181.2 18.8205 1175.49 18.8205 L1165.2 18.8205 M1157.02 12.096 L1175.49 12.096 Q1185.66 12.096 1190.84 16.714 Q1196.07 21.2916 1196.07 30.163 Q1196.07 39.1155 1190.84 43.6931 Q1185.66 48.2706 1175.49 48.2706 L1165.2 48.2706 L1165.2 72.576 L1157.02 72.576 L1157.02 12.096 Z" fill="#000000" fill-rule="evenodd" fill-opacity="1" /><path clip-path="url(#clip540)" d="M1207.05 12.096 L1215.23 12.096 L1215.23 72.576 L1207.05 72.576 L1207.05 12.096 Z" fill="#000000" fill-rule="evenodd" fill-opacity="1" /><path clip-path="url(#clip540)" d="M1281.1 19.2256 L1260.44 51.5113 L1281.1 51.5113 L1281.1 19.2256 M1278.95 12.096 L1289.24 12.096 L1289.24 51.5113 L1297.87 51.5113 L1297.87 58.3168 L1289.24 58.3168 L1289.24 72.576 L1281.1 72.576 L1281.1 58.3168 L1253.79 58.3168 L1253.79 50.4176 L1278.95 12.096 Z" fill="#000000" fill-rule="evenodd" fill-opacity="1" /><path clip-path="url(#clip540)" d="M1311.4 62.2867 L1319.95 62.2867 L1319.95 72.576 L1311.4 72.576 L1311.4 62.2867 Z" fill="#000000" fill-rule="evenodd" fill-opacity="1" /><path clip-path="url(#clip540)" d="M1339.19 65.6895 L1352.55 65.6895 L1352.55 19.5497 L1338.01 22.4663 L1338.01 15.0127 L1352.47 12.096 L1360.66 12.096 L1360.66 65.6895 L1374.02 65.6895 L1374.02 72.576 L1339.19 72.576 L1339.19 65.6895 Z" fill="#000000" fill-rule="evenodd" fill-opacity="1" /><path clip-path="url(#clip540)" d="M1390.55 62.2867 L1399.1 62.2867 L1399.1 72.576 L1390.55 72.576 L1390.55 62.2867 Z" fill="#000000" fill-rule="evenodd" fill-opacity="1" /><path clip-path="url(#clip540)" d="M1423.97 65.6895 L1452.53 65.6895 L1452.53 72.576 L1414.13 72.576 L1414.13 65.6895 Q1418.79 60.8689 1426.81 52.7671 Q1434.87 44.6248 1436.94 42.2752 Q1440.86 37.8598 1442.4 34.8216 Q1443.98 31.7429 1443.98 28.7857 Q1443.98 23.9651 1440.58 20.927 Q1437.22 17.8888 1431.79 17.8888 Q1427.94 17.8888 1423.65 19.2256 Q1419.39 20.5624 1414.53 23.2765 L1414.53 15.0127 Q1419.48 13.0277 1423.77 12.015 Q1428.06 11.0023 1431.63 11.0023 Q1441.03 11.0023 1446.62 15.7013 Q1452.21 20.4004 1452.21 28.2591 Q1452.21 31.9859 1450.79 35.3482 Q1449.41 38.6699 1445.73 43.2069 Q1444.71 44.3817 1439.28 50.0125 Q1433.86 55.6027 1423.97 65.6895 Z" fill="#000000" fill-rule="evenodd" fill-opacity="1" /><path clip-path="url(#clip540)" d="M1525.37 20.5624 L1525.37 43.1259 L1547.93 43.1259 L1547.93 50.0125 L1525.37 50.0125 L1525.37 72.576 L1518.56 72.576 L1518.56 50.0125 L1496 50.0125 L1496 43.1259 L1518.56 43.1259 L1518.56 20.5624 L1525.37 20.5624 Z" fill="#000000" fill-rule="evenodd" fill-opacity="1" /><path clip-path="url(#clip540)" d="M1590.14 54.671 L1590.14 27.2059 L1597.59 27.2059 L1597.59 54.3874 Q1597.59 60.8284 1600.11 64.0691 Q1602.62 67.2693 1607.64 67.2693 Q1613.68 67.2693 1617.16 63.421 Q1620.68 59.5726 1620.68 52.9291 L1620.68 27.2059 L1628.14 27.2059 L1628.14 72.576 L1620.68 72.576 L1620.68 65.6084 Q1617.97 69.7404 1614.36 71.7658 Q1610.8 73.7508 1606.06 73.7508 Q1598.24 73.7508 1594.19 68.8897 Q1590.14 64.0286 1590.14 54.671 M1608.9 26.1121 L1608.9 26.1121 Z" fill="#000000" fill-rule="evenodd" fill-opacity="1" /><path clip-path="url(#clip540)" d="M1676.14 28.9478 L1676.14 35.9153 Q1672.98 34.1734 1669.78 33.3227 Q1666.62 32.4315 1663.38 32.4315 Q1656.13 32.4315 1652.12 37.0496 Q1648.11 41.6271 1648.11 49.9314 Q1648.11 58.2358 1652.12 62.8538 Q1656.13 67.4314 1663.38 67.4314 Q1666.62 67.4314 1669.78 66.5807 Q1672.98 65.6895 1676.14 63.9476 L1676.14 70.8341 Q1673.02 72.2924 1669.66 73.0216 Q1666.34 73.7508 1662.57 73.7508 Q1652.32 73.7508 1646.29 67.3098 Q1640.25 60.8689 1640.25 49.9314 Q1640.25 38.832 1646.33 32.472 Q1652.44 26.1121 1663.06 26.1121 Q1666.5 26.1121 1669.78 26.8413 Q1673.06 27.5299 1676.14 28.9478 Z" fill="#000000" fill-rule="evenodd" fill-opacity="1" /><path clip-path="url(#clip540)" d="M1726.82 27.2059 L1710.41 49.2833 L1727.67 72.576 L1718.88 72.576 L1705.67 54.752 L1692.47 72.576 L1683.68 72.576 L1701.3 48.8377 L1685.17 27.2059 L1693.97 27.2059 L1706 43.369 L1718.03 27.2059 L1726.82 27.2059 Z" fill="#000000" fill-rule="evenodd" fill-opacity="1" /><polyline clip-path="url(#clip542)" style="stroke:#000000; stroke-linecap:butt; stroke-linejoin:round; stroke-width:4; stroke-opacity:1; fill:none" points="
  295.211,1374.46 386.012,1374.46 476.813,1374.46 567.614,1374.46 658.414,1374.44 749.215,1374.41 840.016,1374.2 930.816,1372.83 1021.62,1372.57 1112.42,1372.37 
  1203.22,1371.97 1294.02,1371.09 1384.82,1370.19 1475.62,1368.27 1566.42,1365.04 1657.22,1359.97 1748.02,1349.38 1838.82,1330.42 1929.62,1290.43 2020.43,1215.14 
  2111.23,1064.54 2202.03,764.198 2292.83,159.909 
  "/>
<circle clip-path="url(#clip542)" cx="386.012" cy="1374.46" r="14" fill="#ff0000" fill-rule="evenodd" fill-opacity="1" stroke="#000000" stroke-opacity="1" stroke-width="3.2"/>
<circle clip-path="url(#clip542)" cx="476.813" cy="1374.46" r="14" fill="#ff0000" fill-rule="evenodd" fill-opacity="1" stroke="#000000" stroke-opacity="1" stroke-width="3.2"/>
<circle clip-path="url(#clip542)" cx="567.614" cy="1374.46" r="14" fill="#ff0000" fill-rule="evenodd" fill-opacity="1" stroke="#000000" stroke-opacity="1" stroke-width="3.2"/>
<circle clip-path="url(#clip542)" cx="658.414" cy="1374.44" r="14" fill="#ff0000" fill-rule="evenodd" fill-opacity="1" stroke="#000000" stroke-opacity="1" stroke-width="3.2"/>
<circle clip-path="url(#clip542)" cx="749.215" cy="1374.41" r="14" fill="#ff0000" fill-rule="evenodd" fill-opacity="1" stroke="#000000" stroke-opacity="1" stroke-width="3.2"/>
<circle clip-path="url(#clip542)" cx="840.016" cy="1374.2" r="14" fill="#ff0000" fill-rule="evenodd" fill-opacity="1" stroke="#000000" stroke-opacity="1" stroke-width="3.2"/>
<circle clip-path="url(#clip542)" cx="930.816" cy="1372.83" r="14" fill="#ff0000" fill-rule="evenodd" fill-opacity="1" stroke="#000000" stroke-opacity="1" stroke-width="3.2"/>
<circle clip-path="url(#clip542)" cx="1021.62" cy="1372.57" r="14" fill="#ff0000" fill-rule="evenodd" fill-opacity="1" stroke="#000000" stroke-opacity="1" stroke-width="3.2"/>
<circle clip-path="url(#clip542)" cx="1112.42" cy="1372.37" r="14" fill="#ff0000" fill-rule="evenodd" fill-opacity="1" stroke="#000000" stroke-opacity="1" stroke-width="3.2"/>
<circle clip-path="url(#clip542)" cx="1203.22" cy="1371.97" r="14" fill="#ff0000" fill-rule="evenodd" fill-opacity="1" stroke="#000000" stroke-opacity="1" stroke-width="3.2"/>
<circle clip-path="url(#clip542)" cx="1294.02" cy="1371.09" r="14" fill="#ff0000" fill-rule="evenodd" fill-opacity="1" stroke="#000000" stroke-opacity="1" stroke-width="3.2"/>
<circle clip-path="url(#clip542)" cx="1384.82" cy="1370.19" r="14" fill="#ff0000" fill-rule="evenodd" fill-opacity="1" stroke="#000000" stroke-opacity="1" stroke-width="3.2"/>
<circle clip-path="url(#clip542)" cx="1475.62" cy="1368.27" r="14" fill="#ff0000" fill-rule="evenodd" fill-opacity="1" stroke="#000000" stroke-opacity="1" stroke-width="3.2"/>
<circle clip-path="url(#clip542)" cx="1566.42" cy="1365.04" r="14" fill="#ff0000" fill-rule="evenodd" fill-opacity="1" stroke="#000000" stroke-opacity="1" stroke-width="3.2"/>
<circle clip-path="url(#clip542)" cx="1657.22" cy="1359.97" r="14" fill="#ff0000" fill-rule="evenodd" fill-opacity="1" stroke="#000000" stroke-opacity="1" stroke-width="3.2"/>
<circle clip-path="url(#clip542)" cx="1748.02" cy="1349.38" r="14" fill="#ff0000" fill-rule="evenodd" fill-opacity="1" stroke="#000000" stroke-opacity="1" stroke-width="3.2"/>
<circle clip-path="url(#clip542)" cx="1838.82" cy="1330.42" r="14" fill="#ff0000" fill-rule="evenodd" fill-opacity="1" stroke="#000000" stroke-opacity="1" stroke-width="3.2"/>
<circle clip-path="url(#clip542)" cx="1929.62" cy="1290.43" r="14" fill="#ff0000" fill-rule="evenodd" fill-opacity="1" stroke="#000000" stroke-opacity="1" stroke-width="3.2"/>
<circle clip-path="url(#clip542)" cx="2020.43" cy="1215.14" r="14" fill="#ff0000" fill-rule="evenodd" fill-opacity="1" stroke="#000000" stroke-opacity="1" stroke-width="3.2"/>
<circle clip-path="url(#clip542)" cx="2111.23" cy="1064.54" r="14" fill="#ff0000" fill-rule="evenodd" fill-opacity="1" stroke="#000000" stroke-opacity="1" stroke-width="3.2"/>
<circle clip-path="url(#clip542)" cx="2202.03" cy="764.198" r="14" fill="#ff0000" fill-rule="evenodd" fill-opacity="1" stroke="#000000" stroke-opacity="1" stroke-width="3.2"/>
<circle clip-path="url(#clip542)" cx="2292.83" cy="159.909" r="14" fill="#ff0000" fill-rule="evenodd" fill-opacity="1" stroke="#000000" stroke-opacity="1" stroke-width="3.2"/>
</svg>
