<?xml version="1.0" encoding="utf-8"?>
<svg xmlns="http://www.w3.org/2000/svg" xmlns:xlink="http://www.w3.org/1999/xlink" width="600" height="400" viewBox="0 0 2400 1600">
<defs>
  <clipPath id="clip500">
    <rect x="0" y="0" width="2400" height="1600"/>
  </clipPath>
</defs>
<path clip-path="url(#clip500)" d="
M0 1600 L2400 1600 L2400 0 L0 0  Z
  " fill="#ffffff" fill-rule="evenodd" fill-opacity="1"/>
<defs>
  <clipPath id="clip501">
    <rect x="480" y="0" width="1681" height="1600"/>
  </clipPath>
</defs>
<path clip-path="url(#clip500)" d="
M265.445 1410.9 L2352.76 1410.9 L2352.76 123.472 L265.445 123.472  Z
  " fill="#ffffff" fill-rule="evenodd" fill-opacity="1"/>
<defs>
  <clipPath id="clip502">
    <rect x="265" y="123" width="2088" height="1288"/>
  </clipPath>
</defs>
<polyline clip-path="url(#clip502)" style="stroke:#000000; stroke-linecap:butt; stroke-linejoin:round; stroke-width:2; stroke-opacity:0.1; fill:none" points="
  324.52,1410.9 324.52,123.472 
  "/>
<polyline clip-path="url(#clip502)" style="stroke:#000000; stroke-linecap:butt; stroke-linejoin:round; stroke-width:2; stroke-opacity:0.1; fill:none" points="
  621.857,1410.9 621.857,123.472 
  "/>
<polyline clip-path="url(#clip502)" style="stroke:#000000; stroke-linecap:butt; stroke-linejoin:round; stroke-width:2; stroke-opacity:0.1; fill:none" points="
  919.193,1410.9 919.193,123.472 
  "/>
<polyline clip-path="url(#clip502)" style="stroke:#000000; stroke-linecap:butt; stroke-linejoin:round; stroke-width:2; stroke-opacity:0.1; fill:none" points="
  1216.53,1410.9 1216.53,123.472 
  "/>
<polyline clip-path="url(#clip502)" style="stroke:#000000; stroke-linecap:butt; stroke-linejoin:round; stroke-width:2; stroke-opacity:0.1; fill:none" points="
  1513.87,1410.9 1513.87,123.472 
  "/>
<polyline clip-path="url(#clip502)" style="stroke:#000000; stroke-linecap:butt; stroke-linejoin:round; stroke-width:2; stroke-opacity:0.1; fill:none" points="
  1811.2,1410.9 1811.2,123.472 
  "/>
<polyline clip-path="url(#clip502)" style="stroke:#000000; stroke-linecap:butt; stroke-linejoin:round; stroke-width:2; stroke-opacity:0.1; fill:none" points="
  2108.54,1410.9 2108.54,123.472 
  "/>
<polyline clip-path="url(#clip500)" style="stroke:#000000; stroke-linecap:butt; stroke-linejoin:round; stroke-width:4; stroke-opacity:1; fill:none" points="
  265.445,1410.9 2352.76,1410.9 
  "/>
<polyline clip-path="url(#clip500)" style="stroke:#000000; stroke-linecap:butt; stroke-linejoin:round; stroke-width:4; stroke-opacity:1; fill:none" points="
  324.52,1410.9 324.52,1392 
  "/>
<polyline clip-path="url(#clip500)" style="stroke:#000000; stroke-linecap:butt; stroke-linejoin:round; stroke-width:4; stroke-opacity:1; fill:none" points="
  621.857,1410.9 621.857,1392 
  "/>
<polyline clip-path="url(#clip500)" style="stroke:#000000; stroke-linecap:butt; stroke-linejoin:round; stroke-width:4; stroke-opacity:1; fill:none" points="
  919.193,1410.9 919.193,1392 
  "/>
<polyline clip-path="url(#clip500)" style="stroke:#000000; stroke-linecap:butt; stroke-linejoin:round; stroke-width:4; stroke-opacity:1; fill:none" points="
  1216.53,1410.9 1216.53,1392 
  "/>
<polyline clip-path="url(#clip500)" style="stroke:#000000; stroke-linecap:butt; stroke-linejoin:round; stroke-width:4; stroke-opacity:1; fill:none" points="
  1513.87,1410.9 1513.87,1392 
  "/>
<polyline clip-path="url(#clip500)" style="stroke:#000000; stroke-linecap:butt; stroke-linejoin:round; stroke-width:4; stroke-opacity:1; fill:none" points="
  1811.2,1410.9 1811.2,1392 
  "/>
<polyline clip-path="url(#clip500)" style="stroke:#000000; stroke-linecap:butt; stroke-linejoin:round; stroke-width:4; stroke-opacity:1; fill:none" points="
  2108.54,1410.9 2108.54,1392 
  "/>
<path clip-path="url(#clip500)" d="M289.502 1485.02 L297.141 1485.02 L297.141 1458.66 L288.831 1460.32 L288.831 1456.06 L297.095 1454.4 L301.771 1454.4 L301.771 1485.02 L309.41 1485.02 L309.41 1488.96 L289.502 1488.96 L289.502 1485.02 Z" fill="#000000" fill-rule="evenodd" fill-opacity="1" /><path clip-path="url(#clip500)" d="M328.854 1457.48 Q325.243 1457.48 323.414 1461.04 Q321.609 1464.58 321.609 1471.71 Q321.609 1478.82 323.414 1482.38 Q325.243 1485.92 328.854 1485.92 Q332.488 1485.92 334.294 1482.38 Q336.123 1478.82 336.123 1471.71 Q336.123 1464.58 334.294 1461.04 Q332.488 1457.48 328.854 1457.48 M328.854 1453.77 Q334.664 1453.77 337.72 1458.38 Q340.798 1462.96 340.798 1471.71 Q340.798 1480.44 337.72 1485.04 Q334.664 1489.63 328.854 1489.63 Q323.044 1489.63 319.965 1485.04 Q316.91 1480.44 316.91 1471.71 Q316.91 1462.96 319.965 1458.38 Q323.044 1453.77 328.854 1453.77 Z" fill="#000000" fill-rule="evenodd" fill-opacity="1" /><path clip-path="url(#clip500)" d="M350.503 1435.97 Q347.569 1435.97 346.083 1438.86 Q344.616 1441.74 344.616 1447.53 Q344.616 1453.31 346.083 1456.2 Q347.569 1459.08 350.503 1459.08 Q353.456 1459.08 354.923 1456.2 Q356.409 1453.31 356.409 1447.53 Q356.409 1441.74 354.923 1438.86 Q353.456 1435.97 350.503 1435.97 M350.503 1432.96 Q355.224 1432.96 357.707 1436.7 Q360.208 1440.43 360.208 1447.53 Q360.208 1454.62 357.707 1458.37 Q355.224 1462.09 350.503 1462.09 Q345.782 1462.09 343.281 1458.37 Q340.798 1454.62 340.798 1447.53 Q340.798 1440.43 343.281 1436.7 Q345.782 1432.96 350.503 1432.96 Z" fill="#000000" fill-rule="evenodd" fill-opacity="1" /><path clip-path="url(#clip500)" d="M588.184 1485.02 L595.823 1485.02 L595.823 1458.66 L587.513 1460.32 L587.513 1456.06 L595.777 1454.4 L600.453 1454.4 L600.453 1485.02 L608.091 1485.02 L608.091 1488.96 L588.184 1488.96 L588.184 1485.02 Z" fill="#000000" fill-rule="evenodd" fill-opacity="1" /><path clip-path="url(#clip500)" d="M627.536 1457.48 Q623.925 1457.48 622.096 1461.04 Q620.29 1464.58 620.29 1471.71 Q620.29 1478.82 622.096 1482.38 Q623.925 1485.92 627.536 1485.92 Q631.17 1485.92 632.976 1482.38 Q634.804 1478.82 634.804 1471.71 Q634.804 1464.58 632.976 1461.04 Q631.17 1457.48 627.536 1457.48 M627.536 1453.77 Q633.346 1453.77 636.401 1458.38 Q639.48 1462.96 639.48 1471.71 Q639.48 1480.44 636.401 1485.04 Q633.346 1489.63 627.536 1489.63 Q621.726 1489.63 618.647 1485.04 Q615.591 1480.44 615.591 1471.71 Q615.591 1462.96 618.647 1458.38 Q621.726 1453.77 627.536 1453.77 Z" fill="#000000" fill-rule="evenodd" fill-opacity="1" /><path clip-path="url(#clip500)" d="M640.026 1458.35 L646.232 1458.35 L646.232 1436.93 L639.48 1438.28 L639.48 1434.82 L646.194 1433.47 L649.994 1433.47 L649.994 1458.35 L656.2 1458.35 L656.2 1461.55 L640.026 1461.55 L640.026 1458.35 Z" fill="#000000" fill-rule="evenodd" fill-opacity="1" /><path clip-path="url(#clip500)" d="M884.966 1485.02 L892.605 1485.02 L892.605 1458.66 L884.295 1460.32 L884.295 1456.06 L892.559 1454.4 L897.235 1454.4 L897.235 1485.02 L904.874 1485.02 L904.874 1488.96 L884.966 1488.96 L884.966 1485.02 Z" fill="#000000" fill-rule="evenodd" fill-opacity="1" /><path clip-path="url(#clip500)" d="M924.318 1457.48 Q920.707 1457.48 918.878 1461.04 Q917.073 1464.58 917.073 1471.71 Q917.073 1478.82 918.878 1482.38 Q920.707 1485.92 924.318 1485.92 Q927.952 1485.92 929.758 1482.38 Q931.586 1478.82 931.586 1471.71 Q931.586 1464.58 929.758 1461.04 Q927.952 1457.48 924.318 1457.48 M924.318 1453.77 Q930.128 1453.77 933.184 1458.38 Q936.262 1462.96 936.262 1471.71 Q936.262 1480.44 933.184 1485.04 Q930.128 1489.63 924.318 1489.63 Q918.508 1489.63 915.429 1485.04 Q912.373 1480.44 912.373 1471.71 Q912.373 1462.96 915.429 1458.38 Q918.508 1453.77 924.318 1453.77 Z" fill="#000000" fill-rule="evenodd" fill-opacity="1" /><path clip-path="url(#clip500)" d="M940.833 1458.35 L954.092 1458.35 L954.092 1461.55 L936.262 1461.55 L936.262 1458.35 Q938.425 1456.11 942.149 1452.35 Q945.892 1448.57 946.851 1447.48 Q948.675 1445.43 949.39 1444.02 Q950.124 1442.59 950.124 1441.22 Q950.124 1438.98 948.544 1437.57 Q946.983 1436.16 944.462 1436.16 Q942.676 1436.16 940.682 1436.78 Q938.707 1437.4 936.45 1438.66 L936.45 1434.82 Q938.745 1433.9 940.738 1433.43 Q942.732 1432.96 944.387 1432.96 Q948.751 1432.96 951.346 1435.14 Q953.942 1437.32 953.942 1440.97 Q953.942 1442.7 953.283 1444.26 Q952.644 1445.8 950.932 1447.91 Q950.462 1448.46 947.942 1451.07 Q945.422 1453.67 940.833 1458.35 Z" fill="#000000" fill-rule="evenodd" fill-opacity="1" /><path clip-path="url(#clip500)" d="M1181.97 1485.02 L1189.61 1485.02 L1189.61 1458.66 L1181.3 1460.32 L1181.3 1456.06 L1189.57 1454.4 L1194.24 1454.4 L1194.24 1485.02 L1201.88 1485.02 L1201.88 1488.96 L1181.97 1488.96 L1181.97 1485.02 Z" fill="#000000" fill-rule="evenodd" fill-opacity="1" /><path clip-path="url(#clip500)" d="M1221.33 1457.48 Q1217.71 1457.48 1215.89 1461.04 Q1214.08 1464.58 1214.08 1471.71 Q1214.08 1478.82 1215.89 1482.38 Q1217.71 1485.92 1221.33 1485.92 Q1224.96 1485.92 1226.77 1482.38 Q1228.59 1478.82 1228.59 1471.71 Q1228.59 1464.58 1226.77 1461.04 Q1224.96 1457.48 1221.33 1457.48 M1221.33 1453.77 Q1227.14 1453.77 1230.19 1458.38 Q1233.27 1462.96 1233.27 1471.71 Q1233.27 1480.44 1230.19 1485.04 Q1227.14 1489.63 1221.33 1489.63 Q1215.52 1489.63 1212.44 1485.04 Q1209.38 1480.44 1209.38 1471.71 Q1209.38 1462.96 1212.44 1458.38 Q1215.52 1453.77 1221.33 1453.77 Z" fill="#000000" fill-rule="evenodd" fill-opacity="1" /><path clip-path="url(#clip500)" d="M1245.97 1446.41 Q1248.69 1446.99 1250.22 1448.83 Q1251.76 1450.68 1251.76 1453.38 Q1251.76 1457.54 1248.9 1459.82 Q1246.04 1462.09 1240.77 1462.09 Q1239.01 1462.09 1237.13 1461.73 Q1235.26 1461.4 1233.27 1460.7 L1233.27 1457.03 Q1234.85 1457.95 1236.73 1458.42 Q1238.61 1458.89 1240.66 1458.89 Q1244.23 1458.89 1246.1 1457.48 Q1247.98 1456.07 1247.98 1453.38 Q1247.98 1450.9 1246.23 1449.51 Q1244.5 1448.1 1241.4 1448.1 L1238.12 1448.1 L1238.12 1444.98 L1241.55 1444.98 Q1244.35 1444.98 1245.83 1443.87 Q1247.32 1442.74 1247.32 1440.63 Q1247.32 1438.47 1245.78 1437.32 Q1244.25 1436.16 1241.4 1436.16 Q1239.83 1436.16 1238.05 1436.49 Q1236.26 1436.83 1234.12 1437.55 L1234.12 1434.16 Q1236.28 1433.56 1238.16 1433.26 Q1240.06 1432.96 1241.73 1432.96 Q1246.06 1432.96 1248.58 1434.93 Q1251.1 1436.89 1251.1 1440.24 Q1251.1 1442.57 1249.76 1444.19 Q1248.43 1445.79 1245.97 1446.41 Z" fill="#000000" fill-rule="evenodd" fill-opacity="1" /><path clip-path="url(#clip500)" d="M1478.32 1485.02 L1485.96 1485.02 L1485.96 1458.66 L1477.65 1460.32 L1477.65 1456.06 L1485.92 1454.4 L1490.59 1454.4 L1490.59 1485.02 L1498.23 1485.02 L1498.23 1488.96 L1478.32 1488.96 L1478.32 1485.02 Z" fill="#000000" fill-rule="evenodd" fill-opacity="1" /><path clip-path="url(#clip500)" d="M1517.68 1457.48 Q1514.06 1457.48 1512.24 1461.04 Q1510.43 1464.58 1510.43 1471.71 Q1510.43 1478.82 1512.24 1482.38 Q1514.06 1485.92 1517.68 1485.92 Q1521.31 1485.92 1523.12 1482.38 Q1524.94 1478.82 1524.94 1471.71 Q1524.94 1464.58 1523.12 1461.04 Q1521.31 1457.48 1517.68 1457.48 M1517.68 1453.77 Q1523.49 1453.77 1526.54 1458.38 Q1529.62 1462.96 1529.62 1471.71 Q1529.62 1480.44 1526.54 1485.04 Q1523.49 1489.63 1517.68 1489.63 Q1511.87 1489.63 1508.79 1485.04 Q1505.73 1480.44 1505.73 1471.71 Q1505.73 1462.96 1508.79 1458.38 Q1511.87 1453.77 1517.68 1453.77 Z" fill="#000000" fill-rule="evenodd" fill-opacity="1" /><path clip-path="url(#clip500)" d="M1542.3 1436.78 L1532.7 1451.77 L1542.3 1451.77 L1542.3 1436.78 M1541.3 1433.47 L1546.08 1433.47 L1546.08 1451.77 L1550.08 1451.77 L1550.08 1454.93 L1546.08 1454.93 L1546.08 1461.55 L1542.3 1461.55 L1542.3 1454.93 L1529.62 1454.93 L1529.62 1451.26 L1541.3 1433.47 Z" fill="#000000" fill-rule="evenodd" fill-opacity="1" /><path clip-path="url(#clip500)" d="M1776.81 1485.02 L1784.45 1485.02 L1784.45 1458.66 L1776.14 1460.32 L1776.14 1456.06 L1784.4 1454.4 L1789.08 1454.4 L1789.08 1485.02 L1796.72 1485.02 L1796.72 1488.96 L1776.81 1488.96 L1776.81 1485.02 Z" fill="#000000" fill-rule="evenodd" fill-opacity="1" /><path clip-path="url(#clip500)" d="M1816.16 1457.48 Q1812.55 1457.48 1810.72 1461.04 Q1808.91 1464.58 1808.91 1471.71 Q1808.91 1478.82 1810.72 1482.38 Q1812.55 1485.92 1816.16 1485.92 Q1819.79 1485.92 1821.6 1482.38 Q1823.43 1478.82 1823.43 1471.71 Q1823.43 1464.58 1821.6 1461.04 Q1819.79 1457.48 1816.16 1457.48 M1816.16 1453.77 Q1821.97 1453.77 1825.03 1458.38 Q1828.1 1462.96 1828.1 1471.71 Q1828.1 1480.44 1825.03 1485.04 Q1821.97 1489.63 1816.16 1489.63 Q1810.35 1489.63 1807.27 1485.04 Q1804.22 1480.44 1804.22 1471.71 Q1804.22 1462.96 1807.27 1458.38 Q1810.35 1453.77 1816.16 1453.77 Z" fill="#000000" fill-rule="evenodd" fill-opacity="1" /><path clip-path="url(#clip500)" d="M1829.29 1433.47 L1844.2 1433.47 L1844.2 1436.66 L1832.77 1436.66 L1832.77 1443.55 Q1833.6 1443.27 1834.42 1443.13 Q1835.25 1442.98 1836.08 1442.98 Q1840.78 1442.98 1843.53 1445.56 Q1846.27 1448.14 1846.27 1452.54 Q1846.27 1457.07 1843.45 1459.59 Q1840.63 1462.09 1835.5 1462.09 Q1833.73 1462.09 1831.88 1461.79 Q1830.06 1461.49 1828.1 1460.89 L1828.1 1457.07 Q1829.8 1457.99 1831.6 1458.44 Q1833.41 1458.89 1835.42 1458.89 Q1838.67 1458.89 1840.57 1457.18 Q1842.47 1455.47 1842.47 1452.54 Q1842.47 1449.6 1840.57 1447.89 Q1838.67 1446.18 1835.42 1446.18 Q1833.9 1446.18 1832.37 1446.52 Q1830.87 1446.86 1829.29 1447.57 L1829.29 1433.47 Z" fill="#000000" fill-rule="evenodd" fill-opacity="1" /><path clip-path="url(#clip500)" d="M2073.53 1485.02 L2081.17 1485.02 L2081.17 1458.66 L2072.86 1460.32 L2072.86 1456.06 L2081.13 1454.4 L2085.8 1454.4 L2085.8 1485.02 L2093.44 1485.02 L2093.44 1488.96 L2073.53 1488.96 L2073.53 1485.02 Z" fill="#000000" fill-rule="evenodd" fill-opacity="1" /><path clip-path="url(#clip500)" d="M2112.89 1457.48 Q2109.27 1457.48 2107.45 1461.04 Q2105.64 1464.58 2105.64 1471.71 Q2105.64 1478.82 2107.45 1482.38 Q2109.27 1485.92 2112.89 1485.92 Q2116.52 1485.92 2118.32 1482.38 Q2120.15 1478.82 2120.15 1471.71 Q2120.15 1464.58 2118.32 1461.04 Q2116.52 1457.48 2112.89 1457.48 M2112.89 1453.77 Q2118.7 1453.77 2121.75 1458.38 Q2124.83 1462.96 2124.83 1471.71 Q2124.83 1480.44 2121.75 1485.04 Q2118.7 1489.63 2112.89 1489.63 Q2107.07 1489.63 2104 1485.04 Q2100.94 1480.44 2100.94 1471.71 Q2100.94 1462.96 2104 1458.38 Q2107.07 1453.77 2112.89 1453.77 Z" fill="#000000" fill-rule="evenodd" fill-opacity="1" /><path clip-path="url(#clip500)" d="M2134.85 1445.99 Q2132.3 1445.99 2130.79 1447.74 Q2129.31 1449.49 2129.31 1452.54 Q2129.31 1455.57 2130.79 1457.33 Q2132.3 1459.08 2134.85 1459.08 Q2137.41 1459.08 2138.9 1457.33 Q2140.4 1455.57 2140.4 1452.54 Q2140.4 1449.49 2138.9 1447.74 Q2137.41 1445.99 2134.85 1445.99 M2142.4 1434.09 L2142.4 1437.55 Q2140.97 1436.87 2139.5 1436.51 Q2138.05 1436.16 2136.62 1436.16 Q2132.86 1436.16 2130.87 1438.69 Q2128.89 1441.23 2128.61 1446.37 Q2129.72 1444.73 2131.39 1443.87 Q2133.07 1442.98 2135.08 1442.98 Q2139.31 1442.98 2141.76 1445.56 Q2144.22 1448.12 2144.22 1452.54 Q2144.22 1456.86 2141.66 1459.48 Q2139.1 1462.09 2134.85 1462.09 Q2129.98 1462.09 2127.41 1458.37 Q2124.83 1454.62 2124.83 1447.53 Q2124.83 1440.88 2127.99 1436.93 Q2131.15 1432.96 2136.47 1432.96 Q2137.9 1432.96 2139.35 1433.24 Q2140.82 1433.52 2142.4 1434.09 Z" fill="#000000" fill-rule="evenodd" fill-opacity="1" /><path clip-path="url(#clip500)" d="M1067.16 1543.95 L1067.16 1524.66 L1073.01 1524.66 L1073.01 1574.19 L1067.16 1574.19 L1067.16 1568.84 Q1065.31 1572.02 1062.48 1573.58 Q1059.68 1575.11 1055.73 1575.11 Q1049.27 1575.11 1045.19 1569.95 Q1041.15 1564.8 1041.15 1556.39 Q1041.15 1547.99 1045.19 1542.83 Q1049.27 1537.68 1055.73 1537.68 Q1059.68 1537.68 1062.48 1539.24 Q1065.31 1540.77 1067.16 1543.95 M1047.2 1556.39 Q1047.2 1562.85 1049.84 1566.55 Q1052.51 1570.21 1057.16 1570.21 Q1061.81 1570.21 1064.48 1566.55 Q1067.16 1562.85 1067.16 1556.39 Q1067.16 1549.93 1064.48 1546.27 Q1061.81 1542.58 1057.16 1542.58 Q1052.51 1542.58 1049.84 1546.27 Q1047.2 1549.93 1047.2 1556.39 Z" fill="#000000" fill-rule="evenodd" fill-opacity="1" /><path clip-path="url(#clip500)" d="M1101.28 1556.27 Q1094.18 1556.27 1091.44 1557.89 Q1088.7 1559.51 1088.7 1563.43 Q1088.7 1566.55 1090.74 1568.39 Q1092.81 1570.21 1096.34 1570.21 Q1101.21 1570.21 1104.14 1566.77 Q1107.1 1563.3 1107.1 1557.57 L1107.1 1556.27 L1101.28 1556.27 M1112.96 1553.85 L1112.96 1574.19 L1107.1 1574.19 L1107.1 1568.77 Q1105.1 1572.02 1102.1 1573.58 Q1099.11 1575.11 1094.78 1575.11 Q1089.31 1575.11 1086.06 1572.05 Q1082.85 1568.97 1082.85 1563.81 Q1082.85 1557.79 1086.86 1554.74 Q1090.9 1551.68 1098.89 1551.68 L1107.1 1551.68 L1107.1 1551.11 Q1107.1 1547.07 1104.43 1544.87 Q1101.79 1542.64 1096.98 1542.64 Q1093.92 1542.64 1091.03 1543.38 Q1088.13 1544.11 1085.46 1545.57 L1085.46 1540.16 Q1088.67 1538.92 1091.7 1538.31 Q1094.72 1537.68 1097.58 1537.68 Q1105.32 1537.68 1109.14 1541.69 Q1112.96 1545.7 1112.96 1553.85 Z" fill="#000000" fill-rule="evenodd" fill-opacity="1" /><path clip-path="url(#clip500)" d="M1130.81 1528.42 L1130.81 1538.54 L1142.88 1538.54 L1142.88 1543.09 L1130.81 1543.09 L1130.81 1562.44 Q1130.81 1566.8 1131.99 1568.04 Q1133.2 1569.28 1136.86 1569.28 L1142.88 1569.28 L1142.88 1574.19 L1136.86 1574.19 Q1130.08 1574.19 1127.5 1571.67 Q1124.92 1569.12 1124.92 1562.44 L1124.92 1543.09 L1120.63 1543.09 L1120.63 1538.54 L1124.92 1538.54 L1124.92 1528.42 L1130.81 1528.42 Z" fill="#000000" fill-rule="evenodd" fill-opacity="1" /><path clip-path="url(#clip500)" d="M1166.78 1556.27 Q1159.68 1556.27 1156.94 1557.89 Q1154.21 1559.51 1154.21 1563.43 Q1154.21 1566.55 1156.24 1568.39 Q1158.31 1570.21 1161.85 1570.21 Q1166.72 1570.21 1169.64 1566.77 Q1172.6 1563.3 1172.6 1557.57 L1172.6 1556.27 L1166.78 1556.27 M1178.46 1553.85 L1178.46 1574.19 L1172.6 1574.19 L1172.6 1568.77 Q1170.6 1572.02 1167.61 1573.58 Q1164.61 1575.11 1160.29 1575.11 Q1154.81 1575.11 1151.56 1572.05 Q1148.35 1568.97 1148.35 1563.81 Q1148.35 1557.79 1152.36 1554.74 Q1156.4 1551.68 1164.39 1551.68 L1172.6 1551.68 L1172.6 1551.11 Q1172.6 1547.07 1169.93 1544.87 Q1167.29 1542.64 1162.48 1542.64 Q1159.43 1542.64 1156.53 1543.38 Q1153.63 1544.11 1150.96 1545.57 L1150.96 1540.16 Q1154.17 1538.92 1157.2 1538.31 Q1160.22 1537.68 1163.09 1537.68 Q1170.82 1537.68 1174.64 1541.69 Q1178.46 1545.7 1178.46 1553.85 Z" fill="#000000" fill-rule="evenodd" fill-opacity="1" /><path clip-path="url(#clip500)" d="M1233.97 1539.59 L1233.97 1545.13 Q1231.49 1543.85 1228.81 1543.22 Q1226.14 1542.58 1223.27 1542.58 Q1218.91 1542.58 1216.72 1543.92 Q1214.55 1545.25 1214.55 1547.93 Q1214.55 1549.96 1216.11 1551.14 Q1217.67 1552.29 1222.38 1553.34 L1224.39 1553.78 Q1230.63 1555.12 1233.24 1557.57 Q1235.88 1559.99 1235.88 1564.35 Q1235.88 1569.32 1231.93 1572.21 Q1228.02 1575.11 1221.14 1575.11 Q1218.28 1575.11 1215.16 1574.54 Q1212.07 1573.99 1208.63 1572.88 L1208.63 1566.83 Q1211.88 1568.52 1215.03 1569.38 Q1218.18 1570.21 1221.27 1570.21 Q1225.41 1570.21 1227.64 1568.81 Q1229.86 1567.37 1229.86 1564.8 Q1229.86 1562.41 1228.24 1561.14 Q1226.65 1559.86 1221.21 1558.68 L1219.17 1558.21 Q1213.73 1557.06 1211.31 1554.71 Q1208.89 1552.32 1208.89 1548.18 Q1208.89 1543.15 1212.45 1540.42 Q1216.02 1537.68 1222.57 1537.68 Q1225.82 1537.68 1228.69 1538.16 Q1231.55 1538.63 1233.97 1539.59 Z" fill="#000000" fill-rule="evenodd" fill-opacity="1" /><path clip-path="url(#clip500)" d="M1245.2 1538.54 L1251.06 1538.54 L1251.06 1574.19 L1245.2 1574.19 L1245.2 1538.54 M1245.2 1524.66 L1251.06 1524.66 L1251.06 1532.08 L1245.2 1532.08 L1245.2 1524.66 Z" fill="#000000" fill-rule="evenodd" fill-opacity="1" /><path clip-path="url(#clip500)" d="M1260.77 1538.54 L1288.59 1538.54 L1288.59 1543.88 L1266.56 1569.51 L1288.59 1569.51 L1288.59 1574.19 L1259.97 1574.19 L1259.97 1568.84 L1282 1543.22 L1260.77 1543.22 L1260.77 1538.54 Z" fill="#000000" fill-rule="evenodd" fill-opacity="1" /><path clip-path="url(#clip500)" d="M1328.02 1554.9 L1328.02 1557.76 L1301.1 1557.76 Q1301.48 1563.81 1304.72 1566.99 Q1308 1570.14 1313.83 1570.14 Q1317.2 1570.14 1320.35 1569.32 Q1323.53 1568.49 1326.65 1566.83 L1326.65 1572.37 Q1323.5 1573.71 1320.19 1574.41 Q1316.88 1575.11 1313.48 1575.11 Q1304.95 1575.11 1299.95 1570.14 Q1294.98 1565.18 1294.98 1556.71 Q1294.98 1547.96 1299.69 1542.83 Q1304.44 1537.68 1312.46 1537.68 Q1319.65 1537.68 1323.82 1542.33 Q1328.02 1546.94 1328.02 1554.9 M1322.17 1553.18 Q1322.1 1548.37 1319.46 1545.51 Q1316.85 1542.64 1312.52 1542.64 Q1307.62 1542.64 1304.66 1545.41 Q1301.73 1548.18 1301.29 1553.21 L1322.17 1553.18 Z" fill="#000000" fill-rule="evenodd" fill-opacity="1" /><path clip-path="url(#clip500)" d="M1372.42 1524.72 Q1368.16 1532.04 1366.09 1539.21 Q1364.02 1546.37 1364.02 1553.72 Q1364.02 1561.07 1366.09 1568.3 Q1368.19 1575.49 1372.42 1582.78 L1367.33 1582.78 Q1362.56 1575.3 1360.17 1568.07 Q1357.81 1560.85 1357.81 1553.72 Q1357.81 1546.62 1360.17 1539.43 Q1362.52 1532.24 1367.33 1524.72 L1372.42 1524.72 Z" fill="#000000" fill-rule="evenodd" fill-opacity="1" /><path clip-path="url(#clip500)" d="M1409.38 1556.39 Q1409.38 1549.93 1406.7 1546.27 Q1404.06 1542.58 1399.41 1542.58 Q1394.77 1542.58 1392.09 1546.27 Q1389.45 1549.93 1389.45 1556.39 Q1389.45 1562.85 1392.09 1566.55 Q1394.77 1570.21 1399.41 1570.21 Q1404.06 1570.21 1406.7 1566.55 Q1409.38 1562.85 1409.38 1556.39 M1389.45 1543.95 Q1391.3 1540.77 1394.1 1539.24 Q1396.93 1537.68 1400.85 1537.68 Q1407.34 1537.68 1411.38 1542.83 Q1415.46 1547.99 1415.46 1556.39 Q1415.46 1564.8 1411.38 1569.95 Q1407.34 1575.11 1400.85 1575.11 Q1396.93 1575.11 1394.1 1573.58 Q1391.3 1572.02 1389.45 1568.84 L1389.45 1574.19 L1383.56 1574.19 L1383.56 1524.66 L1389.45 1524.66 L1389.45 1543.95 Z" fill="#000000" fill-rule="evenodd" fill-opacity="1" /><path clip-path="url(#clip500)" d="M1440 1577.5 Q1437.51 1583.86 1435.16 1585.8 Q1432.8 1587.74 1428.86 1587.74 L1424.18 1587.74 L1424.18 1582.84 L1427.61 1582.84 Q1430.03 1582.84 1431.37 1581.7 Q1432.71 1580.55 1434.33 1576.29 L1435.38 1573.61 L1420.96 1538.54 L1427.17 1538.54 L1438.31 1566.42 L1449.45 1538.54 L1455.65 1538.54 L1440 1577.5 Z" fill="#000000" fill-rule="evenodd" fill-opacity="1" /><path clip-path="url(#clip500)" d="M1469.53 1528.42 L1469.53 1538.54 L1481.6 1538.54 L1481.6 1543.09 L1469.53 1543.09 L1469.53 1562.44 Q1469.53 1566.8 1470.71 1568.04 Q1471.92 1569.28 1475.58 1569.28 L1481.6 1569.28 L1481.6 1574.19 L1475.58 1574.19 Q1468.8 1574.19 1466.22 1571.67 Q1463.64 1569.12 1463.64 1562.44 L1463.64 1543.09 L1459.35 1543.09 L1459.35 1538.54 L1463.64 1538.54 L1463.64 1528.42 L1469.53 1528.42 Z" fill="#000000" fill-rule="evenodd" fill-opacity="1" /><path clip-path="url(#clip500)" d="M1519.79 1554.9 L1519.79 1557.76 L1492.86 1557.76 Q1493.24 1563.81 1496.49 1566.99 Q1499.77 1570.14 1505.59 1570.14 Q1508.97 1570.14 1512.12 1569.32 Q1515.3 1568.49 1518.42 1566.83 L1518.42 1572.37 Q1515.27 1573.71 1511.96 1574.41 Q1508.65 1575.11 1505.24 1575.11 Q1496.71 1575.11 1491.72 1570.14 Q1486.75 1565.18 1486.75 1556.71 Q1486.75 1547.96 1491.46 1542.83 Q1496.2 1537.68 1504.23 1537.68 Q1511.42 1537.68 1515.59 1542.33 Q1519.79 1546.94 1519.79 1554.9 M1513.93 1553.18 Q1513.87 1548.37 1511.23 1545.51 Q1508.62 1542.64 1504.29 1542.64 Q1499.39 1542.64 1496.43 1545.41 Q1493.5 1548.18 1493.05 1553.21 L1513.93 1553.18 Z" fill="#000000" fill-rule="evenodd" fill-opacity="1" /><path clip-path="url(#clip500)" d="M1552.13 1539.59 L1552.13 1545.13 Q1549.64 1543.85 1546.97 1543.22 Q1544.3 1542.58 1541.43 1542.58 Q1537.07 1542.58 1534.88 1543.92 Q1532.71 1545.25 1532.71 1547.93 Q1532.71 1549.96 1534.27 1551.14 Q1535.83 1552.29 1540.54 1553.34 L1542.55 1553.78 Q1548.79 1555.12 1551.4 1557.57 Q1554.04 1559.99 1554.04 1564.35 Q1554.04 1569.32 1550.09 1572.21 Q1546.18 1575.11 1539.3 1575.11 Q1536.44 1575.11 1533.32 1574.54 Q1530.23 1573.99 1526.79 1572.88 L1526.79 1566.83 Q1530.04 1568.52 1533.19 1569.38 Q1536.34 1570.21 1539.43 1570.21 Q1543.57 1570.21 1545.79 1568.81 Q1548.02 1567.37 1548.02 1564.8 Q1548.02 1562.41 1546.4 1561.14 Q1544.81 1559.86 1539.36 1558.68 L1537.33 1558.21 Q1531.88 1557.06 1529.47 1554.71 Q1527.05 1552.32 1527.05 1548.18 Q1527.05 1543.15 1530.61 1540.42 Q1534.18 1537.68 1540.73 1537.68 Q1543.98 1537.68 1546.84 1538.16 Q1549.71 1538.63 1552.13 1539.59 Z" fill="#000000" fill-rule="evenodd" fill-opacity="1" /><path clip-path="url(#clip500)" d="M1562.44 1524.72 L1567.53 1524.72 Q1572.31 1532.24 1574.66 1539.43 Q1577.05 1546.62 1577.05 1553.72 Q1577.05 1560.85 1574.66 1568.07 Q1572.31 1575.3 1567.53 1582.78 L1562.44 1582.78 Q1566.67 1575.49 1568.74 1568.3 Q1570.84 1561.07 1570.84 1553.72 Q1570.84 1546.37 1568.74 1539.21 Q1566.67 1532.04 1562.44 1524.72 Z" fill="#000000" fill-rule="evenodd" fill-opacity="1" /><polyline clip-path="url(#clip502)" style="stroke:#000000; stroke-linecap:butt; stroke-linejoin:round; stroke-width:2; stroke-opacity:0.1; fill:none" points="
  265.445,1375.09 2352.76,1375.09 
  "/>
<polyline clip-path="url(#clip502)" style="stroke:#000000; stroke-linecap:butt; stroke-linejoin:round; stroke-width:2; stroke-opacity:0.1; fill:none" points="
  265.445,1185.38 2352.76,1185.38 
  "/>
<polyline clip-path="url(#clip502)" style="stroke:#000000; stroke-linecap:butt; stroke-linejoin:round; stroke-width:2; stroke-opacity:0.1; fill:none" points="
  265.445,995.672 2352.76,995.672 
  "/>
<polyline clip-path="url(#clip502)" style="stroke:#000000; stroke-linecap:butt; stroke-linejoin:round; stroke-width:2; stroke-opacity:0.1; fill:none" points="
  265.445,805.965 2352.76,805.965 
  "/>
<polyline clip-path="url(#clip502)" style="stroke:#000000; stroke-linecap:butt; stroke-linejoin:round; stroke-width:2; stroke-opacity:0.1; fill:none" points="
  265.445,616.258 2352.76,616.258 
  "/>
<polyline clip-path="url(#clip502)" style="stroke:#000000; stroke-linecap:butt; stroke-linejoin:round; stroke-width:2; stroke-opacity:0.1; fill:none" points="
  265.445,426.551 2352.76,426.551 
  "/>
<polyline clip-path="url(#clip502)" style="stroke:#000000; stroke-linecap:butt; stroke-linejoin:round; stroke-width:2; stroke-opacity:0.1; fill:none" points="
  265.445,236.844 2352.76,236.844 
  "/>
<polyline clip-path="url(#clip500)" style="stroke:#000000; stroke-linecap:butt; stroke-linejoin:round; stroke-width:4; stroke-opacity:1; fill:none" points="
  265.445,1410.9 265.445,123.472 
  "/>
<polyline clip-path="url(#clip500)" style="stroke:#000000; stroke-linecap:butt; stroke-linejoin:round; stroke-width:4; stroke-opacity:1; fill:none" points="
  265.445,1375.09 284.342,1375.09 
  "/>
<polyline clip-path="url(#clip500)" style="stroke:#000000; stroke-linecap:butt; stroke-linejoin:round; stroke-width:4; stroke-opacity:1; fill:none" points="
  265.445,1185.38 284.342,1185.38 
  "/>
<polyline clip-path="url(#clip500)" style="stroke:#000000; stroke-linecap:butt; stroke-linejoin:round; stroke-width:4; stroke-opacity:1; fill:none" points="
  265.445,995.672 284.342,995.672 
  "/>
<polyline clip-path="url(#clip500)" style="stroke:#000000; stroke-linecap:butt; stroke-linejoin:round; stroke-width:4; stroke-opacity:1; fill:none" points="
  265.445,805.965 284.342,805.965 
  "/>
<polyline clip-path="url(#clip500)" style="stroke:#000000; stroke-linecap:butt; stroke-linejoin:round; stroke-width:4; stroke-opacity:1; fill:none" points="
  265.445,616.258 284.342,616.258 
  "/>
<polyline clip-path="url(#clip500)" style="stroke:#000000; stroke-linecap:butt; stroke-linejoin:round; stroke-width:4; stroke-opacity:1; fill:none" points="
  265.445,426.551 284.342,426.551 
  "/>
<polyline clip-path="url(#clip500)" style="stroke:#000000; stroke-linecap:butt; stroke-linejoin:round; stroke-width:4; stroke-opacity:1; fill:none" points="
  265.445,236.844 284.342,236.844 
  "/>
<path clip-path="url(#clip500)" d="M217.5 1360.88 Q213.889 1360.88 212.061 1364.45 Q210.255 1367.99 210.255 1375.12 Q210.255 1382.23 212.061 1385.79 Q213.889 1389.33 217.5 1389.33 Q221.135 1389.33 222.94 1385.79 Q224.769 1382.23 224.769 1375.12 Q224.769 1367.99 222.94 1364.45 Q221.135 1360.88 217.5 1360.88 M217.5 1357.18 Q223.31 1357.18 226.366 1361.79 Q229.445 1366.37 229.445 1375.12 Q229.445 1383.85 226.366 1388.45 Q223.31 1393.04 217.5 1393.04 Q211.69 1393.04 208.612 1388.45 Q205.556 1383.85 205.556 1375.12 Q205.556 1366.37 208.612 1361.79 Q211.69 1357.18 217.5 1357.18 Z" fill="#000000" fill-rule="evenodd" fill-opacity="1" /><path clip-path="url(#clip500)" d="M117.825 1198.72 L125.464 1198.72 L125.464 1172.36 L117.154 1174.03 L117.154 1169.77 L125.418 1168.1 L130.093 1168.1 L130.093 1198.72 L137.732 1198.72 L137.732 1202.66 L117.825 1202.66 L117.825 1198.72 Z" fill="#000000" fill-rule="evenodd" fill-opacity="1" /><path clip-path="url(#clip500)" d="M157.177 1171.18 Q153.566 1171.18 151.737 1174.74 Q149.931 1178.28 149.931 1185.41 Q149.931 1192.52 151.737 1196.09 Q153.566 1199.63 157.177 1199.63 Q160.811 1199.63 162.616 1196.09 Q164.445 1192.52 164.445 1185.41 Q164.445 1178.28 162.616 1174.74 Q160.811 1171.18 157.177 1171.18 M157.177 1167.47 Q162.987 1167.47 166.042 1172.08 Q169.121 1176.66 169.121 1185.41 Q169.121 1194.14 166.042 1198.75 Q162.987 1203.33 157.177 1203.33 Q151.366 1203.33 148.288 1198.75 Q145.232 1194.14 145.232 1185.41 Q145.232 1176.66 148.288 1172.08 Q151.366 1167.47 157.177 1167.47 Z" fill="#000000" fill-rule="evenodd" fill-opacity="1" /><path clip-path="url(#clip500)" d="M187.338 1171.18 Q183.727 1171.18 181.899 1174.74 Q180.093 1178.28 180.093 1185.41 Q180.093 1192.52 181.899 1196.09 Q183.727 1199.63 187.338 1199.63 Q190.973 1199.63 192.778 1196.09 Q194.607 1192.52 194.607 1185.41 Q194.607 1178.28 192.778 1174.74 Q190.973 1171.18 187.338 1171.18 M187.338 1167.47 Q193.149 1167.47 196.204 1172.08 Q199.283 1176.66 199.283 1185.41 Q199.283 1194.14 196.204 1198.75 Q193.149 1203.33 187.338 1203.33 Q181.528 1203.33 178.45 1198.75 Q175.394 1194.14 175.394 1185.41 Q175.394 1176.66 178.45 1172.08 Q181.528 1167.47 187.338 1167.47 Z" fill="#000000" fill-rule="evenodd" fill-opacity="1" /><path clip-path="url(#clip500)" d="M217.5 1171.18 Q213.889 1171.18 212.061 1174.74 Q210.255 1178.28 210.255 1185.41 Q210.255 1192.52 212.061 1196.09 Q213.889 1199.63 217.5 1199.63 Q221.135 1199.63 222.94 1196.09 Q224.769 1192.52 224.769 1185.41 Q224.769 1178.28 222.94 1174.74 Q221.135 1171.18 217.5 1171.18 M217.5 1167.47 Q223.31 1167.47 226.366 1172.08 Q229.445 1176.66 229.445 1185.41 Q229.445 1194.14 226.366 1198.75 Q223.31 1203.33 217.5 1203.33 Q211.69 1203.33 208.612 1198.75 Q205.556 1194.14 205.556 1185.41 Q205.556 1176.66 208.612 1172.08 Q211.69 1167.47 217.5 1167.47 Z" fill="#000000" fill-rule="evenodd" fill-opacity="1" /><path clip-path="url(#clip500)" d="M121.043 1009.02 L137.362 1009.02 L137.362 1012.95 L115.418 1012.95 L115.418 1009.02 Q118.08 1006.26 122.663 1001.63 Q127.269 996.98 128.45 995.637 Q130.695 993.114 131.575 991.378 Q132.478 989.619 132.478 987.929 Q132.478 985.175 130.533 983.438 Q128.612 981.702 125.51 981.702 Q123.311 981.702 120.857 982.466 Q118.427 983.23 115.649 984.781 L115.649 980.059 Q118.473 978.925 120.927 978.346 Q123.38 977.767 125.418 977.767 Q130.788 977.767 133.982 980.452 Q137.177 983.138 137.177 987.628 Q137.177 989.758 136.367 991.679 Q135.579 993.577 133.473 996.17 Q132.894 996.841 129.792 1000.06 Q126.691 1003.25 121.043 1009.02 Z" fill="#000000" fill-rule="evenodd" fill-opacity="1" /><path clip-path="url(#clip500)" d="M157.177 981.471 Q153.566 981.471 151.737 985.036 Q149.931 988.577 149.931 995.707 Q149.931 1002.81 151.737 1006.38 Q153.566 1009.92 157.177 1009.92 Q160.811 1009.92 162.616 1006.38 Q164.445 1002.81 164.445 995.707 Q164.445 988.577 162.616 985.036 Q160.811 981.471 157.177 981.471 M157.177 977.767 Q162.987 977.767 166.042 982.374 Q169.121 986.957 169.121 995.707 Q169.121 1004.43 166.042 1009.04 Q162.987 1013.62 157.177 1013.62 Q151.366 1013.62 148.288 1009.04 Q145.232 1004.43 145.232 995.707 Q145.232 986.957 148.288 982.374 Q151.366 977.767 157.177 977.767 Z" fill="#000000" fill-rule="evenodd" fill-opacity="1" /><path clip-path="url(#clip500)" d="M187.338 981.471 Q183.727 981.471 181.899 985.036 Q180.093 988.577 180.093 995.707 Q180.093 1002.81 181.899 1006.38 Q183.727 1009.92 187.338 1009.92 Q190.973 1009.92 192.778 1006.38 Q194.607 1002.81 194.607 995.707 Q194.607 988.577 192.778 985.036 Q190.973 981.471 187.338 981.471 M187.338 977.767 Q193.149 977.767 196.204 982.374 Q199.283 986.957 199.283 995.707 Q199.283 1004.43 196.204 1009.04 Q193.149 1013.62 187.338 1013.62 Q181.528 1013.62 178.45 1009.04 Q175.394 1004.43 175.394 995.707 Q175.394 986.957 178.45 982.374 Q181.528 977.767 187.338 977.767 Z" fill="#000000" fill-rule="evenodd" fill-opacity="1" /><path clip-path="url(#clip500)" d="M217.5 981.471 Q213.889 981.471 212.061 985.036 Q210.255 988.577 210.255 995.707 Q210.255 1002.81 212.061 1006.38 Q213.889 1009.92 217.5 1009.92 Q221.135 1009.92 222.94 1006.38 Q224.769 1002.81 224.769 995.707 Q224.769 988.577 222.94 985.036 Q221.135 981.471 217.5 981.471 M217.5 977.767 Q223.31 977.767 226.366 982.374 Q229.445 986.957 229.445 995.707 Q229.445 1004.43 226.366 1009.04 Q223.31 1013.62 217.5 1013.62 Q211.69 1013.62 208.612 1009.04 Q205.556 1004.43 205.556 995.707 Q205.556 986.957 208.612 982.374 Q211.69 977.767 217.5 977.767 Z" fill="#000000" fill-rule="evenodd" fill-opacity="1" /><path clip-path="url(#clip500)" d="M131.181 804.611 Q134.538 805.329 136.413 807.597 Q138.311 809.866 138.311 813.199 Q138.311 818.315 134.792 821.116 Q131.274 823.917 124.793 823.917 Q122.617 823.917 120.302 823.477 Q118.01 823.06 115.556 822.204 L115.556 817.69 Q117.501 818.824 119.816 819.403 Q122.13 819.981 124.654 819.981 Q129.052 819.981 131.343 818.245 Q133.658 816.509 133.658 813.199 Q133.658 810.143 131.505 808.43 Q129.376 806.694 125.556 806.694 L121.529 806.694 L121.529 802.852 L125.742 802.852 Q129.191 802.852 131.019 801.486 Q132.848 800.097 132.848 797.505 Q132.848 794.843 130.95 793.431 Q129.075 791.995 125.556 791.995 Q123.635 791.995 121.436 792.412 Q119.237 792.829 116.598 793.708 L116.598 789.542 Q119.26 788.801 121.575 788.431 Q123.913 788.06 125.973 788.06 Q131.297 788.06 134.399 790.491 Q137.501 792.898 137.501 797.019 Q137.501 799.889 135.857 801.88 Q134.214 803.847 131.181 804.611 Z" fill="#000000" fill-rule="evenodd" fill-opacity="1" /><path clip-path="url(#clip500)" d="M157.177 791.764 Q153.566 791.764 151.737 795.329 Q149.931 798.87 149.931 806 Q149.931 813.106 151.737 816.671 Q153.566 820.213 157.177 820.213 Q160.811 820.213 162.616 816.671 Q164.445 813.106 164.445 806 Q164.445 798.87 162.616 795.329 Q160.811 791.764 157.177 791.764 M157.177 788.06 Q162.987 788.06 166.042 792.667 Q169.121 797.25 169.121 806 Q169.121 814.727 166.042 819.333 Q162.987 823.917 157.177 823.917 Q151.366 823.917 148.288 819.333 Q145.232 814.727 145.232 806 Q145.232 797.25 148.288 792.667 Q151.366 788.06 157.177 788.06 Z" fill="#000000" fill-rule="evenodd" fill-opacity="1" /><path clip-path="url(#clip500)" d="M187.338 791.764 Q183.727 791.764 181.899 795.329 Q180.093 798.87 180.093 806 Q180.093 813.106 181.899 816.671 Q183.727 820.213 187.338 820.213 Q190.973 820.213 192.778 816.671 Q194.607 813.106 194.607 806 Q194.607 798.87 192.778 795.329 Q190.973 791.764 187.338 791.764 M187.338 788.06 Q193.149 788.06 196.204 792.667 Q199.283 797.25 199.283 806 Q199.283 814.727 196.204 819.333 Q193.149 823.917 187.338 823.917 Q181.528 823.917 178.45 819.333 Q175.394 814.727 175.394 806 Q175.394 797.25 178.45 792.667 Q181.528 788.06 187.338 788.06 Z" fill="#000000" fill-rule="evenodd" fill-opacity="1" /><path clip-path="url(#clip500)" d="M217.5 791.764 Q213.889 791.764 212.061 795.329 Q210.255 798.87 210.255 806 Q210.255 813.106 212.061 816.671 Q213.889 820.213 217.5 820.213 Q221.135 820.213 222.94 816.671 Q224.769 813.106 224.769 806 Q224.769 798.87 222.94 795.329 Q221.135 791.764 217.5 791.764 M217.5 788.06 Q223.31 788.06 226.366 792.667 Q229.445 797.25 229.445 806 Q229.445 814.727 226.366 819.333 Q223.31 823.917 217.5 823.917 Q211.69 823.917 208.612 819.333 Q205.556 814.727 205.556 806 Q205.556 797.25 208.612 792.667 Q211.69 788.06 217.5 788.06 Z" fill="#000000" fill-rule="evenodd" fill-opacity="1" /><path clip-path="url(#clip500)" d="M129.862 603.052 L118.056 621.501 L129.862 621.501 L129.862 603.052 M128.635 598.978 L134.515 598.978 L134.515 621.501 L139.445 621.501 L139.445 625.39 L134.515 625.39 L134.515 633.538 L129.862 633.538 L129.862 625.39 L114.26 625.39 L114.26 620.876 L128.635 598.978 Z" fill="#000000" fill-rule="evenodd" fill-opacity="1" /><path clip-path="url(#clip500)" d="M157.177 602.057 Q153.566 602.057 151.737 605.622 Q149.931 609.163 149.931 616.293 Q149.931 623.399 151.737 626.964 Q153.566 630.506 157.177 630.506 Q160.811 630.506 162.616 626.964 Q164.445 623.399 164.445 616.293 Q164.445 609.163 162.616 605.622 Q160.811 602.057 157.177 602.057 M157.177 598.353 Q162.987 598.353 166.042 602.96 Q169.121 607.543 169.121 616.293 Q169.121 625.02 166.042 629.626 Q162.987 634.21 157.177 634.21 Q151.366 634.21 148.288 629.626 Q145.232 625.02 145.232 616.293 Q145.232 607.543 148.288 602.96 Q151.366 598.353 157.177 598.353 Z" fill="#000000" fill-rule="evenodd" fill-opacity="1" /><path clip-path="url(#clip500)" d="M187.338 602.057 Q183.727 602.057 181.899 605.622 Q180.093 609.163 180.093 616.293 Q180.093 623.399 181.899 626.964 Q183.727 630.506 187.338 630.506 Q190.973 630.506 192.778 626.964 Q194.607 623.399 194.607 616.293 Q194.607 609.163 192.778 605.622 Q190.973 602.057 187.338 602.057 M187.338 598.353 Q193.149 598.353 196.204 602.96 Q199.283 607.543 199.283 616.293 Q199.283 625.02 196.204 629.626 Q193.149 634.21 187.338 634.21 Q181.528 634.21 178.45 629.626 Q175.394 625.02 175.394 616.293 Q175.394 607.543 178.45 602.96 Q181.528 598.353 187.338 598.353 Z" fill="#000000" fill-rule="evenodd" fill-opacity="1" /><path clip-path="url(#clip500)" d="M217.5 602.057 Q213.889 602.057 212.061 605.622 Q210.255 609.163 210.255 616.293 Q210.255 623.399 212.061 626.964 Q213.889 630.506 217.5 630.506 Q221.135 630.506 222.94 626.964 Q224.769 623.399 224.769 616.293 Q224.769 609.163 222.94 605.622 Q221.135 602.057 217.5 602.057 M217.5 598.353 Q223.31 598.353 226.366 602.96 Q229.445 607.543 229.445 616.293 Q229.445 625.02 226.366 629.626 Q223.31 634.21 217.5 634.21 Q211.69 634.21 208.612 629.626 Q205.556 625.02 205.556 616.293 Q205.556 607.543 208.612 602.96 Q211.69 598.353 217.5 598.353 Z" fill="#000000" fill-rule="evenodd" fill-opacity="1" /><path clip-path="url(#clip500)" d="M117.061 409.271 L135.417 409.271 L135.417 413.206 L121.343 413.206 L121.343 421.679 Q122.362 421.331 123.38 421.169 Q124.399 420.984 125.418 420.984 Q131.205 420.984 134.584 424.155 Q137.964 427.327 137.964 432.743 Q137.964 438.322 134.492 441.424 Q131.019 444.503 124.7 444.503 Q122.524 444.503 120.255 444.132 Q118.01 443.762 115.603 443.021 L115.603 438.322 Q117.686 439.456 119.908 440.012 Q122.13 440.567 124.607 440.567 Q128.612 440.567 130.95 438.461 Q133.288 436.354 133.288 432.743 Q133.288 429.132 130.95 427.026 Q128.612 424.919 124.607 424.919 Q122.732 424.919 120.857 425.336 Q119.006 425.753 117.061 426.632 L117.061 409.271 Z" fill="#000000" fill-rule="evenodd" fill-opacity="1" /><path clip-path="url(#clip500)" d="M157.177 412.35 Q153.566 412.35 151.737 415.915 Q149.931 419.456 149.931 426.586 Q149.931 433.692 151.737 437.257 Q153.566 440.799 157.177 440.799 Q160.811 440.799 162.616 437.257 Q164.445 433.692 164.445 426.586 Q164.445 419.456 162.616 415.915 Q160.811 412.35 157.177 412.35 M157.177 408.646 Q162.987 408.646 166.042 413.253 Q169.121 417.836 169.121 426.586 Q169.121 435.313 166.042 439.919 Q162.987 444.503 157.177 444.503 Q151.366 444.503 148.288 439.919 Q145.232 435.313 145.232 426.586 Q145.232 417.836 148.288 413.253 Q151.366 408.646 157.177 408.646 Z" fill="#000000" fill-rule="evenodd" fill-opacity="1" /><path clip-path="url(#clip500)" d="M187.338 412.35 Q183.727 412.35 181.899 415.915 Q180.093 419.456 180.093 426.586 Q180.093 433.692 181.899 437.257 Q183.727 440.799 187.338 440.799 Q190.973 440.799 192.778 437.257 Q194.607 433.692 194.607 426.586 Q194.607 419.456 192.778 415.915 Q190.973 412.35 187.338 412.35 M187.338 408.646 Q193.149 408.646 196.204 413.253 Q199.283 417.836 199.283 426.586 Q199.283 435.313 196.204 439.919 Q193.149 444.503 187.338 444.503 Q181.528 444.503 178.45 439.919 Q175.394 435.313 175.394 426.586 Q175.394 417.836 178.45 413.253 Q181.528 408.646 187.338 408.646 Z" fill="#000000" fill-rule="evenodd" fill-opacity="1" /><path clip-path="url(#clip500)" d="M217.5 412.35 Q213.889 412.35 212.061 415.915 Q210.255 419.456 210.255 426.586 Q210.255 433.692 212.061 437.257 Q213.889 440.799 217.5 440.799 Q221.135 440.799 222.94 437.257 Q224.769 433.692 224.769 426.586 Q224.769 419.456 222.94 415.915 Q221.135 412.35 217.5 412.35 M217.5 408.646 Q223.31 408.646 226.366 413.253 Q229.445 417.836 229.445 426.586 Q229.445 435.313 226.366 439.919 Q223.31 444.503 217.5 444.503 Q211.69 444.503 208.612 439.919 Q205.556 435.313 205.556 426.586 Q205.556 417.836 208.612 413.253 Q211.69 408.646 217.5 408.646 Z" fill="#000000" fill-rule="evenodd" fill-opacity="1" /><path clip-path="url(#clip500)" d="M127.593 234.981 Q124.445 234.981 122.593 237.134 Q120.765 239.286 120.765 243.036 Q120.765 246.763 122.593 248.939 Q124.445 251.092 127.593 251.092 Q130.742 251.092 132.57 248.939 Q134.422 246.763 134.422 243.036 Q134.422 239.286 132.57 237.134 Q130.742 234.981 127.593 234.981 M136.876 220.328 L136.876 224.587 Q135.117 223.754 133.311 223.314 Q131.529 222.874 129.769 222.874 Q125.14 222.874 122.686 225.999 Q120.255 229.124 119.908 235.444 Q121.274 233.43 123.334 232.365 Q125.394 231.277 127.871 231.277 Q133.08 231.277 136.089 234.449 Q139.121 237.597 139.121 243.036 Q139.121 248.36 135.973 251.578 Q132.825 254.796 127.593 254.796 Q121.598 254.796 118.427 250.212 Q115.256 245.606 115.256 236.879 Q115.256 228.685 119.144 223.824 Q123.033 218.939 129.584 218.939 Q131.343 218.939 133.126 219.287 Q134.931 219.634 136.876 220.328 Z" fill="#000000" fill-rule="evenodd" fill-opacity="1" /><path clip-path="url(#clip500)" d="M157.177 222.643 Q153.566 222.643 151.737 226.208 Q149.931 229.749 149.931 236.879 Q149.931 243.985 151.737 247.55 Q153.566 251.092 157.177 251.092 Q160.811 251.092 162.616 247.55 Q164.445 243.985 164.445 236.879 Q164.445 229.749 162.616 226.208 Q160.811 222.643 157.177 222.643 M157.177 218.939 Q162.987 218.939 166.042 223.546 Q169.121 228.129 169.121 236.879 Q169.121 245.606 166.042 250.212 Q162.987 254.796 157.177 254.796 Q151.366 254.796 148.288 250.212 Q145.232 245.606 145.232 236.879 Q145.232 228.129 148.288 223.546 Q151.366 218.939 157.177 218.939 Z" fill="#000000" fill-rule="evenodd" fill-opacity="1" /><path clip-path="url(#clip500)" d="M187.338 222.643 Q183.727 222.643 181.899 226.208 Q180.093 229.749 180.093 236.879 Q180.093 243.985 181.899 247.55 Q183.727 251.092 187.338 251.092 Q190.973 251.092 192.778 247.55 Q194.607 243.985 194.607 236.879 Q194.607 229.749 192.778 226.208 Q190.973 222.643 187.338 222.643 M187.338 218.939 Q193.149 218.939 196.204 223.546 Q199.283 228.129 199.283 236.879 Q199.283 245.606 196.204 250.212 Q193.149 254.796 187.338 254.796 Q181.528 254.796 178.45 250.212 Q175.394 245.606 175.394 236.879 Q175.394 228.129 178.45 223.546 Q181.528 218.939 187.338 218.939 Z" fill="#000000" fill-rule="evenodd" fill-opacity="1" /><path clip-path="url(#clip500)" d="M217.5 222.643 Q213.889 222.643 212.061 226.208 Q210.255 229.749 210.255 236.879 Q210.255 243.985 212.061 247.55 Q213.889 251.092 217.5 251.092 Q221.135 251.092 222.94 247.55 Q224.769 243.985 224.769 236.879 Q224.769 229.749 222.94 226.208 Q221.135 222.643 217.5 222.643 M217.5 218.939 Q223.31 218.939 226.366 223.546 Q229.445 228.129 229.445 236.879 Q229.445 245.606 226.366 250.212 Q223.31 254.796 217.5 254.796 Q211.69 254.796 208.612 250.212 Q205.556 245.606 205.556 236.879 Q205.556 228.129 208.612 223.546 Q211.69 218.939 217.5 218.939 Z" fill="#000000" fill-rule="evenodd" fill-opacity="1" /><path clip-path="url(#clip500)" d="M46.212 1021.69 Q39.7508 1021.69 36.0905 1024.36 Q32.3984 1027 32.3984 1031.65 Q32.3984 1036.29 36.0905 1038.97 Q39.7508 1041.61 46.212 1041.61 Q52.6732 1041.61 56.3653 1038.97 Q60.0256 1036.29 60.0256 1031.65 Q60.0256 1027 56.3653 1024.36 Q52.6732 1021.69 46.212 1021.69 M33.7671 1041.61 Q30.5842 1039.76 29.0564 1036.96 Q27.4968 1034.13 27.4968 1030.22 Q27.4968 1023.72 32.6531 1019.68 Q37.8093 1015.61 46.212 1015.61 Q54.6147 1015.61 59.771 1019.68 Q64.9272 1023.72 64.9272 1030.22 Q64.9272 1034.13 63.3994 1036.96 Q61.8398 1039.76 58.657 1041.61 L64.0042 1041.61 L64.0042 1047.5 L14.479 1047.5 L14.479 1041.61 L33.7671 1041.61 Z" fill="#000000" fill-rule="evenodd" fill-opacity="1" /><path clip-path="url(#clip500)" d="M46.0847 989.698 Q46.0847 996.795 47.7079 999.533 Q49.3312 1002.27 53.2461 1002.27 Q56.3653 1002.27 58.2114 1000.23 Q60.0256 998.164 60.0256 994.631 Q60.0256 989.761 56.5881 986.833 Q53.1188 983.873 47.3897 983.873 L46.0847 983.873 L46.0847 989.698 M43.6657 978.017 L64.0042 978.017 L64.0042 983.873 L58.5933 983.873 Q61.8398 985.878 63.3994 988.87 Q64.9272 991.862 64.9272 996.191 Q64.9272 1001.67 61.8716 1004.91 Q58.7843 1008.13 53.6281 1008.13 Q47.6125 1008.13 44.5569 1004.12 Q41.5014 1000.07 41.5014 992.085 L41.5014 983.873 L40.9285 983.873 Q36.8862 983.873 34.6901 986.547 Q32.4621 989.188 32.4621 993.995 Q32.4621 997.05 33.1941 999.946 Q33.9262 1002.84 35.3903 1005.52 L29.9795 1005.52 Q28.7381 1002.3 28.1334 999.278 Q27.4968 996.254 27.4968 993.39 Q27.4968 985.655 31.5072 981.836 Q35.5176 978.017 43.6657 978.017 Z" fill="#000000" fill-rule="evenodd" fill-opacity="1" /><path clip-path="url(#clip500)" d="M42.4881 936.321 L64.0042 936.321 L64.0042 942.178 L42.679 942.178 Q37.6183 942.178 35.1038 944.151 Q32.5894 946.124 32.5894 950.071 Q32.5894 954.814 35.6131 957.551 Q38.6368 960.288 43.8567 960.288 L64.0042 960.288 L64.0042 966.176 L28.3562 966.176 L28.3562 960.288 L33.8944 960.288 Q30.6797 958.187 29.0883 955.355 Q27.4968 952.49 27.4968 948.766 Q27.4968 942.623 31.3163 939.472 Q35.1038 936.321 42.4881 936.321 Z" fill="#000000" fill-rule="evenodd" fill-opacity="1" /><path clip-path="url(#clip500)" d="M33.7671 901.183 L14.479 901.183 L14.479 895.326 L64.0042 895.326 L64.0042 901.183 L58.657 901.183 Q61.8398 903.029 63.3994 905.861 Q64.9272 908.662 64.9272 912.609 Q64.9272 919.07 59.771 923.144 Q54.6147 927.186 46.212 927.186 Q37.8093 927.186 32.6531 923.144 Q27.4968 919.07 27.4968 912.609 Q27.4968 908.662 29.0564 905.861 Q30.5842 903.029 33.7671 901.183 M46.212 921.139 Q52.6732 921.139 56.3653 918.497 Q60.0256 915.824 60.0256 911.177 Q60.0256 906.53 56.3653 903.856 Q52.6732 901.183 46.212 901.183 Q39.7508 901.183 36.0905 903.856 Q32.3984 906.53 32.3984 911.177 Q32.3984 915.824 36.0905 918.497 Q39.7508 921.139 46.212 921.139 Z" fill="#000000" fill-rule="evenodd" fill-opacity="1" /><path clip-path="url(#clip500)" d="M28.3562 886.669 L28.3562 880.812 L56.1743 873.492 L28.3562 866.203 L28.3562 859.296 L56.1743 851.976 L28.3562 844.687 L28.3562 838.83 L64.0042 848.156 L64.0042 855.063 L34.7856 862.734 L64.0042 870.436 L64.0042 877.343 L28.3562 886.669 Z" fill="#000000" fill-rule="evenodd" fill-opacity="1" /><path clip-path="url(#clip500)" d="M28.3562 829.95 L28.3562 824.094 L64.0042 824.094 L64.0042 829.95 L28.3562 829.95 M14.479 829.95 L14.479 824.094 L21.895 824.094 L21.895 829.95 L14.479 829.95 Z" fill="#000000" fill-rule="evenodd" fill-opacity="1" /><path clip-path="url(#clip500)" d="M33.7671 788.382 L14.479 788.382 L14.479 782.526 L64.0042 782.526 L64.0042 788.382 L58.657 788.382 Q61.8398 790.228 63.3994 793.061 Q64.9272 795.862 64.9272 799.809 Q64.9272 806.27 59.771 810.344 Q54.6147 814.386 46.212 814.386 Q37.8093 814.386 32.6531 810.344 Q27.4968 806.27 27.4968 799.809 Q27.4968 795.862 29.0564 793.061 Q30.5842 790.228 33.7671 788.382 M46.212 808.339 Q52.6732 808.339 56.3653 805.697 Q60.0256 803.023 60.0256 798.376 Q60.0256 793.729 56.3653 791.056 Q52.6732 788.382 46.212 788.382 Q39.7508 788.382 36.0905 791.056 Q32.3984 793.729 32.3984 798.376 Q32.3984 803.023 36.0905 805.697 Q39.7508 808.339 46.212 808.339 Z" fill="#000000" fill-rule="evenodd" fill-opacity="1" /><path clip-path="url(#clip500)" d="M18.2347 764.67 L28.3562 764.67 L28.3562 752.607 L32.9077 752.607 L32.9077 764.67 L52.2594 764.67 Q56.6199 764.67 57.8613 763.492 Q59.1026 762.283 59.1026 758.623 L59.1026 752.607 L64.0042 752.607 L64.0042 758.623 Q64.0042 765.402 61.4897 767.98 Q58.9434 770.558 52.2594 770.558 L32.9077 770.558 L32.9077 774.855 L28.3562 774.855 L28.3562 770.558 L18.2347 770.558 L18.2347 764.67 Z" fill="#000000" fill-rule="evenodd" fill-opacity="1" /><path clip-path="url(#clip500)" d="M42.4881 715.272 L64.0042 715.272 L64.0042 721.128 L42.679 721.128 Q37.6183 721.128 35.1038 723.102 Q32.5894 725.075 32.5894 729.022 Q32.5894 733.764 35.6131 736.502 Q38.6368 739.239 43.8567 739.239 L64.0042 739.239 L64.0042 745.127 L14.479 745.127 L14.479 739.239 L33.8944 739.239 Q30.6797 737.138 29.0883 734.306 Q27.4968 731.441 27.4968 727.717 Q27.4968 721.574 31.3163 718.423 Q35.1038 715.272 42.4881 715.272 Z" fill="#000000" fill-rule="evenodd" fill-opacity="1" /><path clip-path="url(#clip500)" d="M14.5426 668.802 Q21.8632 673.067 29.0246 675.136 Q36.186 677.205 43.5384 677.205 Q50.8908 677.205 58.1159 675.136 Q65.3091 673.036 72.5979 668.802 L72.5979 673.895 Q65.1182 678.669 57.8931 681.056 Q50.668 683.412 43.5384 683.412 Q36.4406 683.412 29.2474 681.056 Q22.0542 678.701 14.5426 673.895 L14.5426 668.802 Z" fill="#000000" fill-rule="evenodd" fill-opacity="1" /><path clip-path="url(#clip500)" d="M16.4842 657.185 L16.4842 647.605 L48.8219 635.478 L16.4842 623.288 L16.4842 613.707 L64.0042 613.707 L64.0042 619.977 L22.277 619.977 L54.8694 632.231 L54.8694 638.693 L22.277 650.947 L64.0042 650.947 L64.0042 657.185 L16.4842 657.185 Z" fill="#000000" fill-rule="evenodd" fill-opacity="1" /><path clip-path="url(#clip500)" d="M41.3104 594.515 L58.7206 594.515 L58.7206 584.202 Q58.7206 579.014 56.5881 576.531 Q54.4238 574.017 49.9996 574.017 Q45.5436 574.017 43.4429 576.531 Q41.3104 579.014 41.3104 584.202 L41.3104 594.515 M21.7677 594.515 L36.0905 594.515 L36.0905 584.998 Q36.0905 580.287 34.34 577.996 Q32.5576 575.672 28.9291 575.672 Q25.3325 575.672 23.5501 577.996 Q21.7677 580.287 21.7677 584.998 L21.7677 594.515 M16.4842 600.944 L16.4842 584.52 Q16.4842 577.168 19.5397 573.189 Q22.5952 569.211 28.2289 569.211 Q32.5894 569.211 35.1675 571.248 Q37.7456 573.285 38.3822 577.232 Q39.4007 572.489 42.6472 569.879 Q45.8619 567.238 50.6998 567.238 Q57.0655 567.238 60.5348 571.566 Q64.0042 575.895 64.0042 583.884 L64.0042 600.944 L16.4842 600.944 Z" fill="#000000" fill-rule="evenodd" fill-opacity="1" /><path clip-path="url(#clip500)" d="M16.4842 546.072 L16.4842 540.661 L70.0516 557.212 L70.0516 562.622 L16.4842 546.072 Z" fill="#000000" fill-rule="evenodd" fill-opacity="1" /><path clip-path="url(#clip500)" d="M29.4065 511.792 L34.9447 511.792 Q33.6716 514.275 33.035 516.948 Q32.3984 519.622 32.3984 522.487 Q32.3984 526.847 33.7352 529.043 Q35.072 531.208 37.7456 531.208 Q39.7826 531.208 40.9603 529.648 Q42.1061 528.088 43.1565 523.378 L43.6021 521.373 Q44.9389 515.134 47.3897 512.524 Q49.8086 509.883 54.1691 509.883 Q59.1344 509.883 62.0308 513.829 Q64.9272 517.744 64.9272 524.619 Q64.9272 527.484 64.3543 530.603 Q63.8132 533.69 62.6992 537.128 L56.6518 537.128 Q58.3387 533.881 59.198 530.73 Q60.0256 527.579 60.0256 524.492 Q60.0256 520.354 58.6251 518.126 Q57.1929 515.898 54.6147 515.898 Q52.2276 515.898 50.9545 517.521 Q49.6813 519.113 48.5037 524.555 L48.0262 526.593 Q46.8804 532.035 44.5251 534.454 Q42.138 536.873 38.0002 536.873 Q32.9713 536.873 30.2341 533.308 Q27.4968 529.744 27.4968 523.187 Q27.4968 519.94 27.9743 517.076 Q28.4517 514.211 29.4065 511.792 Z" fill="#000000" fill-rule="evenodd" fill-opacity="1" /><path clip-path="url(#clip500)" d="M14.5426 501.48 L14.5426 496.387 Q22.0542 491.613 29.2474 489.258 Q36.4406 486.87 43.5384 486.87 Q50.668 486.87 57.8931 489.258 Q65.1182 491.613 72.5979 496.387 L72.5979 501.48 Q65.3091 497.247 58.1159 495.178 Q50.8908 493.077 43.5384 493.077 Q36.186 493.077 29.0246 495.178 Q21.8632 497.247 14.5426 501.48 Z" fill="#000000" fill-rule="evenodd" fill-opacity="1" /><path clip-path="url(#clip500)" d="M903.483 17.6457 Q894.571 17.6457 889.305 24.2892 Q884.079 30.9327 884.079 42.3968 Q884.079 53.8203 889.305 60.4638 Q894.571 67.1073 903.483 67.1073 Q912.395 67.1073 917.58 60.4638 Q922.806 53.8203 922.806 42.3968 Q922.806 30.9327 917.58 24.2892 Q912.395 17.6457 903.483 17.6457 M903.483 11.0023 Q916.203 11.0023 923.819 19.5497 Q931.435 28.0566 931.435 42.3968 Q931.435 56.6965 923.819 65.2439 Q916.203 73.7508 903.483 73.7508 Q890.723 73.7508 883.067 65.2439 Q875.451 56.737 875.451 42.3968 Q875.451 28.0566 883.067 19.5497 Q890.723 11.0023 903.483 11.0023 Z" fill="#000000" fill-rule="evenodd" fill-opacity="1" /><path clip-path="url(#clip500)" d="M951.122 65.7705 L951.122 89.8329 L943.628 89.8329 L943.628 27.2059 L951.122 27.2059 L951.122 34.0924 Q953.471 30.0415 957.036 28.0971 Q960.642 26.1121 965.624 26.1121 Q973.888 26.1121 979.033 32.6746 Q984.218 39.2371 984.218 49.9314 Q984.218 60.6258 979.033 67.1883 Q973.888 73.7508 965.624 73.7508 Q960.642 73.7508 957.036 71.8063 Q953.471 69.8214 951.122 65.7705 M976.481 49.9314 Q976.481 41.7081 973.078 37.0496 Q969.716 32.3505 963.801 32.3505 Q957.887 32.3505 954.484 37.0496 Q951.122 41.7081 951.122 49.9314 Q951.122 58.1548 954.484 62.8538 Q957.887 67.5124 963.801 67.5124 Q969.716 67.5124 973.078 62.8538 Q976.481 58.1548 976.481 49.9314 Z" fill="#000000" fill-rule="evenodd" fill-opacity="1" /><path clip-path="url(#clip500)" d="M1035.38 48.0275 L1035.38 51.6733 L1001.11 51.6733 Q1001.6 59.3701 1005.73 63.421 Q1009.9 67.4314 1017.31 67.4314 Q1021.61 67.4314 1025.62 66.3781 Q1029.67 65.3249 1033.64 63.2184 L1033.64 70.267 Q1029.63 71.9684 1025.42 72.8596 Q1021.2 73.7508 1016.87 73.7508 Q1006.01 73.7508 999.652 67.4314 Q993.332 61.1119 993.332 50.3365 Q993.332 39.1965 999.328 32.6746 Q1005.36 26.1121 1015.57 26.1121 Q1024.73 26.1121 1030.03 32.0264 Q1035.38 37.9003 1035.38 48.0275 M1027.93 45.84 Q1027.85 39.7232 1024.48 36.0774 Q1021.16 32.4315 1015.65 32.4315 Q1009.41 32.4315 1005.65 35.9558 Q1001.92 39.4801 1001.35 45.8805 L1027.93 45.84 Z" fill="#000000" fill-rule="evenodd" fill-opacity="1" /><path clip-path="url(#clip500)" d="M1085.33 45.1919 L1085.33 72.576 L1077.87 72.576 L1077.87 45.4349 Q1077.87 38.994 1075.36 35.7938 Q1072.85 32.5936 1067.83 32.5936 Q1061.79 32.5936 1058.31 36.4419 Q1054.83 40.2903 1054.83 46.9338 L1054.83 72.576 L1047.33 72.576 L1047.33 27.2059 L1054.83 27.2059 L1054.83 34.2544 Q1057.5 30.163 1061.1 28.1376 Q1064.75 26.1121 1069.49 26.1121 Q1077.31 26.1121 1081.32 30.9732 Q1085.33 35.7938 1085.33 45.1919 Z" fill="#000000" fill-rule="evenodd" fill-opacity="1" /><path clip-path="url(#clip500)" d="M1100.52 12.096 L1112.71 12.096 L1128.15 53.2532 L1143.66 12.096 L1155.85 12.096 L1155.85 72.576 L1147.87 72.576 L1147.87 19.4686 L1132.28 60.9499 L1124.06 60.9499 L1108.46 19.4686 L1108.46 72.576 L1100.52 72.576 L1100.52 12.096 Z" fill="#000000" fill-rule="evenodd" fill-opacity="1" /><path clip-path="url(#clip500)" d="M1180.28 18.8205 L1180.28 41.5461 L1190.57 41.5461 Q1196.28 41.5461 1199.4 38.5889 Q1202.52 35.6318 1202.52 30.163 Q1202.52 24.7348 1199.4 21.7777 Q1196.28 18.8205 1190.57 18.8205 L1180.28 18.8205 M1172.1 12.096 L1190.57 12.096 Q1200.74 12.096 1205.92 16.714 Q1211.15 21.2916 1211.15 30.163 Q1211.15 39.1155 1205.92 43.6931 Q1200.74 48.2706 1190.57 48.2706 L1180.28 48.2706 L1180.28 72.576 L1172.1 72.576 L1172.1 12.096 Z" fill="#000000" fill-rule="evenodd" fill-opacity="1" /><path clip-path="url(#clip500)" d="M1222.13 12.096 L1230.31 12.096 L1230.31 72.576 L1222.13 72.576 L1222.13 12.096 Z" fill="#000000" fill-rule="evenodd" fill-opacity="1" /><path clip-path="url(#clip500)" d="M1296.18 19.2256 L1275.52 51.5113 L1296.18 51.5113 L1296.18 19.2256 M1294.03 12.096 L1304.32 12.096 L1304.32 51.5113 L1312.95 51.5113 L1312.95 58.3168 L1304.32 58.3168 L1304.32 72.576 L1296.18 72.576 L1296.18 58.3168 L1268.87 58.3168 L1268.87 50.4176 L1294.03 12.096 Z" fill="#000000" fill-rule="evenodd" fill-opacity="1" /><path clip-path="url(#clip500)" d="M1326.48 62.2867 L1335.03 62.2867 L1335.03 72.576 L1326.48 72.576 L1326.48 62.2867 Z" fill="#000000" fill-rule="evenodd" fill-opacity="1" /><path clip-path="url(#clip500)" d="M1354.27 65.6895 L1367.64 65.6895 L1367.64 19.5497 L1353.09 22.4663 L1353.09 15.0127 L1367.55 12.096 L1375.74 12.096 L1375.74 65.6895 L1389.11 65.6895 L1389.11 72.576 L1354.27 72.576 L1354.27 65.6895 Z" fill="#000000" fill-rule="evenodd" fill-opacity="1" /><path clip-path="url(#clip500)" d="M1405.63 62.2867 L1414.18 62.2867 L1414.18 72.576 L1405.63 72.576 L1405.63 62.2867 Z" fill="#000000" fill-rule="evenodd" fill-opacity="1" /><path clip-path="url(#clip500)" d="M1439.05 65.6895 L1467.61 65.6895 L1467.61 72.576 L1429.21 72.576 L1429.21 65.6895 Q1433.87 60.8689 1441.89 52.7671 Q1449.95 44.6248 1452.02 42.2752 Q1455.95 37.8598 1457.48 34.8216 Q1459.06 31.7429 1459.06 28.7857 Q1459.06 23.9651 1455.66 20.927 Q1452.3 17.8888 1446.87 17.8888 Q1443.02 17.8888 1438.73 19.2256 Q1434.48 20.5624 1429.61 23.2765 L1429.61 15.0127 Q1434.56 13.0277 1438.85 12.015 Q1443.14 11.0023 1446.71 11.0023 Q1456.11 11.0023 1461.7 15.7013 Q1467.29 20.4004 1467.29 28.2591 Q1467.29 31.9859 1465.87 35.3482 Q1464.49 38.6699 1460.81 43.2069 Q1459.79 44.3817 1454.37 50.0125 Q1448.94 55.6027 1439.05 65.6895 Z" fill="#000000" fill-rule="evenodd" fill-opacity="1" /><path clip-path="url(#clip500)" d="M1540.45 20.5624 L1540.45 43.1259 L1563.01 43.1259 L1563.01 50.0125 L1540.45 50.0125 L1540.45 72.576 L1533.64 72.576 L1533.64 50.0125 L1511.08 50.0125 L1511.08 43.1259 L1533.64 43.1259 L1533.64 20.5624 L1540.45 20.5624 Z" fill="#000000" fill-rule="evenodd" fill-opacity="1" /><path clip-path="url(#clip500)" d="M1605.22 54.671 L1605.22 27.2059 L1612.68 27.2059 L1612.68 54.3874 Q1612.68 60.8284 1615.19 64.0691 Q1617.7 67.2693 1622.72 67.2693 Q1628.76 67.2693 1632.24 63.421 Q1635.77 59.5726 1635.77 52.9291 L1635.77 27.2059 L1643.22 27.2059 L1643.22 72.576 L1635.77 72.576 L1635.77 65.6084 Q1633.05 69.7404 1629.45 71.7658 Q1625.88 73.7508 1621.14 73.7508 Q1613.32 73.7508 1609.27 68.8897 Q1605.22 64.0286 1605.22 54.671 M1623.98 26.1121 L1623.98 26.1121 Z" fill="#000000" fill-rule="evenodd" fill-opacity="1" /><path clip-path="url(#clip500)" d="M1691.22 28.9478 L1691.22 35.9153 Q1688.06 34.1734 1684.86 33.3227 Q1681.7 32.4315 1678.46 32.4315 Q1671.21 32.4315 1667.2 37.0496 Q1663.19 41.6271 1663.19 49.9314 Q1663.19 58.2358 1667.2 62.8538 Q1671.21 67.4314 1678.46 67.4314 Q1681.7 67.4314 1684.86 66.5807 Q1688.06 65.6895 1691.22 63.9476 L1691.22 70.8341 Q1688.1 72.2924 1684.74 73.0216 Q1681.42 73.7508 1677.65 73.7508 Q1667.4 73.7508 1661.37 67.3098 Q1655.33 60.8689 1655.33 49.9314 Q1655.33 38.832 1661.41 32.472 Q1667.52 26.1121 1678.14 26.1121 Q1681.58 26.1121 1684.86 26.8413 Q1688.14 27.5299 1691.22 28.9478 Z" fill="#000000" fill-rule="evenodd" fill-opacity="1" /><path clip-path="url(#clip500)" d="M1741.9 27.2059 L1725.49 49.2833 L1742.75 72.576 L1733.96 72.576 L1720.75 54.752 L1707.55 72.576 L1698.76 72.576 L1716.38 48.8377 L1700.26 27.2059 L1709.05 27.2059 L1721.08 43.369 L1733.11 27.2059 L1741.9 27.2059 Z" fill="#000000" fill-rule="evenodd" fill-opacity="1" /><polyline clip-path="url(#clip502)" style="stroke:#000000; stroke-linecap:butt; stroke-linejoin:round; stroke-width:4; stroke-opacity:1; fill:none" points="
  324.52,1374.46 414.027,1373.75 503.534,1372.32 593.042,1369.55 682.549,1364.01 772.056,1353.11 861.564,1334.74 951.071,1305.55 1040.58,1249.49 1130.09,1138.15 
  1219.59,991.366 1309.1,611.779 1398.61,432.206 1488.11,316.901 1577.62,288.714 1667.13,268.038 1756.64,256.669 1846.14,249.503 1935.65,166.645 2025.16,163.881 
  2114.67,162.407 2204.17,159.909 2293.68,159.935 
  "/>
<circle clip-path="url(#clip502)" cx="324.52" cy="1374.46" r="14" fill="#ff0000" fill-rule="evenodd" fill-opacity="1" stroke="#000000" stroke-opacity="1" stroke-width="3.2"/>
<circle clip-path="url(#clip502)" cx="414.027" cy="1373.75" r="14" fill="#ff0000" fill-rule="evenodd" fill-opacity="1" stroke="#000000" stroke-opacity="1" stroke-width="3.2"/>
<circle clip-path="url(#clip502)" cx="503.534" cy="1372.32" r="14" fill="#ff0000" fill-rule="evenodd" fill-opacity="1" stroke="#000000" stroke-opacity="1" stroke-width="3.2"/>
<circle clip-path="url(#clip502)" cx="593.042" cy="1369.55" r="14" fill="#ff0000" fill-rule="evenodd" fill-opacity="1" stroke="#000000" stroke-opacity="1" stroke-width="3.2"/>
<circle clip-path="url(#clip502)" cx="682.549" cy="1364.01" r="14" fill="#ff0000" fill-rule="evenodd" fill-opacity="1" stroke="#000000" stroke-opacity="1" stroke-width="3.2"/>
<circle clip-path="url(#clip502)" cx="772.056" cy="1353.11" r="14" fill="#ff0000" fill-rule="evenodd" fill-opacity="1" stroke="#000000" stroke-opacity="1" stroke-width="3.2"/>
<circle clip-path="url(#clip502)" cx="861.564" cy="1334.74" r="14" fill="#ff0000" fill-rule="evenodd" fill-opacity="1" stroke="#000000" stroke-opacity="1" stroke-width="3.2"/>
<circle clip-path="url(#clip502)" cx="951.071" cy="1305.55" r="14" fill="#ff0000" fill-rule="evenodd" fill-opacity="1" stroke="#000000" stroke-opacity="1" stroke-width="3.2"/>
<circle clip-path="url(#clip502)" cx="1040.58" cy="1249.49" r="14" fill="#ff0000" fill-rule="evenodd" fill-opacity="1" stroke="#000000" stroke-opacity="1" stroke-width="3.2"/>
<circle clip-path="url(#clip502)" cx="1130.09" cy="1138.15" r="14" fill="#ff0000" fill-rule="evenodd" fill-opacity="1" stroke="#000000" stroke-opacity="1" stroke-width="3.2"/>
<circle clip-path="url(#clip502)" cx="1219.59" cy="991.366" r="14" fill="#ff0000" fill-rule="evenodd" fill-opacity="1" stroke="#000000" stroke-opacity="1" stroke-width="3.2"/>
<circle clip-path="url(#clip502)" cx="1309.1" cy="611.779" r="14" fill="#ff0000" fill-rule="evenodd" fill-opacity="1" stroke="#000000" stroke-opacity="1" stroke-width="3.2"/>
<circle clip-path="url(#clip502)" cx="1398.61" cy="432.206" r="14" fill="#ff0000" fill-rule="evenodd" fill-opacity="1" stroke="#000000" stroke-opacity="1" stroke-width="3.2"/>
<circle clip-path="url(#clip502)" cx="1488.11" cy="316.901" r="14" fill="#ff0000" fill-rule="evenodd" fill-opacity="1" stroke="#000000" stroke-opacity="1" stroke-width="3.2"/>
<circle clip-path="url(#clip502)" cx="1577.62" cy="288.714" r="14" fill="#ff0000" fill-rule="evenodd" fill-opacity="1" stroke="#000000" stroke-opacity="1" stroke-width="3.2"/>
<circle clip-path="url(#clip502)" cx="1667.13" cy="268.038" r="14" fill="#ff0000" fill-rule="evenodd" fill-opacity="1" stroke="#000000" stroke-opacity="1" stroke-width="3.2"/>
<circle clip-path="url(#clip502)" cx="1756.64" cy="256.669" r="14" fill="#ff0000" fill-rule="evenodd" fill-opacity="1" stroke="#000000" stroke-opacity="1" stroke-width="3.2"/>
<circle clip-path="url(#clip502)" cx="1846.14" cy="249.503" r="14" fill="#ff0000" fill-rule="evenodd" fill-opacity="1" stroke="#000000" stroke-opacity="1" stroke-width="3.2"/>
<circle clip-path="url(#clip502)" cx="1935.65" cy="166.645" r="14" fill="#ff0000" fill-rule="evenodd" fill-opacity="1" stroke="#000000" stroke-opacity="1" stroke-width="3.2"/>
<circle clip-path="url(#clip502)" cx="2025.16" cy="163.881" r="14" fill="#ff0000" fill-rule="evenodd" fill-opacity="1" stroke="#000000" stroke-opacity="1" stroke-width="3.2"/>
<circle clip-path="url(#clip502)" cx="2114.67" cy="162.407" r="14" fill="#ff0000" fill-rule="evenodd" fill-opacity="1" stroke="#000000" stroke-opacity="1" stroke-width="3.2"/>
<circle clip-path="url(#clip502)" cx="2204.17" cy="159.909" r="14" fill="#ff0000" fill-rule="evenodd" fill-opacity="1" stroke="#000000" stroke-opacity="1" stroke-width="3.2"/>
<circle clip-path="url(#clip502)" cx="2293.68" cy="159.935" r="14" fill="#ff0000" fill-rule="evenodd" fill-opacity="1" stroke="#000000" stroke-opacity="1" stroke-width="3.2"/>
</svg>
