<?xml version="1.0" encoding="utf-8"?>
<svg xmlns="http://www.w3.org/2000/svg" xmlns:xlink="http://www.w3.org/1999/xlink" width="600" height="400" viewBox="0 0 2400 1600">
<defs>
  <clipPath id="clip620">
    <rect x="0" y="0" width="2400" height="1600"/>
  </clipPath>
</defs>
<path clip-path="url(#clip620)" d="
M0 1600 L2400 1600 L2400 0 L0 0  Z
  " fill="#ffffff" fill-rule="evenodd" fill-opacity="1"/>
<defs>
  <clipPath id="clip621">
    <rect x="480" y="0" width="1681" height="1600"/>
  </clipPath>
</defs>
<path clip-path="url(#clip620)" d="
M251.372 1410.9 L2352.76 1410.9 L2352.76 123.472 L251.372 123.472  Z
  " fill="#ffffff" fill-rule="evenodd" fill-opacity="1"/>
<defs>
  <clipPath id="clip622">
    <rect x="251" y="123" width="2102" height="1288"/>
  </clipPath>
</defs>
<polyline clip-path="url(#clip622)" style="stroke:#000000; stroke-linecap:butt; stroke-linejoin:round; stroke-width:2; stroke-opacity:0.1; fill:none" points="
  310.845,1410.9 310.845,123.472 
  "/>
<polyline clip-path="url(#clip622)" style="stroke:#000000; stroke-linecap:butt; stroke-linejoin:round; stroke-width:2; stroke-opacity:0.1; fill:none" points="
  610.187,1410.9 610.187,123.472 
  "/>
<polyline clip-path="url(#clip622)" style="stroke:#000000; stroke-linecap:butt; stroke-linejoin:round; stroke-width:2; stroke-opacity:0.1; fill:none" points="
  909.528,1410.9 909.528,123.472 
  "/>
<polyline clip-path="url(#clip622)" style="stroke:#000000; stroke-linecap:butt; stroke-linejoin:round; stroke-width:2; stroke-opacity:0.1; fill:none" points="
  1208.87,1410.9 1208.87,123.472 
  "/>
<polyline clip-path="url(#clip622)" style="stroke:#000000; stroke-linecap:butt; stroke-linejoin:round; stroke-width:2; stroke-opacity:0.1; fill:none" points="
  1508.21,1410.9 1508.21,123.472 
  "/>
<polyline clip-path="url(#clip622)" style="stroke:#000000; stroke-linecap:butt; stroke-linejoin:round; stroke-width:2; stroke-opacity:0.1; fill:none" points="
  1807.55,1410.9 1807.55,123.472 
  "/>
<polyline clip-path="url(#clip622)" style="stroke:#000000; stroke-linecap:butt; stroke-linejoin:round; stroke-width:2; stroke-opacity:0.1; fill:none" points="
  2106.89,1410.9 2106.89,123.472 
  "/>
<polyline clip-path="url(#clip620)" style="stroke:#000000; stroke-linecap:butt; stroke-linejoin:round; stroke-width:4; stroke-opacity:1; fill:none" points="
  251.372,1410.9 2352.76,1410.9 
  "/>
<polyline clip-path="url(#clip620)" style="stroke:#000000; stroke-linecap:butt; stroke-linejoin:round; stroke-width:4; stroke-opacity:1; fill:none" points="
  310.845,1410.9 310.845,1392 
  "/>
<polyline clip-path="url(#clip620)" style="stroke:#000000; stroke-linecap:butt; stroke-linejoin:round; stroke-width:4; stroke-opacity:1; fill:none" points="
  610.187,1410.9 610.187,1392 
  "/>
<polyline clip-path="url(#clip620)" style="stroke:#000000; stroke-linecap:butt; stroke-linejoin:round; stroke-width:4; stroke-opacity:1; fill:none" points="
  909.528,1410.9 909.528,1392 
  "/>
<polyline clip-path="url(#clip620)" style="stroke:#000000; stroke-linecap:butt; stroke-linejoin:round; stroke-width:4; stroke-opacity:1; fill:none" points="
  1208.87,1410.9 1208.87,1392 
  "/>
<polyline clip-path="url(#clip620)" style="stroke:#000000; stroke-linecap:butt; stroke-linejoin:round; stroke-width:4; stroke-opacity:1; fill:none" points="
  1508.21,1410.9 1508.21,1392 
  "/>
<polyline clip-path="url(#clip620)" style="stroke:#000000; stroke-linecap:butt; stroke-linejoin:round; stroke-width:4; stroke-opacity:1; fill:none" points="
  1807.55,1410.9 1807.55,1392 
  "/>
<polyline clip-path="url(#clip620)" style="stroke:#000000; stroke-linecap:butt; stroke-linejoin:round; stroke-width:4; stroke-opacity:1; fill:none" points="
  2106.89,1410.9 2106.89,1392 
  "/>
<path clip-path="url(#clip620)" d="M275.828 1485.02 L283.467 1485.02 L283.467 1458.66 L275.157 1460.32 L275.157 1456.06 L283.421 1454.4 L288.097 1454.4 L288.097 1485.02 L295.735 1485.02 L295.735 1488.96 L275.828 1488.96 L275.828 1485.02 Z" fill="#000000" fill-rule="evenodd" fill-opacity="1" /><path clip-path="url(#clip620)" d="M315.18 1457.48 Q311.569 1457.48 309.74 1461.04 Q307.934 1464.58 307.934 1471.71 Q307.934 1478.82 309.74 1482.38 Q311.569 1485.92 315.18 1485.92 Q318.814 1485.92 320.62 1482.38 Q322.448 1478.82 322.448 1471.71 Q322.448 1464.58 320.62 1461.04 Q318.814 1457.48 315.18 1457.48 M315.18 1453.77 Q320.99 1453.77 324.045 1458.38 Q327.124 1462.96 327.124 1471.71 Q327.124 1480.44 324.045 1485.04 Q320.99 1489.63 315.18 1489.63 Q309.37 1489.63 306.291 1485.04 Q303.235 1480.44 303.235 1471.71 Q303.235 1462.96 306.291 1458.38 Q309.37 1453.77 315.18 1453.77 Z" fill="#000000" fill-rule="evenodd" fill-opacity="1" /><path clip-path="url(#clip620)" d="M336.829 1435.97 Q333.895 1435.97 332.409 1438.86 Q330.942 1441.74 330.942 1447.53 Q330.942 1453.31 332.409 1456.2 Q333.895 1459.08 336.829 1459.08 Q339.782 1459.08 341.249 1456.2 Q342.735 1453.31 342.735 1447.53 Q342.735 1441.74 341.249 1438.86 Q339.782 1435.97 336.829 1435.97 M336.829 1432.96 Q341.55 1432.96 344.032 1436.7 Q346.534 1440.43 346.534 1447.53 Q346.534 1454.62 344.032 1458.37 Q341.55 1462.09 336.829 1462.09 Q332.108 1462.09 329.607 1458.37 Q327.124 1454.62 327.124 1447.53 Q327.124 1440.43 329.607 1436.7 Q332.108 1432.96 336.829 1432.96 Z" fill="#000000" fill-rule="evenodd" fill-opacity="1" /><path clip-path="url(#clip620)" d="M576.514 1485.02 L584.153 1485.02 L584.153 1458.66 L575.843 1460.32 L575.843 1456.06 L584.107 1454.4 L588.783 1454.4 L588.783 1485.02 L596.422 1485.02 L596.422 1488.96 L576.514 1488.96 L576.514 1485.02 Z" fill="#000000" fill-rule="evenodd" fill-opacity="1" /><path clip-path="url(#clip620)" d="M615.866 1457.48 Q612.255 1457.48 610.426 1461.04 Q608.621 1464.58 608.621 1471.71 Q608.621 1478.82 610.426 1482.38 Q612.255 1485.92 615.866 1485.92 Q619.5 1485.92 621.306 1482.38 Q623.135 1478.82 623.135 1471.71 Q623.135 1464.58 621.306 1461.04 Q619.5 1457.48 615.866 1457.48 M615.866 1453.77 Q621.676 1453.77 624.732 1458.38 Q627.81 1462.96 627.81 1471.71 Q627.81 1480.44 624.732 1485.04 Q621.676 1489.63 615.866 1489.63 Q610.056 1489.63 606.977 1485.04 Q603.922 1480.44 603.922 1471.71 Q603.922 1462.96 606.977 1458.38 Q610.056 1453.77 615.866 1453.77 Z" fill="#000000" fill-rule="evenodd" fill-opacity="1" /><path clip-path="url(#clip620)" d="M628.356 1458.35 L634.562 1458.35 L634.562 1436.93 L627.81 1438.28 L627.81 1434.82 L634.525 1433.47 L638.324 1433.47 L638.324 1458.35 L644.531 1458.35 L644.531 1461.55 L628.356 1461.55 L628.356 1458.35 Z" fill="#000000" fill-rule="evenodd" fill-opacity="1" /><path clip-path="url(#clip620)" d="M875.301 1485.02 L882.94 1485.02 L882.94 1458.66 L874.63 1460.32 L874.63 1456.06 L882.894 1454.4 L887.57 1454.4 L887.57 1485.02 L895.209 1485.02 L895.209 1488.96 L875.301 1488.96 L875.301 1485.02 Z" fill="#000000" fill-rule="evenodd" fill-opacity="1" /><path clip-path="url(#clip620)" d="M914.653 1457.48 Q911.042 1457.48 909.213 1461.04 Q907.408 1464.58 907.408 1471.71 Q907.408 1478.82 909.213 1482.38 Q911.042 1485.92 914.653 1485.92 Q918.287 1485.92 920.093 1482.38 Q921.921 1478.82 921.921 1471.71 Q921.921 1464.58 920.093 1461.04 Q918.287 1457.48 914.653 1457.48 M914.653 1453.77 Q920.463 1453.77 923.519 1458.38 Q926.597 1462.96 926.597 1471.71 Q926.597 1480.44 923.519 1485.04 Q920.463 1489.63 914.653 1489.63 Q908.843 1489.63 905.764 1485.04 Q902.708 1480.44 902.708 1471.71 Q902.708 1462.96 905.764 1458.38 Q908.843 1453.77 914.653 1453.77 Z" fill="#000000" fill-rule="evenodd" fill-opacity="1" /><path clip-path="url(#clip620)" d="M931.168 1458.35 L944.427 1458.35 L944.427 1461.55 L926.597 1461.55 L926.597 1458.35 Q928.76 1456.11 932.484 1452.35 Q936.227 1448.57 937.186 1447.48 Q939.01 1445.43 939.725 1444.02 Q940.459 1442.59 940.459 1441.22 Q940.459 1438.98 938.879 1437.57 Q937.318 1436.16 934.797 1436.16 Q933.011 1436.16 931.017 1436.78 Q929.042 1437.4 926.785 1438.66 L926.785 1434.82 Q929.08 1433.9 931.073 1433.43 Q933.067 1432.96 934.722 1432.96 Q939.086 1432.96 941.681 1435.14 Q944.277 1437.32 944.277 1440.97 Q944.277 1442.7 943.618 1444.26 Q942.979 1445.8 941.267 1447.91 Q940.797 1448.46 938.277 1451.07 Q935.757 1453.67 931.168 1458.35 Z" fill="#000000" fill-rule="evenodd" fill-opacity="1" /><path clip-path="url(#clip620)" d="M1174.31 1485.02 L1181.95 1485.02 L1181.95 1458.66 L1173.64 1460.32 L1173.64 1456.06 L1181.91 1454.4 L1186.58 1454.4 L1186.58 1485.02 L1194.22 1485.02 L1194.22 1488.96 L1174.31 1488.96 L1174.31 1485.02 Z" fill="#000000" fill-rule="evenodd" fill-opacity="1" /><path clip-path="url(#clip620)" d="M1213.67 1457.48 Q1210.05 1457.48 1208.23 1461.04 Q1206.42 1464.58 1206.42 1471.71 Q1206.42 1478.82 1208.23 1482.38 Q1210.05 1485.92 1213.67 1485.92 Q1217.3 1485.92 1219.11 1482.38 Q1220.93 1478.82 1220.93 1471.71 Q1220.93 1464.58 1219.11 1461.04 Q1217.3 1457.48 1213.67 1457.48 M1213.67 1453.77 Q1219.48 1453.77 1222.53 1458.38 Q1225.61 1462.96 1225.61 1471.71 Q1225.61 1480.44 1222.53 1485.04 Q1219.48 1489.63 1213.67 1489.63 Q1207.86 1489.63 1204.78 1485.04 Q1201.72 1480.44 1201.72 1471.71 Q1201.72 1462.96 1204.78 1458.38 Q1207.86 1453.77 1213.67 1453.77 Z" fill="#000000" fill-rule="evenodd" fill-opacity="1" /><path clip-path="url(#clip620)" d="M1238.3 1446.41 Q1241.03 1446.99 1242.56 1448.83 Q1244.1 1450.68 1244.1 1453.38 Q1244.1 1457.54 1241.24 1459.82 Q1238.38 1462.09 1233.11 1462.09 Q1231.35 1462.09 1229.47 1461.73 Q1227.6 1461.4 1225.61 1460.7 L1225.61 1457.03 Q1227.19 1457.95 1229.07 1458.42 Q1230.95 1458.89 1233 1458.89 Q1236.57 1458.89 1238.44 1457.48 Q1240.32 1456.07 1240.32 1453.38 Q1240.32 1450.9 1238.57 1449.51 Q1236.84 1448.1 1233.73 1448.1 L1230.46 1448.1 L1230.46 1444.98 L1233.89 1444.98 Q1236.69 1444.98 1238.17 1443.87 Q1239.66 1442.74 1239.66 1440.63 Q1239.66 1438.47 1238.12 1437.32 Q1236.59 1436.16 1233.73 1436.16 Q1232.17 1436.16 1230.39 1436.49 Q1228.6 1436.83 1226.46 1437.55 L1226.46 1434.16 Q1228.62 1433.56 1230.5 1433.26 Q1232.4 1432.96 1234.07 1432.96 Q1238.4 1432.96 1240.92 1434.93 Q1243.44 1436.89 1243.44 1440.24 Q1243.44 1442.57 1242.1 1444.19 Q1240.77 1445.79 1238.3 1446.41 Z" fill="#000000" fill-rule="evenodd" fill-opacity="1" /><path clip-path="url(#clip620)" d="M1472.67 1485.02 L1480.31 1485.02 L1480.31 1458.66 L1472 1460.32 L1472 1456.06 L1480.26 1454.4 L1484.94 1454.4 L1484.94 1485.02 L1492.58 1485.02 L1492.58 1488.96 L1472.67 1488.96 L1472.67 1485.02 Z" fill="#000000" fill-rule="evenodd" fill-opacity="1" /><path clip-path="url(#clip620)" d="M1512.02 1457.48 Q1508.41 1457.48 1506.58 1461.04 Q1504.77 1464.58 1504.77 1471.71 Q1504.77 1478.82 1506.58 1482.38 Q1508.41 1485.92 1512.02 1485.92 Q1515.65 1485.92 1517.46 1482.38 Q1519.29 1478.82 1519.29 1471.71 Q1519.29 1464.58 1517.46 1461.04 Q1515.65 1457.48 1512.02 1457.48 M1512.02 1453.77 Q1517.83 1453.77 1520.89 1458.38 Q1523.96 1462.96 1523.96 1471.71 Q1523.96 1480.44 1520.89 1485.04 Q1517.83 1489.63 1512.02 1489.63 Q1506.21 1489.63 1503.13 1485.04 Q1500.08 1480.44 1500.08 1471.71 Q1500.08 1462.96 1503.13 1458.38 Q1506.21 1453.77 1512.02 1453.77 Z" fill="#000000" fill-rule="evenodd" fill-opacity="1" /><path clip-path="url(#clip620)" d="M1536.64 1436.78 L1527.05 1451.77 L1536.64 1451.77 L1536.64 1436.78 M1535.64 1433.47 L1540.42 1433.47 L1540.42 1451.77 L1544.43 1451.77 L1544.43 1454.93 L1540.42 1454.93 L1540.42 1461.55 L1536.64 1461.55 L1536.64 1454.93 L1523.96 1454.93 L1523.96 1451.26 L1535.64 1433.47 Z" fill="#000000" fill-rule="evenodd" fill-opacity="1" /><path clip-path="url(#clip620)" d="M1773.16 1485.02 L1780.8 1485.02 L1780.8 1458.66 L1772.49 1460.32 L1772.49 1456.06 L1780.75 1454.4 L1785.43 1454.4 L1785.43 1485.02 L1793.06 1485.02 L1793.06 1488.96 L1773.16 1488.96 L1773.16 1485.02 Z" fill="#000000" fill-rule="evenodd" fill-opacity="1" /><path clip-path="url(#clip620)" d="M1812.51 1457.48 Q1808.9 1457.48 1807.07 1461.04 Q1805.26 1464.58 1805.26 1471.71 Q1805.26 1478.82 1807.07 1482.38 Q1808.9 1485.92 1812.51 1485.92 Q1816.14 1485.92 1817.95 1482.38 Q1819.78 1478.82 1819.78 1471.71 Q1819.78 1464.58 1817.95 1461.04 Q1816.14 1457.48 1812.51 1457.48 M1812.51 1453.77 Q1818.32 1453.77 1821.37 1458.38 Q1824.45 1462.96 1824.45 1471.71 Q1824.45 1480.44 1821.37 1485.04 Q1818.32 1489.63 1812.51 1489.63 Q1806.7 1489.63 1803.62 1485.04 Q1800.56 1480.44 1800.56 1471.71 Q1800.56 1462.96 1803.62 1458.38 Q1806.7 1453.77 1812.51 1453.77 Z" fill="#000000" fill-rule="evenodd" fill-opacity="1" /><path clip-path="url(#clip620)" d="M1825.64 1433.47 L1840.55 1433.47 L1840.55 1436.66 L1829.12 1436.66 L1829.12 1443.55 Q1829.94 1443.27 1830.77 1443.13 Q1831.6 1442.98 1832.43 1442.98 Q1837.13 1442.98 1839.88 1445.56 Q1842.62 1448.14 1842.62 1452.54 Q1842.62 1457.07 1839.8 1459.59 Q1836.98 1462.09 1831.84 1462.09 Q1830.08 1462.09 1828.23 1461.79 Q1826.41 1461.49 1824.45 1460.89 L1824.45 1457.07 Q1826.15 1457.99 1827.95 1458.44 Q1829.76 1458.89 1831.77 1458.89 Q1835.02 1458.89 1836.92 1457.18 Q1838.82 1455.47 1838.82 1452.54 Q1838.82 1449.6 1836.92 1447.89 Q1835.02 1446.18 1831.77 1446.18 Q1830.25 1446.18 1828.72 1446.52 Q1827.22 1446.86 1825.64 1447.57 L1825.64 1433.47 Z" fill="#000000" fill-rule="evenodd" fill-opacity="1" /><path clip-path="url(#clip620)" d="M2071.89 1485.02 L2079.53 1485.02 L2079.53 1458.66 L2071.22 1460.32 L2071.22 1456.06 L2079.48 1454.4 L2084.16 1454.4 L2084.16 1485.02 L2091.79 1485.02 L2091.79 1488.96 L2071.89 1488.96 L2071.89 1485.02 Z" fill="#000000" fill-rule="evenodd" fill-opacity="1" /><path clip-path="url(#clip620)" d="M2111.24 1457.48 Q2107.63 1457.48 2105.8 1461.04 Q2103.99 1464.58 2103.99 1471.71 Q2103.99 1478.82 2105.8 1482.38 Q2107.63 1485.92 2111.24 1485.92 Q2114.87 1485.92 2116.68 1482.38 Q2118.51 1478.82 2118.51 1471.71 Q2118.51 1464.58 2116.68 1461.04 Q2114.87 1457.48 2111.24 1457.48 M2111.24 1453.77 Q2117.05 1453.77 2120.1 1458.38 Q2123.18 1462.96 2123.18 1471.71 Q2123.18 1480.44 2120.1 1485.04 Q2117.05 1489.63 2111.24 1489.63 Q2105.43 1489.63 2102.35 1485.04 Q2099.29 1480.44 2099.29 1471.71 Q2099.29 1462.96 2102.35 1458.38 Q2105.43 1453.77 2111.24 1453.77 Z" fill="#000000" fill-rule="evenodd" fill-opacity="1" /><path clip-path="url(#clip620)" d="M2133.21 1445.99 Q2130.65 1445.99 2129.15 1447.74 Q2127.66 1449.49 2127.66 1452.54 Q2127.66 1455.57 2129.15 1457.33 Q2130.65 1459.08 2133.21 1459.08 Q2135.77 1459.08 2137.25 1457.33 Q2138.76 1455.57 2138.76 1452.54 Q2138.76 1449.49 2137.25 1447.74 Q2135.77 1445.99 2133.21 1445.99 M2140.75 1434.09 L2140.75 1437.55 Q2139.32 1436.87 2137.85 1436.51 Q2136.4 1436.16 2134.98 1436.16 Q2131.21 1436.16 2129.22 1438.69 Q2127.25 1441.23 2126.96 1446.37 Q2128.07 1444.73 2129.75 1443.87 Q2131.42 1442.98 2133.43 1442.98 Q2137.67 1442.98 2140.11 1445.56 Q2142.57 1448.12 2142.57 1452.54 Q2142.57 1456.86 2140.02 1459.48 Q2137.46 1462.09 2133.21 1462.09 Q2128.34 1462.09 2125.76 1458.37 Q2123.18 1454.62 2123.18 1447.53 Q2123.18 1440.88 2126.34 1436.93 Q2129.5 1432.96 2134.83 1432.96 Q2136.25 1432.96 2137.7 1433.24 Q2139.17 1433.52 2140.75 1434.09 Z" fill="#000000" fill-rule="evenodd" fill-opacity="1" /><path clip-path="url(#clip620)" d="M1060.12 1543.95 L1060.12 1524.66 L1065.98 1524.66 L1065.98 1574.19 L1060.12 1574.19 L1060.12 1568.84 Q1058.27 1572.02 1055.44 1573.58 Q1052.64 1575.11 1048.69 1575.11 Q1042.23 1575.11 1038.16 1569.95 Q1034.12 1564.8 1034.12 1556.39 Q1034.12 1547.99 1038.16 1542.83 Q1042.23 1537.68 1048.69 1537.68 Q1052.64 1537.68 1055.44 1539.24 Q1058.27 1540.77 1060.12 1543.95 M1040.16 1556.39 Q1040.16 1562.85 1042.8 1566.55 Q1045.48 1570.21 1050.13 1570.21 Q1054.77 1570.21 1057.45 1566.55 Q1060.12 1562.85 1060.12 1556.39 Q1060.12 1549.93 1057.45 1546.27 Q1054.77 1542.58 1050.13 1542.58 Q1045.48 1542.58 1042.8 1546.27 Q1040.16 1549.93 1040.16 1556.39 Z" fill="#000000" fill-rule="evenodd" fill-opacity="1" /><path clip-path="url(#clip620)" d="M1094.24 1556.27 Q1087.14 1556.27 1084.4 1557.89 Q1081.67 1559.51 1081.67 1563.43 Q1081.67 1566.55 1083.7 1568.39 Q1085.77 1570.21 1089.31 1570.21 Q1094.18 1570.21 1097.1 1566.77 Q1100.06 1563.3 1100.06 1557.57 L1100.06 1556.27 L1094.24 1556.27 M1105.92 1553.85 L1105.92 1574.19 L1100.06 1574.19 L1100.06 1568.77 Q1098.06 1572.02 1095.07 1573.58 Q1092.08 1575.11 1087.75 1575.11 Q1082.27 1575.11 1079.03 1572.05 Q1075.81 1568.97 1075.81 1563.81 Q1075.81 1557.79 1079.82 1554.74 Q1083.86 1551.68 1091.85 1551.68 L1100.06 1551.68 L1100.06 1551.11 Q1100.06 1547.07 1097.39 1544.87 Q1094.75 1542.64 1089.94 1542.64 Q1086.89 1542.64 1083.99 1543.38 Q1081.09 1544.11 1078.42 1545.57 L1078.42 1540.16 Q1081.64 1538.92 1084.66 1538.31 Q1087.68 1537.68 1090.55 1537.68 Q1098.28 1537.68 1102.1 1541.69 Q1105.92 1545.7 1105.92 1553.85 Z" fill="#000000" fill-rule="evenodd" fill-opacity="1" /><path clip-path="url(#clip620)" d="M1123.78 1528.42 L1123.78 1538.54 L1135.84 1538.54 L1135.84 1543.09 L1123.78 1543.09 L1123.78 1562.44 Q1123.78 1566.8 1124.95 1568.04 Q1126.16 1569.28 1129.82 1569.28 L1135.84 1569.28 L1135.84 1574.19 L1129.82 1574.19 Q1123.04 1574.19 1120.47 1571.67 Q1117.89 1569.12 1117.89 1562.44 L1117.89 1543.09 L1113.59 1543.09 L1113.59 1538.54 L1117.89 1538.54 L1117.89 1528.42 L1123.78 1528.42 Z" fill="#000000" fill-rule="evenodd" fill-opacity="1" /><path clip-path="url(#clip620)" d="M1159.74 1556.27 Q1152.64 1556.27 1149.91 1557.89 Q1147.17 1559.51 1147.17 1563.43 Q1147.17 1566.55 1149.21 1568.39 Q1151.28 1570.21 1154.81 1570.21 Q1159.68 1570.21 1162.61 1566.77 Q1165.57 1563.3 1165.57 1557.57 L1165.57 1556.27 L1159.74 1556.27 M1171.42 1553.85 L1171.42 1574.19 L1165.57 1574.19 L1165.57 1568.77 Q1163.56 1572.02 1160.57 1573.58 Q1157.58 1575.11 1153.25 1575.11 Q1147.78 1575.11 1144.53 1572.05 Q1141.31 1568.97 1141.31 1563.81 Q1141.31 1557.79 1145.32 1554.74 Q1149.37 1551.68 1157.36 1551.68 L1165.57 1551.68 L1165.57 1551.11 Q1165.57 1547.07 1162.89 1544.87 Q1160.25 1542.64 1155.45 1542.64 Q1152.39 1542.64 1149.49 1543.38 Q1146.6 1544.11 1143.92 1545.57 L1143.92 1540.16 Q1147.14 1538.92 1150.16 1538.31 Q1153.19 1537.68 1156.05 1537.68 Q1163.78 1537.68 1167.6 1541.69 Q1171.42 1545.7 1171.42 1553.85 Z" fill="#000000" fill-rule="evenodd" fill-opacity="1" /><path clip-path="url(#clip620)" d="M1226.93 1539.59 L1226.93 1545.13 Q1224.45 1543.85 1221.78 1543.22 Q1219.1 1542.58 1216.24 1542.58 Q1211.88 1542.58 1209.68 1543.92 Q1207.52 1545.25 1207.52 1547.93 Q1207.52 1549.96 1209.08 1551.14 Q1210.64 1552.29 1215.35 1553.34 L1217.35 1553.78 Q1223.59 1555.12 1226.2 1557.57 Q1228.84 1559.99 1228.84 1564.35 Q1228.84 1569.32 1224.9 1572.21 Q1220.98 1575.11 1214.11 1575.11 Q1211.24 1575.11 1208.12 1574.54 Q1205.03 1573.99 1201.6 1572.88 L1201.6 1566.83 Q1204.84 1568.52 1207.99 1569.38 Q1211.15 1570.21 1214.23 1570.21 Q1218.37 1570.21 1220.6 1568.81 Q1222.83 1567.37 1222.83 1564.8 Q1222.83 1562.41 1221.2 1561.14 Q1219.61 1559.86 1214.17 1558.68 L1212.13 1558.21 Q1206.69 1557.06 1204.27 1554.71 Q1201.85 1552.32 1201.85 1548.18 Q1201.85 1543.15 1205.42 1540.42 Q1208.98 1537.68 1215.54 1537.68 Q1218.78 1537.68 1221.65 1538.16 Q1224.51 1538.63 1226.93 1539.59 Z" fill="#000000" fill-rule="evenodd" fill-opacity="1" /><path clip-path="url(#clip620)" d="M1238.17 1538.54 L1244.02 1538.54 L1244.02 1574.19 L1238.17 1574.19 L1238.17 1538.54 M1238.17 1524.66 L1244.02 1524.66 L1244.02 1532.08 L1238.17 1532.08 L1238.17 1524.66 Z" fill="#000000" fill-rule="evenodd" fill-opacity="1" /><path clip-path="url(#clip620)" d="M1253.73 1538.54 L1281.55 1538.54 L1281.55 1543.88 L1259.53 1569.51 L1281.55 1569.51 L1281.55 1574.19 L1252.94 1574.19 L1252.94 1568.84 L1274.96 1543.22 L1253.73 1543.22 L1253.73 1538.54 Z" fill="#000000" fill-rule="evenodd" fill-opacity="1" /><path clip-path="url(#clip620)" d="M1320.99 1554.9 L1320.99 1557.76 L1294.06 1557.76 Q1294.44 1563.81 1297.69 1566.99 Q1300.97 1570.14 1306.79 1570.14 Q1310.16 1570.14 1313.32 1569.32 Q1316.5 1568.49 1319.62 1566.83 L1319.62 1572.37 Q1316.47 1573.71 1313.16 1574.41 Q1309.85 1575.11 1306.44 1575.11 Q1297.91 1575.11 1292.91 1570.14 Q1287.95 1565.18 1287.95 1556.71 Q1287.95 1547.96 1292.66 1542.83 Q1297.4 1537.68 1305.42 1537.68 Q1312.62 1537.68 1316.78 1542.33 Q1320.99 1546.94 1320.99 1554.9 M1315.13 1553.18 Q1315.07 1548.37 1312.42 1545.51 Q1309.81 1542.64 1305.49 1542.64 Q1300.58 1542.64 1297.62 1545.41 Q1294.7 1548.18 1294.25 1553.21 L1315.13 1553.18 Z" fill="#000000" fill-rule="evenodd" fill-opacity="1" /><path clip-path="url(#clip620)" d="M1365.39 1524.72 Q1361.12 1532.04 1359.05 1539.21 Q1356.98 1546.37 1356.98 1553.72 Q1356.98 1561.07 1359.05 1568.3 Q1361.15 1575.49 1365.39 1582.78 L1360.29 1582.78 Q1355.52 1575.3 1353.13 1568.07 Q1350.78 1560.85 1350.78 1553.72 Q1350.78 1546.62 1353.13 1539.43 Q1355.49 1532.24 1360.29 1524.72 L1365.39 1524.72 Z" fill="#000000" fill-rule="evenodd" fill-opacity="1" /><path clip-path="url(#clip620)" d="M1402.34 1556.39 Q1402.34 1549.93 1399.67 1546.27 Q1397.02 1542.58 1392.38 1542.58 Q1387.73 1542.58 1385.06 1546.27 Q1382.42 1549.93 1382.42 1556.39 Q1382.42 1562.85 1385.06 1566.55 Q1387.73 1570.21 1392.38 1570.21 Q1397.02 1570.21 1399.67 1566.55 Q1402.34 1562.85 1402.34 1556.39 M1382.42 1543.95 Q1384.26 1540.77 1387.06 1539.24 Q1389.89 1537.68 1393.81 1537.68 Q1400.3 1537.68 1404.35 1542.83 Q1408.42 1547.99 1408.42 1556.39 Q1408.42 1564.8 1404.35 1569.95 Q1400.3 1575.11 1393.81 1575.11 Q1389.89 1575.11 1387.06 1573.58 Q1384.26 1572.02 1382.42 1568.84 L1382.42 1574.19 L1376.53 1574.19 L1376.53 1524.66 L1382.42 1524.66 L1382.42 1543.95 Z" fill="#000000" fill-rule="evenodd" fill-opacity="1" /><path clip-path="url(#clip620)" d="M1432.96 1577.5 Q1430.48 1583.86 1428.12 1585.8 Q1425.77 1587.74 1421.82 1587.74 L1417.14 1587.74 L1417.14 1582.84 L1420.58 1582.84 Q1423 1582.84 1424.33 1581.7 Q1425.67 1580.55 1427.29 1576.29 L1428.34 1573.61 L1413.93 1538.54 L1420.13 1538.54 L1431.27 1566.42 L1442.41 1538.54 L1448.62 1538.54 L1432.96 1577.5 Z" fill="#000000" fill-rule="evenodd" fill-opacity="1" /><path clip-path="url(#clip620)" d="M1462.5 1528.42 L1462.5 1538.54 L1474.56 1538.54 L1474.56 1543.09 L1462.5 1543.09 L1462.5 1562.44 Q1462.5 1566.8 1463.67 1568.04 Q1464.88 1569.28 1468.54 1569.28 L1474.56 1569.28 L1474.56 1574.19 L1468.54 1574.19 Q1461.76 1574.19 1459.19 1571.67 Q1456.61 1569.12 1456.61 1562.44 L1456.61 1543.09 L1452.31 1543.09 L1452.31 1538.54 L1456.61 1538.54 L1456.61 1528.42 L1462.5 1528.42 Z" fill="#000000" fill-rule="evenodd" fill-opacity="1" /><path clip-path="url(#clip620)" d="M1512.75 1554.9 L1512.75 1557.76 L1485.83 1557.76 Q1486.21 1563.81 1489.45 1566.99 Q1492.73 1570.14 1498.56 1570.14 Q1501.93 1570.14 1505.08 1569.32 Q1508.27 1568.49 1511.38 1566.83 L1511.38 1572.37 Q1508.23 1573.71 1504.92 1574.41 Q1501.61 1575.11 1498.21 1575.11 Q1489.68 1575.11 1484.68 1570.14 Q1479.71 1565.18 1479.71 1556.71 Q1479.71 1547.96 1484.43 1542.83 Q1489.17 1537.68 1497.19 1537.68 Q1504.38 1537.68 1508.55 1542.33 Q1512.75 1546.94 1512.75 1554.9 M1506.9 1553.18 Q1506.83 1548.37 1504.19 1545.51 Q1501.58 1542.64 1497.25 1542.64 Q1492.35 1542.64 1489.39 1545.41 Q1486.46 1548.18 1486.02 1553.21 L1506.9 1553.18 Z" fill="#000000" fill-rule="evenodd" fill-opacity="1" /><path clip-path="url(#clip620)" d="M1545.09 1539.59 L1545.09 1545.13 Q1542.61 1543.85 1539.93 1543.22 Q1537.26 1542.58 1534.4 1542.58 Q1530.04 1542.58 1527.84 1543.92 Q1525.68 1545.25 1525.68 1547.93 Q1525.68 1549.96 1527.23 1551.14 Q1528.79 1552.29 1533.51 1553.34 L1535.51 1553.78 Q1541.75 1555.12 1544.36 1557.57 Q1547 1559.99 1547 1564.35 Q1547 1569.32 1543.05 1572.21 Q1539.14 1575.11 1532.26 1575.11 Q1529.4 1575.11 1526.28 1574.54 Q1523.19 1573.99 1519.76 1572.88 L1519.76 1566.83 Q1523 1568.52 1526.15 1569.38 Q1529.3 1570.21 1532.39 1570.21 Q1536.53 1570.21 1538.76 1568.81 Q1540.98 1567.37 1540.98 1564.8 Q1540.98 1562.41 1539.36 1561.14 Q1537.77 1559.86 1532.33 1558.68 L1530.29 1558.21 Q1524.85 1557.06 1522.43 1554.71 Q1520.01 1552.32 1520.01 1548.18 Q1520.01 1543.15 1523.57 1540.42 Q1527.14 1537.68 1533.7 1537.68 Q1536.94 1537.68 1539.81 1538.16 Q1542.67 1538.63 1545.09 1539.59 Z" fill="#000000" fill-rule="evenodd" fill-opacity="1" /><path clip-path="url(#clip620)" d="M1555.4 1524.72 L1560.5 1524.72 Q1565.27 1532.24 1567.63 1539.43 Q1570.01 1546.62 1570.01 1553.72 Q1570.01 1560.85 1567.63 1568.07 Q1565.27 1575.3 1560.5 1582.78 L1555.4 1582.78 Q1559.64 1575.49 1561.71 1568.3 Q1563.81 1561.07 1563.81 1553.72 Q1563.81 1546.37 1561.71 1539.21 Q1559.64 1532.04 1555.4 1524.72 Z" fill="#000000" fill-rule="evenodd" fill-opacity="1" /><polyline clip-path="url(#clip622)" style="stroke:#000000; stroke-linecap:butt; stroke-linejoin:round; stroke-width:2; stroke-opacity:0.1; fill:none" points="
  251.372,1410.9 2352.76,1410.9 
  "/>
<polyline clip-path="url(#clip622)" style="stroke:#000000; stroke-linecap:butt; stroke-linejoin:round; stroke-width:2; stroke-opacity:0.1; fill:none" points="
  251.372,1153.41 2352.76,1153.41 
  "/>
<polyline clip-path="url(#clip622)" style="stroke:#000000; stroke-linecap:butt; stroke-linejoin:round; stroke-width:2; stroke-opacity:0.1; fill:none" points="
  251.372,895.927 2352.76,895.927 
  "/>
<polyline clip-path="url(#clip622)" style="stroke:#000000; stroke-linecap:butt; stroke-linejoin:round; stroke-width:2; stroke-opacity:0.1; fill:none" points="
  251.372,638.442 2352.76,638.442 
  "/>
<polyline clip-path="url(#clip622)" style="stroke:#000000; stroke-linecap:butt; stroke-linejoin:round; stroke-width:2; stroke-opacity:0.1; fill:none" points="
  251.372,380.957 2352.76,380.957 
  "/>
<polyline clip-path="url(#clip622)" style="stroke:#000000; stroke-linecap:butt; stroke-linejoin:round; stroke-width:2; stroke-opacity:0.1; fill:none" points="
  251.372,123.472 2352.76,123.472 
  "/>
<polyline clip-path="url(#clip620)" style="stroke:#000000; stroke-linecap:butt; stroke-linejoin:round; stroke-width:4; stroke-opacity:1; fill:none" points="
  251.372,1410.9 251.372,123.472 
  "/>
<polyline clip-path="url(#clip620)" style="stroke:#000000; stroke-linecap:butt; stroke-linejoin:round; stroke-width:4; stroke-opacity:1; fill:none" points="
  251.372,1410.9 270.27,1410.9 
  "/>
<polyline clip-path="url(#clip620)" style="stroke:#000000; stroke-linecap:butt; stroke-linejoin:round; stroke-width:4; stroke-opacity:1; fill:none" points="
  251.372,1153.41 270.27,1153.41 
  "/>
<polyline clip-path="url(#clip620)" style="stroke:#000000; stroke-linecap:butt; stroke-linejoin:round; stroke-width:4; stroke-opacity:1; fill:none" points="
  251.372,895.927 270.27,895.927 
  "/>
<polyline clip-path="url(#clip620)" style="stroke:#000000; stroke-linecap:butt; stroke-linejoin:round; stroke-width:4; stroke-opacity:1; fill:none" points="
  251.372,638.442 270.27,638.442 
  "/>
<polyline clip-path="url(#clip620)" style="stroke:#000000; stroke-linecap:butt; stroke-linejoin:round; stroke-width:4; stroke-opacity:1; fill:none" points="
  251.372,380.957 270.27,380.957 
  "/>
<polyline clip-path="url(#clip620)" style="stroke:#000000; stroke-linecap:butt; stroke-linejoin:round; stroke-width:4; stroke-opacity:1; fill:none" points="
  251.372,123.472 270.27,123.472 
  "/>
<path clip-path="url(#clip620)" d="M114.931 1430.69 L122.57 1430.69 L122.57 1404.32 L114.26 1405.99 L114.26 1401.73 L122.524 1400.06 L127.2 1400.06 L127.2 1430.69 L134.839 1430.69 L134.839 1434.62 L114.931 1434.62 L114.931 1430.69 Z" fill="#000000" fill-rule="evenodd" fill-opacity="1" /><path clip-path="url(#clip620)" d="M154.283 1403.14 Q150.672 1403.14 148.843 1406.71 Q147.038 1410.25 147.038 1417.38 Q147.038 1424.49 148.843 1428.05 Q150.672 1431.59 154.283 1431.59 Q157.917 1431.59 159.723 1428.05 Q161.552 1424.49 161.552 1417.38 Q161.552 1410.25 159.723 1406.71 Q157.917 1403.14 154.283 1403.14 M154.283 1399.44 Q160.093 1399.44 163.149 1404.05 Q166.227 1408.63 166.227 1417.38 Q166.227 1426.11 163.149 1430.71 Q160.093 1435.3 154.283 1435.3 Q148.473 1435.3 145.394 1430.71 Q142.339 1426.11 142.339 1417.38 Q142.339 1408.63 145.394 1404.05 Q148.473 1399.44 154.283 1399.44 Z" fill="#000000" fill-rule="evenodd" fill-opacity="1" /><path clip-path="url(#clip620)" d="M166.227 1393.54 L190.339 1393.54 L190.339 1396.74 L166.227 1396.74 L166.227 1393.54 Z" fill="#000000" fill-rule="evenodd" fill-opacity="1" /><path clip-path="url(#clip620)" d="M199.197 1404.02 L205.404 1404.02 L205.404 1382.59 L198.652 1383.95 L198.652 1380.49 L205.366 1379.13 L209.166 1379.13 L209.166 1404.02 L215.372 1404.02 L215.372 1407.21 L199.197 1407.21 L199.197 1404.02 Z" fill="#000000" fill-rule="evenodd" fill-opacity="1" /><path clip-path="url(#clip620)" d="M144.667 1173.2 L152.305 1173.2 L152.305 1146.84 L143.995 1148.51 L143.995 1144.25 L152.259 1142.58 L156.935 1142.58 L156.935 1173.2 L164.574 1173.2 L164.574 1177.14 L144.667 1177.14 L144.667 1173.2 Z" fill="#000000" fill-rule="evenodd" fill-opacity="1" /><path clip-path="url(#clip620)" d="M184.018 1145.66 Q180.407 1145.66 178.578 1149.22 Q176.773 1152.76 176.773 1159.89 Q176.773 1167 178.578 1170.57 Q180.407 1174.11 184.018 1174.11 Q187.652 1174.11 189.458 1170.57 Q191.287 1167 191.287 1159.89 Q191.287 1152.76 189.458 1149.22 Q187.652 1145.66 184.018 1145.66 M184.018 1141.95 Q189.828 1141.95 192.884 1146.56 Q195.963 1151.14 195.963 1159.89 Q195.963 1168.62 192.884 1173.23 Q189.828 1177.81 184.018 1177.81 Q178.208 1177.81 175.129 1173.23 Q172.074 1168.62 172.074 1159.89 Q172.074 1151.14 175.129 1146.56 Q178.208 1141.95 184.018 1141.95 Z" fill="#000000" fill-rule="evenodd" fill-opacity="1" /><path clip-path="url(#clip620)" d="M205.667 1124.15 Q202.733 1124.15 201.248 1127.05 Q199.781 1129.92 199.781 1135.72 Q199.781 1141.49 201.248 1144.39 Q202.733 1147.27 205.667 1147.27 Q208.62 1147.27 210.087 1144.39 Q211.573 1141.49 211.573 1135.72 Q211.573 1129.92 210.087 1127.05 Q208.62 1124.15 205.667 1124.15 M205.667 1121.14 Q210.388 1121.14 212.871 1124.88 Q215.372 1128.61 215.372 1135.72 Q215.372 1142.81 212.871 1146.55 Q210.388 1150.27 205.667 1150.27 Q200.947 1150.27 198.445 1146.55 Q195.963 1142.81 195.963 1135.72 Q195.963 1128.61 198.445 1124.88 Q200.947 1121.14 205.667 1121.14 Z" fill="#000000" fill-rule="evenodd" fill-opacity="1" /><path clip-path="url(#clip620)" d="M147.356 915.719 L154.995 915.719 L154.995 889.354 L146.685 891.02 L146.685 886.761 L154.949 885.094 L159.624 885.094 L159.624 915.719 L167.263 915.719 L167.263 919.654 L147.356 919.654 L147.356 915.719 Z" fill="#000000" fill-rule="evenodd" fill-opacity="1" /><path clip-path="url(#clip620)" d="M186.708 888.173 Q183.097 888.173 181.268 891.738 Q179.462 895.28 179.462 902.409 Q179.462 909.516 181.268 913.08 Q183.097 916.622 186.708 916.622 Q190.342 916.622 192.147 913.08 Q193.976 909.516 193.976 902.409 Q193.976 895.28 192.147 891.738 Q190.342 888.173 186.708 888.173 M186.708 884.469 Q192.518 884.469 195.573 889.076 Q198.652 893.659 198.652 902.409 Q198.652 911.136 195.573 915.742 Q192.518 920.326 186.708 920.326 Q180.898 920.326 177.819 915.742 Q174.763 911.136 174.763 902.409 Q174.763 893.659 177.819 889.076 Q180.898 884.469 186.708 884.469 Z" fill="#000000" fill-rule="evenodd" fill-opacity="1" /><path clip-path="url(#clip620)" d="M199.197 889.047 L205.404 889.047 L205.404 867.625 L198.652 868.979 L198.652 865.518 L205.366 864.164 L209.166 864.164 L209.166 889.047 L215.372 889.047 L215.372 892.244 L199.197 892.244 L199.197 889.047 Z" fill="#000000" fill-rule="evenodd" fill-opacity="1" /><path clip-path="url(#clip620)" d="M146.246 658.234 L153.885 658.234 L153.885 631.869 L145.575 633.535 L145.575 629.276 L153.839 627.61 L158.515 627.61 L158.515 658.234 L166.154 658.234 L166.154 662.17 L146.246 662.17 L146.246 658.234 Z" fill="#000000" fill-rule="evenodd" fill-opacity="1" /><path clip-path="url(#clip620)" d="M185.598 630.688 Q181.987 630.688 180.158 634.253 Q178.353 637.795 178.353 644.924 Q178.353 652.031 180.158 655.595 Q181.987 659.137 185.598 659.137 Q189.232 659.137 191.038 655.595 Q192.867 652.031 192.867 644.924 Q192.867 637.795 191.038 634.253 Q189.232 630.688 185.598 630.688 M185.598 626.985 Q191.408 626.985 194.464 631.591 Q197.542 636.174 197.542 644.924 Q197.542 653.651 194.464 658.258 Q191.408 662.841 185.598 662.841 Q179.788 662.841 176.709 658.258 Q173.654 653.651 173.654 644.924 Q173.654 636.174 176.709 631.591 Q179.788 626.985 185.598 626.985 Z" fill="#000000" fill-rule="evenodd" fill-opacity="1" /><path clip-path="url(#clip620)" d="M202.113 631.562 L215.372 631.562 L215.372 634.759 L197.542 634.759 L197.542 631.562 Q199.705 629.324 203.429 625.562 Q207.172 621.782 208.131 620.691 Q209.956 618.641 210.67 617.23 Q211.404 615.801 211.404 614.428 Q211.404 612.19 209.824 610.779 Q208.263 609.369 205.743 609.369 Q203.956 609.369 201.962 609.989 Q199.987 610.61 197.73 611.87 L197.73 608.033 Q200.025 607.112 202.019 606.642 Q204.012 606.171 205.667 606.171 Q210.031 606.171 212.626 608.353 Q215.222 610.535 215.222 614.183 Q215.222 615.914 214.563 617.475 Q213.924 619.017 212.212 621.123 Q211.742 621.669 209.222 624.283 Q206.702 626.879 202.113 631.562 Z" fill="#000000" fill-rule="evenodd" fill-opacity="1" /><path clip-path="url(#clip620)" d="M145.588 400.749 L153.227 400.749 L153.227 374.384 L144.917 376.051 L144.917 371.791 L153.181 370.125 L157.857 370.125 L157.857 400.749 L165.495 400.749 L165.495 404.685 L145.588 404.685 L145.588 400.749 Z" fill="#000000" fill-rule="evenodd" fill-opacity="1" /><path clip-path="url(#clip620)" d="M184.94 373.203 Q181.329 373.203 179.5 376.768 Q177.694 380.31 177.694 387.439 Q177.694 394.546 179.5 398.111 Q181.329 401.652 184.94 401.652 Q188.574 401.652 190.38 398.111 Q192.208 394.546 192.208 387.439 Q192.208 380.31 190.38 376.768 Q188.574 373.203 184.94 373.203 M184.94 369.5 Q190.75 369.5 193.805 374.106 Q196.884 378.689 196.884 387.439 Q196.884 396.166 193.805 400.773 Q190.75 405.356 184.94 405.356 Q179.13 405.356 176.051 400.773 Q172.995 396.166 172.995 387.439 Q172.995 378.689 176.051 374.106 Q179.13 369.5 184.94 369.5 Z" fill="#000000" fill-rule="evenodd" fill-opacity="1" /><path clip-path="url(#clip620)" d="M209.579 362.134 Q212.307 362.717 213.83 364.56 Q215.372 366.403 215.372 369.112 Q215.372 373.268 212.513 375.544 Q209.655 377.82 204.388 377.82 Q202.621 377.82 200.74 377.462 Q198.878 377.124 196.884 376.428 L196.884 372.76 Q198.464 373.682 200.345 374.152 Q202.226 374.622 204.276 374.622 Q207.849 374.622 209.711 373.212 Q211.592 371.801 211.592 369.112 Q211.592 366.629 209.843 365.237 Q208.112 363.827 205.009 363.827 L201.737 363.827 L201.737 360.705 L205.16 360.705 Q207.962 360.705 209.448 359.595 Q210.934 358.466 210.934 356.36 Q210.934 354.197 209.391 353.05 Q207.868 351.884 205.009 351.884 Q203.448 351.884 201.661 352.222 Q199.875 352.561 197.73 353.276 L197.73 349.89 Q199.893 349.288 201.774 348.987 Q203.674 348.686 205.348 348.686 Q209.673 348.686 212.194 350.661 Q214.714 352.617 214.714 355.965 Q214.714 358.297 213.379 359.915 Q212.043 361.513 209.579 362.134 Z" fill="#000000" fill-rule="evenodd" fill-opacity="1" /><path clip-path="url(#clip620)" d="M143.613 143.265 L151.252 143.265 L151.252 116.899 L142.942 118.566 L142.942 114.306 L151.206 112.64 L155.882 112.64 L155.882 143.265 L163.521 143.265 L163.521 147.2 L143.613 147.2 L143.613 143.265 Z" fill="#000000" fill-rule="evenodd" fill-opacity="1" /><path clip-path="url(#clip620)" d="M182.965 115.718 Q179.354 115.718 177.525 119.283 Q175.72 122.825 175.72 129.954 Q175.72 137.061 177.525 140.626 Q179.354 144.167 182.965 144.167 Q186.599 144.167 188.405 140.626 Q190.233 137.061 190.233 129.954 Q190.233 122.825 188.405 119.283 Q186.599 115.718 182.965 115.718 M182.965 112.015 Q188.775 112.015 191.831 116.621 Q194.909 121.204 194.909 129.954 Q194.909 138.681 191.831 143.288 Q188.775 147.871 182.965 147.871 Q177.155 147.871 174.076 143.288 Q171.021 138.681 171.021 129.954 Q171.021 121.204 174.076 116.621 Q177.155 112.015 182.965 112.015 Z" fill="#000000" fill-rule="evenodd" fill-opacity="1" /><path clip-path="url(#clip620)" d="M207.586 95.0195 L197.994 110.009 L207.586 110.009 L207.586 95.0195 M206.589 91.7093 L211.366 91.7093 L211.366 110.009 L215.372 110.009 L215.372 113.169 L211.366 113.169 L211.366 119.789 L207.586 119.789 L207.586 113.169 L194.909 113.169 L194.909 109.501 L206.589 91.7093 Z" fill="#000000" fill-rule="evenodd" fill-opacity="1" /><path clip-path="url(#clip620)" d="M46.212 1021.69 Q39.7508 1021.69 36.0905 1024.36 Q32.3984 1027 32.3984 1031.65 Q32.3984 1036.29 36.0905 1038.97 Q39.7508 1041.61 46.212 1041.61 Q52.6732 1041.61 56.3653 1038.97 Q60.0256 1036.29 60.0256 1031.65 Q60.0256 1027 56.3653 1024.36 Q52.6732 1021.69 46.212 1021.69 M33.7671 1041.61 Q30.5842 1039.76 29.0564 1036.96 Q27.4968 1034.13 27.4968 1030.22 Q27.4968 1023.72 32.6531 1019.68 Q37.8093 1015.61 46.212 1015.61 Q54.6147 1015.61 59.771 1019.68 Q64.9272 1023.72 64.9272 1030.22 Q64.9272 1034.13 63.3994 1036.96 Q61.8398 1039.76 58.657 1041.61 L64.0042 1041.61 L64.0042 1047.5 L14.479 1047.5 L14.479 1041.61 L33.7671 1041.61 Z" fill="#000000" fill-rule="evenodd" fill-opacity="1" /><path clip-path="url(#clip620)" d="M46.0847 989.698 Q46.0847 996.795 47.7079 999.533 Q49.3312 1002.27 53.2461 1002.27 Q56.3653 1002.27 58.2114 1000.23 Q60.0256 998.164 60.0256 994.631 Q60.0256 989.761 56.5881 986.833 Q53.1188 983.873 47.3897 983.873 L46.0847 983.873 L46.0847 989.698 M43.6657 978.017 L64.0042 978.017 L64.0042 983.873 L58.5933 983.873 Q61.8398 985.878 63.3994 988.87 Q64.9272 991.862 64.9272 996.191 Q64.9272 1001.67 61.8716 1004.91 Q58.7843 1008.13 53.6281 1008.13 Q47.6125 1008.13 44.5569 1004.12 Q41.5014 1000.07 41.5014 992.085 L41.5014 983.873 L40.9285 983.873 Q36.8862 983.873 34.6901 986.547 Q32.4621 989.188 32.4621 993.995 Q32.4621 997.05 33.1941 999.946 Q33.9262 1002.84 35.3903 1005.52 L29.9795 1005.52 Q28.7381 1002.3 28.1334 999.278 Q27.4968 996.254 27.4968 993.39 Q27.4968 985.655 31.5072 981.836 Q35.5176 978.017 43.6657 978.017 Z" fill="#000000" fill-rule="evenodd" fill-opacity="1" /><path clip-path="url(#clip620)" d="M42.4881 936.321 L64.0042 936.321 L64.0042 942.178 L42.679 942.178 Q37.6183 942.178 35.1038 944.151 Q32.5894 946.124 32.5894 950.071 Q32.5894 954.814 35.6131 957.551 Q38.6368 960.288 43.8567 960.288 L64.0042 960.288 L64.0042 966.176 L28.3562 966.176 L28.3562 960.288 L33.8944 960.288 Q30.6797 958.187 29.0883 955.355 Q27.4968 952.49 27.4968 948.766 Q27.4968 942.623 31.3163 939.472 Q35.1038 936.321 42.4881 936.321 Z" fill="#000000" fill-rule="evenodd" fill-opacity="1" /><path clip-path="url(#clip620)" d="M33.7671 901.183 L14.479 901.183 L14.479 895.326 L64.0042 895.326 L64.0042 901.183 L58.657 901.183 Q61.8398 903.029 63.3994 905.861 Q64.9272 908.662 64.9272 912.609 Q64.9272 919.07 59.771 923.144 Q54.6147 927.186 46.212 927.186 Q37.8093 927.186 32.6531 923.144 Q27.4968 919.07 27.4968 912.609 Q27.4968 908.662 29.0564 905.861 Q30.5842 903.029 33.7671 901.183 M46.212 921.139 Q52.6732 921.139 56.3653 918.497 Q60.0256 915.824 60.0256 911.177 Q60.0256 906.53 56.3653 903.856 Q52.6732 901.183 46.212 901.183 Q39.7508 901.183 36.0905 903.856 Q32.3984 906.53 32.3984 911.177 Q32.3984 915.824 36.0905 918.497 Q39.7508 921.139 46.212 921.139 Z" fill="#000000" fill-rule="evenodd" fill-opacity="1" /><path clip-path="url(#clip620)" d="M28.3562 886.669 L28.3562 880.812 L56.1743 873.492 L28.3562 866.203 L28.3562 859.296 L56.1743 851.976 L28.3562 844.687 L28.3562 838.83 L64.0042 848.156 L64.0042 855.063 L34.7856 862.734 L64.0042 870.436 L64.0042 877.343 L28.3562 886.669 Z" fill="#000000" fill-rule="evenodd" fill-opacity="1" /><path clip-path="url(#clip620)" d="M28.3562 829.95 L28.3562 824.094 L64.0042 824.094 L64.0042 829.95 L28.3562 829.95 M14.479 829.95 L14.479 824.094 L21.895 824.094 L21.895 829.95 L14.479 829.95 Z" fill="#000000" fill-rule="evenodd" fill-opacity="1" /><path clip-path="url(#clip620)" d="M33.7671 788.382 L14.479 788.382 L14.479 782.526 L64.0042 782.526 L64.0042 788.382 L58.657 788.382 Q61.8398 790.228 63.3994 793.061 Q64.9272 795.862 64.9272 799.809 Q64.9272 806.27 59.771 810.344 Q54.6147 814.386 46.212 814.386 Q37.8093 814.386 32.6531 810.344 Q27.4968 806.27 27.4968 799.809 Q27.4968 795.862 29.0564 793.061 Q30.5842 790.228 33.7671 788.382 M46.212 808.339 Q52.6732 808.339 56.3653 805.697 Q60.0256 803.023 60.0256 798.376 Q60.0256 793.729 56.3653 791.056 Q52.6732 788.382 46.212 788.382 Q39.7508 788.382 36.0905 791.056 Q32.3984 793.729 32.3984 798.376 Q32.3984 803.023 36.0905 805.697 Q39.7508 808.339 46.212 808.339 Z" fill="#000000" fill-rule="evenodd" fill-opacity="1" /><path clip-path="url(#clip620)" d="M18.2347 764.67 L28.3562 764.67 L28.3562 752.607 L32.9077 752.607 L32.9077 764.67 L52.2594 764.67 Q56.6199 764.67 57.8613 763.492 Q59.1026 762.283 59.1026 758.623 L59.1026 752.607 L64.0042 752.607 L64.0042 758.623 Q64.0042 765.402 61.4897 767.98 Q58.9434 770.558 52.2594 770.558 L32.9077 770.558 L32.9077 774.855 L28.3562 774.855 L28.3562 770.558 L18.2347 770.558 L18.2347 764.67 Z" fill="#000000" fill-rule="evenodd" fill-opacity="1" /><path clip-path="url(#clip620)" d="M42.4881 715.272 L64.0042 715.272 L64.0042 721.128 L42.679 721.128 Q37.6183 721.128 35.1038 723.102 Q32.5894 725.075 32.5894 729.022 Q32.5894 733.764 35.6131 736.502 Q38.6368 739.239 43.8567 739.239 L64.0042 739.239 L64.0042 745.127 L14.479 745.127 L14.479 739.239 L33.8944 739.239 Q30.6797 737.138 29.0883 734.306 Q27.4968 731.441 27.4968 727.717 Q27.4968 721.574 31.3163 718.423 Q35.1038 715.272 42.4881 715.272 Z" fill="#000000" fill-rule="evenodd" fill-opacity="1" /><path clip-path="url(#clip620)" d="M14.5426 668.802 Q21.8632 673.067 29.0246 675.136 Q36.186 677.205 43.5384 677.205 Q50.8908 677.205 58.1159 675.136 Q65.3091 673.036 72.5979 668.802 L72.5979 673.895 Q65.1182 678.669 57.8931 681.056 Q50.668 683.412 43.5384 683.412 Q36.4406 683.412 29.2474 681.056 Q22.0542 678.701 14.5426 673.895 L14.5426 668.802 Z" fill="#000000" fill-rule="evenodd" fill-opacity="1" /><path clip-path="url(#clip620)" d="M16.4842 657.185 L16.4842 647.605 L48.8219 635.478 L16.4842 623.288 L16.4842 613.707 L64.0042 613.707 L64.0042 619.977 L22.277 619.977 L54.8694 632.231 L54.8694 638.693 L22.277 650.947 L64.0042 650.947 L64.0042 657.185 L16.4842 657.185 Z" fill="#000000" fill-rule="evenodd" fill-opacity="1" /><path clip-path="url(#clip620)" d="M41.3104 594.515 L58.7206 594.515 L58.7206 584.202 Q58.7206 579.014 56.5881 576.531 Q54.4238 574.017 49.9996 574.017 Q45.5436 574.017 43.4429 576.531 Q41.3104 579.014 41.3104 584.202 L41.3104 594.515 M21.7677 594.515 L36.0905 594.515 L36.0905 584.998 Q36.0905 580.287 34.34 577.996 Q32.5576 575.672 28.9291 575.672 Q25.3325 575.672 23.5501 577.996 Q21.7677 580.287 21.7677 584.998 L21.7677 594.515 M16.4842 600.944 L16.4842 584.52 Q16.4842 577.168 19.5397 573.189 Q22.5952 569.211 28.2289 569.211 Q32.5894 569.211 35.1675 571.248 Q37.7456 573.285 38.3822 577.232 Q39.4007 572.489 42.6472 569.879 Q45.8619 567.238 50.6998 567.238 Q57.0655 567.238 60.5348 571.566 Q64.0042 575.895 64.0042 583.884 L64.0042 600.944 L16.4842 600.944 Z" fill="#000000" fill-rule="evenodd" fill-opacity="1" /><path clip-path="url(#clip620)" d="M16.4842 546.072 L16.4842 540.661 L70.0516 557.212 L70.0516 562.622 L16.4842 546.072 Z" fill="#000000" fill-rule="evenodd" fill-opacity="1" /><path clip-path="url(#clip620)" d="M29.4065 511.792 L34.9447 511.792 Q33.6716 514.275 33.035 516.948 Q32.3984 519.622 32.3984 522.487 Q32.3984 526.847 33.7352 529.043 Q35.072 531.208 37.7456 531.208 Q39.7826 531.208 40.9603 529.648 Q42.1061 528.088 43.1565 523.378 L43.6021 521.373 Q44.9389 515.134 47.3897 512.524 Q49.8086 509.883 54.1691 509.883 Q59.1344 509.883 62.0308 513.829 Q64.9272 517.744 64.9272 524.619 Q64.9272 527.484 64.3543 530.603 Q63.8132 533.69 62.6992 537.128 L56.6518 537.128 Q58.3387 533.881 59.198 530.73 Q60.0256 527.579 60.0256 524.492 Q60.0256 520.354 58.6251 518.126 Q57.1929 515.898 54.6147 515.898 Q52.2276 515.898 50.9545 517.521 Q49.6813 519.113 48.5037 524.555 L48.0262 526.593 Q46.8804 532.035 44.5251 534.454 Q42.138 536.873 38.0002 536.873 Q32.9713 536.873 30.2341 533.308 Q27.4968 529.744 27.4968 523.187 Q27.4968 519.94 27.9743 517.076 Q28.4517 514.211 29.4065 511.792 Z" fill="#000000" fill-rule="evenodd" fill-opacity="1" /><path clip-path="url(#clip620)" d="M14.5426 501.48 L14.5426 496.387 Q22.0542 491.613 29.2474 489.258 Q36.4406 486.87 43.5384 486.87 Q50.668 486.87 57.8931 489.258 Q65.1182 491.613 72.5979 496.387 L72.5979 501.48 Q65.3091 497.247 58.1159 495.178 Q50.8908 493.077 43.5384 493.077 Q36.186 493.077 29.0246 495.178 Q21.8632 497.247 14.5426 501.48 Z" fill="#000000" fill-rule="evenodd" fill-opacity="1" /><path clip-path="url(#clip620)" d="M534.701 17.6457 Q525.789 17.6457 520.523 24.2892 Q515.297 30.9327 515.297 42.3968 Q515.297 53.8203 520.523 60.4638 Q525.789 67.1073 534.701 67.1073 Q543.613 67.1073 548.798 60.4638 Q554.024 53.8203 554.024 42.3968 Q554.024 30.9327 548.798 24.2892 Q543.613 17.6457 534.701 17.6457 M534.701 11.0023 Q547.421 11.0023 555.037 19.5497 Q562.652 28.0566 562.652 42.3968 Q562.652 56.6965 555.037 65.2439 Q547.421 73.7508 534.701 73.7508 Q521.941 73.7508 514.285 65.2439 Q506.669 56.737 506.669 42.3968 Q506.669 28.0566 514.285 19.5497 Q521.941 11.0023 534.701 11.0023 Z" fill="#000000" fill-rule="evenodd" fill-opacity="1" /><path clip-path="url(#clip620)" d="M582.34 65.7705 L582.34 89.8329 L574.846 89.8329 L574.846 27.2059 L582.34 27.2059 L582.34 34.0924 Q584.689 30.0415 588.254 28.0971 Q591.86 26.1121 596.842 26.1121 Q605.106 26.1121 610.251 32.6746 Q615.436 39.2371 615.436 49.9314 Q615.436 60.6258 610.251 67.1883 Q605.106 73.7508 596.842 73.7508 Q591.86 73.7508 588.254 71.8063 Q584.689 69.8214 582.34 65.7705 M607.699 49.9314 Q607.699 41.7081 604.296 37.0496 Q600.934 32.3505 595.019 32.3505 Q589.105 32.3505 585.702 37.0496 Q582.34 41.7081 582.34 49.9314 Q582.34 58.1548 585.702 62.8538 Q589.105 67.5124 595.019 67.5124 Q600.934 67.5124 604.296 62.8538 Q607.699 58.1548 607.699 49.9314 Z" fill="#000000" fill-rule="evenodd" fill-opacity="1" /><path clip-path="url(#clip620)" d="M666.599 48.0275 L666.599 51.6733 L632.328 51.6733 Q632.814 59.3701 636.946 63.421 Q641.119 67.4314 648.532 67.4314 Q652.826 67.4314 656.836 66.3781 Q660.887 65.3249 664.857 63.2184 L664.857 70.267 Q660.846 71.9684 656.633 72.8596 Q652.421 73.7508 648.086 73.7508 Q637.23 73.7508 630.87 67.4314 Q624.55 61.1119 624.55 50.3365 Q624.55 39.1965 630.546 32.6746 Q636.581 26.1121 646.79 26.1121 Q655.945 26.1121 661.252 32.0264 Q666.599 37.9003 666.599 48.0275 M659.145 45.84 Q659.064 39.7232 655.702 36.0774 Q652.38 32.4315 646.871 32.4315 Q640.632 32.4315 636.865 35.9558 Q633.138 39.4801 632.571 45.8805 L659.145 45.84 Z" fill="#000000" fill-rule="evenodd" fill-opacity="1" /><path clip-path="url(#clip620)" d="M716.546 45.1919 L716.546 72.576 L709.093 72.576 L709.093 45.4349 Q709.093 38.994 706.581 35.7938 Q704.07 32.5936 699.046 32.5936 Q693.011 32.5936 689.527 36.4419 Q686.043 40.2903 686.043 46.9338 L686.043 72.576 L678.549 72.576 L678.549 27.2059 L686.043 27.2059 L686.043 34.2544 Q688.717 30.163 692.322 28.1376 Q695.968 26.1121 700.707 26.1121 Q708.526 26.1121 712.536 30.9732 Q716.546 35.7938 716.546 45.1919 Z" fill="#000000" fill-rule="evenodd" fill-opacity="1" /><path clip-path="url(#clip620)" d="M731.737 12.096 L743.93 12.096 L759.364 53.2532 L774.879 12.096 L787.073 12.096 L787.073 72.576 L779.092 72.576 L779.092 19.4686 L763.496 60.9499 L755.273 60.9499 L739.677 19.4686 L739.677 72.576 L731.737 72.576 L731.737 12.096 Z" fill="#000000" fill-rule="evenodd" fill-opacity="1" /><path clip-path="url(#clip620)" d="M811.5 18.8205 L811.5 41.5461 L821.789 41.5461 Q827.501 41.5461 830.62 38.5889 Q833.739 35.6318 833.739 30.163 Q833.739 24.7348 830.62 21.7777 Q827.501 18.8205 821.789 18.8205 L811.5 18.8205 M803.317 12.096 L821.789 12.096 Q831.957 12.096 837.142 16.714 Q842.367 21.2916 842.367 30.163 Q842.367 39.1155 837.142 43.6931 Q831.957 48.2706 821.789 48.2706 L811.5 48.2706 L811.5 72.576 L803.317 72.576 L803.317 12.096 Z" fill="#000000" fill-rule="evenodd" fill-opacity="1" /><path clip-path="url(#clip620)" d="M853.345 12.096 L861.528 12.096 L861.528 72.576 L853.345 72.576 L853.345 12.096 Z" fill="#000000" fill-rule="evenodd" fill-opacity="1" /><path clip-path="url(#clip620)" d="M936.429 49.9314 Q936.429 41.7081 933.027 37.0496 Q929.664 32.3505 923.75 32.3505 Q917.836 32.3505 914.433 37.0496 Q911.071 41.7081 911.071 49.9314 Q911.071 58.1548 914.433 62.8538 Q917.836 67.5124 923.75 67.5124 Q929.664 67.5124 933.027 62.8538 Q936.429 58.1548 936.429 49.9314 M911.071 34.0924 Q913.42 30.0415 916.985 28.0971 Q920.59 26.1121 925.573 26.1121 Q933.837 26.1121 938.981 32.6746 Q944.167 39.2371 944.167 49.9314 Q944.167 60.6258 938.981 67.1883 Q933.837 73.7508 925.573 73.7508 Q920.59 73.7508 916.985 71.8063 Q913.42 69.8214 911.071 65.7705 L911.071 72.576 L903.577 72.576 L903.577 9.54393 L911.071 9.54393 L911.071 34.0924 Z" fill="#000000" fill-rule="evenodd" fill-opacity="1" /><path clip-path="url(#clip620)" d="M977.141 49.7694 Q968.107 49.7694 964.624 51.8354 Q961.14 53.9013 961.14 58.8839 Q961.14 62.8538 963.733 65.2034 Q966.366 67.5124 970.862 67.5124 Q977.06 67.5124 980.787 63.1374 Q984.554 58.7219 984.554 51.4303 L984.554 49.7694 L977.141 49.7694 M992.008 46.6907 L992.008 72.576 L984.554 72.576 L984.554 65.6895 Q982.002 69.8214 978.194 71.8063 Q974.386 73.7508 968.877 73.7508 Q961.91 73.7508 957.778 69.8619 Q953.686 65.9325 953.686 59.3701 Q953.686 51.7138 958.79 47.825 Q963.935 43.9361 974.103 43.9361 L984.554 43.9361 L984.554 43.2069 Q984.554 38.0623 981.151 35.2672 Q977.789 32.4315 971.672 32.4315 Q967.783 32.4315 964.097 33.3632 Q960.411 34.295 957.008 36.1584 L957.008 29.2718 Q961.099 27.692 964.948 26.9223 Q968.796 26.1121 972.442 26.1121 Q982.286 26.1121 987.147 31.2163 Q992.008 36.3204 992.008 46.6907 Z" fill="#000000" fill-rule="evenodd" fill-opacity="1" /><path clip-path="url(#clip620)" d="M1045.07 45.1919 L1045.07 72.576 L1037.62 72.576 L1037.62 45.4349 Q1037.62 38.994 1035.11 35.7938 Q1032.6 32.5936 1027.57 32.5936 Q1021.54 32.5936 1018.06 36.4419 Q1014.57 40.2903 1014.57 46.9338 L1014.57 72.576 L1007.08 72.576 L1007.08 27.2059 L1014.57 27.2059 L1014.57 34.2544 Q1017.24 30.163 1020.85 28.1376 Q1024.5 26.1121 1029.24 26.1121 Q1037.05 26.1121 1041.06 30.9732 Q1045.07 35.7938 1045.07 45.1919 Z" fill="#000000" fill-rule="evenodd" fill-opacity="1" /><path clip-path="url(#clip620)" d="M1089.8 34.0924 L1089.8 9.54393 L1097.25 9.54393 L1097.25 72.576 L1089.8 72.576 L1089.8 65.7705 Q1087.45 69.8214 1083.84 71.8063 Q1080.28 73.7508 1075.25 73.7508 Q1067.03 73.7508 1061.85 67.1883 Q1056.7 60.6258 1056.7 49.9314 Q1056.7 39.2371 1061.85 32.6746 Q1067.03 26.1121 1075.25 26.1121 Q1080.28 26.1121 1083.84 28.0971 Q1087.45 30.0415 1089.8 34.0924 M1064.4 49.9314 Q1064.4 58.1548 1067.76 62.8538 Q1071.16 67.5124 1077.08 67.5124 Q1082.99 67.5124 1086.39 62.8538 Q1089.8 58.1548 1089.8 49.9314 Q1089.8 41.7081 1086.39 37.0496 Q1082.99 32.3505 1077.08 32.3505 Q1071.16 32.3505 1067.76 37.0496 Q1064.4 41.7081 1064.4 49.9314 Z" fill="#000000" fill-rule="evenodd" fill-opacity="1" /><path clip-path="url(#clip620)" d="M1108.27 27.2059 L1115.72 27.2059 L1125.04 62.6108 L1134.32 27.2059 L1143.11 27.2059 L1152.42 62.6108 L1161.7 27.2059 L1169.15 27.2059 L1157.28 72.576 L1148.49 72.576 L1138.73 35.3887 L1128.93 72.576 L1120.14 72.576 L1108.27 27.2059 Z" fill="#000000" fill-rule="evenodd" fill-opacity="1" /><path clip-path="url(#clip620)" d="M1180.46 27.2059 L1187.91 27.2059 L1187.91 72.576 L1180.46 72.576 L1180.46 27.2059 M1180.46 9.54393 L1187.91 9.54393 L1187.91 18.9825 L1180.46 18.9825 L1180.46 9.54393 Z" fill="#000000" fill-rule="evenodd" fill-opacity="1" /><path clip-path="url(#clip620)" d="M1233.36 34.0924 L1233.36 9.54393 L1240.81 9.54393 L1240.81 72.576 L1233.36 72.576 L1233.36 65.7705 Q1231.01 69.8214 1227.41 71.8063 Q1223.84 73.7508 1218.82 73.7508 Q1210.59 73.7508 1205.41 67.1883 Q1200.26 60.6258 1200.26 49.9314 Q1200.26 39.2371 1205.41 32.6746 Q1210.59 26.1121 1218.82 26.1121 Q1223.84 26.1121 1227.41 28.0971 Q1231.01 30.0415 1233.36 34.0924 M1207.96 49.9314 Q1207.96 58.1548 1211.32 62.8538 Q1214.73 67.5124 1220.64 67.5124 Q1226.56 67.5124 1229.96 62.8538 Q1233.36 58.1548 1233.36 49.9314 Q1233.36 41.7081 1229.96 37.0496 Q1226.56 32.3505 1220.64 32.3505 Q1214.73 32.3505 1211.32 37.0496 Q1207.96 41.7081 1207.96 49.9314 Z" fill="#000000" fill-rule="evenodd" fill-opacity="1" /><path clip-path="url(#clip620)" d="M1263.54 14.324 L1263.54 27.2059 L1278.89 27.2059 L1278.89 32.9987 L1263.54 32.9987 L1263.54 57.6282 Q1263.54 63.1779 1265.04 64.7578 Q1266.58 66.3376 1271.24 66.3376 L1278.89 66.3376 L1278.89 72.576 L1271.24 72.576 Q1262.61 72.576 1259.33 69.3758 Q1256.05 66.1351 1256.05 57.6282 L1256.05 32.9987 L1250.58 32.9987 L1250.58 27.2059 L1256.05 27.2059 L1256.05 14.324 L1263.54 14.324 Z" fill="#000000" fill-rule="evenodd" fill-opacity="1" /><path clip-path="url(#clip620)" d="M1326.41 45.1919 L1326.41 72.576 L1318.96 72.576 L1318.96 45.4349 Q1318.96 38.994 1316.44 35.7938 Q1313.93 32.5936 1308.91 32.5936 Q1302.87 32.5936 1299.39 36.4419 Q1295.91 40.2903 1295.91 46.9338 L1295.91 72.576 L1288.41 72.576 L1288.41 9.54393 L1295.91 9.54393 L1295.91 34.2544 Q1298.58 30.163 1302.19 28.1376 Q1305.83 26.1121 1310.57 26.1121 Q1318.39 26.1121 1322.4 30.9732 Q1326.41 35.7938 1326.41 45.1919 Z" fill="#000000" fill-rule="evenodd" fill-opacity="1" /><path clip-path="url(#clip620)" d="M1343.18 62.2867 L1351.73 62.2867 L1351.73 72.576 L1343.18 72.576 L1343.18 62.2867 M1343.18 29.6769 L1351.73 29.6769 L1351.73 39.9662 L1343.18 39.9662 L1343.18 29.6769 Z" fill="#000000" fill-rule="evenodd" fill-opacity="1" /><path clip-path="url(#clip620)" d="M1395.92 12.096 L1404.11 12.096 L1404.11 72.576 L1395.92 72.576 L1395.92 12.096 Z" fill="#000000" fill-rule="evenodd" fill-opacity="1" /><path clip-path="url(#clip620)" d="M1457.78 45.1919 L1457.78 72.576 L1450.33 72.576 L1450.33 45.4349 Q1450.33 38.994 1447.82 35.7938 Q1445.3 32.5936 1440.28 32.5936 Q1434.25 32.5936 1430.76 36.4419 Q1427.28 40.2903 1427.28 46.9338 L1427.28 72.576 L1419.78 72.576 L1419.78 27.2059 L1427.28 27.2059 L1427.28 34.2544 Q1429.95 30.163 1433.56 28.1376 Q1437.2 26.1121 1441.94 26.1121 Q1449.76 26.1121 1453.77 30.9732 Q1457.78 35.7938 1457.78 45.1919 Z" fill="#000000" fill-rule="evenodd" fill-opacity="1" /><path clip-path="url(#clip620)" d="M1495.62 9.54393 L1495.62 15.7418 L1488.49 15.7418 Q1484.48 15.7418 1482.9 17.3622 Q1481.36 18.9825 1481.36 23.1955 L1481.36 27.2059 L1493.63 27.2059 L1493.63 32.9987 L1481.36 32.9987 L1481.36 72.576 L1473.86 72.576 L1473.86 32.9987 L1466.73 32.9987 L1466.73 27.2059 L1473.86 27.2059 L1473.86 24.0462 Q1473.86 16.471 1477.39 13.0277 Q1480.91 9.54393 1488.57 9.54393 L1495.62 9.54393 Z" fill="#000000" fill-rule="evenodd" fill-opacity="1" /><path clip-path="url(#clip620)" d="M1501.85 27.2059 L1509.31 27.2059 L1509.31 72.576 L1501.85 72.576 L1501.85 27.2059 M1501.85 9.54393 L1509.31 9.54393 L1509.31 18.9825 L1501.85 18.9825 L1501.85 9.54393 Z" fill="#000000" fill-rule="evenodd" fill-opacity="1" /><path clip-path="url(#clip620)" d="M1562.62 45.1919 L1562.62 72.576 L1555.16 72.576 L1555.16 45.4349 Q1555.16 38.994 1552.65 35.7938 Q1550.14 32.5936 1545.12 32.5936 Q1539.08 32.5936 1535.6 36.4419 Q1532.11 40.2903 1532.11 46.9338 L1532.11 72.576 L1524.62 72.576 L1524.62 27.2059 L1532.11 27.2059 L1532.11 34.2544 Q1534.79 30.163 1538.39 28.1376 Q1542.04 26.1121 1546.78 26.1121 Q1554.6 26.1121 1558.61 30.9732 Q1562.62 35.7938 1562.62 45.1919 Z" fill="#000000" fill-rule="evenodd" fill-opacity="1" /><path clip-path="url(#clip620)" d="M1577.49 27.2059 L1584.94 27.2059 L1584.94 72.576 L1577.49 72.576 L1577.49 27.2059 M1577.49 9.54393 L1584.94 9.54393 L1584.94 18.9825 L1577.49 18.9825 L1577.49 9.54393 Z" fill="#000000" fill-rule="evenodd" fill-opacity="1" /><path clip-path="url(#clip620)" d="M1633.1 49.9314 Q1633.1 41.7081 1629.7 37.0496 Q1626.34 32.3505 1620.42 32.3505 Q1614.51 32.3505 1611.11 37.0496 Q1607.75 41.7081 1607.75 49.9314 Q1607.75 58.1548 1611.11 62.8538 Q1614.51 67.5124 1620.42 67.5124 Q1626.34 67.5124 1629.7 62.8538 Q1633.1 58.1548 1633.1 49.9314 M1607.75 34.0924 Q1610.09 30.0415 1613.66 28.0971 Q1617.26 26.1121 1622.25 26.1121 Q1630.51 26.1121 1635.66 32.6746 Q1640.84 39.2371 1640.84 49.9314 Q1640.84 60.6258 1635.66 67.1883 Q1630.51 73.7508 1622.25 73.7508 Q1617.26 73.7508 1613.66 71.8063 Q1610.09 69.8214 1607.75 65.7705 L1607.75 72.576 L1600.25 72.576 L1600.25 9.54393 L1607.75 9.54393 L1607.75 34.0924 Z" fill="#000000" fill-rule="evenodd" fill-opacity="1" /><path clip-path="url(#clip620)" d="M1673.82 49.7694 Q1664.78 49.7694 1661.3 51.8354 Q1657.81 53.9013 1657.81 58.8839 Q1657.81 62.8538 1660.41 65.2034 Q1663.04 67.5124 1667.54 67.5124 Q1673.73 67.5124 1677.46 63.1374 Q1681.23 58.7219 1681.23 51.4303 L1681.23 49.7694 L1673.82 49.7694 M1688.68 46.6907 L1688.68 72.576 L1681.23 72.576 L1681.23 65.6895 Q1678.68 69.8214 1674.87 71.8063 Q1671.06 73.7508 1665.55 73.7508 Q1658.58 73.7508 1654.45 69.8619 Q1650.36 65.9325 1650.36 59.3701 Q1650.36 51.7138 1655.46 47.825 Q1660.61 43.9361 1670.78 43.9361 L1681.23 43.9361 L1681.23 43.2069 Q1681.23 38.0623 1677.83 35.2672 Q1674.46 32.4315 1668.35 32.4315 Q1664.46 32.4315 1660.77 33.3632 Q1657.09 34.295 1653.68 36.1584 L1653.68 29.2718 Q1657.77 27.692 1661.62 26.9223 Q1665.47 26.1121 1669.12 26.1121 Q1678.96 26.1121 1683.82 31.2163 Q1688.68 36.3204 1688.68 46.6907 Z" fill="#000000" fill-rule="evenodd" fill-opacity="1" /><path clip-path="url(#clip620)" d="M1741.75 45.1919 L1741.75 72.576 L1734.3 72.576 L1734.3 45.4349 Q1734.3 38.994 1731.78 35.7938 Q1729.27 32.5936 1724.25 32.5936 Q1718.21 32.5936 1714.73 36.4419 Q1711.25 40.2903 1711.25 46.9338 L1711.25 72.576 L1703.75 72.576 L1703.75 27.2059 L1711.25 27.2059 L1711.25 34.2544 Q1713.92 30.163 1717.52 28.1376 Q1721.17 26.1121 1725.91 26.1121 Q1733.73 26.1121 1737.74 30.9732 Q1741.75 35.7938 1741.75 45.1919 Z" fill="#000000" fill-rule="evenodd" fill-opacity="1" /><path clip-path="url(#clip620)" d="M1786.47 34.0924 L1786.47 9.54393 L1793.92 9.54393 L1793.92 72.576 L1786.47 72.576 L1786.47 65.7705 Q1784.12 69.8214 1780.52 71.8063 Q1776.95 73.7508 1771.93 73.7508 Q1763.71 73.7508 1758.52 67.1883 Q1753.38 60.6258 1753.38 49.9314 Q1753.38 39.2371 1758.52 32.6746 Q1763.71 26.1121 1771.93 26.1121 Q1776.95 26.1121 1780.52 28.0971 Q1784.12 30.0415 1786.47 34.0924 M1761.07 49.9314 Q1761.07 58.1548 1764.43 62.8538 Q1767.84 67.5124 1773.75 67.5124 Q1779.67 67.5124 1783.07 62.8538 Q1786.47 58.1548 1786.47 49.9314 Q1786.47 41.7081 1783.07 37.0496 Q1779.67 32.3505 1773.75 32.3505 Q1767.84 32.3505 1764.43 37.0496 Q1761.07 41.7081 1761.07 49.9314 Z" fill="#000000" fill-rule="evenodd" fill-opacity="1" /><path clip-path="url(#clip620)" d="M1830.3 27.2059 L1838.2 27.2059 L1852.38 65.2844 L1866.56 27.2059 L1874.46 27.2059 L1857.44 72.576 L1847.32 72.576 L1830.3 27.2059 Z" fill="#000000" fill-rule="evenodd" fill-opacity="1" /><path clip-path="url(#clip620)" d="M1913.67 28.5427 L1913.67 35.5912 Q1910.51 33.9709 1907.11 33.1607 Q1903.7 32.3505 1900.06 32.3505 Q1894.51 32.3505 1891.71 34.0519 Q1888.96 35.7533 1888.96 39.156 Q1888.96 41.7486 1890.94 43.2475 Q1892.93 44.7058 1898.92 46.0426 L1901.48 46.6097 Q1909.42 48.3111 1912.74 51.4303 Q1916.1 54.509 1916.1 60.0587 Q1916.1 66.3781 1911.08 70.0644 Q1906.09 73.7508 1897.34 73.7508 Q1893.7 73.7508 1889.73 73.0216 Q1885.8 72.3329 1881.42 70.9151 L1881.42 63.2184 Q1885.56 65.3654 1889.57 66.4591 Q1893.58 67.5124 1897.51 67.5124 Q1902.77 67.5124 1905.61 65.73 Q1908.44 63.9071 1908.44 60.6258 Q1908.44 57.5877 1906.38 55.9673 Q1904.35 54.3469 1897.43 52.8481 L1894.83 52.2405 Q1887.91 50.7821 1884.83 47.7845 Q1881.75 44.7463 1881.75 39.4801 Q1881.75 33.0797 1886.29 29.5959 Q1890.82 26.1121 1899.17 26.1121 Q1903.3 26.1121 1906.95 26.7198 Q1910.59 27.3274 1913.67 28.5427 Z" fill="#000000" fill-rule="evenodd" fill-opacity="1" /><path clip-path="url(#clip620)" d="M1946.28 12.096 L1997.44 12.096 L1997.44 18.9825 L1975.97 18.9825 L1975.97 72.576 L1967.75 72.576 L1967.75 18.9825 L1946.28 18.9825 L1946.28 12.096 Z" fill="#000000" fill-rule="evenodd" fill-opacity="1" /><path clip-path="url(#clip620)" d="M2045.77 16.7545 L2045.77 25.383 Q2041.64 21.5346 2036.94 19.6307 Q2032.28 17.7268 2027.01 17.7268 Q2016.64 17.7268 2011.13 24.0867 Q2005.63 30.4061 2005.63 42.3968 Q2005.63 54.3469 2011.13 60.7069 Q2016.64 67.0263 2027.01 67.0263 Q2032.28 67.0263 2036.94 65.1223 Q2041.64 63.2184 2045.77 59.3701 L2045.77 67.9175 Q2041.48 70.8341 2036.66 72.2924 Q2031.87 73.7508 2026.53 73.7508 Q2012.8 73.7508 2004.9 65.3654 Q1997 56.9395 1997 42.3968 Q1997 27.8135 2004.9 19.4281 Q2012.8 11.0023 2026.53 11.0023 Q2031.96 11.0023 2036.74 12.4606 Q2041.56 13.8784 2045.77 16.7545 Z" fill="#000000" fill-rule="evenodd" fill-opacity="1" /><path clip-path="url(#clip620)" d="M2066.59 18.8205 L2066.59 41.5461 L2076.88 41.5461 Q2082.59 41.5461 2085.71 38.5889 Q2088.83 35.6318 2088.83 30.163 Q2088.83 24.7348 2085.71 21.7777 Q2082.59 18.8205 2076.88 18.8205 L2066.59 18.8205 M2058.41 12.096 L2076.88 12.096 Q2087.05 12.096 2092.23 16.714 Q2097.46 21.2916 2097.46 30.163 Q2097.46 39.1155 2092.23 43.6931 Q2087.05 48.2706 2076.88 48.2706 L2066.59 48.2706 L2066.59 72.576 L2058.41 72.576 L2058.41 12.096 Z" fill="#000000" fill-rule="evenodd" fill-opacity="1" /><polyline clip-path="url(#clip622)" style="stroke:#0000ff; stroke-linecap:butt; stroke-linejoin:round; stroke-width:4; stroke-opacity:1; fill:none" points="
  400.956,1216.27 491.067,1144.81 581.178,1067.81 671.288,1002.37 761.399,929.296 851.51,864.796 941.621,804.552 1031.73,737.113 1121.84,690.607 1211.95,650.187 
  1302.06,637.606 1392.17,631.431 1482.29,626.883 1572.4,623.525 1662.51,621.585 1752.62,621.643 1842.73,621.029 1932.84,620.618 2022.95,620.399 2113.06,620.313 
  2203.17,620.275 2293.28,620.256 
  "/>
<polyline clip-path="url(#clip622)" style="stroke:#ff0000; stroke-linecap:butt; stroke-linejoin:round; stroke-width:4; stroke-opacity:1; fill:none" points="
  310.845,1019.9 400.956,934.857 491.067,853.608 581.178,776.251 671.288,698.625 761.399,622.019 851.51,554.052 941.621,493.192 1031.73,427.078 1121.84,356.099 
  1211.95,302.184 1302.06,225.278 1392.17,201.651 1482.29,188.75 1572.4,185.81 1662.51,183.702 1752.62,182.56 1842.73,181.845 1932.84,173.903 2022.95,173.647 
  2113.06,173.511 2203.17,173.281 2293.28,173.283 
  "/>
<circle clip-path="url(#clip622)" cx="400.956" cy="1216.27" r="14" fill="#0000ff" fill-rule="evenodd" fill-opacity="1" stroke="#000000" stroke-opacity="1" stroke-width="3.2"/>
<circle clip-path="url(#clip622)" cx="491.067" cy="1144.81" r="14" fill="#0000ff" fill-rule="evenodd" fill-opacity="1" stroke="#000000" stroke-opacity="1" stroke-width="3.2"/>
<circle clip-path="url(#clip622)" cx="581.178" cy="1067.81" r="14" fill="#0000ff" fill-rule="evenodd" fill-opacity="1" stroke="#000000" stroke-opacity="1" stroke-width="3.2"/>
<circle clip-path="url(#clip622)" cx="671.288" cy="1002.37" r="14" fill="#0000ff" fill-rule="evenodd" fill-opacity="1" stroke="#000000" stroke-opacity="1" stroke-width="3.2"/>
<circle clip-path="url(#clip622)" cx="761.399" cy="929.296" r="14" fill="#0000ff" fill-rule="evenodd" fill-opacity="1" stroke="#000000" stroke-opacity="1" stroke-width="3.2"/>
<circle clip-path="url(#clip622)" cx="851.51" cy="864.796" r="14" fill="#0000ff" fill-rule="evenodd" fill-opacity="1" stroke="#000000" stroke-opacity="1" stroke-width="3.2"/>
<circle clip-path="url(#clip622)" cx="941.621" cy="804.552" r="14" fill="#0000ff" fill-rule="evenodd" fill-opacity="1" stroke="#000000" stroke-opacity="1" stroke-width="3.2"/>
<circle clip-path="url(#clip622)" cx="1031.73" cy="737.113" r="14" fill="#0000ff" fill-rule="evenodd" fill-opacity="1" stroke="#000000" stroke-opacity="1" stroke-width="3.2"/>
<circle clip-path="url(#clip622)" cx="1121.84" cy="690.607" r="14" fill="#0000ff" fill-rule="evenodd" fill-opacity="1" stroke="#000000" stroke-opacity="1" stroke-width="3.2"/>
<circle clip-path="url(#clip622)" cx="1211.95" cy="650.187" r="14" fill="#0000ff" fill-rule="evenodd" fill-opacity="1" stroke="#000000" stroke-opacity="1" stroke-width="3.2"/>
<circle clip-path="url(#clip622)" cx="1302.06" cy="637.606" r="14" fill="#0000ff" fill-rule="evenodd" fill-opacity="1" stroke="#000000" stroke-opacity="1" stroke-width="3.2"/>
<circle clip-path="url(#clip622)" cx="1392.17" cy="631.431" r="14" fill="#0000ff" fill-rule="evenodd" fill-opacity="1" stroke="#000000" stroke-opacity="1" stroke-width="3.2"/>
<circle clip-path="url(#clip622)" cx="1482.29" cy="626.883" r="14" fill="#0000ff" fill-rule="evenodd" fill-opacity="1" stroke="#000000" stroke-opacity="1" stroke-width="3.2"/>
<circle clip-path="url(#clip622)" cx="1572.4" cy="623.525" r="14" fill="#0000ff" fill-rule="evenodd" fill-opacity="1" stroke="#000000" stroke-opacity="1" stroke-width="3.2"/>
<circle clip-path="url(#clip622)" cx="1662.51" cy="621.585" r="14" fill="#0000ff" fill-rule="evenodd" fill-opacity="1" stroke="#000000" stroke-opacity="1" stroke-width="3.2"/>
<circle clip-path="url(#clip622)" cx="1752.62" cy="621.643" r="14" fill="#0000ff" fill-rule="evenodd" fill-opacity="1" stroke="#000000" stroke-opacity="1" stroke-width="3.2"/>
<circle clip-path="url(#clip622)" cx="1842.73" cy="621.029" r="14" fill="#0000ff" fill-rule="evenodd" fill-opacity="1" stroke="#000000" stroke-opacity="1" stroke-width="3.2"/>
<circle clip-path="url(#clip622)" cx="1932.84" cy="620.618" r="14" fill="#0000ff" fill-rule="evenodd" fill-opacity="1" stroke="#000000" stroke-opacity="1" stroke-width="3.2"/>
<circle clip-path="url(#clip622)" cx="2022.95" cy="620.399" r="14" fill="#0000ff" fill-rule="evenodd" fill-opacity="1" stroke="#000000" stroke-opacity="1" stroke-width="3.2"/>
<circle clip-path="url(#clip622)" cx="2113.06" cy="620.313" r="14" fill="#0000ff" fill-rule="evenodd" fill-opacity="1" stroke="#000000" stroke-opacity="1" stroke-width="3.2"/>
<circle clip-path="url(#clip622)" cx="2203.17" cy="620.275" r="14" fill="#0000ff" fill-rule="evenodd" fill-opacity="1" stroke="#000000" stroke-opacity="1" stroke-width="3.2"/>
<circle clip-path="url(#clip622)" cx="2293.28" cy="620.256" r="14" fill="#0000ff" fill-rule="evenodd" fill-opacity="1" stroke="#000000" stroke-opacity="1" stroke-width="3.2"/>
<circle clip-path="url(#clip622)" cx="310.845" cy="1019.9" r="14" fill="#ff0000" fill-rule="evenodd" fill-opacity="1" stroke="#000000" stroke-opacity="1" stroke-width="3.2"/>
<circle clip-path="url(#clip622)" cx="400.956" cy="934.857" r="14" fill="#ff0000" fill-rule="evenodd" fill-opacity="1" stroke="#000000" stroke-opacity="1" stroke-width="3.2"/>
<circle clip-path="url(#clip622)" cx="491.067" cy="853.608" r="14" fill="#ff0000" fill-rule="evenodd" fill-opacity="1" stroke="#000000" stroke-opacity="1" stroke-width="3.2"/>
<circle clip-path="url(#clip622)" cx="581.178" cy="776.251" r="14" fill="#ff0000" fill-rule="evenodd" fill-opacity="1" stroke="#000000" stroke-opacity="1" stroke-width="3.2"/>
<circle clip-path="url(#clip622)" cx="671.288" cy="698.625" r="14" fill="#ff0000" fill-rule="evenodd" fill-opacity="1" stroke="#000000" stroke-opacity="1" stroke-width="3.2"/>
<circle clip-path="url(#clip622)" cx="761.399" cy="622.019" r="14" fill="#ff0000" fill-rule="evenodd" fill-opacity="1" stroke="#000000" stroke-opacity="1" stroke-width="3.2"/>
<circle clip-path="url(#clip622)" cx="851.51" cy="554.052" r="14" fill="#ff0000" fill-rule="evenodd" fill-opacity="1" stroke="#000000" stroke-opacity="1" stroke-width="3.2"/>
<circle clip-path="url(#clip622)" cx="941.621" cy="493.192" r="14" fill="#ff0000" fill-rule="evenodd" fill-opacity="1" stroke="#000000" stroke-opacity="1" stroke-width="3.2"/>
<circle clip-path="url(#clip622)" cx="1031.73" cy="427.078" r="14" fill="#ff0000" fill-rule="evenodd" fill-opacity="1" stroke="#000000" stroke-opacity="1" stroke-width="3.2"/>
<circle clip-path="url(#clip622)" cx="1121.84" cy="356.099" r="14" fill="#ff0000" fill-rule="evenodd" fill-opacity="1" stroke="#000000" stroke-opacity="1" stroke-width="3.2"/>
<circle clip-path="url(#clip622)" cx="1211.95" cy="302.184" r="14" fill="#ff0000" fill-rule="evenodd" fill-opacity="1" stroke="#000000" stroke-opacity="1" stroke-width="3.2"/>
<circle clip-path="url(#clip622)" cx="1302.06" cy="225.278" r="14" fill="#ff0000" fill-rule="evenodd" fill-opacity="1" stroke="#000000" stroke-opacity="1" stroke-width="3.2"/>
<circle clip-path="url(#clip622)" cx="1392.17" cy="201.651" r="14" fill="#ff0000" fill-rule="evenodd" fill-opacity="1" stroke="#000000" stroke-opacity="1" stroke-width="3.2"/>
<circle clip-path="url(#clip622)" cx="1482.29" cy="188.75" r="14" fill="#ff0000" fill-rule="evenodd" fill-opacity="1" stroke="#000000" stroke-opacity="1" stroke-width="3.2"/>
<circle clip-path="url(#clip622)" cx="1572.4" cy="185.81" r="14" fill="#ff0000" fill-rule="evenodd" fill-opacity="1" stroke="#000000" stroke-opacity="1" stroke-width="3.2"/>
<circle clip-path="url(#clip622)" cx="1662.51" cy="183.702" r="14" fill="#ff0000" fill-rule="evenodd" fill-opacity="1" stroke="#000000" stroke-opacity="1" stroke-width="3.2"/>
<circle clip-path="url(#clip622)" cx="1752.62" cy="182.56" r="14" fill="#ff0000" fill-rule="evenodd" fill-opacity="1" stroke="#000000" stroke-opacity="1" stroke-width="3.2"/>
<circle clip-path="url(#clip622)" cx="1842.73" cy="181.845" r="14" fill="#ff0000" fill-rule="evenodd" fill-opacity="1" stroke="#000000" stroke-opacity="1" stroke-width="3.2"/>
<circle clip-path="url(#clip622)" cx="1932.84" cy="173.903" r="14" fill="#ff0000" fill-rule="evenodd" fill-opacity="1" stroke="#000000" stroke-opacity="1" stroke-width="3.2"/>
<circle clip-path="url(#clip622)" cx="2022.95" cy="173.647" r="14" fill="#ff0000" fill-rule="evenodd" fill-opacity="1" stroke="#000000" stroke-opacity="1" stroke-width="3.2"/>
<circle clip-path="url(#clip622)" cx="2113.06" cy="173.511" r="14" fill="#ff0000" fill-rule="evenodd" fill-opacity="1" stroke="#000000" stroke-opacity="1" stroke-width="3.2"/>
<circle clip-path="url(#clip622)" cx="2203.17" cy="173.281" r="14" fill="#ff0000" fill-rule="evenodd" fill-opacity="1" stroke="#000000" stroke-opacity="1" stroke-width="3.2"/>
<circle clip-path="url(#clip622)" cx="2293.28" cy="173.283" r="14" fill="#ff0000" fill-rule="evenodd" fill-opacity="1" stroke="#000000" stroke-opacity="1" stroke-width="3.2"/>
<path clip-path="url(#clip620)" d="
M321.418 321.906 L782.335 321.906 L782.335 166.386 L321.418 166.386  Z
  " fill="#ffffff" fill-rule="evenodd" fill-opacity="1"/>
<polyline clip-path="url(#clip620)" style="stroke:#000000; stroke-linecap:butt; stroke-linejoin:round; stroke-width:4; stroke-opacity:1; fill:none" points="
  321.418,321.906 782.335,321.906 782.335,166.386 321.418,166.386 321.418,321.906 
  "/>
<polyline clip-path="url(#clip620)" style="stroke:#0000ff; stroke-linecap:butt; stroke-linejoin:round; stroke-width:4; stroke-opacity:1; fill:none" points="
  344.767,218.226 484.859,218.226 
  "/>
<path clip-path="url(#clip620)" d="M508.208 200.946 L537.444 200.946 L537.444 204.881 L525.175 204.881 L525.175 235.506 L520.476 235.506 L520.476 204.881 L508.208 204.881 L508.208 200.946 Z" fill="#000000" fill-rule="evenodd" fill-opacity="1" /><path clip-path="url(#clip620)" d="M565.06 203.608 L565.06 208.539 Q562.698 206.34 560.013 205.252 Q557.351 204.164 554.342 204.164 Q548.416 204.164 545.268 207.798 Q542.12 211.409 542.12 218.261 Q542.12 225.09 545.268 228.724 Q548.416 232.335 554.342 232.335 Q557.351 232.335 560.013 231.247 Q562.698 230.159 565.06 227.96 L565.06 232.844 Q562.606 234.511 559.851 235.344 Q557.12 236.178 554.064 236.178 Q546.217 236.178 541.703 231.386 Q537.189 226.571 537.189 218.261 Q537.189 209.928 541.703 205.136 Q546.217 200.321 554.064 200.321 Q557.166 200.321 559.898 201.155 Q562.652 201.965 565.06 203.608 Z" fill="#000000" fill-rule="evenodd" fill-opacity="1" /><path clip-path="url(#clip620)" d="M576.958 204.789 L576.958 217.775 L582.837 217.775 Q586.101 217.775 587.883 216.085 Q589.666 214.395 589.666 211.27 Q589.666 208.168 587.883 206.479 Q586.101 204.789 582.837 204.789 L576.958 204.789 M572.282 200.946 L582.837 200.946 Q588.647 200.946 591.61 203.585 Q594.596 206.201 594.596 211.27 Q594.596 216.386 591.61 219.002 Q588.647 221.617 582.837 221.617 L576.958 221.617 L576.958 235.506 L572.282 235.506 L572.282 200.946 Z" fill="#000000" fill-rule="evenodd" fill-opacity="1" /><polyline clip-path="url(#clip620)" style="stroke:#ff0000; stroke-linecap:butt; stroke-linejoin:round; stroke-width:4; stroke-opacity:1; fill:none" points="
  344.767,270.066 484.859,270.066 
  "/>
<path clip-path="url(#clip620)" d="M508.208 252.786 L512.884 252.786 L512.884 287.346 L508.208 287.346 L508.208 252.786 Z" fill="#000000" fill-rule="evenodd" fill-opacity="1" /><path clip-path="url(#clip620)" d="M543.555 271.698 L543.555 287.346 L539.296 287.346 L539.296 271.837 Q539.296 268.157 537.861 266.328 Q536.425 264.499 533.555 264.499 Q530.106 264.499 528.115 266.698 Q526.125 268.897 526.125 272.694 L526.125 287.346 L521.842 287.346 L521.842 261.42 L526.125 261.42 L526.125 265.448 Q527.652 263.11 529.712 261.953 Q531.796 260.795 534.504 260.795 Q538.972 260.795 541.263 263.573 Q543.555 266.328 543.555 271.698 Z" fill="#000000" fill-rule="evenodd" fill-opacity="1" /><path clip-path="url(#clip620)" d="M565.175 251.328 L565.175 254.87 L561.101 254.87 Q558.81 254.87 557.907 255.796 Q557.027 256.721 557.027 259.129 L557.027 261.42 L564.041 261.42 L564.041 264.731 L557.027 264.731 L557.027 287.346 L552.745 287.346 L552.745 264.731 L548.671 264.731 L548.671 261.42 L552.745 261.42 L552.745 259.615 Q552.745 255.286 554.759 253.319 Q556.773 251.328 561.147 251.328 L565.175 251.328 Z" fill="#000000" fill-rule="evenodd" fill-opacity="1" /><path clip-path="url(#clip620)" d="M568.74 261.42 L572.999 261.42 L572.999 287.346 L568.74 287.346 L568.74 261.42 M568.74 251.328 L572.999 251.328 L572.999 256.721 L568.74 256.721 L568.74 251.328 Z" fill="#000000" fill-rule="evenodd" fill-opacity="1" /><path clip-path="url(#clip620)" d="M603.462 271.698 L603.462 287.346 L599.203 287.346 L599.203 271.837 Q599.203 268.157 597.768 266.328 Q596.332 264.499 593.462 264.499 Q590.013 264.499 588.022 266.698 Q586.032 268.897 586.032 272.694 L586.032 287.346 L581.749 287.346 L581.749 261.42 L586.032 261.42 L586.032 265.448 Q587.559 263.11 589.62 261.953 Q591.703 260.795 594.411 260.795 Q598.879 260.795 601.17 263.573 Q603.462 266.328 603.462 271.698 Z" fill="#000000" fill-rule="evenodd" fill-opacity="1" /><path clip-path="url(#clip620)" d="M611.957 261.42 L616.217 261.42 L616.217 287.346 L611.957 287.346 L611.957 261.42 M611.957 251.328 L616.217 251.328 L616.217 256.721 L611.957 256.721 L611.957 251.328 Z" fill="#000000" fill-rule="evenodd" fill-opacity="1" /><path clip-path="url(#clip620)" d="M643.74 274.407 Q643.74 269.707 641.795 267.045 Q639.874 264.36 636.494 264.36 Q633.115 264.36 631.17 267.045 Q629.249 269.707 629.249 274.407 Q629.249 279.106 631.17 281.791 Q633.115 284.453 636.494 284.453 Q639.874 284.453 641.795 281.791 Q643.74 279.106 643.74 274.407 M629.249 265.356 Q630.592 263.041 632.629 261.93 Q634.689 260.795 637.536 260.795 Q642.258 260.795 645.198 264.545 Q648.161 268.295 648.161 274.407 Q648.161 280.518 645.198 284.268 Q642.258 288.018 637.536 288.018 Q634.689 288.018 632.629 286.906 Q630.592 285.772 629.249 283.457 L629.249 287.346 L624.967 287.346 L624.967 251.328 L629.249 251.328 L629.249 265.356 Z" fill="#000000" fill-rule="evenodd" fill-opacity="1" /><path clip-path="url(#clip620)" d="M667.003 274.314 Q661.841 274.314 659.851 275.494 Q657.86 276.675 657.86 279.522 Q657.86 281.791 659.341 283.133 Q660.846 284.453 663.415 284.453 Q666.957 284.453 669.087 281.953 Q671.239 279.43 671.239 275.263 L671.239 274.314 L667.003 274.314 M675.499 272.555 L675.499 287.346 L671.239 287.346 L671.239 283.411 Q669.781 285.772 667.605 286.906 Q665.429 288.018 662.281 288.018 Q658.3 288.018 655.939 285.795 Q653.601 283.55 653.601 279.8 Q653.601 275.425 656.517 273.203 Q659.457 270.981 665.267 270.981 L671.239 270.981 L671.239 270.564 Q671.239 267.624 669.295 266.027 Q667.374 264.407 663.878 264.407 Q661.656 264.407 659.55 264.939 Q657.443 265.471 655.499 266.536 L655.499 262.601 Q657.837 261.698 660.036 261.258 Q662.235 260.795 664.318 260.795 Q669.943 260.795 672.721 263.712 Q675.499 266.629 675.499 272.555 Z" fill="#000000" fill-rule="evenodd" fill-opacity="1" /><path clip-path="url(#clip620)" d="M705.823 271.698 L705.823 287.346 L701.563 287.346 L701.563 271.837 Q701.563 268.157 700.128 266.328 Q698.693 264.499 695.823 264.499 Q692.374 264.499 690.383 266.698 Q688.392 268.897 688.392 272.694 L688.392 287.346 L684.11 287.346 L684.11 261.42 L688.392 261.42 L688.392 265.448 Q689.92 263.11 691.98 261.953 Q694.063 260.795 696.772 260.795 Q701.239 260.795 703.531 263.573 Q705.823 266.328 705.823 271.698 Z" fill="#000000" fill-rule="evenodd" fill-opacity="1" /><path clip-path="url(#clip620)" d="M731.378 265.356 L731.378 251.328 L735.637 251.328 L735.637 287.346 L731.378 287.346 L731.378 283.457 Q730.035 285.772 727.975 286.906 Q725.938 288.018 723.068 288.018 Q718.369 288.018 715.406 284.268 Q712.466 280.518 712.466 274.407 Q712.466 268.295 715.406 264.545 Q718.369 260.795 723.068 260.795 Q725.938 260.795 727.975 261.93 Q730.035 263.041 731.378 265.356 M716.864 274.407 Q716.864 279.106 718.786 281.791 Q720.73 284.453 724.11 284.453 Q727.489 284.453 729.434 281.791 Q731.378 279.106 731.378 274.407 Q731.378 269.707 729.434 267.045 Q727.489 264.36 724.11 264.36 Q720.73 264.36 718.786 267.045 Q716.864 269.707 716.864 274.407 Z" fill="#000000" fill-rule="evenodd" fill-opacity="1" /></svg>
