<?xml version="1.0" encoding="UTF-8" standalone="no"?>
<!DOCTYPE svg PUBLIC "-//W3C//DTD SVG 1.0//EN" "http://www.w3.org/TR/2001/PR-SVG-20010719/DTD/svg10.dtd">
<svg width="27cm" height="15cm" viewBox="50 56 522 287" xmlns="http://www.w3.org/2000/svg" xmlns:xlink="http://www.w3.org/1999/xlink">
  <text font-size="12.7998" style="fill: #000000;text-anchor:start;font-family:sans-serif;font-style:normal;font-weight:normal" x="240" y="140">
    <tspan x="240" y="140"></tspan>
  </text>
  <g>
    <rect style="fill: #00ff00" x="130.645" y="100" width="38.7097" height="40"/>
    <rect style="fill: none; fill-opacity:0; stroke-width: 2; stroke: #000000" x="130.645" y="100" width="38.7097" height="40"/>
    <rect style="fill: none; fill-opacity:0; stroke-width: 2; stroke: #000000" x="130.645" y="100" width="38.7097" height="40"/>
  </g>
  <g>
    <rect style="fill: #00ff00" x="170" y="100" width="38.7097" height="40"/>
    <rect style="fill: none; fill-opacity:0; stroke-width: 2; stroke: #000000" x="170" y="100" width="38.7097" height="40"/>
    <rect style="fill: none; fill-opacity:0; stroke-width: 2; stroke: #000000" x="170" y="100" width="38.7097" height="40"/>
  </g>
  <g>
    <rect style="fill: #00ff00" x="210" y="100" width="38.7097" height="40"/>
    <rect style="fill: none; fill-opacity:0; stroke-width: 2; stroke: #000000" x="210" y="100" width="38.7097" height="40"/>
    <rect style="fill: none; fill-opacity:0; stroke-width: 2; stroke: #000000" x="210" y="100" width="38.7097" height="40"/>
  </g>
  <g>
    <rect style="fill: #00ff00" x="250" y="100" width="38.7097" height="40"/>
    <rect style="fill: none; fill-opacity:0; stroke-width: 2; stroke: #000000" x="250" y="100" width="38.7097" height="40"/>
    <rect style="fill: none; fill-opacity:0; stroke-width: 2; stroke: #000000" x="250" y="100" width="38.7097" height="40"/>
  </g>
  <g>
    <rect style="fill: #00ff00" x="290" y="100" width="38.7097" height="40"/>
    <rect style="fill: none; fill-opacity:0; stroke-width: 2; stroke: #000000" x="290" y="100" width="38.7097" height="40"/>
    <rect style="fill: none; fill-opacity:0; stroke-width: 2; stroke: #000000" x="290" y="100" width="38.7097" height="40"/>
  </g>
  <g>
    <rect style="fill: #ffffff" x="490" y="100" width="38.7097" height="40"/>
    <rect style="fill: none; fill-opacity:0; stroke-width: 2; stroke: #000000" x="490" y="100" width="38.7097" height="40"/>
    <rect style="fill: none; fill-opacity:0; stroke-width: 2; stroke: #000000" x="490" y="100" width="38.7097" height="40"/>
  </g>
  <g>
    <rect style="fill: #ffffff" x="370" y="100" width="38.7097" height="40"/>
    <rect style="fill: none; fill-opacity:0; stroke-width: 2; stroke: #000000" x="370" y="100" width="38.7097" height="40"/>
    <rect style="fill: none; fill-opacity:0; stroke-width: 2; stroke: #000000" x="370" y="100" width="38.7097" height="40"/>
  </g>
  <g>
    <rect style="fill: #ffffff" x="410" y="100" width="38.7097" height="40"/>
    <rect style="fill: none; fill-opacity:0; stroke-width: 2; stroke: #000000" x="410" y="100" width="38.7097" height="40"/>
    <rect style="fill: none; fill-opacity:0; stroke-width: 2; stroke: #000000" x="410" y="100" width="38.7097" height="40"/>
  </g>
  <g>
    <rect style="fill: #ffffff" x="450" y="100" width="38.7097" height="40"/>
    <rect style="fill: none; fill-opacity:0; stroke-width: 2; stroke: #000000" x="450" y="100" width="38.7097" height="40"/>
    <rect style="fill: none; fill-opacity:0; stroke-width: 2; stroke: #000000" x="450" y="100" width="38.7097" height="40"/>
  </g>
  <g>
    <line style="fill: none; fill-opacity:0; stroke-width: 2; stroke: #000000" x1="141" y1="320" x2="369" y2="320"/>
    <polygon style="fill: #000000" points="141,315 131,320 141,325 "/>
    <polygon style="fill: none; fill-opacity:0; stroke-width: 2; stroke: #000000" points="141,315 131,320 141,325 "/>
    <polygon style="fill: #000000" points="369,325 379,320 369,315 "/>
    <polygon style="fill: none; fill-opacity:0; stroke-width: 2; stroke: #000000" points="369,325 379,320 369,315 "/>
  </g>
  <g>
    <line style="fill: none; fill-opacity:0; stroke-width: 2; stroke: #000000" x1="381" y1="80" x2="559" y2="80"/>
    <polygon style="fill: #000000" points="381,75 371,80 381,85 "/>
    <polygon style="fill: none; fill-opacity:0; stroke-width: 2; stroke: #000000" points="381,75 371,80 381,85 "/>
    <polygon style="fill: #000000" points="559,85 569,80 559,75 "/>
    <polygon style="fill: none; fill-opacity:0; stroke-width: 2; stroke: #000000" points="559,85 569,80 559,75 "/>
  </g>
  <g>
    <rect style="fill: #ffffff" x="530" y="100" width="38.7097" height="40"/>
    <rect style="fill: none; fill-opacity:0; stroke-width: 2; stroke: #000000" x="530" y="100" width="38.7097" height="40"/>
    <rect style="fill: none; fill-opacity:0; stroke-width: 2; stroke: #000000" x="530" y="100" width="38.7097" height="40"/>
  </g>
  <g>
    <rect style="fill: #ffa500" x="130" y="270" width="38.7097" height="40"/>
    <rect style="fill: none; fill-opacity:0; stroke-width: 2; stroke: #000000" x="130" y="270" width="38.7097" height="40"/>
    <rect style="fill: none; fill-opacity:0; stroke-width: 2; stroke: #000000" x="130" y="270" width="38.7097" height="40"/>
  </g>
  <g>
    <rect style="fill: #ffa500" x="170" y="270" width="38.7097" height="40"/>
    <rect style="fill: none; fill-opacity:0; stroke-width: 2; stroke: #000000" x="170" y="270" width="38.7097" height="40"/>
    <rect style="fill: none; fill-opacity:0; stroke-width: 2; stroke: #000000" x="170" y="270" width="38.7097" height="40"/>
  </g>
  <g>
    <rect style="fill: #ffa500" x="210" y="270" width="38.7097" height="40"/>
    <rect style="fill: none; fill-opacity:0; stroke-width: 2; stroke: #000000" x="210" y="270" width="38.7097" height="40"/>
    <rect style="fill: none; fill-opacity:0; stroke-width: 2; stroke: #000000" x="210" y="270" width="38.7097" height="40"/>
  </g>
  <text font-size="12.7998" style="fill: #000000;text-anchor:start;font-family:sans-serif;font-style:normal;font-weight:normal" x="220" y="70">
    <tspan x="220" y="70">Local nodes</tspan>
  </text>
  <text font-size="12.7998" style="fill: #000000;text-anchor:start;font-family:sans-serif;font-style:normal;font-weight:normal" x="430" y="70">
    <tspan x="430" y="70">ghost nodes</tspan>
  </text>
  <g>
    <rect style="fill: #ffa500" x="250" y="270" width="38.7097" height="40"/>
    <rect style="fill: none; fill-opacity:0; stroke-width: 2; stroke: #000000" x="250" y="270" width="38.7097" height="40"/>
    <rect style="fill: none; fill-opacity:0; stroke-width: 2; stroke: #000000" x="250" y="270" width="38.7097" height="40"/>
  </g>
  <g>
    <rect style="fill: #ffa500" x="290" y="270" width="38.7097" height="40"/>
    <rect style="fill: none; fill-opacity:0; stroke-width: 2; stroke: #000000" x="290" y="270" width="38.7097" height="40"/>
    <rect style="fill: none; fill-opacity:0; stroke-width: 2; stroke: #000000" x="290" y="270" width="38.7097" height="40"/>
  </g>
  <g>
    <rect style="fill: #ffffff" x="460" y="270" width="38.7097" height="40"/>
    <rect style="fill: none; fill-opacity:0; stroke-width: 2; stroke: #000000" x="460" y="270" width="38.7097" height="40"/>
    <rect style="fill: none; fill-opacity:0; stroke-width: 2; stroke: #000000" x="460" y="270" width="38.7097" height="40"/>
  </g>
  <g>
    <rect style="fill: #ffffff" x="420" y="270" width="38.7097" height="40"/>
    <rect style="fill: none; fill-opacity:0; stroke-width: 2; stroke: #000000" x="420" y="270" width="38.7097" height="40"/>
    <rect style="fill: none; fill-opacity:0; stroke-width: 2; stroke: #000000" x="420" y="270" width="38.7097" height="40"/>
  </g>
  <g>
    <rect style="fill: #ffffff" x="380" y="270" width="38.7097" height="40"/>
    <rect style="fill: none; fill-opacity:0; stroke-width: 2; stroke: #000000" x="380" y="270" width="38.7097" height="40"/>
    <rect style="fill: none; fill-opacity:0; stroke-width: 2; stroke: #000000" x="380" y="270" width="38.7097" height="40"/>
  </g>
  <g>
    <rect style="fill: #ffffff" x="500" y="270" width="38.7097" height="40"/>
    <rect style="fill: none; fill-opacity:0; stroke-width: 2; stroke: #000000" x="500" y="270" width="38.7097" height="40"/>
    <rect style="fill: none; fill-opacity:0; stroke-width: 2; stroke: #000000" x="500" y="270" width="38.7097" height="40"/>
  </g>
  <text font-size="12.7998" style="fill: #000000;text-anchor:start;font-family:sans-serif;font-style:normal;font-weight:normal" x="190" y="340">
    <tspan x="190" y="340">Local nodes</tspan>
  </text>
  <g>
    <line style="fill: none; fill-opacity:0; stroke-width: 2; stroke: #000000" x1="141" y1="80" x2="359" y2="80"/>
    <polygon style="fill: #000000" points="141,75 131,80 141,85 "/>
    <polygon style="fill: none; fill-opacity:0; stroke-width: 2; stroke: #000000" points="141,75 131,80 141,85 "/>
    <polygon style="fill: #000000" points="359,85 369,80 359,75 "/>
    <polygon style="fill: none; fill-opacity:0; stroke-width: 2; stroke: #000000" points="359,85 369,80 359,75 "/>
  </g>
  <g>
    <ellipse style="fill: #000000" cx="362.75" cy="118.75" rx="2.75" ry="2.75"/>
    <ellipse style="fill: none; fill-opacity:0; stroke-width: 1; stroke: #000000" cx="362.75" cy="118.75" rx="2.75" ry="2.75"/>
    <ellipse style="fill: none; fill-opacity:0; stroke-width: 1; stroke: #000000" cx="362.75" cy="118.75" rx="2.75" ry="2.75"/>
  </g>
  <g>
    <ellipse style="fill: #000000" cx="338.75" cy="118.75" rx="2.75" ry="2.75"/>
    <ellipse style="fill: none; fill-opacity:0; stroke-width: 1; stroke: #000000" cx="338.75" cy="118.75" rx="2.75" ry="2.75"/>
    <ellipse style="fill: none; fill-opacity:0; stroke-width: 1; stroke: #000000" cx="338.75" cy="118.75" rx="2.75" ry="2.75"/>
  </g>
  <g>
    <ellipse style="fill: #000000" cx="350.75" cy="118.75" rx="2.75" ry="2.75"/>
    <ellipse style="fill: none; fill-opacity:0; stroke-width: 1; stroke: #000000" cx="350.75" cy="118.75" rx="2.75" ry="2.75"/>
    <ellipse style="fill: none; fill-opacity:0; stroke-width: 1; stroke: #000000" cx="350.75" cy="118.75" rx="2.75" ry="2.75"/>
  </g>
  <g>
    <ellipse style="fill: #000000" cx="366.75" cy="286.75" rx="2.75" ry="2.75"/>
    <ellipse style="fill: none; fill-opacity:0; stroke-width: 1; stroke: #000000" cx="366.75" cy="286.75" rx="2.75" ry="2.75"/>
    <ellipse style="fill: none; fill-opacity:0; stroke-width: 1; stroke: #000000" cx="366.75" cy="286.75" rx="2.75" ry="2.75"/>
  </g>
  <g>
    <ellipse style="fill: #000000" cx="342.75" cy="286.75" rx="2.75" ry="2.75"/>
    <ellipse style="fill: none; fill-opacity:0; stroke-width: 1; stroke: #000000" cx="342.75" cy="286.75" rx="2.75" ry="2.75"/>
    <ellipse style="fill: none; fill-opacity:0; stroke-width: 1; stroke: #000000" cx="342.75" cy="286.75" rx="2.75" ry="2.75"/>
  </g>
  <g>
    <ellipse style="fill: #000000" cx="354.75" cy="286.75" rx="2.75" ry="2.75"/>
    <ellipse style="fill: none; fill-opacity:0; stroke-width: 1; stroke: #000000" cx="354.75" cy="286.75" rx="2.75" ry="2.75"/>
    <ellipse style="fill: none; fill-opacity:0; stroke-width: 1; stroke: #000000" cx="354.75" cy="286.75" rx="2.75" ry="2.75"/>
  </g>
  <text font-size="12.7998" style="fill: #000000;text-anchor:start;font-family:sans-serif;font-style:normal;font-weight:normal" x="143.667" y="123.667">
    <tspan x="143.667" y="123.667">35</tspan>
  </text>
  <text font-size="12.7998" style="fill: #000000;text-anchor:start;font-family:sans-serif;font-style:normal;font-weight:normal" x="184.355" y="123">
    <tspan x="184.355" y="123">30</tspan>
  </text>
  <text font-size="12.7998" style="fill: #000000;text-anchor:start;font-family:sans-serif;font-style:normal;font-weight:normal" x="224.022" y="122.667">
    <tspan x="224.022" y="122.667">21</tspan>
  </text>
  <text font-size="12.7998" style="fill: #000000;text-anchor:start;font-family:sans-serif;font-style:normal;font-weight:normal" x="184.022" y="291.667">
    <tspan x="184.022" y="291.667">67</tspan>
  </text>
  <text font-size="12.7998" style="fill: #000000;text-anchor:start;font-family:sans-serif;font-style:normal;font-weight:normal" x="144.355" y="292">
    <tspan x="144.355" y="292">68</tspan>
  </text>
  <text font-size="12.7998" style="fill: #000000;text-anchor:start;font-family:sans-serif;font-style:normal;font-weight:normal" x="264.022" y="292.333">
    <tspan x="264.022" y="292.333">83</tspan>
  </text>
  <text font-size="12.7998" style="fill: #000000;text-anchor:start;font-family:sans-serif;font-style:normal;font-weight:normal" x="383.022" y="122.667">
    <tspan x="383.022" y="122.667">68</tspan>
  </text>
  <text font-size="12.7998" style="fill: #000000;text-anchor:start;font-family:sans-serif;font-style:normal;font-weight:normal" x="422.355" y="122">
    <tspan x="422.355" y="122">67</tspan>
  </text>
  <text font-size="12.7998" style="fill: #000000;text-anchor:start;font-family:sans-serif;font-style:normal;font-weight:normal" x="399.355" y="290">
    <tspan x="399.355" y="290"></tspan>
  </text>
  <text font-size="12.7998" style="fill: #000000;text-anchor:start;font-family:sans-serif;font-style:normal;font-weight:normal" x="395.022" y="292">
    <tspan x="395.022" y="292">30</tspan>
  </text>
  <text font-size="12.7998" style="fill: #000000;text-anchor:start;font-family:sans-serif;font-style:normal;font-weight:normal" x="433.688" y="292.333">
    <tspan x="433.688" y="292.333">34</tspan>
  </text>
  <text font-size="12.7998" style="fill: #000000;text-anchor:start;font-family:sans-serif;font-style:normal;font-weight:normal" x="474.022" y="293">
    <tspan x="474.022" y="293">36</tspan>
  </text>
  <g>
    <path style="fill: none; fill-opacity:0; stroke-width: 2; stroke: #ff0000" d="M 189.355 140 C 193.355,216 335.355,178 393.073,260.97"/>
    <polygon style="fill: #ff0000" points="388.969,263.825 398.784,269.179 397.178,258.115 "/>
    <polygon style="fill: none; fill-opacity:0; stroke-width: 2; stroke: #ff0000" points="388.969,263.825 398.784,269.179 397.178,258.115 "/>
  </g>
  <text font-size="12.7998" style="fill: #000000;text-anchor:start;font-family:sans-serif;font-style:normal;font-weight:normal" x="262" y="122.5">
    <tspan x="262" y="122.5">34</tspan>
  </text>
  <g>
    <path style="fill: none; fill-opacity:0; stroke-width: 2; stroke: #ff0000" d="M 269.355 140 C 290,210 380,180 433.299,260.817"/>
    <polygon style="fill: #ff0000" points="429.125,263.57 438.804,269.165 437.473,258.064 "/>
    <polygon style="fill: none; fill-opacity:0; stroke-width: 2; stroke: #ff0000" points="429.125,263.57 438.804,269.165 437.473,258.064 "/>
  </g>
  <g>
    <path style="fill: none; fill-opacity:0; stroke-width: 2; stroke: #a020f0" d="M 149.355 270 C 199.355,160 340,260 385.171,150.173"/>
    <polygon style="fill: #a020f0" points="389.795,152.075 388.974,140.925 380.547,148.271 "/>
    <polygon style="fill: none; fill-opacity:0; stroke-width: 2; stroke: #a020f0" points="389.795,152.075 388.974,140.925 380.547,148.271 "/>
  </g>
  <g>
    <path style="fill: none; fill-opacity:0; stroke-width: 2; stroke: #a020f0" d="M 189.355 270 C 260,180 380,260 425.171,150.173"/>
    <polygon style="fill: #a020f0" points="429.795,152.075 428.974,140.925 420.547,148.271 "/>
    <polygon style="fill: none; fill-opacity:0; stroke-width: 2; stroke: #a020f0" points="429.795,152.075 428.974,140.925 420.547,148.271 "/>
  </g>
  <text font-size="12.7998" style="fill: #000000;text-anchor:start;font-family:sans-serif;font-style:normal;font-weight:normal" x="509.355" y="120">
    <tspan x="509.355" y="120">83</tspan>
  </text>
  <g>
    <path style="fill: none; fill-opacity:0; stroke-width: 2; stroke: #a020f0" d="M 269.355 270 C 340,180 460,260 505.171,150.173"/>
    <polygon style="fill: #a020f0" points="509.795,152.075 508.974,140.925 500.547,148.271 "/>
    <polygon style="fill: none; fill-opacity:0; stroke-width: 2; stroke: #a020f0" points="509.795,152.075 508.974,140.925 500.547,148.271 "/>
  </g>
  <g>
    <line style="fill: none; fill-opacity:0; stroke-width: 2; stroke: #000000" x1="391" y1="320" x2="529" y2="320"/>
    <polygon style="fill: #000000" points="391,315 381,320 391,325 "/>
    <polygon style="fill: none; fill-opacity:0; stroke-width: 2; stroke: #000000" points="391,315 381,320 391,325 "/>
    <polygon style="fill: #000000" points="529,325 539,320 529,315 "/>
    <polygon style="fill: none; fill-opacity:0; stroke-width: 2; stroke: #000000" points="529,325 539,320 529,315 "/>
  </g>
  <text font-size="12.7998" style="fill: #000000;text-anchor:start;font-family:sans-serif;font-style:normal;font-weight:normal" x="420" y="340">
    <tspan x="420" y="340">ghost nodes</tspan>
  </text>
  <text font-size="12.7998" style="fill: #000000;text-anchor:start;font-family:sans-serif;font-style:normal;font-weight:normal" x="110" y="200">
    <tspan x="110" y="200">MPI communication</tspan>
    <tspan x="110" y="216">(data transfer)</tspan>
  </text>
  <text font-size="12.7998" style="fill: #000000;text-anchor:start;font-family:sans-serif;font-style:normal;font-weight:normal" x="50" y="120">
    <tspan x="50" y="120">process X</tspan>
  </text>
  <text font-size="12.7998" style="fill: #000000;text-anchor:start;font-family:sans-serif;font-style:normal;font-weight:normal" x="50" y="290">
    <tspan x="50" y="290">process Y</tspan>
  </text>
</svg>
