<?xml version="1.0" encoding="UTF-8" standalone="no"?>
<!DOCTYPE svg PUBLIC "-//W3C//DTD SVG 1.0//EN" "http://www.w3.org/TR/2001/PR-SVG-20010719/DTD/svg10.dtd">
<svg width="24cm" height="10cm" viewBox="419 -281 463 184" xmlns="http://www.w3.org/2000/svg" xmlns:xlink="http://www.w3.org/1999/xlink">
  <g>
    <rect style="fill: #ffffff" x="590" y="-280" width="110" height="38"/>
    <rect style="fill: none; fill-opacity:0; stroke-width: 2; stroke: #000000" x="590" y="-280" width="110" height="38"/>
    <text font-size="12.8" style="fill: #000000;text-anchor:middle;font-family:sans-serif;font-style:normal;font-weight:normal" x="645" y="-256.2">
      <tspan x="645" y="-256.2">x=[1,2,3]</tspan>
    </text>
  </g>
  <text font-size="12.8" style="fill: #000000;text-anchor:start;font-family:sans-serif;font-style:normal;font-weight:normal" x="520" y="-260">
    <tspan x="520" y="-260">process 0</tspan>
  </text>
  <g>
    <rect style="fill: #ffffff" x="420" y="-160" width="100" height="40"/>
    <rect style="fill: none; fill-opacity:0; stroke-width: 2; stroke: #000000" x="420" y="-160" width="100" height="40"/>
    <text font-size="12.8" style="fill: #000000;text-anchor:middle;font-family:sans-serif;font-style:normal;font-weight:normal" x="470" y="-135.2">
      <tspan x="470" y="-135.2">x=[1,2,3]</tspan>
    </text>
  </g>
  <g>
    <rect style="fill: #ffffff" x="540" y="-160" width="100.5" height="40"/>
    <rect style="fill: none; fill-opacity:0; stroke-width: 2; stroke: #000000" x="540" y="-160" width="100.5" height="40"/>
    <text font-size="12.8" style="fill: #0000ff;text-anchor:middle;font-family:sans-serif;font-style:normal;font-weight:normal" x="590.25" y="-135.2">
      <tspan x="590.25" y="-135.2">x=[1,2,3]</tspan>
    </text>
  </g>
  <g>
    <rect style="fill: #ffffff" x="660" y="-160" width="100.5" height="40"/>
    <rect style="fill: none; fill-opacity:0; stroke-width: 2; stroke: #000000" x="660" y="-160" width="100.5" height="40"/>
    <text font-size="12.8" style="fill: #0000ff;text-anchor:middle;font-family:sans-serif;font-style:normal;font-weight:normal" x="710.25" y="-135.2">
      <tspan x="710.25" y="-135.2">x=[1,2,3]</tspan>
    </text>
  </g>
  <g>
    <rect style="fill: #ffffff" x="780" y="-160" width="100.5" height="38"/>
    <rect style="fill: none; fill-opacity:0; stroke-width: 2; stroke: #000000" x="780" y="-160" width="100.5" height="38"/>
    <text font-size="12.8" style="fill: #0000ff;text-anchor:middle;font-family:sans-serif;font-style:normal;font-weight:normal" x="830.25" y="-136.2">
      <tspan x="830.25" y="-136.2">x=[1,2,3]</tspan>
    </text>
  </g>
  <text font-size="12.8" style="fill: #000000;text-anchor:start;font-family:sans-serif;font-style:normal;font-weight:normal" x="440" y="-100">
    <tspan x="440" y="-100">process 0</tspan>
  </text>
  <text font-size="12.8" style="fill: #000000;text-anchor:start;font-family:sans-serif;font-style:normal;font-weight:normal" x="560" y="-100">
    <tspan x="560" y="-100">process 1</tspan>
  </text>
  <text font-size="12.8" style="fill: #000000;text-anchor:start;font-family:sans-serif;font-style:normal;font-weight:normal" x="680" y="-100">
    <tspan x="680" y="-100">process 2</tspan>
  </text>
  <text font-size="12.8" style="fill: #000000;text-anchor:start;font-family:sans-serif;font-style:normal;font-weight:normal" x="810" y="-100">
    <tspan x="810" y="-100">process 3</tspan>
  </text>
  <g>
    <line style="fill: none; fill-opacity:0; stroke-width: 2; stroke: #ff0000" x1="645" y1="-242" x2="479.961" y2="-164.667"/>
    <polygon style="fill: #ff0000" points="477.839,-169.195 470.906,-160.424 482.082,-160.14 "/>
    <polygon style="fill: none; fill-opacity:0; stroke-width: 2; stroke: #ff0000" points="477.839,-169.195 470.906,-160.424 482.082,-160.14 "/>
  </g>
  <g>
    <line style="fill: none; fill-opacity:0; stroke-width: 2; stroke: #ff0000" x1="645" y1="-242" x2="596.358" y2="-169.148"/>
    <polygon style="fill: #ff0000" points="592.2,-171.925 590.805,-160.832 600.516,-166.372 "/>
    <polygon style="fill: none; fill-opacity:0; stroke-width: 2; stroke: #ff0000" points="592.2,-171.925 590.805,-160.832 600.516,-166.372 "/>
  </g>
  <g>
    <line style="fill: none; fill-opacity:0; stroke-width: 2; stroke: #ff0000" x1="645" y1="-242" x2="703.401" y2="-168.607"/>
    <polygon style="fill: #ff0000" points="699.488,-165.494 709.627,-160.782 707.313,-171.721 "/>
    <polygon style="fill: none; fill-opacity:0; stroke-width: 2; stroke: #ff0000" points="699.488,-165.494 709.627,-160.782 707.313,-171.721 "/>
  </g>
  <g>
    <line style="fill: none; fill-opacity:0; stroke-width: 2; stroke: #ff0000" x1="645" y1="-242" x2="829.86" y2="-164.264"/>
    <polygon style="fill: #ff0000" points="827.922,-159.655 839.078,-160.388 831.798,-168.873 "/>
    <polygon style="fill: none; fill-opacity:0; stroke-width: 2; stroke: #ff0000" points="827.922,-159.655 839.078,-160.388 831.798,-168.873 "/>
  </g>
  <text font-size="12.8" style="fill: #0000ff;text-anchor:start;font-family:sans-serif;font-style:normal;font-weight:normal" x="510" y="-220">
    <tspan x="510" y="-220">data</tspan>
    <tspan x="510" y="-204">transfer</tspan>
  </text>
  <text font-size="12.8" style="fill: #ff0000;text-anchor:start;font-family:sans-serif;font-style:normal;font-weight:normal" x="730" y="-210">
    <tspan x="730" y="-210">MPI_Bcast()</tspan>
  </text>
</svg>
