<?xml version="1.0" encoding="UTF-8" standalone="no"?>
<!DOCTYPE svg PUBLIC "-//W3C//DTD SVG 1.0//EN" "http://www.w3.org/TR/2001/PR-SVG-20010719/DTD/svg10.dtd">
<svg width="24cm" height="9cm" viewBox="38 -273 463 172" xmlns="http://www.w3.org/2000/svg" xmlns:xlink="http://www.w3.org/1999/xlink">
  <g>
    <rect style="fill: #ffffff" x="150" y="-140" width="240" height="38"/>
    <rect style="fill: none; fill-opacity:0; stroke-width: 2; stroke: #000000" x="150" y="-140" width="240" height="38"/>
    <text font-size="12.7998" style="fill: #0000ff;text-anchor:middle;font-family:sans-serif;font-style:normal;font-weight:normal" x="270" y="-116.2">
      <tspan x="270" y="-116.2">x=[1,2,3,11,12,13,21,22,23,31,32,22]</tspan>
    </text>
  </g>
  <text font-size="12.7998" style="fill: #000000;text-anchor:start;font-family:sans-serif;font-style:normal;font-weight:normal" x="70" y="-120">
    <tspan x="70" y="-120">process 0</tspan>
  </text>
  <g>
    <rect style="fill: #ffffff" x="40" y="-250" width="100" height="38"/>
    <rect style="fill: none; fill-opacity:0; stroke-width: 2; stroke: #000000" x="40" y="-250" width="100" height="38"/>
    <text font-size="12.7998" style="fill: #0000ff;text-anchor:middle;font-family:sans-serif;font-style:normal;font-weight:normal" x="90" y="-226.2">
      <tspan x="90" y="-226.2">x=[1,2,3]</tspan>
    </text>
  </g>
  <g>
    <rect style="fill: #ffffff" x="160" y="-250" width="100.5" height="40"/>
    <rect style="fill: none; fill-opacity:0; stroke-width: 2; stroke: #000000" x="160" y="-250" width="100.5" height="40"/>
    <text font-size="12.7998" style="fill: #0000ff;text-anchor:middle;font-family:sans-serif;font-style:normal;font-weight:normal" x="210.25" y="-225.2">
      <tspan x="210.25" y="-225.2">x=[11,12,13]</tspan>
    </text>
  </g>
  <g>
    <rect style="fill: #ffffff" x="272.675" y="-250" width="115.15" height="40"/>
    <rect style="fill: none; fill-opacity:0; stroke-width: 2; stroke: #000000" x="272.675" y="-250" width="115.15" height="40"/>
    <text font-size="12.7998" style="fill: #0000ff;text-anchor:middle;font-family:sans-serif;font-style:normal;font-weight:normal" x="330.25" y="-225.2">
      <tspan x="330.25" y="-225.2">x=[21,22,23]</tspan>
    </text>
  </g>
  <g>
    <rect style="fill: #ffffff" x="400" y="-250" width="100.5" height="40"/>
    <rect style="fill: none; fill-opacity:0; stroke-width: 2; stroke: #000000" x="400" y="-250" width="100.5" height="40"/>
    <text font-size="12.7998" style="fill: #0000ff;text-anchor:middle;font-family:sans-serif;font-style:normal;font-weight:normal" x="450.25" y="-225.2">
      <tspan x="450.25" y="-225.2">x=[31,32,33]</tspan>
    </text>
  </g>
  <text font-size="12.7998" style="fill: #000000;text-anchor:start;font-family:sans-serif;font-style:normal;font-weight:normal" x="60" y="-260">
    <tspan x="60" y="-260">process 0</tspan>
  </text>
  <text font-size="12.7998" style="fill: #000000;text-anchor:start;font-family:sans-serif;font-style:normal;font-weight:normal" x="180" y="-260">
    <tspan x="180" y="-260">process 1</tspan>
  </text>
  <text font-size="12.7998" style="fill: #000000;text-anchor:start;font-family:sans-serif;font-style:normal;font-weight:normal" x="300" y="-260">
    <tspan x="300" y="-260">process 2</tspan>
  </text>
  <text font-size="12.7998" style="fill: #000000;text-anchor:start;font-family:sans-serif;font-style:normal;font-weight:normal" x="420" y="-260">
    <tspan x="420" y="-260">process 3</tspan>
  </text>
  <text font-size="12.7998" style="fill: #0000ff;text-anchor:start;font-family:sans-serif;font-style:normal;font-weight:normal" x="400" y="-170">
    <tspan x="400" y="-170">data</tspan>
    <tspan x="400" y="-154">transfer</tspan>
  </text>
  <text font-size="12.7998" style="fill: #ff0000;text-anchor:start;font-family:sans-serif;font-style:normal;font-weight:normal" x="80" y="-160">
    <tspan x="80" y="-160">MPI_Gather()</tspan>
  </text>
  <g>
    <line style="fill: none; fill-opacity:0; stroke-width: 2; stroke: #ff0000" x1="90" y1="-212" x2="226.436" y2="-143.024"/>
    <polyline style="fill: none; fill-opacity:0; stroke-width: 2; stroke: #ff0000" points="217.251,-142.065 228.432,-142.015 221.763,-150.989 "/>
  </g>
  <g>
    <line style="fill: none; fill-opacity:0; stroke-width: 2; stroke: #ff0000" x1="210.25" y1="-210" x2="267.097" y2="-143.401"/>
    <polyline style="fill: none; fill-opacity:0; stroke-width: 2; stroke: #ff0000" points="258.253,-146.061 268.548,-141.701 265.859,-152.553 "/>
  </g>
  <g>
    <line style="fill: none; fill-opacity:0; stroke-width: 2; stroke: #ff0000" x1="330.25" y1="-210" x2="286.047" y2="-144.704"/>
    <polyline style="fill: none; fill-opacity:0; stroke-width: 2; stroke: #ff0000" points="286.259,-153.937 284.794,-142.853 294.54,-148.331 "/>
  </g>
  <g>
    <line style="fill: none; fill-opacity:0; stroke-width: 2; stroke: #ff0000" x1="450.25" y1="-210" x2="333.865" y2="-142.25"/>
    <polyline style="fill: none; fill-opacity:0; stroke-width: 2; stroke: #ff0000" points="338.059,-150.477 331.932,-141.125 343.09,-141.835 "/>
  </g>
</svg>
