<?xml version="1.0" encoding="UTF-8" standalone="no"?>
<!DOCTYPE svg PUBLIC "-//W3C//DTD SVG 1.0//EN" "http://www.w3.org/TR/2001/PR-SVG-20010719/DTD/svg10.dtd">
<svg width="21cm" height="15cm" viewBox="139 -27 402 288" xmlns="http://www.w3.org/2000/svg" xmlns:xlink="http://www.w3.org/1999/xlink">
  <g>
    <rect style="fill: #ffffff" x="160" y="60" width="120" height="40"/>
    <rect style="fill: none; fill-opacity:0; stroke-width: 2; stroke: #000000" x="160" y="60" width="120" height="40"/>
    <text font-size="12.8" style="fill: #000000;text-anchor:middle;font-family:sans-serif;font-style:normal;font-weight:normal" x="220" y="84.8">
      <tspan x="220" y="84.8">x=-99</tspan>
    </text>
  </g>
  <text font-size="12.8" style="fill: #000000;text-anchor:start;font-family:sans-serif;font-style:normal;font-weight:normal" x="191.333" y="44.6666">
    <tspan x="191.333" y="44.6666">Process 0</tspan>
  </text>
  <text font-size="12.8" style="fill: #000000;text-anchor:start;font-family:sans-serif;font-style:normal;font-weight:normal" x="440" y="40">
    <tspan x="440" y="40">Process 1</tspan>
  </text>
  <g>
    <rect style="fill: #ffffff" x="400" y="60" width="120" height="40"/>
    <rect style="fill: none; fill-opacity:0; stroke-width: 2; stroke: #000000" x="400" y="60" width="120" height="40"/>
    <text font-size="12.8" style="fill: #ff0000;text-anchor:middle;font-family:sans-serif;font-style:normal;font-weight:normal" x="460" y="84.8">
      <tspan x="460" y="84.8">x=uninialized</tspan>
    </text>
  </g>
  <text font-size="12.8" style="fill: #000000;text-anchor:start;font-family:sans-serif;font-style:normal;font-weight:normal" x="324" y="78">
    <tspan x="324" y="78">int x;</tspan>
  </text>
  <g>
    <rect style="fill: #ffffff" x="140" y="140" width="160" height="38"/>
    <rect style="fill: none; fill-opacity:0; stroke-width: 2; stroke: #000000" x="140" y="140" width="160" height="38"/>
    <text font-size="12.8" style="fill: #000000;text-anchor:middle;font-family:sans-serif;font-style:normal;font-weight:normal" x="220" y="163.8">
      <tspan x="220" y="163.8">MPI_Send(&amp;x,...,1,...)</tspan>
    </text>
  </g>
  <g>
    <rect style="fill: #ffffff" x="380" y="140" width="160" height="40"/>
    <rect style="fill: none; fill-opacity:0; stroke-width: 2; stroke: #000000" x="380" y="140" width="160" height="40"/>
    <text font-size="12.8" style="fill: #000000;text-anchor:middle;font-family:sans-serif;font-style:normal;font-weight:normal" x="460" y="164.8">
      <tspan x="460" y="164.8">MPI_Recv(&amp;x,...,0,...)</tspan>
    </text>
  </g>
  <g>
    <rect style="fill: #ffffff" x="160" y="220" width="120" height="40"/>
    <rect style="fill: none; fill-opacity:0; stroke-width: 2; stroke: #000000" x="160" y="220" width="120" height="40"/>
    <text font-size="12.8" style="fill: #000000;text-anchor:middle;font-family:sans-serif;font-style:normal;font-weight:normal" x="220" y="244.8">
      <tspan x="220" y="244.8">x=-99</tspan>
    </text>
  </g>
  <g>
    <rect style="fill: #ffffff" x="400" y="220" width="120" height="40"/>
    <rect style="fill: none; fill-opacity:0; stroke-width: 2; stroke: #000000" x="400" y="220" width="120" height="40"/>
    <text font-size="12.8" style="fill: #ff0000;text-anchor:middle;font-family:sans-serif;font-style:normal;font-weight:normal" x="460" y="244.8">
      <tspan x="460" y="244.8">x=-99</tspan>
    </text>
  </g>
  <g>
    <line style="fill: none; fill-opacity:0; stroke-width: 2; stroke: #000000" x1="220" y1="100" x2="220" y2="128"/>
    <polygon style="fill: #000000" points="215,128 220,138 225,128 "/>
    <polygon style="fill: none; fill-opacity:0; stroke-width: 2; stroke: #000000" points="215,128 220,138 225,128 "/>
  </g>
  <g>
    <line style="fill: none; fill-opacity:0; stroke-width: 2; stroke: #000000" x1="460" y1="100" x2="460" y2="129"/>
    <polygon style="fill: #000000" points="455,129 460,139 465,129 "/>
    <polygon style="fill: none; fill-opacity:0; stroke-width: 2; stroke: #000000" points="455,129 460,139 465,129 "/>
  </g>
  <g>
    <line style="fill: none; fill-opacity:0; stroke-width: 2; stroke: #000000" x1="220" y1="178" x2="220" y2="209"/>
    <polygon style="fill: #000000" points="215,209 220,219 225,209 "/>
    <polygon style="fill: none; fill-opacity:0; stroke-width: 2; stroke: #000000" points="215,209 220,219 225,209 "/>
  </g>
  <g>
    <line style="fill: none; fill-opacity:0; stroke-width: 2; stroke: #000000" x1="460" y1="180" x2="460" y2="209"/>
    <polygon style="fill: #000000" points="455,209 460,219 465,209 "/>
    <polygon style="fill: none; fill-opacity:0; stroke-width: 2; stroke: #000000" points="455,209 460,219 465,209 "/>
  </g>
  <g>
    <polygon style="fill: #00ff00" points="302,153.667 342,153.667 342,148.667 382,158.667 342,168.667 342,163.667 302,163.667 "/>
    <polygon style="fill: none; fill-opacity:0; stroke-width: 2; stroke: #000000" points="302,153.667 342,153.667 342,148.667 382,158.667 342,168.667 342,163.667 302,163.667 "/>
    <polygon style="fill: none; fill-opacity:0; stroke-width: 2; stroke: #000000" points="302,153.667 342,153.667 342,148.667 382,158.667 342,168.667 342,163.667 302,163.667 "/>
  </g>
  <text font-size="12.8" style="fill: #ff0000;text-anchor:start;font-family:sans-serif;font-style:normal;font-weight:normal" x="315" y="121.667">
    <tspan x="315" y="121.667">data</tspan>
    <tspan x="315" y="137.667">transfer</tspan>
  </text>
  <text font-size="12.7998" style="fill: #0000ff;text-anchor:start;font-family:sans-serif;font-style:normal;font-weight:normal" x="200" y="20">
    <tspan x="200" y="20">a.out</tspan>
  </text>
  <text font-size="12.7998" style="fill: #0000ff;text-anchor:start;font-family:sans-serif;font-style:normal;font-weight:normal" x="450" y="20">
    <tspan x="450" y="20">a.out</tspan>
  </text>
  <text font-size="12.7998" style="fill: #000000;text-anchor:start;font-family:sans-serif;font-style:normal;font-weight:normal" x="300" y="-20">
    <tspan x="300" y="-20"></tspan>
  </text>
  <text font-size="12.7998" style="fill: #ffa500;text-anchor:start;font-family:sans-serif;font-style:normal;font-weight:normal" x="316" y="-13.5">
    <tspan x="316" y="-13.5">mpiexec</tspan>
  </text>
  <g>
    <line style="fill: none; fill-opacity:0; stroke-width: 2; stroke: #000000" x1="310" y1="-10" x2="234.339" y2="8.91535"/>
    <polyline style="fill: none; fill-opacity:0; stroke-width: 2; stroke: #000000" points="237.263,5.09203 232.169,9.45767 238.718,10.9129 "/>
  </g>
  <g>
    <line style="fill: none; fill-opacity:0; stroke-width: 2; stroke: #000000" x1="370" y1="-10" x2="434.835" y2="8.7452"/>
    <polyline style="fill: none; fill-opacity:0; stroke-width: 2; stroke: #000000" points="430.385,10.5817 436.983,9.36626 432.052,4.81781 "/>
  </g>
</svg>
