<?xml version="1.0" encoding="UTF-8" standalone="no"?>
<!DOCTYPE svg PUBLIC "-//W3C//DTD SVG 1.0//EN" "http://www.w3.org/TR/2001/PR-SVG-20010719/DTD/svg10.dtd">
<svg width="24cm" height="9cm" viewBox="38 -273 463 172" xmlns="http://www.w3.org/2000/svg" xmlns:xlink="http://www.w3.org/1999/xlink">
  <g>
    <rect style="fill: #ffffff" x="150" y="-140" width="240" height="38"/>
    <rect style="fill: none; fill-opacity:0; stroke-width: 2; stroke: #000000" x="150" y="-140" width="240" height="38"/>
    <text font-size="12.7998" style="fill: #0000ff;text-anchor:middle;font-family:sans-serif;font-style:normal;font-weight:normal" x="270" y="-116.2">
      <tspan x="270" y="-116.2">x=[1,2,3,11,12,13,21,22,23,31,32,22]</tspan>
    </text>
  </g>
  <text font-size="12.7998" style="fill: #000000;text-anchor:start;font-family:sans-serif;font-style:normal;font-weight:normal" x="70" y="-120">
    <tspan x="70" y="-120">process 0</tspan>
  </text>
  <g>
    <rect style="fill: #ffffff" x="40" y="-250" width="100" height="38"/>
    <rect style="fill: none; fill-opacity:0; stroke-width: 2; stroke: #000000" x="40" y="-250" width="100" height="38"/>
    <text font-size="12.7998" style="fill: #0000ff;text-anchor:middle;font-family:sans-serif;font-style:normal;font-weight:normal" x="90" y="-226.2">
      <tspan x="90" y="-226.2">x=[1,2,3]</tspan>
    </text>
  </g>
  <g>
    <rect style="fill: #ffffff" x="160" y="-250" width="100.5" height="40"/>
    <rect style="fill: none; fill-opacity:0; stroke-width: 2; stroke: #000000" x="160" y="-250" width="100.5" height="40"/>
    <text font-size="12.7998" style="fill: #0000ff;text-anchor:middle;font-family:sans-serif;font-style:normal;font-weight:normal" x="210.25" y="-225.2">
      <tspan x="210.25" y="-225.2">x=[11,12,13]</tspan>
    </text>
  </g>
  <g>
    <rect style="fill: #ffffff" x="272.675" y="-250" width="115.15" height="40"/>
    <rect style="fill: none; fill-opacity:0; stroke-width: 2; stroke: #000000" x="272.675" y="-250" width="115.15" height="40"/>
    <text font-size="12.7998" style="fill: #0000ff;text-anchor:middle;font-family:sans-serif;font-style:normal;font-weight:normal" x="330.25" y="-225.2">
      <tspan x="330.25" y="-225.2">x=[21,22,23]</tspan>
    </text>
  </g>
  <g>
    <rect style="fill: #ffffff" x="400" y="-250" width="100.5" height="40"/>
    <rect style="fill: none; fill-opacity:0; stroke-width: 2; stroke: #000000" x="400" y="-250" width="100.5" height="40"/>
    <text font-size="12.7998" style="fill: #0000ff;text-anchor:middle;font-family:sans-serif;font-style:normal;font-weight:normal" x="450.25" y="-225.2">
      <tspan x="450.25" y="-225.2">x=[31,32,33]</tspan>
    </text>
  </g>
  <text font-size="12.7998" style="fill: #000000;text-anchor:start;font-family:sans-serif;font-style:normal;font-weight:normal" x="60" y="-260">
    <tspan x="60" y="-260">process 0</tspan>
  </text>
  <text font-size="12.7998" style="fill: #000000;text-anchor:start;font-family:sans-serif;font-style:normal;font-weight:normal" x="180" y="-260">
    <tspan x="180" y="-260">process 1</tspan>
  </text>
  <text font-size="12.7998" style="fill: #000000;text-anchor:start;font-family:sans-serif;font-style:normal;font-weight:normal" x="300" y="-260">
    <tspan x="300" y="-260">process 2</tspan>
  </text>
  <text font-size="12.7998" style="fill: #000000;text-anchor:start;font-family:sans-serif;font-style:normal;font-weight:normal" x="420" y="-260">
    <tspan x="420" y="-260">process 3</tspan>
  </text>
  <text font-size="12.7998" style="fill: #0000ff;text-anchor:start;font-family:sans-serif;font-style:normal;font-weight:normal" x="400" y="-170">
    <tspan x="400" y="-170">data</tspan>
    <tspan x="400" y="-154">transfer</tspan>
  </text>
  <text font-size="12.7998" style="fill: #ff0000;text-anchor:start;font-family:sans-serif;font-style:normal;font-weight:normal" x="80" y="-160">
    <tspan x="80" y="-160">MPI_Scatter()</tspan>
  </text>
  <g>
    <line style="fill: none; fill-opacity:0; stroke-width: 2; stroke: #ff0000" x1="93.9911" y1="-209.982" x2="230.427" y2="-141.006"/>
    <polyline style="fill: none; fill-opacity:0; stroke-width: 2; stroke: #ff0000" points="103.176,-210.942 91.9955,-210.991 98.664,-202.017 "/>
  </g>
  <g>
    <line style="fill: none; fill-opacity:0; stroke-width: 2; stroke: #ff0000" x1="213.153" y1="-206.599" x2="270" y2="-140"/>
    <polyline style="fill: none; fill-opacity:0; stroke-width: 2; stroke: #ff0000" points="221.997,-203.939 211.702,-208.299 214.391,-197.447 "/>
  </g>
  <g>
    <line style="fill: none; fill-opacity:0; stroke-width: 2; stroke: #ff0000" x1="327.743" y1="-206.297" x2="283.54" y2="-141.001"/>
    <polyline style="fill: none; fill-opacity:0; stroke-width: 2; stroke: #ff0000" points="327.531,-197.064 328.996,-208.148 319.25,-202.67 "/>
  </g>
  <g>
    <line style="fill: none; fill-opacity:0; stroke-width: 2; stroke: #ff0000" x1="446.385" y1="-207.75" x2="330" y2="-140"/>
    <polyline style="fill: none; fill-opacity:0; stroke-width: 2; stroke: #ff0000" points="442.191,-199.523 448.318,-208.875 437.16,-208.165 "/>
  </g>
</svg>
